<svg id="Layer_36" data-name="Layer 36" xmlns="http://www.w3.org/2000/svg" viewBox="0 0 781.25 964.72"><defs><style>.cls-1{fill:#952c1f;}</style></defs><path class="cls-1" d="M67.24,206.89q6.49,26,14.44,51.5T99,309q5.3,14.14,11,28.13a2.59,2.59,0,0,0,2.41,1.83,2.51,2.51,0,0,0,2.41-1.83,337.74,337.74,0,0,1,16.83-59.86q3.15-8.22,6.75-16.26a2.58,2.58,0,0,0-.9-3.42,2.52,2.52,0,0,0-3.42.89,342.45,342.45,0,0,0-20.41,59.92q-2.07,8.64-3.67,17.4h4.82q-10.17-24.74-18.94-50t-16.07-51q-4.12-14.53-7.79-29.2c-.78-3.12-5.61-1.8-4.83,1.33Z" transform="translate(-62.83 -133.74)"/><path class="cls-1" d="M137,192.18c-3.35,12.75-13.27,22.37-18.19,34.43-2.41,5.9-3.7,12.35-2.62,18.69s5,11.61,10,15.61A141.18,141.18,0,0,0,142.78,272q8.88,5.31,18.17,9.89,9.47,4.68,19.29,8.59A169.76,169.76,0,0,0,200,297.29c7.25,1.89,15.23,2.72,22.39,0,6.2-2.38,11.5-6.9,13.55-13.38,1-3.07-3.85-4.39-4.82-1.33-1.49,4.71-5.56,8.14-10.06,9.89-5.72,2.23-12,1.83-17.87.48a138.86,138.86,0,0,1-19-6.3q-9.15-3.54-18-7.78a237.42,237.42,0,0,1-33.71-19.42c-4.46-3.14-8.88-7-10.66-12.33-1.86-5.57-.9-11.54,1-17,2.27-6.44,6.18-12.1,9.84-17.8,3.78-5.89,7.39-12,9.18-18.81.82-3.11-4-4.44-4.82-1.33Z" transform="translate(-62.83 -133.74)"/><path class="cls-1" d="M107.94,261l46.7-28.57c2.74-1.68.23-6-2.52-4.32l-46.7,28.57c-2.74,1.68-.23,6,2.52,4.32Z" transform="translate(-62.83 -133.74)"/><path class="cls-1" d="M195.8,173.5q6.63,28.2,15.24,55.89t19.15,54.67q6,15.35,12.59,30.44a2.51,2.51,0,0,0,3.42.89,2.56,2.56,0,0,0,.9-3.42Q235.6,285.61,226,258.48t-17.28-54.8q-4.35-15.68-8.07-31.51c-.73-3.13-5.55-1.81-4.82,1.33Z" transform="translate(-62.83 -133.74)"/><path class="cls-1" d="M160.18,228.48l70.34-70.68L250.22,138c2.27-2.28-1.26-5.82-3.54-3.54l-70.34,70.68-19.69,19.79c-2.27,2.28,1.26,5.82,3.53,3.54Z" transform="translate(-62.83 -133.74)"/><path class="cls-1" d="M270.66,207.88l38,58.62,10.84,16.74c1.23,1.9,4.94,1.38,4.66-1.26l-5.76-55.07-5.73-54.82-3.24-31a2.57,2.57,0,0,0-2.5-2.5,2.51,2.51,0,0,0-2.5,2.5l5.76,55.07L315.89,251l3.24,31,4.66-1.26-38-58.62L275,205.36c-1.74-2.69-6.07-.19-4.32,2.52Z" transform="translate(-62.83 -133.74)"/><path class="cls-1" d="M358.11,151.53A108.7,108.7,0,0,0,340,194.78c-.62,3.53-.89,7.25.63,10.6a9.82,9.82,0,0,0,8.26,5.54c3.46.32,6.94-.87,10.06-2.22,3.73-1.61,7.32-3.61,10.95-5.44l12-6c3.56-1.8,7.14-4,10.94-5.28,2.39-.78,5.56-1.11,6.44,1.85s-.33,6.62-1,9.6q-3,13-5.92,25.91c-2,8.61-4.29,17.22-5.64,25.95-1.25,8-1.39,16.31,1.91,23.87,2.64,6,7.39,11.22,13.59,13.6a19.07,19.07,0,0,0,4.88,1.1,2.5,2.5,0,0,0,2.5-2.5,2.57,2.57,0,0,0-2.5-2.5c-5.77-.65-10.36-5.06-13-9.95-3.52-6.42-3.65-14-2.7-21.09,1.14-8.49,3.47-16.87,5.38-25.21l5.76-25.18c1.4-6.13,4.69-15.42-1.92-19.75-3-2-7-1.36-10.18-.11-3.79,1.48-7.38,3.54-11,5.37l-11.51,5.82c-3.61,1.82-7.19,3.79-10.88,5.44-2.5,1.11-5.62,2.23-8.37,1.7s-4-3-4.07-5.67c-.11-3.43.82-6.9,1.63-10.2a108.83,108.83,0,0,1,3.28-10.92,105.07,105.07,0,0,1,9.9-20.27q1.51-2.42,3.16-4.74a2.52,2.52,0,0,0-.9-3.42,2.56,2.56,0,0,0-3.42.89Z" transform="translate(-62.83 -133.74)"/><path class="cls-1" d="M90.48,461q10,34.21,21.84,67.82T138,595.24q7.78,18.54,16.15,36.82a2.52,2.52,0,0,0,3.42.9,2.55,2.55,0,0,0,.89-3.42q-14.74-32.22-27.63-65.23T107.1,497.89q-6.21-19-11.79-38.26c-.9-3.08-5.73-1.77-4.83,1.33Z" transform="translate(-62.83 -133.74)"/><path class="cls-1" d="M85.28,496.93A377.52,377.52,0,0,0,171.4,511.3q12.21.6,24.45.4l-2.15-3.76a416.48,416.48,0,0,0-53.4,130.11q-4.34,19.47-6.77,39.29a2.52,2.52,0,0,0,2.5,2.5,2.56,2.56,0,0,0,2.5-2.5A411.45,411.45,0,0,1,178.7,544.82q8.82-17.62,19.31-34.36a2.52,2.52,0,0,0-2.16-3.76,371,371,0,0,1-85.54-8.56q-11.94-2.62-23.7-6c-3.1-.9-4.42,3.93-1.33,4.82Z" transform="translate(-62.83 -133.74)"/><path class="cls-1" d="M192.24,501.11a341.56,341.56,0,0,0,28.69,85.16q5.58,11.36,12,22.27c1.63,2.78,5.95.26,4.32-2.52a336.57,336.57,0,0,1-34.43-81.6q-3.34-12.21-5.76-24.63A2.52,2.52,0,0,0,194,498a2.55,2.55,0,0,0-1.75,3.07Z" transform="translate(-62.83 -133.74)"/><path class="cls-1" d="M214.46,488.26a312.1,312.1,0,0,0,25,35.19,308.62,308.62,0,0,0,29.64,31.4q8.94,8.22,18.51,15.72a2.53,2.53,0,0,0,4.18-2.44q-5.52-31.64-11.21-63.24T269.06,442q-3.3-17.74-6.65-35.48a2.53,2.53,0,0,0-3.08-1.75,2.56,2.56,0,0,0-1.75,3.08q6,31.54,11.76,63.14t11.37,63q3.17,17.77,6.26,35.55l4.18-2.43a305.5,305.5,0,0,1-59-61.25q-7.06-9.75-13.33-20c-1.68-2.74-6-.23-4.32,2.52Z" transform="translate(-62.83 -133.74)"/><path class="cls-1" d="M329.47,424.56q-8.93,25.62-16.22,51.76c-4.84,17.38-9.38,34.94-12.88,52.65-1.48,7.51-1.77,16.15,4.73,21.48C311,555.25,318.72,556,326,555c4.35-.55,8.64-1.53,13-2a44.71,44.71,0,0,1,12.49.55c8.3,1.54,16.13,4.84,23.87,8.08,14.23,6,30.65,12.37,46.11,7.12a35.34,35.34,0,0,0,5.46-2.4c2.82-1.55.3-5.87-2.53-4.32-13.45,7.35-29.74,2.19-42.9-3.21-7.6-3.12-15.11-6.56-23-8.77a60.42,60.42,0,0,0-12-2.15,55.25,55.25,0,0,0-12.77.81c-7.13,1.15-14.8,3-21.76,0a12.24,12.24,0,0,1-6.25-5.59c-1.57-3.08-1.41-6.89-.91-10.22.61-4.08,1.61-8.11,2.51-12.14q1.45-6.5,3-13,3.08-12.84,6.55-25.58,6.9-25.35,15.37-50.25,1.05-3.09,2.13-6.18a2.5,2.5,0,1,0-4.82-1.33Z" transform="translate(-62.83 -133.74)"/><path class="cls-1" d="M303,522.64l48.47-25.07c2.85-1.48.33-5.8-2.53-4.32L300.5,518.32c-2.85,1.48-.33,5.79,2.53,4.32Z" transform="translate(-62.83 -133.74)"/><path class="cls-1" d="M216.53,461.14c3.22,0,3.22-5,0-5s-3.22,5,0,5Z" transform="translate(-62.83 -133.74)"/><path class="cls-1" d="M429.72,429.22a325.62,325.62,0,0,0,23.63,77.09q4.66,10.4,10,20.44c1.52,2.84,5.84.32,4.32-2.52A320.48,320.48,0,0,1,439.18,450q-2.71-10.95-4.64-22.07a2.5,2.5,0,1,0-4.82,1.33Z" transform="translate(-62.83 -133.74)"/><path class="cls-1" d="M504.62,520.82q-10.25-20.94-18.72-42.68-8.52-21.92-15.18-44.5Q467,421,463.85,408.11L459.28,410c11,16.16,22.07,32.33,34,47.87S517.8,488.36,532,501.79q5.31,5,10.88,9.71c3.42,2.88,6.84,5.8,10.9,7.74,3.61,1.73,7.86,3,11.85,1.83a11.06,11.06,0,0,0,7.72-9.6c.54-4.31-.76-8.61-2.07-12.67q-2.4-7.44-5-14.83-5.19-14.76-11.13-29.25a615.57,615.57,0,0,0-26.72-56.78q-1.82-3.4-3.68-6.78c-1.55-2.82-5.87-.3-4.32,2.53Q535,420.07,546.9,447.81q5.94,13.88,11.17,28,2.59,7,5,14.08c1.57,4.59,3.25,9.19,4.51,13.87.88,3.27,1.81,7.69-.51,10.6-2.07,2.58-5.41,2.39-8.31,1.48a30.51,30.51,0,0,1-10-6q-5.4-4.43-10.53-9.14A344.47,344.47,0,0,1,500.38,459c-11.56-14.8-22.25-30.25-32.84-45.75l-3.94-5.77a2.51,2.51,0,0,0-4.57,1.92q5.61,23,13.13,45.39t17,44.29q5.3,12.24,11.16,24.22a2.5,2.5,0,0,0,4.32-2.52Z" transform="translate(-62.83 -133.74)"/><path class="cls-1" d="M424.51,421.2l-3.25-19.39-4.17,2.43a81.89,81.89,0,0,1,17.78,24,2.5,2.5,0,1,0,4.32-2.53,85.88,85.88,0,0,0-18.57-25,2.52,2.52,0,0,0-4.18,2.43l3.25,19.39a2.51,2.51,0,0,0,3.07,1.75,2.56,2.56,0,0,0,1.75-3.08Z" transform="translate(-62.83 -133.74)"/><path class="cls-1" d="M121.72,797q7.75,30,17.2,59.46t20.56,58.39q6.27,16.27,13.05,32.36a2.59,2.59,0,0,0,3.08,1.75c1.17-.33,2.27-1.83,1.74-3.08q-12-28.51-22.43-57.69t-19.1-58.88q-4.9-16.74-9.28-33.64c-.8-3.11-5.63-1.79-4.82,1.33Z" transform="translate(-62.83 -133.74)"/><path class="cls-1" d="M67.1,869.3q35.76-28.84,72.37-56.64t73.75-54.3q21-15,42.22-29.63a2.56,2.56,0,0,0,.9-3.42,2.52,2.52,0,0,0-3.42-.89q-38,26.19-75.22,53.5t-73.54,55.65q-20.43,15.93-40.6,32.2a2.51,2.51,0,0,0,0,3.53,2.56,2.56,0,0,0,3.54,0Z" transform="translate(-62.83 -133.74)"/><path class="cls-1" d="M160.57,766.84q6.39,33,15.54,65.33T197.06,896q6.67,17.73,14.16,35.14a2.52,2.52,0,0,0,3.42.9,2.57,2.57,0,0,0,.9-3.42q-13.17-30.68-23.73-62.39-10.5-31.53-18.37-63.86Q169,784,165.39,765.51a2.53,2.53,0,0,0-3.08-1.75,2.56,2.56,0,0,0-1.74,3.08Z" transform="translate(-62.83 -133.74)"/><path class="cls-1" d="M172.1,715.07q10.46,44.31,24.09,87.79t30.37,85.83Q236,912.59,246.4,936.1a2.52,2.52,0,0,0,3.42.89,2.56,2.56,0,0,0,.9-3.42q-18.33-41.45-33.63-84.16t-27.47-86.3q-6.84-24.55-12.7-49.37c-.74-3.13-5.56-1.81-4.82,1.33Z" transform="translate(-62.83 -133.74)"/><path class="cls-1" d="M186.76,873.48l43-35.18,12.15-9.94a2.52,2.52,0,0,0,0-3.54,2.55,2.55,0,0,0-3.53,0l-43,35.19L183.23,870a2.5,2.5,0,0,0,0,3.53,2.54,2.54,0,0,0,3.53,0Z" transform="translate(-62.83 -133.74)"/><path class="cls-1" d="M241.78,697.63,236.1,767.1l-2.83,34.61c-.76,9.26-2.35,19.46,1.06,28.4a22.64,22.64,0,0,0,8.28,10.66,39.54,39.54,0,0,0,11.9,5.11c4.21,1.21,8.5,2.15,12.61,3.68a61.75,61.75,0,0,1,11.79,6c15.5,9.95,26.86,24.87,41.54,35.82,13.91,10.38,33.48,18.85,50.79,12.29a36.1,36.1,0,0,0,6-2.91c2.74-1.67.23-6-2.53-4.32-15.31,9.32-34.16,2.49-47.84-6.63-7.4-4.92-13.79-11.14-20.19-17.26s-13.05-12.5-20.31-17.88a71.79,71.79,0,0,0-23.73-11.78c-7.5-2.07-16.79-3.56-21.53-10.47-4.88-7.11-4-16.6-3.33-24.74q1.38-16.94,2.77-33.87l5.54-67.73.69-8.46a2.52,2.52,0,0,0-2.5-2.5,2.55,2.55,0,0,0-2.5,2.5Z" transform="translate(-62.83 -133.74)"/><path class="cls-1" d="M244.61,847l46.82-23.35c2.88-1.44.35-5.75-2.52-4.32L242.09,842.7c-2.88,1.44-.35,5.75,2.52,4.32Z" transform="translate(-62.83 -133.74)"/><path class="cls-1" d="M381.08,726.73a549.78,549.78,0,0,0,35,130.92q7.21,17.8,15.62,35.09a2.52,2.52,0,0,0,3.42.89,2.55,2.55,0,0,0,.9-3.42,543.69,543.69,0,0,1-25.74-62.36,550,550,0,0,1-17.87-65q-3.9-18.58-6.51-37.43a2.52,2.52,0,0,0-3.08-1.74,2.56,2.56,0,0,0-1.74,3.07Z" transform="translate(-62.83 -133.74)"/><path class="cls-1" d="M363.55,708a159.92,159.92,0,0,0,38.08,24.75,163,163,0,0,0,43.26,13.19,159.64,159.64,0,0,0,25.74,1.94l-2.16-3.76A452.82,452.82,0,0,0,427.92,893c-1.39,14.51-2.07,29.09-2,43.66,0,3.22,5,3.23,5,0a445.49,445.49,0,0,1,6.4-76.3,452.55,452.55,0,0,1,19.22-73.86q7.17-20.31,16.29-39.86a2.54,2.54,0,0,0-2.16-3.77,155.2,155.2,0,0,1-43.49-6A158.42,158.42,0,0,1,387,719.12a151.67,151.67,0,0,1-19.86-14.7,2.56,2.56,0,0,0-3.54,0,2.53,2.53,0,0,0,0,3.54Z" transform="translate(-62.83 -133.74)"/><path class="cls-1" d="M501.87,887.08,485.51,802l-16.3-84.88L460,669.23l-4.57,1.92L494,753.78l38.39,82.4L554,882.58a2.51,2.51,0,0,0,3.42.9,2.55,2.55,0,0,0,.89-3.42l-38.5-82.63L481.4,715l-21.63-46.41a2.48,2.48,0,0,0-3.12-1,2.54,2.54,0,0,0-1.45,2.95l16.35,85.13,16.31,84.88L497,888.41a2.53,2.53,0,0,0,3.08,1.75,2.56,2.56,0,0,0,1.75-3.08Z" transform="translate(-62.83 -133.74)"/><path class="cls-1" d="M484.89,826.39l41.24-30.24L538,787.44a2.58,2.58,0,0,0,.9-3.42,2.53,2.53,0,0,0-3.42-.9l-41.25,30.25-11.86,8.7a2.58,2.58,0,0,0-.9,3.42,2.52,2.52,0,0,0,3.42.9Z" transform="translate(-62.83 -133.74)"/><path class="cls-1" d="M513.29,723.36q9.81,31.2,22.47,61.41T563.84,844Q572.5,860.29,582,876.1c1.65,2.75,6,.24,4.31-2.53q-16.72-27.84-30.85-57.13T530,756.67Q523.6,739.51,518.12,722c-1-3-5.79-1.75-4.83,1.33Z" transform="translate(-62.83 -133.74)"/><path class="cls-1" d="M511.45,720.44,575.17,700l18.07-5.79-2.43-4.17a275.38,275.38,0,0,0-49,77.28q-5.07,12-9,24.46a2.52,2.52,0,0,0,1.75,3.08,258.61,258.61,0,0,1,117.84,48,2.52,2.52,0,0,0,3.42-.9,2.56,2.56,0,0,0-.9-3.42,259.34,259.34,0,0,0-43.36-25.84,265.11,265.11,0,0,0-47.7-17.17,261.23,261.23,0,0,0-28-5.49l1.74,3.08a269.73,269.73,0,0,1,17-41.65,273.91,273.91,0,0,1,23.68-38.28c5-6.79,10.37-13.33,16-19.61,1.58-1.75.08-5-2.43-4.18l-63.72,20.41-18.07,5.78c-3.05,1-1.74,5.81,1.33,4.82Z" transform="translate(-62.83 -133.74)"/><path class="cls-1" d="M599.76,660q11.47,36.4,25.91,71.78t31.78,69.57q9.69,19.1,20.26,37.73c1.58,2.79,5.9.28,4.31-2.53q-18.71-33-34.68-67.45t-29-69.9q-7.36-20.1-13.81-40.53c-1-3-5.79-1.75-4.82,1.33Z" transform="translate(-62.83 -133.74)"/><path class="cls-1" d="M638.31,755.08l18.84-51.54L676,652l10.62-29c.85-2.34-2.57-4.27-4.18-2.44A271.11,271.11,0,0,0,640,685.42a274.53,274.53,0,0,0-13.75,36q-2.81,9.28-4.93,18.75c-.7,3.11-1.43,6.23-1.86,9.39s-.46,6.66,1.16,9.62c2.87,5.24,9.47,6.23,14.79,4.82,6-1.6,10.36-6.37,15.72-9.29,11.35-6.17,24.18,1.13,33.75,7.39,5.46,3.56,10.74,7.39,16.29,10.84s11.27,6.65,17.11,9.6a234.65,234.65,0,0,0,36.17,14.65A232.08,232.08,0,0,0,832,807.54q4.8-.18,9.58-.57a2.56,2.56,0,0,0,2.5-2.5,2.51,2.51,0,0,0-2.5-2.5A227.72,227.72,0,0,1,696.2,763.76c-10.25-7-21.1-15.37-33.92-16.3-6.37-.46-12.16,1.66-17.32,5.28-4.36,3.06-8.72,7-14.39,6.88a6.47,6.47,0,0,1-5.19-2.27c-1.58-2.13-1.3-5.19-.89-7.65,1-6.19,2.57-12.35,4.19-18.41a263.86,263.86,0,0,1,12.24-35.64,267,267,0,0,1,39-64.54q2.94-3.58,6-7.06l-4.18-2.43-18.83,51.54L644.11,724.7l-10.62,29a2.5,2.5,0,0,0,4.82,1.33Z" transform="translate(-62.83 -133.74)"/><path class="cls-1" d="M666.58,887.72a85,85,0,0,0-39.39,32,81.92,81.92,0,0,0-13.93,48.51,86.53,86.53,0,0,0,18.07,49.06,81,81,0,0,0,43.87,28.81,85.73,85.73,0,0,0,53.89-3.54c2.13-.89,4.22-1.85,6.27-2.91,2.86-1.48.33-5.79-2.53-4.32a79.62,79.62,0,0,1-50,7.32,77,77,0,0,1-43.89-24,81.31,81.31,0,0,1-20.19-44.25,76.57,76.57,0,0,1,9.5-46.87,80.81,80.81,0,0,1,34.39-32.73q2.58-1.27,5.26-2.32a2.58,2.58,0,0,0,1.74-3.08,2.51,2.51,0,0,0-3.07-1.74Z" transform="translate(-62.83 -133.74)"/><path class="cls-1" d="M659,891.26a80.34,80.34,0,0,0-16.45,37.16,102.53,102.53,0,0,0,2.1,42.34,141.58,141.58,0,0,0,16.94,39.42c7,11.3,16.07,21.9,27.88,28.35,13.07,7.15,29.46,9,43,2.07,2.86-1.48.33-5.79-2.53-4.32-10.87,5.6-24.21,4.47-35.07-.6-11.32-5.29-20.17-14.65-27-24.93a137.31,137.31,0,0,1-17.1-36.54,101.53,101.53,0,0,1-4-40.17c1.58-14.13,6.8-28.14,15.78-39.25a2.58,2.58,0,0,0,0-3.53,2.52,2.52,0,0,0-3.54,0Z" transform="translate(-62.83 -133.74)"/><path class="cls-1" d="M491.79,953.8a9.29,9.29,0,0,0,1.83,10.25,9.76,9.76,0,0,0,9.75,3.11c6.6-1.93,9.44-10.71,5.9-16.42-3.77-6.08-12.9-7.25-18.48-3a12.62,12.62,0,0,0-5,9.65,8.84,8.84,0,0,0,5.31,8.58,9.44,9.44,0,0,0,9.55-1.68,6.89,6.89,0,0,0,2.26-4.63c.15-1.75-1.33-2.67-2.49-3.7l-3.06-2.71-3,3.93a6.1,6.1,0,0,0,7.53-1.29,6.5,6.5,0,0,0,1.16-7.75,7.9,7.9,0,0,0-6.69-3.67,8.44,8.44,0,0,0-7,3.57,11.82,11.82,0,0,0-1.83,9.16,2.5,2.5,0,1,0,4.82-1.33c0-.3-.05-.31,0,0,0-.16,0-.32,0-.48a7.85,7.85,0,0,1,0-.84c0-.28,0-.56.05-.84-.05.51.09-.43.11-.52s.12-.47.19-.69.1-.3.16-.45c-.11.23-.1.21,0-.06s.22-.42.34-.62.58-.8.28-.44a6.32,6.32,0,0,1,.56-.6l.26-.23c-.19.15-.17.14.07,0a6.1,6.1,0,0,1,.71-.39c-.4.18-.05,0,.16,0s1-.16.34-.1a6,6,0,0,1,.61,0c.13,0,1,.09.35,0a4.26,4.26,0,0,1,.69.15c.13,0,.81.3.26,0,.24.11.46.25.69.38.43.22-.25-.3.12.08.1.1.59.72.25.21.11.17.21.34.31.51s.11.23,0,0c0,.13.08.26.11.4-.15-.56,0,0,0,.13s0,.26,0-.07c0,.13-.06.26-.1.39s-.09.25,0,0c0,.09-.09.18-.14.27s-.51.68-.13.25a7.93,7.93,0,0,1-.58.58c.39-.36,0,0-.15.08a3.9,3.9,0,0,1-.35.19c.3-.12.32-.13.06,0s-.49.07-.09.06h-.37c.35.06.38.06.1,0s-.25-.07.05,0a2.43,2.43,0,0,1-.35-.2c-2.38-1.46-5.19,2-3,3.93l4.84,4.28-.74-1.76c0,.11,0,.24,0,.35,0-.58.07-.31,0-.15s-.33.76,0,.19c-.1.18-.23.38-.32.58s-.3.27.1-.11c-.08.07-.13.17-.21.24s-.34.3-.49.45c.44-.44,0,0-.19.1s-.4.21-.61.32c.53-.27-.07,0-.3.09l-.6.15-.35.06c.56-.13.29,0,.13,0l-.72,0H494c-.09,0-.61-.06-.2,0s-.37-.08-.46-.11-.39-.12-.59-.18c-.41-.13.05,0,.12,0l-.32-.16-.3-.18s-.45-.36-.17-.11-.27-.29-.33-.35-.27-.35-.11-.13-.09-.15-.13-.21c-.13-.22-.25-.44-.37-.67.21.4,0,.1,0,0a6.36,6.36,0,0,1-.19-.62c0-.14-.16-.77-.13-.52s0-.13,0-.21,0-.3,0-.44c0-.3,0-.59,0-.89s-.07.39,0,0c0-.18.06-.37.1-.55s.15-.59.24-.88l.15-.43s.15-.37.05-.12.08-.17.11-.22a3.17,3.17,0,0,1,.21-.41,9.94,9.94,0,0,1,.53-.89,7.5,7.5,0,0,1,2-1.91c.25-.15.51-.3.78-.43s.26-.13.4-.18c-.1,0-.43.14,0,0a15,15,0,0,1,1.71-.47l.44-.08c-.49.08-.1,0,0,0,.3,0,.6,0,.89,0a8.75,8.75,0,0,1,.89,0l.45,0c.48,0-.19,0,.1,0a14.39,14.39,0,0,1,1.6.4c.13,0,.89.37.43.15.29.14.59.29.87.45s.49.31.73.47-.28-.24,0,0l.33.28.54.54.29.34c-.33-.39.08.13.12.19s.25.4.36.6.11.25.18.36c.18.31-.1-.38,0,0,.13.56.33,1.08.43,1.65-.1-.57,0,.14,0,.33s0,.47,0,.71-.07.89,0,.57,0,.09,0,.17-.06.33-.1.5-.13.52-.21.77-.35.86-.11.35a10.46,10.46,0,0,1-.77,1.39l-.23.33c.29-.42.1-.13,0,0s-.35.39-.54.57-.71.55-.24.24c-.22.14-.43.29-.65.42s-.24.12-.35.19c-.52.3.45-.12-.13.06l-.79.23c-.43.13-.1,0,0,0a4.44,4.44,0,0,1-.63,0c-.22,0-.91-.11-.4,0a7.77,7.77,0,0,1-1-.26l-.4-.14c.34.13.11,0-.08-.06s-.57-.31-.84-.49l-.35-.26c.28.22.06.05-.08-.09a9,9,0,0,1-.69-.69l-.28-.33c.22.28.06.07-.05-.1a8.61,8.61,0,0,1-.49-.83c-.06-.13-.13-.25-.18-.38.14.32.05.13,0-.09s-.16-.6-.23-.91c0,.1,0,.52,0,0,0-.17,0-.34,0-.52s0-.27,0-.41-.12.39,0,0c.05-.13.07-.27.11-.41s.28-.69.06-.2a2.57,2.57,0,0,0-.9-3.42,2.52,2.52,0,0,0-3.42.89Z" transform="translate(-62.83 -133.74)"/><path class="cls-1" d="M488.78,958.05l7.13,53.32,3.57,26.66,1.78,13.32c.58,4.33,1,8.69,1.76,13,.61,3.57,2.4,7.81,6.41,8.49,3.42.58,7.89-1.59,7.46-5.6a2.55,2.55,0,0,0-1.53-2.29,2.49,2.49,0,0,0-2.74.52l-3.46,4.33,4.26,1.77a24.37,24.37,0,0,1,9.05-16.17,2.51,2.51,0,0,0,0-3.54,2.55,2.55,0,0,0-3.53,0,29.26,29.26,0,0,0-10.52,19.71c-.22,2.08,2.95,3.41,4.27,1.77l3.47-4.34-4.27-1.76c0,.22.22.63,0,.33l.08-.16c-.15.25-.16.28,0,.08a2,2,0,0,1-.65.38s-.82.12-.41.09c0,0-.85,0-.43,0a1.48,1.48,0,0,1-1.16-.72,7.78,7.78,0,0,1-1.35-3.49c-.36-1.81-.55-3.66-.79-5.48L504,1034.08l-6.47-48.39-3.7-27.64a2.58,2.58,0,0,0-2.5-2.5c-1.21,0-2.68,1.15-2.5,2.5Z" transform="translate(-62.83 -133.74)"/><path class="cls-1" d="M503,967.71l14.08,83,4,23.41a2.51,2.51,0,0,0,3.07,1.75,2.57,2.57,0,0,0,1.75-3.08l-14.08-83-4-23.41a2.53,2.53,0,0,0-3.08-1.75,2.57,2.57,0,0,0-1.75,3.08Z" transform="translate(-62.83 -133.74)"/><path class="cls-1" d="M485.6,943.43a11.82,11.82,0,0,1-8.57-4.22,19.69,19.69,0,0,1-4.43-9.58c-1.54-8.37,3.07-16.35,8.69-22.47a116.48,116.48,0,0,1,12.21-11.07l-3.93-3a30.81,30.81,0,0,0-.37,27,29.65,29.65,0,0,0,8.38,10.57c3.23,2.63,6.74,5.54,5.24,10.08-1.55,4.75-6.58,8.21-10.64,10.67-2.75,1.67-.24,6,2.52,4.32,7.59-4.6,18.26-14.25,11.35-23.8-2.83-3.9-7.32-6.13-10.1-10.11A26.14,26.14,0,0,1,491.43,910a24.87,24.87,0,0,1,2.46-14.4,2.51,2.51,0,0,0-3.93-3c-8.23,6.76-16.64,14-20.75,24.1a25.38,25.38,0,0,0,3.89,25.64,16.9,16.9,0,0,0,12.5,6.14c3.22.08,3.21-4.92,0-5Z" transform="translate(-62.83 -133.74)"/><path class="cls-1" d="M479.56,939l1,6c.32,1.88,3,2.36,4.18,1.1,3.83-4,1.84-11.51-3.64-12.82l1.83,2.41.39-7.09-4.66,1.27L485,939a2.56,2.56,0,0,0,2.49,1.2,2.47,2.47,0,0,0,2.08-1.8,4.55,4.55,0,0,0-7.42-4.37c-3.15,3,.35,8.56,4.42,7.45a2.5,2.5,0,0,0-1.33-4.83c-.43.12.23,0,.33,0s.22,0,0,0l.29.12c-.4-.17.23.21,0,0s.33.5,0,0c-.18-.27,0,0,0,.12-.11-.55,0,.39,0,.08s-.17.53,0,.09a1.25,1.25,0,0,1-.42.61c-.15.1-.17.12-.06,0s.09-.06-.23.1l-.19,0c.47-.08-.33-.07-.1,0s-.43-.26-.05,0-.27-.23,0,0,.3.43,0-.06c.18.27,0,0-.06-.16,0-.38,0-.47,0-.27s0,.11,0-.25l4.57-.6-6.3-9.1a2.52,2.52,0,0,0-4.66,1.26l-.39,7.09a2.53,2.53,0,0,0,1.84,2.41c.07,0,.77.16.38.09s.21.11.32.18.45.41.06,0c.12.13.26.23.38.36a2.85,2.85,0,0,1,.23.26c-.2-.28-.23-.31-.07-.09l.28.45.24.48c-.29-.61,0,0,0,.16s.1.4.14.6c.12.5,0-.51,0,0,0,.18,0,.35,0,.53s0,.24,0,.35c.05-.34.06-.42,0-.23s-.08.4-.14.59-.32.57,0,.05l-.25.45c-.16.23-.13.2.07-.08a2,2,0,0,1-.24.26l4.18,1.11-1-6a2.52,2.52,0,0,0-3.07-1.75,2.58,2.58,0,0,0-1.75,3.08Z" transform="translate(-62.83 -133.74)"/><path class="cls-1" d="M478.24,1062c0-12.32,12.56-23.4,24.86-21.38a2.57,2.57,0,0,0,3.08-1.74,2.52,2.52,0,0,0-1.75-3.08c-15.46-2.54-31.18,10.38-31.19,26.2,0,3.22,5,3.22,5,0Z" transform="translate(-62.83 -133.74)"/><path class="cls-1" d="M527.92,1036.22a86.26,86.26,0,0,1,18.16-.81c5.24.43,10.87,1.79,15,5.3,4.73,4,6.63,10,6.05,16.09-.61,6.39-4.07,12-8.75,16.28-8.93,8.12-21.78,11.69-33.65,11.79a66.65,66.65,0,0,1-32.74-8.46,62.15,62.15,0,0,1-24-23.38c-.72-1.28-1.39-2.58-2-3.91a2.52,2.52,0,0,0-3.42-.9,2.56,2.56,0,0,0-.9,3.42,65.7,65.7,0,0,0,24.8,27.28,72.29,72.29,0,0,0,35.46,10.92c13,.46,26.85-2.94,37.3-10.95,5.86-4.49,10.53-10.56,12.27-17.83,1.66-6.92.77-14.63-3.61-20.4-8.14-10.72-22.94-11.18-35.2-10-1.56.15-3.11.34-4.67.54a2.58,2.58,0,0,0-2.5,2.5c0,1.22,1.16,2.68,2.5,2.5Z" transform="translate(-62.83 -133.74)"/><path class="cls-1" d="M467.69,1066.92c7.68,15.92,23.54,27.52,40.86,30.68,17.56,3.2,35.42-2.75,48.22-15a55.84,55.84,0,0,0,15.1-24.84c.88-3.1-4-4.43-4.82-1.33-4.34,15.28-16.39,28.08-31.17,33.8-15.35,5.94-32.41,3.51-46.05-5.5A50.88,50.88,0,0,1,472,1064.4a2.52,2.52,0,0,0-3.42-.9,2.57,2.57,0,0,0-.9,3.42Z" transform="translate(-62.83 -133.74)"/></svg>