<svg id="Layer_41" data-name="Layer 41" xmlns="http://www.w3.org/2000/svg" viewBox="0 0 807.01 1086.42"><defs><style>.cls-1{fill:#952c1f;}</style></defs><path class="cls-1" d="M81.33,304.45,38.77,200.8l-12-29.24-4.57,1.93q27.34,47.59,59.31,92.32,31.86,44.57,68,85.86,20.3,23.19,41.85,45.22c1.67,1.7,5.07,0,4.18-2.43L172.58,332l-23-62.41-22.95-62.41-22.94-62.41L80.79,82.39l-2.87-7.8-3.67,2.83,20.67,9a2.58,2.58,0,0,0,3.42-.9,2.51,2.51,0,0,0-.9-3.42l-20.67-9c-1.76-.77-4.51.54-3.67,2.82l23,62.41L119,200.75l23,62.41,22.95,62.41L187.83,388l2.87,7.8,4.18-2.43q-38.3-39.12-72.59-81.9-34-42.46-63.77-88.17-16.73-25.71-32-52.31c-1.36-2.38-5.67-.76-4.57,1.92L64.5,276.54l12,29.24a2.58,2.58,0,0,0,3.07,1.74,2.52,2.52,0,0,0,1.75-3.07Z" transform="translate(-21.76 -38.02)"/><path class="cls-1" d="M177.55,237a333.72,333.72,0,0,0,18.27,66.69A340.58,340.58,0,0,0,210,335.25q3.94,7.69,8.29,15.2c2.54,4.37,5.19,9,9.49,11.84a11,11,0,0,0,13.67-.9c4.12-3.66,5.21-9.41,4.69-14.67-.6-6-2.2-11.93-3.56-17.77s-2.78-11.52-4.32-17.25a522.07,522.07,0,0,0-23-67q-6.88-16.38-14.85-32.26c-4.21-8.38-9-17.86-17.64-22.48a20.53,20.53,0,0,0-6.5-2.22c-1.21-.19-2.85.3-3.07,1.75a277.69,277.69,0,0,0-2.53,62.91A277.27,277.27,0,0,0,195,347.62a2.52,2.52,0,0,0,3.42.9,2.56,2.56,0,0,0,.9-3.42A274.22,274.22,0,0,1,175,225.26a266.36,266.36,0,0,1,3-34.43l-3.08,1.74c8.82,1.37,14.2,9.36,18.17,16.63,5.27,9.65,9.87,19.74,14.3,29.8a515.86,515.86,0,0,1,23.16,63.8q4.74,16.31,8.41,32.88c.62,2.8,1.26,5.61,1.77,8.43a22.25,22.25,0,0,1,.3,8c-.7,3.6-3.56,7.83-7.75,7.15-4-.64-6.78-4.84-8.72-8-2.87-4.68-5.51-9.5-8.08-14.35a327.09,327.09,0,0,1-13.94-29.75,333.18,333.18,0,0,1-18.77-63.53q-.75-4-1.41-8a2.51,2.51,0,0,0-3.07-1.75,2.56,2.56,0,0,0-1.75,3.08Z" transform="translate(-21.76 -38.02)"/><path class="cls-1" d="M63.26,502.5,55,486.28c-1.26-2.48-5.6-.73-4.56,1.93q14.31,36.68,30.86,72.43,16.47,35.58,35.14,70.08,10.57,19.53,21.82,38.67c1.38,2.35,5.62.79,4.57-1.93l-33.32-86.12L76.21,495.21,57.45,446.7l-4.57,1.93L98.23,517.9l45.36,69.27,25.6,39.1c1.48,2.26,5.52.89,4.57-1.93L135.51,510.53l-38-113.19L76,333.48c-1-3-5.85-1.73-4.82,1.33l38.24,113.82,38,113.18,21.46,63.86,4.57-1.92-45.35-69.27L82.8,485.21l-25.6-39.1c-1.46-2.23-5.65-.86-4.57,1.92L86,534.16l33.32,86.13L138,668.79l4.57-1.92q-19.79-33.68-37.46-68.52T72,527.65q-8.73-20.24-16.73-40.77l-4.57,1.93L58.94,505c1.46,2.87,5.77.34,4.32-2.53Z" transform="translate(-21.76 -38.02)"/><path class="cls-1" d="M202,616.13q-18.21-36.4-33.91-74t-28.62-75.89q-7.34-21.66-13.82-43.6l-4.57,1.93q14.21,21.09,27.38,42.86t25.25,44.15q12.12,22.49,23.15,45.54Q207.8,580,217.59,603.37t18.48,47.39c.72,2,1.44,4,2.15,6a2.57,2.57,0,0,0,3.08,1.75,2.52,2.52,0,0,0,1.74-3.08q-8.55-24.08-18.26-47.71t-20.66-46.94q-10.86-23.12-22.85-45.69T156.2,470.58Q143.12,448.64,129,427.36l-3.55-5.31c-1.52-2.25-5.41-.92-4.57,1.93q11.61,39.22,25.9,77.59t31.17,75.58q9.48,20.94,19.78,41.5c1.45,2.88,5.76.35,4.32-2.52Z" transform="translate(-21.76 -38.02)"/><path class="cls-1" d="M167.65,579.46l35.1-20.06c2.79-1.59.28-5.91-2.52-4.31l-35.1,20c-2.79,1.6-.28,5.92,2.52,4.32Z" transform="translate(-21.76 -38.02)"/><path class="cls-1" d="M175.49,432.9l-5-16.76-4.83,1.33,17.16,49.34L200,516.15l17.15,49.34,17.07,49.1,17.16,49.34,2.15,6.2a2.56,2.56,0,0,0,3.08,1.74,2.52,2.52,0,0,0,1.74-3.07l-17.15-49.34-17.15-49.34L206.9,520.78l-17.07-49.1-17.15-49.34-2.15-6.2c-1.05-3-5.75-1.79-4.83,1.33l5,16.76c.91,3.08,5.73,1.77,4.82-1.33Z" transform="translate(-21.76 -38.02)"/><path class="cls-1" d="M167.84,511.94,208.25,465l11.4-13.24a2.56,2.56,0,0,0,0-3.54,2.51,2.51,0,0,0-3.53,0l-40.41,46.92-11.4,13.25a2.55,2.55,0,0,0,0,3.53,2.51,2.51,0,0,0,3.53,0Z" transform="translate(-21.76 -38.02)"/><path class="cls-1" d="M252.11,427.8l-17.55,73.1-4.3,17.91c-1.22,5.09-2.87,10.25-3.23,15.5-.46,6.84,1.86,17.41,10.83,16.46,4.91-.51,7.65-4.59,11.63-6.93,3.76-2.21,8.33-1.06,11.79,1.18,4.21,2.72,6.74,7.4,8.81,11.82,2.33,5,4.42,10,6.8,15A288.58,288.58,0,0,0,313,629c6.64,8.14,14.23,15.91,23.66,20.79,9,4.65,20,6.54,29.82,3.36a30.88,30.88,0,0,0,6.79-3.17c2.71-1.72.21-6.05-2.52-4.32-8.23,5.2-18.52,4.93-27.42,1.65-9.39-3.46-17.05-10.56-23.53-18a238.89,238.89,0,0,1-19.3-25.88,295.23,295.23,0,0,1-16.64-28.67q-3.76-7.44-7.12-15.09c-2-4.67-4-9.4-7.16-13.47a21.27,21.27,0,0,0-11.93-8.1,15.35,15.35,0,0,0-7.47,0,17,17,0,0,0-6.06,3.4,30.57,30.57,0,0,1-4.91,3.71,5.13,5.13,0,0,1-2.07.58,5.2,5.2,0,0,1-.68,0c-.44,0,.31.07-.1,0a6,6,0,0,1-.61-.15c-.1,0-.72-.28-.29-.09a4.58,4.58,0,0,1-2.34-2.55,13.75,13.75,0,0,1-.66-1.94,15.26,15.26,0,0,1-.42-2.35c-.37-4.25.39-7.7,1.38-11.81L237.75,509l17.09-71.17,2.09-8.71c.75-3.13-4.07-4.46-4.82-1.33Z" transform="translate(-21.76 -38.02)"/><path class="cls-1" d="M241.09,569.27l53.31-31.5,15.05-8.89c2.77-1.64.26-6-2.52-4.32l-53.31,31.5L238.57,565c-2.77,1.64-.25,6,2.52,4.32Z" transform="translate(-21.76 -38.02)"/><path class="cls-1" d="M306.42,504.3,324,555.07l17.58,50.77,10,28.81a2.56,2.56,0,0,0,3.08,1.74,2.51,2.51,0,0,0,1.74-3.07l-17.58-50.77-17.59-50.77-10-28.81a2.56,2.56,0,0,0-3.07-1.75,2.53,2.53,0,0,0-1.75,3.08Z" transform="translate(-21.76 -38.02)"/><path class="cls-1" d="M307.47,505.26A273.83,273.83,0,0,1,322.54,461a278.57,278.57,0,0,1,22.35-41q7.25-11,15.51-21.23l-3.92-3q-14.82,28.5-27,58.27T308,514.32q-2.32,7.6-4.47,15.26c-1.43,5.07-3.34,10.47-2.84,15.81.42,4.52,2.69,9.08,6.9,11.2s8.4.87,11.88-1.88c2.73-2.16,5.06-5.48,8.52-6.51,3.93-1.16,7.94,1.14,10.9,3.55,3.93,3.21,7.12,7.24,10.44,11l11.14,12.78,44.9,51.49,5.57,6.39a2.5,2.5,0,0,0,3.54-3.53l-44.25-50.74c-7.36-8.45-14.69-16.92-22.09-25.33-5.71-6.5-14.62-14.1-23.75-9.56-3.31,1.66-5.54,4.73-8.46,6.87a6.3,6.3,0,0,1-4.28,1.54,6.13,6.13,0,0,1-4-2.44c-3-3.68-2.08-8.8-1-13,1.28-5.06,2.78-10.08,4.26-15.09q8.94-30.28,20.59-59.66,11.56-29.14,25.75-57.17,1.79-3.54,3.62-7.07a2.52,2.52,0,0,0-.64-3.23,2.47,2.47,0,0,0-3.28.2,280.25,280.25,0,0,0-46.46,82.91q-4.5,12.71-7.76,25.8c-.78,3.12,4,4.45,4.82,1.33Z" transform="translate(-21.76 -38.02)"/><path class="cls-1" d="M344.48,379.08l16.08,50.55,16.07,50.55,16.08,50.55,16.07,50.55,16,50.3,2,6.41c1,3,5.8,1.75,4.82-1.33l-16.07-50.55-16.08-50.55L383.41,485l-16.07-50.54-16-50.31-2-6.41c-1-3.05-5.8-1.75-4.82,1.33Z" transform="translate(-21.76 -38.02)"/><path class="cls-1" d="M372.05,489.29a515.21,515.21,0,0,1,45.44-147.84q9.47-19.62,20.56-38.4c1.65-2.78-2.67-5.29-4.31-2.52a520.67,520.67,0,0,0-58.19,144.21q-5.08,21.42-8.32,43.22A2.59,2.59,0,0,0,369,491a2.53,2.53,0,0,0,3.08-1.75Z" transform="translate(-21.76 -38.02)"/><path class="cls-1" d="M396.21,561.28q6.51-25.23,14.47-50.07t17.48-49.35q5.29-13.62,11-27.08a2.58,2.58,0,0,0-.9-3.42,2.52,2.52,0,0,0-3.42.9q-10.37,24.27-19.31,49.1t-16.3,50q-4.17,14.22-7.87,28.58c-.8,3.12,4,4.45,4.82,1.33Z" transform="translate(-21.76 -38.02)"/><path class="cls-1" d="M457.45,626.89q-10.31-42.6-16.73-86-6.39-43.26-8.82-87-1.36-24.48-1.49-49l-4.66,1.27q20.08,39,37.45,79.27,17.19,40,31.58,81.08,8.1,23.14,15.29,46.58c.95,3.07,5.77,1.76,4.83-1.33Q502,569.78,486.27,528.83T451.89,448q-10.47-22.42-21.82-44.43c-1.16-2.24-4.67-1.14-4.66,1.26q.22,44,4.43,87.78t12.38,87.19q4.57,24.35,10.41,48.43c.76,3.13,5.58,1.8,4.82-1.33Z" transform="translate(-21.76 -38.02)"/><path class="cls-1" d="M444.94,560.54a79.27,79.27,0,0,1,33.55-31.21,76.33,76.33,0,0,1,12.32-4.76c3.08-.9,1.77-5.72-1.33-4.82A83.7,83.7,0,0,0,440.62,558c-1.62,2.79,2.7,5.31,4.32,2.53Z" transform="translate(-21.76 -38.02)"/><path class="cls-1" d="M470.05,382.64l-2.49-8.42c-.91-3.11-5.46-1.81-4.82,1.32q8.08,39.16,17.31,78.06t19.58,77.51q5.85,21.79,12.06,43.49c.88,3.09,5.71,1.78,4.82-1.33q-11-38.43-20.87-77.18t-18.59-77.76q-4.92-22-9.49-44.11l-4.82,1.32,2.49,8.43c.91,3.08,5.74,1.77,4.82-1.33Z" transform="translate(-21.76 -38.02)"/><path class="cls-1" d="M478.9,329.18l22.9,93.56,22.77,93.08,12.81,52.35c.77,3.13,5.59,1.81,4.82-1.32l-22.89-93.57L496.53,380.2l-12.81-52.35c-.76-3.13-5.58-1.8-4.82,1.33Z" transform="translate(-21.76 -38.02)"/><path class="cls-1" d="M508.68,340q.09,40.35.16,80.7c0,4.48.31,9.3,2.54,13.3A10.32,10.32,0,0,0,523,439.13c5-1.31,8.58-5.85,11.18-10,3.45-5.49,6.52-11.26,9.75-16.88l22.8-39.61-4.66-1.26a917.49,917.49,0,0,0,3.13,230.29q4.48,32,11.2,63.63c.67,3.15,5.49,1.82,4.83-1.33a912.91,912.91,0,0,1-19.14-228.17q1.35-32.3,5-64.42c.29-2.55-3.5-3.27-4.66-1.26L543.48,403l-9.54,16.57c-2.55,4.43-4.85,9.35-8.78,12.76-2.75,2.39-6.75,3.16-9.06-.23s-2.25-7.91-2.26-11.76l-.07-37.77L513.68,340c0-3.22-5-3.23-5,0Z" transform="translate(-21.76 -38.02)"/><path class="cls-1" d="M654,459.25a501,501,0,0,0,14.84,68.81q2.45,8.41,5.19,16.76a43.22,43.22,0,0,0,5.58,11.86c2.38,3.3,5.61,6.28,9.74,7.07a14.12,14.12,0,0,0,12.87-4.39c3.7-3.84,5.23-8.92,5.77-14.11a116.67,116.67,0,0,0,0-16.3q-.62-16.34-2.74-32.55a362.81,362.81,0,0,0-39.86-124.64q-1.9-3.56-3.88-7.07c-1.13-2-3.86-1.32-4.57.6a279.22,279.22,0,0,0-11,155.73c.67,3.15,5.49,1.82,4.82-1.33a272.74,272.74,0,0,1-6.08-60.23,273.85,273.85,0,0,1,17.13-92.84l-4.57.6a354.87,354.87,0,0,1,26,57.45A361.83,361.83,0,0,1,698.69,486q2.5,15.47,3.62,31.11.57,7.93.78,15.87c.14,5.06.5,10.35-.64,15.33-.94,4.08-3.12,8-7,9.92a8.26,8.26,0,0,1-9.23-1.53,25,25,0,0,1-6.07-9.55c-1.89-4.77-3.3-9.75-4.79-14.65a499.58,499.58,0,0,1-15.29-66.25c-.45-2.77-.86-5.55-1.26-8.32a2.52,2.52,0,0,0-3.08-1.75,2.56,2.56,0,0,0-1.74,3.08Z" transform="translate(-21.76 -38.02)"/><path class="cls-1" d="M699.63,377.54,710,442.64l10.33,65.09,5.82,36.69,4.82-1.33a624.55,624.55,0,0,1-15.26-109.56,632.65,632.65,0,0,1,4.12-110.07,618.79,618.79,0,0,1,10.86-61.21l-4.82-1.33L715.1,337c-3.55,25.15-7.29,50.28-10.62,75.46-1.38,10.44-2.34,21.34.43,31.65a38.36,38.36,0,0,0,7,14,53.91,53.91,0,0,0,11.37,10.26c4.2,3,8.65,5.57,13,8.33q7,4.44,13.62,9.42a263,263,0,0,1,24.94,21.51c15.95,15.47,30.3,32.47,44.41,49.61,1.77,2.14,3.52,4.28,5.28,6.42a2.53,2.53,0,0,0,3.54,0,2.56,2.56,0,0,0,0-3.54c-13.92-17-27.9-33.93-43.27-49.62a269.6,269.6,0,0,0-50.49-40.92c-8.39-5.21-17.15-10.74-21.88-19.74-4.82-9.18-4.73-20.06-3.78-30.11,1.12-11.79,3.13-23.53,4.78-35.26l5.33-37.77,10.6-75.22,1.3-9.22a2.59,2.59,0,0,0-1.75-3.08,2.53,2.53,0,0,0-3.07,1.75A632.84,632.84,0,0,0,715,482.47q4,31.23,11.09,61.95a2.52,2.52,0,0,0,3.07,1.75,2.57,2.57,0,0,0,1.75-3.08L720.6,478l-10.32-65.1-5.82-36.69a2.53,2.53,0,0,0-3.08-1.74,2.56,2.56,0,0,0-1.75,3.07Z" transform="translate(-21.76 -38.02)"/><path class="cls-1" d="M89.64,813.85q7.92,27.4,16.73,54.54t18.39,53.74Q134.42,949,145,975.48T166.8,1028q11.31,26.06,23.45,51.73,1.55,3.27,3.11,6.52a2.52,2.52,0,0,0,3.42.9,2.57,2.57,0,0,0,.9-3.42q-12.26-25.62-23.67-51.62t-21.94-52.24q-10.51-26.25-20.21-52.8t-18.59-53.67q-8.86-27-16.86-54.23-1-3.35-2-6.69c-.9-3.08-5.72-1.77-4.82,1.33Z" transform="translate(-21.76 -38.02)"/><path class="cls-1" d="M43,898.54q17.24-14.62,33.78-30T109.17,837q15.8-16.16,30.85-33t29.28-34.43q14.3-17.62,27.77-35.9c1.12-1.51,2.22-3,3.33-4.53a2.52,2.52,0,0,0-.9-3.42,2.56,2.56,0,0,0-3.42.89q-13.19,18.11-27.21,35.58t-29,34.41q-14.94,16.95-30.67,33.2t-32,31.58q-16.38,15.42-33.45,30.07-2.13,1.83-4.28,3.64a2.53,2.53,0,0,0,0,3.54,2.56,2.56,0,0,0,3.54,0Z" transform="translate(-21.76 -38.02)"/><path class="cls-1" d="M74.53,1004.43l40.4-57.09,40.41-57.09c5.51-7.78,11.49-17.38,21.41-19.74,3.13-.74,1.81-5.56-1.32-4.82-9.27,2.2-15.62,9.81-21,17.18-6.78,9.36-13.37,18.87-20,28.31L93.3,969.28,70.21,1001.9a2.51,2.51,0,0,0,.9,3.42,2.55,2.55,0,0,0,3.42-.89Z" transform="translate(-21.76 -38.02)"/><path class="cls-1" d="M167.13,902.54l-1.87-6.27c-.93-3.12-5.38-1.8-4.82,1.33q6.17,34.47,15.21,68.33t20.88,66.81q6.65,18.48,14.15,36.63a2.59,2.59,0,0,0,3.08,1.74,2.51,2.51,0,0,0,1.74-3.07q-13.37-32.36-24-65.76t-18.41-67.53q-4.37-19.14-7.82-38.48l-4.82,1.33,1.87,6.27c.92,3.07,5.75,1.76,4.82-1.33Z" transform="translate(-21.76 -38.02)"/><path class="cls-1" d="M184.74,837.3l22.15,76.2,22.22,76.44,12.47,42.89c.89,3.09,5.72,1.78,4.82-1.32L224.25,955.3,202,878.86,189.56,836c-.9-3.09-5.72-1.77-4.82,1.33Z" transform="translate(-21.76 -38.02)"/><path class="cls-1" d="M210.16,892.68l40.26-77L261.75,794l-4.31-2.52a568.31,568.31,0,0,0-22,59.44A561.45,561.45,0,0,0,220.41,912q-1.46,7.71-2.68,15.46c-.76,4.78-1.86,9.74-1.76,14.6.1,4.58,1.69,9,5.7,11.5,3.75,2.38,8.57,2.79,12.79,3.82a178.4,178.4,0,0,1,90.81,54.47c1.47,1.64,2.9,3.32,4.31,5a2.51,2.51,0,0,0,3.53,0,2.55,2.55,0,0,0,0-3.54,183.22,183.22,0,0,0-87.84-58.2q-6.44-1.95-13-3.39c-3.65-.8-8.36-1.25-10.3-4.94-1.8-3.41-.95-7.9-.42-11.53q1.13-7.65,2.46-15.26A561.16,561.16,0,0,1,258.8,800.9c1-2.33,1.95-4.64,2.95-6.95a2.58,2.58,0,0,0-.89-3.42,2.52,2.52,0,0,0-3.42.9l-40.26,77-11.34,21.69c-1.49,2.85,2.83,5.38,4.32,2.53Z" transform="translate(-21.76 -38.02)"/><path class="cls-1" d="M305.1,789.23a213.35,213.35,0,0,0-35,61.53,210.66,210.66,0,0,0-9.28,33.83q-1.65,8.86-2.54,17.84a75,75,0,0,0-.37,14.29c.78,8.39,3.54,18.38,11.62,22.57a17.83,17.83,0,0,0,13.83.94c4.84-1.6,9-4.61,13.19-7.41s8.3-5.38,13.22-6.27a26.22,26.22,0,0,1,14.73,2.12c10.49,4.48,17.81,13.24,24.07,22.45,6.51,9.58,12.4,20.14,21.37,27.7,8.18,6.9,18.91,11.77,29.79,10.13a25.68,25.68,0,0,0,7.38-2.37,2.5,2.5,0,1,0-2.53-4.31c-9,4.37-19.44,1.1-27.31-4.14-9.3-6.19-15.37-15.91-21.4-25.07-6.26-9.48-12.8-18.88-22.45-25.22-9-5.94-20.32-8.75-30.59-4.37-4.48,1.91-8.41,4.81-12.46,7.48-3.64,2.4-7.75,5-12.2,5.25a11.78,11.78,0,0,1-9.65-4c-2.52-2.76-3.95-6.62-4.8-10.42-2.11-9.34-.68-19.4.73-28.79a208.72,208.72,0,0,1,39.09-93.76q2.47-3.3,5.09-6.49a2.58,2.58,0,0,0,0-3.54,2.53,2.53,0,0,0-3.54,0Z" transform="translate(-21.76 -38.02)"/><path class="cls-1" d="M261.25,910.38a211.94,211.94,0,0,1,50.95-19.94q7.59-1.89,15.3-3.21a2.53,2.53,0,0,0,1.75-3.08,2.56,2.56,0,0,0-3.08-1.74,217.21,217.21,0,0,0-53.28,16.52q-7.22,3.3-14.17,7.13c-2.82,1.55-.3,5.87,2.53,4.32Z" transform="translate(-21.76 -38.02)"/><path class="cls-1" d="M340.69,845.12l-4.42-7.69c-1.61-2.81-5.79-.33-4.31,2.52l45.68,88.33,12.86,24.86c1.29,2.5,5.46.78,4.57-1.93l-20.15-61.15-20.06-60.92-11.33-34.37L339,796.7c11.44,19.49,22.88,39,34.75,58.22s24.15,38.17,37.27,56.55q11.16,15.66,23.18,30.68a2.52,2.52,0,0,0,3,.39,2.61,2.61,0,0,0,1.15-2.82,541.34,541.34,0,0,0-14.58-65.41A548.3,548.3,0,0,0,401.15,811q-7.39-17.31-16-34.09c-1.47-2.86-5.79-.33-4.32,2.53a538,538,0,0,1,26.56,60.82,542.45,542.45,0,0,1,18.93,63.8q4.25,18.36,7.19,37l4.18-2.43c-14-17.49-27.07-35.78-39.45-54.49s-24.2-38-35.73-57.32q-9.69-16.27-19.24-32.63c-1.4-2.38-5.47-.82-4.57,1.93l20.15,61.16,20.07,60.91,11.32,34.37,4.57-1.92-45.69-88.33-12.86-24.86L332,840l4.42,7.69c1.6,2.79,5.92.27,4.31-2.52Z" transform="translate(-21.76 -38.02)"/><path class="cls-1" d="M442.89,872.46,441,867.09a2.5,2.5,0,0,0-4.82,1.33,246.77,246.77,0,0,0,23.09,70.72c1.85,3.68,3.75,7.36,5.85,10.91,1.84,3.12,4.51,6.33,8.09,7.45a7.38,7.38,0,0,0,8.75-3.87c1.42-3,1.25-6.41.73-9.61a213.53,213.53,0,0,0-5.11-22.78,245.29,245.29,0,0,0-16.78-43.76A241.5,241.5,0,0,0,436,837.74c-1.22-1.57-2.45-3.14-3.7-4.69s-3.83-.64-4.18,1.1a132.89,132.89,0,0,0,9.3,80.33,126.1,126.1,0,0,0,11.22,19.87,2.56,2.56,0,0,0,3.42.9,2.53,2.53,0,0,0,.9-3.42,127.63,127.63,0,0,1-22.37-74.33,122.48,122.48,0,0,1,2.35-22l-4.17,1.11a239.53,239.53,0,0,1,41.53,77.59q3.34,10.58,5.7,21.43c.73,3.36,1.54,6.84,2,10.21.27,2.15.45,5.41-1.3,6.63-2.15,1.51-4.85-1.55-6-3.14a72,72,0,0,1-5.58-9.87A235.06,235.06,0,0,1,455.22,918a243.11,243.11,0,0,1-13.16-45.14c-.37-1.93-.71-3.87-1-5.8l-4.82,1.33,1.86,5.36a2.57,2.57,0,0,0,3.08,1.75,2.51,2.51,0,0,0,1.74-3.07Z" transform="translate(-21.76 -38.02)"/><path class="cls-1" d="M461.69,840.3q5.65,23.07,13,45.66T491,930.54q5.11,12.54,10.76,24.87a2.52,2.52,0,0,0,3.42.9,2.55,2.55,0,0,0,.89-3.42,638.81,638.81,0,0,1-32.73-88.35q-3.66-12.72-6.81-25.57c-.76-3.12-5.58-1.8-4.82,1.33Z" transform="translate(-21.76 -38.02)"/><path class="cls-1" d="M469.77,864.84c4.77-12.71-2.3-27.73-14.61-32.9l.6,4.57a407.54,407.54,0,0,0,52.76-40q7-6.24,13.63-12.78l-3.93-3a387.56,387.56,0,0,0-24.76,43.35,393.6,393.6,0,0,0-19.11,46.34q-4.53,13.37-8.09,27a2.52,2.52,0,0,0,4.18,2.43l44.39-41.22-4.18-1.11L530,915l19.23,57.26,10.88,32.41c1,3,5.85,1.73,4.82-1.33l-19.3-57.49-19.23-57.25-10.89-32.42a2.53,2.53,0,0,0-4.17-1.1l-44.4,41.22,4.18,2.44a389.76,389.76,0,0,1,15.57-47.21A382.88,382.88,0,0,1,508,807.15q6.85-12.21,14.57-23.91c1.59-2.41-1.93-5-3.92-3a400,400,0,0,1-50,41.72q-7.56,5.31-15.34,10.26c-2,1.25-1.34,3.76.59,4.57,10,4.2,14.82,16.88,11.12,26.75a2.52,2.52,0,0,0,1.74,3.08,2.57,2.57,0,0,0,3.08-1.75Z" transform="translate(-21.76 -38.02)"/><path class="cls-1" d="M517.41,797.13l17.06,68.31L551.6,934l9.62,38.52c.78,3.12,5.6,1.8,4.82-1.33L549,902.88l-17.13-68.56-9.62-38.52c-.78-3.12-5.6-1.8-4.82,1.33Z" transform="translate(-21.76 -38.02)"/><path class="cls-1" d="M594,750a304.85,304.85,0,0,0-26.56,44.86,309.23,309.23,0,0,0-18.59,48.7q-4.07,14.17-6.74,28.69a2.52,2.52,0,0,0,4.18,2.44,95.41,95.41,0,0,1,12.61-10.62c4.3-2.92,9.1-5.44,14.31-6.17a19.65,19.65,0,0,1,13,2.77,31.84,31.84,0,0,1,9,9.08c2.73,3.87,5,8,7.42,12.1A101.69,101.69,0,0,0,611,894.11,88.33,88.33,0,0,0,633.65,914a87.07,87.07,0,0,0,31.79,11.81,2.58,2.58,0,0,0,3.08-1.74,2.52,2.52,0,0,0-1.75-3.08,84.33,84.33,0,0,1-51.67-29.65c-6.22-7.57-10.18-16.57-15.86-24.51a38.27,38.27,0,0,0-9.94-10.08,24.34,24.34,0,0,0-14.47-4c-12.74.67-23.37,10-32.09,18.39l4.17,2.43a301.86,301.86,0,0,1,35.54-96.47q7.34-12.68,15.85-24.59a2.52,2.52,0,0,0-.9-3.42,2.54,2.54,0,0,0-3.42.9Z" transform="translate(-21.76 -38.02)"/><path class="cls-1" d="M655.76,741.6A280.88,280.88,0,0,0,619,838a284.58,284.58,0,0,0-3.73,29.22A2.52,2.52,0,0,0,619,869.4l80.39-49.2,22.92-14-3.67-2.83-28.2,123.95-28.19,123.94-15.94,70.09c-.72,3.13,4.1,4.47,4.82,1.33l28.19-124,28.19-123.94,16-70.09a2.53,2.53,0,0,0-3.67-2.82l-80.39,49.2-22.92,14,3.76,2.16a275.69,275.69,0,0,1,26.1-97.83,279.52,279.52,0,0,1,13.75-25.29c1.69-2.75-2.63-5.26-4.31-2.52Z" transform="translate(-21.76 -38.02)"/><path class="cls-1" d="M538.36,113.55c-4.88-11.62-10.4-23.57-21-31.09a31.51,31.51,0,0,0-16.68-6,28.56,28.56,0,0,0-16.77,5.07,62,62,0,0,0-12.8,11.84,174.54,174.54,0,0,0-11.37,14.91,176.3,176.3,0,0,0-17.37,32.52,172.65,172.65,0,0,0-10.91,39.78,2.6,2.6,0,0,0,1.75,3.08,2.53,2.53,0,0,0,3.08-1.75,171.25,171.25,0,0,1,24.08-65.45,165.57,165.57,0,0,1,9.89-14.18,98.61,98.61,0,0,1,11.34-12.65c3.95-3.57,8.56-6.58,13.82-7.74a22.83,22.83,0,0,1,15.08,2.27c12,6.1,18,18.87,23,30.73a2.58,2.58,0,0,0,3.07,1.75c1.18-.33,2.28-1.83,1.75-3.08Z" transform="translate(-21.76 -38.02)"/><path class="cls-1" d="M567.48,124.45c-4.52-5.17-4.32-13-1.87-19,3-7.35,8.94-13.16,14.54-18.57A218.73,218.73,0,0,1,619.9,56.37c13.62-8.16,29.58-16,45.9-12.62,13.93,2.9,25.62,12.72,33.42,24.31,9.24,13.75,13.67,30,17.5,45.93q.72,3,1.43,6.06c.74,3.13,5.56,1.8,4.82-1.33-4-17.12-8.21-34.61-17.33-49.86-7.8-13-19.78-24.35-34.52-28.9C654,34.66,636.73,41,621.8,49.47a223.57,223.57,0,0,0-42.45,31.24c-6.21,5.81-12.74,12-16.79,19.53-3.74,7-5,15.45-1.77,22.89a19.21,19.21,0,0,0,3.15,4.86,2.53,2.53,0,0,0,3.54,0,2.55,2.55,0,0,0,0-3.54Z" transform="translate(-21.76 -38.02)"/><path class="cls-1" d="M576.61,137.55a189.31,189.31,0,0,1,56.18-52.17c5.05-3.06,10.77-6.09,16.8-6.34A13.17,13.17,0,0,1,657.36,81a14.08,14.08,0,0,1,4.76,5.53c2.68,5.15,3.34,11.26,4.2,16.91q1.71,11.1,2.87,22.26a482.25,482.25,0,0,1,2.59,50.56c0,3.21,5,3.22,5,0q0-23.61-2.25-47.14-1.15-11.83-2.88-23.6c-.91-6.29-1.58-12.89-4-18.83-2.32-5.7-6.45-10.55-12.65-12.07-6.59-1.62-13.43.6-19.33,3.49A125.94,125.94,0,0,0,618.62,88.7a202.1,202.1,0,0,0-15.89,12.54A194.94,194.94,0,0,0,572.3,135a2.51,2.51,0,0,0,.89,3.42,2.55,2.55,0,0,0,3.42-.9Z" transform="translate(-21.76 -38.02)"/><path class="cls-1" d="M578,169.09a794.84,794.84,0,0,1,51.69-64.36c4.47-5,8.89-10.15,13.68-14.85,3.7-3.64,8.62-7.9,14.08-8.2,5.64-.3,8.88,4.22,11.1,8.79,2.89,5.92,5.29,12.13,7.58,18.3a292.29,292.29,0,0,1,12.68,44.67,2.52,2.52,0,0,0,3.07,1.74,2.55,2.55,0,0,0,1.75-3.07,293.47,293.47,0,0,0-11.55-41.58q-3.68-10.25-8.11-20.2c-2.37-5.33-5.43-10.71-11.2-12.85-5.93-2.2-12.29.41-17.12,3.91-5.49,4-9.92,9.23-14.46,14.22q-14.4,15.83-27.93,32.4-15.36,18.84-29.58,38.56a2.52,2.52,0,0,0,.9,3.42,2.55,2.55,0,0,0,3.42-.9Z" transform="translate(-21.76 -38.02)"/><path class="cls-1" d="M541.47,188.19c-5.09-10.73-5.31-22.93-7.91-34.34-2.43-10.7-7.25-21.43-17.19-27.06a23.57,23.57,0,0,0-15-3.07c-5.22.76-9.8,3.8-13.3,7.65a60.82,60.82,0,0,0-8.91,13.77,117,117,0,0,0-12.55,56.17c.1,3.21,5.1,3.23,5,0a112.12,112.12,0,0,1,4-33.15c2.87-10.38,7.1-20.89,13.27-29.78,2.57-3.71,5.93-7.31,10.25-8.94a16.82,16.82,0,0,1,12.71.65c9.5,4.22,14.11,13.85,16.5,23.43,3.08,12.41,3.24,25.46,8.8,37.19a2.52,2.52,0,0,0,3.42.9,2.56,2.56,0,0,0,.9-3.42Z" transform="translate(-21.76 -38.02)"/><path class="cls-1" d="M565.51,175.57c-9.26-4.63-16.12-12.51-23.94-19.06s-17.69-12.29-28.14-11.28c-8.91.86-16,6.55-19.94,14.47s-4.9,17-3.83,25.68c1.56,12.64,6.27,24.8,6.64,37.6.09,3.21,5.09,3.22,5,0-.32-11-3.74-21.59-5.79-32.36-1.59-8.38-1.93-16.84.89-25,2.41-7,7.32-13.16,14.72-15,9.2-2.26,18.83,2.86,25.78,8.48,8.65,7,16,15.73,26.08,20.76,2.87,1.44,5.41-2.87,2.53-4.31Z" transform="translate(-21.76 -38.02)"/><path class="cls-1" d="M604.51,232.5c-2.93-7.59-5.92-15.28-10.3-22.17-4-6.36-9.46-12.5-16.44-15.66-11.39-5.17-28.48-3.83-34.36,8.89-4.42,9.55-.86,20.2,3.87,28.9,1.54,2.83,5.86.31,4.32-2.52-3.56-6.55-6.78-14.63-4.5-22.13,1.64-5.41,6-8.81,11.19-10.23a25.84,25.84,0,0,1,16.42,1.17c5.91,2.42,10.78,7.51,14.34,12.81,4.61,6.86,7.68,14.59,10.63,22.27a2.59,2.59,0,0,0,3.08,1.75,2.54,2.54,0,0,0,1.75-3.08Z" transform="translate(-21.76 -38.02)"/><path class="cls-1" d="M613.85,231.38a77.14,77.14,0,0,1,8.95-31.33c5.05-9.46,12.14-18.56,21-24.74,4.51-3.14,9.72-5.55,15.34-5.23a18.26,18.26,0,0,1,11.18,5c6.95,6.35,10.22,15.84,11.52,24.94,1.88,13.18,1.3,26.95,7.6,39.09,1.48,2.86,5.8.33,4.32-2.52-5.73-11-5.27-23.93-6.84-36-1.33-10.24-4.66-20.68-12.12-28.18a24.21,24.21,0,0,0-12.48-6.95c-6-1.12-11.86.29-17.14,3.12A56.32,56.32,0,0,0,631,180.07a82.75,82.75,0,0,0-22.13,51.31c-.2,3.21,4.8,3.2,5,0Z" transform="translate(-21.76 -38.02)"/><path class="cls-1" d="M592,223.05a111.4,111.4,0,0,1,16.31-47.32c4.05-6.49,8.77-13.52,15.33-17.7a17.73,17.73,0,0,1,10.25-3,21.31,21.31,0,0,1,10.72,3.73c7.93,5.18,12.31,14.16,16.44,22.36,1.44,2.88,5.76.35,4.31-2.52-4.05-8.05-8.36-16.53-15.58-22.23-6.91-5.46-16.07-8.24-24.53-4.78-8,3.29-13.65,10.37-18.44,17.31A116.27,116.27,0,0,0,587,223.05a2.51,2.51,0,0,0,2.5,2.5,2.55,2.55,0,0,0,2.5-2.5Z" transform="translate(-21.76 -38.02)"/><path class="cls-1" d="M550.37,248A151.87,151.87,0,0,1,564,189.65a159.56,159.56,0,0,1,34.68-49.11,148.69,148.69,0,0,1,27-20.53c2.76-1.65.25-6-2.52-4.32a158,158,0,0,0-46,41.81,163.38,163.38,0,0,0-26.84,55.86,154.29,154.29,0,0,0-5,34.66c-.1,3.22,4.9,3.22,5,0Z" transform="translate(-21.76 -38.02)"/><path class="cls-1" d="M494.93,154.49c-12.53-6.52-25.13-13-38.46-17.81a107.16,107.16,0,0,0-20-5.39c-6-.91-13-.81-17.75,3.66-4.42,4.17-6,11.5-1.66,16.28,2.16,2.39,5.69-1.15,3.54-3.54a5,5,0,0,1-1-4.6,8.94,8.94,0,0,1,3.11-5c4-3.19,10.2-2.44,14.89-1.51,12.34,2.44,24.14,7.16,35.47,12.53,6.5,3.09,12.9,6.41,19.28,9.73,2.85,1.48,5.39-2.83,2.53-4.32Z" transform="translate(-21.76 -38.02)"/><path class="cls-1" d="M409.66,220.63c-3.06,9.36-1.74,21.06,5.19,28.42A19,19,0,0,0,428.58,255a24,24,0,0,0,15-5.85c10.24-8.37,11.74-22.12,9.54-34.4a98.64,98.64,0,0,0-5.79-19.21,109.75,109.75,0,0,0-8.47-17c-6.61-10.66-15.42-20-26.34-26.33-10.77-6.21-23.39-9.39-35.79-7.67a46.57,46.57,0,0,0-28.9,15.63,36.4,36.4,0,0,0-8.53,30.17c1.57,10.18,7.55,20,16.77,24.94,5.65,3,12.74,4.39,18.91,2.17a16.81,16.81,0,0,0,10.81-12,13.38,13.38,0,0,0-.54-7.87,2.59,2.59,0,0,0-3.08-1.75,2.53,2.53,0,0,0-1.75,3.08c1.71,4.18.05,8.7-3.24,11.64-3.86,3.45-9.64,3.53-14.36,2.15-9-2.65-15.3-10.62-17.77-19.41A32.17,32.17,0,0,1,348.93,167c5.34-8.24,14.14-14,23.54-16.49,21.89-5.86,44.29,6.62,57.35,23.74a102.83,102.83,0,0,1,15.5,30.47c3.52,10.73,6.32,24,.27,34.43-4.32,7.42-14,13.55-22.57,9.72-7.8-3.5-10.46-12.95-9.79-20.95a25.79,25.79,0,0,1,1.25-5.94c1-3.06-3.83-4.38-4.82-1.33Z" transform="translate(-21.76 -38.02)"/><path class="cls-1" d="M369,113c.72-10.54,1.48-21.73,6.61-31.21,4.16-7.67,11.8-13.39,20.64-13.81a15.28,15.28,0,0,1,11.86,4.23c2.28,2.28,5.82-1.25,3.54-3.53-7.31-7.32-18.59-6.87-27.29-2.45-10.21,5.18-15.54,15.72-17.91,26.51A139.23,139.23,0,0,0,364,113a2.5,2.5,0,0,0,5,0Z" transform="translate(-21.76 -38.02)"/><path class="cls-1" d="M533.25,122.46c9.35-2.56,19.06.52,27.3,5,8.71,4.75,16.28,11.27,24.7,16.49,8,5,16.9,8.61,26.42,8.58,8.81,0,17-3.63,22.33-10.68,4.65-6.09,6.73-13.71,8.86-20.95s4.24-14.71,9.27-20.37c10.12-11.41,27.63-11.91,41-6.77,8,3.07,14.94,8.61,20.88,14.66,6.44,6.57,11.86,14,17,21.63q1.95,2.88,3.87,5.77c1.78,2.66,6.11.16,4.32-2.53-10.38-15.56-21.44-31.94-38.17-41.29-13.56-7.58-32.11-9.23-45.67-.73-6.94,4.35-11.3,11-14.2,18.52-2.77,7.2-4.2,14.88-7.22,22a29.76,29.76,0,0,1-5.82,9.23A21.07,21.07,0,0,1,618,146.82c-8.54,2.1-17.67-.34-25.27-4.33-17.39-9.14-32.22-26.68-53.46-26a31.69,31.69,0,0,0-7.31,1.11c-3.1.85-1.78,5.68,1.33,4.82Z" transform="translate(-21.76 -38.02)"/><path class="cls-1" d="M756,134.89l15-8.35a2.52,2.52,0,0,0,.9-3.42,2.55,2.55,0,0,0-3.42-.9l-15,8.36a2.52,2.52,0,0,0-.9,3.42,2.55,2.55,0,0,0,3.42.89Z" transform="translate(-21.76 -38.02)"/><path class="cls-1" d="M792.2,130.06l5-16.72a2.5,2.5,0,1,0-4.82-1.32l-5,16.71a2.52,2.52,0,0,0,1.75,3.07,2.55,2.55,0,0,0,3.08-1.74Z" transform="translate(-21.76 -38.02)"/><path class="cls-1" d="M738,73.41l-13.24-.35,2.16,3.76,3.23-4.23c1.49-2-1.47-4.89-3.42-3.42-11.27,8.45-14.86,23.39-13.36,36.86,1.91,17,10.34,32.32,12.95,49.14,1.32,8.45,1,17.51-2.79,25.31a2.57,2.57,0,0,0,.9,3.42,2.51,2.51,0,0,0,3.42-.89c7.27-14.88,3.67-31.76-1.2-46.77-4.67-14.36-10.89-29.44-7.75-44.8,1.41-6.87,4.62-13.65,10.35-18l-3.42-3.42-3.23,4.24c-1.22,1.59.46,3.71,2.16,3.76l13.24.35c3.22.09,3.22-4.91,0-5Z" transform="translate(-21.76 -38.02)"/><path class="cls-1" d="M710,188.69a12.35,12.35,0,0,1-9.11,6.92l2.83,3.67q13.11-24.33,25-49.32t22.4-50.48q6-14.42,11.53-29a2.53,2.53,0,0,0-1.75-3.08,2.57,2.57,0,0,0-3.08,1.75Q748,94.67,737,119.69t-23.37,49.59q-7,13.85-14.31,27.48a2.53,2.53,0,0,0,2.82,3.67,17,17,0,0,0,12.1-9.22,2.57,2.57,0,0,0-.9-3.42,2.53,2.53,0,0,0-3.42.9Z" transform="translate(-21.76 -38.02)"/><path class="cls-1" d="M757.37,41.75c-24.71,5.81-49.62,11.06-74.92,13.48-12.53,1.2-25.33,2.09-37.9,1.16-11.68-.86-23.17-3.25-34.81-4.42-13.46-1.34-27-.47-39.56,4.82a2.58,2.58,0,0,0-1.75,3.07c.33,1.18,1.83,2.28,3.08,1.75a65.51,65.51,0,0,1,17.75-4.76,90.25,90.25,0,0,1,17.08-.18c11.69.89,23.2,3.32,34.87,4.44,12.52,1.2,25.21.51,37.71-.56s25.16-2.84,37.61-5.06c14.15-2.52,28.18-5.63,42.16-8.92,3.14-.74,1.81-5.56-1.32-4.82Z" transform="translate(-21.76 -38.02)"/><path class="cls-1" d="M530.07,58.46,516.7,61.8A2.53,2.53,0,0,0,515,64.88,2.56,2.56,0,0,0,518,66.62l13.37-3.34a2.5,2.5,0,0,0-1.33-4.82Z" transform="translate(-21.76 -38.02)"/><path class="cls-1" d="M440.48,61.71A46.15,46.15,0,0,1,413.33,52a2.51,2.51,0,0,0-3.42.89,2.57,2.57,0,0,0,.9,3.42,50.6,50.6,0,0,0,29.67,10.37c3.22.07,3.22-4.93,0-5Z" transform="translate(-21.76 -38.02)"/><path class="cls-1" d="M363.6,55h-10a2.5,2.5,0,0,0,0,5h10a2.5,2.5,0,0,0,0-5Z" transform="translate(-21.76 -38.02)"/><path class="cls-1" d="M299.61,129,306.29,144a2.51,2.51,0,0,0,3.42.89,2.58,2.58,0,0,0,.9-3.42l-6.68-15a2.53,2.53,0,0,0-3.43-.9,2.57,2.57,0,0,0-.89,3.42Z" transform="translate(-21.76 -38.02)"/><path class="cls-1" d="M341.78,176.29l8.36,8.35a2.5,2.5,0,0,0,3.53-3.53l-8.35-8.36a2.5,2.5,0,1,0-3.54,3.54Z" transform="translate(-21.76 -38.02)"/><path class="cls-1" d="M340.21,257.25l-21.73,1.68a2.55,2.55,0,0,0-2.5,2.5,2.53,2.53,0,0,0,2.5,2.5l21.73-1.68a2.56,2.56,0,0,0,2.5-2.5,2.53,2.53,0,0,0-2.5-2.5Z" transform="translate(-21.76 -38.02)"/><path class="cls-1" d="M295.18,189.46l-3.34-3.34a2.61,2.61,0,0,0-1.77-.73,2,2,0,0,0-1,.21,1.92,1.92,0,0,0-.8.52,2.51,2.51,0,0,0-.73,1.77,2.61,2.61,0,0,0,.73,1.77l3.34,3.34a2.61,2.61,0,0,0,1.77.73,2.75,2.75,0,0,0,1.77-.73,2.51,2.51,0,0,0,.73-1.77,2.61,2.61,0,0,0-.73-1.77Z" transform="translate(-21.76 -38.02)"/><path class="cls-1" d="M269.36,95.54a4.6,4.6,0,0,1-3.88,1,10.47,10.47,0,0,1-4.84-2.31c-3.54-2.87-4.75-7.13-6-11.35-1.32-4.61-2.64-9.67-6-13.29a14.93,14.93,0,0,0-10.11-4.51c-4.3-.21-8.3,1.94-9.66,6.16-1,3.07,3.83,4.38,4.82,1.33a2.76,2.76,0,0,1,.73-1.28l.35-.32c-.29.25,0,0,.07-.05s1-.54.69-.4a7.1,7.1,0,0,1,3.83-.36,9.83,9.83,0,0,1,7.52,5.7c2.19,4.19,2.87,9,4.52,13.4a19.34,19.34,0,0,0,8.22,10.36c4.24,2.47,9.39,2.81,13.21-.59,2.42-2.14-1.13-5.66-3.53-3.53Z" transform="translate(-21.76 -38.02)"/><path class="cls-1" d="M221.54,70.06c3.22,0,3.23-5,0-5s-3.22,5,0,5Z" transform="translate(-21.76 -38.02)"/><path class="cls-1" d="M291.12,78.62a26.41,26.41,0,0,0,2.39,19.9,25.6,25.6,0,0,0,15.66,12,26.31,26.31,0,0,0,11.51.46,2.52,2.52,0,0,0,1.75-3.07,2.57,2.57,0,0,0-3.08-1.75A20.71,20.71,0,0,1,295.94,80c.88-3.1-3.95-4.42-4.82-1.33Z" transform="translate(-21.76 -38.02)"/><path class="cls-1" d="M417.1,176.38c.81,8.66,1.7,17.69,6.19,25.34,3.86,6.59,11,11.83,18.78,12.07s13.91-5,16.77-11.82c3.17-7.58,1.89-15.74-1.6-23-3.61-7.51-9.32-14.08-15-20.14a150.87,150.87,0,0,0-17.58-16,159.57,159.57,0,0,0-41.88-23.4,153.91,153.91,0,0,0-46.74-9.67q-2.94-.14-5.9-.15c-3.22,0-3.22,5,0,5A148.23,148.23,0,0,1,374,121.67a153.72,153.72,0,0,1,40,19.53,143.43,143.43,0,0,1,32.65,30.46c4.55,5.88,9,13,9.06,20.64.08,5.86-2.49,12.32-7.87,15.2-5.88,3.15-12.82.15-17.14-4.25-5.38-5.47-7.1-13.52-8-20.88-.24-2-.43-4-.62-6a2.57,2.57,0,0,0-2.5-2.5,2.52,2.52,0,0,0-2.5,2.5Z" transform="translate(-21.76 -38.02)"/><path class="cls-1" d="M516.37,167.88a137.19,137.19,0,0,1,45.57,45.62,139.16,139.16,0,0,1,8.54,16.44,2.52,2.52,0,0,0,3.42.89,2.56,2.56,0,0,0,.9-3.42,141.37,141.37,0,0,0-40.42-52.91,143.19,143.19,0,0,0-15.49-10.94c-2.75-1.68-5.27,2.65-2.52,4.32Z" transform="translate(-21.76 -38.02)"/><path class="cls-1" d="M608.69,234.69a21.84,21.84,0,0,1-10.79,17.73c-2.79,1.6-.27,5.92,2.52,4.31a26.9,26.9,0,0,0,13.27-22,2.5,2.5,0,0,0-5,0Z" transform="translate(-21.76 -38.02)"/><path class="cls-1" d="M496.39,240c-14.67,5.43-32.76-.19-39.81-14.65A30.37,30.37,0,0,1,455,203.06a25.53,25.53,0,0,1,14.43-15.62c7.39-3.16,16.19-3.14,23.21.92,2.79,1.62,5.31-2.7,2.53-4.31-15.09-8.73-36.31-2-43.52,13.92a35.08,35.08,0,0,0-1,26.12,33.88,33.88,0,0,0,17.71,19.31,38.61,38.61,0,0,0,29.32,1.39,2.57,2.57,0,0,0,1.75-3.08,2.52,2.52,0,0,0-3.07-1.74Z" transform="translate(-21.76 -38.02)"/><path class="cls-1" d="M575.86,188.72c3.22,0,3.22-5,0-5s-3.22,5,0,5Z" transform="translate(-21.76 -38.02)"/><path class="cls-1" d="M695,152.25c-3.89,3.11-3.87,8.71-1.91,12.88,2.25,4.78,7.25,7.2,12.14,8.4s10.13,1.27,14.7,3.41a11.1,11.1,0,0,1,5.13,4.44,12.59,12.59,0,0,1,1.45,6.32c0,5-1.64,9.66-2.5,14.5-.79,4.42-1,9.22.42,13.54s4.71,8,9.35,8.92c5.79,1.18,11.93-1.19,17.34-3a136.68,136.68,0,0,0,35-18.08,2.57,2.57,0,0,0,.9-3.42,2.52,2.52,0,0,0-3.42-.9A131.73,131.73,0,0,1,754.75,215c-2.61,1-5.25,1.95-7.92,2.8a50.08,50.08,0,0,1-7.8,2.07c-4.25.63-7.83-.8-9.51-4.62-3.4-7.76,1.13-17,1.86-25,.44-4.89-.44-9.84-3.7-13.66s-8.38-5.43-13.14-6.33c-5-.94-11-1.18-15-4.62a8.46,8.46,0,0,1-2.78-5.09,4.69,4.69,0,0,1,1.73-4.69,2.52,2.52,0,0,0,0-3.54,2.56,2.56,0,0,0-3.53,0Z" transform="translate(-21.76 -38.02)"/><path class="cls-1" d="M800.64,210.61l-8.45,50.12a2.56,2.56,0,0,0,1.75,3.07,2.52,2.52,0,0,0,3.07-1.74l8.45-50.13a2.56,2.56,0,0,0-1.74-3.07,2.53,2.53,0,0,0-3.08,1.75Z" transform="translate(-21.76 -38.02)"/></svg>