<svg id="Layer_25" data-name="Layer 25" xmlns="http://www.w3.org/2000/svg" viewBox="0 0 532.16 609.32"><defs><style>.cls-1{fill:#952c1f;}</style></defs><path class="cls-1" d="M200.87,283.93c-14.47-5.21-30.8,1-41.05,11.7a63.88,63.88,0,0,0-12.54,19.93,87.4,87.4,0,0,0-6,21.45c-.93,6.78-1,14,1.29,20.51a23.87,23.87,0,0,0,13.87,14.68c6.86,2.68,14.71,1.83,21.62-.19a86.08,86.08,0,0,0,21-9.84c6.84-4.26,13.22-9.48,17.81-16.18,4.37-6.37,7.08-14.32,6.53-22.11a29.75,29.75,0,0,0-1-5.77c-.85-3.1-5.68-1.78-4.82,1.33,1.84,6.67.56,13.76-2.56,19.85-3.28,6.41-8.47,11.61-14.3,15.76A88.75,88.75,0,0,1,182,365.38c-6.08,2.4-12.91,4.25-19.48,3.26a18.55,18.55,0,0,1-14-9.83c-2.75-5.28-3.14-11.53-2.73-17.36a77.19,77.19,0,0,1,4.33-19.37,66.65,66.65,0,0,1,9.81-18.94c7.94-10.4,21.38-18.12,34.81-15.69a30.55,30.55,0,0,1,4.79,1.3,2.51,2.51,0,0,0,3.07-1.74,2.56,2.56,0,0,0-1.74-3.08Z" transform="translate(-136.35 -222.52)"/><path class="cls-1" d="M226.71,257.31v30.6c0,3.22,5,3.23,5,0v-30.6c0-3.21-5-3.22-5,0Z" transform="translate(-136.35 -222.52)"/><path class="cls-1" d="M239.65,361l1.48-49.86.42-14.13h-5A382.09,382.09,0,0,0,242,351.12c.41,2.37,4.44,2.4,4.82,0q6.67-41.67,11.45-83.61,1.35-11.82,2.54-23.65h-5q.9,26.52,3.54,52.93t7.06,52.75q2.46,14.71,5.48,29.32a2.5,2.5,0,0,0,4.82-1.33q-5.31-25.74-8.92-51.79t-5.42-52.09q-1.06-14.88-1.56-29.79c-.11-3.27-4.68-3.15-5,0q-4.17,41.44-10.23,82.67-1.71,11.64-3.58,23.26h4.82A372.36,372.36,0,0,1,241.55,297a2.5,2.5,0,0,0-5,0l-1.48,49.85L234.65,361c-.09,3.22,4.91,3.22,5,0Z" transform="translate(-136.35 -222.52)"/><path class="cls-1" d="M279.49,334.43c-2.67,7.71-5.38,16.88-.51,24.33a14.34,14.34,0,0,0,8.24,6.27,11.53,11.53,0,0,0,9.74-2.11c5.84-4.44,7.89-12.44,9.25-19.29A82.74,82.74,0,0,0,301.55,296c-2.65-6.33-6.73-15.83-15.25-14.17C279,283.23,275.91,292,274,298.08A89.43,89.43,0,0,0,269.87,321a91.57,91.57,0,0,0,9.53,45.22c.86,1.72,1.79,3.41,2.77,5.07,1.63,2.77,5.95.25,4.31-2.53a86.64,86.64,0,0,1-10.13-60A86.94,86.94,0,0,1,279,298.62a31.39,31.39,0,0,1,3.87-8.47c1.31-1.86,3.37-3.75,5.65-3.51,2.75.28,4.46,3.17,5.64,5.36a73.44,73.44,0,0,1,7.12,20.27,78,78,0,0,1,1.25,21.56A72.37,72.37,0,0,1,301,344.19a42.37,42.37,0,0,1-2.87,9.16c-1.14,2.4-2.67,4.83-5,6.17a6.52,6.52,0,0,1-6.88-.34c-6-3.85-5.42-11.75-3.74-17.72.54-1.93,1.19-3.82,1.84-5.7a2.5,2.5,0,1,0-4.82-1.33Z" transform="translate(-136.35 -222.52)"/><path class="cls-1" d="M311.49,355.91l.38-59.2.1-16.91-4.91.66,23.29,63.17,6.56,17.78a2.58,2.58,0,0,0,2.41,1.84,2.52,2.52,0,0,0,2.41-1.84,510,510,0,0,0,6.58-53,504.27,504.27,0,0,0,1-53.45q-.52-15-1.94-30a2.57,2.57,0,0,0-2.5-2.5,2.51,2.51,0,0,0-2.5,2.5,505.25,505.25,0,0,1,2.22,52.92,504.56,504.56,0,0,1-3.34,52.85q-1.71,14.71-4.31,29.29h4.82l-23.29-63.17-6.55-17.78c-.94-2.55-4.9-2.3-4.92.67L306.6,339l-.11,16.91c0,3.22,5,3.23,5,0Z" transform="translate(-136.35 -222.52)"/><path class="cls-1" d="M406.22,277.49l-17.14-37.56c-1-2.22-4.87-1.15-4.66,1.26l5.39,59.86,5.38,59.85,2.7,30.05,1.36,15.15a60.46,60.46,0,0,1,.37,11.09c-.25,2.79-1,5.83-3,7.8-2.28,2.31-5.57,2.52-8.56,1.38-3.57-1.37-6.59-4.16-9.18-6.9a104.23,104.23,0,0,1-8-9.65c-4.53-6.2-8.54-13.59-7.95-21.45.43-5.82,3.49-12,8.77-14.83a11.59,11.59,0,0,1,3.79-1.21,2.57,2.57,0,0,0,2.5-2.5,2.53,2.53,0,0,0-2.5-2.5c-7.64.92-13.11,6.39-15.86,13.34-3.05,7.72-1.71,16,1.8,23.28a61.76,61.76,0,0,0,7.32,11.26,85,85,0,0,0,8.8,10c3.13,2.91,6.89,5.7,11.16,6.6a12.4,12.4,0,0,0,11.37-3.13c5.43-5.33,4.92-14.1,4.3-21l-2.86-31.79-5.7-63.33-5.69-63.33-.72-7.95-4.65,1.27L401.9,280a2.53,2.53,0,0,0,3.42.89,2.57,2.57,0,0,0,.9-3.42Z" transform="translate(-136.35 -222.52)"/><path class="cls-1" d="M411.68,328.92c-1.59,7.13-3.34,15.89,1.4,22.26,3.71,5,11,8.17,16.58,4.16,5.78-4.17,5.69-12.21,5.43-18.6a105.64,105.64,0,0,0-3.72-24.62c-2-7-5.73-14.13-12.6-17.47-6.23-3-13.4-2.13-18.24,3-4.4,4.61-6.29,11-7,17.23a62.85,62.85,0,0,0,1,20.24,65.86,65.86,0,0,0,19.59,34.69c1.22,1.11,2.47,2.16,3.77,3.17a2.6,2.6,0,0,0,3.54,0,2.53,2.53,0,0,0,0-3.54,60.91,60.91,0,0,1-23.28-45.68c-.18-5.63.26-11.46,2.36-16.74,1.68-4.24,4.89-8.51,9.71-9.1,6-.72,11.05,3.87,13.7,8.76,3.24,6,4.42,13.28,5.32,19.95a107.8,107.8,0,0,1,.92,11.36,31,31,0,0,1-.55,8.65c-.6,2.32-1.86,4.71-4.3,5.39a5.75,5.75,0,0,1-3.28-.12,9.1,9.1,0,0,1-3.41-2c-5.44-4.95-3.49-13.35-2.09-19.63.7-3.14-4.12-4.48-4.82-1.33Z" transform="translate(-136.35 -222.52)"/><path class="cls-1" d="M436.93,293l2.15,55.69.61,15.73c.12,3.21,5.13,3.23,5,0l-2.15-55.69L441.93,293c-.13-3.21-5.13-3.23-5,0Z" transform="translate(-136.35 -222.52)"/><path class="cls-1" d="M461.13,336.55,456.23,308,451.67,310l23.82,47.21,6.75,13.37a2.52,2.52,0,0,0,2.82,1.15,2.62,2.62,0,0,0,1.84-2.41,306.23,306.23,0,0,0-1.8-71.08q-1.41-10-3.49-19.83a2.5,2.5,0,1,0-4.82,1.33,300.63,300.63,0,0,1,6.29,69.72q-.27,9.94-1.18,19.86l4.65-1.27-23.82-47.21L456,307.44a2.49,2.49,0,0,0-3.12-1,2.56,2.56,0,0,0-1.45,2.95l4.89,28.51a2.53,2.53,0,0,0,3.08,1.75,2.56,2.56,0,0,0,1.75-3.08Z" transform="translate(-136.35 -222.52)"/><path class="cls-1" d="M435.81,235.21l1.71,15.3a2.5,2.5,0,0,0,5,0l-1.71-15.3a2.56,2.56,0,0,0-2.5-2.5,2.53,2.53,0,0,0-2.5,2.5Z" transform="translate(-136.35 -222.52)"/><path class="cls-1" d="M144.92,487.86a301,301,0,0,1-3.56-49.27q.06-7.12.47-14.24l-4.66,1.26,20.52,45.75,5.89,13.14c1,2.33,4.68,1.07,4.66-1.27l-.76-64.64-.22-18.22-4.91.67q12.41,38.23,21.34,77.48,2.52,11.1,4.76,22.26c.5,2.52,4.15,2.23,4.82,0l2-6.6c.93-3.09-3.9-4.41-4.82-1.33l-2,6.6h4.82q-7.91-39.42-19.34-78-3.24-10.9-6.76-21.73c-.85-2.62-4.94-2.26-4.91.66L163,465l.22,18.22,4.65-1.26-20.51-45.75-5.9-13.13a2.5,2.5,0,0,0-2.82-1.15,2.56,2.56,0,0,0-1.83,2.41,305,305,0,0,0,1.33,50.29q.79,7.29,1.94,14.54a2.51,2.51,0,0,0,3.07,1.75,2.56,2.56,0,0,0,1.75-3.07Z" transform="translate(-136.35 -222.52)"/><path class="cls-1" d="M203,418.15a61.21,61.21,0,0,1-14.1,31.5,2.55,2.55,0,0,0,.51,3.93c10.93,6.39,17.85,17.38,25.2,27.33a85.2,85.2,0,0,0,12.49,14.25A49.26,49.26,0,0,0,243.87,505a27.76,27.76,0,0,0,20.49-.95,2.52,2.52,0,0,0,.9-3.42,2.56,2.56,0,0,0-3.42-.9c-10.91,5.07-23.23-1.13-31.5-8.38-9.25-8.1-15.29-19.12-23.07-28.52a59,59,0,0,0-15.34-13.58l.51,3.93a65.73,65.73,0,0,0,15.38-33.71,2.59,2.59,0,0,0-1.75-3.07c-1.17-.33-2.89.4-3.07,1.74Z" transform="translate(-136.35 -222.52)"/><path class="cls-1" d="M191.09,452.79a258.14,258.14,0,0,1,45.59-20.38c4.51-1.52,9.07-2.9,13.65-4.16,3.1-.86,1.79-5.68-1.33-4.82a265.51,265.51,0,0,0-47.63,18.22q-6.5,3.24-12.8,6.83c-2.8,1.59-.28,5.91,2.52,4.31Z" transform="translate(-136.35 -222.52)"/><path class="cls-1" d="M279.22,393.3a258,258,0,0,0-.78,46.75,262.36,262.36,0,0,0,7.63,46.34A254.6,254.6,0,0,0,294,511.58a2.56,2.56,0,0,0,3.07,1.75,2.53,2.53,0,0,0,1.75-3.08A255.85,255.85,0,0,1,284.22,393.3a2.51,2.51,0,0,0-2.5-2.5,2.56,2.56,0,0,0-2.5,2.5Z" transform="translate(-136.35 -222.52)"/><path class="cls-1" d="M269.32,425.7l57.3-38L342.81,377c2.67-1.77.17-6.1-2.52-4.32l-57.3,38L266.8,421.38c-2.67,1.77-.17,6.1,2.52,4.32Z" transform="translate(-136.35 -222.52)"/><path class="cls-1" d="M302.11,467.67c-1.54,9.59-3.18,19.94.63,29.22,3.21,7.8,9.72,14.07,18.47,14.56,9,.51,17.06-5,22.13-12.07,5.32-7.45,8.18-16.9,9.49-25.88a72.79,72.79,0,0,0-1.3-28.84c-2.25-8.61-7.28-16.89-16.17-19.75a16.51,16.51,0,0,0-12,.7,19,19,0,0,0-7.77,7.11c-4.3,6.62-5.46,14.76-6,22.46a109.45,109.45,0,0,0,10.48,54.25c1,2.1,2.08,4.16,3.22,6.19,1.57,2.81,5.89.29,4.31-2.52a104.43,104.43,0,0,1-13.22-48.33c-.18-7.54.11-15.43,2.37-22.68,1.72-5.49,5-11.32,10.92-12.74,7.41-1.78,13.85,4.28,16.81,10.42a42.51,42.51,0,0,1,3.33,11.64,68.89,68.89,0,0,1,.81,13.23,66.63,66.63,0,0,1-5.46,24.81c-3.06,6.87-7.86,13.55-15.27,16a14.91,14.91,0,0,1-18.16-6c-4.77-7-4.81-15.62-3.83-23.74.27-2.26.64-4.52,1-6.78a2.56,2.56,0,0,0-1.74-3.07,2.52,2.52,0,0,0-3.08,1.74Z" transform="translate(-136.35 -222.52)"/><path class="cls-1" d="M361.06,495.31l-3.35-49.68-4.91.66a119,119,0,0,0,16.61,44.52,122.48,122.48,0,0,0,7.9,11.14c1.42,1.79,4.23.21,4.27-1.77a459.12,459.12,0,0,0-7.42-92q-2.31-12.66-5.34-25.17l-4.18,2.44,5.6,6.22c2.16,2.4,5.69-1.15,3.54-3.53l-5.61-6.23c-1.74-1.94-4.73.12-4.18,2.43a452.66,452.66,0,0,1,12.4,90.1q.45,12.85.19,25.73l4.27-1.77a113.94,113.94,0,0,1-20.46-40.51A116.82,116.82,0,0,1,357.62,445c-.43-2.77-5.1-2.13-4.91.67l3.35,49.68a2.56,2.56,0,0,0,2.5,2.5,2.53,2.53,0,0,0,2.5-2.5Z" transform="translate(-136.35 -222.52)"/><path class="cls-1" d="M392.91,437.47A202.76,202.76,0,0,0,395,495.25q1.45,8.08,3.57,16c.82,3.11,5.65,1.79,4.82-1.33a198.53,198.53,0,0,1-6.57-56.33c.15-5.39.53-10.77,1.11-16.14a2.53,2.53,0,0,0-2.5-2.5,2.56,2.56,0,0,0-2.5,2.5Z" transform="translate(-136.35 -222.52)"/><path class="cls-1" d="M441.87,415.55c2.16-3.23.06-7.22-3.09-8.83-3.66-1.88-7.56-.71-10.07,2.44s-3.43,7.57-4.24,11.58c-1,4.89-1.73,9.83-2.23,14.79a146.68,146.68,0,0,0-.05,29.48c.84,8.58,2,17.56,5.24,25.62,2.56,6.39,6.58,13,13.16,15.85a16.88,16.88,0,0,0,19.86-5.09,21.09,21.09,0,0,0,3.39-21.54,31.14,31.14,0,0,0-16.14-16.31c-5.06-2.23-14.84-2.48-16.26,4.55-.81,4,1.82,7.31,5.46,8.58,4,1.41,8-.19,11.06-2.84a33.17,33.17,0,0,0,4.14-4.56,2.58,2.58,0,0,0,0-3.54,2.53,2.53,0,0,0-3.54,0c-2,2.48-4.17,5.46-7.37,6.36-1.78.49-4.58-.43-4.9-2.21a3,3,0,0,1,0-.83,2.09,2.09,0,0,1,.38-.69c.09-.09.52-.44.21-.22a4.93,4.93,0,0,1,.74-.43c.09,0,0,0,.34-.15a9.21,9.21,0,0,1,.9-.25,11.38,11.38,0,0,1,6.56.67,27,27,0,0,1,13.29,12.65,16.24,16.24,0,0,1-1.2,16.36c-3.13,4.6-8.56,7.07-13.89,5.35-5-1.62-8.43-6.57-10.64-11.26-2.92-6.2-4.11-13.16-5.09-19.88a144.87,144.87,0,0,1,1.45-49.59c.62-3,1.12-6.62,3.06-9.16a5.36,5.36,0,0,1,1.26-1.21,3.31,3.31,0,0,1,.58-.35,1.71,1.71,0,0,1,.59-.14,3.22,3.22,0,0,1,2.47,1.08,1.52,1.52,0,0,1,.42.69c0,.2.18.29,0,.07.13.17-.14.21,0,.16,0,0,.07-.2.07-.2a4.71,4.71,0,0,1-.29.48c-1.8,2.68,2.53,5.18,4.32,2.52Z" transform="translate(-136.35 -222.52)"/><path class="cls-1" d="M464.38,414a340.56,340.56,0,0,1,15.17,76.44q.88,10.93,1.07,21.93c.05,3.21,5.05,3.22,5,0a347.11,347.11,0,0,0-10.27-78.12q-2.72-10.89-6.15-21.58c-1-3.05-5.81-1.74-4.82,1.33Z" transform="translate(-136.35 -222.52)"/><path class="cls-1" d="M474.66,389.93q1.38,25.89,4.65,51.62t8.42,51.34q2.89,14.31,6.38,28.5c.77,3.12,5.59,1.8,4.82-1.33q-6.12-24.94-10.43-50.28t-6.71-51q-1.37-14.43-2.13-28.89c-.17-3.2-5.17-3.22-5,0Z" transform="translate(-136.35 -222.52)"/><path class="cls-1" d="M474,463.82h22.1c3.21,0,3.22-5,0-5H474c-3.22,0-3.23,5,0,5Z" transform="translate(-136.35 -222.52)"/><path class="cls-1" d="M498.77,384.82a372.77,372.77,0,0,0,5.75,114q3.24,15.75,7.86,31.17c.91,3.07,5.74,1.76,4.82-1.33A366.12,366.12,0,0,1,501.83,416.9q.27-16.06,1.94-32.08a2.52,2.52,0,0,0-2.5-2.5,2.56,2.56,0,0,0-2.5,2.5Z" transform="translate(-136.35 -222.52)"/><path class="cls-1" d="M480,426.88a252,252,0,0,0,51.5-25.63q6.82-4.46,13.37-9.35a2.58,2.58,0,0,0,.89-3.42,2.51,2.51,0,0,0-3.42-.9,248.89,248.89,0,0,1-48.91,28.58c-4.85,2.14-9.78,4.09-14.76,5.9a2.56,2.56,0,0,0-1.74,3.07,2.52,2.52,0,0,0,3.07,1.75Z" transform="translate(-136.35 -222.52)"/><path class="cls-1" d="M389,404.42h-1.7a1.88,1.88,0,0,0-1,.21,1.85,1.85,0,0,0-.8.52,1.82,1.82,0,0,0-.52.8,1.9,1.9,0,0,0-.22,1l.09.66a2.55,2.55,0,0,0,.65,1.11l.5.39a2.53,2.53,0,0,0,1.26.34H389a2.83,2.83,0,0,0,1.77-.73,1.85,1.85,0,0,0,.52-.81,1.88,1.88,0,0,0,.21-1l-.09-.67a2.41,2.41,0,0,0-.64-1.1l-.5-.39a2.47,2.47,0,0,0-1.27-.34Z" transform="translate(-136.35 -222.52)"/><path class="cls-1" d="M157.56,564.31l-4.79-3.61c-1.68-1.26-3.6.51-3.77,2.16a226.82,226.82,0,0,0,6,78.62q2.78,10.82,6.63,21.31a2.56,2.56,0,0,0,3.07,1.74,2.51,2.51,0,0,0,1.75-3.07,222.4,222.4,0,0,1-13.58-76.55q0-11,1.1-22L150.24,565l4.8,3.61a2.52,2.52,0,0,0,3.42-.9,2.56,2.56,0,0,0-.9-3.42Z" transform="translate(-136.35 -222.52)"/><path class="cls-1" d="M179.82,639.42,164.75,594l-4.18,2.44,32.58,39.48,9.38,11.36c1.39,1.69,4.34.29,4.26-1.77a347,347,0,0,0-12.89-82.16q-3.21-11.35-7.22-22.49a2.56,2.56,0,0,0-3.08-1.74,2.51,2.51,0,0,0-1.74,3.07,341.41,341.41,0,0,1,18.34,80.23q1.19,11.52,1.59,23.09l4.27-1.77-32.58-39.48-9.37-11.36c-1.6-1.93-4.94.14-4.18,2.43L175,640.75c1,3,5.84,1.74,4.82-1.33Z" transform="translate(-136.35 -222.52)"/><path class="cls-1" d="M231.55,563.35l6.62,63.55L240.05,645a2.57,2.57,0,0,0,2.5,2.5,2.51,2.51,0,0,0,2.5-2.5l-6.62-63.55-1.88-18a2.57,2.57,0,0,0-2.5-2.5,2.52,2.52,0,0,0-2.5,2.5Z" transform="translate(-136.35 -222.52)"/><path class="cls-1" d="M242.31,559.6a195.22,195.22,0,0,0,5,67.54q2.35,9.24,5.61,18.21a2.56,2.56,0,0,0,3.08,1.74,2.51,2.51,0,0,0,1.74-3.07,191.13,191.13,0,0,1-11.46-65.39q0-9.54,1-19a2.51,2.51,0,0,0-2.5-2.5,2.57,2.57,0,0,0-2.5,2.5Z" transform="translate(-136.35 -222.52)"/><path class="cls-1" d="M249.41,568.33a245.32,245.32,0,0,0,5.07,73.94q2.28,10.14,5.41,20.07c1,3.06,5.79,1.75,4.82-1.33a240.67,240.67,0,0,1-11.16-71.91q0-10.4.86-20.77a2.52,2.52,0,0,0-2.5-2.5,2.55,2.55,0,0,0-2.5,2.5Z" transform="translate(-136.35 -222.52)"/><path class="cls-1" d="M246.28,612.69a37.81,37.81,0,0,1,17.59-9.56,2.5,2.5,0,0,0-1.32-4.82,42.88,42.88,0,0,0-19.81,10.85c-2.32,2.23,1.22,5.77,3.54,3.53Z" transform="translate(-136.35 -222.52)"/><path class="cls-1" d="M262.41,571.82a390.39,390.39,0,0,0,5.38,60.39q1.43,8.43,3.21,16.78c.67,3.15,5.49,1.81,4.82-1.33A381.36,381.36,0,0,1,268,588.89q-.48-8.52-.56-17.07c0-3.21-5-3.22-5,0Z" transform="translate(-136.35 -222.52)"/><path class="cls-1" d="M282.15,573.4c-10.29,9.13-6.79,25.11-.5,35.43,6.77,11.11,18.06,21.36,17.25,35.34-.33,5.73-2.82,11.25-8.26,13.65a2.52,2.52,0,0,0-.9,3.42,2.56,2.56,0,0,0,3.42.9c11.31-5,12.81-20.43,8.7-30.67-2.8-7-7.38-12.86-11.7-18.91-4-5.54-7.62-11.24-9-18-1.26-6.24-.47-13.19,4.52-17.62,2.41-2.14-1.14-5.66-3.54-3.53Z" transform="translate(-136.35 -222.52)"/><path class="cls-1" d="M215.06,584l42.31-29.15,12.05-8.3a2.56,2.56,0,0,0,.9-3.42,2.52,2.52,0,0,0-3.42-.9l-42.31,29.14-12.06,8.31a2.56,2.56,0,0,0-.89,3.42,2.52,2.52,0,0,0,3.42.9Z" transform="translate(-136.35 -222.52)"/><path class="cls-1" d="M328.15,566.77l6.73,75.53,1.9,21.36a2.56,2.56,0,0,0,2.5,2.5,2.51,2.51,0,0,0,2.5-2.5l-6.73-75.52-1.9-21.37a2.57,2.57,0,0,0-2.5-2.5,2.52,2.52,0,0,0-2.5,2.5Z" transform="translate(-136.35 -222.52)"/><path class="cls-1" d="M326.11,574.32a116.06,116.06,0,0,1,41.37,3.21l-1.1-4.18L330.44,616l-10.27,12.17c-1.77,2.1.44,5.39,3,3.93a151.85,151.85,0,0,1,44.74-16.7l-2.82-3.67-47.18,64.43-13.27,18.12a2.53,2.53,0,0,0,.89,3.43,2.56,2.56,0,0,0,3.42-.9l47.19-64.44,13.27-18.12c1.4-1.92-.91-4.06-2.83-3.67a156.24,156.24,0,0,0-45.93,17.2l3,3.92,35.93-42.6,10.27-12.17a2.53,2.53,0,0,0-1.1-4.18,120.51,120.51,0,0,0-42.7-3.38,2.57,2.57,0,0,0-2.5,2.5,2.51,2.51,0,0,0,2.5,2.5Z" transform="translate(-136.35 -222.52)"/><path class="cls-1" d="M391.18,605.73c-.23-7.61-9.95-10.48-15.78-7-3.43,2-5.68,5.52-7.22,9.1-1.85,4.31-3.16,8.84-4.64,13.28l-5,14.88c-1.22,3.66-2.5,7.32-2.47,11.24,0,3.41,1.18,7,4.32,8.8,4.35,2.44,9,.1,12.69-2.46,9.65-6.75,19.25-13.56,28.87-20.34a2.56,2.56,0,0,0,.89-3.42,2.52,2.52,0,0,0-3.42-.9l-22.36,15.76-5.69,4a22.93,22.93,0,0,1-5,3,3.19,3.19,0,0,1-4.65-1.11,4.38,4.38,0,0,1-.51-1.46c-.53-2.33,0-5.28.78-7.75,1.27-4.2,2.77-8.35,4.16-12.52l4.32-13a39.87,39.87,0,0,1,4-9.39,10.75,10.75,0,0,1,3.51-3.46,6.05,6.05,0,0,1,3.48-.72,7.78,7.78,0,0,1,1.88.39,4.94,4.94,0,0,1,1.52.79,3.14,3.14,0,0,1,1.25,2.3c.1,3.21,5.1,3.23,5,0Z" transform="translate(-136.35 -222.52)"/><path class="cls-1" d="M363.07,631.78l27.21-13.6c2.87-1.44.34-5.75-2.53-4.32l-27.2,13.61c-2.88,1.43-.35,5.75,2.52,4.31Z" transform="translate(-136.35 -222.52)"/><path class="cls-1" d="M399.35,643.45a319.8,319.8,0,0,1-.82-44.21l-4.91.66q8.55,25.35,17.11,50.68c1,3,5.85,1.73,4.82-1.33q-8.55-25.34-17.11-50.68a2.51,2.51,0,0,0-4.91.67,319.8,319.8,0,0,0,.82,44.21,2.57,2.57,0,0,0,2.5,2.5,2.51,2.51,0,0,0,2.5-2.5Z" transform="translate(-136.35 -222.52)"/><path class="cls-1" d="M399.28,636.49a29.29,29.29,0,0,1,16.93-7.77,2.56,2.56,0,0,0,2.5-2.5,2.51,2.51,0,0,0-2.5-2.5A34.6,34.6,0,0,0,395.75,633a2.5,2.5,0,0,0,3.53,3.53Z" transform="translate(-136.35 -222.52)"/><path class="cls-1" d="M409.64,610.87a90.51,90.51,0,0,0,4.66,36.65c1.5,4.33,5,10.36,10.53,8.5s5.3-9.5,5.77-14.19l2.25-22.36a2.52,2.52,0,0,0-2.5-2.5,2.56,2.56,0,0,0-2.5,2.5l-1.75,17.39-.9,8.94c-.16,1.61-.24,3.74-1.33,5.05-.76.92-1.78.41-2.68-.63a15.23,15.23,0,0,1-2.51-5.34,86.41,86.41,0,0,1-3.6-15.55,87.63,87.63,0,0,1-.44-18.46,2.5,2.5,0,0,0-5,0Z" transform="translate(-136.35 -222.52)"/><path class="cls-1" d="M442.6,566.72a445.24,445.24,0,0,0,2.61,68.2q1.11,9.62,2.62,19.17a2.51,2.51,0,0,0,3.07,1.74,2.56,2.56,0,0,0,1.75-3.07,441.8,441.8,0,0,1-5.38-66.88q0-9.57.33-19.16c.12-3.22-4.88-3.21-5,0Z" transform="translate(-136.35 -222.52)"/><path class="cls-1" d="M457.92,629.62v30.6c0,3.22,5,3.23,5,0v-30.6c0-3.21-5-3.22-5,0Z" transform="translate(-136.35 -222.52)"/><path class="cls-1" d="M472.41,561.59Q471.33,590.76,472,620t3.24,58.52q1.41,16.38,3.4,32.71a2.59,2.59,0,0,0,2.5,2.5,2.51,2.51,0,0,0,2.5-2.5q-3.51-29-5.25-58.12t-1.67-58.58q0-16.46.66-32.89c.12-3.22-4.88-3.21-5,0Z" transform="translate(-136.35 -222.52)"/><path class="cls-1" d="M480.19,616a111.72,111.72,0,0,0-.21,19.27c.26,3.34.67,6.68,1.21,10a38.7,38.7,0,0,0,1.84,8.12,11.74,11.74,0,0,0,4.26,5.79,6.41,6.41,0,0,0,6.87,0c4.58-3,4.43-10.13,4.44-14.89a61.7,61.7,0,0,0-3.5-20.46,2.57,2.57,0,0,0-3.08-1.75,2.53,2.53,0,0,0-1.75,3.08,56.85,56.85,0,0,1,3.21,15.46,58.39,58.39,0,0,1-.07,8.26,12.06,12.06,0,0,1-1.17,5.21,2.06,2.06,0,0,1-1.09,1,1.42,1.42,0,0,1-1.45-.35,8.55,8.55,0,0,1-2.25-3.83,50.65,50.65,0,0,1-1.56-7.73c-.41-2.64-.7-5.29-.91-8a111.72,111.72,0,0,1,.21-19.27,2.52,2.52,0,0,0-2.5-2.5,2.55,2.55,0,0,0-2.5,2.5Z" transform="translate(-136.35 -222.52)"/><path class="cls-1" d="M504.89,568.45l2.95,79.6.83,22.38c.12,3.21,5.12,3.23,5,0l-2.95-79.6-.83-22.38c-.12-3.21-5.12-3.23-5,0Z" transform="translate(-136.35 -222.52)"/><path class="cls-1" d="M426,606.34a59.42,59.42,0,0,1,34.39-11.81c3.22-.06,3.23-5.06,0-5A63.86,63.86,0,0,0,423.5,602a2.58,2.58,0,0,0-.9,3.42,2.52,2.52,0,0,0,3.42.89Z" transform="translate(-136.35 -222.52)"/><path class="cls-1" d="M457,613.42h1.7a1.88,1.88,0,0,0,1-.21,1.85,1.85,0,0,0,.8-.52,1.82,1.82,0,0,0,.52-.8,1.9,1.9,0,0,0,.22-1l-.09-.66a2.52,2.52,0,0,0-.65-1.1l-.5-.4a2.53,2.53,0,0,0-1.26-.34H457a1.9,1.9,0,0,0-1,.22,2.54,2.54,0,0,0-1.53,2.28l.08.67a2.52,2.52,0,0,0,.65,1.1l.5.39a2.44,2.44,0,0,0,1.27.34Z" transform="translate(-136.35 -222.52)"/><path class="cls-1" d="M473.31,669.69l10.2,1.7a2.75,2.75,0,0,0,1.93-.25,2.62,2.62,0,0,0,1.15-1.5,2.53,2.53,0,0,0-1.75-3.07l-10.2-1.7a2.75,2.75,0,0,0-1.93.25,2.58,2.58,0,0,0-1.15,1.5,2.53,2.53,0,0,0,1.75,3.07Z" transform="translate(-136.35 -222.52)"/><path class="cls-1" d="M208.65,689l-39.12,31.5-11.09,8.93c-1.53,1.23-.55,3.7,1.1,4.18,20,5.79,40.93,11.75,57.45,25a66.51,66.51,0,0,1,17.71,21c2,3.89,3.26,8.06,4.89,12.11s3.5,7.85,6.88,10.51c10,7.91,21.63-1,28.72-8.48,2.22-2.33-1.31-5.87-3.53-3.53-5.07,5.32-14.56,14.28-22.16,8.07-2.91-2.37-4.44-6.12-5.73-9.55a103.12,103.12,0,0,0-5-12.17c-9.08-17.12-25.82-28.71-43.26-36.16-11.22-4.79-22.92-8.23-34.62-11.62l1.1,4.18,39.12-31.51,11.1-8.93a2.51,2.51,0,0,0,0-3.53,2.56,2.56,0,0,0-3.54,0Z" transform="translate(-136.35 -222.52)"/><path class="cls-1" d="M187.54,738.28l52.7-10.19a2.5,2.5,0,0,0-1.33-4.82l-52.7,10.19a2.52,2.52,0,0,0-1.75,3.07,2.55,2.55,0,0,0,3.08,1.75Z" transform="translate(-136.35 -222.52)"/><path class="cls-1" d="M272.6,801.34l6.51-72.62L281,708.15l-4.91.66a203,203,0,0,0,11.21,38.79Q291,757,295.7,766.05c1.47,2.81,2.94,5.64,4.62,8.34a17.8,17.8,0,0,0,6.08,6.44c5.58,3.11,11.94.16,15.12-4.92,3.64-5.81,2.61-13.34,2.27-19.82l-2.33-44.34-2.61-49.82c-.17-3.2-5.17-3.22-5,0l4.44,84.69.55,10.47a83,83,0,0,1,.24,9.59,13.13,13.13,0,0,1-2.47,7.55c-1.4,1.73-3.59,3.22-5.91,2.9-2.15-.29-3.82-2-5-3.71a63,63,0,0,1-4.38-7.5q-4.5-8.37-8.18-17.14a202.3,202.3,0,0,1-12.24-41.3,2.48,2.48,0,0,0-2.74-1.79,2.54,2.54,0,0,0-2.17,2.46l-6.51,72.62-1.85,20.57a2.53,2.53,0,0,0,2.5,2.5,2.55,2.55,0,0,0,2.5-2.5Z" transform="translate(-136.35 -222.52)"/><path class="cls-1" d="M340.7,695.92l8,69,2.23,19.37a2.58,2.58,0,0,0,2.5,2.5,2.51,2.51,0,0,0,2.5-2.5l-8-69-2.23-19.36a2.57,2.57,0,0,0-2.5-2.5,2.52,2.52,0,0,0-2.5,2.5Z" transform="translate(-136.35 -222.52)"/><path class="cls-1" d="M350.2,713.43a15.53,15.53,0,0,1,9.32-10.5,19.14,19.14,0,0,1,15.05.24c11.58,4.93,17.14,17.05,19.81,28.61,3,12.87,4.14,27-.41,39.66-3.55,9.84-11.4,18.86-21.77,21.61-10,2.65-22.75-2.11-26.37-12.38a2.56,2.56,0,0,0-3.08-1.75A2.53,2.53,0,0,0,341,782c3.9,11,15.82,17.5,27.23,16.72,12.54-.85,23-10,28.42-21,6.66-13.46,6.08-29.09,3.34-43.48-2.56-13.45-8.17-27.57-20.85-34.43-6.19-3.35-13.59-4.49-20.29-2-6.41,2.37-11.89,7.44-13.48,14.26-.73,3.13,4.09,4.47,4.82,1.33Z" transform="translate(-136.35 -222.52)"/><path class="cls-1" d="M192.28,831.77q45.33-10.21,91.11-18.32,46.11-8.16,92.57-14.16,46.1-5.94,92.42-9.76t92.77-5.47q46.68-1.68,93.39-1.17c3.85,0,7.71.09,11.56.16,3.22.05,3.22-4.95,0-5q-46.7-.76-93.39.63t-93.27,5q-46.56,3.58-92.93,9.31T293.9,806.57q-46,7.86-91.67,17.87-5.64,1.23-11.28,2.5c-3.14.71-1.81,5.53,1.33,4.83Z" transform="translate(-136.35 -222.52)"/><path class="cls-1" d="M626.3,373.94l-47.23,50.95L565.7,439.32a2.52,2.52,0,0,0,1.76,4.26l59,.37,16.67.1a2.48,2.48,0,0,0,2.45-2.16,2.55,2.55,0,0,0-1.79-2.75A145.61,145.61,0,0,1,585.1,396,140.32,140.32,0,0,1,573.28,379c-1.4-2.34-5.62-.81-4.57,1.92a482.52,482.52,0,0,1,17.12,53.25,480.84,480.84,0,0,1,10.83,54.88q2.13,15.51,3.21,31.14a2.51,2.51,0,0,0,2.17,2.45,2.47,2.47,0,0,0,2.74-1.79l11.32-75.55,11.24-75.06,6.37-42.47a2.58,2.58,0,0,0-1.75-3.07,2.52,2.52,0,0,0-3.08,1.74L617.57,402l-11.25,75.06L600,519.56l4.91.67a488.28,488.28,0,0,0-7.25-56.14A481.74,481.74,0,0,0,584,409.59q-4.74-15.15-10.48-30L569,381.56A149.45,149.45,0,0,0,642.45,444l.66-4.91-59-.36-16.68-.11,1.77,4.27,47.23-51,13.37-14.42c2.19-2.36-1.34-5.91-3.53-3.54Z" transform="translate(-136.35 -222.52)"/><path class="cls-1" d="M610.37,570.85c-11.86,10.13-17,26.79-14.2,42,2.85,15.5,14.77,27.6,29.56,32.36a43.31,43.31,0,0,0,25.6.44,2.53,2.53,0,0,0,1.49-3.67c-7.13-12.39-19.82-19.46-30.09-28.86-4.79-4.38-9.32-9.43-11.81-15.52a21.67,21.67,0,0,1-.36-16.22c1.87-5,6.08-9.54,11.39-10.14a2.57,2.57,0,0,0,2.5-2.5,2.52,2.52,0,0,0-2.5-2.5c-12.91,1.45-19.56,15.69-17.39,27.49,2.69,14.71,16,24.3,26.91,33,6.46,5.11,12.87,10.57,17,17.8l1.5-3.67c-13.16,4-28.07.05-38.07-9.27a35.74,35.74,0,0,1-10.34-17.32,40.43,40.43,0,0,1,.2-20.29,38.63,38.63,0,0,1,12.11-19.52,2.53,2.53,0,0,0,0-3.54,2.55,2.55,0,0,0-3.53,0Z" transform="translate(-136.35 -222.52)"/></svg>