<svg id="Layer_32" data-name="Layer 32" xmlns="http://www.w3.org/2000/svg" viewBox="0 0 714.47 696.42"><defs><style>.cls-1{fill:#952c1f;}</style></defs><path class="cls-1" d="M64.83,352.81a215.92,215.92,0,0,0,26.5,50.91c3.15,4.46,6.48,8.8,10,13a2.52,2.52,0,0,0,3,.39,2.62,2.62,0,0,0,1.15-2.83L90.58,337.38l-4.16-21.56-4.18,2.44,30.89,39.2,31.05,39.39L161.63,419c1.3,1.65,4.49.31,4.27-1.77a625,625,0,0,0-10.52-65.65,617.81,617.81,0,0,0-17.41-64q-5.83-17.64-12.72-34.9a2.57,2.57,0,0,0-3.08-1.75,2.53,2.53,0,0,0-1.74,3.08l2.2,8.66c.8,3.11,5.62,1.79,4.83-1.33l-2.21-8.66-4.82,1.33a621.56,621.56,0,0,1,21.09,62.34,619,619,0,0,1,14.36,64.23q3.08,18.22,5,36.61l4.27-1.77-30.89-39.2-31-39.39L85.77,314.72a2.52,2.52,0,0,0-3-.39,2.61,2.61,0,0,0-1.15,2.82l14.88,76.93,4.17,21.56,4.18-2.43a210.84,210.84,0,0,1-29.34-47.32c-2.13-4.72-4.06-9.53-5.83-14.41a2.57,2.57,0,0,0-3.07-1.75,2.53,2.53,0,0,0-1.75,3.08Z" transform="translate(-64.72 -250.88)"/><path class="cls-1" d="M170.24,346l11.9,61.2a2.51,2.51,0,0,0,3.07,1.75,2.55,2.55,0,0,0,1.75-3.08l-11.9-61.2a2.5,2.5,0,1,0-4.82,1.33Z" transform="translate(-64.72 -250.88)"/><path class="cls-1" d="M211.29,328.78a169.93,169.93,0,0,0-21,42.07,2.52,2.52,0,0,0,2.41,3.16,45.62,45.62,0,0,0,30.47-11.08L219,360.49a294.29,294.29,0,0,1-16.31,56.8Q199.56,425,196,432.5a2.57,2.57,0,0,0,.9,3.42,2.53,2.53,0,0,0,3.42-.9,297.26,297.26,0,0,0,19.94-56.55q2-8.28,3.5-16.65a2.52,2.52,0,0,0-4.17-2.43A40.35,40.35,0,0,1,192.67,369l2.41,3.17a165.26,165.26,0,0,1,20.53-40.87,2.5,2.5,0,0,0-4.32-2.53Z" transform="translate(-64.72 -250.88)"/><path class="cls-1" d="M231.14,358.24a136.46,136.46,0,0,0,2.59,54.47,132.84,132.84,0,0,0,4.74,14.81,2.58,2.58,0,0,0,3.08,1.75,2.52,2.52,0,0,0,1.74-3.08,131.46,131.46,0,0,1-8.71-51.8A129.13,129.13,0,0,1,236,359.56a2.57,2.57,0,0,0-1.74-3.07,2.52,2.52,0,0,0-3.08,1.75Z" transform="translate(-64.72 -250.88)"/><path class="cls-1" d="M238.05,362.35l.13-26.65c0-2.76-4.32-3.48-4.91-.67a20.46,20.46,0,0,0,10,21.62c3.72,2.08,7.78,2.42,11.95,2.52a47.15,47.15,0,0,1,5.65.33,8.33,8.33,0,0,1,4.27,1.67c3.26,3,1,8.12-.59,11.48-2.51,5.33-5.05,10.64-7.57,16l-15,31.71-17.07,36a2.6,2.6,0,0,0,.9,3.43,2.53,2.53,0,0,0,3.42-.9l30.4-64.08,7.57-16c2.25-4.75,5.3-9.95,4.49-15.41-.66-4.38-4.05-7.42-8.23-8.43-4-1-8.17-.57-12.24-1-8.21-.77-14.87-9.35-13.12-17.61l-4.91-.66-.13,26.65c0,3.21,5,3.22,5,0Z" transform="translate(-64.72 -250.88)"/><path class="cls-1" d="M163.69,318.58,162,322a2,2,0,0,0-.3.93,1.89,1.89,0,0,0,.05,1,2.67,2.67,0,0,0,1.15,1.49,2.49,2.49,0,0,0,3.42-.89l1.7-3.4a1.85,1.85,0,0,0,.29-.93,2.55,2.55,0,0,0-1.19-2.49,2.48,2.48,0,0,0-3.42.89Z" transform="translate(-64.72 -250.88)"/><path class="cls-1" d="M289,371.26c-3.44,8.69-7,18-6,27.48.78,7.48,4.76,14.84,11.32,18.78,6.94,4.16,15.24,2.68,21.11-2.62,6.61-6,8.55-15.16,8.81-23.71a86.73,86.73,0,0,0-3.49-26.84,89.87,89.87,0,0,0-4.82-12.68,48,48,0,0,0-6.63-10.82c-5-5.85-13.18-10.07-20.43-5.47-6.17,3.92-8.28,11.75-9.3,18.54a123.37,123.37,0,0,0,4.23,55.22c.69,2.18,1.45,4.35,2.26,6.49a2.58,2.58,0,0,0,3.08,1.75,2.52,2.52,0,0,0,1.74-3.08,119.19,119.19,0,0,1-7.49-49.47,102.35,102.35,0,0,1,1.41-12.1,29.1,29.1,0,0,1,2.84-8.68c1.25-2.28,3.07-4.48,5.62-5.25,3.08-.93,5.95,0,8.51,1.8,5.91,4.12,9.26,11.64,11.78,18.12a82.65,82.65,0,0,1,5.48,23.8c.58,7.66.67,16.33-2.94,23.34-2.83,5.49-8.79,10.37-15.33,8.91-6-1.33-10.34-6.87-12-12.54-2.31-7.76.08-16.15,2.75-23.5.74-2.06,1.54-4.1,2.35-6.14a2.53,2.53,0,0,0-1.75-3.08,2.56,2.56,0,0,0-3.07,1.75Z" transform="translate(-64.72 -250.88)"/><path class="cls-1" d="M349.38,392.05a93.58,93.58,0,0,1-15.72-41.71l-4.26,1.77,34.52,37.36,9.93,10.75c1.6,1.74,4.07.24,4.27-1.77L384.48,335l-4.27,1.77a165.69,165.69,0,0,1,33.3,38.75c1.69,2.73,6,.23,4.31-2.52a169.93,169.93,0,0,0-34.07-39.76,2.54,2.54,0,0,0-4.27,1.76l-6.36,63.41,4.27-1.76-34.52-37.36-9.94-10.76c-1.37-1.48-4.52-.42-4.27,1.77a98.72,98.72,0,0,0,16.41,44.23,2.56,2.56,0,0,0,3.42.9,2.52,2.52,0,0,0,.89-3.42Z" transform="translate(-64.72 -250.88)"/><path class="cls-1" d="M478,314.08a136.76,136.76,0,0,0,1.7,54c.73,3.13,5.55,1.81,4.82-1.33a130.51,130.51,0,0,1-1.7-51.37,2.58,2.58,0,0,0-1.75-3.08,2.51,2.51,0,0,0-3.07,1.75Z" transform="translate(-64.72 -250.88)"/><path class="cls-1" d="M524.59,297.77a158.45,158.45,0,0,0-10.74,15.12A103.87,103.87,0,0,0,505.22,329c-1,2.5-1.5,5.38-.33,7.91s3.83,3.76,6.55,4.07a62.26,62.26,0,0,0,8.85-.14l10-.33,23-.77-1.77-4.27a210.43,210.43,0,0,0-33.82,50.45c-2.52,5.29-4.82,10.69-6.9,16.16a2.51,2.51,0,0,0,1.75,3.07,2.54,2.54,0,0,0,3.07-1.74,206.52,206.52,0,0,1,28.73-51.57c3.38-4.43,7-8.7,10.7-12.84,1.39-1.53.51-4.34-1.76-4.26l-36.94,1.24c-1.81.06-4.57.57-6.21-.46s-.76-3.28-.26-4.66a56.87,56.87,0,0,1,3.45-6.95c1.28-2.4,2.64-4.76,4.05-7.09a147.64,147.64,0,0,1,10.8-15.47,2.58,2.58,0,0,0,0-3.53,2.51,2.51,0,0,0-3.54,0Z" transform="translate(-64.72 -250.88)"/><path class="cls-1" d="M481.19,286.84l-1.7,6.8a2.6,2.6,0,0,0,.25,1.93,2.51,2.51,0,0,0,4.57-.6l1.7-6.8a2.64,2.64,0,0,0-.25-1.93,2.58,2.58,0,0,0-1.5-1.15,2.54,2.54,0,0,0-3.07,1.75Z" transform="translate(-64.72 -250.88)"/><path class="cls-1" d="M73.22,537.45a401.52,401.52,0,0,0,6.59,65.63q1.69,9.2,3.83,18.31c.73,3.14,5.55,1.81,4.82-1.33A392.4,392.4,0,0,1,79,555.9q-.6-9.21-.75-18.45c-.06-3.21-5.06-3.22-5,0Z" transform="translate(-64.72 -250.88)"/><path class="cls-1" d="M120.66,591.19l-16-55.74-4.18,2.44,42.54,39.4,12.11,11.2c1.43,1.33,4.52.53,4.26-1.76A345.52,345.52,0,0,0,143,513q-3.5-10.2-7.64-20.16a2.57,2.57,0,0,0-3.07-1.75,2.52,2.52,0,0,0-1.75,3.08A342.64,342.64,0,0,1,151.48,566q1.8,10.31,3,20.69l4.27-1.77-42.54-39.4-12.11-11.21c-1.78-1.65-4.89-.05-4.18,2.43l16,55.74c.89,3.08,5.71,1.77,4.83-1.33Z" transform="translate(-64.72 -250.88)"/><path class="cls-1" d="M229.74,581.64,224.36,506l-1.53-21.4-4.66,1.26q20.75,42.9,38.74,87.05,5.11,12.57,10,25.23a2.58,2.58,0,0,0,3.08,1.74,2.52,2.52,0,0,0,1.75-3.07q-17.42-45-37.66-88.93-5.69-12.33-11.59-24.54c-1.06-2.21-4.83-1.17-4.66,1.26l5.39,75.66,1.52,21.4a2.56,2.56,0,0,0,2.5,2.5,2.52,2.52,0,0,0,2.5-2.5Z" transform="translate(-64.72 -250.88)"/><path class="cls-1" d="M221.27,571.58l37.44-27.15a2.57,2.57,0,0,0,.9-3.42,2.52,2.52,0,0,0-3.42-.89l-37.45,27.14a2.57,2.57,0,0,0-.89,3.42,2.52,2.52,0,0,0,3.42.9Z" transform="translate(-64.72 -250.88)"/><path class="cls-1" d="M294.59,493.69l-29.5,51.5a2.51,2.51,0,0,0,3.93,3c6.54-6.58,16.6-8.74,25.48-6.51a24.75,24.75,0,0,1,11.8,6.64c3.82,3.94,6.76,9.12,12.11,11.19,5.11,2,11.8.43,13.73-5.15a2.5,2.5,0,1,0-4.82-1.33A3.91,3.91,0,0,1,324,555.3a7.82,7.82,0,0,1-5.58-1.33c-4.34-2.88-6.81-7.92-10.85-11.19a32.64,32.64,0,0,0-27.9-6,29.92,29.92,0,0,0-14.23,7.88l3.93,3,29.5-51.5c1.6-2.79-2.72-5.32-4.32-2.52Z" transform="translate(-64.72 -250.88)"/><path class="cls-1" d="M332.89,494.49a84.57,84.57,0,0,0-30.73,37.91c-.89,2.17,1.95,3.74,3.68,2.82,8.26-4.38,17.84.08,24.71,5.09a90.84,90.84,0,0,1,10.33,9.48,106.65,106.65,0,0,0,10.49,9.56,35.64,35.64,0,0,0,13.94,6.86c3.13.68,4.47-4.14,1.32-4.82-9.36-2-16.24-9.14-22.77-15.68-7-7-14.65-14-24.58-16.48a22.31,22.31,0,0,0-16,1.67l3.67,2.83a78.65,78.65,0,0,1,28.43-34.92c2.65-1.8.15-6.13-2.52-4.32Z" transform="translate(-64.72 -250.88)"/><path class="cls-1" d="M382.53,479.76,355.4,518.51l4.31,2.53c2-3.46,6.6-4,10.27-3,4.84,1.37,8.21,5.78,10.87,9.8,5.47,8.25,11.85,20.26,23.6,19,5.15-.56,10.38-3.68,11.4-9.12a2.55,2.55,0,0,0-1.74-3.07,2.52,2.52,0,0,0-3.08,1.75c-.7,3.69-4.42,5.53-8.12,5.53-4.61,0-8.51-3.49-11.35-7-6.37-7.91-10.49-20.11-21.84-22-5.43-.92-11.39.62-14.32,5.62-1.66,2.82,2.49,5.13,4.31,2.53l27.14-38.75a2.5,2.5,0,0,0-4.32-2.53Z" transform="translate(-64.72 -250.88)"/><path class="cls-1" d="M358.62,521.16l20.4-6.8a2.54,2.54,0,0,0,1.74-3.07,2.52,2.52,0,0,0-3.07-1.75l-20.4,6.8a2.56,2.56,0,0,0-1.75,3.08,2.53,2.53,0,0,0,3.08,1.74Z" transform="translate(-64.72 -250.88)"/><path class="cls-1" d="M405.24,498.94l12.38,66.25,3.49,18.65a2.5,2.5,0,0,0,4.82-1.33l-12.38-66.25-3.49-18.65a2.52,2.52,0,0,0-3.07-1.75,2.57,2.57,0,0,0-1.75,3.08Z" transform="translate(-64.72 -250.88)"/><path class="cls-1" d="M416.11,496.06c2.7-5.73,6-12.21,12-15.08,4.29-2.05,10.73-1.78,13.35,2.67,1.6,2.71,1.41,6.07.77,9a56.5,56.5,0,0,1-3.28,9.89,84.65,84.65,0,0,1-10.24,17.89,82.2,82.2,0,0,1-16.14,16.34,2.58,2.58,0,0,0-.9,3.42,2.52,2.52,0,0,0,3.42.9,89.59,89.59,0,0,0,28.33-36.37c2.9-6.88,6.3-15.51,2.81-22.79-3.12-6.52-11.23-8.37-17.72-6.45-8.39,2.48-13.25,10.57-16.74,18a2.56,2.56,0,0,0,.89,3.42,2.52,2.52,0,0,0,3.42-.9Z" transform="translate(-64.72 -250.88)"/><path class="cls-1" d="M445.88,442.22l6.62,85L454.36,551a2.57,2.57,0,0,0,2.5,2.5,2.52,2.52,0,0,0,2.5-2.5l-6.62-85-1.86-23.85a2.57,2.57,0,0,0-2.5-2.5,2.51,2.51,0,0,0-2.5,2.5Z" transform="translate(-64.72 -250.88)"/><path class="cls-1" d="M472.57,545.29a298.54,298.54,0,0,1-4.12-70.51q.6-10,1.88-20L465.67,456a267.16,267.16,0,0,1,30.09,78.48q2.43,11.5,3.84,23.18a2.57,2.57,0,0,0,2.5,2.5,2.51,2.51,0,0,0,2.5-2.5,273.5,273.5,0,0,0-23.46-82.75Q476.06,464,470,453.5a2.58,2.58,0,0,0-2.83-1.15,2.63,2.63,0,0,0-1.83,2.41,300.9,300.9,0,0,0-.54,71.54q1.14,10.2,3,20.32a2.5,2.5,0,0,0,3.07,1.74,2.55,2.55,0,0,0,1.75-3.07Z" transform="translate(-64.72 -250.88)"/><path class="cls-1" d="M465.51,537a154.78,154.78,0,0,1,30.21-35.19,2.52,2.52,0,0,0,0-3.54,2.55,2.55,0,0,0-3.53,0,158.59,158.59,0,0,0-31,36.21c-1.71,2.74,2.61,5.25,4.31,2.52Z" transform="translate(-64.72 -250.88)"/><path class="cls-1" d="M513.58,552.73l-7.4-55.94-2.09-15.85-4.27,1.77,36.57,45a2.52,2.52,0,0,0,3,.39,2.62,2.62,0,0,0,1.14-2.83Q536,496,531.37,466.79l-2.62-16.71a2.52,2.52,0,0,0-3.08-1.75,2.57,2.57,0,0,0-1.75,3.08q4.61,29.25,9.2,58.5l2.62,16.71,4.18-2.43-36.57-45c-1.29-1.6-4.54-.35-4.26,1.76l7.4,55.95,2.09,15.84a2.59,2.59,0,0,0,2.5,2.5,2.51,2.51,0,0,0,2.5-2.5Z" transform="translate(-64.72 -250.88)"/><path class="cls-1" d="M584,449a141.68,141.68,0,0,0-27.72,47.38,140,140,0,0,0-4.27,15,2.54,2.54,0,0,0,3.68,2.82,31.05,31.05,0,0,1,22.17-.92A30.1,30.1,0,0,1,593.76,526a31.09,31.09,0,0,1,4.16,10.83A2.53,2.53,0,0,0,601,538.6a2.56,2.56,0,0,0,1.74-3.08,35.77,35.77,0,0,0-11.55-20.19,35.34,35.34,0,0,0-23.49-8.68,36.36,36.36,0,0,0-14.55,3.22l3.68,2.82a136.7,136.7,0,0,1,21.42-48.45,132.6,132.6,0,0,1,9.28-11.72c2.12-2.41-1.4-5.95-3.54-3.54Z" transform="translate(-64.72 -250.88)"/><path class="cls-1" d="M622.2,458.49c-2.85,7.25-9.22,12.41-14.26,18.08-5.42,6.12-10.14,14.08-8.86,22.56.64,4.24,3,7.84,5.87,11s5.72,5.88,8.69,8.67c6.14,5.74,13,11.1,21.19,13.58s17.94,2,25-3.32a2.58,2.58,0,0,0,.9-3.42,2.52,2.52,0,0,0-3.42-.9c-5.51,4.21-12.65,4.92-19.25,3.32-7.39-1.77-13.7-6.33-19.27-11.34-3-2.67-5.79-5.48-8.57-8.33-2.54-2.58-5.06-5.4-6-9-1.82-7.09,2.9-14.35,7.4-19.39,5.68-6.36,12.22-12,15.41-20.14a2.51,2.51,0,0,0-1.74-3.07,2.56,2.56,0,0,0-3.08,1.74Z" transform="translate(-64.72 -250.88)"/><path class="cls-1" d="M601.06,495.75a54.63,54.63,0,0,0,25.06-7.14c2.8-1.6.28-5.92-2.52-4.32a49.12,49.12,0,0,1-22.54,6.46c-3.21.12-3.22,5.12,0,5Z" transform="translate(-64.72 -250.88)"/><path class="cls-1" d="M415.67,450.34l-23.82-8.85v4.82L507.7,425.54,623,404.87l64.61-11.59a2.53,2.53,0,0,0,1.75-3.07,2.55,2.55,0,0,0-3.08-1.75L570.4,409.23,455.14,429.9l-64.62,11.59a2.51,2.51,0,0,0-1.83,2.41,2.6,2.6,0,0,0,1.83,2.41l23.82,8.85a2.5,2.5,0,1,0,1.33-4.82Z" transform="translate(-64.72 -250.88)"/><path class="cls-1" d="M439,748.59c21.44,10.11,45.54,12.06,68.86,9.42,24.54-2.77,48-10.4,71.26-18.43,12-4.14,23.94-8.37,36.07-12.05,6.13-1.87,12.3-3.59,18.53-5.09a111.12,111.12,0,0,1,16.87-3.14c5.24-.42,10.79-.14,15.5,2.42a18.21,18.21,0,0,1,8,8.84c3.43,7.91,2.27,17.62-1,25.4-7.54,17.92-26.12,30.85-45.3,32.82a55.06,55.06,0,0,1-7.38.25c-3.21-.1-3.21,4.9,0,5,20.9.66,41.47-10.45,52.85-27.9,5.32-8.15,8.54-17.93,7.73-27.74a28.9,28.9,0,0,0-4.13-13.25,23.13,23.13,0,0,0-11.7-9.28c-5.33-2-11.24-2-16.81-1.33a146.87,146.87,0,0,0-18.22,3.65c-12.59,3.15-24.94,7.16-37.22,11.36-24,8.22-48,17.25-73.11,21.72-23.32,4.15-48,4.46-70.49-3.74q-4-1.46-7.77-3.24a2.57,2.57,0,0,0-3.42.89,2.52,2.52,0,0,0,.9,3.42Z" transform="translate(-64.72 -250.88)"/><path class="cls-1" d="M447.38,748.42c-7.08,3.88-14.31,8-19.74,14.13-5.09,5.73-8.57,13.5-7.75,21.29a21.5,21.5,0,0,0,11.28,16.54c6,3.34,12.84,4.61,19.55,5.42,10.1,1.23,20.27,2,30.4,2.92a2.52,2.52,0,0,0,2.5-2.5,2.55,2.55,0,0,0-2.5-2.5l-26.4-2.49c-6.05-.57-12.18-1.41-17.87-3.65-5.21-2.06-9.91-5.84-11.48-11.42-1.8-6.4.59-13.46,4.55-18.58,5.14-6.65,12.75-10.87,20-14.84,2.82-1.55.3-5.87-2.52-4.32Z" transform="translate(-64.72 -250.88)"/><path class="cls-1" d="M512.79,790.73c-1.56-9.4,2.2-18.9,8.14-26.09a51.63,51.63,0,0,1,24.91-16.37c10-3,20.89-3.39,30.87-.11a37.07,37.07,0,0,1,21.16,17.54c4.67,8.58,6.11,19.34,1.94,28.41a2.54,2.54,0,0,0,1.49,3.67c5.35,1.19,10-1.43,14-4.73,3.44-2.83,6.35-6.36,10.67-7.87,3.06-1.07,7.37-1.21,8,2.94.31,2.06-.63,4.21-1.6,6a55.1,55.1,0,0,1-4.44,6.2c-3.46,4.59-6.58,10.88-3.22,16.37l3.42-3.42a33.83,33.83,0,0,0-25.83-2.91c-3.08.9-1.77,5.73,1.33,4.82a28.7,28.7,0,0,1,22,2.41c2.13,1.19,4.76-1.23,3.42-3.42-2.53-4.13,1.55-9.29,4.07-12.4,3.28-4,6.63-9.16,5.75-14.63a9.38,9.38,0,0,0-10.32-7.58c-4.83.45-9.09,3-12.59,6.26s-8.06,8.32-13.26,7.16l1.5,3.67c9-19.5-2.51-43.1-21.45-51.48-21-9.3-47.56-3-63.16,13.55-8.45,9-13.61,20.93-11.55,33.36a2.52,2.52,0,0,0,3.07,1.75,2.56,2.56,0,0,0,1.75-3.08Z" transform="translate(-64.72 -250.88)"/><path class="cls-1" d="M502.78,789.57c-9.54.6-15.59,11.78-12.18,20.42,3.94,10,15.59,13.83,25.49,11.74,6.54-1.38,12.35-5,17.51-9.1a2.5,2.5,0,0,0,0-3.53,2.55,2.55,0,0,0-3.54,0c-6.82,5.44-15.87,10.09-24.78,7.54a15.52,15.52,0,0,1-8.93-6.27,10.44,10.44,0,0,1-.93-9.59c1.19-3.22,4-6,7.36-6.21s3.22-5.2,0-5Z" transform="translate(-64.72 -250.88)"/><path class="cls-1" d="M548.82,805.91c-7.25-.21-13.51,4.31-18.19,9.45s-8.39,11.36-14.45,14.89a23,23,0,0,1-17.29,2.1A22.66,22.66,0,0,1,485,821.68a25.89,25.89,0,0,1-2.67-19.38,2.52,2.52,0,0,0-4.18-2.43c-11.39,10.6-7.94,30.57,3.6,39.68,7,5.53,15.92,7.84,24.77,7.53a56.58,56.58,0,0,0,25.88-7.82c9.51-5.39,17.78-12.7,25.92-19.92l-3.92-.51a50,50,0,0,0,32.23,20.77,48.72,48.72,0,0,0,36.78-8.48,49.42,49.42,0,0,0,14.45-16.06,2.53,2.53,0,0,0-2.82-3.67c-12,2.88-24.72,6-37.14,4-9.49-1.53-18.54-6.53-23.7-14.84a21.68,21.68,0,0,1-3.27-14.41,2.5,2.5,0,0,0-2.5-2.5,2.57,2.57,0,0,0-2.5,2.5c-1.4,10.72,4.86,20.54,13.14,26.77,9.9,7.45,22.57,8.89,34.59,7.62a177.29,177.29,0,0,0,22.71-4.34l-2.83-3.67a45,45,0,0,1-26.39,21.06,44.44,44.44,0,0,1-48.43-17.29,2.55,2.55,0,0,0-3.93-.51c-12.68,11.24-26.5,23.52-43.94,25.92-7.58,1-15.69.16-22.42-3.65a24.14,24.14,0,0,1-11.61-15.55c-1.63-6.76-.4-14.21,4.87-19.11L477.5,801c-3.44,13.14,2.51,28.5,15.14,34.38A29.1,29.1,0,0,0,512.9,837c7.25-2.12,12.31-7.34,17-13s10.59-13.34,19-13.1c3.22.09,3.21-4.91,0-5Z" transform="translate(-64.72 -250.88)"/><path class="cls-1" d="M522.13,783.59l-.92,5.87a2.62,2.62,0,0,0,1.15,2.83c4.3,2.47,9.32,4.05,14.31,3.43a16,16,0,0,0,10.7-5.83,12,12,0,0,0,2-11.91,14,14,0,0,0-8.66-8.06c-7.91-2.5-14.78,4.1-15.36,11.74a11.55,11.55,0,0,0,3.84,9.61,13.39,13.39,0,0,0,19.09-2.58,11.84,11.84,0,0,0,1-10.64c-1.48-3.81-4.63-6.83-8.8-7.28a10.94,10.94,0,0,0-10,5.25,8.58,8.58,0,0,0,1,10.66,10.32,10.32,0,0,0,9.29,2.49c3.36-.75,6.2-3.78,6-7.34s-2.93-6.69-6.27-7.91a6.89,6.89,0,0,0-9,3.94c-1.25,3.37.41,7.32,3.16,9.41a6.8,6.8,0,0,0,9.69-1.36,8.89,8.89,0,0,0,.57-9.23,7.11,7.11,0,0,0-3.82-3.21,2.42,2.42,0,0,0-2.43.65,8.51,8.51,0,0,0,10.73,13c2.76-1.65.25-6-2.52-4.31a3.52,3.52,0,0,1-4.68-5.18l-2.43.65c-.34-.14.17.11.27.17-.31-.22.12.11.21.21.31.3,0-.15.18.22.08.14.34.67.29.54a7.07,7.07,0,0,0,.2.79c0,.24,0,.49,0,.73s-.1.84,0,.43a5.65,5.65,0,0,1-.17.71,4.11,4.11,0,0,1-.15.46s.14-.31,0-.06a4.65,4.65,0,0,1-.36.61c-.17.23,0,0,0-.05a3.34,3.34,0,0,1-.32.33,1.85,1.85,0,0,1-1.38.33c-1.38-.24-2.47-2.12-2.48-3.57a1.56,1.56,0,0,1,.15-.71,1.32,1.32,0,0,1,.72-.8c.24-.14,0,0,0,0a2,2,0,0,1,.35-.11,2.25,2.25,0,0,1,.35-.09s-.35,0,0,0h.53l.65.16a5.06,5.06,0,0,1,1.07.53,4.24,4.24,0,0,1,1,.89,3.38,3.38,0,0,1,.66,1,5.24,5.24,0,0,1,.22.8,2,2,0,0,1-.73,1.75,1.55,1.55,0,0,1-.27.24s.27-.19,0,0a4.68,4.68,0,0,1-.73.4c.36-.15-.2.05-.31.08s-.76.16-.63.15a5.41,5.41,0,0,1-2.49-.28,4.32,4.32,0,0,1-1.92-1.25c-.19-.2,0,0,0,0a3.21,3.21,0,0,1-.21-.3c-.06-.11-.32-.58-.27-.47a4.71,4.71,0,0,1-.23-1.33A4.83,4.83,0,0,1,535.1,778a5.54,5.54,0,0,1,5.92-2,6.42,6.42,0,0,1,3.79,4.57,6.73,6.73,0,0,1-1.1,5.9,8.08,8.08,0,0,1-5.2,2.68,8.23,8.23,0,0,1-5.82-1.38,6.35,6.35,0,0,1-2.41-5.23,9,9,0,0,1,2-5.71,6.26,6.26,0,0,1,5.61-2.39c4.72.51,8.63,5.84,6.74,10.41-2.43,5.89-9.67,6.91-15.09,5.24a23.15,23.15,0,0,1-4.69-2.09l1.15,2.82.92-5.87a2.58,2.58,0,0,0-1.75-3.07,2.5,2.5,0,0,0-3.07,1.74Z" transform="translate(-64.72 -250.88)"/><path class="cls-1" d="M574.28,777.05c-3.65-.26-6.52,2.65-7.47,6a8.56,8.56,0,0,0,3.47,9.67c3.39,2.26,7.87,1.91,11.42.3a12.63,12.63,0,0,0,7.16-10,8.69,8.69,0,0,0-6.15-9.22c-3.65-1.15-8.21.65-8.85,4.74-.56,3.61,1.63,7.86,5.6,8.16a3.62,3.62,0,0,0,2.92-.93,5.28,5.28,0,0,0,1.38-2.51,6.17,6.17,0,0,0-1.59-5.23,8.42,8.42,0,0,0-4.67-2.74,7.3,7.3,0,0,0-6.23,1.77c-3.48,2.91-4.26,7.81-4.79,12.05a2.51,2.51,0,0,0,2.5,2.5,2.56,2.56,0,0,0,2.5-2.5l.06-.47c0,.27,0,.25,0,0s.07-.48.11-.72c.09-.56.19-1.12.31-1.68a18.37,18.37,0,0,1,.9-3c-.19.45.12-.23.13-.26.12-.24.25-.47.39-.7s.28-.45.43-.67c-.28.41.14-.16.18-.2.17-.19.36-.37.55-.55l.26-.22c-.21.16-.19.15,0,0l.6-.35c.42-.25-.43.1.17-.05s-.37,0,.13,0h.54c.55,0-.42-.13.06,0l.71.21c.48.14-.39-.24.08,0,.16.09.33.17.49.27s.72.58.24.15l.4.36c.13.13.24.27.36.4-.45-.5,0,.06.1.19s.21.62,0,0a3.88,3.88,0,0,0,.14.45c.17.4,0-.55,0,0,0,.19,0,.1.06-.29,0,.1,0,.19-.07.29-.2.51.27-.52,0,0-.15.21-.12.18.09-.1l-.25.26,1.1-.65c-.6.13.56,0,0,0s.58.09,0,0c-.25,0-.49-.3,0,0l-.42-.25c.54.32.13.13,0,0s-.38-.56,0,0l-.28-.44a3,3,0,0,1-.16-.31c.13.33.15.36.05.1s-.11-.33-.15-.51-.12-.62-.06-.19,0-.15,0-.2,0-.35,0-.52c0,.64,0,.18,0,0s.28-.6,0-.05l.25-.45c-.29.54,0,0,.2-.15-.42.39.07,0,.16-.06.47-.34-.44.08.12-.07l.56-.15c-.58.16-.06,0,.12,0h.39c.63,0-.48-.14.13,0,.2.05.4.09.59.15l.39.13c-.28-.13-.29-.13,0,0a8.06,8.06,0,0,1,1.06.64c-.46-.34.07.08.13.14l.43.45c-.38-.41,0,.06.1.16s.2.35.3.54c-.23-.42-.06-.16,0,0,.09.33.19.64.25,1-.09-.5,0,.28,0,.32,0,.25,0,.5,0,.75,0,.73.13-.38,0,.33-.06.24-.11.49-.18.73s-.15.49-.24.73c.16-.43-.16.34-.16.34a10.08,10.08,0,0,1-1,1.53c.22-.28-.13.13-.18.19s-.29.32-.45.47-.37.35-.56.53c-.57.53.36-.21-.24.19-.38.25-.77.5-1.18.72-.2.1-.41.21-.63.3.47-.2-.4.13-.48.16-.45.14-.9.23-1.35.34-.71.16.47,0-.25,0l-.46,0a12.4,12.4,0,0,1-1.36,0c-.7,0,.46.14-.22,0-.28-.07-.57-.12-.86-.21-.06,0-.74-.28-.22-.06a5.39,5.39,0,0,1-.59-.29c-.2-.11-.38-.23-.56-.35-.56-.35.26.32-.19-.16-.16-.16-.32-.33-.48-.48s0,0,0,.07c-.1-.16-.2-.31-.29-.47a3.24,3.24,0,0,1-.17-.32c.13.32.14.34,0,.09s-.12-.35-.16-.53,0-.24-.07-.36c0,.36,0,.4,0,.11s0-.86,0-1.3c0,.67,0,.08,0-.07s.11-.48.18-.72.12-.29.16-.44l-.07.18c.05-.11.1-.22.16-.33s.18-.32.27-.47l.21-.29q-.33.41-.06.09c.12-.13.23-.26.36-.38l.26-.23q-.42.32-.09.09a3.83,3.83,0,0,0,.44-.25c-.54.34,0,0,.21,0s.64,0,0,0c.24,0,.48,0,.73,0a2.52,2.52,0,0,0,2.5-2.5,2.55,2.55,0,0,0-2.5-2.5Z" transform="translate(-64.72 -250.88)"/><path class="cls-1" d="M514.09,841c4.42,17.52,9.44,38.12-2.09,54-4.09,5.66-10.33,10.36-17.41,11.2-6.44.77-12.41-1.72-17.89-5-10.92-6.62-20.78-17.71-34.16-18.93-7.83-.72-14.47,3.19-20.34,7.92a97.63,97.63,0,0,1-9.5,7.33,34.68,34.68,0,0,1-12.17,4.35C392,903.4,383,903,374.75,906.22c-7,2.71-13.82,7.55-16.23,14.94a16.75,16.75,0,0,0-.79,5.49l4.91-.67c-1.29-4.67-6-7.15-10.61-7-5,.2-9.49,3.08-11,8-1.66,5.49.81,11.59,4.87,15.38,5,4.64,11.93,5.56,18.42,4.53,6.86-1.07,13-4.47,19-7.7a78.29,78.29,0,0,1,9.65-4.61,57.93,57.93,0,0,1,9.77-2.69c13.72-2.54,27.91-.41,41.56,1.56,7,1,14.06,2,21.14,2.62a187.07,187.07,0,0,0,22.21.51,192.48,192.48,0,0,0,44.06-6.75c23.26-6.42,47.35-18.18,60-39.72,10.49-17.84,10.65-43.52-3.9-59.26a38.84,38.84,0,0,0-5.88-5.13,2.51,2.51,0,0,0-3.42.9,2.55,2.55,0,0,0,.89,3.42c15.93,11.44,17.88,34.53,11,51.56-4,9.81-11.4,18.14-19.7,24.55-9.06,7-19.55,12-30.32,15.77a184.65,184.65,0,0,1-80.54,8.61c-13.24-1.48-26.36-4.17-39.71-4.67a83.34,83.34,0,0,0-20,1.47,69,69,0,0,0-18.52,7.11c-5.7,3-11.37,6.29-17.81,7.49-5.31,1-11.28.28-15.13-3.83-2.81-3-4.53-8-2-11.63a6.56,6.56,0,0,1,3.84-2.28,7.67,7.67,0,0,1,4.76.35c-.44-.18.28.14.3.15.21.12.42.24.63.38.05,0,.37.28.07,0a6.15,6.15,0,0,1,.53.49s.47.55.27.29.25.4.22.35.36.73.18.3a6.39,6.39,0,0,1,.24.74c.74,2.69,5,2.2,4.91-.66-.12-7.13,5.81-12.14,11.84-15,7.75-3.62,16.67-3.42,25-4.65a44,44,0,0,0,13.33-3.92A54.59,54.59,0,0,0,423,896a53.31,53.31,0,0,1,9.62-6.87,18.11,18.11,0,0,1,13.08-1.28,26.34,26.34,0,0,1,4,1.44,54.24,54.24,0,0,1,8.21,4.78c5.57,3.79,10.77,8.13,16.56,11.6s12.42,6.11,19.28,5.64c7.91-.55,15.06-4.79,20.19-10.7a41.93,41.93,0,0,0,9.81-23c1.21-10.24-.65-20.61-3-30.56-.58-2.48-1.2-5-1.83-7.43-.78-3.12-5.61-1.8-4.82,1.33Z" transform="translate(-64.72 -250.88)"/><path class="cls-1" d="M587.61,859.9c10.85,14.25,24.92,25.74,40.38,34.65a176.08,176.08,0,0,0,26.51,12.39c9.91,3.69,20.24,6.76,30.87,7.14,9.88.34,21.81-1.76,28.79-9.41a2.54,2.54,0,0,0-1.1-4.18c-3.32-1.14-6.78-3.44-7.82-6.94l-2.41,3.16c19.39.9,39.53-3.14,56.55-12.63a75.92,75.92,0,0,0,12.38-8.58h-3.53a20.8,20.8,0,0,1,4.85,21.4c-2.66,8.31-9.18,14.63-16.31,19.31-8.06,5.29-17.1,8.89-26.28,11.73a201.55,201.55,0,0,1-30.61,7c-10.23,1.48-20.89,2-31.1,0a66.18,66.18,0,0,1-26.34-11.6c-7.71-5.53-14.56-12.27-21.3-18.92q-11.4-11.25-21.93-23.33a376.75,376.75,0,0,1-36.46-49.3c-1.27-2.06-2.52-4.14-3.75-6.22-1.64-2.77-6-.26-4.32,2.52a380.44,380.44,0,0,0,36.91,51.78q10.57,12.52,22.12,24.19c7.17,7.26,14.49,14.56,22.55,20.85s17,11.32,26.88,13.89c10.54,2.73,21.64,2.83,32.41,1.66a196.47,196.47,0,0,0,32.3-6.52c9.88-2.82,19.73-6.39,28.6-11.64,8-4.76,15.6-11.1,19.69-19.68,3.81-8,4.36-17.31-.15-25.15a27.22,27.22,0,0,0-4.23-5.5,2.55,2.55,0,0,0-3.53,0c-13.51,11.51-31.63,17.5-49.08,19.29a109.77,109.77,0,0,1-16.32.45,2.52,2.52,0,0,0-2.41,3.16c1.57,5.29,6.3,8.71,11.31,10.44l-1.11-4.18c-5.57,6.12-15,7.92-22.9,8-10.13.07-20-2.74-29.47-6.11-16.92-6-33.17-14.63-47.11-26a117.58,117.58,0,0,1-19.21-19.6,2.58,2.58,0,0,0-3.42-.9,2.53,2.53,0,0,0-.9,3.42Z" transform="translate(-64.72 -250.88)"/><path class="cls-1" d="M728.64,903.09l-5.54-.72c-2.18-.28-3.24,2.9-1.76,4.27,6.94,6.43,17.66,9.36,26.42,4.89,7.44-3.81,12.32-13.54,9.19-21.64-2.76-7.18-11.68-11.45-19-8.8a11.73,11.73,0,0,0-7.58,8,14.64,14.64,0,0,0,1.73,10.7,13.34,13.34,0,0,0,8.3,6.47,11.53,11.53,0,0,0,10.24-2.79c5.34-4.74,6.69-13.91,1.84-19.43-5.13-5.85-14.69-4.23-19.65,1a11.93,11.93,0,0,0-3.35,10.37,12.33,12.33,0,0,0,7.81,8.93c3.8,1.43,8.4.28,10.52-3.33a10,10,0,0,0-.69-10.43,8,8,0,0,0-10.24-2.8,10.15,10.15,0,0,0-5.3,9.16,8.35,8.35,0,0,0,2.21,5.39l3.54-3.53a3.78,3.78,0,0,1-1.5-2.67,5.2,5.2,0,0,1,.58-3.06,3.11,3.11,0,0,1,2.22-1.78,4.36,4.36,0,0,1,3.17.72,4.62,4.62,0,0,1,2,2.65,3.15,3.15,0,0,1-.72,2.91,4.62,4.62,0,0,1-5.74,1.22c-2.76-1.67-5.27,2.65-2.52,4.32,6.56,4,16.22-2.53,13.67-10.22a10,10,0,0,0-8.54-6.63,8.36,8.36,0,0,0-8.37,5.34c-1.49,3.57-.87,8.16,2.19,10.73a2.5,2.5,0,0,0,3.54-3.53,3,3,0,0,1-.57-1,3.12,3.12,0,0,1-.17-1.57,5.84,5.84,0,0,1,1.19-2.92,4.05,4.05,0,0,1,2.14-1.4,3,3,0,0,1,1.07,0,3,3,0,0,1,1.2.56,5.35,5.35,0,0,1,1.6,5.28,2.87,2.87,0,0,1-1.8,1.94,3.38,3.38,0,0,1-1.21.23,3.82,3.82,0,0,1-1.6-.26,7.37,7.37,0,0,1-4.82-5.33,5.85,5.85,0,0,1,.34-3.26,8.29,8.29,0,0,1,1.76-2.64,10.65,10.65,0,0,1,6.18-3.08,6.91,6.91,0,0,1,6,1.92,6.65,6.65,0,0,1,1.46,2.51,7.74,7.74,0,0,1,.33,3.39,10.91,10.91,0,0,1-2.6,6,6.51,6.51,0,0,1-5.72,2.32,3.8,3.8,0,0,1-.54-.11,9.46,9.46,0,0,1-.91-.26,13.91,13.91,0,0,1-1.45-.77,10.18,10.18,0,0,1-4.21-9,1.3,1.3,0,0,1,.08-.53,7.13,7.13,0,0,1,.23-.91,5.35,5.35,0,0,1,.71-1.49,6.78,6.78,0,0,1,2.53-2.24,9.57,9.57,0,0,1,7-.42,10.41,10.41,0,0,1,5.84,4.15c3.18,5,.71,11.81-3.65,15.57-5.17,4.45-13,3.76-18.64.66a22.11,22.11,0,0,1-4.29-3.08l-1.77,4.26,5.54.72a2.51,2.51,0,0,0,2.5-2.5,2.57,2.57,0,0,0-2.5-2.5Z" transform="translate(-64.72 -250.88)"/><path class="cls-1" d="M737.53,864c7.45-1.94,10.08-9.71,9.62-16.69a30.79,30.79,0,0,0-2.8-10.95c-2.05-4.43-4.85-8.47-6.9-12.91-1.88-4.07-3.19-8.67-1.77-13.09,1-3.18,3.45-5.66,6.1-7.81,5.7-4.62,13-8,16.56-14.85,4.36-8.4,1.31-17.76-.54-26.4-.88-4.11-1.63-8.48-.78-12.66s3.13-7.9,5.57-11.39,5.36-7.1,7.5-11A34.94,34.94,0,0,0,774.26,712c.77-10.29-2.58-20.52-6.34-30-3.52-8.84-7.62-17.41-9.77-26.74-1.85-8-2.55-17.08,1.1-24.71a25.33,25.33,0,0,1,3.16-5,2.56,2.56,0,0,0,0-3.53,2.5,2.5,0,0,0-3.53,0c-12,14.56-6.76,35-.17,50.8,3.94,9.43,8.27,18.87,10,29a37.23,37.23,0,0,1-.08,14.23,34.93,34.93,0,0,1-5.81,12.31c-2.52,3.63-5.33,7.08-7.5,10.94a26.85,26.85,0,0,0-3.66,12.76c-.15,8.93,4.08,17.29,3.94,26.18a15.46,15.46,0,0,1-3.74,10.06,44.84,44.84,0,0,1-8.28,6.75,49,49,0,0,0-8.6,7,18.4,18.4,0,0,0-4.92,11.43c-.25,4.94,1.64,9.73,3.8,14.06,2,4,4.88,8.09,6.49,12.12a24.42,24.42,0,0,1,1.82,10.06c-.1,2.83-.86,5.83-2.74,7.7a6.74,6.74,0,0,1-3.24,1.77c-3.12.81-1.8,5.63,1.32,4.82Z" transform="translate(-64.72 -250.88)"/><path class="cls-1" d="M749,632.16c-17.49,6.39-26.95,28.06-20.7,45.46,1.8,5,4.94,8.94,8.25,13a26.39,26.39,0,0,1,4.1,6.36,13.21,13.21,0,0,1,.55,8.17c-2.82,11.73-14.85,18-20.3,28.29-2.68,5.06-3.57,10.83-1.59,16.31,1.88,5.16,5.87,9.19,11.54,9.64l-1.77-4.27c-8.07,7.07-16,14.39-22.32,23.15-6.4,8.94-10.17,19.23-9.75,30.31.24,6.25,1.43,12.43,1.72,18.68a38.87,38.87,0,0,1-.5,9.14c-.59,3-1.49,6-1.83,9.07a14.55,14.55,0,0,0,4.14,12.26,28.73,28.73,0,0,0,8.92,5.5c3.85,1.66,7.21,2.75,10.79,4.78a21.14,21.14,0,0,1,2.34,1.5c.36.27-.43-.36.14.12.18.15.36.29.53.45a12.54,12.54,0,0,1,1,1l.29.34c.3.34-.1-.19.23.3s.45.69.65,1.06c.1.2.21.4.3.61-.18-.4,0,.15.09.26a13.56,13.56,0,0,1,.37,1.39,2.5,2.5,0,1,0,4.82-1.32c-1.55-7.39-8.86-10.61-15.15-13.18a58.16,58.16,0,0,1-8.91-4.14,12.7,12.7,0,0,1-3.41-2.75c-.13-.15-.26-.29-.38-.44-.28-.34.32.46-.1-.14a10.18,10.18,0,0,1-.63-1,6.07,6.07,0,0,1-.82-2c-.73-2.74-.06-5.62.57-8.31a55,55,0,0,0,1.56-9.18c.38-6-.6-12-1.23-18-.61-5.69-.85-11.4.51-17A45.89,45.89,0,0,1,709,784c6.19-9.83,15-17.74,23.68-25.33,1.77-1.55.22-4.11-1.76-4.27a6.91,6.91,0,0,1-4.29-2.09,11.34,11.34,0,0,1-2.67-4.61,15,15,0,0,1,1.51-12.07c2.63-4.78,6.62-8.6,10.32-12.54,4-4.3,7.77-9,9.72-14.64A19,19,0,0,0,743.7,692c-2.66-4.35-6.54-7.84-9-12.33-3.88-7.07-4.09-15.6-1.73-23.24,2.64-8.57,8.86-16.37,17.39-19.48a2.58,2.58,0,0,0,1.74-3.08,2.52,2.52,0,0,0-3.07-1.75Z" transform="translate(-64.72 -250.88)"/><path class="cls-1" d="M512.89,738.53a518.7,518.7,0,0,0,30.59-69.11,513.28,513.28,0,0,0,20.18-72.86q4.19-20.94,6.6-42.18l-4.91.66C571.71,576,578.14,597,587.7,616.68c8.43,17.38,19.54,33.74,34.1,46.56a99.77,99.77,0,0,0,26.43,17,2.58,2.58,0,0,0,3.42-.9,2.52,2.52,0,0,0-.9-3.42C634,668.7,619.88,656.45,608.9,642c-12.28-16.15-20.78-34.72-27.59-53.73-4.09-11.4-7.62-23-11.14-34.58a2.51,2.51,0,0,0-2.74-1.79,2.55,2.55,0,0,0-2.17,2.46,509.54,509.54,0,0,1-14,73.38,511.76,511.76,0,0,1-24.35,70.18q-8.38,19.39-18.34,38.06c-1.51,2.84,2.8,5.37,4.32,2.53Z" transform="translate(-64.72 -250.88)"/><path class="cls-1" d="M632.24,683.42a188.62,188.62,0,0,1-27.12-37,185.79,185.79,0,0,1-10-20.69c-2.58-6.35-4.72-14.52-12.07-16.81a9.79,9.79,0,0,0-9.28,1.6c-3,2.56-3.1,6.72-2.8,10.33.7,8.51,1.63,17,2.72,25.47q3.3,25.62,8.76,50.9T595.51,747q.94,3.09,1.94,6.17c1,3.05,5.81,1.75,4.82-1.33q-7.56-23.6-13.17-47.76t-9.16-48.69q-1.79-12.23-3-24.52c-.4-4-.95-8-1.06-12a6.63,6.63,0,0,1,.81-4.13,3.42,3.42,0,0,1,2.56-1.29c6.47-.52,8.72,7.71,10.61,12.44a197.67,197.67,0,0,0,9.53,20.45,194.6,194.6,0,0,0,25.58,36.53q1.86,2.08,3.78,4.13c2.2,2.34,5.73-1.2,3.53-3.54Z" transform="translate(-64.72 -250.88)"/><path class="cls-1" d="M541.19,691.83,525.25,742.9a2.52,2.52,0,0,0,3.67,2.82,233,233,0,0,0,39.15-31l-3.93-3c-6.75,9.36-19.83,12.86-30.6,9.87a24.68,24.68,0,0,1-8.5-4.16l-3,3.93,42.1,26.15a2.5,2.5,0,0,0,3.23-.65,2.56,2.56,0,0,0-.2-3.28,92.31,92.31,0,0,1-19.21-45c-.18-1.34-1.89-2.07-3.07-1.75a2.58,2.58,0,0,0-1.75,3.08,96.9,96.9,0,0,0,20.5,47.16l3-3.93-42.11-26.15a2.51,2.51,0,0,0-3,3.93c11,8.47,26.87,8.75,38.48,1.32a31.21,31.21,0,0,0,8.48-8c1.69-2.36-2-5-3.93-3a227.54,227.54,0,0,1-38.13,30.17l3.67,2.82L546,693.15c1-3.07-3.86-4.39-4.82-1.32Z" transform="translate(-64.72 -250.88)"/><path class="cls-1" d="M554.91,810.75l15.67-2.43,7.83-1.21a48.44,48.44,0,0,1,7.08-.9A6.9,6.9,0,0,1,592.4,811a27.64,27.64,0,0,1,1.46,10c0,3.21,5,3.22,5,0,0-5.87-.66-13.21-5.57-17.21-3.13-2.54-7-2.83-10.83-2.32-4.5.6-9,1.37-13.46,2.07l-15.42,2.38a2.52,2.52,0,0,0-1.75,3.08,2.57,2.57,0,0,0,3.08,1.75Z" transform="translate(-64.72 -250.88)"/></svg>