<svg id="Layer_28" data-name="Layer 28" xmlns="http://www.w3.org/2000/svg" viewBox="0 0 657.61 861.63"><defs><style>.cls-1{fill:#952c1f;}</style></defs><path class="cls-1" d="M121.27,508.23q-6.24-38.75-14.81-77.05T87,355.17q-6.11-21.12-12.92-42l-4.57,1.93L109.06,386,148.63,457l22.16,39.72c1.57,2.81,5.89.29,4.32-2.52l-39.57-70.93L96,352.29,73.81,312.57c-1.36-2.44-5.46-.81-4.57,1.92q12.17,37.31,22.06,75.3t17.43,76.51q4.23,21.56,7.71,43.26a2.53,2.53,0,0,0,3.08,1.75,2.57,2.57,0,0,0,1.75-3.08Z" transform="translate(-69.11 -236.22)"/><path class="cls-1" d="M112.14,469.22l29-40.76a2.52,2.52,0,0,0-.9-3.42,2.56,2.56,0,0,0-3.42.9l-29,40.76a2.53,2.53,0,0,0,.9,3.42,2.56,2.56,0,0,0,3.42-.9Z" transform="translate(-69.11 -236.22)"/><path class="cls-1" d="M156.41,325.68a190.56,190.56,0,0,0,11.27,123.53,138.39,138.39,0,0,0,9.41,18c3.26,5.08,7.47,10.2,13.13,12.66,6.88,3,14.36.92,19.36-4.54,5.5-6,6.93-14.12,8.06-21.9a2.58,2.58,0,0,0-1.75-3.08,2.52,2.52,0,0,0-3.07,1.75c-.92,6.33-1.81,13.3-5.8,18.54-3.32,4.36-8.53,6.88-13.91,5-5.05-1.74-8.81-6.5-11.6-10.82a135,135,0,0,1-9-17A185.82,185.82,0,0,1,155.9,371a181.47,181.47,0,0,1,5.33-44c.78-3.12-4-4.45-4.82-1.33Z" transform="translate(-69.11 -236.22)"/><path class="cls-1" d="M171.73,288.79l22.47,70.4,22.48,70.4,12.6,39.49c1,3.05,5.8,1.75,4.82-1.33l-22.47-70.4L189.15,327l-12.6-39.49c-1-3-5.81-1.74-4.82,1.33Z" transform="translate(-69.11 -236.22)"/><path class="cls-1" d="M172.1,256.35q11.1,41.86,24,83.23t27.47,81.88q8.23,22.89,17,45.56a2.58,2.58,0,0,0,3.08,1.75,2.53,2.53,0,0,0,1.75-3.08q-15.64-40.38-29.53-81.42T190,301.88q-6.8-23.34-13-46.85c-.83-3.11-5.65-1.79-4.83,1.32Z" transform="translate(-69.11 -236.22)"/><path class="cls-1" d="M199.87,388.68l17-10.2a2.5,2.5,0,1,0-2.52-4.32l-17,10.2a2.5,2.5,0,0,0,2.52,4.32Z" transform="translate(-69.11 -236.22)"/><path class="cls-1" d="M200.42,291.78q8.29,34.13,18.48,67.75t22.16,66.4q6.78,18.57,14.15,36.93a2.57,2.57,0,0,0,3.07,1.75,2.53,2.53,0,0,0,1.75-3.08Q247,428.94,235.72,395.65t-20.54-66.92q-5.27-19.05-9.94-38.28c-.76-3.12-5.59-1.8-4.82,1.33Z" transform="translate(-69.11 -236.22)"/><path class="cls-1" d="M254,296.3l-4.25,47.11-2.15,23.81-1.08,11.9a98.64,98.64,0,0,0-.79,10.15c0,2.87.72,6,3,7.9,2.81,2.31,6.23,1.46,9.34,1.92,4.5.67,7.82,4,10.44,7.67,3.12,4.4,5.48,9.27,8.32,13.84a47.48,47.48,0,0,0,11.82,12.89,48.9,48.9,0,0,0,37.83,9.12,2.5,2.5,0,0,0-1.33-4.82,43.78,43.78,0,0,1-31.59-6.93,41,41,0,0,1-11.5-11.35c-2.87-4.31-5.12-9-7.93-13.35-2.66-4.11-5.92-8.31-10.44-10.48A17.71,17.71,0,0,0,256,394c-1.22,0-2.83.22-3.89-.56a3.82,3.82,0,0,1-1.19-2.46c-.52-2.87.13-6,.38-8.88l1-11.4,2.06-22.81L259,296.3a2.51,2.51,0,0,0-2.5-2.5,2.55,2.55,0,0,0-2.5,2.5Z" transform="translate(-69.11 -236.22)"/><path class="cls-1" d="M254.27,395.48,290,370a2.56,2.56,0,0,0,.9-3.42,2.52,2.52,0,0,0-3.42-.89l-35.7,25.5a2.57,2.57,0,0,0-.9,3.42,2.54,2.54,0,0,0,3.42.9Z" transform="translate(-69.11 -236.22)"/><path class="cls-1" d="M202,264.91c3.22,0,3.22-5,0-5s-3.22,5,0,5Z" transform="translate(-69.11 -236.22)"/><path class="cls-1" d="M269.08,310.66c10.5,19.06,21,38.11,32.37,56.68a486.75,486.75,0,0,0,37,53.09,316.36,316.36,0,0,0,24.61,27,2.52,2.52,0,0,0,4.18-2.43,474.37,474.37,0,0,0-17.42-53.54,479.83,479.83,0,0,0-23.7-51.28q-7.49-14-15.9-27.39c-1.7-2.72-6-.22-4.32,2.52a474.58,474.58,0,0,1,26.89,49.21A468.17,468.17,0,0,1,353.42,416q5,15,9,30.36l4.17-2.43a346.34,346.34,0,0,1-41.24-49.11c-12.42-17.67-23.58-36.18-34.27-54.93-6-10.52-11.85-21.13-17.69-31.75-1.55-2.82-5.87-.3-4.32,2.53Z" transform="translate(-69.11 -236.22)"/><path class="cls-1" d="M359.44,291.34l-.29,73.32-.08,18.45c0,5.2-.86,11.56,3,15.71,3.31,3.58,8.78,4,13.25,5.1a134,134,0,0,1,47.1,21.72,2.52,2.52,0,0,0,3.42-.9,2.55,2.55,0,0,0-.9-3.42,139.12,139.12,0,0,0-27.7-15.44,135.29,135.29,0,0,0-14.87-5.26q-3.8-1.1-7.65-2a39.33,39.33,0,0,1-6.67-1.71,5.72,5.72,0,0,1-3.59-3.91c-.63-2.37-.4-5-.39-7.41l.08-18,.14-35.91.16-40.4c0-3.22-5-3.23-5,0Z" transform="translate(-69.11 -236.22)"/><path class="cls-1" d="M364.77,388.68l40.81-20.41c2.87-1.43.34-5.75-2.53-4.31l-40.8,20.4c-2.88,1.44-.35,5.75,2.52,4.32Z" transform="translate(-69.11 -236.22)"/><path class="cls-1" d="M430.22,295.22,474,328.38l12.33,9.34a2.51,2.51,0,0,0,3.42-.9,2.56,2.56,0,0,0-.9-3.42l-43.76-33.15-12.34-9.35a2.52,2.52,0,0,0-3.42.9,2.56,2.56,0,0,0,.9,3.42Z" transform="translate(-69.11 -236.22)"/><path class="cls-1" d="M454.35,239.34l16.94,75,16.95,75,9.58,42.35c.71,3.13,5.53,1.81,4.82-1.33l-16.95-75-16.95-75L459.17,238c-.71-3.14-5.53-1.81-4.82,1.33Z" transform="translate(-69.11 -236.22)"/><path class="cls-1" d="M490.53,331a97.12,97.12,0,0,0,8.53,26.18,92.66,92.66,0,0,0,7,11.91c2.33,3.37,5.18,6.77,8.92,8.6a11.41,11.41,0,0,0,11.84-.65,15.46,15.46,0,0,0,6.07-10.87c.59-4.72-.45-9.52-1.45-14.12Q530,345.6,528,339.28a155.12,155.12,0,0,0-24.37-47.55c-4.49-5.93-12-15.76-20.68-11.52-3.68,1.8-5.14,5.78-5.55,9.61-.45,4.19.15,8.58.62,12.75a153.78,153.78,0,0,0,16.17,53.51q1.59,3.07,3.32,6.07c1.6,2.79,5.93.27,4.32-2.53a148.64,148.64,0,0,1-17.49-48q-1.1-6.15-1.66-12.38c-.31-3.5-.87-7.34,0-10.79.66-2.72,2.65-4.81,5.63-4,3.39.87,6.12,3.71,8.26,6.33a150.41,150.41,0,0,1,30.64,65.79c.77,4,1.48,8.44-.12,12.31-1.1,2.68-3.47,5.2-6.53,5.24-3.37.05-6.16-2.54-8.24-4.92a58.49,58.49,0,0,1-6.62-10,92,92,0,0,1-9.09-23.22c-.5-2.07-.92-4.14-1.28-6.23a2.53,2.53,0,0,0-3.08-1.75,2.56,2.56,0,0,0-1.74,3.08Z" transform="translate(-69.11 -236.22)"/><path class="cls-1" d="M517.53,285.18a104,104,0,0,0,32.36,58.24c4.17,3.76,8.72,7.82,14,9.9a11.6,11.6,0,0,0,8.49.39,9.25,9.25,0,0,0,5.36-5.87c1.74-5.37-.56-11.38-2.13-16.49q-2.94-9.57-6.44-19a343.68,343.68,0,0,0-18.41-40.93c-1.51-2.84-5.83-.32-4.32,2.53a332.39,332.39,0,0,1,15.74,34.07q3.41,8.67,6.34,17.52c1,2.95,1.91,5.91,2.81,8.88a46.35,46.35,0,0,1,1.86,7.31c.24,2,.32,4.36-.91,6s-3.2,1.83-5,1.39c-4.88-1.16-9.11-5.12-12.79-8.35a99.41,99.41,0,0,1-32.1-56.95,2.5,2.5,0,1,0-4.82,1.33Z" transform="translate(-69.11 -236.22)"/><path class="cls-1" d="M570.33,261.34q11.38,36.54,25.83,72,4.11,10.11,8.47,20.12a2.54,2.54,0,0,0,2.83,1.15,2.58,2.58,0,0,0,1.83-2.42l.2-4.78c.13-3.22-4.87-3.21-5,0l-.2,4.78L609,351q-15.09-34.68-27.19-70.57-3.43-10.15-6.61-20.38c-1-3.06-5.78-1.75-4.82,1.33Z" transform="translate(-69.11 -236.22)"/><path class="cls-1" d="M580.37,242.43l-14.84,2.21c-2.78.41-2.13,5.07.66,4.91a301.31,301.31,0,0,1,53.8,1.67c5,.6,10,1.36,15,2.23l-1.5-3.67-33.1,46.63L591,309.65a2.52,2.52,0,0,0,2.16,3.76,420.56,420.56,0,0,1,69.71,2.06q9.76,1.11,19.47,2.7a2.59,2.59,0,0,0,3.08-1.75,2.51,2.51,0,0,0-1.75-3.07,422.84,422.84,0,0,0-70.43-5.54q-10.05.06-20.08.6l2.16,3.76,33.1-46.63,9.4-13.24a2.51,2.51,0,0,0-1.49-3.67A305.91,305.91,0,0,0,581.79,244c-5.2,0-10.4.21-15.6.51l.67,4.91,14.84-2.2a2.53,2.53,0,0,0,1.75-3.08,2.58,2.58,0,0,0-3.08-1.75Z" transform="translate(-69.11 -236.22)"/><path class="cls-1" d="M109,588l31.9,76.92,9,21.65a2.59,2.59,0,0,0,3.08,1.74,2.51,2.51,0,0,0,1.74-3.07l-31.9-76.92-9-21.65a2.59,2.59,0,0,0-3.08-1.75A2.51,2.51,0,0,0,109,588Z" transform="translate(-69.11 -236.22)"/><path class="cls-1" d="M86.71,633.33q19.16-19,39.33-36.94t41.28-34.75q11.81-9.4,23.91-18.44a2.6,2.6,0,0,0,.9-3.43,2.52,2.52,0,0,0-3.42-.89Q166.93,555.16,146,572.57t-40.81,36Q94,619,83.17,629.79c-2.29,2.27,1.25,5.81,3.54,3.54Z" transform="translate(-69.11 -236.22)"/><path class="cls-1" d="M122.44,674.11,157,631.69l9.73-12a2.58,2.58,0,0,0,0-3.54,2.53,2.53,0,0,0-3.54,0l-34.51,42.42-9.72,12a2.56,2.56,0,0,0,0,3.53,2.51,2.51,0,0,0,3.53,0Z" transform="translate(-69.11 -236.22)"/><path class="cls-1" d="M175.8,592.89l17,57.8c.9,3.08,5.73,1.77,4.82-1.33l-17-57.8c-.91-3.08-5.73-1.77-4.82,1.33Z" transform="translate(-69.11 -236.22)"/><path class="cls-1" d="M222.87,636.86a129.16,129.16,0,0,1-16-37.14l-4.57,1.93A155.64,155.64,0,0,0,242,637.88a2.54,2.54,0,0,0,3.68-2.83,490.21,490.21,0,0,0-25.91-72q-4.42-9.83-9.3-19.45c-1.45-2.87-5.76-.34-4.31,2.52a482.78,482.78,0,0,1,28.56,69.57q3.3,10.27,6.13,20.67l3.68-2.82a148.22,148.22,0,0,1-37.84-34.44,2.54,2.54,0,0,0-3.12-1,2.51,2.51,0,0,0-1.45,2.95,133.45,133.45,0,0,0,16.45,38.33c1.71,2.72,6,.21,4.32-2.52Z" transform="translate(-69.11 -236.22)"/><path class="cls-1" d="M268.49,634.25l-27.09-77-7.6-21.59-4.57,1.92q10.34,22.45,21.54,44.48t23.29,43.59q6.79,12.14,13.88,24.12c1.63,2.77,5.95.26,4.31-2.52Q279.7,626,268,604.2t-22.53-44q-6.11-12.51-11.91-25.15c-1.18-2.56-5.51-.74-4.57,1.93l27.09,77,7.59,21.6a2.56,2.56,0,0,0,3.08,1.74,2.52,2.52,0,0,0,1.75-3.07Z" transform="translate(-69.11 -236.22)"/><path class="cls-1" d="M249.34,631.09l15.34-17a2.55,2.55,0,0,0,0-3.54,2.52,2.52,0,0,0-3.53,0l-15.35,17a2.56,2.56,0,0,0,0,3.54,2.54,2.54,0,0,0,3.54,0Z" transform="translate(-69.11 -236.22)"/><path class="cls-1" d="M262.58,531.66q6.9,23,16,45.34t20.25,43.8q6.27,12,13.18,23.73c1.64,2.76,6,.25,4.32-2.53Q304.18,621.51,294,599.93t-18.21-44q-4.55-12.67-8.41-25.57c-.93-3.07-5.75-1.76-4.82,1.33Z" transform="translate(-69.11 -236.22)"/><path class="cls-1" d="M145.24,521.53l10.2,3.4a2.52,2.52,0,0,0,3.08-1.74,2.57,2.57,0,0,0-1.75-3.08l-10.2-3.4a2.51,2.51,0,0,0-3.07,1.75,2.54,2.54,0,0,0,1.74,3.07Z" transform="translate(-69.11 -236.22)"/><path class="cls-1" d="M339.27,505l-10.16,29c-1.65,4.71-3.38,9.4-4.94,14.14-1.47,4.47-1.69,9.07,1,13.11,2.38,3.53,5.91,6,9.29,8.53q5.44,4.05,11.19,7.68a190.33,190.33,0,0,0,23.68,12.8,196,196,0,0,0,28.79,10.45c2,.55,3.34-1.26,3.07-3.08a135.13,135.13,0,0,0-8-30,100.79,100.79,0,0,0-6.32-13.72c-2.19-3.76-5.44-7.39-10-8-4.22-.53-9.42,1.83-10.05,6.46l4.18-1.1-5.52-4.94-.5,3.93a129.25,129.25,0,0,1,38.22-11.72,2.5,2.5,0,0,0,1.74-3.07,2.56,2.56,0,0,0-3.07-1.75,133.37,133.37,0,0,0-39.42,12.22,2.52,2.52,0,0,0-.5,3.93l5.51,4.94c1.23,1.1,3.9.9,4.18-1.11a2.63,2.63,0,0,1,1.78-2.41,5.28,5.28,0,0,1,3.35-.36c3.33.82,5.32,4.48,6.76,7.29a126.16,126.16,0,0,1,9.68,25.48,134.71,134.71,0,0,1,3.12,15.25l3.08-3.07a189.5,189.5,0,0,1-47.36-20.33q-5.53-3.33-10.84-7A76.22,76.22,0,0,1,331.5,561a12.29,12.29,0,0,1-3-4.11,8.94,8.94,0,0,1,0-5.67c1.21-4.59,3.08-9.07,4.64-13.55l11-31.33a2.52,2.52,0,0,0-1.74-3.07,2.55,2.55,0,0,0-3.08,1.74Z" transform="translate(-69.11 -236.22)"/><path class="cls-1" d="M412.41,569.69c3.51,7.71,7.25,15.85,13.81,21.48,6.08,5.22,15,8.48,22.82,5.53,7.67-2.87,12.51-10.45,13.65-18.35,1.37-9.47-1.4-19.1-4.6-27.94a121.42,121.42,0,0,0-11.92-24.23c-4.52-7-9.82-14.84-17.63-18.52-3.61-1.71-7.77-2.48-11.6-1a14.52,14.52,0,0,0-8,7.74,33.61,33.61,0,0,0-2.61,11.19A114.67,114.67,0,0,0,406,538.8a124,124,0,0,0,13.4,52.32q1.49,2.93,3.14,5.76c1.61,2.79,5.94.27,4.32-2.52a118,118,0,0,1-15.25-46.62,102.79,102.79,0,0,1-.07-24.1c.75-5.63,3.22-13,10.12-12.78,3.31.09,6.5,2,9,4a44.83,44.83,0,0,1,7.65,8.56A118.05,118.05,0,0,1,450.6,545a111.71,111.71,0,0,1,4.27,11.45,68.47,68.47,0,0,1,2.93,12.37c.87,7.3-.31,15.24-6,20.43-5.25,4.82-12.8,4.12-18.62.76-6.7-3.87-10.72-10.81-14-17.57-.85-1.76-1.66-3.53-2.47-5.31a2.52,2.52,0,0,0-3.42-.9,2.56,2.56,0,0,0-.9,3.42Z" transform="translate(-69.11 -236.22)"/><path class="cls-1" d="M476.27,571.85a326.57,326.57,0,0,0-12.76-58.8q-2.58-8.11-5.58-16.08l-4.57,1.93a633.56,633.56,0,0,0,38.48,67.88q6,9.21,12.32,18.2a2.56,2.56,0,0,0,3.42.9,2.52,2.52,0,0,0,.9-3.42A632.19,632.19,0,0,1,467.66,516q-5.16-9.71-10-19.58c-1.23-2.51-5.57-.74-4.57,1.93a323.27,323.27,0,0,1,15.69,57.15q1.45,8.16,2.47,16.4a2.58,2.58,0,0,0,2.5,2.5,2.51,2.51,0,0,0,2.5-2.5Z" transform="translate(-69.11 -236.22)"/><path class="cls-1" d="M458.21,562l28.89-17c2.77-1.63.26-6-2.52-4.32l-28.89,17c-2.77,1.64-.26,6,2.52,4.32Z" transform="translate(-69.11 -236.22)"/><path class="cls-1" d="M471,455.43,496.5,520.9l6.42,16.43a114.22,114.22,0,0,0,5.7,12.91c4,7.46,10.23,14.5,18.89,16.26,8.45,1.71,17.88-1.09,21.41-9.5a2.51,2.51,0,0,0-1.74-3.08,2.57,2.57,0,0,0-3.08,1.75,10.39,10.39,0,0,1-5.89,5.32,17.41,17.41,0,0,1-9.22.72c-7.66-1.5-12.78-7.83-16.32-14.51a108.25,108.25,0,0,1-5.18-11.84q-3-7.67-6-15.32l-12.14-31.12-13.6-34.82a2.57,2.57,0,0,0-3.07-1.75,2.53,2.53,0,0,0-1.75,3.08Z" transform="translate(-69.11 -236.22)"/><path class="cls-1" d="M572.44,552.24,558,499.09l-14.38-52.9-8.16-30.05-4.57,1.92,33.94,53.28,33.95,53.28,19.06,29.91c1.72,2.7,6,.2,4.31-2.53l-33.94-53.28-34-53.28-19.06-29.9c-1.49-2.35-5.33-.88-4.57,1.92l14.45,53.15,14.37,52.9,8.17,30.06c.84,3.1,5.67,1.78,4.82-1.33Z" transform="translate(-69.11 -236.22)"/><path class="cls-1" d="M574.78,540.78a59.61,59.61,0,0,1,26.3-26.3c2.87-1.45.35-5.77-2.52-4.32a64.14,64.14,0,0,0-28.1,28.1c-1.45,2.86,2.87,5.4,4.32,2.52Z" transform="translate(-69.11 -236.22)"/><path class="cls-1" d="M622.62,536.44,594.14,479.3l-4.32,2.52A307.28,307.28,0,0,0,621.54,527c1.47,1.74,3,3.47,4.47,5.17a35.4,35.4,0,0,0,4.35,4.48c3.21,2.55,7.94,4.24,11.21.74,2.81-3,1.75-7.44.26-10.81-2-4.41-4.49-8.61-6.74-12.87l-15.88-30c-1.5-2.84-5.82-.32-4.31,2.52Q621.42,498.62,628,511l6.42,12.13c1,1.89,2.1,3.76,3,5.71a9,9,0,0,1,1,4.05,1.54,1.54,0,0,1-1.48,1.6c-1.34,0-2.74-1.08-3.71-2-3-2.69-5.61-6.09-8.22-9.18q-8.1-9.6-15.35-19.85-8.3-11.73-15.44-24.18c-1.62-2.82-5.75-.34-4.32,2.52L618.3,539c1.44,2.88,5.75.35,4.32-2.52Z" transform="translate(-69.11 -236.22)"/><path class="cls-1" d="M638.15,463.69l8.52,44.2a2.51,2.51,0,0,0,3.07,1.75,2.56,2.56,0,0,0,1.75-3.08L643,462.37a2.5,2.5,0,0,0-4.83,1.32Z" transform="translate(-69.11 -236.22)"/><path class="cls-1" d="M637.56,455.32l43.94,16.74-1.11-4.18a112.87,112.87,0,0,0-34.74,49.28,109.78,109.78,0,0,0-4.49,16.51,2.57,2.57,0,0,0,1.75,3.08A2.53,2.53,0,0,0,646,535a107.24,107.24,0,0,1,37.94-63.58c1.6-1.31.46-3.59-1.1-4.18L638.89,450.5a2.53,2.53,0,0,0-3.08,1.74,2.56,2.56,0,0,0,1.75,3.08Z" transform="translate(-69.11 -236.22)"/><path class="cls-1" d="M157.51,770.22,180,820.49l6.41,14.33a2.53,2.53,0,0,0,3.42.9,2.58,2.58,0,0,0,.9-3.43L168.24,782l-6.41-14.33a2.52,2.52,0,0,0-3.42-.89,2.56,2.56,0,0,0-.9,3.42Z" transform="translate(-69.11 -236.22)"/><path class="cls-1" d="M146.94,752.74a100.29,100.29,0,0,0,44.88,7.2l-2.42-3.17-23,60-6.53,17a2.52,2.52,0,0,0,1.74,3.08,2.57,2.57,0,0,0,3.08-1.75l23-60,6.54-17a2.51,2.51,0,0,0-2.41-3.16,96.85,96.85,0,0,1-43.55-7,2.51,2.51,0,0,0-3.07,1.74,2.56,2.56,0,0,0,1.74,3.08Z" transform="translate(-69.11 -236.22)"/><path class="cls-1" d="M191.06,786.7a66.94,66.94,0,0,0,21.32,38.79c3.84,3.41,8.34,6.63,13.63,7.07a11.43,11.43,0,0,0,11.06-6.23c1.91-3.75,2.24-8.18,1.86-12.32-.93-9.89-4.33-19.8-8.54-28.75a99.75,99.75,0,0,0-19.87-28.14c-2.29-2.27-5.83,1.26-3.54,3.53a95.42,95.42,0,0,1,26.17,48.64c.72,3.57,1.31,7.37.67,11-.56,3.21-1.93,6.25-5.26,7.13-4.1,1.08-8.48-1.91-11.44-4.41a60.09,60.09,0,0,1-9.31-9.75,62.86,62.86,0,0,1-11.93-27.87,2.52,2.52,0,0,0-3.08-1.75,2.56,2.56,0,0,0-1.74,3.08Z" transform="translate(-69.11 -236.22)"/><path class="cls-1" d="M225,770.47l30.58,56.11c1.54,2.83,5.86.31,4.32-2.52L229.33,768c-1.54-2.83-5.86-.31-4.31,2.52Z" transform="translate(-69.11 -236.22)"/><path class="cls-1" d="M230.22,763A47.21,47.21,0,0,0,264,759.51l-3.42-3.42-22.16,37.5c-.91,1.54,0,3.06,1.49,3.67a463.1,463.1,0,0,1,49.21,24.27q6.76,3.84,13.38,7.9c2.75,1.68,5.27-2.64,2.52-4.32a470.1,470.1,0,0,0-49.18-26.26q-7.24-3.33-14.6-6.41l1.5,3.67,22.15-37.5c1.33-2.24-1.26-4.52-3.42-3.42a41.87,41.87,0,0,1-29.9,3c-3.11-.85-4.43,4-1.33,4.82Z" transform="translate(-69.11 -236.22)"/><path class="cls-1" d="M267.61,756.82l26.52,47.75L301.61,818c1.56,2.81,5.88.29,4.32-2.53L279.4,767.76l-7.47-13.46c-1.57-2.81-5.89-.29-4.32,2.52Z" transform="translate(-69.11 -236.22)"/><path class="cls-1" d="M262,732.09A113.58,113.58,0,0,0,316,741.3l-2.16-3.76a219.65,219.65,0,0,0-21.71,44.68q-2.33,6.6-4.21,13.32c-.87,3.11,3.95,4.43,4.82,1.33a213.35,213.35,0,0,1,18.3-44.79q3.36-6.12,7.12-12A2.52,2.52,0,0,0,316,736.3a108.32,108.32,0,0,1-51.54-8.53,2.57,2.57,0,0,0-3.42.9,2.53,2.53,0,0,0,.9,3.42Z" transform="translate(-69.11 -236.22)"/><path class="cls-1" d="M331.13,780.05c4.61,4.74,9.7,9.86,16.32,11.57,5.64,1.46,12.47.36,16.26-4.41,4.4-5.53,3-12.78.21-18.7-3-6.41-7.6-12.29-12.11-17.7q-3.44-4.11-7.23-7.91a51.3,51.3,0,0,0-8.42-7.15c-5.57-3.56-12.69-4.57-18,.08-4.2,3.71-5.62,9.84-5.83,15.22a55.31,55.31,0,0,0,2.83,18.39,67.21,67.21,0,0,0,24.7,34.34,2.52,2.52,0,0,0,3.42-.9,2.56,2.56,0,0,0-.9-3.42A61.54,61.54,0,0,1,322,773.58a59.73,59.73,0,0,1-4.32-16.16c-.55-4.68-.65-9.7,1.27-14.11,1.82-4.21,5.64-6.69,10.38-5.3,5.84,1.7,10.49,7,14.5,11.31a115.75,115.75,0,0,1,12,15.27c2.9,4.4,6.32,9.88,5.65,15.42s-6.23,7.81-11.23,7.1c-6.43-.91-11.33-6.18-15.62-10.6-2.25-2.31-5.79,1.23-3.54,3.54Z" transform="translate(-69.11 -236.22)"/><path class="cls-1" d="M367.17,714.5c-2.61,8.09-4.95,16.68-4.51,25.26a29.08,29.08,0,0,0,3,11.93,24.5,24.5,0,0,0,8.15,8.89c6.16,4.18,13.59,5.9,19.89,9.82a17,17,0,0,1,6.88,7.4,15,15,0,0,1,.26,10.66c-2.81,8.25-13.15,11.46-20.48,7.13-2.77-1.64-5.29,2.68-2.52,4.32,7.54,4.46,18.18,3.13,24-3.54s6.5-17.08,1.17-24.17c-4.87-6.47-12.63-9-19.73-12.18a33.66,33.66,0,0,1-9.53-5.79,19.33,19.33,0,0,1-5.55-10c-2.12-9.38.86-19.48,3.73-28.38,1-3.07-3.84-4.38-4.82-1.33Z" transform="translate(-69.11 -236.22)"/><path class="cls-1" d="M413.46,703.45c1.25,7.22-1.71,14.45-4,21.15-2.14,6.28-3.86,12.93-2.91,19.61s5.21,11.81,11,15.27c3,1.79,6.15,3.23,9.26,4.76l10.77,5.28,24.22,11.88a2.57,2.57,0,0,0,3.42-.9,2.52,2.52,0,0,0-.9-3.42l-21.08-10.34c-6.79-3.33-13.66-6.52-20.36-10a29.21,29.21,0,0,1-7.34-5,14.56,14.56,0,0,1-3.92-7.53c-1.2-6,.64-12.23,2.54-17.84,2.67-7.88,5.61-15.81,4.15-24.25a2.51,2.51,0,0,0-3.07-1.74,2.55,2.55,0,0,0-1.75,3.07Z" transform="translate(-69.11 -236.22)"/><path class="cls-1" d="M408.38,747.64l32.3-10.2c3.06-1,1.75-5.8-1.33-4.82l-32.3,10.2c-3.06,1-1.75,5.79,1.33,4.82Z" transform="translate(-69.11 -236.22)"/><path class="cls-1" d="M99.31,972a287.16,287.16,0,0,0,44.79,81.58q8.06,10.32,17,19.85c2.2,2.35,5.74-1.19,3.53-3.54a282.26,282.26,0,0,1-28.47-35.64,286.9,286.9,0,0,1-22.38-39.76q-5.39-11.67-9.68-23.82a2.56,2.56,0,0,0-3.07-1.74A2.52,2.52,0,0,0,99.31,972Z" transform="translate(-69.11 -236.22)"/><path class="cls-1" d="M96.91,962.68,132.32,973l17.47,5.1c2.77.81,5.57,1.57,8.32,2.44,1.79.57,3.86,1.3,5,2.85,1.35,1.77,1.18,4.28,1.17,6.37,0,3.08,0,6.16,0,9.24l-.06,18.48-.11,36.47-.14,41.46c0,3.22,5,3.22,5,0l.25-75.43.06-19,0-9.49c0-2.67.18-5.49-.64-8.07-1.67-5.26-6.77-7-11.58-8.42l-18.18-5.31L98.24,957.86c-3.09-.91-4.41,3.92-1.33,4.82Z" transform="translate(-69.11 -236.22)"/><path class="cls-1" d="M182.59,943.49q-2.28,16.23-3.88,32.54-.78,8.12-1.4,16.24c-.37,5-1,10.13-.86,15.17.11,4.74,1.53,9.26,5.32,12.35s8.3,4.83,12.56,6.91l14.71,7.19c4.59,2.24,9.14,4.61,13.82,6.67,8.6,3.8,19.73,7.16,28,.89a2.58,2.58,0,0,0,.9-3.42,2.51,2.51,0,0,0-3.42-.89c-6.47,4.87-14.93,2.45-21.75-.36-4.31-1.77-8.45-4-12.63-6L200.19,1024c-4.26-2.09-8.71-4-12.81-6.39a12.65,12.65,0,0,1-4.18-3.54,10.9,10.9,0,0,1-1.69-5.41c-.34-4.77.31-9.69.66-14.44q.56-7.63,1.26-15.26,1.6-17.13,4-34.16a2.58,2.58,0,0,0-1.74-3.08,2.52,2.52,0,0,0-3.08,1.75Z" transform="translate(-69.11 -236.22)"/><path class="cls-1" d="M176.06,1018.41l29.17-25.2a2.5,2.5,0,1,0-3.54-3.53l-29.16,25.2a2.5,2.5,0,0,0,3.53,3.53Z" transform="translate(-69.11 -236.22)"/><path class="cls-1" d="M210.46,936.4c-3.49,7.41-7.36,16.9-4.26,25.09a15.81,15.81,0,0,0,8.25,8.93c3.75,1.69,7.86,2.09,11.94,2.19,7.77.18,16.05-.71,22.49,4.54,5.89,4.8,9.28,12.79,7.33,20.31-2.13,8.19-9.81,14.78-18.32,15.24-3.2.17-3.22,5.17,0,5a25.87,25.87,0,0,0,20.8-13.16,24.1,24.1,0,0,0-.68-24.43,26.22,26.22,0,0,0-9-8.91,27.55,27.55,0,0,0-12.43-3.41c-4.23-.28-8.48,0-12.71-.29-3.42-.22-7.19-.86-9.86-3.19-7.43-6.47-2.7-18.07.75-25.39a2.57,2.57,0,0,0-.9-3.42,2.53,2.53,0,0,0-3.42.9Z" transform="translate(-69.11 -236.22)"/><path class="cls-1" d="M239.1,913l44.82,63.84,12.64,18a2.56,2.56,0,0,0,3.42.9,2.52,2.52,0,0,0,.9-3.42l-44.82-63.84-12.64-18a2.57,2.57,0,0,0-3.42-.89,2.52,2.52,0,0,0-.9,3.42Z" transform="translate(-69.11 -236.22)"/><path class="cls-1" d="M259.35,919.89a346,346,0,0,0,38.85,50.59q6.1,6.57,12.54,12.82c2.31,2.25,5.85-1.29,3.54-3.53a338.33,338.33,0,0,1-40.66-47.48q-5.17-7.32-9.95-14.92c-1.71-2.71-6-.21-4.32,2.52Z" transform="translate(-69.11 -236.22)"/><path class="cls-1" d="M263.3,916.36l49.87,3.33-1.77-4.27a53.8,53.8,0,0,0-12.22,21.05c-1.95,6.43-4.13,17,3.56,20.67,3.63,1.73,7.67,1.05,11.48.38A45.32,45.32,0,0,1,344,962.25,45.25,45.25,0,0,1,361,977.78c1.72,2.71,6.05.21,4.32-2.52a51.53,51.53,0,0,0-33.68-22.57,50.11,50.11,0,0,0-10.44-.9,96.27,96.27,0,0,0-10.59,1.29c-2.75.36-6.26.47-7.63-2.47s-.57-6.33.07-9.19A48.38,48.38,0,0,1,314.93,919a2.53,2.53,0,0,0-1.76-4.27l-49.87-3.33a2.5,2.5,0,0,0,0,5Z" transform="translate(-69.11 -236.22)"/><path class="cls-1" d="M230.71,943.92l41.07-38.42,11.64-10.88c2.35-2.2-1.19-5.73-3.54-3.54L238.81,929.5l-11.63,10.88c-2.36,2.21,1.18,5.74,3.53,3.54Z" transform="translate(-69.11 -236.22)"/><path class="cls-1" d="M324.09,913a117.78,117.78,0,0,0,19.69,26.62,119.39,119.39,0,0,0,12.56,11c4.35,3.33,9.13,7,14.6,8.12s11.1-.9,13.77-6,2-11-.16-16.24a153.25,153.25,0,0,0-8.28-16.38q-4.41-8-9.24-15.67a333.21,333.21,0,0,0-24-33.34,2.54,2.54,0,0,0-3.54,0,2.56,2.56,0,0,0,0,3.54,321.35,321.35,0,0,1,37.17,56.82c2.36,4.59,5.29,9.69,4.79,15-.38,4.1-3.1,7.74-7.49,7.64-4.86-.11-9.34-3.58-13.1-6.32a110,110,0,0,1-11.78-10,113,113,0,0,1-20.66-27.34c-1.53-2.84-5.85-.31-4.32,2.52Z" transform="translate(-69.11 -236.22)"/><path class="cls-1" d="M378.09,886c1.77,3.77,1.05,8.2.3,12.13s-1.67,7.58-1.49,11.47c.34,7,4,14.62,12,14.82,4.4.11,8.27-2.27,12.55-2.85,4-.54,8.07.61,11.69,2.23,7.26,3.24,13.66,8.25,21.49,10.16,7.61,1.85,16.18,1.09,21.06-5.71a2.51,2.51,0,0,0-.89-3.42,2.55,2.55,0,0,0-3.42.9c-3.39,4.71-10,4.7-15.25,3.45-7.19-1.72-13.09-6.26-19.7-9.35a32.12,32.12,0,0,0-11.92-3.35c-4.29-.22-8,1.35-12.11,2.43-3.13.84-6.06.68-8.07-1.77-1.57-1.91-2.25-4.93-2.38-7.54-.19-4.07.94-7.85,1.63-11.88.82-4.87,1-9.67-1.13-14.24a2.5,2.5,0,1,0-4.31,2.52Z" transform="translate(-69.11 -236.22)"/><path class="cls-1" d="M405.72,843.29l37.06,61,10.46,17.22c1.67,2.75,6,.24,4.32-2.52L420.5,858,410,840.77c-1.67-2.75-6-.24-4.32,2.52Z" transform="translate(-69.11 -236.22)"/><path class="cls-1" d="M451.2,875.1a59.41,59.41,0,0,0,25,35.49c2.69,1.77,5.2-2.55,2.52-4.32A54.28,54.28,0,0,1,456,873.77c-.74-3.13-5.57-1.81-4.82,1.33Z" transform="translate(-69.11 -236.22)"/><path class="cls-1" d="M478.84,861.15c3.91,4.35,4.85,10.5,6.53,15.91S490,887.9,494.92,891a12.21,12.21,0,0,0,15.39-1.87c3.87-4,5.44-9.67,5.76-15.09.69-11.44-4.39-23.79-14.49-29.78-9.5-5.64-23.16-5.22-31.07,3s-8.28,23.29.83,30.77a2.56,2.56,0,0,0,3.53,0,2.5,2.5,0,0,0,0-3.53c-6.48-5.34-6.82-15.27-2.23-22,5.12-7.49,16-8.64,23.88-5.28,9.13,3.91,14.2,13.82,14.59,23.41.18,4.56-.48,9.31-3,13.21-2.15,3.33-6,5.23-9.8,3.3-4.89-2.51-7.13-8-8.58-13-1.71-5.89-3.16-11.94-7.37-16.62-2.15-2.4-5.68,1.15-3.53,3.54Z" transform="translate(-69.11 -236.22)"/><path class="cls-1" d="M537,853.64,524,821.89l-3.67,2.82,31.32,18.47c4.69,2.76,9.6,5.92,15.2,6.22a12.29,12.29,0,0,0,11.4-6.36c4.26-7.66,2.21-17.65-.18-25.57a74.11,74.11,0,0,0-12.85-24.41,71.07,71.07,0,0,0-23.65-19.4c-2.86-1.44-5.4,2.87-2.52,4.32a67.61,67.61,0,0,1,36.08,48.8,26.21,26.21,0,0,1-.07,10.8c-.84,3.25-2.72,6.11-6.24,6.74-4.55.81-9.21-2.26-12.93-4.45l-33-19.48c-1.72-1-4.53.72-3.67,2.83L532.13,855a2.58,2.58,0,0,0,3.07,1.75,2.52,2.52,0,0,0,1.75-3.08Z" transform="translate(-69.11 -236.22)"/><path class="cls-1" d="M395.89,871.11A250,250,0,0,1,430,843.83a255.49,255.49,0,0,1,38.69-21.16c7.51-3.3,15.2-6.2,23-8.74,3.05-1,1.74-5.82-1.33-4.82a256.4,256.4,0,0,0-78.88,42q-10,7.77-19.12,16.5c-2.33,2.23,1.21,5.76,3.54,3.54Z" transform="translate(-69.11 -236.22)"/><path class="cls-1" d="M448.52,859.93c3.21,0,3.22-5,0-5s-3.23,5,0,5Z" transform="translate(-69.11 -236.22)"/><path class="cls-1" d="M614.93,786.1c.8,7,1.64,14.15,4.47,20.73,2.51,5.85,6.89,11,12.78,13.7,5.58,2.54,12.05,2.56,17.27-.91,4.76-3.15,7.69-8.22,9.57-13.49a58.27,58.27,0,0,0,3.05-18.84c0-6.87-1.28-14-5.18-19.83-3.36-5-8.43-9.1-14.42-10.29s-12.1.68-16.93,4.49a30.08,30.08,0,0,0-10.46,17.71c-1.71,8.29-.85,16.76.1,25.08a2.57,2.57,0,0,0,2.5,2.5,2.52,2.52,0,0,0,2.5-2.5c-1.33-11.71-3-25.67,5-35.49,3-3.63,7.18-6.67,12-7.13,5-.49,9.7,1.84,13.13,5.4,8.18,8.49,7.76,22.17,5.24,32.9-1.95,8.32-7.46,19.19-17.8,17-5.89-1.23-10.49-5.67-13.14-10.91-3.14-6.19-3.92-13.34-4.69-20.15a2.57,2.57,0,0,0-2.5-2.5,2.52,2.52,0,0,0-2.5,2.5Z" transform="translate(-69.11 -236.22)"/><path class="cls-1" d="M657.61,719l43.85,78L714,819.2c1.57,2.81,5.9.29,4.31-2.52l-43.85-78-12.49-22.21c-1.58-2.8-5.9-.28-4.32,2.53Z" transform="translate(-69.11 -236.22)"/><path class="cls-1" d="M659.72,748.15l30.58-47.61c1.74-2.72-2.58-5.23-4.32-2.53l-30.57,47.62c-1.75,2.72,2.58,5.23,4.31,2.52Z" transform="translate(-69.11 -236.22)"/><path class="cls-1" d="M676.78,768.59l23.8-40.8c1.63-2.79-2.69-5.31-4.32-2.52l-23.8,40.8c-1.62,2.78,2.7,5.3,4.32,2.52Z" transform="translate(-69.11 -236.22)"/><path class="cls-1" d="M476.23,1074.44a674.77,674.77,0,0,1-22.87-83.33q-2.48-12-4.51-24.08l-3.67,2.82a598.5,598.5,0,0,1,49.54,41.36,600.34,600.34,0,0,1,44.81,46.41q11.88,13.7,22.92,28.11a2.58,2.58,0,0,0,3.42.89,2.51,2.51,0,0,0,.89-3.42,607.35,607.35,0,0,0-42.57-49.89,602,602,0,0,0-47.6-44.85q-14.08-11.9-28.89-22.92a2.46,2.46,0,0,0-2.78.19,2.58,2.58,0,0,0-.89,2.63,674,674,0,0,0,19.82,84.11q3.56,11.71,7.56,23.3a2.55,2.55,0,0,0,3.07,1.74,2.52,2.52,0,0,0,1.75-3.07Z" transform="translate(-69.11 -236.22)"/><path class="cls-1" d="M479.18,1056.4a118.83,118.83,0,0,1,39-27.11,113.81,113.81,0,0,1,12.63-4.54c3.08-.92,1.77-5.75-1.33-4.83a123.57,123.57,0,0,0-43.53,23.34,119.63,119.63,0,0,0-10.27,9.61c-2.22,2.33,1.31,5.87,3.53,3.53Z" transform="translate(-69.11 -236.22)"/><path class="cls-1" d="M533.17,940.23q16.5,29.49,34.61,58t37.81,56q11.07,15.45,22.62,30.55a2.58,2.58,0,0,0,3.42.9,2.53,2.53,0,0,0,.9-3.42Q612,1055.47,593,1027.52t-36.42-56.93q-9.79-16.29-19.07-32.88c-1.57-2.81-5.89-.29-4.32,2.52Z" transform="translate(-69.11 -236.22)"/><path class="cls-1" d="M585.24,884.48q11.47,20.76,23.7,41.09t25.23,40.19q13,19.85,26.7,39.21T689,1043.16q14.47,18.9,29.64,37.27c1.27,1.54,2.55,3.07,3.83,4.61a2.52,2.52,0,0,0,3.53,0,2.55,2.55,0,0,0,0-3.54q-15.12-18.12-29.56-36.8t-28.2-37.94q-13.72-19.2-26.73-38.91T616.24,928Q604,907.81,592.47,887.19c-1-1.74-2-3.49-2.91-5.23-1.56-2.82-5.88-.3-4.32,2.52Z" transform="translate(-69.11 -236.22)"/></svg>
