<svg id="Layer_29" data-name="Layer 29" xmlns="http://www.w3.org/2000/svg" viewBox="0 0 696.93 1030.41"><defs><style>.cls-1{fill:#952c1f;}</style></defs><path class="cls-1" d="M112.74,103.3l13.11,69.77,3.7,19.65,4.57-1.93A204,204,0,0,0,101.27,142q-5.62-6.19-11.75-11.91c-2.35-2.19-5.9,1.33-3.54,3.54a199.21,199.21,0,0,1,36.08,45.07q4.17,7.13,7.74,14.59a2.48,2.48,0,0,0,3.12,1,2.53,2.53,0,0,0,1.45-3l-13.11-69.77L117.57,102a2.52,2.52,0,0,0-3.08-1.74,2.55,2.55,0,0,0-1.75,3.07Z" transform="translate(-53.3 -69.25)"/><path class="cls-1" d="M133.34,119.62a154.86,154.86,0,0,0,12.39,57.69c2.36,5.57,4.78,11.38,8.76,16,3.34,3.88,8.68,7.56,14,5.71,5.6-1.94,7.46-7.69,8.41-13a172.39,172.39,0,0,0,2.37-39.94,173,173,0,0,0-8.44-44.28c-1-3-5.84-1.74-4.83,1.33a168.5,168.5,0,0,1,7.21,74.2c-.38,3-.82,5.94-1.42,8.86a14.72,14.72,0,0,1-2.37,6.3c-2.9,3.69-7.22,1.51-10-1.19-3.94-3.84-6.14-9.1-8.33-14A147.39,147.39,0,0,1,144.76,160a151.29,151.29,0,0,1-6.42-40.41c-.06-3.22-5.07-3.23-5,0Z" transform="translate(-53.3 -69.25)"/><path class="cls-1" d="M190.83,110.39a299.82,299.82,0,0,0-4.91,72.2q.56,10.18,1.8,20.31a2.58,2.58,0,0,0,2.5,2.5,2.51,2.51,0,0,0,2.5-2.5,297.61,297.61,0,0,1-.17-71.21c.79-6.69,1.84-13.35,3.1-20a2.56,2.56,0,0,0-1.74-3.07,2.53,2.53,0,0,0-3.08,1.74Z" transform="translate(-53.3 -69.25)"/><path class="cls-1" d="M197.16,102.46c6.14,7.23,16.07,8.34,24.7,10.57,6.74,1.74,16.27,6.3,15.75,14.49-.16,2.51-1.36,4.87-2.52,7-1.41,2.67-2.88,5.31-4.32,8l-8.7,16-17.39,32-19.54,36c-1.54,2.83,2.78,5.36,4.31,2.52q17.88-32.88,35.75-65.78l8.93-16.44,4.41-8.12a37.26,37.26,0,0,0,3.55-7.92,14.86,14.86,0,0,0-2.87-13.21c-2.83-3.59-6.9-6-11.08-7.72-9-3.68-20.7-3-27.44-10.93a2.53,2.53,0,0,0-3.54,0,2.56,2.56,0,0,0,0,3.54Z" transform="translate(-53.3 -69.25)"/><path class="cls-1" d="M274.25,85.84l-28.69,56.3-8.14,16c-.68,1.34-.17,3.34,1.5,3.67a85.46,85.46,0,0,1,40.42,20.28,87.64,87.64,0,0,1,9,9.54,2.51,2.51,0,0,0,4.18-1.1c1.69-9.64,3.5-19.27,5.05-28.94.68-4.25.81-8.74-2.28-12.13-2.23-2.46-5.68-3.33-8.9-3.2A30.63,30.63,0,0,0,275,149.41a2.51,2.51,0,0,0-.9,3.42,2.56,2.56,0,0,0,3.42.89,27,27,0,0,1,7.81-2.41c2.37-.28,4.77-.11,6.3,1.43,2.22,2.25,1.43,6.11.93,9l-2.22,12.74-2.57,14.69,4.18-1.1a90.2,90.2,0,0,0-38.64-27.43,86.68,86.68,0,0,0-13-3.68l1.49,3.67,28.7-56.29,8.13-16c1.46-2.86-2.85-5.4-4.32-2.53Z" transform="translate(-53.3 -69.25)"/><path class="cls-1" d="M315.88,109.31,289.11,130c-1.09.85-.82,2.65,0,3.53a282.28,282.28,0,0,0,43,37.61q6.61,4.69,13.47,9c2.74,1.72,5.25-2.61,2.53-4.32a275.53,275.53,0,0,1-44.24-34.44q-5.76-5.52-11.21-11.37v3.53l26.76-20.69a2.52,2.52,0,0,0,0-3.54,2.56,2.56,0,0,0-3.53,0Z" transform="translate(-53.3 -69.25)"/><path class="cls-1" d="M296.18,137.32l34-5.1a2.52,2.52,0,0,0,1.74-3.08,2.55,2.55,0,0,0-3.07-1.74l-34,5.1a2.51,2.51,0,0,0-1.75,3.07,2.57,2.57,0,0,0,3.08,1.75Z" transform="translate(-53.3 -69.25)"/><path class="cls-1" d="M355.18,175.73l.73-49.94.21-14.16-4.91.67,20.67,60.06c.76,2.21,4.21,2.54,4.82,0A250.67,250.67,0,0,0,383.64,112q-.08-8.68-.75-17.34a2.56,2.56,0,0,0-2.5-2.5,2.53,2.53,0,0,0-2.5,2.5l2.8,61.91.78,17.47c.15,3.2,5.15,3.22,5,0l-2.79-61.91-.79-17.47h-5a245.52,245.52,0,0,1-2.59,59.63q-1.41,8.44-3.42,16.77h4.82L356,111c-.9-2.61-4.87-2.25-4.91.66l-.73,49.94-.21,14.16c-.05,3.22,4.95,3.22,5,0Z" transform="translate(-53.3 -69.25)"/><path class="cls-1" d="M408.58,98.51c-2.42,5.75-8.08,9.48-12.38,13.73-4.84,4.78-9.08,11.38-7.71,18.48,1.31,6.8,7.71,11.06,12.88,14.9q9.09,6.76,18.7,12.81Q430.86,165.2,442.2,171c2.86,1.46,5.39-2.85,2.52-4.32A288.92,288.92,0,0,1,407.63,144c-2.72-2-5.46-3.92-8.06-6-2.23-1.82-4.57-3.92-5.7-6.65-2.39-5.75,2-11.71,5.87-15.57,5.07-5,10.81-9.17,13.66-15.93a2.51,2.51,0,0,0-1.74-3.08,2.58,2.58,0,0,0-3.08,1.75Z" transform="translate(-53.3 -69.25)"/><path class="cls-1" d="M391.38,139l27.2-6.8c3.12-.78,1.8-5.6-1.33-4.82l-27.2,6.8c-3.12.78-1.8,5.6,1.33,4.82Z" transform="translate(-53.3 -69.25)"/><path class="cls-1" d="M444.13,154.27a93.65,93.65,0,0,0,.76-34.08l-4.18,2.43q16.85,18.74,33.68,37.49c1.56,1.73,4.12.24,4.27-1.77a122.54,122.54,0,0,0-7.7-52.85,2.59,2.59,0,0,0-3.08-1.75,2.53,2.53,0,0,0-1.75,3.08,118.92,118.92,0,0,1,7.53,51.52l4.27-1.77-33.69-37.49a2.52,2.52,0,0,0-3-.39,2.62,2.62,0,0,0-1.14,2.82,86.72,86.72,0,0,1-.77,31.43,2.58,2.58,0,0,0,1.75,3.08,2.53,2.53,0,0,0,3.08-1.75Z" transform="translate(-53.3 -69.25)"/><path class="cls-1" d="M495.47,75.42a402.36,402.36,0,0,0,.88,64c.57,6.11,1.3,12.21,2.14,18.29.18,1.34,1.89,2.07,3.07,1.75a2.58,2.58,0,0,0,1.75-3.08,399.72,399.72,0,0,1-3.63-63q.19-9,.79-18a2.5,2.5,0,1,0-5,0Z" transform="translate(-53.3 -69.25)"/><path class="cls-1" d="M488.1,97.51a109.13,109.13,0,0,1,40.29-2.4,2.51,2.51,0,0,0,2.5-2.5,2.56,2.56,0,0,0-2.5-2.5,112.87,112.87,0,0,0-41.62,2.58c-3.12.79-1.79,5.61,1.33,4.82Z" transform="translate(-53.3 -69.25)"/><path class="cls-1" d="M561.62,109.41l6.8,62.9a2.57,2.57,0,0,0,2.5,2.5,2.52,2.52,0,0,0,2.5-2.5l-6.8-62.9a2.58,2.58,0,0,0-2.5-2.5,2.51,2.51,0,0,0-2.5,2.5Z" transform="translate(-53.3 -69.25)"/><path class="cls-1" d="M559.93,90.91l25.18,11,12.59,5.52c2.64,1.16,6.13,2.5,7.47,5.28,1.61,3.32-1.26,7.59-2.66,10.49l-6,12.37-12,24.73L571,188.23a2.57,2.57,0,0,0,.9,3.42,2.52,2.52,0,0,0,3.42-.89l25-51.49,6.32-13.05c1.88-3.88,4.43-8.09,3.91-12.58-.46-4-3.29-6.8-6.63-8.7-3.77-2.13-7.95-3.65-11.91-5.39l-29.53-13a2.58,2.58,0,0,0-3.42.9,2.52,2.52,0,0,0,.9,3.42Z" transform="translate(-53.3 -69.25)"/><path class="cls-1" d="M629.37,159.36a328.25,328.25,0,0,0,8.85-68.3q.24-9.69-.12-19.38l-4.91.67q12.66,44.6,29.45,87.89,4.79,12.31,9.89,24.5a2.6,2.6,0,0,0,3.08,1.75,2.53,2.53,0,0,0,1.75-3.08q-17.94-42.76-31.8-87.07Q641.62,83.73,638,71c-.75-2.66-5-2.22-4.91.66a321.47,321.47,0,0,1-4.62,67.37q-1.68,9.55-3.93,19c-.75,3.13,4.07,4.46,4.82,1.33Z" transform="translate(-53.3 -69.25)"/><path class="cls-1" d="M627.69,142.42l34-8.5c3.12-.78,1.79-5.6-1.33-4.82l-34,8.5c-3.12.78-1.8,5.6,1.33,4.82Z" transform="translate(-53.3 -69.25)"/><path class="cls-1" d="M677.42,110.73a92.88,92.88,0,0,0,27.8,36.07,2.58,2.58,0,0,0,3.53,0,2.52,2.52,0,0,0,0-3.54,89.67,89.67,0,0,1-27-35,2.52,2.52,0,0,0-3.42-.9,2.57,2.57,0,0,0-.9,3.42Z" transform="translate(-53.3 -69.25)"/><path class="cls-1" d="M716.59,76.5q-9.3,29.61-16.34,59.85T688.51,197q-2.68,17.33-4.63,34.76a2.52,2.52,0,0,0,2.5,2.5,2.56,2.56,0,0,0,2.5-2.5q3.42-30.51,9.14-60.7t13.71-60q4.49-16.72,9.68-33.25c1-3.08-3.86-4.4-4.82-1.33Z" transform="translate(-53.3 -69.25)"/><path class="cls-1" d="M76.59,261.28a179.46,179.46,0,0,0-2.16,58.21q1.06,8.38,2.89,16.66c.7,3.14,5.52,1.81,4.82-1.33A175.49,175.49,0,0,1,79,278.47c.56-5.32,1.39-10.61,2.45-15.86a2.58,2.58,0,0,0-1.75-3.08,2.53,2.53,0,0,0-3.07,1.75Z" transform="translate(-53.3 -69.25)"/><path class="cls-1" d="M111.84,247,89.25,271.47a2.54,2.54,0,0,0,1.11,4.18,234.84,234.84,0,0,1,41.3,21.15q5.59,3.6,11,7.5l.6-4.57A101.2,101.2,0,0,0,96,336.64a95.08,95.08,0,0,0-8.35,14.61,2.57,2.57,0,0,0,.9,3.42,2.53,2.53,0,0,0,3.42-.9,96,96,0,0,1,38-42.19,93,93,0,0,1,14.57-7,2.54,2.54,0,0,0,.6-4.57,238,238,0,0,0-40.83-23.82q-6.26-2.84-12.64-5.34l1.1,4.17,22.58-24.42c2.19-2.36-1.34-5.9-3.53-3.54Z" transform="translate(-53.3 -69.25)"/><path class="cls-1" d="M207.57,260.28a240.42,240.42,0,0,0-20,14.58,102.33,102.33,0,0,0-9,7.76c-2.69,2.76-4.56,6.17-3.89,10.11.64,3.72,3.37,6.68,5.65,9.51,2.42,3,4.87,6,7.46,8.85,5.08,5.61,10.83,10.84,17.6,14.32,7.59,3.91,16.27,5.73,24.68,3.75,3.13-.74,1.8-5.56-1.33-4.82-13.58,3.2-26.35-5.2-35.33-14.55-2.42-2.52-4.7-5.17-6.92-7.86s-4.48-5.06-6.08-7.95a5.64,5.64,0,0,1-.83-3.77,7.4,7.4,0,0,1,2-3.48,73.15,73.15,0,0,1,7.91-7,229.76,229.76,0,0,1,20.66-15.13c2.69-1.75.19-6.08-2.52-4.32Z" transform="translate(-53.3 -69.25)"/><path class="cls-1" d="M248.88,288.58c-3.79,12.85-7.9,30,4,40,4.35,3.7,10.06,6,15.81,4.91,6.25-1.14,10.37-6.62,11.8-12.51,1.67-6.85.81-14.25-.24-21.13A94.45,94.45,0,0,0,273.72,277c-2.34-5.47-6.25-11.5-12.34-13.16-6.58-1.8-12.3,2.53-15.46,8-3.46,6-4.82,13.37-5,20.21A51.55,51.55,0,0,0,245,313.31a49.89,49.89,0,0,0,2.35,4.82c1.56,2.82,5.88.3,4.32-2.52a46.37,46.37,0,0,1-3.56-36.34c1.38-4.3,4.23-10.12,9.29-10.8s8.49,4.18,10.55,8c3.1,5.75,4.95,12.4,6.34,18.76a75.3,75.3,0,0,1,2,19.61c-.24,4.8-1.56,10.34-6.09,12.85-3.61,2-8.11,1-11.73-1.16-12.82-7.78-8.22-24.89-4.76-36.62.91-3.09-3.91-4.42-4.82-1.33Z" transform="translate(-53.3 -69.25)"/><path class="cls-1" d="M296,318.55,290,259.65l-4.91.66a141.46,141.46,0,0,0,18.71,44.47c2.5,3.89,5.2,7.63,8.05,11.26,1.23,1.58,3.67.51,4.18-1.1a135.06,135.06,0,0,0,5.83-51.62,139.51,139.51,0,0,0-2.06-14.93,2.5,2.5,0,0,0-4.82,1.33,359.5,359.5,0,0,0,14.71,58.6q2.76,8.06,5.89,16a2.58,2.58,0,0,0,3.08,1.74,2.51,2.51,0,0,0,1.74-3.07A361.15,361.15,0,0,1,323,265.11q-1.76-8.33-3.13-16.72L315,249.72a130,130,0,0,1-.17,50,131.38,131.38,0,0,1-3.6,13.94l4.18-1.1a136,136,0,0,1-21.85-40.61q-2.13-6.37-3.63-12.92c-.62-2.69-5.2-2.18-4.91.67l5.93,58.9a2.57,2.57,0,0,0,2.5,2.5,2.51,2.51,0,0,0,2.5-2.5Z" transform="translate(-53.3 -69.25)"/><path class="cls-1" d="M333.54,264.12a218,218,0,0,0,10.72,60.11c1,3,5.83,1.74,4.82-1.33a213.39,213.39,0,0,1-10.54-58.78c-.12-3.2-5.12-3.22-5,0Z" transform="translate(-53.3 -69.25)"/><path class="cls-1" d="M355.72,297.45l-7-35.46-4.83,1.33a218.11,218.11,0,0,0,22.59,42.54c2.61,3.8,5.35,7.51,8.18,11.15,1.45,1.86,4.14.14,4.27-1.77A121.22,121.22,0,0,0,370.48,262a2.59,2.59,0,0,0-3.08-1.75,2.52,2.52,0,0,0-1.74,3.08,118,118,0,0,1,8.28,51.94l4.26-1.77a211.82,211.82,0,0,1-24.29-39.57Q351.14,268,348.73,262a2.51,2.51,0,0,0-4.83,1.33l7,35.46a2.5,2.5,0,0,0,4.82-1.33Z" transform="translate(-53.3 -69.25)"/><path class="cls-1" d="M397,232.88a373.53,373.53,0,0,1-14.77,51.69q-2.65,7.23-5.6,14.35c-.66,1.6,1,3.09,2.41,3.17l34.8,1.77a2.52,2.52,0,0,0,2.41-1.84c1.71-11.66-4.56-24-15.48-28.82a2.58,2.58,0,0,0-3.42.89,2.51,2.51,0,0,0,.9,3.42c8.69,3.86,14.59,13.61,13.17,23.18l2.42-1.83L379,297.09l2.41,3.16a372.44,372.44,0,0,0,16.91-51q1.89-7.46,3.46-15a2.55,2.55,0,0,0-1.75-3.07,2.52,2.52,0,0,0-3.07,1.74Z" transform="translate(-53.3 -69.25)"/><path class="cls-1" d="M327.88,228.48l1.7-1.7a1.92,1.92,0,0,0,.52-.8,2.32,2.32,0,0,0,0-1.93,2,2,0,0,0-.52-.81l-.51-.39a2.53,2.53,0,0,0-1.26-.34l-.66.09a2.53,2.53,0,0,0-1.11.64l-1.7,1.7a1.93,1.93,0,0,0-.51.81,2.58,2.58,0,0,0,.51,2.73l.51.39a2.43,2.43,0,0,0,1.26.34l.67-.09a2.5,2.5,0,0,0,1.1-.64Z" transform="translate(-53.3 -69.25)"/><path class="cls-1" d="M508.92,257.31v42.5c0,3.22,5,3.23,5,0v-42.5c0-3.21-5-3.22-5,0Z" transform="translate(-53.3 -69.25)"/><path class="cls-1" d="M505.48,243.51A214.55,214.55,0,0,0,559,248.36l-1.26-4.66-41.13,28.87a2.51,2.51,0,0,0,1.93,4.57,90.39,90.39,0,0,1,18.32-2.21,95.53,95.53,0,0,1,9.57.33,12.21,12.21,0,0,1,3.05.49,3.78,3.78,0,0,1,.85.38c.21.17.3.17.24.46-.15.74-1.15,1.41-1.73,1.82-1.3.95-2.67,1.83-4,2.73l-8,5.46-16.22,11L502.51,310c-2.65,1.8-.15,6.13,2.52,4.31l35.72-24.33,9-6.15c2.51-1.71,5.53-3.66,5.73-7,.42-7.16-10.26-6.7-14.87-6.81a96.58,96.58,0,0,0-23.48,2.37l1.92,4.56L560.22,248c1.9-1.33,1.4-4.75-1.26-4.66a208.59,208.59,0,0,1-52.15-4.67c-3.14-.69-4.48,4.13-1.33,4.82Z" transform="translate(-53.3 -69.25)"/><path class="cls-1" d="M562.77,264.14l1.77,20.08c.26,3,.39,6,.9,8.92a10.74,10.74,0,0,0,3.31,6.62c4.86,4,10.58.42,13.73-3.84a35,35,0,0,0,4-8,57.82,57.82,0,0,0,2.63-8.45A60.69,60.69,0,0,0,590.32,259a2.58,2.58,0,0,0-2.5-2.5,2.51,2.51,0,0,0-2.5,2.5,56,56,0,0,1-5,30.63,16.47,16.47,0,0,1-3.87,5.52c-1.16,1-2.75,1.9-4.18,1s-1.8-2.86-2-4.38c-.42-2.5-.5-5.08-.72-7.6l-1.77-20.08a2.57,2.57,0,0,0-2.5-2.5,2.52,2.52,0,0,0-2.5,2.5Z" transform="translate(-53.3 -69.25)"/><path class="cls-1" d="M606.07,252.23,602.75,310c-.19,3.22,4.81,3.21,5,0l3.32-57.8c.18-3.22-4.82-3.21-5,0Z" transform="translate(-53.3 -69.25)"/><path class="cls-1" d="M592.06,265l32.28-11.94a2.57,2.57,0,0,0,1.75-3.08,2.51,2.51,0,0,0-3.08-1.74L590.73,260.2a2.56,2.56,0,0,0-1.75,3.07,2.53,2.53,0,0,0,3.08,1.75Z" transform="translate(-53.3 -69.25)"/><path class="cls-1" d="M642.22,269.19l1.32,37.41c.12,3.21,5.12,3.23,5,0l-1.32-37.41c-.11-3.21-5.11-3.22-5,0Z" transform="translate(-53.3 -69.25)"/><path class="cls-1" d="M667.48,248.79l2.46,54.45c.14,3.2,5.14,3.22,5,0l-2.46-54.45c-.14-3.2-5.15-3.22-5,0Z" transform="translate(-53.3 -69.25)"/><path class="cls-1" d="M654.89,264.82,694,258a2.51,2.51,0,0,0,1.74-3.07,2.55,2.55,0,0,0-3.07-1.75l-39.1,6.8a2.5,2.5,0,1,0,1.33,4.82Z" transform="translate(-53.3 -69.25)"/><path class="cls-1" d="M626.22,243.71v1.7a2.83,2.83,0,0,0,.73,1.77,2,2,0,0,0,.81.52,1.88,1.88,0,0,0,1,.21l.67-.09a2.5,2.5,0,0,0,1.1-.64l.39-.51a2.43,2.43,0,0,0,.34-1.26v-1.7a2,2,0,0,0-.21-1,2.05,2.05,0,0,0-.52-.81,1.93,1.93,0,0,0-.81-.51,1.86,1.86,0,0,0-1-.22l-.66.09a2.48,2.48,0,0,0-1.11.64l-.39.51a2.53,2.53,0,0,0-.34,1.26Z" transform="translate(-53.3 -69.25)"/><path class="cls-1" d="M73.41,408.63,75,440.94c.16,3.2,5.16,3.22,5,0l-1.63-32.31c-.16-3.2-5.16-3.22-5,0Z" transform="translate(-53.3 -69.25)"/><path class="cls-1" d="M116.94,401.75,101.83,417.8c-1.63,1.73,0,5,2.43,4.18a27.34,27.34,0,0,1,29.19,8.35l1.1-4.18a55.55,55.55,0,0,0-36.88,26c-1.65,2.77,2.67,5.29,4.31,2.52A50.72,50.72,0,0,1,135.88,431c2-.39,2.21-2.87,1.11-4.18a32.26,32.26,0,0,0-34.06-9.63l2.44,4.18,15.1-16c2.21-2.35-1.32-5.89-3.53-3.54Z" transform="translate(-53.3 -69.25)"/><path class="cls-1" d="M191.19,430l-8.73-31.59-4.57,1.92a146.75,146.75,0,0,0,14.75,21.31q4.08,4.92,8.59,9.44a89.73,89.73,0,0,0,9.54,8.64c3.42,2.55,7.79,4.21,11.89,2.25,3.16-1.51,4.57-4.81,4.94-8.11a25.52,25.52,0,0,0-1.15-9.7q-2-7.08-4.07-14.14l-9.23-32.12c-.89-3.08-5.71-1.77-4.82,1.33l7.58,26.37,3.79,13.18c1,3.59,2.4,7.25,2.87,11a16,16,0,0,1,0,4.09,6.71,6.71,0,0,1-1,2.71,3.32,3.32,0,0,1-.94.81,3.59,3.59,0,0,1-1.8.5,8.59,8.59,0,0,1-4.69-1.87,63.6,63.6,0,0,1-8.63-7.7q-4.23-4.18-8.1-8.71a139.92,139.92,0,0,1-15.22-21.79c-1.4-2.47-5.32-.81-4.57,1.92l8.73,31.6c.85,3.1,5.68,1.78,4.82-1.33Z" transform="translate(-53.3 -69.25)"/><path class="cls-1" d="M237,424.24c-3.2,1.63-3.56,5.69-2.06,8.62,1.77,3.46,5.95,4.46,9.43,3.14,7.1-2.69,10.41-11.07,9.48-18.2a16.75,16.75,0,0,0-13-14.5c-6.82-1.44-14.45,1-18,7.33-3.6,6.46-2.5,15.64,3.44,20.37a2.58,2.58,0,0,0,3.54,0,2.53,2.53,0,0,0,0-3.54,11.3,11.3,0,0,1-3.6-12,10.57,10.57,0,0,1,9.66-7.55,12.05,12.05,0,0,1,11.79,6.37,13.88,13.88,0,0,1-.92,13.6c-1.25,1.9-4.1,4.57-6.63,3.51.38.16-.34-.23-.34-.22.36.28-.46-.6-.2-.25a2.23,2.23,0,0,1-.52-1.24c-.09-.43,0,.53,0-.24a4.18,4.18,0,0,1,0-.5c0,.25,0,.23,0-.07-.18.44.12-.21.17-.26-.37.38,0,.09.24,0,2.87-1.46.34-5.78-2.53-4.32Z" transform="translate(-53.3 -69.25)"/><path class="cls-1" d="M255.44,381.43l5.09,62.9a2.56,2.56,0,0,0,2.5,2.5,2.52,2.52,0,0,0,2.5-2.5l-5.09-62.9a2.56,2.56,0,0,0-2.5-2.5,2.52,2.52,0,0,0-2.5,2.5Z" transform="translate(-53.3 -69.25)"/><path class="cls-1" d="M241.11,397.52l27.2-1.7c3.2-.2,3.22-5.2,0-5l-27.2,1.7c-3.2.2-3.22,5.2,0,5Z" transform="translate(-53.3 -69.25)"/><path class="cls-1" d="M311.84,397.05c-9.49,7.22-13.73,19.75-11.19,31.34s12.57,20.16,24.17,22.05A30.11,30.11,0,0,0,344,447.49c2.84-1.52.32-5.83-2.52-4.31-8.61,4.61-19.65,3.2-27.39-2.57-8-6-10.77-16.42-8.29-25.86a24.76,24.76,0,0,1,8.56-13.39,2.57,2.57,0,0,0,.9-3.42,2.51,2.51,0,0,0-3.42-.89Z" transform="translate(-53.3 -69.25)"/><path class="cls-1" d="M363.17,447.55c6.6,2.25,13.75-1.31,17.43-6.89,4-6.13,2.7-13.85-2-19.18a19,19,0,0,0-19.26-5.67,23.48,23.48,0,0,0-15,14.11c-3.31,8.47-1.34,18.38,3.4,25.89,1.71,2.72,6,.21,4.32-2.52-3.44-5.45-5.28-12.19-3.92-18.6a18.92,18.92,0,0,1,9.72-12.93,14,14,0,0,1,14.87,1.06c4.05,2.95,6.6,8.24,4.77,13.12-1.92,5.08-7.79,8.55-12.95,6.79-3.05-1-4.36,3.78-1.33,4.82Z" transform="translate(-53.3 -69.25)"/><path class="cls-1" d="M391.42,428.35l-6.63-24.81-4.57,1.93,11.34,20.91,5.66,10.45c1.51,2.78,2.95,5.63,5.17,7.92s5.2,3.72,8.41,3.05a8.46,8.46,0,0,0,5.8-5.07,21.88,21.88,0,0,0,1.64-8.16c.12-3.73.17-7.47.25-11.2q.31-13.35.61-26.71l-4.66,1.26a105.24,105.24,0,0,1,11.17,36.2,2.58,2.58,0,0,0,2.5,2.5,2.51,2.51,0,0,0,2.5-2.5,112.17,112.17,0,0,0-11.85-38.72c-1.18-2.28-4.6-1.11-4.66,1.26l-.49,21.77-.25,10.88a53.06,53.06,0,0,1-.41,8.29,14.54,14.54,0,0,1-.79,2.89,5.06,5.06,0,0,1-1.42,2c-1.6,1.11-3.44.16-4.82-1.25-2-2.08-3.25-4.83-4.61-7.35l-5.2-9.58-11.57-21.35c-1.37-2.51-5.3-.79-4.57,1.93l6.63,24.81c.83,3.11,5.66,1.79,4.82-1.33Z" transform="translate(-53.3 -69.25)"/><path class="cls-1" d="M446.1,417.78l6.8,40.8a2.53,2.53,0,0,0,3.08,1.75,2.57,2.57,0,0,0,1.75-3.08l-6.8-40.8a2.53,2.53,0,0,0-3.08-1.74,2.56,2.56,0,0,0-1.75,3.07Z" transform="translate(-53.3 -69.25)"/><path class="cls-1" d="M469.72,434.12l.14-21.36L465.2,414l9.22,15.33q2.29,3.84,4.61,7.67c1.21,2,2.62,4.12,4.72,5.3a6.13,6.13,0,0,0,6.61-.26,8.34,8.34,0,0,0,3-5.32,39.37,39.37,0,0,0,.29-7.44l-.07-9-.16-20.2c0-3.22-5-3.23-5,0q.12,16,.25,31.91a12.6,12.6,0,0,1-.58,5c-.33.79-.82,1.42-1.83.91-1.6-.81-2.56-2.9-3.44-4.36l-4.1-6.81-9.21-15.33a2.52,2.52,0,0,0-4.66,1.26l-.14,21.36c0,3.22,5,3.22,5,0Z" transform="translate(-53.3 -69.25)"/><path class="cls-1" d="M516.22,388a48.56,48.56,0,0,0-9.62,43.25c1.77,6.56,5.75,14.88,13.27,16.12,6.55,1.08,14.35-4,12.48-11.32s-11.41-8.32-17.58-7.89l1.77,4.27,14-16.65-3.93-.5a6.33,6.33,0,0,0,8.07,2.15,2.5,2.5,0,0,0-2.53-4.32,1.23,1.23,0,0,1-1.22-.35c-.85-1.21-2.81-1.84-3.93-.51q-7,8.32-14,16.64c-1.27,1.51-.58,4.43,1.76,4.27a24.6,24.6,0,0,1,7.44.45,11.3,11.3,0,0,1,3,1.09,4.63,4.63,0,0,1,2,1.8,3.48,3.48,0,0,1-1.07,4.59,6.88,6.88,0,0,1-5.5,1.35c-5.71-1.35-8.2-8.46-9.43-13.46a43.35,43.35,0,0,1,8.58-37.44,2.58,2.58,0,0,0,0-3.54,2.53,2.53,0,0,0-3.54,0Z" transform="translate(-53.3 -69.25)"/><path class="cls-1" d="M457,377.12c3.21,0,3.22-5,0-5s-3.23,5,0,5Z" transform="translate(-53.3 -69.25)"/><path class="cls-1" d="M561.28,379.76l8.25,62.94a2.59,2.59,0,0,0,2.5,2.5c1.21,0,2.68-1.16,2.5-2.5l-8.25-62.94a2.57,2.57,0,0,0-2.5-2.5,2.52,2.52,0,0,0-2.5,2.5Z" transform="translate(-53.3 -69.25)"/><path class="cls-1" d="M547.73,381.87l45.87-8.7a2.5,2.5,0,0,0-1.33-4.82l-45.87,8.7a2.52,2.52,0,0,0-1.74,3.07,2.55,2.55,0,0,0,3.07,1.75Z" transform="translate(-53.3 -69.25)"/><path class="cls-1" d="M557.91,415.89,597,404c3.07-.93,1.76-5.76-1.33-4.82l-39.11,11.89c-3.07.93-1.76,5.76,1.33,4.82Z" transform="translate(-53.3 -69.25)"/><path class="cls-1" d="M588.91,409.28l6.8,39.1a2.52,2.52,0,0,0,3.07,1.75,2.56,2.56,0,0,0,1.75-3.08l-6.8-39.1a2.51,2.51,0,0,0-3.08-1.74,2.55,2.55,0,0,0-1.74,3.07Z" transform="translate(-53.3 -69.25)"/><path class="cls-1" d="M586.22,384.09l35.35,2.4,4.23.29a27,27,0,0,1,3.82.32c.18,0,.78.1.89.26.36.56-1.39,2.28-1.7,2.59-4.12,4.15-8.41,8.16-12.62,12.23L601.92,416l3.93,3a5.28,5.28,0,0,1,3.51-1.94,10.15,10.15,0,0,1,4.58.57,13,13,0,0,1,7.59,7.51c1.93,4.42,2.48,9.33,3.45,14a32,32,0,0,0,5,12.37c3,4.12,7.15,7.16,12.38,7.31,3.22.09,3.21-4.91,0-5-4-.11-7.06-3.05-9.05-6.31-2.45-4-3.3-8.61-4.17-13.18-1-5.08-2-10.39-4.92-14.78a17.2,17.2,0,0,0-10.12-7.1c-4.77-1.17-9.54,0-12.55,4a2.48,2.48,0,0,0,.65,3.22,2.51,2.51,0,0,0,3.28-.19l13.91-13.49,7.14-6.91c2.16-2.1,4.53-4.1,6.51-6.38,1.83-2.1,3.39-5.14,1.78-7.84s-4.53-2.85-7.26-3l-19.41-1.32-21.91-1.49a2.51,2.51,0,0,0-2.5,2.5,2.55,2.55,0,0,0,2.5,2.5Z" transform="translate(-53.3 -69.25)"/><path class="cls-1" d="M641.33,415.36c-7.5,4.43-5.24,16.52,2.07,19.92,4.52,2.11,9.91,1.11,13.94-1.63a20.13,20.13,0,0,0,8.33-12.87c1.13-5.71.45-11.58-.76-17.22a30.86,30.86,0,0,0-5.53-12.86c-2.87-3.61-7.34-6-12-5.54-4.89.5-8.85,3.52-11.71,7.38-3.64,4.9-4.85,10.74-4.9,16.74-.06,6.85,1.22,13.8,0,20.61a2.57,2.57,0,0,0,1.75,3.07,2.53,2.53,0,0,0,3.08-1.74c.92-5.35.59-10.69.3-16.07-.26-4.83-.54-9.87,1.05-14.51,2.1-6.13,8.69-13.41,15.6-9.42,3,1.76,4.88,5.14,6.05,8.36a46.84,46.84,0,0,1,2.59,12.78c.28,4.51-.17,9.3-2.69,13.17a12.86,12.86,0,0,1-8.67,5.84,7.3,7.3,0,0,1-5.09-1.06,8.18,8.18,0,0,1-2.44-3.2,7.75,7.75,0,0,1-.54-4.34,4.28,4.28,0,0,1,.74-1.87,3.84,3.84,0,0,1,1.36-1.22c2.76-1.63.25-6-2.53-4.32Z" transform="translate(-53.3 -69.25)"/><path class="cls-1" d="M680.52,417.12l1.33-32.79-4.66,1.27,9.68,16.91,4.71,8.24c1.34,2.34,2.57,5,4.6,6.86,4,3.58,9.27,2.33,12.6-1.41A20.8,20.8,0,0,0,712.5,410a47.62,47.62,0,0,0,1.61-6.13,22.72,22.72,0,0,1,2.37-6.35,5.36,5.36,0,0,1,3.76-2.88l-2.41-1.84L730,426.28a2.57,2.57,0,0,0,3.08,1.75,2.52,2.52,0,0,0,1.74-3.08l-12.18-33.51a2.55,2.55,0,0,0-2.41-1.84c-4.38.46-7.34,3.39-9.07,7.3a36,36,0,0,0-2,6.25,35.45,35.45,0,0,1-1.47,5.55,13.17,13.17,0,0,1-3.59,5.12c-1.2.95-2.31,1.34-3.61.74-1.91-.86-3-3.54-3.94-5.25l-4.59-8-10.42-18.22c-1.27-2.22-4.56-1.15-4.66,1.26l-1.33,32.79c-.13,3.22,4.87,3.21,5,0Z" transform="translate(-53.3 -69.25)"/><path class="cls-1" d="M53.93,500.38a100.84,100.84,0,0,0,22.2,57.36c5.89,7.17,14.88,13.47,24.52,9.89,8.32-3.09,14-11.53,15.21-20.15,1.71-12.33-4.53-24.08-10.24-34.54-1.54-2.82-5.85-.3-4.31,2.53,4.65,8.52,9.67,17.66,9.83,27.62.11,7.47-3.57,15.36-10.32,19a12.69,12.69,0,0,1-10.42.75c-4-1.39-7.16-4.48-9.84-7.58a88.69,88.69,0,0,1-14.39-23.85,96.81,96.81,0,0,1-7.24-31c-.2-3.2-5.2-3.22-5,0Z" transform="translate(-53.3 -69.25)"/><path class="cls-1" d="M124,500.38a123.08,123.08,0,0,0,7.37,49.32,125.2,125.2,0,0,0,5.71,13.13c1.44,2.88,5.76.35,4.31-2.52A118.15,118.15,0,0,1,129,500.38c.18-3.22-4.82-3.21-5,0Z" transform="translate(-53.3 -69.25)"/><path class="cls-1" d="M122.55,490.68A96,96,0,0,0,166,501.56l-1.26-4.66a88.9,88.9,0,0,0-30.54,34.44,90.07,90.07,0,0,0-5,12.39c-1,3.07,3.84,4.39,4.83,1.33a83.81,83.81,0,0,1,23.56-36.33,82.25,82.25,0,0,1,9.71-7.52,2.51,2.51,0,0,0-1.26-4.65,90.54,90.54,0,0,1-41-10.2c-2.85-1.48-5.38,2.83-2.52,4.32Z" transform="translate(-53.3 -69.25)"/><path class="cls-1" d="M213.06,549.72l-.16-50,0-14.19-4.66,1.26,29.24,63.31L245.72,568a2.52,2.52,0,0,0,3.42.89,2.55,2.55,0,0,0,.9-3.42L220.8,502.16l-8.28-17.92c-1.08-2.33-4.67-1.08-4.66,1.26l.15,50,.05,14.19c0,3.22,5,3.22,5,0Z" transform="translate(-53.3 -69.25)"/><path class="cls-1" d="M211.17,528.33l30.6-6.8c3.14-.7,1.81-5.52-1.33-4.82l-30.6,6.8c-3.14.7-1.81,5.52,1.33,4.82Z" transform="translate(-53.3 -69.25)"/><path class="cls-1" d="M241.73,497.75l10,56.13a2.5,2.5,0,1,0,4.82-1.33l-10-56.13a2.52,2.52,0,0,0-3.07-1.75,2.58,2.58,0,0,0-1.75,3.08Z" transform="translate(-53.3 -69.25)"/><path class="cls-1" d="M241.55,495.78a88.53,88.53,0,0,0,38.4,8.85L278.69,500l-30.57,23.09a2.58,2.58,0,0,0-.9,3.42,2.53,2.53,0,0,0,3.42.9c5.27-3,11.38-6.74,17.73-6,4,.44,8.81,3.26,9.38,7.58.35,2.67-1,5.21-2.61,7.24a69.15,69.15,0,0,1-6.65,6.83l-15.87,15.39-17.83,17.28c-2.31,2.25,1.22,5.78,3.54,3.54l34.95-33.88c4.55-4.42,10.23-9.73,9.43-16.73-.7-6.16-6.15-10.64-12-11.9-8.09-1.75-15.84,2.46-22.62,6.36l2.52,4.32,30.58-23.09a2.62,2.62,0,0,0,1.15-2.82,2.57,2.57,0,0,0-2.42-1.84,82.86,82.86,0,0,1-35.88-8.17,2.57,2.57,0,0,0-3.42.9,2.53,2.53,0,0,0,.9,3.42Z" transform="translate(-53.3 -69.25)"/><path class="cls-1" d="M294.29,529.69c-3.4,2.74-4.41,7.41-3.56,11.54a12.89,12.89,0,0,0,8.45,9.36c8.57,3.17,18-1.81,21.83-9.73,3.65-7.63,2.58-17-4-22.71-6.31-5.44-16.06-7-23.27-2.37a20.25,20.25,0,0,0-7.26,25,2.52,2.52,0,0,0,3.42.9,2.55,2.55,0,0,0,.89-3.42c-2.5-5.47-.7-12.43,3.56-16.57,4.5-4.37,11.37-4.59,16.69-1.62a13.54,13.54,0,0,1,6.74,15.21c-1.47,6.15-6.53,11.28-13.11,11.28-3.42,0-7.08-1.52-8.54-4.76a7.09,7.09,0,0,1,1.73-8.53,2.51,2.51,0,0,0,0-3.53,2.56,2.56,0,0,0-3.54,0Z" transform="translate(-53.3 -69.25)"/><path class="cls-1" d="M327,518.92l24,36.43c1.11,1.69,4.07,1.62,4.57-.59a179.38,179.38,0,0,0,3.35-57.71,2.57,2.57,0,0,0-2.5-2.5,2.52,2.52,0,0,0-2.5,2.5,175.11,175.11,0,0,1-3.18,56.38l4.57-.6-24-36.43c-1.77-2.68-6.1-.17-4.32,2.52Z" transform="translate(-53.3 -69.25)"/><path class="cls-1" d="M391.5,492.8l-21.21,23.86c-1.26,1.42-.57,4.57,1.77,4.27,8.49-1.13,14.87,5.82,19.62,11.89,5.17,6.6,10.29,13.63,18.73,16.11a16.28,16.28,0,0,0,13.26-1.39c2.73-1.69.22-6-2.52-4.32-6.5,4-14.28-.51-18.88-5.32-5.79-6-9.82-13.59-16.91-18.35-3.88-2.6-8.6-4.24-13.3-3.62l1.76,4.26L395,496.33c2.13-2.39-1.4-5.94-3.54-3.53Z" transform="translate(-53.3 -69.25)"/><path class="cls-1" d="M371,518.24l30.59-5.13a2.5,2.5,0,1,0-1.33-4.82l-30.59,5.13a2.51,2.51,0,0,0-1.75,3.07,2.56,2.56,0,0,0,3.08,1.75Z" transform="translate(-53.3 -69.25)"/><path class="cls-1" d="M461.26,495.3a68.3,68.3,0,0,0,5.85,25.51,65.06,65.06,0,0,0,6.46,11.4,53,53,0,0,0,8.65,9.9c3.36,2.84,7.59,5.29,12.15,4.76a11.55,11.55,0,0,0,8.88-6.37,25.71,25.71,0,0,0,2.48-10.74,90.16,90.16,0,0,0-.69-14.13A109.71,109.71,0,0,0,496.31,484a2.52,2.52,0,0,0-3.42-.9,2.57,2.57,0,0,0-.9,3.42,102.85,102.85,0,0,1,7.49,25.28,98,98,0,0,1,1.23,12.8,37.48,37.48,0,0,1-.68,10.36c-.67,2.65-1.88,5.32-4.36,6.5-3.13,1.49-6.73-.36-9.27-2.31a42.14,42.14,0,0,1-7.8-8.42,65.2,65.2,0,0,1-6.14-10.16,62.36,62.36,0,0,1-6.2-25.22c-.1-3.21-5.1-3.22-5,0Z" transform="translate(-53.3 -69.25)"/><path class="cls-1" d="M532.26,493.16,514,506.28c-1.93,1.4-1.37,4.63,1.26,4.66a114.45,114.45,0,0,1,45.4,10l.6-4.57c-17.51,2.84-33.35,13.4-43.35,27.95A63.56,63.56,0,0,0,511,557.67a2.51,2.51,0,0,0,1.75,3.07,2.55,2.55,0,0,0,3.07-1.74,61.3,61.3,0,0,1,33.28-34,59.32,59.32,0,0,1,13.52-3.84c2-.34,2.5-3.72.59-4.57a120.58,120.58,0,0,0-47.92-10.66l1.27,4.66,18.22-13.12a2.58,2.58,0,0,0,.9-3.42,2.53,2.53,0,0,0-3.42-.9Z" transform="translate(-53.3 -69.25)"/><path class="cls-1" d="M84.3,648.45A436.7,436.7,0,0,0,96,715.4q2.4,9.32,5.22,18.52c.93,3.07,5.76,1.76,4.82-1.33A432.1,432.1,0,0,1,91.5,667.13c-.88-6.21-1.6-12.44-2.2-18.68a2.57,2.57,0,0,0-2.5-2.5,2.52,2.52,0,0,0-2.5,2.5Z" transform="translate(-53.3 -69.25)"/><path class="cls-1" d="M114.59,647.29l11.91,54.4c.68,3.14,5.5,1.81,4.82-1.33L119.42,646c-.69-3.14-5.51-1.81-4.83,1.33Z" transform="translate(-53.3 -69.25)"/><path class="cls-1" d="M105.77,671.14l32.3-13.6a2.6,2.6,0,0,0,1.75-3.08,2.53,2.53,0,0,0-3.08-1.75l-32.3,13.6a2.6,2.6,0,0,0-1.75,3.08,2.53,2.53,0,0,0,3.08,1.75Z" transform="translate(-53.3 -69.25)"/><path class="cls-1" d="M174.1,666l6.8,44.2a2.52,2.52,0,0,0,3.07,1.75,2.57,2.57,0,0,0,1.75-3.08l-6.8-44.2a2.53,2.53,0,0,0-3.08-1.75A2.57,2.57,0,0,0,174.1,666Z" transform="translate(-53.3 -69.25)"/><path class="cls-1" d="M203,651.06l-6.67,22a2.52,2.52,0,0,0,3.07,3.08,29.75,29.75,0,0,0,13-8.47l-3.92-3a78.74,78.74,0,0,0-12.72,41.48c-.06,3.22,4.94,3.22,5,0a73.89,73.89,0,0,1,12-39c1.54-2.35-2-5.16-3.92-3a24.73,24.73,0,0,1-10.85,7.19l3.08,3.07,6.67-22c.93-3.09-3.89-4.41-4.82-1.33Z" transform="translate(-53.3 -69.25)"/><path class="cls-1" d="M260.15,638.47A78.71,78.71,0,0,0,238.55,679a2.54,2.54,0,0,0,3.67,2.82,40.81,40.81,0,0,1,41.47,5.54,2.58,2.58,0,0,0,3.54,0,2.53,2.53,0,0,0,0-3.54,46.3,46.3,0,0,0-37-9.6,43.78,43.78,0,0,0-10.59,3.28l3.68,2.83A74.15,74.15,0,0,1,263.68,642c2.28-2.27-1.25-5.81-3.53-3.53Z" transform="translate(-53.3 -69.25)"/><path class="cls-1" d="M295.41,665.62c-4.5,2.29-7,7.11-7.35,12a14.54,14.54,0,0,0,6.44,12.93,17.63,17.63,0,0,0,14.79,2.24A19.44,19.44,0,0,0,321,682.27a21.07,21.07,0,0,0,1-15.56,25.24,25.24,0,0,0-9.2-12.2A23,23,0,0,0,298.59,650a20.83,20.83,0,0,0-13.07,5.5c-7.8,7-10.67,19.37-5.54,28.73,1.54,2.83,5.86.3,4.31-2.52-3.44-6.29-2-14.33,2.28-20a16.2,16.2,0,0,1,19.61-5.3c7.15,3.07,12.84,10.69,11.81,18.7-1.06,8.19-8.51,15.24-17,13-4-1.07-7.35-4.19-7.86-8.24a9.64,9.64,0,0,1,4.83-9.91c2.87-1.46.34-5.78-2.52-4.32Z" transform="translate(-53.3 -69.25)"/><path class="cls-1" d="M333.62,680l-8.19-32.09-4.57,1.93,9.25,14,4.63,7c1.46,2.23,2.84,4.55,4.44,6.68,1.42,1.9,3.32,3.66,5.86,3.59a5.63,5.63,0,0,0,5-3.93,17.52,17.52,0,0,0,.72-6.16l0-8.42.09-19.05-4.66,1.26a57.2,57.2,0,0,1,9.69,27.31,2.57,2.57,0,0,0,2.5,2.5,2.52,2.52,0,0,0,2.5-2.5,62.31,62.31,0,0,0-10.37-29.83,2.52,2.52,0,0,0-4.66,1.26c-.05,9.83.14,19.69-.15,29.51a8.38,8.38,0,0,1-.23,1.9,3.08,3.08,0,0,1-.3.83,1.18,1.18,0,0,1-.26.32c.24-.07-.16,0-.23,0a2.8,2.8,0,0,1-.36-.24,8,8,0,0,1-1.76-2.16q-4.09-6.19-8.16-12.39l-9.25-14a2.51,2.51,0,0,0-4.57,1.92l8.19,32.09c.8,3.12,5.62,1.8,4.82-1.33Z" transform="translate(-53.3 -69.25)"/><path class="cls-1" d="M373,654.09l5.1,30.6a2.53,2.53,0,0,0,3.08,1.75,2.56,2.56,0,0,0,1.74-3.08l-5.1-30.6a2.52,2.52,0,0,0-3.07-1.75,2.56,2.56,0,0,0-1.75,3.08Z" transform="translate(-53.3 -69.25)"/><path class="cls-1" d="M391.42,676.56a37.46,37.46,0,0,1-.17-21.47l-3.67,1.5c4,1.69,5.47,6,6.91,9.81a27.4,27.4,0,0,0,3.17,6.64,17.22,17.22,0,0,0,5.56,5.08,9.75,9.75,0,0,0,6.94,1.15,8.41,8.41,0,0,0,5.52-5c1.08-2.53,1.19-5.33,1.34-8,.17-3.33.25-6.65.24-10a175.48,175.48,0,0,0-1.49-21.85,2.58,2.58,0,0,0-2.5-2.5,2.51,2.51,0,0,0-2.5,2.5,176.94,176.94,0,0,1,1.43,18c.08,3.09.08,6.17,0,9.26a73.78,73.78,0,0,1-.44,8.15c-.24,1.73-.76,3.85-2.55,4.57a3.46,3.46,0,0,1-1.58.13,6.69,6.69,0,0,1-2.32-.93c-3.68-2.21-5-6-6.49-9.79-1.75-4.51-4-9.48-8.72-11.49a2.55,2.55,0,0,0-3.67,1.5,42.32,42.32,0,0,0,.17,24.12c.94,3.07,5.77,1.76,4.82-1.33Z" transform="translate(-53.3 -69.25)"/><path class="cls-1" d="M437.27,633.06A114.64,114.64,0,0,0,423.63,659c-1.69,4.52-3.54,9.38-3.9,14.22a11.37,11.37,0,0,0,5.87,10.94c3.79,2.18,8.39,3,12.62,3.86,4.91,1,10.19,1.52,15-.06a17,17,0,0,0,9.71-7.57,13.1,13.1,0,0,0,0-12.26A18.85,18.85,0,0,0,451.75,659c-5.4-1.74-11.21-1.48-16.79-1.18-3.2.17-3.22,5.17,0,5,7.62-.41,17-1,22.3,5.59a8.79,8.79,0,0,1,1.84,8.47c-1,2.85-3.75,4.95-6.49,6-3.93,1.52-8.29,1.2-12.34.45-3.6-.67-7.55-1.34-10.91-2.86a8.86,8.86,0,0,1-3.57-2.58,6.93,6.93,0,0,1-1-4.89,30.48,30.48,0,0,1,1.42-5.93q.94-3.09,2.05-6.12a109.92,109.92,0,0,1,13.36-25.35,2.52,2.52,0,0,0-.89-3.42,2.56,2.56,0,0,0-3.42.89Z" transform="translate(-53.3 -69.25)"/><path class="cls-1" d="M383.91,625.32c3.22,0,3.23-5,0-5s-3.22,5,0,5Z" transform="translate(-53.3 -69.25)"/><path class="cls-1" d="M485.12,646.62v52.71c0,3.21,5,3.22,5,0V646.62c0-3.21-5-3.22-5,0Z" transform="translate(-53.3 -69.25)"/><path class="cls-1" d="M484.58,645.25a46,46,0,0,1,33.62-16c3.21-.06,3.22-5.06,0-5a50.85,50.85,0,0,0-37.15,17.43,2.56,2.56,0,0,0,0,3.54,2.52,2.52,0,0,0,3.53,0Z" transform="translate(-53.3 -69.25)"/><path class="cls-1" d="M480.38,679.38l28.9-15.3c2.84-1.5.32-5.82-2.52-4.31l-28.91,15.3c-2.84,1.5-.32,5.82,2.53,4.31Z" transform="translate(-53.3 -69.25)"/><path class="cls-1" d="M510.57,661.92l-1.72,35.7c-.16,3.22,4.84,3.21,5,0l1.72-35.7c.15-3.21-4.85-3.21-5,0Z" transform="translate(-53.3 -69.25)"/><path class="cls-1" d="M514.34,656.91l36.81,11-.6-4.57L523,678.84a2.52,2.52,0,0,0,0,4.31,89.54,89.54,0,0,1,28.21,29.67c1.62,2.77,5.95.26,4.31-2.53a95,95,0,0,0-30-31.45v4.31l27.56-15.49a2.53,2.53,0,0,0-.6-4.57l-36.81-11c-3.09-.92-4.41,3.9-1.33,4.82Z" transform="translate(-53.3 -69.25)"/><path class="cls-1" d="M564.31,682.94c-3.7,2-5.2,6.28-4.61,10.26a10,10,0,0,0,8,8.27,12.92,12.92,0,0,0,12.25-4.1,16.67,16.67,0,0,0,3.53-13.3c-1.13-7.74-7.94-14.07-15.53-15.47a16.41,16.41,0,0,0-11.48,1.83,15.22,15.22,0,0,0-6.36,8.17c-2.48,7.16-.08,16.75,7.33,19.95a2.59,2.59,0,0,0,3.42-.9,2.52,2.52,0,0,0-.9-3.42,8.63,8.63,0,0,1-4.8-4.74,13,13,0,0,1-.88-7c0,.36.08-.44.1-.53.06-.31.13-.62.21-.92a14.77,14.77,0,0,1,.56-1.73,13.33,13.33,0,0,1,.84-1.6,7.07,7.07,0,0,1,1-1.29,9.94,9.94,0,0,1,6.46-3.17,14.93,14.93,0,0,1,13.76,7.48c2.78,4.94,1.94,13.57-4.37,15.56a7.61,7.61,0,0,1-4.9,0,5,5,0,0,1-2.9-2.58c-1-2.36-.39-5.34,1.83-6.51,2.84-1.51.32-5.83-2.52-4.32Z" transform="translate(-53.3 -69.25)"/><path class="cls-1" d="M590.87,690.77l-3.79-28.55-4.91.66a109.86,109.86,0,0,0,14.12,28.78c2.63,3.81,7.29,8.66,12.29,5.54a9.4,9.4,0,0,0,3.72-5.55c.75-2.55,1.13-5.23,1.65-7.83q2-10,4-19.94l-4.57.59,13.17,31a2.52,2.52,0,0,0,3.42.9,2.56,2.56,0,0,0,.9-3.42l-13.18-31c-.83-2-4.17-1.4-4.57.6L610,678.11l-1.56,7.79c-.38,1.91-.59,4.12-1.52,5.87-2,3.68-5.41-1.3-6.69-3.18a107.21,107.21,0,0,1-7.2-12.24,102.6,102.6,0,0,1-6-14.79,2.53,2.53,0,0,0-2.75-1.8,2.48,2.48,0,0,0-2.17,2.46l3.79,28.55a2.59,2.59,0,0,0,2.5,2.5c1.21,0,2.68-1.16,2.5-2.5Z" transform="translate(-53.3 -69.25)"/><path class="cls-1" d="M76.33,771.54l10,59.6,2.81,16.75A2.5,2.5,0,0,0,94,846.56L84,787l-2.81-16.75a2.52,2.52,0,0,0-3.07-1.75,2.56,2.56,0,0,0-1.75,3.08Z" transform="translate(-53.3 -69.25)"/><path class="cls-1" d="M72.8,764.73l36.51-1.09-1.77-4.27A178.66,178.66,0,0,0,79.8,800.88a2.58,2.58,0,0,0,.4,3q19,16.77,36.36,35.26,4.92,5.24,9.7,10.61c2.15,2.41,5.67-1.14,3.54-3.54Q112.94,827.33,94.38,810q-5.26-4.89-10.65-9.65l.39,3a173.75,173.75,0,0,1,27-40.51c1.37-1.54.5-4.33-1.77-4.26L72.8,759.73c-3.21.09-3.22,5.09,0,5Z" transform="translate(-53.3 -69.25)"/><path class="cls-1" d="M122.46,774.11a238.66,238.66,0,0,0,4.23,55,2.5,2.5,0,0,0,4.82-1.33,232.73,232.73,0,0,1-4-53.72c.13-3.22-4.87-3.22-5,0Z" transform="translate(-53.3 -69.25)"/><path class="cls-1" d="M139.67,749.55a166.82,166.82,0,0,0-4.62,57.21c.51,5.48,1.29,10.94,2.33,16.34a2.52,2.52,0,0,0,3.67,1.5c6.3-4.5,13.63-10,14.56-18.28.76-6.8-3.45-14.41-10.79-14.87l.67,4.91,9.22-3.73a2.58,2.58,0,0,0,1.74-3.08,2.51,2.51,0,0,0-3.07-1.75l-9.22,3.74c-2.56,1-2.29,4.73.66,4.91a6,6,0,0,1,4.7,3.49,10.22,10.22,0,0,1,1,6.62c-1.35,6.17-7.2,10.27-12,13.72l3.67,1.49a161.21,161.21,0,0,1-.94-55.38q1.25-7.83,3.23-15.51c.81-3.12-4-4.45-4.82-1.33Z" transform="translate(-53.3 -69.25)"/><path class="cls-1" d="M154.82,758.87l4,50.19,1.14,14.41a2.56,2.56,0,0,0,2.5,2.5,2.53,2.53,0,0,0,2.5-2.5l-4-50.19-1.15-14.41a2.55,2.55,0,0,0-2.5-2.5,2.52,2.52,0,0,0-2.5,2.5Z" transform="translate(-53.3 -69.25)"/><path class="cls-1" d="M162.11,757.13a189.32,189.32,0,0,0,6.23,48.54q1.77,6.74,4.06,13.32a2.56,2.56,0,0,0,3.07,1.75,2.53,2.53,0,0,0,1.75-3.08,183.87,183.87,0,0,1-9.65-46.85c-.32-4.55-.47-9.12-.46-13.68,0-3.22-5-3.22-5,0Z" transform="translate(-53.3 -69.25)"/><path class="cls-1" d="M157.85,789.91l13.6,1.67a2.51,2.51,0,0,0,2.5-2.5,2.57,2.57,0,0,0-2.5-2.5l-13.6-1.67a2.49,2.49,0,0,0-2.5,2.5,2.57,2.57,0,0,0,2.5,2.5Z" transform="translate(-53.3 -69.25)"/><path class="cls-1" d="M179.59,762.2l3.32,58.38.93,16.47c.19,3.2,5.19,3.22,5,0l-3.31-58.38-.94-16.47c-.18-3.2-5.18-3.22-5,0Z" transform="translate(-53.3 -69.25)"/><path class="cls-1" d="M175.87,782.69l23.83-11.85a2.52,2.52,0,0,0,.89-3.42,2.55,2.55,0,0,0-3.42-.9l-23.82,11.85a2.52,2.52,0,0,0-.9,3.42,2.56,2.56,0,0,0,3.42.9Z" transform="translate(-53.3 -69.25)"/><path class="cls-1" d="M98.3,740.93c3.22,0,3.23-5,0-5s-3.22,5,0,5Z" transform="translate(-53.3 -69.25)"/><path class="cls-1" d="M231.9,758.16a155.86,155.86,0,0,0,.35,50.36c.79,4.67,1.82,9.3,3.05,13.87.83,3.11,5.66,1.79,4.82-1.32a149.9,149.9,0,0,1-4.86-47.89q.41-6.87,1.46-13.69a2.57,2.57,0,0,0-1.75-3.07,2.51,2.51,0,0,0-3.07,1.74Z" transform="translate(-53.3 -69.25)"/><path class="cls-1" d="M224.55,757.59a117.69,117.69,0,0,0,37.38,17l-.59-4.57-29.76,14.56,2.53,4.32A61.69,61.69,0,0,1,256,780.52a53,53,0,0,1,11.53-.83c2.37.11,5.81.68,6.3,3.53.56,3.25-2,6.64-3.73,9.15-2.12,3.1-4.35,6.13-6.69,9.06a165.35,165.35,0,0,1-15.68,17.05,161.49,161.49,0,0,1-20,16.12c-2.65,1.8-.15,6.13,2.52,4.31a167.71,167.71,0,0,0,36.84-34.11c2.6-3.27,5.1-6.63,7.45-10.08,2.23-3.26,4.64-7.18,4.33-11.29-.74-9.64-12.36-9.17-19.38-8.41a66.6,66.6,0,0,0-27.93,9.54c-2.76,1.71-.35,5.72,2.53,4.32l29.75-14.56c2-1,1.4-4.06-.6-4.57a113.48,113.48,0,0,1-36.19-16.48,2.52,2.52,0,0,0-3.42.9,2.55,2.55,0,0,0,.9,3.42Z" transform="translate(-53.3 -69.25)"/><path class="cls-1" d="M293.31,768.33c-6.31,2.2-12.95,4.55-17.75,9.4-4.52,4.57-7.17,11.22-5.14,17.57,1.9,5.94,6.69,11,11.24,15.12a60.78,60.78,0,0,0,15.68,10.25,61.72,61.72,0,0,0,20.28,5.24,2.52,2.52,0,0,0,2.5-2.5,2.55,2.55,0,0,0-2.5-2.5,55.83,55.83,0,0,1-29.71-11.74,46.17,46.17,0,0,1-11.2-12.08,12,12,0,0,1-1.94-7.62,13.81,13.81,0,0,1,3.12-6.87c4.17-5.11,10.72-7.35,16.75-9.45a2.55,2.55,0,0,0,1.74-3.07,2.52,2.52,0,0,0-3.07-1.75Z" transform="translate(-53.3 -69.25)"/><path class="cls-1" d="M267.2,795,294.37,788c3.11-.8,1.79-5.62-1.33-4.82l-27.17,6.92c-3.12.8-1.79,5.62,1.33,4.83Z" transform="translate(-53.3 -69.25)"/><path class="cls-1" d="M316.62,812.56l-13.4-45.79-4.17,2.44,17.39,19.4,8.62,9.62c2.59,2.89,5.05,6.15,8.06,8.62,2.83,2.32,6.41,3.82,10,2.32a10.24,10.24,0,0,0,5.83-7.88c.65-4.2-.82-8.19-2.23-12.07l-4.43-12.14q-5-13.77-10-27.55a2.57,2.57,0,0,0-3.08-1.74,2.51,2.51,0,0,0-1.74,3.07l8.34,22.88L339.85,785a112.13,112.13,0,0,1,3.83,11c.66,2.63.82,5.86-1.34,7.89-2,1.85-4.38.66-6.13-.88a93.06,93.06,0,0,1-7.45-8L320.81,786l-18.23-20.33c-1.69-1.88-4.86.1-4.18,2.43l13.4,45.79c.9,3.09,5.73,1.77,4.82-1.33Z" transform="translate(-53.3 -69.25)"/><path class="cls-1" d="M358.15,761.64c-11.14,3-17.06,15.26-16.26,26.14.49,6.66,3.23,13,6.86,18.55a86.9,86.9,0,0,0,13,15.39c2.7,2.53,5.9,4.81,9.64,5.37s7.5-.33,10-3.17a2.57,2.57,0,0,0,0-3.54,2.54,2.54,0,0,0-3.54,0c-3.62,4.18-9.41.74-12.53-2.2a83.32,83.32,0,0,1-11.53-13.35c-5.76-8.4-9.4-19-4.85-28.77,2.12-4.54,5.65-8.29,10.57-9.6,3.1-.83,1.79-5.65-1.33-4.82Z" transform="translate(-53.3 -69.25)"/><path class="cls-1" d="M342.08,795.24l20.4-8.5a2.59,2.59,0,0,0,1.74-3.08,2.51,2.51,0,0,0-3.07-1.74l-20.4,8.5a2.58,2.58,0,0,0-1.75,3.07,2.52,2.52,0,0,0,3.08,1.75Z" transform="translate(-53.3 -69.25)"/><path class="cls-1" d="M378,815.62A179.94,179.94,0,0,0,378,763.7l-4.57,1.93a136.72,136.72,0,0,1,22,49.88c.69,3.14,5.51,1.81,4.82-1.33a140.34,140.34,0,0,0-22.51-51.07,2.51,2.51,0,0,0-4.57,1.92,171.53,171.53,0,0,1-.07,49.26,2.58,2.58,0,0,0,1.74,3.07,2.52,2.52,0,0,0,3.08-1.74Z" transform="translate(-53.3 -69.25)"/><path class="cls-1" d="M375.48,794.6a32.81,32.81,0,0,1,17.6-9.56,2.5,2.5,0,0,0-1.33-4.82A37.57,37.57,0,0,0,372,791.06c-2.23,2.32,1.3,5.87,3.53,3.54Z" transform="translate(-53.3 -69.25)"/><path class="cls-1" d="M389.41,735.07l6.28,67.66,1.77,19.09a2.57,2.57,0,0,0,2.5,2.5,2.53,2.53,0,0,0,2.5-2.5l-6.28-67.66-1.77-19.09a2.57,2.57,0,0,0-2.5-2.5,2.51,2.51,0,0,0-2.5,2.5Z" transform="translate(-53.3 -69.25)"/><path class="cls-1" d="M405.51,714.62a672.26,672.26,0,0,0,7.18,84.18q1.77,11.88,4,23.7a2.5,2.5,0,0,0,4.82-1.33,660,660,0,0,1-10.05-83q-.66-11.75-.92-23.52c-.07-3.21-5.07-3.22-5,0Z" transform="translate(-53.3 -69.25)"/><path class="cls-1" d="M418.81,712.93a459.5,459.5,0,0,0,3.34,81.48q1.5,11.48,3.55,22.88a2.53,2.53,0,0,0,3.08,1.75,2.56,2.56,0,0,0,1.75-3.08,454.34,454.34,0,0,1-7.25-80.06q0-11.49.53-23c.16-3.22-4.84-3.21-5,0Z" transform="translate(-53.3 -69.25)"/><path class="cls-1" d="M413.48,771.44l10.2-3.4a2.5,2.5,0,1,0-1.33-4.82l-10.2,3.4a2.5,2.5,0,1,0,1.33,4.82Z" transform="translate(-53.3 -69.25)"/><path class="cls-1" d="M368.17,745.69a111.66,111.66,0,0,1,51.44-13.26c3.22,0,3.23-5,0-5a117.05,117.05,0,0,0-54,13.94c-2.83,1.52-.31,5.84,2.52,4.32Z" transform="translate(-53.3 -69.25)"/><path class="cls-1" d="M443.27,788c0,6.93,0,14.18,2.46,20.75a22.75,22.75,0,0,0,12.41,13.33,15.34,15.34,0,0,0,16.15-2.64c3.85-3.4,5.81-8.61,6.66-13.56,1.06-6.25.57-12.52-.28-18.77a106.94,106.94,0,0,0-5.16-21.32c-2.21-6.22-4.94-12.41-10.35-16.51a12.42,12.42,0,0,0-7.61-2.76,10.79,10.79,0,0,0-8,4c-2.34,2.85-3.54,6.43-4.54,9.93a70.77,70.77,0,0,0-.59,36.43c.78,3.13,5.6,1.8,4.82-1.33A64.53,64.53,0,0,1,451.09,758c.78-2.09,1.91-4.44,3.89-5.63a5.44,5.44,0,0,1,5.33-.2c4.64,2.15,7.46,7.38,9.24,11.92A105.65,105.65,0,0,1,475,782.9a75.6,75.6,0,0,1,1.59,17.68c-.4,7.8-3.88,19-13.64,17.68-5.51-.74-10-5.3-12.12-10.24-2.64-6.28-2.55-13.33-2.51-20,0-3.22-5-3.22-5,0Z" transform="translate(-53.3 -69.25)"/><path class="cls-1" d="M483.51,761.22a159.92,159.92,0,0,0,9.85,27q3.09,6.57,6.79,12.82c2.24,3.78,4.51,8,7.7,11,2.88,2.78,7,4.4,10.9,2.87,3.46-1.35,5.57-4.46,6.91-7.77a34.82,34.82,0,0,0,2.06-11.26c.3-5.09.36-10.2.18-15.3a171.58,171.58,0,0,0-4.72-34.49c-.75-3.12-5.58-1.8-4.82,1.33a163.42,163.42,0,0,1,4.28,27.91c.31,4.69.42,9.4.33,14.1-.08,4-.05,8.32-.86,12.18-.59,2.81-1.58,5.8-3.63,7.71a4.42,4.42,0,0,1-2.56,1.18,5.57,5.57,0,0,1-4-1.49c-3-2.51-4.93-6.3-6.9-9.58q-3.45-5.73-6.39-11.76a152.33,152.33,0,0,1-10.32-27.81c-.82-3.11-5.64-1.79-4.82,1.33Z" transform="translate(-53.3 -69.25)"/><path class="cls-1" d="M527.71,769.69l10.2,45.9c.7,3.14,5.52,1.82,4.82-1.33l-10.2-45.9c-.7-3.14-5.52-1.81-4.82,1.33Z" transform="translate(-53.3 -69.25)"/><path class="cls-1" d="M530.14,754.12l42.3,1.68L570.28,752a122,122,0,0,1-35.79,35c-2,1.26-1.34,4.81,1.26,4.66,15-.87,29.43,7.93,36.55,20.93a36.25,36.25,0,0,1,4,11.8,2.51,2.51,0,0,0,3.07,1.74,2.56,2.56,0,0,0,1.75-3.07c-2.61-16.39-15.82-30.08-31.53-34.76a40.51,40.51,0,0,0-13.85-1.64L537,791.4a127.86,127.86,0,0,0,37.58-36.84c1.1-1.65-.38-3.69-2.16-3.76l-42.3-1.68c-3.22-.13-3.22,4.87,0,5Z" transform="translate(-53.3 -69.25)"/><path class="cls-1" d="M597.27,738.43l9.06,75.67,2.54,21.27a2.58,2.58,0,0,0,2.5,2.5,2.51,2.51,0,0,0,2.5-2.5l-9-75.67-2.55-21.27a2.57,2.57,0,0,0-2.5-2.5,2.52,2.52,0,0,0-2.5,2.5Z" transform="translate(-53.3 -69.25)"/><path class="cls-1" d="M588.11,747.14a159.5,159.5,0,0,1,39.17-24.07c4-1.72,8.08-3.25,12.21-4.63,3-1,1.73-5.84-1.33-4.82a163.79,163.79,0,0,0-42.75,21.62q-5.58,4-10.83,8.37a2.5,2.5,0,0,0,0,3.53,2.54,2.54,0,0,0,3.53,0Z" transform="translate(-53.3 -69.25)"/><path class="cls-1" d="M584.82,792.75A241.27,241.27,0,0,0,621,764.62q4.79-4.51,9.31-9.29c2.21-2.34-1.32-5.88-3.54-3.54A234.5,234.5,0,0,1,593,781.21c-3.51,2.51-7.08,4.91-10.72,7.23-2.71,1.72-.21,6,2.52,4.31Z" transform="translate(-53.3 -69.25)"/><path class="cls-1" d="M646.93,747.35l-21.56,33.73c-1.36,2.12,1.32,4.68,3.42,3.42,6.51-3.93,14.19.83,18.75,5.58,5.7,5.94,9.94,13.31,17.33,17.45a18.76,18.76,0,0,0,13.64,2.29c3.12-.75,1.8-5.58-1.33-4.82-8,1.93-14.81-5-19.42-10.56-5.23-6.33-10.31-13.13-18.56-15.56a16.2,16.2,0,0,0-12.94,1.3l3.42,3.42,21.57-33.73c1.74-2.72-2.59-5.23-4.32-2.52Z" transform="translate(-53.3 -69.25)"/><path class="cls-1" d="M624.79,779.53a68.08,68.08,0,0,1,31.14-9.63c3.19-.19,3.22-5.19,0-5a73.58,73.58,0,0,0-33.67,10.31c-2.75,1.65-.24,6,2.53,4.32Z" transform="translate(-53.3 -69.25)"/><path class="cls-1" d="M677.05,744.55c-1,4.34-4.93,7.11-8.22,9.73-3.91,3.13-7.83,7.11-8.52,12.31-.81,6.08,3.78,9.69,8,13.09l14.33,11.5,16.27,13.05a2.57,2.57,0,0,0,3.54,0,2.51,2.51,0,0,0,0-3.53l-27.7-22.23c-2.14-1.71-4.34-3.37-6.41-5.18-1.59-1.38-3.15-3-3.17-5.24,0-4.48,4.31-7.94,7.47-10.46,3.92-3.14,8-6.57,9.21-11.71.72-3.13-4.1-4.47-4.82-1.33Z" transform="translate(-53.3 -69.25)"/><path class="cls-1" d="M660.58,778a55.18,55.18,0,0,1,31-9.86c3.22,0,3.23-5,0-5a59.88,59.88,0,0,0-33.56,10.54,2.56,2.56,0,0,0-.9,3.42,2.53,2.53,0,0,0,3.42.9Z" transform="translate(-53.3 -69.25)"/><path class="cls-1" d="M714.71,744.19a214,214,0,0,1,8.42,52.29q.25,7.51,0,15c-.11,3.22,4.89,3.21,5,0a219.41,219.41,0,0,0-4.83-53.85q-1.6-7.47-3.76-14.82c-.89-3.08-5.72-1.77-4.82,1.33Z" transform="translate(-53.3 -69.25)"/><path class="cls-1" d="M698.42,759.63a145.65,145.65,0,0,0,50-10.29,2.58,2.58,0,0,0,1.74-3.08,2.5,2.5,0,0,0-3.07-1.74,141.67,141.67,0,0,1-48.64,10.11c-3.21.09-3.22,5.09,0,5Z" transform="translate(-53.3 -69.25)"/><path class="cls-1" d="M69.11,953.56q-6.47-41-8.81-82.57-.67-11.81-1-23.63l-4.91.67q18.39,43.86,36.79,87.73l10.4,24.81a2.58,2.58,0,0,0,3.07,1.75,2.53,2.53,0,0,0,1.75-3.08Q88,915.37,69.6,871.5L59.2,846.7a2.54,2.54,0,0,0-2.74-1.79,2.49,2.49,0,0,0-2.17,2.45q1.22,42.1,6.62,83.95,1.53,11.81,3.37,23.58a2.54,2.54,0,0,0,3.08,1.75,2.58,2.58,0,0,0,1.75-3.08Z" transform="translate(-53.3 -69.25)"/><path class="cls-1" d="M57.07,937.79l22.1-11.9c2.83-1.52.31-5.84-2.53-4.32l-22.1,11.9c-2.83,1.53-.31,5.85,2.53,4.32Z" transform="translate(-53.3 -69.25)"/><path class="cls-1" d="M104.69,946.75a264.88,264.88,0,0,0-18-54.08l-3.93,3,37.89,40.11c1.59,1.69,4.1.27,4.27-1.77a122.42,122.42,0,0,0-9.38-57.36,2.51,2.51,0,0,0-3.42-.9,2.57,2.57,0,0,0-.9,3.42,117.15,117.15,0,0,1,8.7,54.84l4.27-1.77L86.27,892.16A2.51,2.51,0,0,0,83,892a2.55,2.55,0,0,0-.64,3.22,259.25,259.25,0,0,1,17.53,52.89c.68,3.14,5.5,1.81,4.82-1.33Z" transform="translate(-53.3 -69.25)"/><path class="cls-1" d="M121.31,888a215.52,215.52,0,0,0,14.43,58.24,2.54,2.54,0,0,0,2.75,1.79,2.48,2.48,0,0,0,2.16-2.46,203.74,203.74,0,0,0-12.05-64q-3.16-8.73-7.11-17.14l-3.92,3c9.34,9.59,18.84,19.66,24.41,32a42.32,42.32,0,0,1,3.9,18.52,36.63,36.63,0,0,1-5.07,17.25,37.17,37.17,0,0,1-14.66,14.13c-2.84,1.5-.32,5.82,2.53,4.32a42.66,42.66,0,0,0,21.95-32.37c1.73-14.27-4.84-27.88-13.23-39a198,198,0,0,0-16.3-18.44,2.5,2.5,0,0,0-3.28-.2,2.55,2.55,0,0,0-.64,3.23,197.89,197.89,0,0,1,17.22,60.79q1,8.89,1.25,17.86l4.92-.66A210.63,210.63,0,0,1,126.31,888a2.58,2.58,0,0,0-2.5-2.5,2.51,2.51,0,0,0-2.5,2.5Z" transform="translate(-53.3 -69.25)"/><path class="cls-1" d="M158.83,888.69a183.48,183.48,0,0,0,16.9,51.18,2.52,2.52,0,0,0,2.82,1.15,2.61,2.61,0,0,0,1.84-2.41,115,115,0,0,0-7.46-56.55L168.36,884l30.15,42.45a2.52,2.52,0,0,0,4.65-1.26,192.46,192.46,0,0,0-6-59.78c-.82-3.11-5.64-1.79-4.82,1.33a187.83,187.83,0,0,1,5.84,58.45l4.66-1.26-30.14-42.45a2.53,2.53,0,0,0-3.12-1,2.47,2.47,0,0,0-1.45,2.95,111.88,111.88,0,0,1,7.28,55.22l4.66-1.26a179.1,179.1,0,0,1-16.4-50,2.51,2.51,0,0,0-3.07-1.74,2.55,2.55,0,0,0-1.75,3.07Z" transform="translate(-53.3 -69.25)"/><path class="cls-1" d="M220.52,888.4c-2-3.8-6.5-5-10.52-4.27-4.52.85-7.68,4.46-9,8.73-1.38,4.57-.75,9.64.61,14.13a37.86,37.86,0,0,0,6.55,12.41,36.56,36.56,0,0,0,11.88,9.8c2.86,1.46,5.39-2.85,2.52-4.32a32.55,32.55,0,0,1-15-16.16A26.59,26.59,0,0,1,205.28,898c.07-3.19,1.15-6.83,4-8.35a7,7,0,0,1,3.76-.72,4.26,4.26,0,0,1,2,.69,3.26,3.26,0,0,1,1.16,1.34c1.52,2.83,5.84.31,4.31-2.53Z" transform="translate(-53.3 -69.25)"/><path class="cls-1" d="M202,912.38l13.6-1.7a2.57,2.57,0,0,0,2.5-2.5c-.06-1.22-1.11-2.67-2.5-2.5l-13.6,1.7a2.55,2.55,0,0,0-2.5,2.5c.05,1.21,1.11,2.67,2.5,2.5Z" transform="translate(-53.3 -69.25)"/><path class="cls-1" d="M220,864.9l6.79,37.4a2.53,2.53,0,0,0,3.07,1.75,2.56,2.56,0,0,0,1.75-3.08l-6.79-37.4A2.5,2.5,0,0,0,220,864.9Z" transform="translate(-53.3 -69.25)"/><path class="cls-1" d="M236.54,897.38l13.76,35.43a2.51,2.51,0,0,0,4.91-.66L258.78,882l1-14.4a2.5,2.5,0,0,0-5,0l-3.57,50.16-1,14.41,4.91-.67-13.76-35.43a2.58,2.58,0,0,0-3.07-1.75,2.52,2.52,0,0,0-1.75,3.08Z" transform="translate(-53.3 -69.25)"/><path class="cls-1" d="M277.45,881.82a74.56,74.56,0,0,0-19.08,31.61,2.58,2.58,0,0,0,1.15,2.83l38,26.85a2.51,2.51,0,0,0,3.42-.9,2.55,2.55,0,0,0-.89-3.42l-38-26.85,1.15,2.82a69.37,69.37,0,0,1,17.8-29.4c2.3-2.26-1.24-5.8-3.54-3.54Z" transform="translate(-53.3 -69.25)"/><path class="cls-1" d="M257.07,912.54l22.1-3.4a2.51,2.51,0,0,0,1.75-3.07,2.56,2.56,0,0,0-3.07-1.75l-22.1,3.4A2.52,2.52,0,0,0,254,910.8a2.55,2.55,0,0,0,3.07,1.74Z" transform="translate(-53.3 -69.25)"/><path class="cls-1" d="M317.54,889.66l-23,25.8a2.54,2.54,0,0,0,1.77,4.27c8.46.68,14.58,7.93,19.24,14.31,5.57,7.63,10.61,15.86,19,20.79a21,21,0,0,0,15.15,2.76c3.15-.67,1.82-5.49-1.33-4.82-8.91,1.9-16.57-5.48-21.68-11.81-5.56-6.89-9.71-14.91-16.75-20.53a24.73,24.73,0,0,0-13.59-5.7l1.77,4.27,23-25.8c2.13-2.4-1.39-6-3.54-3.54Z" transform="translate(-53.3 -69.25)"/><path class="cls-1" d="M304.78,928.27l22.09-5.14c3.13-.73,1.8-5.55-1.33-4.82l-22.09,5.14c-3.14.73-1.81,5.55,1.33,4.82Z" transform="translate(-53.3 -69.25)"/><path class="cls-1" d="M333.87,932.21l.64-50.07-4.27,1.77a126.68,126.68,0,0,1,26.55,44.2,2.56,2.56,0,0,0,3.07,1.75,2.53,2.53,0,0,0,1.75-3.08,132.9,132.9,0,0,0-27.83-46.41c-1.51-1.63-4.24-.32-4.27,1.77l-.64,50.07c0,3.22,5,3.22,5,0Z" transform="translate(-53.3 -69.25)"/><path class="cls-1" d="M331.21,910.93h17a2.5,2.5,0,0,0,0-5h-17a2.5,2.5,0,1,0,0,5Z" transform="translate(-53.3 -69.25)"/><path class="cls-1" d="M356,910.8l5.14,28.41a2.52,2.52,0,0,0,3.07,1.75,2.58,2.58,0,0,0,1.75-3.08l-1.74-11.41a2.51,2.51,0,0,0-3.07-1.75,2.57,2.57,0,0,0-1.75,3.08l1.74,11.41,4.82-1.33-5.14-28.41a2.52,2.52,0,0,0-3.07-1.75A2.56,2.56,0,0,0,356,910.8Z" transform="translate(-53.3 -69.25)"/><path class="cls-1" d="M364.77,902.09,377.94,892l-3.42-3.42-16,21.63a2.51,2.51,0,0,0,1.49,3.67,65.09,65.09,0,0,1,35.69,20.1c2.17,2.39,5.7-1.15,3.54-3.53A69.53,69.53,0,0,0,361.29,909l1.49,3.67,16.06-21.63c1.45-1.95-1.47-4.93-3.42-3.42l-13.17,10.14a2.59,2.59,0,0,0-.9,3.42,2.51,2.51,0,0,0,3.42.9Z" transform="translate(-53.3 -69.25)"/><path class="cls-1" d="M389.72,929.87l-8.34-33.09-4.57,1.92c2.7,5.1,5.5,10.27,9.54,14.45a23.49,23.49,0,0,0,14.79,7.39,15.69,15.69,0,0,0,13.6-5.74,21.83,21.83,0,0,0,4.51-14.35c-.28-7.19-3.35-13.8-6.38-20.19a2.52,2.52,0,0,0-3.42-.9,2.55,2.55,0,0,0-.9,3.42c3.91,8.25,8.61,18.51,3.43,27.28a10.89,10.89,0,0,1-9.71,5.54,17.71,17.71,0,0,1-11.8-5.39c-4.05-4-6.72-9.07-9.34-14-1.36-2.55-5.26-.77-4.57,1.93l8.34,33.09c.79,3.12,5.61,1.79,4.82-1.33Z" transform="translate(-53.3 -69.25)"/><path class="cls-1" d="M433.15,881.16l-16.38,16.46a2.52,2.52,0,0,0,0,3.53l19.1,17.58,9.65,8.87c2.68,2.47,5.57,6,9.28,6.79,4,.9,9.15-2.54,7.6-7.08a2.57,2.57,0,0,0-3.08-1.75,2.54,2.54,0,0,0-1.75,3.08c.22.62.06.29.11.17a1.21,1.21,0,0,1-.44.51,1.62,1.62,0,0,1-1.48.15c-1.63-.46-2.95-2-4.16-3.06l-10.37-9.54-20.92-19.25v3.53l16.37-16.45c2.28-2.28-1.26-5.82-3.53-3.54Z" transform="translate(-53.3 -69.25)"/><path class="cls-1" d="M416.8,913.8l20.4-3.43a2.53,2.53,0,0,0,1.75-3.08,2.57,2.57,0,0,0-3.08-1.75L415.48,909a2.51,2.51,0,0,0-1.75,3.07,2.56,2.56,0,0,0,3.07,1.75Z" transform="translate(-53.3 -69.25)"/><path class="cls-1" d="M449.36,893.82l6.84,37.4a2.51,2.51,0,0,0,3.07,1.74,2.55,2.55,0,0,0,1.75-3.07l-6.84-37.4a2.5,2.5,0,0,0-4.82,1.33Z" transform="translate(-53.3 -69.25)"/><path class="cls-1" d="M448.8,883.63a44.33,44.33,0,0,0,35.49,5.22l-3.08-3.07-16.4,44.09a2.53,2.53,0,0,0,1.75,3.08,2.57,2.57,0,0,0,3.08-1.75L486,887.11c.68-1.83-1.36-3.56-3.07-3.08a39.36,39.36,0,0,1-31.64-4.72c-2.72-1.74-5.23,2.59-2.52,4.32Z" transform="translate(-53.3 -69.25)"/><path class="cls-1" d="M510.81,885a72.76,72.76,0,0,1-20.53,21.73,2.52,2.52,0,0,0,0,4.31,219.63,219.63,0,0,1,41.49,32.5q5.28,5.26,10.18,10.88a2.5,2.5,0,0,0,3.54-3.53,224.63,224.63,0,0,0-39.84-35.78q-6.28-4.41-12.85-8.38V911a78.66,78.66,0,0,0,22.33-23.52c1.69-2.75-2.63-5.26-4.32-2.52Z" transform="translate(-53.3 -69.25)"/><path class="cls-1" d="M497.79,914.75l25.51,1.58c3.21.2,3.2-4.81,0-5l-25.51-1.58c-3.21-.2-3.2,4.8,0,5Z" transform="translate(-53.3 -69.25)"/><path class="cls-1" d="M530.88,899.82,554.53,935c1.31,2,4.73,1.36,4.66-1.26a174.34,174.34,0,0,0-8.35-48.58c-1.43-4.42-3.05-8.78-4.83-13.07a2.59,2.59,0,0,0-3.08-1.75,2.52,2.52,0,0,0-1.75,3.08,169.26,169.26,0,0,1,12.07,46.65c.5,4.54.8,9.1.94,13.67l4.65-1.26L535.2,897.29c-1.79-2.66-6.12-.16-4.32,2.53Z" transform="translate(-53.3 -69.25)"/><path class="cls-1" d="M571.66,879.12l-12.94,18.7c-2.14,3.09-4.34,6.15-6.43,9.28-1.83,2.73-3.23,6.34-1.17,9.38,1.57,2.3,4.23,3,6.82,3.5a20.53,20.53,0,0,1,3.49.79,9.58,9.58,0,0,1,3.24,2.21c4.22,4.14,6.39,10.29,12,13a10.08,10.08,0,0,0,9.3-.07c2.63-1.37,4.66-4.19,4.31-7.26a2.58,2.58,0,0,0-2.5-2.5,2.51,2.51,0,0,0-2.5,2.5,2,2,0,0,1-.49,2,5.24,5.24,0,0,1-1.73,1.16c-2,.75-3.71.23-5.46-1-4.08-3-6-8.11-9.64-11.54a14.4,14.4,0,0,0-6.9-3.69c-1-.22-2-.36-3-.58a13.28,13.28,0,0,1-1.5-.4c-.86-.3.1.08-.36-.14-.11,0-.68-.42-.54-.3a1.54,1.54,0,0,1-.37-1.87,14.14,14.14,0,0,1,2.18-3.73l5.62-8.13,13-18.69a2.51,2.51,0,0,0-.9-3.42,2.55,2.55,0,0,0-3.42.89Z" transform="translate(-53.3 -69.25)"/><path class="cls-1" d="M554.55,915.75l23.78-3.56a2.53,2.53,0,0,0,1.75-3.08,2.58,2.58,0,0,0-3.08-1.75l-23.77,3.57a2.52,2.52,0,0,0-1.75,3.08,2.55,2.55,0,0,0,3.07,1.74Z" transform="translate(-53.3 -69.25)"/><path class="cls-1" d="M582,903.33a60.13,60.13,0,0,0,7.72,32.53,2.5,2.5,0,0,0,4.32-2.53,65.51,65.51,0,0,1-.5-51.18l-4.82-1.33-8.21,32.79c-.42,1.68,1.21,3.82,3.07,3.08,8.92-3.57,20.64.71,24.38,9.94a2.58,2.58,0,0,0,3.08,1.74,2.51,2.51,0,0,0,1.74-3.07c-4.66-11.5-18.79-18.13-30.53-13.43l3.08,3.07,8.21-32.79a2.5,2.5,0,0,0-4.82-1.33,69.73,69.73,0,0,0,1,55l4.32-2.53a55.22,55.22,0,0,1-7-30c.16-3.21-4.84-3.21-5,0Z" transform="translate(-53.3 -69.25)"/><path class="cls-1" d="M605.91,886.32a46.37,46.37,0,0,0,12.4,27.41c2.22,2.35,5.75-1.19,3.54-3.53a40.86,40.86,0,0,1-10.94-23.88,2.57,2.57,0,0,0-2.5-2.5,2.52,2.52,0,0,0-2.5,2.5Z" transform="translate(-53.3 -69.25)"/><path class="cls-1" d="M636.78,880.67l-33.34,88.6L594,994.45a2.5,2.5,0,1,0,4.82,1.33l33.35-88.6L641.6,882a2.52,2.52,0,0,0-1.75-3.08,2.56,2.56,0,0,0-3.07,1.75Z" transform="translate(-53.3 -69.25)"/><path class="cls-1" d="M92.49,1029.8l22.1,54.4a2.59,2.59,0,0,0,3.08,1.75,2.52,2.52,0,0,0,1.75-3.08l-22.1-54.4a2.58,2.58,0,0,0-3.08-1.74,2.52,2.52,0,0,0-1.75,3.07Z" transform="translate(-53.3 -69.25)"/><path class="cls-1" d="M89.79,1009.77l60.68,3.49L148.7,1009a104.81,104.81,0,0,0-30.52,46.59,100.54,100.54,0,0,0-3.65,15.38,2.59,2.59,0,0,0,1.75,3.08,2.5,2.5,0,0,0,3.07-1.75,99.09,99.09,0,0,1,32.89-59.76c1.74-1.52.24-4.15-1.77-4.27l-60.68-3.49c-3.21-.19-3.2,4.81,0,5Z" transform="translate(-53.3 -69.25)"/><path class="cls-1" d="M170.51,1071.64l-8.06-60.86-4.27,1.77a209.58,209.58,0,0,1,31.37,49.63c2.28,5,4.33,10.18,6.19,15.39a2.5,2.5,0,0,0,4.82-1.33,214.06,214.06,0,0,0-28.21-53.69q-5-7-10.63-13.54c-1.32-1.55-4.55-.37-4.27,1.77l8.06,60.86a2.58,2.58,0,0,0,2.5,2.5c1.21,0,2.68-1.16,2.5-2.5Z" transform="translate(-53.3 -69.25)"/><path class="cls-1" d="M163,1061.5a47.82,47.82,0,0,1,24.4-13,2.5,2.5,0,1,0-1.33-4.82,52.3,52.3,0,0,0-26.6,14.24c-2.28,2.27,1.25,5.81,3.53,3.53Z" transform="translate(-53.3 -69.25)"/><path class="cls-1" d="M204.58,1043.45l13.55,32.32a2.58,2.58,0,0,0,3.07,1.75,2.52,2.52,0,0,0,1.75-3.08l-13.54-32.32a2.59,2.59,0,0,0-3.08-1.75,2.53,2.53,0,0,0-1.75,3.08Z" transform="translate(-53.3 -69.25)"/><path class="cls-1" d="M202.81,1025.74l.25-4.85-1.83,2.41,20.39-2.9-2.44-4.18c-7.33,6.85-16,16.17-15.58,27,.21,5.59,3.07,10.26,7,14.11,4.39,4.33,9.23,8.25,13.86,12.33L240.77,1084a2.55,2.55,0,0,0,3.53,0,2.53,2.53,0,0,0,0-3.54q-13.67-12-27.34-24c-3.53-3.14-7.13-6.5-8.14-11.31-.9-4.3.72-8.69,2.86-12.36,2.88-4.93,6.89-9.11,11-13a2.54,2.54,0,0,0,.39-3,2.65,2.65,0,0,0-2.82-1.15l-20.39,2.91a2.53,2.53,0,0,0-1.84,2.41l-.25,4.85c-.17,3.21,4.83,3.2,5,0Z" transform="translate(-53.3 -69.25)"/><path class="cls-1" d="M243.58,1006.06l15.89,55.59,4.51,15.81c.89,3.09,5.71,1.78,4.83-1.33l-15.89-55.58-4.51-15.82c-.89-3.09-5.71-1.77-4.83,1.33Z" transform="translate(-53.3 -69.25)"/><path class="cls-1" d="M244.15,1034.86l30.58-15.34c2.88-1.45.35-5.76-2.52-4.32l-30.58,15.34c-2.88,1.45-.35,5.76,2.52,4.32Z" transform="translate(-53.3 -69.25)"/><path class="cls-1" d="M307.12,1048.53c4.53,11.89,10.11,25,23.28,29.27,5.6,1.81,12.05,1.4,16.92-2.12a19.61,19.61,0,0,0,7.61-12.5c2-10.8-1.74-22.19-8.39-30.71-3.61-4.63-8.43-8.65-14.18-10.26a19.53,19.53,0,0,0-16.65,3,28.57,28.57,0,0,0-10.65,16.28c-2,8.14-1.19,16.59-.29,24.82a2.56,2.56,0,0,0,2.5,2.5,2.53,2.53,0,0,0,2.5-2.5c-1.24-11.36-2.75-24.86,5.55-34.08,3.16-3.5,7.38-5.89,12.19-5.78s9.26,2.86,12.62,6.24a35.6,35.6,0,0,1,10.33,25.72c-.13,3.88-1.17,8.1-3.67,11a13,13,0,0,1-11.81,4.29c-13.25-1.81-18.87-15.62-23-26.55a2.57,2.57,0,0,0-3.07-1.75,2.53,2.53,0,0,0-1.75,3.08Z" transform="translate(-53.3 -69.25)"/><path class="cls-1" d="M352.93,990.6l18.12,62.32,5.16,17.74c.89,3.08,5.72,1.77,4.82-1.33L362.91,1007l-5.15-17.74c-.9-3.08-5.73-1.77-4.83,1.33Z" transform="translate(-53.3 -69.25)"/><path class="cls-1" d="M361.37,1044.89l17-10.2a2.5,2.5,0,1,0-2.52-4.31l-17,10.2a2.5,2.5,0,1,0,2.52,4.31Z" transform="translate(-53.3 -69.25)"/><path class="cls-1" d="M413.8,1036.6l10.2,32.3c1,3.06,5.8,1.75,4.83-1.33l-10.2-32.3c-1-3.06-5.8-1.75-4.83,1.33Z" transform="translate(-53.3 -69.25)"/><path class="cls-1" d="M440.66,1014.59l15.9,64.89,4.52,18.4c.76,3.13,5.58,1.8,4.82-1.33L450,1031.66l-4.51-18.4c-.77-3.13-5.59-1.8-4.82,1.33Z" transform="translate(-53.3 -69.25)"/><path class="cls-1" d="M424,1024.05a262.05,262.05,0,0,0,64.86-29.23q8.61-5.4,16.78-11.47a2.59,2.59,0,0,0,.9-3.42,2.52,2.52,0,0,0-3.42-.9,257.31,257.31,0,0,1-61.61,33.84q-9.3,3.54-18.84,6.36c-3.08.91-1.77,5.74,1.33,4.82Z" transform="translate(-53.3 -69.25)"/><path class="cls-1" d="M409.41,987.43c3.22,0,3.23-5,0-5s-3.22,5,0,5Z" transform="translate(-53.3 -69.25)"/></svg>
