<svg id="Layer_35" data-name="Layer 35" xmlns="http://www.w3.org/2000/svg" viewBox="0 0 819.08 1082.06"><defs><style>.cls-1{fill:#952c1f;}</style></defs><path class="cls-1" d="M70,263.48a528.46,528.46,0,0,1-26.09-65.76q-3.06-9.54-5.76-19.19l-4.57,1.92L87,258.62,102,280.42a2.51,2.51,0,0,0,4.57-1.93l-16.7-70.11-16.7-70.11L63.76,99l-4.57,1.93,39.27,68,39,67.53,22,38.1c1.61,2.78,5.93.27,4.32-2.52l-39.27-68-39-67.53-22-38.1c-1.44-2.49-5.22-.81-4.57,1.93l16.7,70.11,16.7,70.11,9.36,39.3,4.57-1.92L52.82,199.73l-14.91-21.8c-1.55-2.25-5.37-.93-4.57,1.93a536.93,536.93,0,0,0,24,67.68q4,9.3,8.38,18.46a2.52,2.52,0,0,0,3.42.9,2.56,2.56,0,0,0,.9-3.42Z" transform="translate(-33.23 -47.25)"/><path class="cls-1" d="M115.77,162.41a200.13,200.13,0,0,0,34,51.19q5.9,6.47,12.35,12.37c2,1.79,4.55,0,4.18-2.43a750.22,750.22,0,0,0-24.78-106.91Q137,102,131.79,87.48A2.51,2.51,0,0,0,127,88.81l19.39,116,19.39,116,10.87,65a2.53,2.53,0,0,0,3.08,1.75,2.57,2.57,0,0,0,1.75-3.08l-19.39-116-19.39-116-10.87-65L127,88.81A748,748,0,0,1,156.12,194.6q3,15.08,5.35,30.27l4.18-2.44A195.75,195.75,0,0,1,128,175.21c-2.85-5-5.47-10.11-7.87-15.32a2.52,2.52,0,0,0-3.42-.9,2.55,2.55,0,0,0-.89,3.42Z" transform="translate(-33.23 -47.25)"/><path class="cls-1" d="M204.83,192.06c3.22,0,3.22-5,0-5s-3.22,5,0,5Z" transform="translate(-33.23 -47.25)"/><path class="cls-1" d="M198.89,163.83l-8.15-28.29-4.82,1.33q12.65,31.08,26.35,61.71t28.4,60.62q8.28,16.94,16.91,33.7c1.47,2.86,5.79.33,4.32-2.53q-15.25-29.65-29.47-59.83T205.13,170q-7.37-17.14-14.39-34.41a2.58,2.58,0,0,0-3.07-1.75,2.54,2.54,0,0,0-1.75,3.08l8.14,28.28c.89,3.09,5.72,1.78,4.83-1.32Z" transform="translate(-33.23 -47.25)"/><path class="cls-1" d="M206,50.31l16.1,48.86,16,48.62,16.09,48.86,16.1,48.86,16,48.62,2,6.17c1,3,5.84,1.74,4.83-1.33l-16.1-48.86-16-48.62L245,152.63l-16.1-48.86-16-48.62-2-6.17c-1-3-5.83-1.74-4.82,1.33Z" transform="translate(-33.23 -47.25)"/><path class="cls-1" d="M210.33,256l40.36-53.38,11.45-15.14a2.52,2.52,0,0,0-.9-3.42,2.56,2.56,0,0,0-3.42.89l-40.36,53.39L206,253.48a2.52,2.52,0,0,0,.9,3.42,2.56,2.56,0,0,0,3.42-.9Z" transform="translate(-33.23 -47.25)"/><path class="cls-1" d="M288,129.89a266.29,266.29,0,0,0-23.93,48.8q-2.35,6.39-4.39,12.89a106.36,106.36,0,0,0-3.26,12,27.23,27.23,0,0,0,0,11.85,15.25,15.25,0,0,0,6.67,9.08c6.25,3.93,14.05,3.16,21,4.9s12.92,6.21,18.16,11.06c5.53,5.12,10.52,10.8,16.26,15.69a79.14,79.14,0,0,0,20.2,12.54,83.11,83.11,0,0,0,46.66,5.66q2.91-.5,5.77-1.23c3.12-.78,1.8-5.61-1.32-4.82A77.17,77.17,0,0,1,345.36,266a76.23,76.23,0,0,1-19.85-10.57c-5.9-4.37-10.88-9.8-16.07-14.94s-10.6-10.11-17.13-13.3A36,36,0,0,0,282,223.91c-3.51-.56-7.07-.79-10.54-1.54-3.09-.66-6.13-1.76-8.22-4.24s-2.6-6-2.45-9.27a47.65,47.65,0,0,1,2.23-11c1.2-4.14,2.5-8.26,3.91-12.33a259,259,0,0,1,22-47.54q1.68-2.83,3.43-5.62c1.71-2.74-2.62-5.25-4.32-2.53Z" transform="translate(-33.23 -47.25)"/><path class="cls-1" d="M257.9,240.19,308,211.77c2.8-1.58.28-5.9-2.52-4.31l-50.14,28.41c-2.8,1.59-.28,5.91,2.52,4.32Z" transform="translate(-33.23 -47.25)"/><path class="cls-1" d="M369.6,270.69q-13.49-33-24.59-66.92t-19.74-68.51q-4.83-19.36-8.89-38.93l-4.56,1.93Q333.56,135.51,354,173.5q20.3,37.78,39.22,76.26Q403.8,271.38,414,293.2a2.52,2.52,0,0,0,3.42.9,2.55,2.55,0,0,0,.89-3.42q-18.26-39.06-37.9-77.46Q360.89,175,340,137.58q-11.73-21-23.88-41.84c-1.47-2.53-5.13-.8-4.57,1.92q7.24,34.92,17,69.25t21.88,67.85q6.81,18.78,14.37,37.26a2.58,2.58,0,0,0,3.08,1.74,2.5,2.5,0,0,0,1.74-3.07Z" transform="translate(-33.23 -47.25)"/><path class="cls-1" d="M352,243.14l36.77-30.09a2.5,2.5,0,0,0,0-3.53,2.55,2.55,0,0,0-3.54,0L348.47,239.6a2.52,2.52,0,0,0,0,3.54,2.55,2.55,0,0,0,3.53,0Z" transform="translate(-33.23 -47.25)"/><path class="cls-1" d="M367.85,128.4l22.78,60.13,22.7,59.91,12.8,33.8A2.56,2.56,0,0,0,429.2,284a2.52,2.52,0,0,0,1.75-3.07l-22.78-60.14-22.69-59.9-12.8-33.8a2.57,2.57,0,0,0-3.08-1.75,2.53,2.53,0,0,0-1.75,3.08Z" transform="translate(-33.23 -47.25)"/><path class="cls-1" d="M368.44,147.57l39.11-34.48,11.17-9.85-4.18-2.43-31.37,77.87-8.78,21.78a2.5,2.5,0,0,0,2.41,3.16c19.2-1.89,34.62,13.11,44.19,28.06,10.8,16.88,18.08,36.39,33.46,49.92,7.83,6.89,17.28,11.84,27.82,12.56a2.5,2.5,0,0,0,0-5c-18.7-1.27-32.14-17.26-41.07-32.2-10.4-17.4-18.37-36.85-35.19-49.25-8.37-6.16-18.7-10.12-29.21-9.09l2.41,3.17,31.38-77.87,8.78-21.78a2.54,2.54,0,0,0-1.15-2.83,2.59,2.59,0,0,0-3,.4l-39.11,34.47L364.91,144a2.52,2.52,0,0,0,0,3.54,2.55,2.55,0,0,0,3.53,0Z" transform="translate(-33.23 -47.25)"/><path class="cls-1" d="M420,137.32q11.67,22.38,21.12,45.81T457.67,231q4,13.77,7.28,27.74c.73,3.13,5.55,1.8,4.82-1.33q-5.82-24.9-14-49.13T437,160.79q-6-13.17-12.65-26c-1.49-2.86-5.81-.33-4.32,2.52Z" transform="translate(-33.23 -47.25)"/><path class="cls-1" d="M437.63,142.36l17.64-28-4.57-1.92a154.92,154.92,0,0,1-29,60.31A156.82,156.82,0,0,1,409,186.92l4.18,2.44a456.36,456.36,0,0,1,23.13-48.57q3.71-6.72,7.62-13.31L439.58,125,413.74,176c-1.45,2.86,2.6,5.27,4.32,2.52a270.54,270.54,0,0,0,23.56-47.75c1-2.62-3.42-4.52-4.57-1.93l-13.77,31a2.58,2.58,0,0,0,.9,3.42,2.52,2.52,0,0,0,3.42-.9l13.77-31-4.57-1.93A264.35,264.35,0,0,1,413.74,176l4.32,2.52,25.84-51.06c1.44-2.85-2.66-5.31-4.32-2.52a462.78,462.78,0,0,0-25.11,48.58q-3.18,7.19-6.14,14.49c-1,2.42,2.53,4.06,4.18,2.43a160.66,160.66,0,0,0,37.39-58.09,157.06,157.06,0,0,0,5.62-18.62,2.51,2.51,0,0,0-4.57-1.93l-17.63,28c-1.72,2.73,2.6,5.24,4.31,2.52Z" transform="translate(-33.23 -47.25)"/><path class="cls-1" d="M499.08,152l15,50.24,15,50.23,8.42,28.23c.92,3.08,5.75,1.77,4.82-1.33l-15-50.23-15-50.24L503.9,150.7c-.92-3.07-5.74-1.76-4.82,1.33Z" transform="translate(-33.23 -47.25)"/><path class="cls-1" d="M561.22,105.16l-24.85,76.5L529.43,203c-.77,2.38,2.49,4.22,4.18,2.43a155.19,155.19,0,0,1,72.79-43.68l-2.82-3.67a193.33,193.33,0,0,0-22,58,198.55,198.55,0,0,0-2.83,62,192.15,192.15,0,0,0,7.1,34.39c.94,3.07,5.77,1.76,4.82-1.33a188.83,188.83,0,0,1-8.1-59.94,194,194,0,0,1,10.95-59.53,185.59,185.59,0,0,1,14.33-31.07,2.52,2.52,0,0,0-2.82-3.67,162,162,0,0,0-60.91,31.72,156.16,156.16,0,0,0-14.09,13.25l4.18,2.43,24.85-76.5L566,106.49c1-3.07-3.83-4.38-4.82-1.33Z" transform="translate(-33.23 -47.25)"/><path class="cls-1" d="M499.82,67.56V70.9a2.61,2.61,0,0,0,.73,1.77,1.93,1.93,0,0,0,.81.51,1.88,1.88,0,0,0,1,.22,2.53,2.53,0,0,0,1.77-.73,2.59,2.59,0,0,0,.73-1.77V67.56a2.57,2.57,0,0,0-.73-1.77,1.85,1.85,0,0,0-.81-.52,1.74,1.74,0,0,0-1-.21,2.51,2.51,0,0,0-1.77.73,2.64,2.64,0,0,0-.73,1.77Z" transform="translate(-33.23 -47.25)"/><path class="cls-1" d="M63.66,534.53Q71.61,558.08,81.34,581t21.06,44.82q6.43,12.45,13.4,24.62c1.6,2.79,5.93.27,4.32-2.53q-12.24-21.39-22.86-43.66-10.51-22.07-19.33-44.88-5-13-9.45-26.14c-1-3-5.86-1.73-4.82,1.33Z" transform="translate(-33.23 -47.25)"/><path class="cls-1" d="M50.41,476.09a300.4,300.4,0,0,0,79.7.7q11.35-1.44,22.59-3.71l-1.92-4.56c-15.72,8.23-28.4,21.27-38,36.07-10.7,16.54-17.41,35.3-22.39,54.26-3,11.35-5.36,22.84-7.75,34.32-.65,3.13,3.9,4.44,4.82,1.33,4.3-14.5,9.81-32.42,25.6-38.13a22.68,22.68,0,0,1,19.4,2c6.14,3.58,11,9,15.53,14.4,4.9,5.87,9.56,11.92,14.75,17.55a206.81,206.81,0,0,0,16.82,16.28,213.93,213.93,0,0,0,38.7,26.65,210.2,210.2,0,0,0,43.62,17.49c1.86.51,3.74,1,5.62,1.46,3.12.77,4.45-4.05,1.33-4.82a204.29,204.29,0,0,1-44.5-16.59,207,207,0,0,1-56.83-42.69c-5.35-5.7-10.17-11.82-15.13-17.85-4.71-5.71-9.77-11.33-16-15.37a28.36,28.36,0,0,0-21.35-4.3c-7.59,1.64-14.35,6.63-19.09,12.65-5.47,6.94-8.7,15.22-11.34,23.57-.66,2.1-1.29,4.22-1.92,6.34l4.82,1.33c4.16-20,8.35-40.18,15.63-59.35,6.29-16.53,15.14-32.32,27.47-45.11a89,89,0,0,1,22.72-17.21c2.63-1.37.74-5.11-1.92-4.57a295.45,295.45,0,0,1-77.72,5.25q-11-.7-21.92-2.24A2.59,2.59,0,0,0,48.66,473a2.51,2.51,0,0,0,1.75,3.07Z" transform="translate(-33.23 -47.25)"/><path class="cls-1" d="M223.89,599.33Q209,572.48,195.83,544.69q-13.05-27.57-24.29-56-6.37-16.1-12.15-32.4l-4.18,2.43q26.73,29,51.41,59.79t47,63.06q12.61,18.2,24.53,36.86c1.72,2.7,6.05.2,4.32-2.52q-21.34-33.45-44.95-65.35t-49.3-62.06q-14.43-16.95-29.52-33.31c-1.65-1.79-5,.07-4.18,2.43q10.34,29.14,22.54,57.58t26.12,55.85q7.89,15.54,16.34,30.77c1.56,2.81,5.88.29,4.32-2.53Z" transform="translate(-33.23 -47.25)"/><path class="cls-1" d="M205.32,571.88A88.84,88.84,0,0,1,232.7,542a90.67,90.67,0,0,1,10.16-6c2.87-1.46.35-5.77-2.52-4.32a94.43,94.43,0,0,0-32.68,27.46,91.08,91.08,0,0,0-6.66,10.2c-1.58,2.81,2.74,5.34,4.32,2.53Z" transform="translate(-33.23 -47.25)"/><path class="cls-1" d="M260.68,446.23a412.77,412.77,0,0,0-12.4,48.06c-1.53,7.88-3.08,15.87-3.87,23.87-.65,6.67.33,13.78,6.11,18,5.09,3.7,11.94,3.42,17.92,3.47a43.48,43.48,0,0,1,9.25.8,36.77,36.77,0,0,1,8.68,3.19c12.06,6.21,20.62,17,30.58,25.88,10.4,9.29,24,18,38.54,15.89a27.69,27.69,0,0,0,5.06-1.24,2.56,2.56,0,0,0,1.74-3.08,2.51,2.51,0,0,0-3.07-1.74c-13.15,4.55-26.47-3-36.34-11.29-10.21-8.54-18.56-19.16-29.89-26.37a43,43,0,0,0-18-6.73c-5.72-.68-11.65.31-17.29-1a10.6,10.6,0,0,1-6.32-3.78c-1.76-2.37-2.17-5.41-2.17-8.29a68,68,0,0,1,1.08-10.06q.92-6,2-11.88a413.56,413.56,0,0,1,13.2-52.33c1-3.07-3.84-4.38-4.82-1.33Z" transform="translate(-33.23 -47.25)"/><path class="cls-1" d="M309.25,469.38A335.92,335.92,0,0,0,355.3,549q8,10.26,16.71,19.87c2.17,2.39,5.69-1.16,3.53-3.54a328.84,328.84,0,0,1-27.89-35.23,335,335,0,0,1-23.08-39.05q-5.69-11.31-10.49-23a2.59,2.59,0,0,0-3.08-1.74,2.52,2.52,0,0,0-1.75,3.07Z" transform="translate(-33.23 -47.25)"/><path class="cls-1" d="M384.3,547.53A405.34,405.34,0,0,1,350.16,483q-4-9.52-7.46-19.23l-4.18,2.43a363.57,363.57,0,0,0,66.67,55.49q10.31,6.66,21,12.61a2.52,2.52,0,0,0,3.42-3.42,584.51,584.51,0,0,0-27.32-51.91,582.59,582.59,0,0,0-32.26-48.73q-9.85-13.38-20.46-26.21a2.51,2.51,0,0,0-3.53,0,2.56,2.56,0,0,0,0,3.54,577.7,577.7,0,0,1,34.67,46.53Q397,478.25,410.69,504q7.74,14.47,14.64,29.38l3.42-3.42a358,358,0,0,1-69.58-50.36q-8.85-8.19-17.11-17c-1.66-1.76-5,.05-4.18,2.43a412.87,412.87,0,0,0,31.08,67q5.28,9.12,11,18c1.75,2.69,6.08.19,4.32-2.52Z" transform="translate(-33.23 -47.25)"/><path class="cls-1" d="M414.68,373.39q4.77,36.41,10.77,72.64t13.26,72.05q3.63,18,7.57,35.84c1,4.29,1.72,10.84,6.77,12.32s8.28-3.6,9.68-7.75c7.92-23.47,15.45-47.09,23.18-70.64l2.8-8.53a41.59,41.59,0,0,0,2.1-7.64,9.39,9.39,0,0,0-1-6.18,6.65,6.65,0,0,0-6.85-2.88c-2.86.47-5.25,2.32-7.58,3.91l-7.6,5.17-15.41,10.48-7.4,5,3.42,3.43,9.31-12.36a2.51,2.51,0,0,0-.89-3.42,2.57,2.57,0,0,0-3.42.9l-9.32,12.35c-1.51,2,1.43,4.78,3.42,3.42l29.18-19.84c2.05-1.4,4.22-3.32,6.63-4a2.37,2.37,0,0,1,2,.11,2.18,2.18,0,0,1,.67,1.34,11.92,11.92,0,0,1-.85,5.33c-.9,2.76-1.81,5.53-2.72,8.29L460.4,549.58c-.9,2.73-1.73,5.5-2.71,8.21-.46,1.27-1.32,3.27-2.54,3.67a1.37,1.37,0,0,1-.95-.11,4.54,4.54,0,0,1-1.43-2.08,40.94,40.94,0,0,1-1.72-6.92q-3.72-16.94-7.18-33.91-6.89-34-12.67-68.16t-10.41-68.54c-.38-2.78-.75-5.57-1.11-8.35a2.59,2.59,0,0,0-2.5-2.5,2.51,2.51,0,0,0-2.5,2.5Z" transform="translate(-33.23 -47.25)"/><path class="cls-1" d="M295.08,427.71c3.22,0,3.22-5,0-5s-3.22,5,0,5Z" transform="translate(-33.23 -47.25)"/><path class="cls-1" d="M72.37,794.13q10.34,24.3,22.54,47.75t26.29,46q7.89,12.62,16.3,24.88a2.56,2.56,0,0,0,3.42.9,2.51,2.51,0,0,0,.9-3.42q-14.94-21.76-28.17-44.65T88.93,818.72q-6.42-13.41-12.24-27.11a2.52,2.52,0,0,0-3.42-.9,2.57,2.57,0,0,0-.9,3.42Z" transform="translate(-33.23 -47.25)"/><path class="cls-1" d="M64,806.76a494.48,494.48,0,0,0,61.33-55.9q8-8.64,15.58-17.66l-3.93-3a420.52,420.52,0,0,0-42.58,91.6q-4.4,13.51-7.86,27.31A2.51,2.51,0,0,0,88,852a2.56,2.56,0,0,0,3.12-1l54.7-72.47,15.33-20.31-4.57-1.92q-9.9,37.7-17,76t-11.41,77.27q-2.4,21.72-3.9,43.53a2.51,2.51,0,0,0,2.5,2.5,2.55,2.55,0,0,0,2.5-2.5q2.67-38.67,8.16-77.06,5.49-38.22,13.75-76,4.68-21.35,10.23-42.49a2.5,2.5,0,0,0-1.45-2.94,2.54,2.54,0,0,0-3.12,1l-54.7,72.47-15.33,20.3,4.57,1.93a413,413,0,0,1,35.87-93.28q6.61-12.45,14.07-24.44c1.47-2.36-2.07-5.23-3.93-3A489.59,489.59,0,0,1,79.32,788q-8.73,7.41-17.81,14.41a2.58,2.58,0,0,0-.9,3.42,2.53,2.53,0,0,0,3.42.9Z" transform="translate(-33.23 -47.25)"/><path class="cls-1" d="M149.19,846A195.24,195.24,0,0,0,169,873.3q5.46,6.32,11.47,12.12c3.9,3.78,7.9,7.88,13,10,4.71,2,10.38,1.28,13.11-3.49,2.38-4.15,1.49-9.36.39-13.77a299,299,0,0,0-10.42-33.45,309.69,309.69,0,0,0-16.43-36.29c-1.52-2.84-5.83-.31-4.32,2.53a298.44,298.44,0,0,1,24.36,61c.74,2.67,1.45,5.34,2.1,8a23.14,23.14,0,0,1,.81,6,6.1,6.1,0,0,1-1.61,4.52,4.92,4.92,0,0,1-4.86.82c-4.52-1.25-8-5-11.33-8.13q-5.73-5.45-11-11.35a189.38,189.38,0,0,1-20.79-28.29c-1.65-2.75-6-.24-4.31,2.53Z" transform="translate(-33.23 -47.25)"/><path class="cls-1" d="M200.88,732.38q17.31,32.8,32.87,66.49,15.45,33.5,29.1,67.78,7.69,19.32,14.8,38.88a2.56,2.56,0,0,0,3.07,1.75,2.53,2.53,0,0,0,1.75-3.08Q269.67,869,255,834.6q-14.52-34.12-30.84-67.45-9.21-18.78-19-37.29c-1.5-2.85-5.82-.32-4.32,2.52Z" transform="translate(-33.23 -47.25)"/><path class="cls-1" d="M171.58,808.11q17.11-19.61,35.86-37.7t39-34.47q11.34-9.21,23.14-17.85a2.58,2.58,0,0,0,.9-3.42,2.53,2.53,0,0,0-3.42-.9q-21.25,15.57-41.12,32.91-19.68,17.21-37.83,36-10.27,10.68-20,21.85a2.56,2.56,0,0,0,0,3.54,2.52,2.52,0,0,0,3.53,0Z" transform="translate(-33.23 -47.25)"/><path class="cls-1" d="M311,701.67q13,35.83,29,70.44,15.88,34.27,34.69,67.09,10.66,18.59,22.22,36.63c1.73,2.7,6.06.2,4.31-2.52Q380.83,841.5,363.26,808t-32.09-68.17q-8.18-19.55-15.39-39.48a2.56,2.56,0,0,0-3.07-1.75,2.52,2.52,0,0,0-1.75,3.07Z" transform="translate(-33.23 -47.25)"/><path class="cls-1" d="M382.67,695.81l29.44,57.25,29.44,57.25,16.67,32.4c1.47,2.86,5.78.34,4.31-2.52l-29.44-57.25-29.44-57.25L387,693.29c-1.47-2.86-5.79-.34-4.31,2.52Z" transform="translate(-33.23 -47.25)"/><path class="cls-1" d="M376.8,662.69c15.39,19.38,38.61,31.91,63.06,35.11a91.12,91.12,0,0,0,20.35.38L457.8,695a410,410,0,0,0-13,136.75q1.44,19.46,4.73,38.72a2.5,2.5,0,1,0,4.82-1.33,406.06,406.06,0,0,1,0-135.36q3.23-18.9,8.23-37.45c.39-1.44-.76-3.32-2.41-3.16a92.21,92.21,0,0,1-65.79-19.86,89.85,89.85,0,0,1-14.09-14.16,2.5,2.5,0,0,0-3.53,0,2.55,2.55,0,0,0,0,3.53Z" transform="translate(-33.23 -47.25)"/><path class="cls-1" d="M482.89,771.45c.95,12.3,2,25.42,8.87,36.09,5.6,8.73,16.2,15.63,26.89,14.48a21.66,21.66,0,0,0,13.77-7,32.62,32.62,0,0,0,7-13.33c2.93-10.55,2.3-22.07.59-32.78a109.05,109.05,0,0,0-30.82-59.83,84.4,84.4,0,0,0-13.34-11c-5-3.22-11.13-5.18-16.9-2.85-10.12,4.09-13.83,16.24-15.67,26A101.81,101.81,0,0,0,475,790.52c1.43,2.47,3,4.88,4.63,7.21a2.57,2.57,0,0,0,3.42.9,2.52,2.52,0,0,0,.9-3.42,96.75,96.75,0,0,1-17.2-62.8,88.31,88.31,0,0,1,2.71-16.15c1.15-4.31,2.89-8.75,5.79-12.2,2.77-3.29,6.6-5.55,11-4.72,5.32,1,9.88,4.88,13.88,8.29a104,104,0,0,1,33,52.9,93.86,93.86,0,0,1,3,30.8c-.68,8.47-3.32,18.58-11,23.36-8.18,5.06-18.35,1.52-24.84-4.65-8.08-7.68-10.5-19.37-11.64-30-.31-2.85-.53-5.71-.75-8.57a2.57,2.57,0,0,0-2.5-2.5,2.51,2.51,0,0,0-2.5,2.5Z" transform="translate(-33.23 -47.25)"/><path class="cls-1" d="M559.89,780.53a261.5,261.5,0,0,0-22.36-54.12q-4-7.21-8.43-14.17l-3.93,3,27.16,32,13.58,16,6.79,8a26.44,26.44,0,0,0,6.41,5.76,10.14,10.14,0,0,0,7.88,1.41,8.37,8.37,0,0,0,5.44-5c1.86-4.58.19-9.86-1.55-14.2q-7.23-18.09-16.15-35.44a409.35,409.35,0,0,0-21.87-37.46c-1.77-2.67-6.1-.17-4.32,2.53a406.45,406.45,0,0,1,34.61,64.62c1.17,2.77,2.33,5.56,3.42,8.37a21.62,21.62,0,0,1,1.59,6.1c.13,1.7,0,3.53-.91,4.6a3.81,3.81,0,0,1-4.61.66,17.91,17.91,0,0,1-5.83-4.84c-2.16-2.49-4.26-5-6.39-7.54l-12.94-15.24-28.77-33.93c-1.84-2.17-5.45.65-3.93,3a254.48,254.48,0,0,1,25.32,51.61q2.73,7.67,5,15.48c.89,3.09,5.72,1.78,4.83-1.33Z" transform="translate(-33.23 -47.25)"/><path class="cls-1" d="M544.85,627.23l26,56.07,7.35,15.82a2.52,2.52,0,0,0,3.42.9,2.55,2.55,0,0,0,.89-3.42l-26-56.07-7.34-15.82a2.5,2.5,0,1,0-4.32,2.52Z" transform="translate(-33.23 -47.25)"/><path class="cls-1" d="M571.93,556.18l33.25,83,33.15,82.75L657,768.5a2.58,2.58,0,0,0,3.08,1.74,2.5,2.5,0,0,0,1.74-3.07l-33.25-83-33.15-82.75-18.67-46.59a2.58,2.58,0,0,0-3.07-1.75,2.52,2.52,0,0,0-1.75,3.08Z" transform="translate(-33.23 -47.25)"/><path class="cls-1" d="M584.68,705.56q13.67-19.26,28.83-37.41T645.32,633q9.4-9.62,19.24-18.8c2.35-2.2-1.19-5.73-3.54-3.54Q643.53,627,627.37,644.7t-30.85,36.6Q588.21,692,580.36,703a2.5,2.5,0,0,0,4.32,2.52Z" transform="translate(-33.23 -47.25)"/><path class="cls-1" d="M195.66,1039.27a319.24,319.24,0,0,0,33.24,68.21q5.82,9,12.23,17.58a2.56,2.56,0,0,0,3.42.9,2.51,2.51,0,0,0,.89-3.42,316.09,316.09,0,0,1-37.41-65c-2.75-6.44-5.25-13-7.55-19.59a2.5,2.5,0,1,0-4.82,1.33Z" transform="translate(-33.23 -47.25)"/><path class="cls-1" d="M212.53,1066.1l20.12-48.18,20.13-48.19,11.36-27.2a2.47,2.47,0,0,0-1.44-2.95,2.53,2.53,0,0,0-3.13,1,315.63,315.63,0,0,0-41.95,100.31c-2.29,10.13-4,20.37-5.33,30.67h5c.41-5.78,6.46-9.55,12-10.31,7.34-1,14.48,3.43,20.06,7.83,7.42,5.85,14.43,12.27,21.6,18.43l22.36,19.23,25.39,21.83a2.56,2.56,0,0,0,3.54,0,2.51,2.51,0,0,0,0-3.53l-47.57-40.9-11.93-10.27c-3.61-3.1-7.17-6.26-10.93-9.17-6.46-5-14.4-9.47-22.86-8.41-8.13,1-16,6.57-16.63,15.27a2.53,2.53,0,0,0,2.5,2.5,2.56,2.56,0,0,0,2.5-2.5,310.48,310.48,0,0,1,31.43-102q6.93-13.57,15.17-26.41l-4.57-1.93L239.2,989.38l-20.13,48.18-11.36,27.21a2.51,2.51,0,0,0,1.74,3.07,2.57,2.57,0,0,0,3.08-1.74Z" transform="translate(-33.23 -47.25)"/><path class="cls-1" d="M307.18,1081.67a404,404,0,0,1-46.35-65.34q-5.55-9.76-10.57-19.82l-3.93,3,40.78,35.86,40.59,35.7,23,20.24a2.52,2.52,0,0,0,3.29.19,2.47,2.47,0,0,0,.64-3.22l-39.57-57.52L275.5,973.27l-22.33-32.46a2.58,2.58,0,0,0-3.42-.9,2.53,2.53,0,0,0-.9,3.42l39.57,57.52L328,1058.37l22.33,32.46,3.93-3-40.78-35.86-40.59-35.7-23-20.23a2.51,2.51,0,0,0-3.93,3,410.28,410.28,0,0,0,43.14,68.48q7,9.06,14.56,17.7a2.5,2.5,0,0,0,3.54-3.54Z" transform="translate(-33.23 -47.25)"/><path class="cls-1" d="M331.52,1023.06a101.1,101.1,0,0,0,41,46.29,99.33,99.33,0,0,0,16,7.63,2.51,2.51,0,0,0,3.16-2.41,130.9,130.9,0,0,0-9.09-44.73,136.16,136.16,0,0,0-23.76-39.27,125.9,125.9,0,0,0-16.48-15.84c-3.33-2.65-6.9-5.32-11.11-6.35a12.93,12.93,0,0,0-10.75,1.92c-5.57,4.08-7.48,11.53-7.95,18.08a80.44,80.44,0,0,0,1.78,22.9,83.88,83.88,0,0,0,21.63,40.22c1.32,1.35,2.7,2.66,4.12,3.92,2.4,2.13,6-1.4,3.54-3.54a78.38,78.38,0,0,1-22.82-35.66,77.56,77.56,0,0,1-3.42-21.17c-.11-6.11.13-12.91,3.63-18.18A8.24,8.24,0,0,1,327,973c3.81-.34,7.36,2,10.28,4.16a113,113,0,0,1,15.88,14.64,130.26,130.26,0,0,1,23.15,36,126,126,0,0,1,10.07,41.3c.12,1.83.2,3.65.24,5.48l3.17-2.41a95.82,95.82,0,0,1-54-51.63,2.51,2.51,0,0,0-3.42-.89,2.56,2.56,0,0,0-.9,3.42Z" transform="translate(-33.23 -47.25)"/><path class="cls-1" d="M373.25,1001.34a229.52,229.52,0,0,0,29.5,41.52q4.86,5.43,10.07,10.55a2.5,2.5,0,0,0,3.28.2,2.57,2.57,0,0,0,.65-3.23,310.46,310.46,0,0,0-27.19-50.17q-4.53-6.8-9.42-13.33l-3.42,3.42,47.38,30.56,13.42,8.65a2.53,2.53,0,0,0,3-.39,2.62,2.62,0,0,0,.39-3q-13.81-29.88-29.74-58.7-15.82-28.59-33.66-56-10.12-15.54-20.86-30.66a2.56,2.56,0,0,0-3.42-.89,2.52,2.52,0,0,0-.9,3.42q19.06,26.82,36.16,55,17,27.93,31.87,57,8.46,16.5,16.23,33.33l3.42-3.42-47.38-30.56L379.24,986c-2-1.29-4.94,1.38-3.42,3.42a310.34,310.34,0,0,1,29.8,48.67q3.6,7.32,6.81,14.83l3.93-3a222.79,222.79,0,0,1-31.44-38.71q-3.87-6-7.35-12.34c-1.56-2.82-5.88-.3-4.32,2.52Z" transform="translate(-33.23 -47.25)"/><path class="cls-1" d="M435.68,928.07l48.65,50.12,13.91,14.32c2,2.07,5.28-.56,3.92-3l-32.53-59.3-9.24-16.86-3.93,3a287.38,287.38,0,0,0,51.33,47.33q8,5.73,16.31,10.9c2.27,1.4,4.45-1.3,3.42-3.42a604.27,604.27,0,0,0-39.14-68.89q-6.15-9.36-12.65-18.47a2.57,2.57,0,0,0-3.42-.9,2.52,2.52,0,0,0-.9,3.42,605.89,605.89,0,0,1,41.66,67.4q5.25,9.88,10.14,20l3.42-3.42a282.23,282.23,0,0,1-53.44-42.92q-6.84-7-13.19-14.52c-1.89-2.23-5.25.62-3.93,3l32.53,59.31L497.85,992l3.92-3-48.65-50.12-13.91-14.32c-2.24-2.32-5.78,1.22-3.53,3.53Z" transform="translate(-33.23 -47.25)"/><path class="cls-1" d="M486.67,867.76a470.69,470.69,0,0,0,59.47,81.84q9.52,10.53,19.69,20.45c2.3,2.25,5.84-1.28,3.54-3.53a467.85,467.85,0,0,1-33.91-36.9,462.66,462.66,0,0,1-29.61-40.18q-7.8-11.88-14.86-24.2c-1.6-2.79-5.92-.27-4.32,2.52Z" transform="translate(-33.23 -47.25)"/><path class="cls-1" d="M499.65,858l30.13,43.53,30.12,43.52L577,969.71a2.56,2.56,0,0,0,3.42.89,2.52,2.52,0,0,0,.9-3.42l-30.12-43.52L521,880.13,504,855.5a2.56,2.56,0,0,0-3.42-.9,2.52,2.52,0,0,0-.9,3.42Z" transform="translate(-33.23 -47.25)"/><path class="cls-1" d="M513.75,931.38,543.85,898c2.15-2.39-1.38-5.93-3.54-3.54l-30.09,33.42c-2.15,2.38,1.37,5.93,3.53,3.53Z" transform="translate(-33.23 -47.25)"/><path class="cls-1" d="M550.13,835.72l-9.65,47.73c-1.5,7.46-3.28,14.92-4.48,22.43-.93,5.76-1.2,12.87,3.61,17.1,5.38,4.73,12.46,2.91,18.51.69a75.18,75.18,0,0,1,8.76-3,30.31,30.31,0,0,1,7.54-.75c11.09.21,21.58,5.39,31.58,9.73,11.84,5.13,24.25,10.11,37.41,8.16a2.52,2.52,0,0,0,1.75-3.08,2.57,2.57,0,0,0-3.08-1.74c-10.64,1.58-21.29-2.43-30.92-6.52C601.08,922.22,591,917,580,915.45a38.09,38.09,0,0,0-16.11.87c-2.94.86-5.77,2.08-8.66,3.09-2.71.94-5.77,2-8.69,1.55-5.66-.83-6.41-6.86-6-11.52a86.41,86.41,0,0,1,1.66-9.31l2.32-11.45L555,837.05a2.57,2.57,0,0,0-1.74-3.08,2.53,2.53,0,0,0-3.08,1.75Z" transform="translate(-33.23 -47.25)"/><path class="cls-1" d="M543.89,919.67l36.85-33.33c2.39-2.17-1.15-5.69-3.53-3.54l-36.85,33.34c-2.39,2.16,1.15,5.69,3.53,3.53Z" transform="translate(-33.23 -47.25)"/><path class="cls-1" d="M590.08,866.27l39.11,54.78,11,15.42a2.56,2.56,0,0,0,3.42.9,2.52,2.52,0,0,0,.89-3.42L605.4,879.16l-11-15.42a2.57,2.57,0,0,0-3.42-.89,2.52,2.52,0,0,0-.89,3.42Z" transform="translate(-33.23 -47.25)"/><path class="cls-1" d="M580.93,864.83l37.49-46.12,10.71-13.18L625,803.1,599.69,871c-1,2.67-2.13,5.33-3,8.06-.73,2.43-1,5.26.51,7.48,1.38,2.07,3.7,3,6,3.55,2.83.68,5.68,1.29,8.52,1.92q17.46,3.85,35,7.21,19.74,3.78,39.6,6.93a2.59,2.59,0,0,0,3.08-1.74,2.53,2.53,0,0,0-1.75-3.08q-34.1-5.41-67.87-12.67l-8.68-1.9c-2.54-.57-5.14-1-7.63-1.76-1.78-.51-2.68-1.3-2.36-3.26.43-2.57,1.7-5.1,2.6-7.54L616,841.4l13.76-37c.85-2.29-2.62-4.35-4.18-2.43l-37.48,46.12L577.4,861.3a2.56,2.56,0,0,0,0,3.53,2.51,2.51,0,0,0,3.53,0Z" transform="translate(-33.23 -47.25)"/><path class="cls-1" d="M652.38,784l-13,52.93L633,863.25c-.91,3.72-2.86,8.51-.7,12.13,1.92,3.22,5.71,3.6,9.05,2.85,3.51-.79,6.74-2.58,10.2-3.57a56,56,0,0,1,11.28-2,103.38,103.38,0,0,1,24.08,1.43c15,2.39,29.66,6.49,44.88,7,13.39.49,27.75-1.6,38.69-9.92a45.71,45.71,0,0,0,4-3.37c2.34-2.23-1.2-5.76-3.53-3.54-9.32,8.9-22.24,11.79-34.77,11.89-14.25.12-28-3.31-41.9-5.88-15.26-2.82-31.53-4.83-46.54.32-2.88,1-5.92,2.84-9,3-1,0-1.81,0-2.23-1-.58-1.3.12-3.15.44-4.44l6.26-25.61,12.47-51,1.54-6.29c.76-3.12-4.06-4.46-4.82-1.33Z" transform="translate(-33.23 -47.25)"/><path class="cls-1" d="M633,875.1l41.66-32.59,11.8-9.22a2.53,2.53,0,0,0,0-3.54,2.57,2.57,0,0,0-3.54,0L641.2,862.34l-11.79,9.23a2.51,2.51,0,0,0,0,3.53,2.56,2.56,0,0,0,3.54,0Z" transform="translate(-33.23 -47.25)"/><path class="cls-1" d="M545.89,1050.17l49,51.42,13.79,14.49c2.22,2.33,5.75-1.2,3.53-3.54l-48.95-51.42-13.79-14.49c-2.22-2.33-5.76,1.21-3.54,3.54Z" transform="translate(-33.23 -47.25)"/><path class="cls-1" d="M515.77,1070.41q18-19.87,37.29-38.54T592.62,996q11.55-9.79,23.46-19.16a2.51,2.51,0,0,0,0-3.53,2.56,2.56,0,0,0-3.54,0q-21.07,16.57-41,34.52t-38.52,37q-10.58,10.85-20.74,22.07c-2.16,2.38,1.37,5.93,3.53,3.53Z" transform="translate(-33.23 -47.25)"/><path class="cls-1" d="M634.3,1048.68c-2,7.67.83,15.72,6.24,21.32a24.4,24.4,0,0,0,22.11,7,31.47,31.47,0,0,0,20.06-13.42c5.1-7.52,6.64-17.16,5.5-26.06a54.15,54.15,0,0,0-10.4-25,77.48,77.48,0,0,0-19.53-19.12C650.83,988.49,641,985.72,633,991c-7.14,4.7-10.46,13.27-12.75,21.14a98.08,98.08,0,0,0,.82,57.23q1.09,3.36,2.43,6.63a2.58,2.58,0,0,0,3.08,1.75,2.52,2.52,0,0,0,1.74-3.08,92.64,92.64,0,0,1-2.2-64.57,40.68,40.68,0,0,1,4.61-9.83,16.17,16.17,0,0,1,7.39-6.32,15.84,15.84,0,0,1,11,.31c7.62,2.7,14,8.85,19.33,14.69s10.17,12.8,12.78,20.48a38.8,38.8,0,0,1,.73,24.1,27.49,27.49,0,0,1-13.85,16.35c-6,3-13.45,3.57-19.45.17-5.46-3.1-9.74-9-10.05-15.38a15,15,0,0,1,.49-4.67c.81-3.11-4-4.44-4.83-1.33Z" transform="translate(-33.23 -47.25)"/><path class="cls-1" d="M621.72,411.18a126.13,126.13,0,0,1-.59-47.9l-4.18,1.1c12.68,14.82,35.87,17.44,52.72,8.64A37.64,37.64,0,0,0,681.85,363l-3.93-3c-8.46,13.86-8.83,31.53-2.47,46.27a47.14,47.14,0,0,0,5.88,10.06,46.59,46.59,0,0,0,4,4.65c.69.69,1.4,1.36,2.14,2a5.7,5.7,0,0,0,1.46,1.08,4.15,4.15,0,0,0,2.21.08,102.34,102.34,0,0,0,27.71-7.24,103.6,103.6,0,0,0,27.69-17.11l-3.93-3a47.06,47.06,0,0,0-5,34.73A44.35,44.35,0,0,0,745,447.49c1.81,2.44,3.78,4.78,5.38,7.37,1.37,2.22,2.59,4.81,2.18,7.48a6.84,6.84,0,0,1-2.78,4.64,13.92,13.92,0,0,1-2.35,1.33,21,21,0,0,1-3.09.95c-4.93,1.12-10.15.59-15.22.1q-22.5-2.17-45.12-2.73a632.9,632.9,0,0,0-90.25,4.21c-7.09.84-14.16,2-21.28,2.54-6.68.51-13.5.36-19.87-1.94-8.68-3.14-16.79-13.23-13.91-22.65,1.57-5.13,6.39-8.22,11.08-10.24,2.67-1.15,5.47-2,8.24-2.92l10.89-3.53,43.06-14,10.89-3.53c3-1,1.74-5.82-1.33-4.83l-45,14.6c-7.45,2.42-14.92,4.8-22.36,7.26-5.62,1.86-11.5,4.05-15.77,8.34a18.05,18.05,0,0,0-5.06,15.57A25.78,25.78,0,0,0,541,469.84c9.92,9.81,24.87,9.47,37.77,7.91,15.26-1.84,30.48-3.74,45.82-4.8s30.77-1.57,46.16-1.51q23.35.09,46.64,1.9,5.88.45,11.75,1a82.59,82.59,0,0,0,8.6.57c4.86,0,10.34-.68,14.44-3.53a12.51,12.51,0,0,0,4.71-14.55c-2.07-6-7-10.33-10.08-15.71a42.44,42.44,0,0,1-3.41-34.23,38.71,38.71,0,0,1,3.55-7.71c1.52-2.54-1.84-4.83-3.92-3a98,98,0,0,1-40.39,20.77,92.93,92.93,0,0,1-12.73,2.25l1.77.74c-12.63-10.67-18.13-28.53-14.59-44.58a42.14,42.14,0,0,1,5.16-12.91,2.51,2.51,0,0,0-3.93-3c-10.64,13.67-31,17.29-46.36,10.1a33.64,33.64,0,0,1-11.46-8.67,2.52,2.52,0,0,0-4.18,1.11,132.72,132.72,0,0,0,.59,50.56,2.5,2.5,0,0,0,4.82-1.33Z" transform="translate(-33.23 -47.25)"/><path class="cls-1" d="M610,420.94A239.94,239.94,0,0,1,667.78,416c3.22.12,3.21-4.88,0-5a245.38,245.38,0,0,0-59.16,5.11,2.53,2.53,0,0,0-1.75,3.07,2.55,2.55,0,0,0,3.08,1.75Z" transform="translate(-33.23 -47.25)"/><path class="cls-1" d="M589.83,470.58c-3.73,3-7.41,6.17-9.09,10.78A11.65,11.65,0,0,0,583,492.79a8.5,8.5,0,0,0,11.25,1c3.58-2.57,5.5-6.67,7.2-10.6,2.08-4.84,4.09-10,3.77-15.4a16.66,16.66,0,0,0-5.2-11.43,12.47,12.47,0,0,0-13.11-2.08c-4.59,1.86-8.21,5.43-11,9.46-5.13,7.44-7.3,17.67-3.94,26.27,3.22,8.25,10.88,14.53,19.79,15.37,8.52.81,16.35-4.69,19.56-12.42,3.06-7.4.79-15.83-6.18-20-6-3.59-14.49-3.71-19.71,1.33-5.63,5.43-4.31,14.25.48,19.74a13.08,13.08,0,0,0,9.3,4.62c4.42.12,8.41-2.56,11.27-5.72a57.48,57.48,0,0,0,8.1-11.92c2.27-4.41,3.92-9.42,2.77-14.39-2-8.62-11.45-11.94-19.35-10.2-9,2-14.76,10.42-18.46,18.23-2,4.23-3.93,8.85-3.18,13.62a9.8,9.8,0,0,0,9,8.19c9.11.88,16.85-7.32,19.46-15.32a20.44,20.44,0,0,0-8.15-23.46,17.32,17.32,0,0,0-23.32,4.25,15.2,15.2,0,0,0-2.8,12,17.93,17.93,0,0,0,6.42,10.26,24.07,24.07,0,0,0,11.41,5.23,34,34,0,0,0,15.42-1.57,100.77,100.77,0,0,0,14.39-6.25c2.88-1.43.35-5.75-2.52-4.31-7.77,3.87-16.14,8.05-25.08,7.4-5.91-.44-12.72-4.32-14.71-10.18-2.13-6.26,2-12.51,8.2-14.28,6.47-1.86,12.88,2.42,15.55,8.23,2.95,6.45.44,14.19-4.42,19a13,13,0,0,1-8.37,4.06c-2.82.1-5.29-1.36-5.63-4.44-.4-3.53,1.32-7.14,2.81-10.24a41.47,41.47,0,0,1,6-9.66,18.08,18.08,0,0,1,8.18-5.65,14,14,0,0,1,8.55.15,8.53,8.53,0,0,1,5.59,5.7c1.06,3.69-.35,7.63-2,10.92a56.81,56.81,0,0,1-6.42,9.94,18.9,18.9,0,0,1-3.83,3.75,10.28,10.28,0,0,1-3.94,1.64,7.52,7.52,0,0,1-6.15-2.51,11.28,11.28,0,0,1-2.23-3.18,14.62,14.62,0,0,1-1-3.35c-.66-5.26,3.34-8.95,8.24-9.2s10.48,2.36,12.07,7c1.91,5.63-.82,12-5.68,15.46-5.6,4-12.64,3-18-.86a19.86,19.86,0,0,1-7.87-18c.6-7.08,4.65-14.72,10.67-18.66,2.85-1.86,6.4-2.91,9.49-1,2.57,1.59,4.06,4.71,4.48,7.62.6,4.09-.8,8.3-2.29,12.05-1.31,3.28-2.7,7-5.15,9.58a5.72,5.72,0,0,1-3.15,2,3.2,3.2,0,0,1-2.9-1.11,6.68,6.68,0,0,1-.82-7.16c1.54-3.4,4.74-5.82,7.6-8.09a2.52,2.52,0,0,0,0-3.53,2.56,2.56,0,0,0-3.54,0Z" transform="translate(-33.23 -47.25)"/><path class="cls-1" d="M676,459.28c2.14,15.25,21.3,27.42,34.7,17a21.47,21.47,0,0,0,8.14-17.63,17,17,0,0,0-13.28-15.47,20.89,20.89,0,0,0-21.52,7.79,25.52,25.52,0,0,0-4,23.24c2.65,7.63,9.7,13.91,18.21,11.82a16.82,16.82,0,0,0,9.7-7.07,17.08,17.08,0,0,0,2.46-12.15c-1.29-8.59-8.14-15.48-16.19-18.15a25.11,25.11,0,0,0-23.72,4.19,24,24,0,0,0-8.11,21.39c1.11,7.89,6.85,14.18,14.18,16.94a19.67,19.67,0,0,0,21.21-4.64c5.24-5.47,7.63-13.93,4.65-21.1-2.8-6.73-9.53-10.92-16.63-11.68a17.67,17.67,0,0,0-17.94,9.87c-3.27,7-2.27,15.92,4.62,20.29,5.88,3.74,14.66,3.1,19-2.64s1.54-14.86-4.61-18.3a10.49,10.49,0,0,0-10.35.06c-3.17,1.78-5.16,5-6.34,8.31a28.62,28.62,0,0,0-1.4,10.64c.13,3.21,5.13,3.22,5,0a25.06,25.06,0,0,1,1-8.7,10,10,0,0,1,4.25-5.93,5.28,5.28,0,0,1,6,.38,9.18,9.18,0,0,1,3.55,6,6.19,6.19,0,0,1-2.24,5.78,9.3,9.3,0,0,1-6.65,1.75,9.27,9.27,0,0,1-8.74-10.42,13,13,0,0,1,9.74-11.82,15.83,15.83,0,0,1,14.27,4.2c3.95,3.93,4.69,9.83,2.44,15-2.33,5.33-7.38,9.26-13.29,9.34a17.42,17.42,0,0,1-14.73-8.12c-3.22-5.24-2.9-12,0-17.33a18.32,18.32,0,0,1,15.15-9.66c6.68-.41,13.52,2.23,17.61,7.65,3.78,5,5.11,12.37.66,17.42a11,11,0,0,1-7.62,4,9.5,9.5,0,0,1-7.29-3.34c-8.71-9.44-3.08-27.54,9.45-30.2,5.49-1.17,12,.8,14.88,5.66a11.82,11.82,0,0,1,1.55,7,16.9,16.9,0,0,1-2.17,7.08c-2.63,4.62-7.06,7.68-12.56,7.61-6-.08-11.76-3.84-15.06-8.77a20,20,0,0,1-3.23-8.44,2.5,2.5,0,0,0-3.07-1.74,2.56,2.56,0,0,0-1.75,3.07Z" transform="translate(-33.23 -47.25)"/><path class="cls-1" d="M607.61,397.63c3.22,0,3.23-5,0-5s-3.22,5,0,5Z" transform="translate(-33.23 -47.25)"/><path class="cls-1" d="M613.5,416.49a89.33,89.33,0,0,1,22.18-26.73,87.33,87.33,0,0,1,14.46-9.54c5.45-2.88,11.52-5.75,17.73-6.29,5.6-.48,12.64,1.36,15,7.08a2.58,2.58,0,0,0,3.07,1.74,2.51,2.51,0,0,0,1.75-3.07,18,18,0,0,0-14.37-10.58c-7.37-1.05-14.56,1.54-21.16,4.55a93.73,93.73,0,0,0-43,40.31c-1.53,2.83,2.78,5.36,4.32,2.53Z" transform="translate(-33.23 -47.25)"/><path class="cls-1" d="M670.32,374.08c2.68,18.08,14,34.45,29.5,44a60.39,60.39,0,0,0,14,6.35c3.08.95,4.4-3.88,1.33-4.82-16.19-5-29.62-17.58-36.22-33.11a56.37,56.37,0,0,1-3.83-13.77,2.52,2.52,0,0,0-3.08-1.75,2.56,2.56,0,0,0-1.74,3.08Z" transform="translate(-33.23 -47.25)"/><path class="cls-1" d="M613.27,401.68l-16.39,11.06,3.42,3.42L626,369.3a2.5,2.5,0,0,0-.64-3.22,2.46,2.46,0,0,0-3.28.19c-9.6,12.1-19.24,24.25-27.16,37.55-1.65,2.77,2.64,5.26,4.32,2.52,10.21-16.6,29.35-25.23,48.13-27.56a97.5,97.5,0,0,1,16.65-.62v-5c-22.82-.34-40.89,15.84-56.93,30-8,7.1-16.23,14.16-25.76,19.18-8.52,4.48-17.83,6.18-27.06,8.54-9.74,2.5-19.61,6.21-25.35,15-1.77,2.71,2.56,5.21,4.32,2.53,4.63-7.1,12.84-10.14,20.67-12.25,9-2.44,18.25-4,26.81-7.95,19.6-9.06,33.21-26.66,50.83-38.63,9.64-6.55,20.6-11.61,32.47-11.44,3.23,0,3.2-4.84,0-5-20.39-1-42.21,4.08-58,17.61a55.62,55.62,0,0,0-11.12,13.05l4.32,2.52c7.7-12.93,17-24.76,26.37-36.53l-3.93-3L596,413.64c-1.14,2.07,1.25,4.88,3.42,3.42L615.8,406c2.65-1.79.15-6.13-2.53-4.32Z" transform="translate(-33.23 -47.25)"/><path class="cls-1" d="M721.84,405.81a72.75,72.75,0,0,1,44.46-17.4c3.21-.12,3.22-5.12,0-5a78.33,78.33,0,0,0-48,18.86,2.54,2.54,0,0,0,0,3.54,2.56,2.56,0,0,0,3.54,0Z" transform="translate(-33.23 -47.25)"/><path class="cls-1" d="M735.12,421.46A51.86,51.86,0,0,1,749,402.52L745.5,399l-32.45,39.68a2.56,2.56,0,0,0,0,3.53,2.51,2.51,0,0,0,3.53,0l35.54-42.65-3.92-3L722,438.33c-1.49,2.39,2,5.15,3.93,3l32.36-35.44-3.92-3-6.87,12.7c-1.52,2.84,2.79,5.36,4.32,2.53l6.86-12.71c1.31-2.42-1.94-5.2-3.92-3l-32.36,35.45,3.92,3,26.18-41.81c1.48-2.36-2.08-5.25-3.92-3l-35.54,42.65,3.53,3.53L749,402.52A2.5,2.5,0,0,0,745.5,399a55.15,55.15,0,0,0-14.7,19.95,2.58,2.58,0,0,0,.9,3.42,2.52,2.52,0,0,0,3.42-.9Z" transform="translate(-33.23 -47.25)"/><path class="cls-1" d="M739.24,429l16.9-12.48-3.42-3.42L747.51,424a2.57,2.57,0,0,0,.9,3.42,2.51,2.51,0,0,0,3.42-.9L757,415.66a2.6,2.6,0,0,0-.39-3,2.52,2.52,0,0,0-3-.39l-16.91,12.49a2.57,2.57,0,0,0-.89,3.42,2.51,2.51,0,0,0,3.42.89Z" transform="translate(-33.23 -47.25)"/><path class="cls-1" d="M735.12,461.57l25.09-34.07L755.9,425l-1.7,4a2.59,2.59,0,0,0,.9,3.43,2.52,2.52,0,0,0,3.42-.9l1.69-4A2.5,2.5,0,0,0,755.9,425l-25.1,34.08a2.52,2.52,0,0,0,.9,3.42,2.56,2.56,0,0,0,3.42-.9Z" transform="translate(-33.23 -47.25)"/><path class="cls-1" d="M754.78,458.73l15.15-18.26-3.93-3-8.46,13.25a2.5,2.5,0,0,0,4.32,2.53L770.32,440a2.5,2.5,0,0,0-3.93-3L751.25,455.2a2.56,2.56,0,0,0,0,3.53,2.5,2.5,0,0,0,3.53,0Z" transform="translate(-33.23 -47.25)"/><path class="cls-1" d="M751.44,465.42l25.2-19.91-3.92-3L764.23,454a2.52,2.52,0,0,0,.89,3.42,2.56,2.56,0,0,0,3.43-.89L777,445a2.48,2.48,0,0,0-.64-3.23,2.55,2.55,0,0,0-3.28.2l-25.2,19.9a2.52,2.52,0,0,0,0,3.54,2.55,2.55,0,0,0,3.53,0Z" transform="translate(-33.23 -47.25)"/><path class="cls-1" d="M750.34,466.06a62.31,62.31,0,0,0,29-17l-3.54-3.53L763,461.88a2.57,2.57,0,0,0,0,3.54,2.5,2.5,0,0,0,3.53,0l12.89-16.37a2.58,2.58,0,0,0,0-3.53,2.54,2.54,0,0,0-3.54,0A57.31,57.31,0,0,1,749,461.24c-3.11.81-1.79,5.64,1.33,4.82Z" transform="translate(-33.23 -47.25)"/><path class="cls-1" d="M768.08,455.32a25.61,25.61,0,0,0,7.47-18.49,2.53,2.53,0,0,0-3.16-2.41l-6.74,1.32a2.51,2.51,0,0,0-1.74,3.07,2.54,2.54,0,0,0,3.07,1.75l6.74-1.32-3.17-2.41a19.29,19.29,0,0,1,0,2.15c0,.18,0,.35,0,.53l-.05.47c0-.18,0,.29,0,.33l-.09.53a24.32,24.32,0,0,1-1.24,4.25c0,.07-.16.38,0,.15-.07.16-.15.32-.22.49s-.31.64-.48,1c-.33.63-.69,1.25-1.08,1.85a18.44,18.44,0,0,1-2.66,3.24,2.5,2.5,0,1,0,3.54,3.54Z" transform="translate(-33.23 -47.25)"/><path class="cls-1" d="M745.51,441.72,760.58,415c1.58-2.81-2.74-5.33-4.32-2.53L741.19,439.2c-1.58,2.8,2.74,5.33,4.32,2.52Z" transform="translate(-33.23 -47.25)"/><path class="cls-1" d="M740.13,434.83l28.15-37.46a2.52,2.52,0,0,0-.9-3.42,2.56,2.56,0,0,0-3.42.9l-3.07,4a2.51,2.51,0,0,0,.89,3.42,2.56,2.56,0,0,0,3.42-.9l3.08-4L764,394.85l-28.14,37.46a2.51,2.51,0,0,0,.89,3.42,2.56,2.56,0,0,0,3.42-.9Z" transform="translate(-33.23 -47.25)"/><path class="cls-1" d="M753.11,423.64l23.4-25.07c2.19-2.35-1.33-5.9-3.53-3.54l-23.4,25.07c-2.2,2.35,1.33,5.9,3.53,3.54Z" transform="translate(-33.23 -47.25)"/><path class="cls-1" d="M768.55,414.78a70.78,70.78,0,0,1,20.06-23.58l-3.42-3.42-4.61,7.54c-1.68,2.75,2.64,5.27,4.32,2.52l4.61-7.54c1.23-2-1.36-5-3.42-3.42a76.46,76.46,0,0,0-21.86,25.37c-1.51,2.84,2.81,5.37,4.32,2.53Z" transform="translate(-33.23 -47.25)"/><path class="cls-1" d="M768.15,447,798,413.73l-3.92-3-11.51,14.92a2.52,2.52,0,0,0,.9,3.42,2.56,2.56,0,0,0,3.42-.89l11.5-14.93c1.73-2.25-2-5.13-3.92-3L764.62,443.5c-2.14,2.39,1.38,5.94,3.53,3.54Z" transform="translate(-33.23 -47.25)"/><path class="cls-1" d="M770,448.94l30.29-26.61-3.92-3L786,434a2.5,2.5,0,0,0,4.32,2.52l10.44-14.68a2.46,2.46,0,0,0-.64-3.22,2.52,2.52,0,0,0-3.28.19L766.5,445.41a2.5,2.5,0,0,0,3.53,3.53Z" transform="translate(-33.23 -47.25)"/><path class="cls-1" d="M770.39,456a67.61,67.61,0,0,0,31.19-15.69c2.41-2.14-1.13-5.66-3.54-3.53a62.51,62.51,0,0,1-29,14.39,2.53,2.53,0,0,0-1.74,3.08,2.56,2.56,0,0,0,3.07,1.75Z" transform="translate(-33.23 -47.25)"/><path class="cls-1" d="M791.55,470.43l11.7-13.37a2.5,2.5,0,1,0-3.53-3.53L788,466.9a2.54,2.54,0,0,0,0,3.53,2.51,2.51,0,0,0,3.53,0Z" transform="translate(-33.23 -47.25)"/><path class="cls-1" d="M791.94,451.54a35.29,35.29,0,0,0,5.36-19.64,2.55,2.55,0,0,0-2.5-2.5,2.52,2.52,0,0,0-2.5,2.5A30.55,30.55,0,0,1,787.63,449a2.5,2.5,0,1,0,4.31,2.52Z" transform="translate(-33.23 -47.25)"/><path class="cls-1" d="M776.9,434.83l13.37-20.05a2.54,2.54,0,0,0-.89-3.43,2.57,2.57,0,0,0-3.43.9l-13.37,20.06a2.5,2.5,0,0,0,4.32,2.52Z" transform="translate(-33.23 -47.25)"/><path class="cls-1" d="M770.46,424.94,784.06,400c1.54-2.83-2.78-5.35-4.32-2.52l-13.59,24.94c-1.54,2.83,2.77,5.36,4.31,2.53Z" transform="translate(-33.23 -47.25)"/><path class="cls-1" d="M757.18,405l24.18-34.55a2.52,2.52,0,0,0-.9-3.42,2.55,2.55,0,0,0-3.42.9l-24.18,34.54a2.53,2.53,0,0,0,.9,3.43,2.56,2.56,0,0,0,3.42-.9Z" transform="translate(-33.23 -47.25)"/><path class="cls-1" d="M758.52,378l12.71-17.3a2.5,2.5,0,0,0-.39-3,2.55,2.55,0,0,0-3-.39l-7.53,4.23a2.5,2.5,0,1,0,2.52,4.32l7.54-4.24-3.42-3.42-12.72,17.3a2.52,2.52,0,0,0,.9,3.42,2.55,2.55,0,0,0,3.42-.89Z" transform="translate(-33.23 -47.25)"/><path class="cls-1" d="M758.77,375.74l1.67-5a2.49,2.49,0,0,0-1.75-3.07,2.48,2.48,0,0,0-1.92.25,2.66,2.66,0,0,0-1.15,1.5l-1.67,5a2.49,2.49,0,0,0,1.74,3.07,2.5,2.5,0,0,0,1.93-.25,2.72,2.72,0,0,0,1.15-1.49Z" transform="translate(-33.23 -47.25)"/><path class="cls-1" d="M641.06,431.85a21.25,21.25,0,0,0-23.72-6.31,2.58,2.58,0,0,0-1.5,3.68,150.39,150.39,0,0,0,19.78,33.22c1,1.28,3.2.75,3.93-.51l19.26-33.59a2.52,2.52,0,0,0-1.5-3.67A23.31,23.31,0,0,0,632,435.51c-1.59,2.8,2.72,5.33,4.32,2.53A18.21,18.21,0,0,1,656,429.49l-1.49-3.67-19.26,33.59,3.93-.51a145,145,0,0,1-19-32.21l-1.49,3.68a16.46,16.46,0,0,1,18.86,5,2.5,2.5,0,0,0,3.53,0,2.54,2.54,0,0,0,0-3.53Z" transform="translate(-33.23 -47.25)"/><path class="cls-1" d="M623.39,440.27c0-1,1.16-.55,1.42-.1s0,.82.18.44c-.18.34-.78.57-.27.51,1.17-.16,1.7-1.42,1.83-2.41l1.2-9h-5l-.68,10.2c-.15,2.29,2.78,3.13,4.27,1.77l7.9-7.2L630.06,432l-1.65,12a2.62,2.62,0,0,0,1.15,2.82,2.52,2.52,0,0,0,3-.39l3.19-3.71-4.18-2.44-1.45,7.22c-.63,3.14,3.89,4.44,4.82,1.33l3.21-10.63c.94-3.09-3.89-4.41-4.82-1.33l-3.21,10.6c-.93,3.09,3.88,4.4,4.82,1.33l2-6.5L632.15,441l-2,6.56c-.82,2.69,3.23,4.45,4.57,1.93L641.36,437,636.79,435l-2.9,11.8c-.65,2.64,3.3,4.58,4.57,1.93l5.69-11.88L639.58,435l-2,7.71c-.71,2.7,3.16,4.45,4.57,1.93L651,428.75l-4.57-1.93-6.48,16.95c-1,2.69,3.18,4.33,4.57,1.92l9.7-16.82L649.61,427A71.63,71.63,0,0,1,631,453l4.27,1.77a1.44,1.44,0,0,1,1-1.21l-3.07-1.75a7.19,7.19,0,0,1-2.25,8.43,2.53,2.53,0,0,0,0,3.54,2.56,2.56,0,0,0,3.54,0,12,12,0,0,0,3.53-13.3,2.55,2.55,0,0,0-3.08-1.74,6.64,6.64,0,0,0-4.65,6c-.17,2.3,2.77,3.1,4.27,1.77a77,77,0,0,0,19.85-28.3,2.47,2.47,0,0,0-1.45-2.95,2.5,2.5,0,0,0-3.12,1l-9.7,16.82,4.57,1.93,6.48-17c1-2.67-3.21-4.36-4.57-1.93l-8.84,15.85,4.57,1.93,2-7.71c.7-2.65-3.3-4.56-4.56-1.93l-5.7,11.89,4.57,1.92,2.9-11.8c.66-2.68-3.2-4.51-4.56-1.93L630.39,447l4.57,1.93,2-6.56c.94-3.08-3.88-4.4-4.82-1.33l-2,6.5,4.82,1.33,3.21-10.6-4.82-1.33-3.21,10.63,4.82,1.33,1.46-7.22a2.59,2.59,0,0,0-1.15-2.82,2.52,2.52,0,0,0-3,.39l-3.2,3.71,4.18,2.44,1.66-12c.32-2.39-2.19-4.24-4.18-2.43l-7.9,7.19,4.26,1.77.68-10.2a2.52,2.52,0,0,0-2.5-2.5,2.56,2.56,0,0,0-2.5,2.5l-1.2,9,1.84-2.42c-3.32.45-4.48,5.1-2.18,7.31,2.67,2.55,7.25.19,7.18-3.33-.07-3.22-5.07-3.23-5,0Z" transform="translate(-33.23 -47.25)"/><path class="cls-1" d="M628.85,405.57l-7.21,17.08a2.5,2.5,0,0,0,4.32,2.52l17.13-23.09-4.32-2.53-6,13.74,4.57,1.93A49.56,49.56,0,0,1,649,396l-3.93-3-10.64,22,4.57,1.92,10.31-25.21c.94-2.3-2.62-4.29-4.17-2.44a87.18,87.18,0,0,0-14.68,24.93l4.82,1.33L645,389c.79-2.16-1.89-3.79-3.67-2.82a34.51,34.51,0,0,0-15.68,18l4.83,1.33,7.76-25.92c.76-2.55-2.39-4-4.18-2.44a33.82,33.82,0,0,0-10.92,18.39c-.49,2.26,2.43,4.45,4.18,2.43l18.15-20.91-4.18-2.44-6.74,39.85a2.51,2.51,0,0,0,4.57,1.92l13.81-20.37-4.56-1.93-4.25,11.26c-1,2.63,3.35,4.48,4.57,1.92L660,383.51l-4.57-1.93-13.69,32.89a2.51,2.51,0,0,0,4.57,1.93l14.41-25.68-4.32-2.52-8.68,18.52a2.57,2.57,0,0,0,.9,3.42,2.54,2.54,0,0,0,3.42-.9l13.38-23.71L661.09,383,649.7,409.32a2.57,2.57,0,0,0,.9,3.42,2.54,2.54,0,0,0,3.42-.89l12.55-19.56L662,390.37l-4.64,20.9a2.53,2.53,0,0,0,3.68,2.82,19.72,19.72,0,0,0,9.71-16.82c0-2.84-4.11-3.36-4.91-.66l-5.08,17.07c-.8,2.71,3.18,4.41,4.57,1.93,7.25-12.91,3.32-30.19-8.52-38.94l.9,3.42a1.89,1.89,0,0,1,2.48-.38,2,2,0,0,1,.17,2.75,2.52,2.52,0,0,0,2.16,3.76,12.15,12.15,0,0,0,10.6-8.61,2.53,2.53,0,0,0-2.41-3.16c-5.26-.35-9,3.7-11.93,7.5a24.79,24.79,0,0,1-4.11,4.76,12.11,12.11,0,0,1-2.43,1.43,10.66,10.66,0,0,1-2.42.66l-.55,0s-.86-.08-.38,0l-.49-.12c-.72-.17.16.12-.22-.05a1.85,1.85,0,0,1-1.18-1.42c-.44-1.33-.28-2.86-.52-4.23a7.87,7.87,0,0,0-1.38-3.29c-2.84-3.84-8.35-4.22-12.43-2.33-5.55,2.58-7.48,9.27-8.82,14.7-.64,2.57,2.3,4,4.18,2.43L650.74,376l-3.93-3a50.3,50.3,0,0,1-32.44,25l1.93,4.57a208.07,208.07,0,0,1,41.47-21.17q6.24-2.34,12.64-4.28l-2.82-1.15a22.47,22.47,0,0,1,.76,21.07l3.92-.51a27.42,27.42,0,0,0-28.89-6.23,2.54,2.54,0,0,0-.6,4.57l9.57,6.88,1.26-4.66L627,399.43l1.77,4.27a32.31,32.31,0,0,1,21.43-12.32,31.13,31.13,0,0,1,23.3,6.81,32.32,32.32,0,0,1,8.73,11.06l3.42-3.42-34.83-14.92a2.58,2.58,0,0,0-3.42.89,2.51,2.51,0,0,0,.89,3.42l34.84,14.93a2.52,2.52,0,0,0,3.42-3.42,37.15,37.15,0,0,0-20.73-18.5,36.08,36.08,0,0,0-28.11,1.82,35.62,35.62,0,0,0-12.48,10.11,2.57,2.57,0,0,0-.52,2.73,2.48,2.48,0,0,0,2.29,1.54l26.6-2.39a2.53,2.53,0,0,0,1.27-4.66l-9.58-6.88-.59,4.57a22.52,22.52,0,0,1,24,4.95,2.53,2.53,0,0,0,3.93-.51,27.68,27.68,0,0,0-.76-26.11,2.56,2.56,0,0,0-2.83-1.15,213.76,213.76,0,0,0-43.74,18.84q-5.9,3.38-11.56,7.12a2.51,2.51,0,0,0,1.92,4.56,55.19,55.19,0,0,0,35.43-27.29c1.4-2.61-1.78-4.78-3.93-3L624.49,391l4.18,2.43c1-4,2.22-9.55,6.12-11.51a6.31,6.31,0,0,1,4.53-.41,3.87,3.87,0,0,1,1.49.84,2.06,2.06,0,0,1,.5.71,5.94,5.94,0,0,1,.36,1.47c.31,2.64.35,5.27,2.37,7.27a7.42,7.42,0,0,0,5.51,2,15,15,0,0,0,10.9-5.89c2.55-3.26,5.62-8.78,10.26-8.47l-2.41-3.17a7,7,0,0,1-5.78,4.94l2.16,3.76a6.93,6.93,0,0,0-2-9.59,7,7,0,0,0-9.33,2.18,2.56,2.56,0,0,0,.9,3.42c9.62,7.12,12.53,21.74,6.72,32.1l4.57,1.92,5.08-17.07-4.91-.67a14.63,14.63,0,0,1-7.24,12.51l3.67,2.82,4.64-20.9a2.51,2.51,0,0,0-4.57-1.93L649.7,409.32l4.32,2.53,11.39-26.32a2.59,2.59,0,0,0-.9-3.42,2.53,2.53,0,0,0-3.42.9l-13.38,23.71,4.32,2.52,8.68-18.52a2.57,2.57,0,0,0-.9-3.42,2.54,2.54,0,0,0-3.42.9L642,413.88l4.57,1.92,13.69-32.89c1.08-2.6-3.36-4.48-4.57-1.92L644.36,404.8l4.57,1.93,4.25-11.26a2.49,2.49,0,0,0-1.45-3,2.54,2.54,0,0,0-3.12,1l-13.82,20.38,4.57,1.93L646.1,376a2.59,2.59,0,0,0-1.15-2.82,2.52,2.52,0,0,0-3,.39l-18.15,20.92,4.18,2.43a29.37,29.37,0,0,1,9.64-16.18l-4.18-2.43-7.77,25.92a2.5,2.5,0,0,0,4.83,1.33,29.23,29.23,0,0,1,13.37-15.05l-3.67-2.82-9.68,26.47a2.5,2.5,0,1,0,4.82,1.33,80,80,0,0,1,13.39-22.72l-4.18-2.43-10.31,25.21c-1.07,2.61,3.34,4.47,4.57,1.93l10.64-22c1.18-2.45-1.84-5.17-3.93-3a55.26,55.26,0,0,0-13,21.47c-.87,2.64,3.42,4.54,4.57,1.92l6-13.73a2.5,2.5,0,0,0-4.32-2.53l-17.13,23.1,4.32,2.52,7.21-17.08a2.58,2.58,0,0,0-.9-3.42,2.52,2.52,0,0,0-3.42.9Z" transform="translate(-33.23 -47.25)"/><path class="cls-1" d="M750.34,444.34l62.48-10.58,17.71-3a2.51,2.51,0,0,0,1.74-3.07,2.56,2.56,0,0,0-3.07-1.75l-62.48,10.58-17.71,3a2.5,2.5,0,1,0,1.33,4.82Z" transform="translate(-33.23 -47.25)"/><path class="cls-1" d="M738.56,447.36l60-14.36,16.92-4.06c3.13-.75,1.81-5.57-1.33-4.82l-59.94,14.37-16.93,4.05c-3.12.75-1.8,5.57,1.33,4.82Z" transform="translate(-33.23 -47.25)"/><path class="cls-1" d="M753.62,430.68l65-12.85,18.58-3.67a2.52,2.52,0,0,0,1.74-3.07,2.55,2.55,0,0,0-3.07-1.75l-65,12.85-18.58,3.67a2.5,2.5,0,0,0,1.33,4.82Z" transform="translate(-33.23 -47.25)"/><path class="cls-1" d="M716.85,424l52-11.76,52.25-11.82,29.41-6.66c3.14-.71,1.81-5.53-1.33-4.82l-52,11.77-52.25,11.82-29.41,6.65c-3.13.71-1.81,5.53,1.33,4.82Z" transform="translate(-33.23 -47.25)"/><path class="cls-1" d="M708.47,412.17l95.17-19.54,26.84-5.52a2.51,2.51,0,0,0,1.74-3.07,2.54,2.54,0,0,0-3.07-1.75L734,401.84l-26.84,5.51a2.5,2.5,0,0,0,1.33,4.82Z" transform="translate(-33.23 -47.25)"/><path class="cls-1" d="M722,397.67q24.46-4.83,49.12-8.48,24.45-3.6,49.06-6,14.05-1.38,28.14-2.38a2.56,2.56,0,0,0,2.5-2.5,2.52,2.52,0,0,0-2.5-2.5q-25,1.77-49.87,4.75-25.08,3-50,7.21-13.92,2.36-27.78,5.09a2.5,2.5,0,0,0,1.33,4.83Z" transform="translate(-33.23 -47.25)"/><path class="cls-1" d="M761.39,462.91,816,456.4l15.57-1.85a2.58,2.58,0,0,0,2.5-2.5,2.51,2.51,0,0,0-2.5-2.5L777,456.06l-15.57,1.85a2.57,2.57,0,0,0-2.5,2.5,2.51,2.51,0,0,0,2.5,2.5Z" transform="translate(-33.23 -47.25)"/></svg>
