<?xml version="1.0" encoding="UTF-8" standalone="no"?>
<!-- Created with Inkscape (http://www.inkscape.org/) -->

<svg
   width="270.3158mm"
   height="239.53938mm"
   viewBox="0 0 270.3158 239.53938"
   version="1.1"
   id="svg1"
   xmlns="http://www.w3.org/2000/svg"
   xmlns:svg="http://www.w3.org/2000/svg">
  <defs
     id="defs1" />
  <g
     id="layer1"
     transform="translate(-4431.959,-4709.3546)">
    <path
       style="fill:#ff0000;stroke-width:0.264583"
       id="path91"
       d="m 4538.4635,4728.9637 c 46.7862,2.9009 94.8356,-5.1734 141.1607,2.7993 2.2897,1.8397 5.751,2.8033 6.8694,5.5192 6.4691,15.7105 -63.2357,88.7693 -73.2216,99.7072 -16.8134,16.6066 -89.9266,95.3926 -114.2624,93.0542 9.7592,-3.4131 -10.8765,2.8205 7.8116,6.391 0.903,0.1725 10.4473,-17.0674 9.8914,-19.2563 -1.224,-4.8184 -4.7424,-8.7392 -7.1136,-13.1086 -23.8723,-4.6008 -47.6795,7.8979 -70.3376,14.8061 -12.8508,3.9188 -7.3091,22.0927 5.5417,18.174 v 0 c 18.2404,-5.5629 36.2342,-12.0256 54.6436,-16.9198 -2.0563,-25.8062 -21.8496,23.8117 1.9447,28.7639 51.9716,-10.3571 88.619,-66.5962 125.9152,-99.0971 25.3243,-27.763 113.7949,-103.8902 55.3977,-136.7824 -47.5258,-7.4946 -96.2967,-0.7747 -144.2408,-3.0507 -13.4353,0 -13.4353,19 0,19 z" />
  </g>
</svg>
