<svg id="Layer_34" data-name="Layer 34" xmlns="http://www.w3.org/2000/svg" viewBox="0 0 652.87 879.89"><defs><style>.cls-1{fill:#952c1f;}</style></defs><path class="cls-1" d="M78.55,300.87q-6.52-24-12-48.29t-10-49q-2.49-13.8-4.65-27.67l-4.56,1.93q11.28,23.13,20.93,47T85.9,273.4q4.51,13.92,8.45,28c.74,2.66,5,2.22,4.91-.66q-1.5-33.71-3.91-67.35t-5.73-67.21q-1.87-19-4.05-38l-4.91.67q6.77,39,14.73,77.8T112.5,284q5.18,21.78,10.72,43.46c.8,3.11,5.62,1.79,4.82-1.33q-9.81-38.37-18.45-77T93.51,171.57q-4.2-22-8-44c-.48-2.74-5.23-2.14-4.91.66q3.83,33.53,6.76,67.12t4.94,67.28q1.14,19.06,2,38.14l4.91-.67q-7-25.1-15.82-49.66T64.07,202.05q-5.92-13.5-12.4-26.75a2.49,2.49,0,0,0-3.12-1,2.57,2.57,0,0,0-1.45,2.95q3.84,24.59,8.71,49T66.7,275q3.35,13.62,7,27.16c.84,3.1,5.67,1.79,4.82-1.33Z" transform="translate(-44.4 -85.77)"/><path class="cls-1" d="M97.24,205.24q7.28,26,16.69,51.32t20.9,49.71q6.49,13.8,13.63,27.27c1.38,2.63,5.09.74,4.57-1.92l-15.19-76.43-15.19-76.42-8.56-43.11a2.53,2.53,0,0,0-3.08-1.75,2.56,2.56,0,0,0-1.75,3.08l15.19,76.42,15.19,76.43L148.2,333l4.57-1.93q-12.51-23.65-23.05-48.29t-18.84-49.89q-4.75-14.35-8.82-28.93c-.86-3.1-5.69-1.78-4.82,1.33Z" transform="translate(-44.4 -85.77)"/><path class="cls-1" d="M166.49,172.75l-7.69-8.31c-1.56-1.69-4.12-.27-4.26,1.77l-2.86,41.33L150.27,228c-.42,6-1,12-1.07,18,0,5.09.44,10.33,2.44,15.06a20.86,20.86,0,0,0,10.86,10.91c4.55,2.14,9.34,3.76,12.41,8a27,27,0,0,1,4.56,12.91c1.51,13.73-3.88,27.41-.25,41,.83,3.11,5.65,1.79,4.82-1.33-3.2-12,1.16-24.3.67-36.44-.41-10.24-4-20.77-13.62-25.72-4.48-2.31-9.8-3.64-13-7.89-2.75-3.72-3.63-8.5-3.86-13-.3-5.59.27-11.2.66-16.78l1.41-20.41,3.19-46.06L155.27,168l7.68,8.31c2.19,2.36,5.72-1.18,3.54-3.54Z" transform="translate(-44.4 -85.77)"/><path class="cls-1" d="M194.2,152.78q2.15,34.49,5.61,68.87t8.26,68.77q2.7,19.32,5.8,38.56a2.51,2.51,0,0,0,3.07,1.75,2.56,2.56,0,0,0,1.75-3.08q-5.46-33.9-9.64-68t-7-68.24q-1.62-19.3-2.82-38.64c-.2-3.2-5.2-3.22-5,0Z" transform="translate(-44.4 -85.77)"/><path class="cls-1" d="M173.17,239.8a188.34,188.34,0,0,1,40.18-28.54q6.28-3.33,12.8-6.17a2.52,2.52,0,0,0,.9-3.42,2.57,2.57,0,0,0-3.43-.9,193.46,193.46,0,0,0-43.06,26.06q-5.64,4.51-10.92,9.43c-2.36,2.2,1.18,5.73,3.53,3.54Z" transform="translate(-44.4 -85.77)"/><path class="cls-1" d="M260.91,234a75.63,75.63,0,0,0,.59,40.73c1.89,6.38,4.54,12.95,8.43,18.39,3.67,5.14,9,10.05,15.59,10.46,6.15.38,11.12-3.92,13.59-9.22,2.65-5.69,3.42-12.09,4.12-18.26a147.85,147.85,0,0,0-13.42-79.45,107.38,107.38,0,0,0-9.91-17.38c-3.58-4.9-8.79-9.91-15.38-9.2-5.93.65-10,5.29-12.41,10.42-2.58,5.47-3.94,11.55-5.17,17.45A155.17,155.17,0,0,0,243.86,237a157.82,157.82,0,0,0,22.6,74.41c1.62,2.66,3.34,5.26,5.13,7.82a2.5,2.5,0,0,0,4.32-2.53,151.07,151.07,0,0,1-26-67.55,155.54,155.54,0,0,1-.26-36.91,142.23,142.23,0,0,1,3.18-17.73c1.26-5.19,2.55-10.63,5.63-15.09,2.64-3.83,6.95-5.72,11.26-3.24,5,2.88,8.07,8.73,10.85,13.59a140.6,140.6,0,0,1,14.14,35.15,142.73,142.73,0,0,1,4.39,37.83,135.86,135.86,0,0,1-1.66,19c-.77,4.77-1.74,10.35-5.17,14a8.32,8.32,0,0,1-5.87,2.81,11.42,11.42,0,0,1-7-2.62c-4.78-3.57-7.72-9.08-10.1-14.41A70.68,70.68,0,0,1,264,244.24a65.84,65.84,0,0,1,1.79-8.9c.83-3.12-4-4.44-4.83-1.33Z" transform="translate(-44.4 -85.77)"/><path class="cls-1" d="M305.37,103.41l14.92,106.93,14.92,106.94,8.41,60.25a2.52,2.52,0,0,0,3.07,1.75,2.58,2.58,0,0,0,1.75-3.08L333.52,269.27,318.6,162.33l-8.41-60.25a2.5,2.5,0,0,0-3.07-1.74,2.55,2.55,0,0,0-1.75,3.07Z" transform="translate(-44.4 -85.77)"/><path class="cls-1" d="M289.32,191.09a374.27,374.27,0,0,1,31.29-43.19,379.25,379.25,0,0,1,37.1-38.32q11.18-10,23.12-19.12a2.6,2.6,0,0,0,.9-3.43,2.52,2.52,0,0,0-3.42-.89,379,379,0,0,0-76.22,77.24q-9,12.26-17.09,25.19c-1.7,2.74,2.62,5.25,4.32,2.52Z" transform="translate(-44.4 -85.77)"/><path class="cls-1" d="M288,313.86a536.45,536.45,0,0,1,39.51-49.44,543.3,543.3,0,0,1,45.17-44.61Q386.1,208,400.28,197.14a2.57,2.57,0,0,0,.89-3.42,2.51,2.51,0,0,0-3.42-.89A547.81,547.81,0,0,0,348.87,235a542,542,0,0,0-43.27,47.37q-11.43,14.11-21.93,29a2.52,2.52,0,0,0,.89,3.42,2.56,2.56,0,0,0,3.43-.9Z" transform="translate(-44.4 -85.77)"/><path class="cls-1" d="M427.85,195.58l-3.12-15.2-4.82,1.33,13.3,55.55,13.36,55.8,7.5,31.29c.66,2.78,4.87,2.12,4.91-.66l1.19-90.18,1.2-90.18L462,92.87c0-3.24-4.79-3.18-5,0l-.67,9.78a2.52,2.52,0,0,0,2.5,2.5,2.55,2.55,0,0,0,2.5-2.5l.67-9.78h-5l-1.2,90.18-1.19,90.18L454,323.69l4.91-.67-13.3-55.55-13.37-55.79-7.49-31.3c-.75-3.14-5.47-1.8-4.82,1.33l3.12,15.2a2.5,2.5,0,1,0,4.82-1.33Z" transform="translate(-44.4 -85.77)"/><path class="cls-1" d="M522.52,134.34l-33.1,71.28c-2.22,4.79-4.94,9.59-6.11,14.78-.93,4.16-1.11,9,1.77,12.49,3.67,4.42,9.68,3.5,14.13.91,2.38-1.39,4.51-3.16,6.84-4.63a35.17,35.17,0,0,1,6.28-3.16,38.32,38.32,0,0,1,32.28,2.29l-.5-3.93a205.45,205.45,0,0,0-38.22,49.07,210,210,0,0,0-22.09,58.18,205.17,205.17,0,0,0-4.46,35.08c-.13,3.22,4.87,3.21,5,0A201,201,0,0,1,496.07,307a205.62,205.62,0,0,1,28.75-53.5,196.15,196.15,0,0,1,22.82-25.54,2.53,2.53,0,0,0-.5-3.93,43.21,43.21,0,0,0-29.48-4.66,41,41,0,0,0-13.81,5.33c-2.21,1.36-4.23,3-6.44,4.39-1.81,1.13-4,2.4-6.25,1.94a4.54,4.54,0,0,1-1.92-.94,3.2,3.2,0,0,1-.62-.72,4.21,4.21,0,0,1-.45-.84,10.37,10.37,0,0,1-.34-5.19c.66-4.59,3-8.87,5-13.12l16-34.51,18-38.8a2.57,2.57,0,0,0-.9-3.42,2.51,2.51,0,0,0-3.42.9Z" transform="translate(-44.4 -85.77)"/><path class="cls-1" d="M88.71,502.09l-3.13-53.63-3.14-53.63L80.66,364.4,76,365.66q16.81,35.85,32,72.43,15.12,36.42,28.59,73.5,7.64,21,14.73,42.23c1,3,5.85,1.73,4.83-1.33q-12.69-37.86-27.06-75.11Q114.77,440.3,98.8,403.87q-9-20.49-18.48-40.73c-1-2.25-4.8-1.15-4.66,1.26L78.8,418l3.13,53.63,1.78,30.43c.19,3.2,5.19,3.22,5,0Z" transform="translate(-44.4 -85.77)"/><path class="cls-1" d="M77.4,487.54a222.24,222.24,0,0,1,54.79-22.77q8.17-2.17,16.48-3.72a2.5,2.5,0,1,0-1.33-4.82A227.1,227.1,0,0,0,90,475.16c-5.13,2.49-10.17,5.19-15.1,8.06-2.78,1.62-.27,5.94,2.52,4.32Z" transform="translate(-44.4 -85.77)"/><path class="cls-1" d="M121.52,373.73q11.25,32.86,21.2,66.15t18.5,66.71q4.84,18.95,9.27,38c.73,3.13,5.55,1.81,4.82-1.33q-7.86-33.84-17.06-67.34T138.6,409.53q-5.92-18.63-12.26-37.13a2.57,2.57,0,0,0-3.08-1.75,2.53,2.53,0,0,0-1.74,3.08Z" transform="translate(-44.4 -85.77)"/><path class="cls-1" d="M126.29,368.52a384.89,384.89,0,0,1,54.63,21q7.59,3.6,15,7.52v-4.32a138.27,138.27,0,0,0-38.34,45.24,141.61,141.61,0,0,0-6.93,15.39,2.55,2.55,0,0,0,1.15,2.82q22.59,17.31,43.49,36.67t39.89,40.5q10.73,12,20.83,24.46a2.52,2.52,0,0,0,3.54,0,2.55,2.55,0,0,0,0-3.53q-18-22.29-38-42.85t-41.85-39.13q-12.39-10.54-25.33-20.43l1.14,2.82a132.59,132.59,0,0,1,30.9-47.13A129.6,129.6,0,0,1,198.45,397c1.39-1.06,1.83-3.35,0-4.32a394.56,394.56,0,0,0-54.86-23.83q-7.92-2.75-16-5.15c-3.09-.92-4.41,3.9-1.33,4.82Z" transform="translate(-44.4 -85.77)"/><path class="cls-1" d="M229.7,401.62l-31.23,35.47a2.53,2.53,0,0,0,1.1,4.18c20.57,5.45,35,22.78,46.05,39.93,12.24,18.94,22.65,39.9,40.73,54.13,9.32,7.33,20.13,12.57,32,13.65a2.51,2.51,0,0,0,2.5-2.5,2.55,2.55,0,0,0-2.5-2.5c-21.07-1.91-37.5-18.13-49-34.6-12.9-18.44-22.5-39.38-38.84-55.23-8.35-8.1-18.31-14.7-29.65-17.7l1.1,4.17,31.23-35.46a2.56,2.56,0,0,0,0-3.54,2.51,2.51,0,0,0-3.53,0Z" transform="translate(-44.4 -85.77)"/><path class="cls-1" d="M212.18,461.05l45.13-15c3-1,1.73-5.85-1.33-4.82l-45.13,15c-3,1-1.73,5.84,1.33,4.82Z" transform="translate(-44.4 -85.77)"/><path class="cls-1" d="M349.65,517.11q-3-33.58-7.18-67T333,383.13q-3-18.78-6.32-37.51l-4.56,1.93q18.62,38.42,35.73,77.54,17,38.82,32.41,78.29Q399,525.61,407.18,548a2.5,2.5,0,1,0,4.82-1.33q-14.69-40.08-30.92-79.58T347,388.66Q337,366.73,326.44,345a2.48,2.48,0,0,0-3.12-1,2.56,2.56,0,0,0-1.45,2.95q5.89,33.07,10.67,66.33,4.75,33,8.37,66.23,2,18.78,3.74,37.6a2.56,2.56,0,0,0,2.5,2.5,2.52,2.52,0,0,0,2.5-2.5Z" transform="translate(-44.4 -85.77)"/><path class="cls-1" d="M343,507.19a138.6,138.6,0,0,1,54.12-42.73,133.29,133.29,0,0,1,18.52-6.6c3.09-.87,1.78-5.69-1.33-4.83a142.22,142.22,0,0,0-75.62,51.64,2.52,2.52,0,0,0,.89,3.42,2.56,2.56,0,0,0,3.42-.9Z" transform="translate(-44.4 -85.77)"/><path class="cls-1" d="M382.53,336.67q4.83,41.1,11.85,81.9t16.23,80.95q5.16,22.56,11,45c.81,3.12,5.63,1.8,4.82-1.32Q416,503.31,407.81,463q-8.19-40.09-14.2-80.6-3.39-22.8-6.08-45.69a2.58,2.58,0,0,0-2.5-2.5,2.51,2.51,0,0,0-2.5,2.5Z" transform="translate(-44.4 -85.77)"/><path class="cls-1" d="M405.46,344.25l23.84,76.2,23.85,76.19,13.41,42.86c1,3.06,5.79,1.76,4.82-1.33L447.54,462l-23.85-76.2-13.41-42.86c-1-3.06-5.79-1.75-4.82,1.33Z" transform="translate(-44.4 -85.77)"/><path class="cls-1" d="M421.62,358.59l51.05,18.62,14.52,5.29-1.1-4.18a168.29,168.29,0,0,0-46.95,62.75c-1.78,4.14-3.41,8.34-4.86,12.61-1.53,4.5-2.57,9.56.76,13.53,2.53,3,6.69,4,10.32,4.9a55,55,0,0,1,11,4.2,73.44,73.44,0,0,1,19.15,14.54c11.82,12.21,20.05,27.12,28,42,8.38,15.68,16.81,31.72,29.19,44.69,1.52,1.59,3.09,3.13,4.72,4.6,2.38,2.16,5.92-1.36,3.54-3.53-12.93-11.75-21.7-27-29.89-42.22-8-14.94-15.8-30.06-26.73-43.16a91.76,91.76,0,0,0-17.74-16.58,68.43,68.43,0,0,0-21.81-9.84c-3-.8-6.93-1.91-7.06-5.64a18.11,18.11,0,0,1,1.4-6.34q1-3,2.15-5.95a160.91,160.91,0,0,1,11.14-23.14A164.15,164.15,0,0,1,484.82,386c1.58-1.41,3.18-2.78,4.8-4.13s.5-3.6-1.1-4.18l-51-18.62L423,353.77a2.5,2.5,0,1,0-1.33,4.82Z" transform="translate(-44.4 -85.77)"/><path class="cls-1" d="M509,358,476.4,444.72l-9.28,24.72c-.85,2.28,2.64,4.37,4.18,2.44,4.57-5.73,12.94-4.37,18.41-.81,3.64,2.37,6.61,5.64,9.47,8.86s5.82,6.53,8.91,9.63a164.74,164.74,0,0,0,70.47,41.62c3.09.9,4.42-3.92,1.33-4.82a160.09,160.09,0,0,1-48.1-23.29,158,158,0,0,1-20.31-17.19c-3.19-3.2-6.17-6.58-9.17-9.94a52,52,0,0,0-10.07-9.19c-7.19-4.68-18.56-5.83-24.47,1.59l4.18,2.43L504.51,384l9.27-24.72a2.52,2.52,0,0,0-1.74-3.08A2.57,2.57,0,0,0,509,358Z" transform="translate(-44.4 -85.77)"/><path class="cls-1" d="M476.15,474.11l48.17-15.54,13.7-4.42c3.05-1,1.74-5.81-1.33-4.82l-48.18,15.54-13.69,4.42c-3.05,1-1.75,5.81,1.33,4.82Z" transform="translate(-44.4 -85.77)"/><path class="cls-1" d="M563.51,525.47q-4.47-36-10.27-71.74-5.79-35.55-12.91-70.88-4-19.87-8.45-39.68l-4.82,1.33,28.77,86.33,28.78,86.32,16.12,48.38c1,3,5.85,1.73,4.82-1.33l-28.77-86.32L548,391.55l-16.13-48.38a2.5,2.5,0,0,0-4.82,1.33q7.85,35,14.37,70.35t11.71,70.83q2.9,19.86,5.37,39.79A2.58,2.58,0,0,0,561,528a2.51,2.51,0,0,0,2.5-2.5Z" transform="translate(-44.4 -85.77)"/><path class="cls-1" d="M539.11,483.7a42,42,0,0,1,34.4-7.55c3.13.71,4.47-4.11,1.33-4.82a47.29,47.29,0,0,0-39.27,8.84,2.5,2.5,0,0,0,0,3.53,2.56,2.56,0,0,0,3.54,0Z" transform="translate(-44.4 -85.77)"/><path class="cls-1" d="M561.36,367.47l16.72,75,16.72,75,9.45,42.36c.7,3.14,5.52,1.81,4.82-1.33l-16.72-75-16.72-75-9.44-42.36c-.7-3.14-5.53-1.81-4.83,1.33Z" transform="translate(-44.4 -85.77)"/><path class="cls-1" d="M547.3,354.44c5.57,11.52,18.16,16.38,29.64,19.9,6,1.85,12.17,3.44,18.11,5.61,5.13,1.87,10.6,4.48,14.52,8.2q.72.68,1.38,1.41c.22.24.44.49.65.74.4.49.26.31.53.66a23.19,23.19,0,0,1,4.39,16.56,64.35,64.35,0,0,1-3.21,14.75c-1.59,5.12-3.31,10.19-4.91,15.3q-9.79,31.13-17.39,62.9t-12.94,64c-.44,2.69-.88,5.39-1.3,8.09a2.58,2.58,0,0,0,1.74,3.07,2.52,2.52,0,0,0,3.08-1.75q5.13-32.6,12.54-64.77t17.09-63.73q2.4-7.83,4.94-15.62a140.85,140.85,0,0,0,4.32-14.9c1.84-8.84,1.65-18.36-3.75-26-7.32-10.35-20.39-14-32-17.39-3.12-.91-6.24-1.81-9.32-2.82q-2.25-.72-4.45-1.54c-1.55-.57-2.72-1-4-1.64a44,44,0,0,1-7.64-4.34,28.47,28.47,0,0,1-5.49-5.42,26,26,0,0,1-2.23-3.77,2.5,2.5,0,1,0-4.31,2.52Z" transform="translate(-44.4 -85.77)"/><path class="cls-1" d="M629,374a499.83,499.83,0,0,0,10,49.08q6.24,24.15,14.84,47.61,4.92,13.38,10.6,26.47a2.52,2.52,0,0,0,3.42.9,2.56,2.56,0,0,0,.89-3.42q-9.79-22.71-17.29-46.33t-12.66-48q-2.91-13.75-5-27.65a2.52,2.52,0,0,0-3.08-1.74A2.55,2.55,0,0,0,629,374Z" transform="translate(-44.4 -85.77)"/><path class="cls-1" d="M692.39,331,669.15,455.74,646,579.85l-13.08,70.2c-.59,3.14,4.23,4.49,4.82,1.33L661,526.64l23.13-124.1,13.08-70.2c.59-3.15-4.23-4.5-4.82-1.33Z" transform="translate(-44.4 -85.77)"/><path class="cls-1" d="M76.58,675l11.76,79.12L100,832.7l6.62,44.5a2.51,2.51,0,0,0,3.07,1.75,2.57,2.57,0,0,0,1.75-3.08L99.71,796.76,88,718.15,81.4,673.64a2.52,2.52,0,0,0-3.08-1.74A2.55,2.55,0,0,0,76.58,675Z" transform="translate(-44.4 -85.77)"/><path class="cls-1" d="M141.81,830.08q-14.77-32.42-27-65.87t-22-67.85q-5.46-19.36-10.11-39l-4.57,1.93,44.37,73.85,44.22,73.61,24.88,41.42a2.51,2.51,0,0,0,4.57-1.92q-6.78-27.7-14.42-55.18t-16.17-54.69q-8.55-27.33-18-54.4T128,628.48q-10.22-26.62-21.29-52.91c-.93-2.22-1.87-4.45-2.82-6.67a2.51,2.51,0,0,0-3.42-.9,2.56,2.56,0,0,0-.9,3.42q11.13,26.19,21.42,52.72t19.7,53.24q9.42,26.77,18,53.83T175,785.84q7.72,27.31,14.57,54.86.87,3.46,1.71,6.93l4.57-1.93-44.36-73.85L107.3,698.24,82.42,656.82a2.51,2.51,0,0,0-4.57,1.92q8.3,35,19.22,69.23,10.89,34.11,24.36,67.31,7.63,18.83,16.06,37.32a2.52,2.52,0,0,0,3.42.9,2.57,2.57,0,0,0,.9-3.42Z" transform="translate(-44.4 -85.77)"/><path class="cls-1" d="M207.69,621.16l-39.6,70.47-11.31,20.13,4.31,2.52c7-14.72,25.76-17.82,40.25-15,19.21,3.77,36.3,14.78,56.07,16.19,9.89.71,20.21-1.07,28.32-7.07l-3-3.92A515.65,515.65,0,0,0,214.06,796a523.87,523.87,0,0,0-46.83,104,508.24,508.24,0,0,0-14.57,55.5q-.71,3.48-1.36,7c-.6,3.15,4.22,4.49,4.82,1.33a509,509,0,0,1,33.26-108.38A518.08,518.08,0,0,1,245.66,757,504.47,504.47,0,0,1,286.23,708c1.85-2-.65-5.68-3-3.92-15.57,11.51-36.18,5.63-52.61-.52-17.23-6.46-35.45-14-54-8.07-8.4,2.71-16,8.1-19.86,16.23-1.36,2.87,2.71,5.37,4.31,2.52l39.6-70.46L212,623.69c1.58-2.81-2.74-5.33-4.31-2.53Z" transform="translate(-44.4 -85.77)"/><path class="cls-1" d="M286.15,844.69l1.24-83,1.24-83,.7-46.49-4.92.67,29.46,90.76L343.17,814l16.5,50.84c1,3.05,5.82,1.74,4.82-1.33L335,772.7l-29.3-90.29-16.5-50.84a2.51,2.51,0,0,0-4.91.66l-1.25,83-1.24,83-.69,46.49c0,3.21,5,3.21,5,0Z" transform="translate(-44.4 -85.77)"/><path class="cls-1" d="M268.44,774.61a519.17,519.17,0,0,1,52.21-38.33q7.82-5,15.8-9.75c2.77-1.64.26-6-2.52-4.31a527.87,527.87,0,0,0-54.57,37.2q-7.33,5.7-14.46,11.65a2.53,2.53,0,0,0,0,3.54,2.55,2.55,0,0,0,3.54,0Z" transform="translate(-44.4 -85.77)"/><path class="cls-1" d="M389.66,836l-20.25-80.49-20.26-80.5-11.36-45.16L333,631.22C343.26,656,353.58,680.71,364.9,705c11.18,24,23.36,47.6,37.42,70.07a430,430,0,0,0,25.75,36.8,2.51,2.51,0,0,0,3,.39,2.59,2.59,0,0,0,1.15-2.82q-10.38-48.91-22.67-97.4t-26.49-96.43q-8-26.93-16.53-53.66c-1-3.06-5.81-1.75-4.82,1.33Q377,610.9,390.35,659.11T415.17,756q6.43,27.33,12.26,54.8l4.18-2.43c-16.17-20.68-30.1-43-42.55-66.11C376.53,719,365.49,695,355,670.76c-5.86-13.57-11.55-27.22-17.23-40.87a2.59,2.59,0,0,0-3.08-1.74,2.53,2.53,0,0,0-1.74,3.07l20.25,80.5,20.26,80.49,11.36,45.16c.79,3.12,5.61,1.8,4.82-1.33Z" transform="translate(-44.4 -85.77)"/><path class="cls-1" d="M457.39,614.31a324.3,324.3,0,0,0-38.05,39.24,330.46,330.46,0,0,0-31.21,45.35q-7.63,13.38-14,27.45a2.51,2.51,0,0,0,3.92,3c17.45-13.93,42.16-8.7,59.89,1.77,21.5,12.71,34.69,35,48.55,55,7.19,10.37,14.74,20.63,23.8,29.47a126.44,126.44,0,0,0,26.22,19.59A141.16,141.16,0,0,0,599.31,853a133.31,133.31,0,0,0,63.79-12.74q3.57-1.72,7-3.68c2.8-1.58.29-5.91-2.52-4.32a126.08,126.08,0,0,1-62.24,15.88,136.21,136.21,0,0,1-62.64-15.24,122.66,122.66,0,0,1-26.44-18.49c-9.1-8.39-16.65-18.23-23.74-28.33-14.21-20.25-27.28-43-48.37-56.92-18-11.9-42.91-18.62-63-7.77a45.18,45.18,0,0,0-6.64,4.48l3.93,3a323.23,323.23,0,0,1,60.2-89.72q10.6-11.17,22.24-21.31c2.43-2.11-1.12-5.64-3.53-3.53Z" transform="translate(-44.4 -85.77)"/><path class="cls-1" d="M402,742.26a644.77,644.77,0,0,1,67.45-27.35,651.91,651.91,0,0,1,70-19.63q20-4.42,40.32-7.58a2.51,2.51,0,0,0,1.74-3.07,2.55,2.55,0,0,0-3.07-1.75,651.82,651.82,0,0,0-141,38.53q-19.24,7.67-38,16.53a2.52,2.52,0,0,0-.89,3.42,2.55,2.55,0,0,0,3.42.9Z" transform="translate(-44.4 -85.77)"/><path class="cls-1" d="M57,596.69a34.8,34.8,0,0,0,0,21.64c.63,1.92,3.54,2.62,4.57.6a69.47,69.47,0,0,0,6.19-17.18,57.69,57.69,0,0,0,1.42-17.66c-.27-2.6-1-5.3-2.93-7.17a8,8,0,0,0-7.16-2c-5.67,1-8.53,6.32-9.2,11.59a59.18,59.18,0,0,0-.23,8.42,65.66,65.66,0,0,0,.65,9c.82,5.39,2.92,10.77,7.12,14.41,3.8,3.29,8.92,5.28,14,4,4.59-1.15,7.8-4.77,9.5-9A31.45,31.45,0,0,0,82.56,600c-.32-5.34-1.07-11.28-4.38-15.67-3.15-4.17-8.69-6.83-13.81-4.77-4.16,1.68-6.41,5.7-7.33,9.92-1,4.61-.73,9.33-.27,14,.57,5.71,1.71,11.59,5.45,16.14,3.29,4,8.52,6.61,13.74,5.77,4.8-.77,8.15-4.54,9.94-8.83s2.26-8.86,2.53-13.36.19-9.34-1.29-13.68-4.65-8.25-9.28-9.6-9.76.37-13.53,3.33c-9.72,7.66-8.08,20.83-5.75,31.53,1,4.79,2.6,10.78,8.14,12C72,628,77,624.14,78.92,619.42c2-5,1.38-11,.63-16.22-.59-4.17-1.72-8.62-4.22-12.09-2.7-3.77-6.84-6-11.55-5.32-5.15.77-9.07,5.05-10.87,9.72-2.19,5.71-1.12,12.26-.07,18.09.81,4.51,3.72,9.94,9.2,8.6,4.51-1.1,5.88-6.75,6-10.74a42,42,0,0,0-.65-7.58,24.13,24.13,0,0,0-2.33-7.66,12.76,12.76,0,0,0-11.22-7.15c-4.84-.06-9.08,3.12-9.44,8.12-.4,5.54,4.48,10.25,8.87,12.78,4.86,2.79,11,4.74,16.56,2.78a12.25,12.25,0,0,0,8-10.56,8.73,8.73,0,0,0-8-9.33c-4.45-.42-9.12,2.36-11.33,6.15-3,5.18-2,11.7-.34,17.14s4.35,11,3.65,17c-.3,2.55,3.51,3.28,4.66,1.26,6.18-10.85,5-25.22-2.31-35.26a31.44,31.44,0,0,0-7.78-7.57,2.53,2.53,0,0,0-3.68,1.5,67.85,67.85,0,0,0,2,44.14,66.67,66.67,0,0,0,5.92,11.56c1.74,2.69,6.07.19,4.32-2.52A63.32,63.32,0,0,1,55.21,606a60,60,0,0,1,2.32-11.64l-3.68,1.49c11.26,7.62,15,24.24,8.3,36l4.66,1.26c.61-5.22-1.1-10.27-2.77-15.14-1.49-4.31-3.25-9.2-2.2-13.82a7.85,7.85,0,0,1,6.48-6.32,3.81,3.81,0,0,1,4.56,4,7.17,7.17,0,0,1-5.34,6.33c-4.24,1.09-8.84-.79-12.41-3-2.62-1.62-6.84-5.26-5.51-8.83A3.28,3.28,0,0,1,52,594.3a7.08,7.08,0,0,1,4.09.14c3.24,1,5,4.3,5.89,7.67a38.25,38.25,0,0,1,1,6.38,18.13,18.13,0,0,1-.12,5.11,13.76,13.76,0,0,1-.57,2,3.8,3.8,0,0,1-1.06,1.56,3.08,3.08,0,0,0-.32.19c.28-.14-.39.07-.07,0s-.24,0-.31,0a1.43,1.43,0,0,1-1.2-.61c-1-1.11-1.36-3-1.63-4.5a60.19,60.19,0,0,1-.94-7.19c-.24-4.27.33-8.77,3.46-11.94a8.08,8.08,0,0,1,4.59-2.48,6.15,6.15,0,0,1,3.8.76c2.42,1.37,3.92,4.27,4.83,7.11a41.53,41.53,0,0,1,1.72,10.72c.2,3.88.29,8.82-3.1,11.46a5.3,5.3,0,0,1-4.13,1.22,4.87,4.87,0,0,1-3.07-3.19,35.65,35.65,0,0,1-1.61-6.19,71.71,71.71,0,0,1-1.28-7.41c-.47-4.41-.47-9.36,1.66-13.38,3-5.72,11.16-10.34,16.43-4.87,2.2,2.28,3,5.76,3.35,9a54.54,54.54,0,0,1-.28,11.28c-.68,5.83-3.26,15.11-11,13.22-9.12-2.23-10.19-13.31-10.69-21a27.94,27.94,0,0,1,.85-10.16c.82-2.65,2.37-5,5.21-5.31,3.83-.46,7,3,8.23,6.26a34.58,34.58,0,0,1,1.91,12.53c0,5.85-1.64,14.63-8.78,15.07-3.67.22-7-1.78-9.43-4.44-2.89-3.22-4-7.78-4.46-12-.25-2.4-.31-4.82-.33-7.24a48.5,48.5,0,0,1,.19-7.13c.44-3.24,2.28-7.25,6-7.18s3.48,5.6,3.45,8.32a63,63,0,0,1-1.94,14.79,64.51,64.51,0,0,1-5.11,13.56l4.57.59a30.13,30.13,0,0,1,0-19c1-3.06-3.82-4.37-4.82-1.33Z" transform="translate(-44.4 -85.77)"/><path class="cls-1" d="M106.54,142.06a122.88,122.88,0,0,0-7.3,76.48c.71,3.13,5.53,1.8,4.82-1.33a118.19,118.19,0,0,1,1.4-57.29,113.91,113.91,0,0,1,5.4-15.34,2.58,2.58,0,0,0-.9-3.42,2.52,2.52,0,0,0-3.42.9Z" transform="translate(-44.4 -85.77)"/><path class="cls-1" d="M415,536.67a14.64,14.64,0,0,0,11.13,9.05c4.94.91,10.35-.24,13.81-4.09,1.57-1.75.08-5-2.43-4.18l-11.16,3.6a2.56,2.56,0,0,0-1.75,3.08,2.52,2.52,0,0,0,3.07,1.74l11.17-3.6-2.44-4.18a6.26,6.26,0,0,1-1.92,1.63,6.11,6.11,0,0,1-2.16.93,12.35,12.35,0,0,1-1.49.33c.45-.07-.13,0-.26,0l-.71,0a11.22,11.22,0,0,1-1.42,0c-.24,0-.47,0-.71-.06.45,0-.15,0-.27-.06a13.74,13.74,0,0,1-2.73-.79c.45.19-.24-.11-.27-.13l-.62-.32c-.41-.23-.81-.48-1.19-.74s.16.16-.24-.18c-.18-.14-.35-.3-.52-.46a11.34,11.34,0,0,1-1-1c-.18-.23-.19-.24,0,0a2.83,2.83,0,0,1-.2-.28c-.13-.2-.26-.39-.38-.59s-.22-.41-.33-.62-.11-.21-.15-.32c.09.23.09.21,0-.07a2.58,2.58,0,0,0-3.08-1.74,2.51,2.51,0,0,0-1.74,3.07Z" transform="translate(-44.4 -85.77)"/></svg>