<svg id="Layer_31" data-name="Layer 31" xmlns="http://www.w3.org/2000/svg" viewBox="0 0 697.77 909.33"><defs><style>.cls-1{fill:#952c1f;}</style></defs><path class="cls-1" d="M45.4,275.24a353.8,353.8,0,0,0,16.74,54.57A359.27,359.27,0,0,0,87.33,381q8.24,13.83,17.71,26.86a2.56,2.56,0,0,0,3.42.9,2.52,2.52,0,0,0,.9-3.42A352.35,352.35,0,0,1,58.5,304.78q-4.83-15.24-8.28-30.87c-.69-3.14-5.51-1.81-4.82,1.33Z" transform="translate(-19.26 -135.79)"/><path class="cls-1" d="M23.46,350.79q19.78-22,38.45-45t36.29-47q9.92-13.51,19.44-27.28a2.51,2.51,0,0,0-.9-3.42,2.55,2.55,0,0,0-3.42.89Q96.55,253.22,78.6,276.63,60.76,299.87,41.8,322.2,31,334.88,19.93,347.25c-2.15,2.39,1.38,5.94,3.53,3.54Z" transform="translate(-19.26 -135.79)"/><path class="cls-1" d="M86.43,295.72l23.82,45L134.18,386l13.43,25.37c1.51,2.85,5.82.33,4.32-2.52l-23.82-45-23.93-45.23L90.75,293.19c-1.5-2.84-5.82-.32-4.32,2.53Z" transform="translate(-19.26 -135.79)"/><path class="cls-1" d="M98.16,235.72q9.89,35,22.62,69.08t28.15,67q8.69,18.53,18.21,36.63c1.5,2.85,5.82.33,4.32-2.52q-16.87-32.07-31.11-65.44-14.07-33-25.41-67.16-6.43-19.31-12-38.88c-.88-3.09-5.7-1.78-4.82,1.33Z" transform="translate(-19.26 -135.79)"/><path class="cls-1" d="M110.27,349.18l23.8-28.9a2.56,2.56,0,0,0,0-3.53,2.5,2.5,0,0,0-3.53,0l-23.8,28.9a2.56,2.56,0,0,0,0,3.53,2.5,2.5,0,0,0,3.53,0Z" transform="translate(-19.26 -135.79)"/><path class="cls-1" d="M162.29,221,150.2,272.3l-6,25.66c-1.75,7.43-4,14.92-4.57,22.56-.5,6.34.47,13.19,5,18,5.05,5.25,12.47,5.76,19.2,7.08,14.59,2.86,26.36,12.55,38.37,20.67,12.31,8.32,27.18,15.79,42.48,13.13a30.91,30.91,0,0,0,5.2-1.39,2.56,2.56,0,0,0,1.75-3.07,2.53,2.53,0,0,0-3.08-1.75c-13.83,4.94-28.47-1.4-40.14-8.81-12.14-7.71-23.26-17.39-37.11-22a68.19,68.19,0,0,0-10.2-2.33c-3.11-.53-6.39-1-9.24-2.44-5.48-2.7-7.39-8.17-7.4-14,0-6.86,2-13.58,3.54-20.21l5.87-24.93,11.75-49.86,1.48-6.3c.74-3.13-4.08-4.46-4.82-1.33Z" transform="translate(-19.26 -135.79)"/><path class="cls-1" d="M148.87,332.57l27.2-18.7a2.57,2.57,0,0,0,.9-3.42,2.52,2.52,0,0,0-3.42-.89l-27.21,18.7a2.56,2.56,0,0,0-.89,3.42,2.52,2.52,0,0,0,3.42.89Z" transform="translate(-19.26 -135.79)"/><path class="cls-1" d="M258.39,305.74c1.93,14.36,4.08,29.43,12.17,41.81,6.88,10.53,19,18.38,31.85,18.11a25.77,25.77,0,0,0,17-6.76c4.85-4.46,7.82-10.66,9.5-16.95,3.46-12.94,2.52-27.26-.71-40.15a96.88,96.88,0,0,0-17.77-36.13,88.86,88.86,0,0,0-14.12-14.37c-5.58-4.5-11.7-8.52-18.67-10.51s-14.34-1.54-20.13,2.88c-5.46,4.18-8.39,10.72-10.15,17.2A92.48,92.48,0,0,0,245.61,299a101.84,101.84,0,0,0,12.61,35.52A97.36,97.36,0,0,0,283.16,363a89.08,89.08,0,0,0,7.68,5.26c2.76,1.68,5.27-2.64,2.53-4.32-20.23-12.35-34.63-33-40.73-55.75A92.92,92.92,0,0,1,250.08,273c1.3-10.6,4.58-26.41,17.35-28.26,6.36-.92,12.88,1.8,18.22,5a74.85,74.85,0,0,1,14.76,12,90.27,90.27,0,0,1,19.95,31.55,88,88,0,0,1,5.44,37.12c-.81,11-4.74,24.56-16.13,28.84-10.49,3.94-22.5-.88-30.11-8.44-9.54-9.48-12.84-23.64-14.91-36.46-.54-3.31-1-6.63-1.44-10-.18-1.34-1.9-2.06-3.07-1.74a2.56,2.56,0,0,0-1.75,3.07Z" transform="translate(-19.26 -135.79)"/><path class="cls-1" d="M327.3,258.62,364,307.55l10.45,13.92a2.53,2.53,0,0,0,3.12,1,2.49,2.49,0,0,0,1.45-2.95l-19.51-53.1L354,251.24l-4.18,2.43,44.93,49.46,12.74,14c1.65,1.82,5-.08,4.18-2.43l-19-55.75-18.9-55.51L363,172.05c-1-3-5.86-1.73-4.82,1.33l19,55.75,18.91,55.51,10.7,31.42,4.17-2.43-44.92-49.47-12.74-14c-1.63-1.79-5.05.08-4.18,2.43l19.5,53.1,5.59,15.21,4.57-1.93L342.06,270l-10.44-13.93a2.58,2.58,0,0,0-3.43-.89,2.51,2.51,0,0,0-.89,3.42Z" transform="translate(-19.26 -135.79)"/><path class="cls-1" d="M374.72,140.67l22.54,73,22.54,73,12.67,41c.94,3.07,5.77,1.76,4.82-1.33l-22.54-73-22.54-73-12.67-41c-.94-3.07-5.77-1.76-4.82,1.33Z" transform="translate(-19.26 -135.79)"/><path class="cls-1" d="M449.18,137.56l-20.6,75.12-5.81,21.19A2.52,2.52,0,0,0,427,236.3l36.46-32.87-4.27-1.76q-2.25,30.15-5.32,60.23t-6.93,59.83q-2.17,16.74-4.6,33.46a2.58,2.58,0,0,0,1.74,3.08,2.53,2.53,0,0,0,3.08-1.75q4.38-30.13,7.94-60.37t6.28-60.4q1.55-17,2.81-34.08c.18-2.3-2.77-3.11-4.26-1.77l-36.46,32.86,4.18,2.44,20.59-75.13L454,138.89c.85-3.11-4-4.44-4.82-1.33Z" transform="translate(-19.26 -135.79)"/><path class="cls-1" d="M88.56,574l-3.36-4.61a2.57,2.57,0,0,0-3.42-.9,2.52,2.52,0,0,0-.9,3.42l38,55.38,10.69,15.59a2.51,2.51,0,0,0,4.57-1.93,470.18,470.18,0,0,0-28-81.83q-4.94-11-10.45-21.79l-3.93,3,34.17,37.44,34,37.24,19.35,21.21c1.6,1.75,5.15-.08,4.18-2.43l-31.34-76.17L120.94,481.9,103.27,439,98.7,440.9l24.58,33.63a2.58,2.58,0,0,0,3.42.9,2.52,2.52,0,0,0,.9-3.42L103,438.37a2.54,2.54,0,0,0-3.12-1,2.47,2.47,0,0,0-1.45,2.95l31.34,76.17,31.15,75.71,17.67,42.93,4.18-2.43-34.17-37.44-34-37.25-19.36-21.2c-2-2.18-5.17.59-3.92,3A463.94,463.94,0,0,1,123,618.91q3.45,11.58,6.29,23.33l4.57-1.93q-19-27.69-38-55.37L85.2,569.35l-4.32,2.52,3.36,4.61a2.59,2.59,0,0,0,3.43.9,2.52,2.52,0,0,0,.89-3.42Z" transform="translate(-19.26 -135.79)"/><path class="cls-1" d="M191,580.32a77.53,77.53,0,0,0,10.54,37c1.62,2.77,5.95.26,4.32-2.53A72.15,72.15,0,0,1,196,580.32c-.09-3.21-5.09-3.22-5,0Z" transform="translate(-19.26 -135.79)"/><path class="cls-1" d="M173.83,487.59l34.56,84.67,9.82,24.06a2.58,2.58,0,0,0,3.08,1.75A2.52,2.52,0,0,0,223,595l-34.56-84.67-9.82-24.06a2.58,2.58,0,0,0-3.08-1.74,2.51,2.51,0,0,0-1.74,3.07Z" transform="translate(-19.26 -135.79)"/><path class="cls-1" d="M190.68,455.33l20.78,58.83,20.86,59.06L244,606.4a2.5,2.5,0,0,0,4.82-1.32l-20.78-58.83-20.86-59.07L195.5,454a2.57,2.57,0,0,0-3.07-1.75,2.53,2.53,0,0,0-1.75,3.08Z" transform="translate(-19.26 -135.79)"/><path class="cls-1" d="M166.31,540.32c3.21,0,3.22-5,0-5s-3.23,5,0,5Z" transform="translate(-19.26 -135.79)"/><path class="cls-1" d="M337.88,580.45a400.39,400.39,0,0,1-31.81-36.91,404.64,404.64,0,0,1-27.19-40.69q-7-11.94-13.11-24.35l-3.93,3,50.44,57.75L362.72,597,391,629.38c2,2.24,5.13-.61,3.92-3L356.68,550l-38.21-76.41L297,430.65c-1.44-2.88-5.76-.35-4.32,2.53l38.22,76.4L369.13,586l21.46,42.89,3.92-3L344.07,568.1l-50.44-57.75L265.37,478a2.48,2.48,0,0,0-3.28-.2,2.54,2.54,0,0,0-.64,3.23A403.39,403.39,0,0,0,286,523.84a410.79,410.79,0,0,0,29.57,39.51q9,10.64,18.74,20.64c2.25,2.31,5.79-1.23,3.54-3.54Z" transform="translate(-19.26 -135.79)"/><path class="cls-1" d="M376.31,426.64A350.34,350.34,0,0,0,368,467.72c-1,7-1.8,14.08-2.36,21.15-.5,6.11-.52,12.64,3.3,17.8,3.19,4.3,7.94,6.88,12.71,9.08a119.81,119.81,0,0,1,15.46,8.13c10.47,6.78,19.69,15.26,29.88,22.42,11.32,8,24.35,14.51,38.49,14.54,3.21,0,3.22-5,0-5-11.93,0-23-5.23-32.76-11.67-10-6.62-19-14.75-28.78-21.69a97.93,97.93,0,0,0-15.46-9.1c-4.42-2-9.29-3.79-13-7a13.75,13.75,0,0,1-4-5.41,21.49,21.49,0,0,1-1-8.58c.25-6.65,1.1-13.32,1.95-19.92a347.24,347.24,0,0,1,8.77-44.5c.83-3.12-4-4.45-4.82-1.33Z" transform="translate(-19.26 -135.79)"/><path class="cls-1" d="M363.55,509a55.56,55.56,0,0,1,39.07-19.6c3.2-.18,3.22-5.18,0-5A60.51,60.51,0,0,0,360,505.43a2.56,2.56,0,0,0,0,3.53,2.52,2.52,0,0,0,3.54,0Z" transform="translate(-19.26 -135.79)"/><path class="cls-1" d="M400.48,446.4l61.42,71.32,17.22,20a2.48,2.48,0,0,0,3.28.19,2.54,2.54,0,0,0,.65-3.22Q470,506.1,459,476.68T438.86,417q-5.08-17-9.51-34.23c-.8-3.11-5.62-1.79-4.82,1.33q7.91,30.74,17.92,60.88t22,59.28q6.84,16.62,14.29,33l3.93-3-61.42-71.31-17.22-20a2.52,2.52,0,0,0-3.54,0,2.55,2.55,0,0,0,0,3.53Z" transform="translate(-19.26 -135.79)"/><path class="cls-1" d="M479.38,384.75a367.72,367.72,0,0,0,2.7,95.18q2.13,13.31,5.23,26.43a2.53,2.53,0,0,0,3.67,1.5c10.75-5.23,22.52-10.65,34.76-8.15,10.4,2.12,19.09,8.77,26.49,16.08,4.38,4.33,8.41,9,12.36,13.72a2.5,2.5,0,0,0,3.53,0,2.54,2.54,0,0,0,0-3.53c-7.37-8.83-15.14-17.62-24.79-24a47.16,47.16,0,0,0-15.17-6.81,40.94,40.94,0,0,0-18.49.09c-7.43,1.68-14.4,5-21.21,8.32l3.67,1.49a362.4,362.4,0,0,1-9.51-93.87q.4-13.23,1.76-26.41a2.52,2.52,0,0,0-2.5-2.5,2.55,2.55,0,0,0-2.5,2.5Z" transform="translate(-19.26 -135.79)"/><path class="cls-1" d="M476.84,478.58l34-23.85a2.57,2.57,0,0,0,.9-3.42,2.51,2.51,0,0,0-3.42-.9l-34,23.85a2.57,2.57,0,0,0-.9,3.42,2.51,2.51,0,0,0,3.42.9Z" transform="translate(-19.26 -135.79)"/><path class="cls-1" d="M516.2,416.59l50.37,80.84,14.24,22.86c1.69,2.73,6,.22,4.31-2.52l-50.36-80.85-14.24-22.85c-1.7-2.73-6-.22-4.32,2.52Z" transform="translate(-19.26 -135.79)"/><path class="cls-1" d="M526.15,414.44a517.93,517.93,0,0,1,33.21-54.33q5.14-7.35,10.55-14.54l-4.57-1.92-17,45.71c-2.8,7.55-5.65,15.08-8.4,22.65-2.33,6.42-4.38,13.3-3.39,20.2a19.74,19.74,0,0,0,10,14.34c5,2.86,10.91,3.9,16.62,4.38,7.05.6,14.18.41,21.25.51l24,.31,14,.18c3.64.05,7.42-.13,11,.76,2.69.68,5.22,2.08,6.17,4.57.82,2.18.65,4.51-1.07,5.55-2.75,1.66-.24,6,2.53,4.32,5.32-3.22,4.81-10.58,1.26-14.93C637.93,446.94,630,447,623.87,447l-49.44-.64c-6-.08-12-.05-17.85-1.35-4.83-1.08-9.88-3.13-12.72-7.4-3.8-5.7-2.66-12.77-.82-18.95,2.2-7.41,5.22-14.61,7.91-21.85L570.16,345a2.47,2.47,0,0,0-1.45-3,2.54,2.54,0,0,0-3.12,1,517.55,517.55,0,0,0-35.07,53.13Q526,404,521.83,411.91c-1.5,2.84,2.81,5.37,4.32,2.53Z" transform="translate(-19.26 -135.79)"/><path class="cls-1" d="M98.75,817.07a335.56,335.56,0,0,1-27.25-59.8q-3-8.82-5.52-17.79l-4.18,2.44q26.06,28.5,50.69,58.26,6.93,8.37,13.73,16.83c1.32,1.64,4.48.32,4.27-1.76-1.8-18.41-7.33-36.09-14.36-53.12C109,744.93,100.6,728.33,93,711.37c-4.26-9.46-8.24-19-11.56-28.88l-4.56,1.92,31,47.75,31,47.75,17.4,26.81c1.75,2.68,6.08.18,4.32-2.53l-31-47.75-31-47.74-17.4-26.81c-1.47-2.27-5.51-.88-4.57,1.93,5.93,17.56,13.93,34.32,21.83,51.06,7.78,16.5,15.53,33.1,20.88,50.58a152.26,152.26,0,0,1,6.19,29.79l4.27-1.77q-24.21-30.09-49.88-59-7.22-8.12-14.55-16.13c-1.71-1.87-4.84.09-4.18,2.43A342.86,342.86,0,0,0,85.43,803q4.27,8.4,9,16.56c1.62,2.79,5.94.27,4.32-2.52Z" transform="translate(-19.26 -135.79)"/><path class="cls-1" d="M175.41,818.7A362.36,362.36,0,0,1,145,734.06q-2.76-12.31-4.66-24.79l-4.57,1.93,44.88,75.15,12.66,21.2c1.65,2.76,6,.25,4.32-2.52l-44.88-75.16-12.66-21.2a2.51,2.51,0,0,0-3.13-1,2.55,2.55,0,0,0-1.44,3,366.9,366.9,0,0,0,24.77,87.33q5,11.84,10.83,23.29c1.46,2.87,5.77.34,4.32-2.52Z" transform="translate(-19.26 -135.79)"/><path class="cls-1" d="M154.3,779.15l27.26-33.94a2.57,2.57,0,0,0,0-3.54,2.51,2.51,0,0,0-3.53,0l-27.27,34a2.58,2.58,0,0,0,0,3.53,2.52,2.52,0,0,0,3.54,0Z" transform="translate(-19.26 -135.79)"/><path class="cls-1" d="M172.31,714.36,201.4,769.9l8.31,15.87c1.5,2.85,5.81.32,4.32-2.53l-29.09-55.53-8.31-15.87c-1.49-2.85-5.81-.33-4.32,2.52Z" transform="translate(-19.26 -135.79)"/><path class="cls-1" d="M202.72,723.79l17.65-49.09c.94-2.64-3.45-4.54-4.57-1.93a406.6,406.6,0,0,0-24.73,78c-.69,3.29-1.38,6.58-1.93,9.9a18.47,18.47,0,0,0,0,8.17,8.44,8.44,0,0,0,5.52,5.8c2.77.86,5.6,0,8.17-1.08s4.91-2.72,7.53-3.7a17.7,17.7,0,0,1,8.26-.91c5.75.67,11.13,3.57,15.88,6.72,11,7.28,21.14,18.33,35.39,17.69,3.21-.15,3.23-5.15,0-5-11.53.52-20.81-8.14-29.44-14.58-9.11-6.8-21.39-13.1-32.77-8.19-2.44,1.06-4.68,2.51-7.13,3.55-1.77.76-4.07,1.5-5.64,0s-1.34-3.86-1.17-5.74a83.27,83.27,0,0,1,1.54-8.55q3.9-19.34,9.67-38.24a398.85,398.85,0,0,1,15.12-41.28l-4.57-1.92L197.9,722.46a2.52,2.52,0,0,0,1.74,3.08,2.56,2.56,0,0,0,3.08-1.75Z" transform="translate(-19.26 -135.79)"/><path class="cls-1" d="M271.78,672.17a123.16,123.16,0,0,0-22.93,48.44c-.39,1.75,1.17,3.7,3.08,3.07a55.93,55.93,0,0,1,36.12.42,65,65,0,0,1,16.12,9c4.95,3.55,10.19,7.33,16.33,8.4s12.92-.07,16.9-5.13a2.58,2.58,0,0,0,0-3.53,2.52,2.52,0,0,0-3.54,0c-3,3.84-8.14,4.66-12.72,3.7-5.86-1.22-10.74-5.11-15.5-8.51a64.5,64.5,0,0,0-16.46-8.77A60.93,60.93,0,0,0,271,715.9a59.32,59.32,0,0,0-20.44,3l3.07,3.08a117.58,117.58,0,0,1,21.65-46.24,2.58,2.58,0,0,0,0-3.53,2.51,2.51,0,0,0-3.54,0Z" transform="translate(-19.26 -135.79)"/><path class="cls-1" d="M247.47,721.89l47.6-30.61c2.7-1.73.2-6.06-2.52-4.31L245,717.57c-2.7,1.73-.2,6.06,2.52,4.32Z" transform="translate(-19.26 -135.79)"/><path class="cls-1" d="M391.89,636.84l-22.56,51.72-6.39,14.65c-1.1,2.54,1.7,5,3.93,3,13.86-12.41,29.06-25.66,47.58-30.22a48.7,48.7,0,0,1,15.5-1.26L427.79,671a208,208,0,0,0-22.41,37.84,212.65,212.65,0,0,0-14.13,41.88,214.79,214.79,0,0,0-4,24.84,2.52,2.52,0,0,0,2.5,2.5,2.55,2.55,0,0,0,2.5-2.5A206,206,0,0,1,418.65,694a206.72,206.72,0,0,1,13.46-20.46c1.24-1.66-.48-3.63-2.16-3.76-20.33-1.6-38.5,9.6-53.71,21.86-4.42,3.56-8.68,7.3-12.91,11.09l3.93,3L389.82,654l6.39-14.65a2.58,2.58,0,0,0-.9-3.42,2.51,2.51,0,0,0-3.42.9Z" transform="translate(-19.26 -135.79)"/><path class="cls-1" d="M444.63,613.05a199.37,199.37,0,0,0-15.35,50.52c-.81,5-1.44,10-1.88,15.06-.17,2,2.23,3,3.76,2.16,6.32-3.6,14.12-.55,19.41,3.54,6.29,4.85,11.14,11.3,17.5,16.09A61.64,61.64,0,0,0,508,712.31a60,60,0,0,0,23.2-5.94,2.5,2.5,0,0,0-2.52-4.32c-12.34,6-26.89,6.84-40,3.05a54.87,54.87,0,0,1-18.35-9.22c-6.23-4.85-11-11.26-17.38-16-6.8-5.09-16.44-7.86-24.27-3.4l3.76,2.16a194.82,194.82,0,0,1,11.12-49.8q2.46-6.72,5.42-13.25a2.58,2.58,0,0,0-.89-3.43,2.53,2.53,0,0,0-3.42.9Z" transform="translate(-19.26 -135.79)"/><path class="cls-1" d="M439.58,682.78l30.6-15.3c2.88-1.44.35-5.75-2.53-4.31l-30.6,15.3c-2.88,1.44-.35,5.75,2.53,4.31Z" transform="translate(-19.26 -135.79)"/><path class="cls-1" d="M523,700.12l-31.38-66.94-8.91-19-3.92,3a667.47,667.47,0,0,0,65.55,56.85c2.91,2.21,5.79,4.51,8.82,6.55,2.68,1.79,5.91,3.42,9.23,3.22a8.55,8.55,0,0,0,7.1-4.5,12.75,12.75,0,0,0,.84-7.88,29.11,29.11,0,0,0-2.73-8q-2.4-5-4.87-9.93-4.92-9.91-10-19.72Q541,611.44,528.15,589.67c-1.64-2.77-6-.26-4.32,2.52q10.86,18.45,20.95,37.35,5,9.33,9.77,18.78c3.18,6.27,6.56,12.53,9.37,19a19,19,0,0,1,1.69,6.43,6.74,6.74,0,0,1-.34,2.89,3.43,3.43,0,0,1-1.27,1.61c-2.26,1.52-5.21,0-7.22-1.25-2.88-1.75-5.54-3.94-8.23-6q-16.38-12.37-32-25.76-17.67-15.18-34.25-31.58c-2.11-2.09-5.09.54-3.92,3l31.38,66.94,8.91,19a2.52,2.52,0,0,0,3.42.9,2.55,2.55,0,0,0,.89-3.42Z" transform="translate(-19.26 -135.79)"/><path class="cls-1" d="M584.3,569A284.33,284.33,0,0,0,562,618.36q-2.49,7.29-4.57,14.71c-.49,1.72,1.24,3.74,3.07,3.08L611,617.69l14.49-5.3-2.82-3.68a410.26,410.26,0,0,0-32.72,80q-3.39,11.68-6.08,23.58c-.7,3.13,4.11,4.47,4.83,1.33A403.15,403.15,0,0,1,616.09,633q5.11-11,10.9-21.77c1-1.77-.66-4.47-2.83-3.67L573.68,626l-14.49,5.29,3.08,3.08a277.26,277.26,0,0,1,19.17-49.51q3.4-6.78,7.18-13.37c1.6-2.79-2.72-5.32-4.32-2.52Z" transform="translate(-19.26 -135.79)"/><path class="cls-1" d="M640.16,555.26a324.36,324.36,0,0,0-18.75,55.87q-1.92,8.1-3.4,16.29a2.54,2.54,0,0,0,3.07,3.08,56.75,56.75,0,0,1,22.78.46,60.06,60.06,0,0,1,20.94,9.31c6.16,4.23,12.18,9.09,19.57,11a26.7,26.7,0,0,0,19.15-2.69,27.12,27.12,0,0,0,13.42-16.71c.8-3.11-4-4.44-4.82-1.33-2.92,11.31-15.7,18.9-27,15.76-7-2-12.71-6.88-18.64-10.87a62.47,62.47,0,0,0-46.72-9.7l3.08,3.07a320,320,0,0,1,15.52-55.94q2.86-7.59,6.13-15a2.58,2.58,0,0,0-.9-3.42,2.52,2.52,0,0,0-3.42.9Z" transform="translate(-19.26 -135.79)"/><path class="cls-1" d="M633.36,616.44a162.12,162.12,0,0,0,43.15-30.83c2.27-2.28-1.26-5.82-3.54-3.54a158.07,158.07,0,0,1-42.13,30,2.51,2.51,0,0,0-.9,3.42,2.55,2.55,0,0,0,3.42.9Z" transform="translate(-19.26 -135.79)"/><path class="cls-1" d="M380.1,825.05c-1.36,22.18,9.53,46.68,30.35,56.44,25,11.73,52.27-.85,78.28,3.29,11.46,1.83,23,6.66,28.87,17.28a2.53,2.53,0,0,0,4.57-.59c4-13.67,14.55-24.16,26.41-31.45,14.2-8.73,30.49-13,46.22-18.06,15-4.79,29.78-10.49,42.2-20.34,11-8.69,19.19-20.63,20.76-34.74,1.35-12.23-2.42-26-12.31-33.92a31.28,31.28,0,0,0-3.92-2.74c-2.78-1.63-5.3,2.69-2.53,4.32,10.34,6.07,14.57,18.36,14,29.86-.71,13.34-8.45,24.62-18.54,32.9C622.69,837,608.24,842.4,594,847c-15.65,5-31.84,9.3-46.14,17.66-12.24,7.15-23.21,17.28-28.73,30.57a47,47,0,0,0-1.73,4.92l4.57-.6c-5.28-9.62-14.95-15.42-25.32-18.2-11.38-3.05-23.09-2.68-34.7-1.53-13.75,1.37-28.12,3.57-41.71-.06a44.81,44.81,0,0,1-26-19.37,58.93,58.93,0,0,1-9-35.33c.2-3.22-4.8-3.21-5,0Z" transform="translate(-19.26 -135.79)"/><path class="cls-1" d="M367.19,837.09a287.09,287.09,0,0,0,23,64.58,249,249,0,0,0,16.6,28.77c5.89,8.66,12.79,16.82,21.63,22.61,8.26,5.41,18.52,8.35,28.4,7.16a31.93,31.93,0,0,0,13.73-4.78,70.94,70.94,0,0,0,10.27-8.85c4.77-4.64,11.6-12.51,19.07-10.13,3.87,1.23,6.15,4.86,7.5,8.48,1.84,4.91,2.73,10.18,3.88,15.27l16.77,74.09,2,9c.61,2.71,5.12,2.18,4.91-.66a226.49,226.49,0,0,1,7.12-76c1.64-6.09,3.54-12.12,5.69-18.05a46.94,46.94,0,0,1,6.77-12.78c2.55-3.3,5.91-6.36,10.11-7.23s8.3,1.41,11.58,4c3.86,3.05,7.48,6.55,12.25,8.14,5.15,1.72,10.65.61,15.31-2,9.83-5.41,16.32-15.85,22.2-25A234.51,234.51,0,0,0,662.75,781q-.15-4.31-.44-8.61c-.23-3.19-5.23-3.21-5,0a229.38,229.38,0,0,1-32,133.29q-4.5,7.49-9.57,14.62c-3.14,4.42-6.59,8.76-10.94,12.06-3.85,2.92-8.7,5.2-13.62,4-4.52-1.08-7.91-4.54-11.45-7.33-3.87-3.06-8.18-5.63-13.29-5.52-4.73.11-9,2.44-12.36,5.63-7.91,7.44-11.33,18.42-14.44,28.49a230.27,230.27,0,0,0-10.07,75.63c.1,3.15.28,6.3.52,9.45L535,1042l-16.77-74.09c-1.36-6-2.66-12-4.07-18-1-4.32-2.32-8.85-5-12.48A15.15,15.15,0,0,0,497.92,931c-3.9-.27-7.7,1.39-10.85,3.55-7.25,5-12.38,12.61-19.94,17.13-8.26,4.93-18.59,4.59-27.42,1.44-9.58-3.41-17.3-10.59-23.56-18.39-6.71-8.37-12.16-17.84-17.25-27.24A280.7,280.7,0,0,1,374,843.9c-.69-2.7-1.34-5.42-2-8.14-.71-3.14-5.53-1.81-4.82,1.33Z" transform="translate(-19.26 -135.79)"/><path class="cls-1" d="M428.15,916.4a25.62,25.62,0,0,0,8.2,23.5,24.52,24.52,0,0,0,24.38,4.43,23.6,23.6,0,0,0,15.61-17.71,27.42,27.42,0,0,0-5.63-22.17c-10.59-13-32.06-9.87-40.93,3.45-9.36,14.06-1,35.25,15,39.85a18.12,18.12,0,0,0,14.06-1.39,19,19,0,0,0,7.39-8.31c3.49-7.32,3.78-15.92,2-23.75s-5.93-16.16-13.38-19.85A18.55,18.55,0,0,0,442.41,893a23.94,23.94,0,0,0-10.93,6.31c-6.88,6.61-11,16.08-12.37,25.41-1.47,9.77.42,20.37,8.33,27a20.8,20.8,0,0,0,12.25,5.12,18.8,18.8,0,0,0,12.46-4.26c8.26-6.44,10.55-17.1,11-27,.43-9.6-.34-20.63-7.53-27.83a20.1,20.1,0,0,0-11.79-5.88,15.27,15.27,0,0,0-12,4.1c-6.48,6-8.23,16.24-7.8,24.64.5,9.61,4.77,19.35,13.83,23.71a19.38,19.38,0,0,0,12.83,1.62c3.14-.72,1.81-5.54-1.33-4.82-7.41,1.69-14.54-3.48-17.73-9.87-3.52-7-3.41-16.16-1.1-23.55,2-6.27,6.93-12.35,14.22-10.64,8,1.88,11.94,9.55,13.07,17.07a61.7,61.7,0,0,1,.26,13.24,39.47,39.47,0,0,1-2.77,13.06c-2.81,6.51-9.25,12.61-16.86,11.32s-12.8-8.05-14.3-15.2a32.33,32.33,0,0,1,.39-13.6,44.63,44.63,0,0,1,4.21-11.65c3.3-6.1,8.63-12.39,15.83-13.62,6.8-1.16,12.41,3.39,15.55,9a35.25,35.25,0,0,1,4.05,20.1c-.52,5.94-2.83,12.62-8.24,15.52-6.55,3.51-14.75-.31-19.3-5.51A23.58,23.58,0,0,1,431,918.53c1.73-13.09,17.06-20.85,28.92-16,11.56,4.71,15.79,21.65,7.8,31.18A20.63,20.63,0,0,1,449,940.59a20.18,20.18,0,0,1-16-22.86,2.57,2.57,0,0,0-1.74-3.08,2.53,2.53,0,0,0-3.08,1.75Z" transform="translate(-19.26 -135.79)"/><path class="cls-1" d="M573.84,901.66c-1.46,12.37,1.35,26.09,12,33.69a22.92,22.92,0,0,0,16.36,4.25c5.77-.82,10.6-4.34,14-9,8-11,5.41-25.6.36-37.21-2.53-5.82-6.29-11.49-12-14.65-5.32-3-12-3.6-17.36-.36-9.51,5.73-10.71,19.33-11.46,29.27-.48,6.38.09,13.22,4.05,18.51,3.61,4.82,9.32,7.48,15.33,6C601,930.78,605.64,926,608.7,921A49.75,49.75,0,0,0,615,902.86a60.54,60.54,0,0,0-.16-20.1c-1-5.61-2.65-12-7-16a9.82,9.82,0,0,0-7.58-2.81,10.37,10.37,0,0,0-7,4.16,31.09,31.09,0,0,0-4.27,8.3,100.41,100.41,0,0,0-5.53,20.18,67.44,67.44,0,0,0-1.13,10.21c-.08,6,2.18,11.82,8.14,14,4.76,1.71,10.49.26,14.43-2.73,4.8-3.64,7.13-9.6,8.17-15.36a87.49,87.49,0,0,0,1.09-9.55,60.47,60.47,0,0,0,0-10c-.61-6.29-2.79-12.55-7.79-16.7-4.58-3.8-10.56-5.23-16.14-2.8-4.37,1.9-7.39,6-9.28,10.23a52.66,52.66,0,0,0-3.83,14.9c-.83,6.57-1.4,13.76,2.23,19.65,3,4.89,8.44,8,14.25,6.73,5-1.14,8.72-5.59,10.92-10a39.31,39.31,0,0,0,4-17.2c0-6.12-2.51-12.44-8.39-15.08a10.58,10.58,0,0,0-8.11-.51,12.29,12.29,0,0,0-6.31,5.87c-2.43,4.58-3.42,10.13-3.62,15.26-.18,4.81.5,10,3,14.16a14.25,14.25,0,0,0,12.54,7.23c5.66-.19,11.08-3.73,12.81-9.24a13.58,13.58,0,0,0-4.64-14.52c-4.29-3.26-10.28-2.92-14.75-.18a14.4,14.4,0,0,0-6.87,13.71,18.51,18.51,0,0,0,8.48,13.66,2.47,2.47,0,0,0,2.52,0c10-5.56,12.77-19.3,7.89-29.17a19,19,0,0,0-6.22-7.11,2.48,2.48,0,0,0-3,.39,49.8,49.8,0,0,0-11.27,28.3c-.28,4.29,0,9.09,2.36,12.81s6.75,5.68,10.9,3.51c3.83-2,6.33-7.27,2.75-10.71-2.33-2.23-5.87,1.3-3.54,3.54.27.25.12,0,.32.38s0,0,0-.06c.18.4,0,.16,0,0a2.34,2.34,0,0,1,0,.46s.05-.39,0-.09a1.93,1.93,0,0,1-.11.34c.17-.37-.07.12-.11.19a4.35,4.35,0,0,1-2.08,1.75c-.18.06-.75.19-.71.19.22,0-.76,0-.33,0a3,3,0,0,1-1.57-.72,6.77,6.77,0,0,1-2.07-3.12c-1.15-3.31-1-6.94-.61-10.38a44,44,0,0,1,2.85-11.34,43.35,43.35,0,0,1,6.78-11.54l-3,.39c9,6.3,7.88,22.34-1.67,27.65h2.52a13.12,13.12,0,0,1-6.07-10.55,9.45,9.45,0,0,1,5.89-8.93c3.34-1.43,7.38-.88,9.52,2.41a8.19,8.19,0,0,1-.64,10.23,9.2,9.2,0,0,1-10.51,1.8c-3.16-1.65-4.81-4.69-5.65-8.19a30.26,30.26,0,0,1-.14-11.77c.64-3.73,1.61-8.87,4.88-11.25s7.77.18,9.59,3.39c2.54,4.48,1.54,10.59.36,15.34-1.59,6.4-7.13,17.7-15.18,13-4.27-2.47-5.68-7.62-5.75-12.24a58.07,58.07,0,0,1,1.84-14.86c.94-3.77,2.35-7.82,4.73-10.78s5.44-4.62,9.13-4.16c4.5.55,8.12,4.23,10,8.14,2.47,5.08,2.33,11.15,2,16.64-.54,8.52-1.47,21.1-11.42,23.83-3.47,1-7.37.4-9.27-3a12.81,12.81,0,0,1-1.19-6.63,60.58,60.58,0,0,1,.94-8.49,101.48,101.48,0,0,1,4.55-17.57,46.23,46.23,0,0,1,3.07-7.25c.94-1.65,2.17-3.42,4.06-4,3.79-1.21,6.63,3.49,7.85,6.52a47.59,47.59,0,0,1,3,16.14,54.5,54.5,0,0,1-2.18,16.89c-1.44,4.89-3.49,9.75-6.93,13.6-2.82,3.16-6.88,6.11-11.36,5.34s-7.42-4.73-8.68-8.77c-1.72-5.52-.86-11.59-.17-17.21a41.79,41.79,0,0,1,3-12.28c1.67-3.62,4.24-6.75,8.24-7.75,4.7-1.18,9.7,1.06,13,4.3,3.78,3.68,6.1,8.64,7.84,13.54a40.55,40.55,0,0,1,2.65,17.46c-.87,8.92-7.48,18.17-17.19,18a19.21,19.21,0,0,1-12.17-5,24.83,24.83,0,0,1-7.34-12.71,42.65,42.65,0,0,1-.69-15.44,2.51,2.51,0,0,0-2.5-2.5,2.57,2.57,0,0,0-2.5,2.5Z" transform="translate(-19.26 -135.79)"/><path class="cls-1" d="M430.88,919a17.89,17.89,0,0,0-1.16,17.12,15.54,15.54,0,0,0,13.64,8.63,13.61,13.61,0,0,0,13.14-8.41c2-4.84,1.34-11-2.63-14.72a13.19,13.19,0,0,0-14.41-2c-5,2.33-7.14,7.87-5.94,13.1A13.39,13.39,0,0,0,445,943a16.4,16.4,0,0,0,15-7,15.93,15.93,0,0,0,1.18-15.69,11.56,11.56,0,0,0-12.86-6.15c-4.78.92-9,4.83-9.09,9.9s4,8.73,8.48,10a12.54,12.54,0,0,0,13-3.45,15.24,15.24,0,0,0,2.89-13.53c-1.16-4.72-4.64-8.92-9.46-10.14-5.14-1.3-10.73.82-14.29,4.62a13.37,13.37,0,0,0-2.54,15.16,13.77,13.77,0,0,0,14.59,7.6,13.13,13.13,0,0,0,10.19-12.44c0-5.41-4.29-10-9.51-11.14a11.16,11.16,0,0,0-7.63,1c-2.84,1.51-.32,5.83,2.52,4.32a5.73,5.73,0,0,1,4.37-.38,7.57,7.57,0,0,1,4.09,2.71c2.1,2.79,1,6.73-1.5,9.12-6.33,5.91-15.93-2.43-12.89-9.64a11.06,11.06,0,0,1,7.71-6.18,7.75,7.75,0,0,1,7.82,2.93c3.59,5,2.46,13.62-4.12,14.88a8.67,8.67,0,0,1-7.71-2.63,4.2,4.2,0,0,1-1-3.43,5,5,0,0,1,2-3.07,7.53,7.53,0,0,1,8-.67c2.9,1.77,3.85,5.76,3.33,9a11.07,11.07,0,0,1-6.72,8.52c-3.56,1.48-7.77,1.16-10.46-1.77-2.28-2.48-3.07-6.31-1.36-9.13,1.56-2.58,5.18-3.46,7.95-2.83a7.08,7.08,0,0,1,5.59,6.87,9,9,0,0,1-4.85,8.53,10.66,10.66,0,0,1-10.42-1.2c-3.35-2.37-4.66-6.69-4.21-10.64a13,13,0,0,1,2.07-5.56c1.75-2.71-2.58-5.21-4.32-2.52Z" transform="translate(-19.26 -135.79)"/><path class="cls-1" d="M382,815.29A101.68,101.68,0,0,0,425.73,868a100.37,100.37,0,0,0,109.1-5.66l-3.68-2.83-2,9.89a2.53,2.53,0,0,0,3.67,2.82c21-10.74,42.23-21.59,61-36.08,17.44-13.46,32.7-30.28,41.71-50.58a90.78,90.78,0,0,0,8.12-35.17c.06-3.22-4.94-3.22-5,0-.38,20.92-9.4,40.8-22.29,57-14,17.53-32.28,30.8-51.5,42-11.29,6.59-22.94,12.55-34.58,18.49L534,870.7l2-9.89c.38-1.9-1.77-4.22-3.68-2.82a97,97,0,0,1-67.81,17.9c-22.51-2.52-43.39-13.8-58.6-30.45A93.83,93.83,0,0,1,386.79,814a2.58,2.58,0,0,0-3.08-1.75,2.52,2.52,0,0,0-1.74,3.08Z" transform="translate(-19.26 -135.79)"/></svg>