<svg id="Layer_39" data-name="Layer 39" xmlns="http://www.w3.org/2000/svg" viewBox="0 0 725.53 1009.67"><defs><style>.cls-1{fill:#952c1f;}</style></defs><path class="cls-1" d="M61.59,164.9l-11.1-14.65a2.5,2.5,0,0,0-4.57,1.92Q55,188.08,67.07,223.11t27.19,69q8.43,19,17.77,37.59c1.44,2.87,5.76.34,4.32-2.53q-16.53-32.9-30.21-67.12Q72.55,226,61.87,190.9q-6-19.89-11.13-40.06l-4.57,1.93,11.1,14.65a2.58,2.58,0,0,0,3.42.9,2.52,2.52,0,0,0,.9-3.42Z" transform="translate(-45.84 -63.04)"/><path class="cls-1" d="M70.08,153.55,91,220l5.91,18.8c1,3.06,5.79,1.75,4.82-1.33L80.82,171,74.9,152.22c-1-3.06-5.79-1.75-4.82,1.33Z" transform="translate(-45.84 -63.04)"/><path class="cls-1" d="M149.66,302.75,127,221.89l-6.33-22.63-4.57,1.93,28.37,54,28.25,53.76,15.94,30.31c1.32,2.51,5.36.78,4.56-1.93l-27-91.54L139.43,154.7l-15.12-51.29-4.57,1.93q16.5,32.5,33,65l33,65,18.53,36.52c1.46,2.87,5.77.34,4.32-2.53l-33-65-33-65-18.54-36.52c-1.29-2.53-5.36-.77-4.57,1.93l27,91.55,26.84,91.07,15.12,51.28,4.57-1.92-28.37-54L136.38,229l-15.93-30.31c-1.32-2.52-5.32-.78-4.57,1.93l22.63,80.87,6.33,22.62c.87,3.1,5.69,1.78,4.82-1.33Z" transform="translate(-45.84 -63.04)"/><path class="cls-1" d="M243.92,122.4l29.47,81.85,29.48,81.85,16.6,46.1,4.18-2.43a456.83,456.83,0,0,1-52.75-53.55q-6.76-8.12-13.14-16.54a2.58,2.58,0,0,0-3.42-.89,2.52,2.52,0,0,0-.9,3.42A460.82,460.82,0,0,0,304.29,319q7.74,7.31,15.82,14.26a2.59,2.59,0,0,0,3,.39,2.52,2.52,0,0,0,1.15-2.82L294.82,249l-29.48-81.85-16.6-46.09a2.56,2.56,0,0,0-3.07-1.75,2.52,2.52,0,0,0-1.75,3.07Z" transform="translate(-45.84 -63.04)"/><path class="cls-1" d="M281,108.33q12.33,42.78,26.53,85T337.72,277q4,10.38,8.13,20.72c1.34,3.35,2.66,6.72,4.06,10.06a22.31,22.31,0,0,0,4.43,7.36c3.7,3.73,9.83,4.07,13.32-.12,3.1-3.74,3.93-9.11,3.78-13.84-.1-3.18-.68-6.38-1.09-9.53q-.74-5.6-1.52-11.18-1.54-11-3.33-21.94-3.58-21.9-8.1-43.64-9-43.21-21.67-85.56-1.59-5.31-3.24-10.61c-.95-3.06-5.78-1.76-4.82,1.33q12.87,41.34,22.23,83.67T365,288.79c.72,5.4,2,11.39,1.26,16.69a13.93,13.93,0,0,1-2,5.9,3.58,3.58,0,0,1-3.26,1.74c-2.08-.07-3.66-1.95-4.73-3.76a56.78,56.78,0,0,1-3.54-8q-4.07-10.11-8-20.24-15.72-40.35-29.7-81.34t-26.19-82.54q-1.5-5.1-3-10.22c-.89-3.08-5.71-1.77-4.82,1.33Z" transform="translate(-45.84 -63.04)"/><path class="cls-1" d="M384.91,160.64c-6.41,8-8.58,18.24-7.67,28.31,1,11,5.27,21,10.55,30.52,5.59,10.1,12.09,19.69,16.7,30.3a118.92,118.92,0,0,1,8.8,32.65,139.38,139.38,0,0,1-.63,38.54,2.59,2.59,0,0,0,1.75,3.08,2.52,2.52,0,0,0,3.07-1.75c3.53-22.66,2.08-46.26-5.8-67.9-3.95-10.83-9.74-20.63-15.58-30.51-5.49-9.27-10.86-18.83-13.05-29.48-2.08-10.17-1.34-21.84,5.4-30.22a2.59,2.59,0,0,0,0-3.54,2.53,2.53,0,0,0-3.54,0Z" transform="translate(-45.84 -63.04)"/><path class="cls-1" d="M424.34,121.07q4.26,37,10.12,73.85t13.3,73.16q4.19,20.43,8.87,40.77c.72,3.13,5.54,1.81,4.82-1.33Q453.13,271.4,446.39,235q-6.69-36.21-11.8-72.67-2.88-20.58-5.25-41.21a2.58,2.58,0,0,0-2.5-2.5,2.51,2.51,0,0,0-2.5,2.5Z" transform="translate(-45.84 -63.04)"/><path class="cls-1" d="M398.73,165.59a248,248,0,0,0,53-11.72q7.31-2.49,14.43-5.44a2.58,2.58,0,0,0,1.75-3.07,2.52,2.52,0,0,0-3.08-1.75,245.37,245.37,0,0,1-51.29,14.88q-7.38,1.29-14.83,2.1a2.57,2.57,0,0,0-2.5,2.5,2.51,2.51,0,0,0,2.5,2.5Z" transform="translate(-45.84 -63.04)"/><path class="cls-1" d="M541.74,291.51q0-44.35-2-88.69-2-44.07-6-88-2.26-24.68-5.16-49.29l-4.92.66,15.75,47.64,15.75,47.63,15.75,47.64,15.75,47.63,15.75,47.63,2,5.93c1,3,5.83,1.74,4.82-1.33l-15.75-47.63-15.75-47.64-15.75-47.63-15.75-47.64L530.44,70.78l-2-5.93a2.53,2.53,0,0,0-2.75-1.79,2.46,2.46,0,0,0-2.16,2.46q5.17,44.06,8.34,88.32,3.12,44,4.23,88.11.61,24.78.59,49.56c0,3.22,5,3.22,5,0Z" transform="translate(-45.84 -63.04)"/><path class="cls-1" d="M538,231.64l57.3-16.93,16.24-4.8c3.08-.91,1.77-5.74-1.33-4.82L552.86,222l-16.24,4.79c-3.08.91-1.77,5.74,1.33,4.83Z" transform="translate(-45.84 -63.04)"/><path class="cls-1" d="M99,424.76a74.44,74.44,0,0,0-25.32,11.92A75.38,75.38,0,0,0,63,446c-3.15,3.35-6.33,7-8.29,11.23s-3,9.26-.44,13.43c2.44,3.95,6.94,5.42,11.39,5.35,4.88-.07,9.69-1.55,14.4-2.68l17-4.05,38.4-9.15-2.43-4.18c-13.9,16.36-27.83,32.78-39.85,50.6-11.68,17.31-21.49,36.08-27.16,56.24A131.93,131.93,0,0,0,61,597.34c0,3.22,5,3.22,5,0,.15-20.23,5.72-40.08,14.29-58.31,8.84-18.82,20.77-36,33.65-52.26,7.34-9.28,15-18.3,22.66-27.32a2.52,2.52,0,0,0-2.43-4.18l-31.84,7.59c-10.41,2.48-20.8,5.2-31.26,7.43-3.21.68-7.29,1.39-10.32-.24-3.34-1.8-3.4-5.54-2.32-8.76,1.31-3.93,4.08-7.28,6.79-10.33a69.66,69.66,0,0,1,35-21.38c3.12-.8,1.8-5.62-1.33-4.82Z" transform="translate(-45.84 -63.04)"/><path class="cls-1" d="M129.39,490.7c-1.4,11.51-2.86,23.89,1.53,35,3.46,8.73,10.34,16.8,19.91,18.76s19.6-2.34,25.93-9.56c7.08-8.07,9.31-19.29,8.25-29.76-1.15-11.48-5.95-22.06-11.36-32.12-4.6-8.54-9.37-18.09-17.67-23.66a17.87,17.87,0,0,0-13.1-2.93,17.31,17.31,0,0,0-10.26,6.26c-6,7.33-7.54,17-8.57,26.07a185.26,185.26,0,0,0,5.73,70.67q1.2,4.27,2.6,8.47c1,3,5.85,1.74,4.83-1.33a181.72,181.72,0,0,1-9.14-65.49c.25-5.52.73-11,1.5-16.52a53,53,0,0,1,3-11.82c2.5-6.38,7.58-12.59,15-11.51,3.87.57,7.14,3.06,9.78,5.8a53,53,0,0,1,7.54,10.48c5.26,9.11,10.5,18.55,13.37,28.73,2.62,9.25,3.16,19.8-1,28.72-3.51,7.6-10.58,13.65-19,14.83s-16.08-3.94-20.35-11.09c-5.28-8.84-5.37-19.43-4.47-29.39.26-2.87.6-5.73.95-8.58a2.5,2.5,0,0,0-2.5-2.5,2.57,2.57,0,0,0-2.5,2.5Z" transform="translate(-45.84 -63.04)"/><path class="cls-1" d="M190.41,451.93A159.63,159.63,0,0,0,196,517.62q1.59,5.21,3.53,10.29a56.56,56.56,0,0,0,4.16,9.34c3.1,5.08,9.14,10.37,15.31,6.67,5.29-3.17,5.38-10.24,5.35-15.68q-.15-23.75-2.54-47.4a507.59,507.59,0,0,0-8.2-52.89,2.5,2.5,0,1,0-4.82,1.33,496.07,496.07,0,0,1,10.4,89.17q.15,5.63.17,11.26a20.25,20.25,0,0,1-1,7.34c-.67,1.73-2.06,3.24-4.09,3.09s-4-2.15-5.26-3.83a34.47,34.47,0,0,1-4-8q-1.92-4.85-3.51-9.82a154,154,0,0,1-6.13-66.52,2.51,2.51,0,0,0-2.5-2.5,2.57,2.57,0,0,0-2.5,2.5Z" transform="translate(-45.84 -63.04)"/><path class="cls-1" d="M240.78,401.81q-.79,31.15.81,62.3t5.66,62.29q2.28,17.48,5.29,34.86a2.51,2.51,0,0,0,3.07,1.74,2.55,2.55,0,0,0,1.75-3.07q-5.3-30.49-8.24-61.33t-3.48-62q-.31-17.41.14-34.84c.08-3.21-4.92-3.21-5,0Z" transform="translate(-45.84 -63.04)"/><path class="cls-1" d="M344.06,402.67,320.87,466l-6.59,18a2.52,2.52,0,0,0,3.08,3.08c15.65-5.95,34.08-.48,45.14,11.89a36,36,0,0,1,7.07,11.72l.64-2.43c-11.89,12.74-23.88,25.62-33.12,40.47-9,14.48-15.13,31.05-15.18,48.26A62.3,62.3,0,0,0,328,624.53a2.51,2.51,0,0,0,3.42.9,2.54,2.54,0,0,0,.89-3.42c-7-14.43-6.57-31.28-2.11-46.39,4.68-15.87,14-29.88,24.5-42.51,6.07-7.33,12.57-14.31,19.07-21.26a2.53,2.53,0,0,0,.64-2.44c-6.4-17.67-24.53-29.43-43.11-29.72A41.29,41.29,0,0,0,316,482.3l3.07,3.08L342.29,422l6.59-18a2.52,2.52,0,0,0-1.74-3.08,2.56,2.56,0,0,0-3.08,1.75Z" transform="translate(-45.84 -63.04)"/><path class="cls-1" d="M378.5,489.61l13.38,65.08,3.82,18.59c.57,2.73,5.12,2.16,4.91-.67l-4-55.53-1.12-15.68-4.91.66a149.19,149.19,0,0,0,40.55,76.05,2.54,2.54,0,0,0,4.27-1.77,387,387,0,0,0-1.33-66.44c-2.21-22.15-5.83-44.13-10-66-2.34-12.32-4.83-24.6-7.34-36.89L412,408.34l1,4.16c.77,3.12,5.6,1.8,4.82-1.33l-1-4.16c-.77-3.14-5.45-1.8-4.82,1.33,4.42,21.69,8.82,43.39,12.33,65.25a526.75,526.75,0,0,1,6.79,65.59,349,349,0,0,1-.66,37.16l4.27-1.77a143.76,143.76,0,0,1-34.41-55.52,145.38,145.38,0,0,1-4.86-18.32c-.54-2.74-5.11-2.15-4.91.67l4,55.53,1.12,15.68,4.92-.66-13.39-65.08-3.82-18.59a2.5,2.5,0,1,0-4.82,1.33Z" transform="translate(-45.84 -63.04)"/><path class="cls-1" d="M447.61,493.78l6.5,61.15,1.86,17.4a2.57,2.57,0,0,0,2.5,2.5,2.52,2.52,0,0,0,2.5-2.5l-6.51-61.15-1.85-17.4a2.57,2.57,0,0,0-2.5-2.5,2.52,2.52,0,0,0-2.5,2.5Z" transform="translate(-45.84 -63.04)"/><path class="cls-1" d="M479.75,570.62a455.13,455.13,0,0,0-4.61-58.77q-1.18-8.25-2.67-16.45l-4.57,1.93,21.4,45.13,6.07,12.8c1.12,2.35,4.61,1.06,4.66-1.26a588.15,588.15,0,0,0-2.86-74.25q-1.08-10.62-2.55-21.2c-.38-2.76-5.19-2.14-4.91.67a599.07,599.07,0,0,0,16.07,90.54q3.25,12.59,7.05,25c.94,3.07,5.76,1.76,4.82-1.33a595.18,595.18,0,0,1-19.9-89.1q-1.8-12.52-3-25.11l-4.91.66a585.79,585.79,0,0,1,5.38,73.44q.1,10.33-.15,20.68l4.66-1.26-21.4-45.14-6.07-12.8a2.49,2.49,0,0,0-3.13-1,2.54,2.54,0,0,0-1.44,3,445.57,445.57,0,0,1,6.59,57.48q.4,8.19.51,16.41c0,3.21,5,3.22,5,0Z" transform="translate(-45.84 -63.04)"/><path class="cls-1" d="M527.88,553.29,515.27,490.5l-3.58-17.84L506.87,474l19.22,60.77,5.41,17.09a2.51,2.51,0,0,0,4.91-.66,327.4,327.4,0,0,0-2.18-66q-1.26-9.35-3.05-18.61c-.53-2.75-5.1-2.15-4.91.66a595,595,0,0,0,13.86,93.33q3,13,6.57,25.76c.87,3.1,5.69,1.78,4.82-1.33a585.55,585.55,0,0,1-17.85-91.28q-1.5-13.21-2.4-26.48l-4.91.66a322.3,322.3,0,0,1,5.8,64.79q-.12,9.26-.75,18.51l4.91-.67L517.1,489.75l-5.41-17.09c-1-3.09-5.45-1.81-4.82,1.33l12.61,62.79,3.58,17.84a2.5,2.5,0,0,0,4.82-1.33Z" transform="translate(-45.84 -63.04)"/><path class="cls-1" d="M553.19,491.09,561,547l2.25,16a2.52,2.52,0,0,0,3.07,1.75,2.57,2.57,0,0,0,1.75-3.08l-7.84-55.86-2.25-16c-.18-1.34-1.89-2.07-3.07-1.75a2.57,2.57,0,0,0-1.75,3.08Z" transform="translate(-45.84 -63.04)"/><path class="cls-1" d="M581.18,569,574.9,517.3l-1.78-14.59L568.46,504a335.49,335.49,0,0,0,18.82,37.47q5.24,9,11,17.58c1.77,2.64,3.51,5.32,6,7.31,2.32,1.83,5.36,3.2,8.32,2.12,6.58-2.39,5-10.8,4.6-16.19q-.87-10.78-2.15-21.55-2.61-21.83-6.87-43.42-4.79-24.07-11.65-47.67c-.9-3.08-5.73-1.77-4.83,1.33A560.67,560.67,0,0,1,609,522.31q1.38,10.16,2.37,20.37.51,5.27.92,10.54c.21,2.61.76,5.53.26,8.14-.37,1.94-1.59,2.94-3.39,2.18-2.42-1-4.11-3.42-5.53-5.51q-5.57-8.21-10.64-16.73a335.59,335.59,0,0,1-20.22-39.85c-.95-2.24-4.95-1.15-4.66,1.26l6.28,51.7,1.78,14.6a2.57,2.57,0,0,0,2.5,2.5,2.52,2.52,0,0,0,2.5-2.5Z" transform="translate(-45.84 -63.04)"/><path class="cls-1" d="M655.53,454a369.91,369.91,0,0,0-22.71,68.28q-2,8.65-3.49,17.39-.8,4.49-1.47,9c-.22,1.46-.43,2.92-.63,4.39a16.16,16.16,0,0,0-.25,4.6,5.59,5.59,0,0,0,5.26,4.84c2.35.12,4.68-1,6.65-2.16a32,32,0,0,1,5.34-2.74,25.12,25.12,0,0,1,6-1.36c9.06-.85,18.81,2.74,24.17,10.33,1.11,1.57,4.15,1.71,4.57-.6,2.7-14.84-4.7-30.28-17.26-38.39a34,34,0,0,0-11.56-4.76,2.56,2.56,0,0,0-3.07,1.75,2.51,2.51,0,0,0,1.74,3.07c12.86,2.65,22.78,13.76,25.24,26.48a28.62,28.62,0,0,1,.09,10.52l4.57-.59a31.29,31.29,0,0,0-22.18-12.73,30.76,30.76,0,0,0-12.65,1.15,27.67,27.67,0,0,0-6,2.68c-1.54.91-3.52,2.4-5.27,2.36,0,0-.46-.08-.2,0-.88-.23-.2-.08-.19-.07a1.18,1.18,0,0,1-.29-.71,14.67,14.67,0,0,1,.35-3.49c.41-2.85.84-5.7,1.31-8.54q1.46-8.75,3.32-17.42,3.69-17.11,9-33.82a359.34,359.34,0,0,1,14-36.91,2.57,2.57,0,0,0-.9-3.42,2.51,2.51,0,0,0-3.42.89Z" transform="translate(-45.84 -63.04)"/><path class="cls-1" d="M443.73,428.65l1.67,1.67a2.83,2.83,0,0,0,1.77.74,1.88,1.88,0,0,0,1-.22,1.85,1.85,0,0,0,.81-.52l.39-.5a2.53,2.53,0,0,0,.34-1.26l-.09-.67a2.5,2.5,0,0,0-.64-1.1l-1.67-1.67a1.85,1.85,0,0,0-.81-.52,2.23,2.23,0,0,0-1.93,0,1.82,1.82,0,0,0-.8.52l-.39.5a2.43,2.43,0,0,0-.34,1.26l.09.67a2.5,2.5,0,0,0,.64,1.1Z" transform="translate(-45.84 -63.04)"/><path class="cls-1" d="M559.15,434.4c3.21,0,3.22-5,0-5s-3.23,5,0,5Z" transform="translate(-45.84 -63.04)"/><path class="cls-1" d="M87.16,748.74a380.72,380.72,0,0,1-2.37-90.32q1.15-12.54,3.16-25H83.13l27.32,68.35,27.32,68.34,15.37,38.46a2.58,2.58,0,0,0,3.08,1.74,2.5,2.5,0,0,0,1.74-3.07l-27.32-68.35-27.32-68.34L88,632.11a2.6,2.6,0,0,0-2.41-1.83,2.5,2.5,0,0,0-2.41,1.83,385.8,385.8,0,0,0-3.75,92.09q1.05,13,3,25.87a2.53,2.53,0,0,0,3.08,1.75,2.57,2.57,0,0,0,1.74-3.08Z" transform="translate(-45.84 -63.04)"/><path class="cls-1" d="M87.43,716.51a187.19,187.19,0,0,1,49.36-25.41q7.52-2.54,15.22-4.43c3.13-.77,1.8-5.59-1.32-4.82a192,192,0,0,0-52.35,21.51q-6.9,4.13-13.43,8.83a2.56,2.56,0,0,0-.9,3.42,2.52,2.52,0,0,0,3.42.9Z" transform="translate(-45.84 -63.04)"/><path class="cls-1" d="M200.83,652.5a524.75,524.75,0,0,0,5.65,56.1A516.49,516.49,0,0,0,218,763.35q4.09,15.3,9.13,30.33c1,3,5.85,1.73,4.82-1.33a519.9,519.9,0,0,1-14.82-53.71,512.5,512.5,0,0,1-8.92-54.79q-1.68-15.63-2.4-31.35c-.14-3.2-5.15-3.22-5,0Z" transform="translate(-45.84 -63.04)"/><path class="cls-1" d="M217.54,658.26a172.31,172.31,0,0,0,49.25,11.34c4.82.38,9.66.56,14.49.53L280,665.47a153.13,153.13,0,0,0-47.69,35.79,155.68,155.68,0,0,0-10.63,13.28c-1.27,1.77.84,4.33,2.82,3.67l54-18,15.34-5.12-2.44-4.18a267.21,267.21,0,0,0-41.84,51.58,271,271,0,0,0-28,60.27,262.69,262.69,0,0,0-8.83,36.06,2.58,2.58,0,0,0,1.75,3.08,2.52,2.52,0,0,0,3.07-1.75,262.06,262.06,0,0,1,18.94-62.53,265.57,265.57,0,0,1,33.59-55.82A262.43,262.43,0,0,1,295,694.44c1.76-1.68,0-5-2.43-4.18l-54,18-15.34,5.11,2.83,3.67a148.55,148.55,0,0,1,56.52-47.27c2.3-1.1,1.1-4.67-1.26-4.66a167.51,167.51,0,0,1-48.93-7q-6.84-2.05-13.48-4.67a2.52,2.52,0,0,0-3.08,1.75,2.55,2.55,0,0,0,1.75,3.07Z" transform="translate(-45.84 -63.04)"/><path class="cls-1" d="M304.59,707.07a87,87,0,0,0-3.06,37.61c1.37,9.93,4.09,23.71,14.76,27.69,5.07,1.88,11,.65,15.47-2.17,4.89-3.09,8.08-8,10.19-13.3a61.43,61.43,0,0,0,3.65-15.73,74.74,74.74,0,0,0,.17-15.25,82.09,82.09,0,0,0-8.71-30.12,73,73,0,0,0-19.33-24.07c-4.51-3.54-10.15-6.74-16.1-6.27a16,16,0,0,0-12.06,7.33c-2.6,3.82-3.94,8.47-4.82,13-1.2,6-1.93,12.22-2.66,18.33-1.53,12.68-2.13,25.69.73,38.24,2.35,10.33,7.09,20.41,14.6,28a46.77,46.77,0,0,0,6,5.11A2.5,2.5,0,0,0,306,771.1c-7.75-5.55-13.12-13.92-16.25-22.82-3.72-10.58-4.37-21.81-3.7-32.92.37-6.18,1.13-12.33,2-18.46a100.25,100.25,0,0,1,2.66-14.5c1.07-3.62,2.67-7.41,5.68-9.81,3.43-2.73,8.07-2.59,12-.84,4.63,2,8.48,5.56,12,9.16a70.51,70.51,0,0,1,8.6,10.87A76.67,76.67,0,0,1,339.6,718a71.74,71.74,0,0,1,.25,27.93c-1.76,9.1-5.67,20-15.94,22.12A10.93,10.93,0,0,1,313,763.93c-2.94-3.72-4.23-8.6-5.27-13.13a80.83,80.83,0,0,1-.48-34,84.26,84.26,0,0,1,2.18-8.44c1-3.08-3.87-4.4-4.83-1.33Z" transform="translate(-45.84 -63.04)"/><path class="cls-1" d="M348.09,678.78l18.57,48.81,5.24,13.78a2.53,2.53,0,0,0,2.75,1.79,2.49,2.49,0,0,0,2.16-2.46l-.08-42.81-4.66,1.26,27.65,46.15,7.94,13.25a2.53,2.53,0,0,0,4.57-.6,288.79,288.79,0,0,0,9.35-90.39c-.48-8.59-1.37-17.15-2.6-25.67a2.5,2.5,0,0,0-3.07-1.74,2.56,2.56,0,0,0-1.75,3.07,282.75,282.75,0,0,1-1.33,88.87q-2.18,12.38-5.42,24.53L412,756l-27.66-46.16-7.93-13.24a2.52,2.52,0,0,0-4.66,1.26l.08,42.81,4.91-.66-18.56-48.81-5.25-13.78a2.57,2.57,0,0,0-3.07-1.75,2.53,2.53,0,0,0-1.75,3.08Z" transform="translate(-45.84 -63.04)"/><path class="cls-1" d="M444.57,626.78l-3-9.59a2.51,2.51,0,0,0-4.91.67q-.42,26.61,1.73,53.16c1.44,17.74,3.74,35.42,6.87,52.94q2.65,14.84,6.13,29.5c.74,3.13,5.56,1.8,4.82-1.33q-6.09-25.78-9.68-52.06c-2.37-17.35-3.86-34.83-4.54-52.33q-.57-14.93-.33-29.88l-4.91.66,3,9.58c.95,3.07,5.78,1.76,4.83-1.32Z" transform="translate(-45.84 -63.04)"/><path class="cls-1" d="M531.4,689.39c-2.15,12.44-4.15,25.54,1.38,37.42a26.17,26.17,0,0,0,10.82,12.05,22.35,22.35,0,0,0,15,2.3,17.41,17.41,0,0,0,11.92-9c2.35-4.54,2.81-9.8,2.3-14.82a68.6,68.6,0,0,0-3.88-15.75A135,135,0,0,0,539.05,653a2.52,2.52,0,0,0-3.93.51,86.83,86.83,0,0,0-4.91,62.08,83.44,83.44,0,0,0,7,16.63c1.56,2.82,5.88.3,4.32-2.52A81.5,81.5,0,0,1,533.79,672a78.06,78.06,0,0,1,5.65-16l-3.93.51a129.54,129.54,0,0,1,19.23,25.9,115.13,115.13,0,0,1,12,29.26c1.88,7.79,2.57,18.72-5.58,23.28a15.62,15.62,0,0,1-12.05.88,19.06,19.06,0,0,1-10.29-8.3c-7-11-4.73-24.67-2.63-36.79a2.58,2.58,0,0,0-1.75-3.08,2.52,2.52,0,0,0-3.07,1.75Z" transform="translate(-45.84 -63.04)"/><path class="cls-1" d="M598.74,600.75q.68,39.36,4.74,78.56,4,39,11.4,77.56,4.15,21.72,9.35,43.22c.76,3.13,5.58,1.8,4.83-1.33q-9.19-38-15.11-76.74-5.87-38.46-8.4-77.33-1.44-21.95-1.81-43.94c-.06-3.21-5.06-3.22-5,0Z" transform="translate(-45.84 -63.04)"/><path class="cls-1" d="M588.16,719.76l55.13-10.17a2.51,2.51,0,0,0,1.74-3.07,2.55,2.55,0,0,0-3.07-1.75l-55.13,10.17a2.52,2.52,0,0,0-1.75,3.07,2.57,2.57,0,0,0,3.08,1.75Z" transform="translate(-45.84 -63.04)"/><path class="cls-1" d="M210.84,865.86l-55.65,66.5-15.67,18.72c-1.54,1.84-.13,4.86,2.43,4.18l54.44-14.52,54.45-14.51L281.67,918l-1.92-4.57q-23.38,10.86-45.86,23.51t-43.71,26.88q-21.39,14.34-41.65,30.31t-39.2,33.44c-6,5.5-12.23,11.21-15.13,19-2.36,6.32-1.5,14.19,3.1,19.3a13.31,13.31,0,0,0,3.88,3c2.87,1.46,5.4-2.85,2.53-4.31-5.2-2.64-6.66-9.26-5.33-14.58,1.84-7.36,8-12.83,13.35-17.78q18.33-17,37.92-32.57T190,970q20.7-14,42.42-26.45t44.3-23.17c1.85-.88,3.72-1.75,5.58-2.62,2.62-1.21.75-5.28-1.93-4.57L225.9,927.7l-54.45,14.52-30.83,8.22,2.43,4.18,55.66-66.5,15.67-18.73a2.57,2.57,0,0,0,0-3.53,2.53,2.53,0,0,0-3.54,0Z" transform="translate(-45.84 -63.04)"/><path class="cls-1" d="M261.84,834.65l-3.35,85.53-3.35,85.53-1.88,47.88c-.13,3.21,4.87,3.21,5,0l3.35-85.53L265,882.53l1.88-47.88c.13-3.21-4.87-3.21-5,0Z" transform="translate(-45.84 -63.04)"/><path class="cls-1" d="M284.37,812.9,281.2,913.6,278,1013.78l-1.78,56.51c-.1,3.22,4.9,3.22,5,0l3.17-100.69,3.16-100.18,1.78-56.52c.1-3.21-4.9-3.21-5,0Z" transform="translate(-45.84 -63.04)"/><path class="cls-1" d="M298.77,826.32q-.64,41.71.33,83.46t3.62,83.38q1.48,23.55,3.5,47.07a2.57,2.57,0,0,0,2.5,2.5,2.51,2.51,0,0,0,2.5-2.5q-3.56-41.6-5.48-83.28t-2.19-83.44q-.15-23.6.22-47.19c.06-3.22-4.94-3.22-5,0Z" transform="translate(-45.84 -63.04)"/><path class="cls-1" d="M329.38,821.31l2.18,78.89,2.18,78.88,1.23,44.44c.09,3.21,5.09,3.22,5,0l-2.18-78.89-2.18-78.88-1.23-44.44c-.09-3.21-5.09-3.23-5,0Z" transform="translate(-45.84 -63.04)"/><path class="cls-1" d="M320.84,912.39q26.43-7.95,53.15-14.84t53.46-12.61q15.17-3.26,30.39-6.16a2.53,2.53,0,0,0,1.75-3.08,2.56,2.56,0,0,0-3.08-1.75q-27.09,5.19-54,11.45T349.3,899q-14.94,4.14-29.79,8.61c-3.07.93-1.76,5.76,1.33,4.82Z" transform="translate(-45.84 -63.04)"/><path class="cls-1" d="M95.05,350.44l5.34,51.42,1.34,12.86c.39,3.8.69,7.63,1.36,11.39,1.12,6.3,4,13,10.35,15.37,5.64,2.14,13.32.21,15.07-6.14.86-3.11-4-4.43-4.82-1.33a4.26,4.26,0,0,1-3.33,3,9,9,0,0,1-5.52-.34c-5-2.07-6.55-8.82-7.23-13.85-1-7.29-1.56-14.66-2.32-22l-2.47-23.73-2.77-26.7a2.57,2.57,0,0,0-2.5-2.5,2.52,2.52,0,0,0-2.5,2.5Z" transform="translate(-45.84 -63.04)"/><path class="cls-1" d="M139.31,392.52c.17,6.39.36,13,2.48,19.09A24,24,0,0,0,152.6,425.1a16.06,16.06,0,0,0,16,.17c4.67-2.75,7.82-7.78,9.07-13,1.59-6.65.28-13.58-1.4-20.06-1.37-5.28-2.79-10.79-5.72-15.45s-7.48-8-13.09-8.55c-5.17-.47-10.26,1.78-14.21,5-11.37,9.15-10.22,25-8.68,38a2.58,2.58,0,0,0,2.5,2.5,2.51,2.51,0,0,0,2.5-2.5c-1.18-10-2.92-22.48,3.75-31,5-6.4,14.66-10,21-3.4,3.09,3.24,4.6,7.72,5.83,11.92,1.6,5.48,3.22,11.16,3.26,16.9,0,4.73-1.23,9.59-4.55,13.11a10.74,10.74,0,0,1-11.23,3.12c-4.94-1.52-8.72-5.83-10.57-10.53-2.36-6-2.51-12.47-2.68-18.78-.09-3.22-5.09-3.23-5,0Z" transform="translate(-45.84 -63.04)"/><path class="cls-1" d="M191.31,357.42l-4.4,10.11c-.82,1.88.54,4.33,2.83,3.67,6.32-1.81,12.14,3.64,14.19,9.53,2.6,7.43-.94,15-5.72,20.75a74.3,74.3,0,0,1-10.39,9.9,2.52,2.52,0,0,0,0,3.53,2.55,2.55,0,0,0,3.54,0c7.35-6,14.69-13.07,17.49-22.4a21.65,21.65,0,0,0-7.29-23.33,14.76,14.76,0,0,0-13.15-2.8l2.82,3.67,4.4-10.1a2.59,2.59,0,0,0-.9-3.42,2.52,2.52,0,0,0-3.42.89Z" transform="translate(-45.84 -63.04)"/><path class="cls-1" d="M226.34,351.34A316.23,316.23,0,0,0,220.21,409c-.07,5.51,0,11,.23,16.53.12,3.21,5.13,3.23,5,0a308.33,308.33,0,0,1,2.94-56.8q1.19-8.07,2.78-16.05a2.5,2.5,0,1,0-4.82-1.33Z" transform="translate(-45.84 -63.04)"/><path class="cls-1" d="M217.2,388.68l35.3-14.57a2.58,2.58,0,0,0,1.74-3.07,2.51,2.51,0,0,0-3.07-1.75l-35.3,14.56a2.59,2.59,0,0,0-1.74,3.08,2.52,2.52,0,0,0,3.07,1.75Z" transform="translate(-45.84 -63.04)"/><path class="cls-1" d="M719.78,518.45a399.35,399.35,0,0,0-9.2,81.25q-.12,11.65.45,23.32c.07,1.28,2.07,1.29,2,0a396.56,396.56,0,0,1,4.44-81.6q1.78-11.28,4.24-22.44c.27-1.25-1.66-1.79-1.93-.53Z" transform="translate(-45.84 -63.04)"/><path class="cls-1" d="M727.78,521.18l-3.34-9.2c-.78-2.15-4.24-2.59-4.82,0l-16,71.94L699,604.34l4.91.66a339.19,339.19,0,0,1,5.1-50.47q1.28-7.08,2.83-14.1l-4.82-1.33a387.63,387.63,0,0,0-4.18,54.23q0,7.73.23,15.46c.11,3.21,5.11,3.22,5,0A384.54,384.54,0,0,1,710,555.35q.79-7.47,1.89-14.92a2.58,2.58,0,0,0-1.74-3.07,2.52,2.52,0,0,0-3.08,1.74,347.92,347.92,0,0,0-7.42,51.29c-.33,4.86-.56,9.74-.69,14.61-.07,2.78,4.29,3.44,4.91.66l16-71.93,4.55-20.42h-4.82l3.34,9.2a2.56,2.56,0,0,0,3.07,1.75,2.53,2.53,0,0,0,1.75-3.08Z" transform="translate(-45.84 -63.04)"/><path class="cls-1" d="M732.69,591.37A280,280,0,0,1,735,535h-4.82l22.2,55.13,6.34,15.75c1,2.55,4.75,2.3,4.91-.67l3-56.55,3-56.55,1.71-31.88c.17-3.22-4.83-3.21-5,0l-3,56.55-3,56.55-1.72,31.88,4.91-.66-22.2-55.13L735,533.71a2.61,2.61,0,0,0-2.41-1.84,2.5,2.5,0,0,0-2.41,1.84,286.59,286.59,0,0,0-2.44,57.66c.2,3.2,5.2,3.22,5,0Z" transform="translate(-45.84 -63.04)"/></svg>