<?xml version="1.0" encoding="UTF-8" standalone="no"?>
<!-- Created with Inkscape (http://www.inkscape.org/) -->

<svg
   width="7206.2202mm"
   height="3746.6917mm"
   viewBox="0 0 7206.2202 3746.6917"
   version="1.1"
   id="svg1"
   xmlns="http://www.w3.org/2000/svg"
   xmlns:svg="http://www.w3.org/2000/svg">
  <defs
     id="defs1" />
  <g
     id="layer1"
     transform="translate(4281.4437,1478.5058)">
    <path
       style="fill:#ff0000;stroke-width:0.264583"
       id="path1"
       d="m -4262.7756,-116.52839 c 56.6486,-160.56201 145.7995,-307.60522 230.4415,-454.49847 131.4125,-227.28148 281.681,-442.53914 443.8012,-648.77204 52.4402,-63.8042 103.2897,-129.8988 165.2935,-184.9273 10.0438,-8.9231 -2.5752,-23.1272 -12.6191,-14.2042 v 0 c -62.7949,55.8415 -114.545,122.62 -167.6117,187.3896 -162.6727,206.9544 -313.4638,422.9566 -445.3265,651.02825 -85.2729,148.00011 -175.0214,296.17146 -232.0039,457.97583 -4.2484,12.74559 13.7766,18.75391 18.025,6.00833 z" />
    <path
       style="fill:#ff0000;stroke-width:0.264583"
       id="path2"
       d="m -4164.8969,-1377.8391 c 127.7331,-1.763 255.1628,-13.298 382.633,-21.0789 189.4144,-11.1814 379.1103,-15.9051 568.8078,-18.5757 109.3116,-1.3374 218.6321,-1.4548 327.95,-1.3852 48.5444,-1.1135 97.3058,2.9412 145.6338,-2.7683 13.2969,-1.3184 26.2356,-4.8415 39.4494,-6.622 13.3127,-1.8091 10.7542,-20.6361 -2.5583,-18.827 v 0 c -13.1093,1.7944 -25.9567,5.1843 -39.1371,6.5822 -47.5602,5.7082 -95.6009,1.3708 -143.3759,2.6351 -109.411,-0.07 -218.8247,0.048 -328.2294,1.3871 -189.9946,2.6754 -379.9874,7.4088 -569.6979,18.6091 -127.0847,7.7583 -254.1296,19.2554 -381.4754,21.0436 -13.4351,0 -13.4351,19 0,19 z" />
    <path
       style="fill:#ff0000;stroke-width:0.264583"
       id="path3"
       d="m -3050.4405,-1219.8847 c -15.5517,70.2599 -48.6741,135.3874 -79.0734,200.1242 -61.6674,123.31815 -128.6671,243.871 -191.5366,366.59816 -43.656,82.87242 -84.7238,167.06212 -127.1328,250.56618 -21.118,41.12231 -43.0826,82.16029 -69.1317,120.41971 -1.978,2.61059 -3.956,5.22115 -5.934,7.83171 -8.1005,10.71837 7.0575,22.1741 15.1579,11.45574 v 0 c 2.1654,-2.87215 4.331,-5.74431 6.4966,-8.61646 26.397,-38.99602 48.9575,-80.5892 70.3519,-122.48751 42.3958,-83.48585 83.4589,-167.65291 127.1024,-250.50678 62.9679,-122.92153 130.0896,-243.65661 191.8248,-367.18515 31.0491,-66.1274 64.7499,-132.6689 80.5061,-204.4736 2.6347,-13.1742 -15.9965,-16.9004 -18.6312,-3.7262 z" />
    <path
       style="fill:#ff0000;stroke-width:0.264583"
       id="path4"
       d="m -2714.8459,-1167.1859 c -14.7926,48.2881 -38.1389,93.4151 -61.673,137.9019 -50.4018,88.83348 -107.8958,173.47745 -162.681,259.65144 -55.1211,87.33528 -113.7753,172.39075 -168.8335,259.75619 -36.3238,58.21405 -72.468,116.51025 -110.304,173.75439 -16.5002,20.26621 -27.0729,46.77897 -47.8372,63.35231 -10.3251,8.59608 1.8317,23.19795 12.1568,14.60186 v 0 c 21.6821,-18.57146 34.6716,-44.81958 51.5311,-67.4776 37.9119,-57.3592 74.1333,-115.76954 110.5281,-174.1017 55.0354,-87.34954 113.6972,-172.37051 168.7928,-259.69187 55.0555,-86.60122 112.8445,-171.65876 163.4434,-260.96372 24.1324,-45.6612 48.0444,-91.9839 63.1455,-141.5635 3.6909,-12.9181 -14.5781,-18.1378 -18.269,-5.2197 z" />
    <path
       style="fill:#ff0000;stroke-width:0.264583"
       id="path5"
       d="m -3419.0021,-724.97362 c 118.0459,-15.37464 232.6983,-49.93515 348.2003,-77.84846 122.1034,-29.28874 244.2189,-58.91418 368.5149,-77.33395 36.9964,-4.99462 74.2444,-8.49982 111.5924,-8.85782 1.6206,0.0201 3.2411,0.0401 4.8617,0.0602 13.4341,0.16002 13.6604,-18.83865 0.2263,-18.99867 v 0 c -1.7582,-0.0201 -3.5164,-0.0404 -5.2746,-0.0606 -38.2181,0.38415 -76.3353,3.92914 -114.1927,9.06238 -124.8561,18.52546 -247.5394,48.20938 -370.1912,77.66015 -114.0674,27.56831 -227.2715,61.44212 -343.7371,77.31675 -13.4351,0 -13.4351,19.00002 0,19.00002 z" />
    <path
       style="fill:#ff0000;stroke-width:0.264583"
       id="path6"
       d="m -2224.1576,-1301.4929 c -28.0754,102.3547 -82.0256,195.5185 -132.655,288.0014 -86.3179,157.16475 -177.5075,311.53973 -271.0394,464.49337 -46.5746,77.89285 -95.4566,154.36595 -144.0677,230.99217 -3.8478,8.34872 -32.1101,44.02254 -29.8191,53.67828 1.0158,4.28053 4.2344,7.71282 6.3516,11.56922 5.2795,0.41204 10.6151,2.10909 15.838,1.23612 11.0884,-1.85335 65.3455,-21.74043 69.6079,-23.30775 58.6137,-21.55301 116.8134,-44.29921 175.0446,-66.85584 125.8843,-49.52693 252.4331,-97.29295 379.8882,-142.6202 41.4729,-14.83175 83.5529,-27.84576 125.9111,-39.87599 12.9237,-3.6712 7.7318,-21.94809 -5.1919,-18.27689 v 0 c -42.7524,12.14689 -85.2256,25.28094 -127.0857,40.25125 -127.6211,45.38739 -254.3362,93.21281 -380.3847,142.80464 -58.0655,22.49284 -116.1013,45.1656 -174.5438,66.66984 -21.4061,7.87652 -43.4599,13.96204 -64.7033,22.26694 -1.1941,0.46675 -1.8468,1.77861 -2.7699,2.6679 0.2238,2.39482 0.2325,4.81956 0.6715,7.18442 0.1603,0.86351 -0.1368,-1.8076 0.1738,-2.62903 0.8803,-2.32665 2.1638,-4.48192 3.3446,-6.67129 7.0908,-13.14506 15.9464,-25.17336 23.7109,-37.9136 48.6661,-76.71498 97.6051,-153.27566 144.2334,-231.258 93.6901,-153.2133 185.0326,-307.85115 271.4964,-465.28266 51.5366,-94.1632 106.4178,-189.0642 134.6195,-293.3981 2.6348,-13.1741 -15.9962,-16.9003 -18.631,-3.7262 z" />
    <path
       style="fill:#ff0000;stroke-width:0.264583"
       id="path7"
       d="m -2606.5809,-775.97875 c 54.7654,0 109.5308,0 164.2962,0 35.9194,0 71.8388,0 107.7582,0 13.4351,0 13.4351,-18.99999 0,-18.99999 v 0 c -35.9194,0 -71.8388,0 -107.7582,0 -54.7654,0 -109.5308,0 -164.2962,0 -13.435,0 -13.435,18.99999 0,18.99999 z" />
    <path
       style="fill:#ff0000;stroke-width:0.264583"
       id="path8"
       d="m -2328.07,-1256.8315 c 67.7066,-16.8805 134.2508,-38.3789 201.2102,-58.0443 99.9157,-29.1066 201.8451,-50.5976 304.1271,-69.4579 39.2774,-6.5755 20.8689,-3.6377 55.2094,-8.9143 13.2791,-2.0408 10.3929,-20.8203 -2.8862,-18.7795 v 0 c -34.6951,5.3336 -16.1,2.3645 -55.769,9.0089 -102.9245,18.9829 -205.4927,40.6184 -306.0353,69.9128 -66.4239,19.5081 -132.4434,40.8017 -199.5824,57.6433 -13.1741,2.6348 -9.4479,21.2658 3.7262,18.631 z" />
    <path
       style="fill:#ff0000;stroke-width:0.264583"
       id="path9"
       d="m -361.91666,-1396.8391 c -28.00654,2.8296 -51.07707,19.4687 -73.31728,35.3004 -45.14334,30.3857 -84.65794,67.5872 -122.93415,105.998 -67.59527,69.2309 -128.77448,144.4035 -191.55518,217.9471 -71.83366,85.71104 -147.49992,168.08584 -220.37209,252.8976 -37.71004,47.6082 -76.96994,94.94512 -99.02364,152.08771 -6.6699,27.08801 -16.7256,58.04847 -9.7922,86.23218 1.4183,5.765 4.1629,11.12012 6.2444,16.68018 28.6359,47.6454 88.01557,54.42227 138.34284,61.73832 72.45122,6.75463 145.78473,11.09681 218.34417,3.0983 17.12293,-1.88751 34.09748,-4.93874 51.14623,-7.4081 69.09112,-13.17847 137.20061,-33.08016 200.73781,-63.62676 43.7519,-21.03445 63.66002,-34.5789 105.3679,-59.94048 89.9001,-59.31749 173.70428,-128.83867 241.90045,-212.64512 11.89883,-14.62251 22.595304,-30.18364 33.892959,-45.27547 45.84705,-67.16757 75.6828744,-145.12589 80.4155186,-226.75546 0.7150227,-12.3328 0.00766,-24.7071 0.011488,-37.0607 -3.7022852,-61.8817 -35.4447346,-111.5367 -72.7274836,-158.5703 -24.730511,-30.2005 -56.478062,-53.014 -84.688362,-79.6493 -24.21336,-24.2003 -50.52615,-46.1483 -77.33082,-67.3889 -19.94786,-14.1064 -42.23712,-24.4992 -61.51906,-39.517 -10.63627,-8.208 -22.24402,6.834 -11.60777,15.0419 v 0 c 19.34998,14.8152 41.14588,25.7378 61.32691,39.3668 26.37711,20.8997 52.27579,42.4889 76.09008,66.3154 27.56455,26.0019 58.51263,48.3222 82.843101,77.6382 34.616365,43.6146 64.83288,89.337 68.613419,146.7863 0.03296,11.6642 0.742209,23.3461 0.09887,34.9926 -4.321888,78.2406 -32.887381,153.01948 -76.742015,217.422 -10.985255,14.70649 -21.380155,29.87299 -32.955765,44.11948 -66.92164,82.36273 -149.23482,150.64076 -237.49754,208.94799 -40.61018,24.72436 -60.46936,38.21639 -103.01637,58.72552 -62.00515,29.88863 -128.50299,49.33481 -195.9452,62.27072 -16.61223,2.42133 -33.15165,5.40998 -49.83673,7.264 -71.17916,7.9094 -143.12304,3.58875 -214.20552,-2.95646 -42.88028,-6.15246 -97.04981,-10.71895 -123.37281,-49.87565 -12.5596,-30.09426 -4.7175,-58.7485 3.6052,-89.17588 20.9507,-55.19472 59.71716,-100.43572 95.69126,-146.5 72.88194,-84.82999 148.57,-167.2128 220.41157,-252.94372 62.46397,-73.1734 123.32933,-147.9727 190.56419,-216.8728 37.51699,-37.6626 76.22225,-74.1646 120.49688,-103.9323 19.00036,-13.5403 38.54535,-28.3298 62.29474,-31.7763 13.43501,0 13.43501,-19 0,-19 z" />
    <path
       style="fill:#ff0000;stroke-width:0.264583"
       id="path10"
       d="m 82.309204,-1441.2239 c 3.124613,64.2888 18.467756,127.0419 33.786176,189.2933 30.15061,125.7336 67.27333,249.6003 106.87434,372.63204 37.08093,111.17884 74.76312,222.16369 114.12804,332.55661 17.37418,50.55899 36.28721,100.64445 51.95515,151.77399 5.27073,12.80901 5.79188,27.2601 10.70797,40.11906 6.27918,-1.78308 13.37416,-1.77726 18.83749,-5.34924 2.36133,-1.54387 1.02553,-5.56982 1.94347,-8.23756 2.06534,-6.00213 12.17081,-27.52579 13.66435,-30.38718 12.51567,-23.97782 17.48962,-29.60272 33.92144,-53.93987 49.99286,-74.1055 104.31274,-145.05807 154.7295,-218.88079 28.69877,-40.44487 51.79959,-84.28492 74.50391,-128.23674 8.78377,-10.26673 8.50032,-26.40692 17.00464,-36.46763 -3.54799,3.96783 -2.00848,3.41175 -10.55222,1.80819 -1.08567,-0.20375 -2.16286,-2.5868 -2.83737,-1.71204 -0.76147,0.98753 -6.50785,32.4208 -6.81402,33.64024 -13.15154,40.49371 -23.47357,81.74183 -33.60791,123.0567 -10.17764,39.84106 -13.94616,80.78483 -16.1177,121.71878 -1.16326,26.56221 -1.32122,53.15355 -1.26838,79.73669 0.36184,11.3647 -5.74702,33.38512 19.74178,19.03973 4.8818,-2.74754 4.97064,-10.04072 7.45595,-15.06109 65.44948,-134.16462 140.3273,-263.42882 214.79047,-392.71503 87.98999,-152.59006 176.59092,-304.82886 265.38942,-456.95026 21.2689,-36.2385 43.0355,-72.1794 64.9203,-108.0477 6.9976,-11.4688 -9.2218,-21.3649 -16.2194,-9.8961 v 0 c -21.9487,35.9738 -43.779,72.0202 -65.1098,108.3654 -88.8171,152.1532 -177.4365,304.4239 -265.44496,457.04594 -74.66835,129.6447 -149.74437,259.27129 -215.37342,393.80811 -2.71603,5.54852 -10.39739,10.89202 -8.14806,16.6456 15.70408,40.16941 18.97909,-7.83601 16.99766,-12.27249 -0.0525,-26.23585 0.10004,-52.47973 1.24192,-78.69515 2.09632,-39.74738 5.70974,-79.51004 15.59727,-118.19641 10.12627,-41.28969 20.47375,-82.50023 33.58835,-122.97765 2.51222,-10.10338 20.54262,-70.41028 -13.31711,-49.89028 -8.66161,11.83098 -10.61718,27.01716 -18.7992,39.29832 -22.33787,43.26803 -45.05791,86.43168 -73.31231,126.23954 -50.43713,73.85521 -104.79556,144.82818 -154.79453,218.97665 -16.75421,24.89747 -32.48367,48.64811 -44.53308,76.15256 -2.09193,4.77512 -4.10776,9.59294 -5.8106,14.52025 -0.73009,2.11257 -3.35761,5.34797 -1.46854,6.54275 4.6174,2.92034 10.77217,1.83198 16.15826,2.74796 0.16468,0.57253 0.56259,2.30937 0.49403,1.7176 -0.3243,-2.79898 -1.15033,-5.51746 -1.80194,-8.25876 -1.35745,-5.71079 -2.86578,-11.61089 -4.41486,-17.24628 -1.22436,-4.45402 -2.5186,-8.88855 -3.77788,-13.33283 -15.77502,-51.39484 -34.73096,-101.76457 -52.22383,-152.58471 -39.30031,-110.2067 -76.91594,-221.00597 -113.93813,-331.99659 -39.46753,-122.60873 -76.4661,-246.04933 -106.51125,-371.35203 -14.96533,-60.7683 -29.99781,-122.0088 -33.23539,-184.7516 0,-13.435 -18.999996,-13.435 -18.999996,0 z" />
    <path
       style="fill:#ff0000;stroke-width:0.264583"
       id="path11"
       d="m 1478.9127,-1456.1694 c -18.6884,69.0193 -46.3625,135.101 -74.5237,200.6711 -58.812,131.1248 -125.2591,258.58496 -187.9637,387.84032 -47.7328,102.96858 -94.4013,206.75147 -131.0699,314.25361 -8.2229,33.72895 -28.2308,65.82174 -31.6072,100.75521 1.4739,3.08044 1.4548,7.55057 4.4217,9.24131 12.5093,7.12849 49.1988,-11.04561 56.8916,-13.81752 45.8708,-16.52836 38.6831,-13.77569 87.5388,-29.94199 90.7193,-29.90882 183.9054,-51.20079 276.1953,-75.50322 48.5264,-12.09829 96.5078,-26.22302 145.6155,-35.83998 9.162,-1.68574 18.405,-2.81324 27.6616,-3.80561 13.3579,-1.43759 11.3249,-20.32852 -2.033,-18.89093 v 0 c -9.7993,1.05838 -19.5846,2.25496 -29.2826,4.05122 -49.5031,9.70798 -97.8875,23.88486 -146.8001,36.11173 -92.6693,24.40599 -186.2388,45.78747 -277.3263,75.83895 -49.2323,16.29574 -41.9586,13.51185 -88.1241,30.14636 -9.9903,3.59974 -19.9298,7.33888 -29.901,10.99106 -3.4225,1.25357 -7.961,0.91426 -10.2802,3.72615 -2.1389,2.59339 10.0434,4.66082 4.3715,9.08833 0.2699,-8.85103 3.9384,-17.52023 6.6569,-25.83876 7.6798,-23.5001 15.6838,-46.89385 23.9854,-70.18168 36.3783,-106.77675 82.8194,-209.81408 130.1808,-312.09146 62.829,-129.51902 129.4198,-257.234 188.3273,-388.636 28.5555,-66.5063 56.5923,-133.5442 75.4981,-203.5601 3.2585,-13.0339 -15.1742,-17.642 -18.4327,-4.6081 z" />
    <path
       style="fill:#ff0000;stroke-width:0.264583"
       id="path12"
       d="m 2269.9472,-1478.4473 c -34.6927,-1.1354 -66.1853,14.4099 -95.8785,30.4983 -53.675,32.3443 -100.3725,74.256 -147.9581,114.6273 -37.2529,32.1558 -74.8913,63.8221 -112.1334,95.9765 -19.7512,16.1149 -31.7496,37.2974 -42.0309,60.0465 -6.9938,15.6744 -11.4762,32.1034 -13.7592,49.0687 -2.6492,16.4513 0.5504,22.9818 19.0172,25.3703 35.9788,1.332 72.0512,1.2481 108.0063,-0.5736 63.564,-4.6765 127.2584,-6.6912 190.9658,-8.0142 69.1406,-1.9454 138.2187,-1.4942 207.1383,4.5686 39.6738,5.286 80.1248,6.2154 119.0955,15.7931 6.306,1.2272 12.2119,3.8953 18.3557,5.6464 0.995,0.2836 -2.3632,-0.2053 -2.908,-1.0848 -3.9586,-6.3918 0.302,-9.6512 -4.4986,-4.216 -41.673,42.6075 -86.366,82.3123 -131.0005,121.79578 -90.6759,83.142 -183.3817,163.91474 -277.2395,243.43619 -72.9488,61.75454 -148.8008,119.972 -222.5007,180.80026 -24.5145,18.19497 -46.2581,39.70428 -69.8822,58.94419 -7.6329,6.27042 -3.9655,3.24996 -11.0036,9.05936 -10.3613,8.55245 1.7337,23.20547 12.0949,14.65303 v 0 c 6.9856,-5.76612 3.3482,-2.77017 10.914,-8.98586 23.6373,-19.28747 45.447,-40.77288 69.9722,-59.01796 73.7542,-60.88978 149.6887,-119.13542 222.6876,-180.95658 93.9603,-79.60963 186.7706,-160.46892 277.5464,-243.70189 45.5443,-40.29249 91.2796,-80.73412 133.5142,-124.49812 16.0627,-22.5183 -4.9441,-25.7636 -21.533,-30.3288 -39.9348,-9.7449 -81.2914,-11.0049 -121.9543,-16.2656 -69.605,-6.0876 -139.3657,-6.6268 -209.1931,-4.6372 -63.8991,1.328 -127.7857,3.3461 -191.5413,8.0349 -34.9241,1.8025 -69.9479,1.7845 -104.901,0.6691 -1.5996,-0.1384 -3.4692,-1.3152 -4.7989,-0.4153 -0.4358,0.295 1.641,16.0142 2.48,-3.5643 1.9969,-15.1374 6.014,-29.7676 12.2398,-43.7549 9.1442,-20.2336 19.4234,-39.204 37.1349,-53.4911 37.1944,-32.1247 74.8012,-63.7429 112.0073,-95.8685 46.5971,-39.534 92.2883,-80.6095 144.7526,-112.4291 26.8214,-14.6845 55.3586,-29.1937 86.7921,-28.1847 13.435,0 13.435,-19 0,-19 z" />
    <path
       style="fill:#ff0000;stroke-width:0.264583"
       id="path13"
       d="m -4044.5943,243.66786 c -2.3316,67.15463 3.4057,133.84225 11.3709,200.44523 13.0115,89.20152 40.0389,175.53551 78.7078,256.80951 18.6004,32.97139 37.0205,67.00943 62.1784,95.57138 8.8175,9.88952 15.1826,21.62657 27.1999,27.83152 20.6246,16.65418 44.6818,28.10796 67.9048,40.61947 34.0884,19.02524 68.7089,37.0268 103.2404,55.25207 26.3316,13.28478 51.2681,29.36033 77.7195,42.37394 9.9153,3.71594 22.1017,19.00402 33.8098,17.35392 3.578,-0.50427 6.6921,-2.72778 10.0383,-4.09165 16.311,-36.82095 31.7595,-73.72284 50.8945,-109.36415 23.6556,-45.70547 55.8135,-86.51771 89.2108,-125.45652 16.1465,-17.41056 29.5683,-37.97927 47.9997,-53.13101 -1.9008,-3.78481 2.971,0.33925 2.2212,0.35931 -1.8828,0.0504 -4.7607,-2.09243 -5.6349,-0.42397 -0.8636,1.64846 8.1503,20.52709 10.336,25.87342 14.4793,33.79756 30.9004,66.5467 47.9544,99.08802 14.5375,25.80481 27.6823,52.41041 44.1563,77.07169 20.6616,30.48143 27.699,24.71309 45.3065,-6.71957 77.4694,-139.37453 171.4484,-268.69934 263.748,-398.43445 90.342,-122.21585 183.6931,-242.30118 281.8551,-358.34902 28.0852,-33.896404 14.6544,-18.36795 40.0444,-46.799173 8.9464,-10.023011 -5.2282,-22.675222 -14.1748,-12.652213 v 0 c -25.799,28.917249 -12.2666,13.253331 -40.3765,47.181626 -98.4916,116.46318 -192.1917,236.94755 -282.83,359.60444 -92.7291,130.34076 -187.1213,260.28391 -264.93,400.32109 -2.8471,5.34355 -6.1909,10.45067 -8.541,16.03068 -1.0276,2.44002 4.6802,2.53365 7.1925,3.36979 2.7278,0.90797 -15.2734,-14.15913 -11.5097,-14.1291 -16.165,-24.04665 -28.8216,-50.16039 -43.1122,-75.31618 -16.7815,-32.01432 -32.951,-64.22348 -47.2028,-97.47377 -6.7463,-16.41277 -12.9828,-46.47557 -36.6366,-33.22315 -19.1505,16.01724 -33.6166,36.95711 -50.2951,55.39089 -34.2411,40.02024 -67.2537,81.88905 -91.5226,128.83237 -17.7046,33.00069 -35.8902,66.97081 -45.6959,103.25701 13.685,1.22399 -21.3934,-9.62962 -23.9554,-15.2372 -26.3303,-12.80014 -50.9947,-29.02595 -77.2028,-42.11129 -34.4884,-18.19299 -69.0586,-36.17002 -103.0967,-55.17541 -23.5019,-12.65746 -47.5739,-24.43599 -68.6366,-40.99357 -9.6361,-3.91435 -13.2152,-17.06581 -21.2945,-23.37152 -24.3033,-26.87378 -41.1049,-60.03427 -59.2095,-91.10175 -37.8669,-79.37008 -64.1839,-163.77094 -76.9953,-250.89606 -7.8928,-65.85347 -13.562,-131.7856 -11.2364,-198.18665 0,-13.43503 -18.9999,-13.43503 -18.9999,0 z" />
    <path
       style="fill:#ff0000;stroke-width:0.264583"
       id="path14"
       d="m -2594.0702,47.446461 c 3.5891,79.526499 -8.9214,157.742749 -26.558,234.967749 -14.2236,73.47804 -42.8594,142.24666 -70.4862,211.30323 -10.9979,25.39751 -19.065,51.52657 -21.4759,79.09481 -0.8821,15.16208 -0.7578,30.35535 -0.5689,45.53391 0.1675,13.43401 19.1662,13.1971 18.9984,-0.2369 v 0 c -0.1817,-14.55878 -0.3069,-29.13092 0.5012,-43.67546 2.15,-25.70803 9.9911,-49.9817 20.1861,-73.65952 27.9906,-69.9779 56.9258,-139.69405 71.3702,-214.13737 17.8877,-78.61805 30.6534,-158.24151 27.0331,-239.190449 0,-13.435031 -19,-13.435031 -19,0 z" />
    <path
       style="fill:#ff0000;stroke-width:0.264583"
       id="path15"
       d="m -2383.0849,50.601144 c -9.9384,111.934346 -40.0382,220.777506 -71.7674,328.143806 -36.7453,119.84247 -83.9825,236.205 -135.1026,350.55762 -10.6767,25.14544 -22.3796,49.84231 -34.8573,74.14014 -2.6624,5.18435 -11.8049,20.52976 -10.1381,23.71952 3.0321,5.80255 9.9058,8.56314 14.8588,12.84473 7.1506,-2.06743 14.5089,-3.51859 21.4518,-6.20223 33.647,-13.00554 64.336,-34.12664 95.0996,-52.4923 26.4342,-15.7811 53.0179,-31.31069 79.5067,-47.00019 70.779,-45.32894 145.8199,-83.2295 218.4917,-125.27404 29.7272,-17.82754 15.5194,-9.57114 42.556,-24.88488 11.6892,-6.62289 2.3231,-23.1539 -9.3662,-16.53101 v 0 c -27.3554,15.50382 -13.101,7.21307 -42.7058,24.97066 -72.7212,42.08706 -147.8302,79.99989 -218.6585,125.37168 -60.3664,35.75558 -119.4045,74.88446 -183.7012,103.23142 0.2762,3.61674 -0.6729,7.54835 0.8286,10.85024 0.8544,1.87867 0.5337,-4.14872 1.3586,-6.04049 2.1115,-4.84222 4.9766,-9.32019 7.3889,-14.01982 12.6062,-24.55953 24.4348,-49.51955 35.2325,-74.93021 51.4511,-115.12796 99.0069,-232.27085 135.9779,-352.92747 32.2223,-109.09469 62.827,-219.75141 72.546,-333.527176 0,-13.435028 -19,-13.435028 -19,0 z" />
    <path
       style="fill:#ff0000;stroke-width:0.264583"
       id="path16"
       d="m -2040.2337,49.023804 c 0,70.760826 0,141.521656 0,212.282496 -0.7127,107.03367 -16.6409,213.1409 -35.6925,318.22411 -8.3309,58.77417 -33.3545,114.62113 -39.3248,173.69907 1.4994,4.21648 1.0859,9.7542 4.4983,12.64946 4.8577,4.12152 11.628,6.63139 17.9955,6.43549 28.6608,-0.8817 95.4535,-50.43107 118.8543,-65.74827 72.1078,-50.02514 142.2776,-102.73416 214.1408,-153.10694 24.2312,-16.67052 48.3808,-33.45789 71.2147,-52.01732 2.9073,-1.83044 6.1049,-2.94944 9.3627,-3.94071 12.7961,-4.09403 7.0063,-22.19036 -5.7898,-18.09633 v 0 c -5.4935,1.81081 -10.8201,3.85093 -15.5594,7.29514 -22.4771,18.28276 -46.2847,34.77276 -70.1339,51.20079 -71.6988,50.25763 -141.718,102.83161 -213.642,152.76894 -20.8071,13.62403 -45.9123,30.50762 -67.6555,43.14991 -12.5475,7.29557 -26.6306,11.81574 -38.8869,19.59055 -1.444,0.91604 -1.0851,3.85791 -2.7236,4.34758 -1.2355,0.36922 -1.8417,-1.80536 -2.7626,-2.70804 5.2992,-58.54287 31.6546,-113.82092 39.1077,-172.13135 19.2375,-106.20383 35.3069,-213.43906 35.997,-321.61208 0,-70.76084 0,-141.52167 0,-212.282496 0,-13.435031 -19,-13.435031 -19,0 z" />
    <path
       style="fill:#ff0000;stroke-width:0.264583"
       id="path17"
       d="m -945.74737,19.495952 c 1.49783,77.522173 -1.67114,154.903208 -7.52187,232.187228 -8.70974,95.60493 -29.68238,189.41226 -45.10418,284.03247 -5.90258,40.45884 -3.25178,21.34682 -8.03828,57.32405 -1.7714,13.31772 17.06269,15.8229 18.8341,2.50518 v 0 c 4.73887,-35.63544 2.11492,-16.70709 7.95679,-56.77321 15.50546,-95.15821 36.61005,-189.49794 45.29749,-285.65583 5.87361,-77.76104 9.08169,-155.619743 7.57594,-233.619888 0,-13.4350284 -18.99999,-13.4350284 -18.99999,0 z" />
    <path
       style="fill:#ff0000;stroke-width:0.264583"
       id="path18"
       d="m -1051.24,-20.063796 c 11.122,91.588573 52.89997,174.710586 93.68753,256.071866 49.76884,91.94016 105.25149,180.99071 164.82626,266.90645 8.15702,9.76762 33.8482,59.85713 54.30208,34.65039 4.49775,-5.54295 23.61284,-66.56372 24.1618,-68.24057 44.02069,-143.29989 101.17008,-281.91888 163.65439,-418.013679 45.9146,-95.503578 94.98621,-189.470201 148.79259,-280.765761 7.71671,-13.92013 16.75855,-26.98771 26.0894,-39.84662 7.88397,-10.87856 -7.50062,-22.02818 -15.38459,-11.1496 v 0 c -9.66698,13.35453 -19.05061,26.91513 -27.07373,41.34956 -54.12973,91.85592 -103.51027,186.391644 -149.69104,282.48543 -62.77422,136.75635 -120.20457,276.04135 -164.44436,420.03033 -4.43187,13.54262 -9.00496,27.03983 -13.2956,40.62788 -2.04732,6.48359 -5.69084,12.78104 -5.71611,19.58017 -0.008,2.2484 5.43263,1.47603 5.62948,3.71584 1.14316,13.0066 -37.38604,-47.82212 -31.41252,-35.25256 -59.09167,-85.15842 -114.05629,-173.47668 -163.45368,-264.59378 -39.506,-78.76749 -80.0187,-159.03812 -91.6719,-247.555346 0,-13.435028 -19,-13.435028 -19,0 z" />
    <path
       style="fill:#ff0000;stroke-width:0.264583"
       id="path19"
       d="m -141.36583,-125.55646 c -3.68028,76.472606 -32.01627,150.803236 -55.36334,223.165709 -28.87718,82.688861 -64.89885,162.585561 -100.51314,242.515771 -6.40836,20.78389 -36.9263,62.93591 -9.70224,81.4034 5.2546,3.56447 12.00798,4.13187 18.01199,6.19781 82.84728,10.10208 166.49949,3.4856 248.96924,-6.6249 78.315452,-8.83317 155.38987,-25.12163 232.25756,-42.05187 13.12055,-2.88983 9.03369,-21.44511 -4.08686,-18.55525 v 0 c -76.28254,16.80162 -152.765422,32.9897 -230.486426,41.74876 -79.999694,9.83985 -160.949614,16.10241 -241.393234,7.22595 -3.50536,-0.67389 -6.97796,-1.54911 -10.51607,-2.02168 -1.31855,-0.1761 -3.21622,1.16629 -3.98989,0.0841 -7.07837,-9.90047 16.28907,-50.27739 18.29117,-59.67357 35.88937,-80.54993 72.17964,-161.07119 101.24041,-244.41565 23.94546,-74.248604 52.87111,-150.482748 56.28083,-228.99862 0,-13.43503 -19,-13.43503 -19,0 z" />
    <path
       style="fill:#ff0000;stroke-width:0.264583"
       id="path20"
       d="m -191.48937,-175.11216 c 15.9032,0 25.34912,0.28861 42.61287,-1.59346 89.726208,-9.78185 179.255222,-24.56656 268.60893,-37.21752 126.60203,-18.16181 254.0129,-29.90545 381.65732,-37.4402 10.63374,-0.52512 21.2675,-1.05024 31.90123,-1.57536 13.41867,-0.66283 12.48127,-19.63968 -0.93739,-18.97687 v 0 c -10.69459,0.52843 -21.38918,1.05685 -32.08374,1.58525 -128.16054,7.56938 -256.08677,19.35897 -383.20095,37.5948 -88.84637,12.57928 -177.850184,27.21417 -267.05182,37.06214 -16.80945,1.85579 -25.95005,1.56122 -41.50645,1.56122 -13.43503,0 -13.43503,19 0,19 z" />
    <path
       style="fill:#ff0000;stroke-width:0.264583"
       id="path21"
       d="m -341.12329,36.963 c 40.01484,8.512919 81.40865,9.072523 122.17319,10.606466 31.03804,1.057132 62.09322,1.373719 93.14648,1.545026 13.43483,0.07407 13.53957,-18.925645 0.10474,-18.99971 v 0 c -30.85016,-0.169958 -61.70224,-0.483116 -92.53734,-1.5319 -38.99269,-1.464937 -78.50242,-2.103269 -116.87873,-9.644866 -12.74559,-4.248529 -18.75393,13.776453 -6.00834,18.024984 z" />
    <path
       style="fill:#ff0000;stroke-width:0.264583"
       id="path22"
       d="m 517.9633,-257.42228 c 0,89.13193 0,178.263864 0,267.395796 0,121.252634 0,242.505264 0,363.757894 -0.66908,54.17521 -1.33747,108.10619 6.06068,161.85338 4.86661,16.94143 8.26431,37.82997 22.66386,49.50563 15.33039,0.8064 14.89041,-9.37625 19.64635,-19.51196 16.872,-67.16017 37.5449,-133.26602 58.18939,-199.36206 55.42105,-173.07834 119.30541,-343.194828 184.07753,-512.93234 24.95282,-64.7097 49.3088,-129.58658 79.88519,-191.89082 5.91709,-12.06185 -11.14094,-20.42986 -17.05803,-8.36803 v 0 c -30.81189,62.83396 -55.44915,128.2209 -80.57862,193.48491 -64.91102,170.103533 -128.92751,340.58881 -184.46212,514.042 -20.38189,65.26332 -41.23632,130.47043 -57.25927,196.96681 -8.8767,18.9869 -7.09356,9.62226 6.20588,10.65282 0.73136,0.92442 1.71095,3.84839 2.19411,2.77323 0.23743,-0.52835 -16.9064,-34.62229 -14.68247,-37.95628 -7.30967,-52.88307 -6.47968,-105.95197 -5.88248,-159.25729 0,-121.25263 0,-242.50526 0,-363.757894 0,-89.131932 0,-178.263866 0,-267.395796 0,-13.43504 -19,-13.43504 -19,0 z" />
    <path
       style="fill:#ff0000;stroke-width:0.264583"
       id="path23"
       d="M 1071.7998,-265.87685 C 1057.1407,-161.8501 1021.5779,-61.892155 987.15792,36.924019 941.55023,156.83381 898.96859,277.82385 867.83245,402.34512 c -7.3478,30.99115 -13.20361,62.31464 -17.20519,93.91171 -0.62286,4.91808 -3.90711,28.37701 -1.74755,34.86449 1.65931,4.98465 6.02099,8.61092 9.0315,12.9164 7.66784,1.14674 15.26987,3.98939 23.00351,3.4402 18.22646,-1.29435 65.05789,-16.70725 79.31711,-21.20966 56.80487,-17.93643 113.19587,-37.2246 169.80207,-55.77473 93.2403,-32.66289 188.9134,-57.61812 282.8663,-88.03288 8.8391,-3.04749 17.6783,-6.09499 26.5175,-9.14249 12.701,-4.37986 6.507,-22.34186 -6.1941,-17.96203 v 0 c -8.7256,3.00953 -17.4511,6.01908 -26.1767,9.02861 -93.9686,30.4378 -189.6753,55.36243 -282.9298,88.05357 -83.7086,27.43198 -166.74328,58.07962 -252.52445,78.41541 -1.24065,-0.1061 -3.33959,0.86675 -3.72197,-0.31826 -2.05679,-6.37419 1.04788,-27.48048 1.57353,-31.64761 3.90194,-30.93305 9.63457,-61.59624 16.8212,-91.93554 30.97353,-123.97351 73.46038,-244.39486 118.83549,-363.779293 35.0943,-100.782886 71.5215,-202.820107 85.6989,-309.049867 0,-13.43501 -19,-13.43501 -19,0 z" />
    <path
       style="fill:#ff0000;stroke-width:0.264583"
       id="path24"
       d="m 904.57434,154.55241 c 48.45156,0 96.90316,0 145.35466,0 34.3146,0 68.6292,0 102.9438,0 13.4351,0 13.4351,-19 0,-19 v 0 c -34.3146,0 -68.6292,0 -102.9438,0 -48.4515,0 -96.9031,0 -145.35466,0 -13.43504,0 -13.43504,19 0,19 z" />
    <path
       style="fill:#ff0000;stroke-width:0.264583"
       id="path25"
       d="m 1008.4897,-254.23165 c 38.9492,0 77.8985,0 116.8477,0 67.1849,0 134.3699,0 201.5548,0 13.435,0 13.435,-19.00001 0,-19.00001 v 0 c -67.1849,0 -134.3699,0 -201.5548,0 -38.9492,0 -77.8985,0 -116.8477,0 -13.43508,0 -13.43508,19.00001 0,19.00001 z" />
    <path
       style="fill:#ff0000;stroke-width:0.264583"
       id="path26"
       d="m 1757.5021,-257.42228 c 0,73.99226 0,147.98452 0,221.976774 0,134.46016 0,268.920326 0,403.380486 0,66.08286 0,132.16575 0,198.24861 0,13.43504 19,13.43504 19,0 v 0 c 0,-66.08286 0,-132.16575 0,-198.24861 0,-134.46016 0,-268.920326 0,-403.380486 0,-73.992254 0,-147.984514 0,-221.976774 0,-13.43504 -19,-13.43504 -19,0 z" />
    <path
       style="fill:#ff0000;stroke-width:0.264583"
       id="path27"
       d="m 1618.2272,-241.04507 c 82.6514,0 165.3028,0 247.9542,0 98.3399,0 196.6799,0 295.0198,0 31.6073,1.8796 64.577,-4.81652 95.1792,5.49654 10.9264,2.16555 12.0686,10.30714 17.261,18.56931 10.5058,11.52624 -0.2263,11.23422 -13.5601,20.25896 -72.3052,41.95147 -149.3814,74.63401 -225.4976,108.855914 -123.8381,53.865899 -246.1961,111.01073 -367.3833,170.579792 -68.4082,32.228364 -135.7689,66.583344 -203.7685,99.638814 -18.6652,12.65043 -42.1073,19.83861 -56.6755,37.67771 -11.2612,16.82211 6.7877,28.6832 19.3878,36.64006 36.1973,20.03231 77.2426,27.5709 117.2949,35.80418 95.6249,16.6924 187.0029,49.46467 277.9175,82.49959 141.5721,55.2363 279.7028,118.76744 417.1895,183.36871 35.7359,17.50089 72.5883,33.22074 106.708,53.87446 11.4866,6.95317 26.4952,21.22567 18.6051,14.79373 0.9223,-3.22337 1.8446,-6.44673 2.7669,-9.6701 -13.0696,3.11206 -8.6685,21.59529 4.4011,18.48324 v 0 c 3.8667,-3.92446 7.7333,-7.84892 11.6,-11.77338 -12.8859,-35.94936 -106.0717,-64.49031 -136.0011,-82.90428 -138.0072,-64.84463 -276.6629,-128.61213 -418.7814,-184.03027 -91.7846,-33.34314 -184.0495,-66.3784 -280.5802,-83.2526 -37.8683,-7.78301 -76.7525,-14.69526 -111.1177,-33.34711 -4.4047,-2.65585 -13.8055,-13.67257 -15.7266,-6.39306 -0.2275,0.86208 0.8494,-1.56789 1.2741,-2.35183 11.6968,-15.98036 35.1101,-20.16347 50.0445,-32.33117 68.0238,-33.06918 135.4105,-67.43418 203.8434,-99.675423 120.9903,-59.476433 243.1546,-116.522004 366.7927,-170.301968 77.1811,-34.700669 155.3705,-67.814939 228.5589,-110.589409 15.7299,-11.18873 37.3218,-27.15378 18.4929,-46.42929 -8.1865,-10.6375 -11.286,-23.54789 -27.1134,-26.04453 -32.7266,-10.54923 -67.2936,-5.35484 -101.1121,-6.44659 -98.3399,0 -196.6799,0 -295.0198,0 -82.6514,0 -165.3028,0 -247.9542,0 -13.4351,0 -13.4351,19 0,19 z" />
    <path
       style="fill:#ff0000;stroke-width:0.264583"
       id="path28"
       d="m -3854.3076,1222.012 c 1.5814,122.4919 -23.917,242.7467 -48.282,362.0906 -37.4078,173.9302 -90.0049,344.0179 -135.736,515.827 -12.3068,43.5091 -24.5824,87.027 -36.8541,130.546 -3.6462,12.9308 14.6405,18.0874 18.287,5.1567 v 0 c 12.297,-43.6088 24.5988,-87.2161 36.9279,-130.8158 45.8224,-172.1696 98.5398,-342.6111 135.9913,-516.9139 24.6137,-120.5965 50.2709,-242.1183 48.6659,-365.8906 0,-13.435 -19,-13.435 -19,0 z" />
    <path
       style="fill:#ff0000;stroke-width:0.264583"
       id="path29"
       d="m -3867.8654,1205.246 c 38.3932,64.2086 78.6498,127.3623 116.913,191.7135 36.6456,64.9069 74.6342,129.3646 106.4935,196.8191 24.8552,63.7262 56.9741,18.7442 93.2842,-11.0356 121.9313,-107.1881 251.2192,-205.0661 380.9489,-302.4694 83.4149,-65.1136 168.2821,-128.3454 257.0604,-185.9804 3.4875,-1.3701 6.9416,-2.8278 10.4622,-4.1102 13.1392,-4.7862 -11.8777,4.0099 -13.6898,6.7502 -8.9088,13.4724 -14.8299,28.7072 -22.8087,42.7503 -21.8432,38.4451 -59.7739,99.7775 -81.9184,136.0315 -115.5907,185.4247 -237.1498,367.0403 -357.9077,549.1153 -75.854,112.6575 -148.8716,227.1598 -217.7172,344.2291 -15.2837,27.8444 -28.3893,56.7688 -44.1235,84.3722 -6.6511,11.6731 9.8571,21.0794 16.5084,9.4063 v 0 c 15.6827,-27.5329 28.8327,-56.3364 43.9931,-84.1473 68.6699,-116.7757 141.5108,-230.9849 217.1734,-343.3587 120.8881,-182.2719 242.5779,-364.0844 358.2879,-549.7129 21.2828,-34.8447 61.4101,-99.7596 82.4831,-137.0211 4.5267,-8.0042 33.9206,-50.9052 26.6094,-70.8535 -4.68,-12.7692 -23.3114,-1.2431 -27.6987,0.613 -89.1352,57.8773 -174.3718,121.3354 -258.1217,186.7221 -129.9482,97.5673 -259.4525,195.6137 -381.5942,302.976 -9.9026,8.1313 -19.7086,16.3821 -29.708,24.394 -24.1908,19.3826 -19.5122,27.8762 -34.3442,-6.7879 -32.1379,-67.9894 -70.3707,-132.9963 -107.3412,-198.4128 -37.578,-63.195 -76.563,-125.5016 -115.2192,-188.0111 -4.2484,-12.7456 -22.2734,-6.7373 -18.025,6.0083 z" />
    <path
       style="fill:#ff0000;stroke-width:0.264583"
       id="path30"
       d="m -2817.3262,1220.1037 c -22.0064,102.7411 -71.9174,199.2732 -116.7283,293.7591 -64.8494,133.4933 -139.9395,261.5793 -209.786,392.4177 -21.1302,41.7618 -42.9236,83.1806 -64.7729,124.5686 -6.272,11.8811 10.5304,20.7512 16.8026,8.8701 v 0 c 21.8353,-41.3624 43.6171,-82.7546 64.7319,-124.4915 69.9783,-131.1087 145.2399,-259.4451 210.1919,-393.2239 42.7252,-90.1079 93.3606,-186.8639 116.5876,-284.5311 1.3483,-5.6688 1.3155,-11.5793 1.9732,-17.369 0,-13.435 -19,-13.435 -19,0 z" />
    <path
       style="fill:#ff0000;stroke-width:0.264583"
       id="path31"
       d="m -2817.3262,1204.1502 c -2.478,81.2868 11.2596,161.5398 27.2905,240.8638 31.5701,138.5161 75.3478,273.9571 121.2559,408.2912 25.4586,68.6031 40.2831,141.1995 68.1532,208.8992 5.1372,12.4141 22.6933,5.149 17.5562,-7.2651 v 0 c -27.9691,-67.2073 -42.1053,-139.683 -67.7305,-207.7787 -45.648,-133.5559 -89.1815,-268.2113 -120.6124,-405.916 -15.8279,-78.0747 -29.3658,-157.0784 -26.9129,-237.0944 0,-13.4351 -19,-13.4351 -19,0 z" />
    <path
       style="fill:#ff0000;stroke-width:0.264583"
       id="path32"
       d="m -3181.17,1732.4843 c 94.3906,0 188.781,0 283.1716,0 118.8326,0 237.6651,0 356.4975,0 13.435,0 13.435,-19 0,-19 v 0 c -118.8324,0 -237.6649,0 -356.4975,0 -94.3906,0 -188.781,0 -283.1716,0 -13.4351,0 -13.4351,19 0,19 z" />
    <path
       style="fill:#ff0000;stroke-width:0.264583"
       id="path33"
       d="m -2258.9517,1188.1966 c -3.9485,98.3206 -19.6765,195.4361 -36.212,292.2626 -27.1372,129.217 -59.2344,257.3443 -84.7875,386.9009 -10.2005,60.8658 -5.7102,31.496 -13.6515,88.0818 -1.8661,13.3048 16.9498,15.9438 18.8159,2.639 v 0 c 7.8364,-55.9061 3.404,-26.8819 13.4766,-87.0449 25.5745,-129.7175 57.7638,-257.9908 84.8754,-387.3788 16.7104,-97.8818 32.5821,-196.0638 36.4831,-295.4606 0,-13.435 -19,-13.435 -19,0 z" />
    <path
       style="fill:#ff0000;stroke-width:0.264583"
       id="path34"
       d="m -2527.0742,1620.8094 c 113.2521,-0.8503 224.4201,-29.9572 333.4832,-57.6503 196.7413,-52.8233 390.5997,-115.3014 584.8283,-176.5081 90.611,-22.9264 178.5682,-58.9 270.6181,-76.1694 3.4598,-0.272 6.9195,-0.544 10.3792,-0.8161 13.3884,-1.1185 11.8066,-20.0525 -1.5818,-18.934 v 0 c -4.1097,0.3604 -8.2194,0.7208 -12.3291,1.0812 -92.7513,17.6821 -181.5115,53.3005 -272.797,76.7167 -193.8872,61.0994 -387.4033,123.4723 -583.7954,176.2146 -107.5285,27.3245 -217.1451,56.1429 -328.8055,57.0654 -13.435,0 -13.435,19 0,19 z" />
    <path
       style="fill:#ff0000;stroke-width:0.264583"
       id="path35"
       d="m -2456.3927,1415.6343 c 61.8679,36.4599 119.6659,79.1556 178.125,120.7212 118.8421,90.5612 235.7876,183.5899 354.9608,273.7634 91.3299,75.1263 191.0917,139.0141 284.8594,210.791 43.3976,32.5897 80.1546,73.4764 124.2296,105.0804 10.9356,7.8046 21.9731,-7.6606 11.0375,-15.4653 v 0 c -44.0334,-31.2637 -80.2699,-72.5561 -123.7214,-104.7048 -93.827,-71.7591 -193.5554,-135.7407 -284.9408,-210.8528 -119.3236,-90.2859 -236.4044,-183.4466 -355.4151,-274.0967 -58.6133,-41.6751 -116.5635,-84.491 -178.5957,-121.0454 -11.1786,-7.4524 -21.7179,8.3565 -10.5393,15.809 z" />
    <path
       style="fill:#ff0000;stroke-width:0.264583"
       id="path36"
       d="m -1223.3912,1247.0983 c -27.3004,79.1171 -63.9051,154.6023 -99.1494,230.382 -65.4024,138.2619 -130.028,276.8715 -189.7753,417.682 -20.7124,50.5763 -38.9906,102.1048 -54.2919,154.57 -7.4887,25.677 -15.2634,50.0763 -15.7112,76.8023 3.1387,4.5951 4.0409,12.3452 9.4161,13.7853 21.2273,5.6873 52.2784,-10.5837 69.0844,-18.14 49.9517,-22.4592 97.4226,-49.7367 145.4686,-75.9107 78.0114,-46.4748 159.1278,-87.4792 236.244,-135.4595 38.3085,-25.2865 79.426,-46.0231 118.1812,-70.4953 13.49502,-7.9793 26.55422,-16.7782 41.00629,-22.9291 12.32504,-5.3472 4.76287,-22.7775 -7.56216,-17.4302 v 0 c -15.27913,6.73 -29.37076,15.6107 -43.60933,24.3072 -38.6414,24.5459 -79.8515,45.0654 -118.0555,70.4164 -76.7912,47.8077 -157.6187,88.5834 -235.2939,134.9057 -7.183,3.9131 -90.3135,49.2743 -98.6417,53.524 -95.92,48.9452 -0.237,-1.3444 -79.3057,36.0204 -4.8023,2.2694 -8.7763,6.132 -13.6826,8.1668 -1.3277,0.5507 -2.8331,-0.4864 -4.2497,-0.7296 -0.4495,-24.2743 8.1399,-48.1407 14.8812,-71.2793 15.1014,-51.8335 33.1583,-102.7372 53.6126,-152.7032 59.6588,-140.6138 124.2068,-279.0219 189.5124,-417.0907 35.5477,-76.4323 72.4398,-152.577 99.9465,-232.3861 4.2486,-12.7456 -13.7764,-18.7539 -18.0249,-6.0084 z" />
    <path
       style="fill:#ff0000;stroke-width:0.264583"
       id="path37"
       d="m -1456.3227,1586.8095 c 63.2346,-7.0161 126.31,-15.6442 189.6638,-21.7191 43.7999,-3.467 22.736,-1.918 63.1881,-4.6993 13.4034,-0.9217 12.0998,-19.8769 -1.3035,-18.9552 v 0 c -40.7537,2.8034 -19.5193,1.2409 -63.6993,4.7414 -63.9928,6.1442 -127.7164,14.7983 -191.5753,22.0011 -13.1741,2.6349 -9.4479,21.2659 3.7262,18.6311 z" />
    <path
       style="fill:#ff0000;stroke-width:0.264583"
       id="path38"
       d="m -1268.6514,1221.9704 c 56.6708,0 113.3415,0 170.0123,0 83.2558,0 166.51155,0 249.76733,0 16.0002,0 32.00037,0 48.00055,0 13.43503,0 13.43503,-19 0,-19 v 0 c -16.00018,0 -32.00035,0 -48.00055,0 -83.25578,0 -166.51153,0 -249.76733,0 -56.6708,0 -113.3415,0 -170.0123,0 -13.435,0 -13.435,19 0,19 z" />
    <path
       style="fill:#ff0000;stroke-width:0.264583"
       id="path39"
       d="m 165.94754,1059.3884 c -126.052147,18.3716 -244.71827,77.0185 -359.38532,130.0401 -141.36803,65.6908 -277.14992,141.8488 -410.24338,222.718 -12.93251,9.8944 -102.16994,50.0407 -86.80497,77.5728 3.01993,5.4114 9.7962,7.5925 14.69429,11.3888 60.05799,18.3317 123.88697,19.3674 186.16906,21.8217 85.57366,2.4265 171.19304,2.3404 256.79348,2.3802 51.65314,-0.3267 104.055,-3.0305 153.647344,13.4988 30.71211,18.0534 16.644667,34.2015 -1.767335,55.7526 -75.905329,73.1895 -170.369399,122.822 -261.867759,173.4729 -106.03513,58.1865 -213.18389,114.3597 -320.4038,170.3359 -40.65841,20.302 -81.23872,40.6718 -122.56603,59.5816 -12.2166,5.5905 -4.3103,22.8674 7.90631,17.2768 v 0 c 41.62462,-19.0508 82.50433,-39.5578 123.45286,-60.0156 107.35717,-56.0481 214.64272,-112.2941 320.81327,-170.5561 93.55252,-51.7966 190.16834,-102.6233 267.315247,-177.997 28.630112,-35.6357 37.908719,-60.3274 -6.924357,-85.8927 -51.62608,-16.9098 -105.82234,-15.1813 -159.59692,-14.4572 -85.35432,-0.04 -170.72745,0.047 -256.05523,-2.3655 -59.58525,-2.3414 -120.38467,-3.5365 -178.16758,-19.7025 -7.56695,1.8585 -8.34597,2.0937 -8.22087,1.686 7.64778,-24.922 65.37645,-41.0287 81.44915,-57.544 132.4828,-80.4982 267.63191,-156.322 408.35291,-221.7105 112.244731,-51.9237 228.25987,-109.1543 351.40963,-128.2851 13.43503,0 13.43503,-19 0,-19 z" />
    <path
       style="fill:#ff0000;stroke-width:0.264583"
       id="path40"
       d="m 212.12598,1108.474 c -45.95395,88.6152 -98.12692,173.8545 -147.726858,260.4553 -39.737411,74.1268 -85.753816,145.117 -118.65662,222.6933 -29.396692,70.2972 5.313569,72.6179 69.427425,71.6526 131.773563,-15.5979 251.114643,-76.1388 368.911383,-133.2427 120.69688,-61.6919 237.83369,-130.1195 358.72512,-191.4019 48.09286,-23.3794 95.4043,-49.9522 146.69711,-65.858 2.79056,-0.7249 5.58115,-1.4498 8.37174,-2.1747 12.99945,-3.3933 8.2006,-21.7773 -4.79883,-18.384 v 0 c -3.07253,0.8055 -6.14503,1.611 -9.21753,2.4166 -52.28365,16.3175 -100.64765,43.0596 -149.64468,67.0539 -120.78086,61.2517 -237.85009,129.5627 -358.42151,191.2513 -115.34831,55.9257 -232.12499,115.4045 -361.041949,131.3441 -45.173342,1.3551 -20.5935876,3.0305 -53.24225,-2.4538 -2.314144,-0.3888 -5.368311,0.8339 -6.986259,-0.8657 -8.50746,-8.9368 7.92539,-34.9742 8.716245,-41.929 32.5145134,-76.913 78.399668,-147.1407 117.64792,-220.6591 50.589143,-88.3293 104.500303,-175.0193 149.870573,-266.172 2.63483,-13.1741 -15.9962,-16.9003 -18.63103,-3.7262 z" />
    <path
       style="fill:#ff0000;stroke-width:0.264583"
       id="path41"
       d="m 202.89262,998.62062 c 108.77122,-1.74652 217.159,-13.71428 325.66486,-21.19342 13.40324,-0.92395 12.09659,-19.87896 -1.30664,-18.95501 v 0 c -108.0711,7.45037 -216.02549,19.36329 -324.35822,21.14844 -13.43503,0 -13.43503,18.99999 0,18.99999 z" />
    <path
       style="fill:#ff0000;stroke-width:0.264583"
       id="path42"
       d="m 27.40348,1333.6453 c 54.289544,0 108.57909,0 162.86863,0 29.24311,0 58.48623,0 87.72935,0 13.43501,0 13.43501,-18.9999 0,-18.9999 v 0 c -29.24312,0 -58.48624,0 -87.72935,0 -54.28954,0 -108.579086,0 -162.86863,0 -13.435028,0 -13.435028,18.9999 0,18.9999 z" />
    <path
       style="fill:#ff0000;stroke-width:0.264583"
       id="path43"
       d="m 820.08503,948.89321 c 0.27982,79.81689 -16.96614,158.46149 -36.46432,235.41729 -24.57924,97.1802 -60.55815,190.4106 -99.13324,282.6777 -15.57348,39.5397 -8.37099,20.7821 -21.70715,56.2344 -4.72972,12.575 13.05393,19.2638 17.78367,6.6889 v 0 c 13.18374,-35.0561 6.06534,-16.5121 21.45313,-55.5945 38.93688,-93.1327 75.21049,-187.2566 100.02285,-285.3449 19.84242,-78.4909 37.3676,-158.6795 37.04508,-240.07889 0,-13.43501 -19.00002,-13.43501 -19.00002,0 z" />
    <path
       style="fill:#ff0000;stroke-width:0.264583"
       id="path44"
       d="m 758.66664,902.1284 c 32.85947,100.8262 68.87501,200.5672 103.56024,300.7721 46.70266,139.5404 104.06338,275.0855 157.82622,411.9624 21.2279,65.9145 56.0551,127.8457 74.7118,194.5665 5.279,25.0694 -8.6887,22.227 16.9384,19.4458 -2.7011,-37.0681 -1.4988,-74.3346 0.3686,-111.4067 20.8095,-168.9409 78.1253,-331.0001 133.3973,-491.1694 48.1158,-143.0328 108.0477,-281.42443 172.1968,-417.85346 18.9322,-45.52313 43.6248,-87.9806 66.3358,-131.56428 3.7958,-5.61022 8.5124,-10.26099 14.331,-13.67634 11.4343,-7.05395 1.4585,-23.22441 -9.9758,-16.17046 v 0 c -8.6102,5.45918 -15.8037,12.2954 -21.2063,21.06962 -22.8137,43.81881 -47.6322,86.50568 -66.6789,132.25693 -64.4354,137.04482 -124.6246,276.06599 -172.9633,419.74019 -55.849,161.8516 -113.7185,325.6488 -134.413,496.4184 -1.9586,39.4613 -4.1703,79.8092 0.8439,119.0965 6.0817,1.6062 11.9631,4.497 18.2451,4.8185 5.6136,0.2873 2.196,-33.3566 0.8624,-36.1793 -19.2353,-67.2478 -53.4697,-129.9256 -75.3091,-196.3387 C 984.06994,1471.2816 926.80474,1335.9783 880.18166,1196.6855 845.52,1096.5494 809.52842,996.87717 776.69161,896.12006 c -4.24852,-12.74559 -22.27352,-6.73725 -18.02497,6.00834 z" />
    <path
       style="fill:#ff0000;stroke-width:0.264583"
       id="path45"
       d="m 1792.8147,838.23055 c -41.6072,13.93595 -76.8159,40.56017 -109.8856,68.58275 -53.0383,47.92398 -98.4801,103.6167 -145.0618,157.6802 -43.6863,45.44 -82.8856,94.8189 -122.8267,143.4946 -21.5837,26.2336 -41.7109,54.2754 -55.5546,85.4044 -9.3847,24.1648 -11.8651,49.7752 -12.9701,75.4255 2.4422,44.5762 44.8665,50.4009 81.1219,55.5978 74.9898,11.248 145.2535,-12.1844 214.735,-37.1981 61.7947,-24.5238 121.2322,-54.381 181.6256,-82.0564 20.5879,-8.8428 41.519,-16.7427 63.8227,-19.5421 16.4267,1.2817 0.6307,-9.5121 1.4291,2.8024 2.3521,22.5002 -8.1641,42.2847 -17.8457,61.9135 -29.0022,41.1378 -69.1709,72.4158 -106.8308,105.1624 -59.9621,55.2158 -125.4838,103.6746 -189.7295,153.661 -61.6124,46.8369 -120.6458,96.9026 -181.7205,144.4495 -26.0217,18.5018 -51.7277,37.465 -79.1068,53.9175 -11.5089,6.9315 -1.7063,23.2075 9.8026,16.276 v 0 c 27.9951,-16.8964 54.3863,-36.1874 80.9759,-55.2011 61.0734,-47.5462 120.1078,-97.6076 181.7164,-144.4463 64.5168,-50.1997 130.3066,-98.8767 190.5291,-154.3189 39.5381,-34.38 81.8284,-67.2556 111.4184,-111.1254 11.0815,-22.6589 22.504,-45.7495 19.7405,-71.6716 -1.1416,-14.4522 -7.7481,-23.3728 -22.78,-20.2666 -24.2033,3.1231 -47.0116,11.404 -69.337,21.117 -59.9096,27.4558 -118.8754,57.0618 -180.1486,81.4533 -66.5574,23.9855 -133.7505,46.9886 -205.6474,36.2595 -25.3877,-3.5041 -61.8066,-3.9017 -64.7882,-35.9743 0.9814,-23.2871 3.0425,-46.5637 11.3736,-68.5718 12.9259,-29.6342 32.5462,-56.0481 52.858,-81.0166 39.8323,-48.5681 78.9568,-97.8086 122.5316,-143.1436 45.9337,-53.3188 90.7395,-108.2504 142.9607,-155.5948 30.8229,-26.19436 63.5466,-51.18069 102.2004,-64.63702 13.0339,-3.25848 8.4257,-21.69118 -4.6082,-18.43273 z" />
    <path
       style="fill:#ff0000;stroke-width:0.264583"
       id="path46"
       d="m 2223.9982,869.12544 c -21.5212,93.3876 -57.4503,182.55116 -93.9639,270.87796 -48.2004,108.7603 -92.9749,218.9483 -138.4856,328.8464 -6.2255,19.6103 -35.9491,75.8336 2.9084,85.2268 15.7686,3.8119 55.8056,-7.3307 68.1099,-10.0659 122.0436,-36.545 244.3995,-71.5418 368.2175,-101.5626 95.3912,-22.9586 193.7464,-31.9321 288.0301,-59.422 9.2478,-3.6324 18.4955,-7.2649 27.7432,-10.8973 12.4984,-4.9284 5.5285,-22.6039 -6.9699,-17.6754 v 0 c -8.7011,3.4452 -17.4025,6.8905 -26.1036,10.3357 -93.9566,27.5327 -192.137,36.0597 -287.1771,59.1941 -123.7085,29.9981 -245.9809,64.8914 -367.894,101.4871 -12.08,2.7288 -24.1238,5.6232 -36.2401,8.1865 -6.3175,1.3365 -12.682,2.4471 -19.0512,3.5107 -2.1976,0.3669 -5.0772,2.3685 -6.6384,0.779 -12.9859,-13.2208 12.2626,-50.9186 12.6195,-61.8272 45.5123,-109.9023 90.2894,-220.0938 138.4907,-328.8586 37.4155,-90.5503 74.7089,-182.04394 95.4045,-278.13526 0,-13.43504 -19,-13.43504 -19,0 z" />
    <path
       style="fill:#ff0000;stroke-width:0.264583"
       id="path47"
       d="m 2166.8002,818.63538 c 101.853,-43.30071 206.9294,-76.82532 312.9135,-108.26375 131.2212,-34.52894 263.2791,-66.2292 397.7411,-85.05152 12.7821,-1.48953 25.5641,-2.97905 38.3458,-4.46858 13.3448,-1.55599 11.1443,-20.42813 -2.2002,-18.87215 v 0 c -12.9273,1.50816 -25.8543,3.01631 -38.7816,4.52448 -135.3936,18.98142 -268.3848,50.83249 -400.5087,85.65235 -106.542,31.6072 -212.1703,65.32734 -314.5663,108.8381 -12.4741,4.98964 -5.4177,22.63071 7.0564,17.64107 z" />
    <path
       style="fill:#ff0000;stroke-width:0.264583"
       id="path48"
       d="m 2035.6435,1142.2026 c 62.4577,0 124.9153,0 187.373,0 41.2315,0 82.4631,0 123.6946,0 13.435,0 13.435,-19 0,-19 v 0 c -41.2315,0 -82.4631,0 -123.6946,0 -62.4577,0 -124.9153,0 -187.373,0 -13.435,0 -13.435,19 0,19 z" />
  </g>
</svg>
