<svg id="Layer_26" data-name="Layer 26" xmlns="http://www.w3.org/2000/svg" viewBox="0 0 565.47 601.59"><defs><style>.cls-1{fill:#952c1f;}</style></defs><path class="cls-1" d="M143.37,238.36q11.92,23.44,22.21,47.64t18.77,48.91q4.85,14,9.13,28.26c.93,3.08,5.76,1.77,4.83-1.33q-7.68-25.38-17.08-50.2t-20.49-48.86q-6.26-13.59-13.05-26.94c-1.46-2.87-5.77-.34-4.32,2.52Z" transform="translate(-60.63 -88.52)"/><path class="cls-1" d="M64.87,338q19-22.78,37.52-46t36.45-47.12q17.88-23.72,35.14-47.88T208,148q16.65-24.6,32.66-49.61l3.93-6.16c1.73-2.72-2.59-5.23-4.32-2.52q-15.93,25.05-32.5,49.71t-33.62,48.68q-17.12,24.12-34.85,47.81t-36.08,47q-18.33,23.22-37.24,46l-4.67,5.61a2.56,2.56,0,0,0,0,3.54,2.51,2.51,0,0,0,3.53,0Z" transform="translate(-60.63 -88.52)"/><path class="cls-1" d="M173.85,238.63a270.54,270.54,0,0,0,23,88.71q5.28,11.75,11.68,23c1.59,2.79,5.91.28,4.32-2.53A264,264,0,0,1,194,307.14a268.41,268.41,0,0,1-11.78-43.42q-2.28-12.47-3.34-25.09a2.56,2.56,0,0,0-2.5-2.5,2.51,2.51,0,0,0-2.5,2.5Z" transform="translate(-60.63 -88.52)"/><path class="cls-1" d="M190.88,209.71a271.48,271.48,0,0,0,24.33,125.34,2.52,2.52,0,0,0,3.42.9,2.57,2.57,0,0,0,.9-3.42A267.71,267.71,0,0,1,196,237.58a269.89,269.89,0,0,1-.16-27.87c.15-3.22-4.85-3.21-5,0Z" transform="translate(-60.63 -88.52)"/><path class="cls-1" d="M186.78,313.48l40.8-34a2.52,2.52,0,0,0,0-3.53,2.55,2.55,0,0,0-3.54,0l-40.8,34a2.51,2.51,0,0,0,0,3.53,2.55,2.55,0,0,0,3.54,0Z" transform="translate(-60.63 -88.52)"/><path class="cls-1" d="M244.05,206.75a712.57,712.57,0,0,0-27,73.89q-3.2,10.55-6.06,21.18c-.62,2.29,1.76,3.66,3.67,2.82,10.73-4.7,21.9-9.56,33.8-9.82,11.26-.25,22.15,3.44,32.21,8.22,5.95,2.83,11.7,6,17.43,9.3,2.8,1.59,5.32-2.72,2.52-4.31-10.53-6-21.26-12-32.93-15.42a64.35,64.35,0,0,0-17.47-2.8,61.25,61.25,0,0,0-18.13,2.74,171.93,171.93,0,0,0-19.95,7.77l3.67,2.83a703.37,703.37,0,0,1,24.29-73.65q4-10.19,8.3-20.23a2.58,2.58,0,0,0-.9-3.42,2.52,2.52,0,0,0-3.42.9Z" transform="translate(-60.63 -88.52)"/><path class="cls-1" d="M214.93,293.09,257.5,266c2.71-1.72.2-6.05-2.52-4.31L212.4,288.77c-2.71,1.72-.2,6.05,2.53,4.32Z" transform="translate(-60.63 -88.52)"/><path class="cls-1" d="M262.5,234.18a593.41,593.41,0,0,0,25.32,75.25q4.29,10.35,8.93,20.55a2.51,2.51,0,0,0,3.42.89,2.56,2.56,0,0,0,.9-3.42,587.87,587.87,0,0,1-27.69-73.22q-3.22-10.64-6.06-21.38c-.82-3.11-5.64-1.79-4.82,1.33Z" transform="translate(-60.63 -88.52)"/><path class="cls-1" d="M256.4,228.4a329.94,329.94,0,0,1,55.35-42.83q8.53-5.25,17.36-10l-3.42-3.42-48.45,83.62L263.5,279.5c-1.41,2.44,1.93,5.09,3.93,3,13.49-13.89,35.11-18.6,53.28-12.12,10.31,3.68,18.55,11.24,27,17.86a84.56,84.56,0,0,0,13.85,9.28,43.35,43.35,0,0,0,13.36,4.2c10.17,1.42,21.1-1,27.15-9.92,1.82-2.67-2.51-5.18-4.31-2.53-4.77,7-13.87,8.68-21.84,7.58-9.95-1.37-18.12-7-25.83-13.05-8.7-6.87-17.18-14.26-27.74-18.12a55.94,55.94,0,0,0-29.33-2.13A54.83,54.83,0,0,0,263.9,279l3.92,3,48.45-83.63L330,174.69a2.52,2.52,0,0,0-3.42-3.42,336.16,336.16,0,0,0-58.87,40.17q-7.64,6.48-14.86,13.42c-2.33,2.23,1.21,5.76,3.54,3.54Z" transform="translate(-60.63 -88.52)"/><path class="cls-1" d="M351.77,182.64a452.93,452.93,0,0,0-32.16,43.91q-4.14,6.44-8.06,13A2.52,2.52,0,0,0,315,243c16.55-10,36.7-8.42,54.78-4.18,20.39,4.77,39.73,13.36,60.61,16.13,11.74,1.56,23.82,1.1,35-3.06a2.57,2.57,0,0,0,1.74-3.08,2.51,2.51,0,0,0-3.07-1.74c-20.33,7.55-42.21,2.18-62.15-3.95-19.13-5.89-38.35-12.88-58.67-12.6-10.77.15-21.48,2.57-30.77,8.16l3.42,3.42a442.4,442.4,0,0,1,30-44.1q4.64-6,9.47-11.82a2.56,2.56,0,0,0,0-3.53,2.52,2.52,0,0,0-3.54,0Z" transform="translate(-60.63 -88.52)"/><path class="cls-1" d="M334.35,237.8l56.92-24.1,16.06-6.8a2.51,2.51,0,0,0,.9-3.42,2.57,2.57,0,0,0-3.42-.9l-56.92,24.1-16.06,6.8a2.52,2.52,0,0,0-.9,3.42,2.57,2.57,0,0,0,3.42.9Z" transform="translate(-60.63 -88.52)"/><path class="cls-1" d="M216.11,413.75l6.6,82,1.88,23.36a2.57,2.57,0,0,0,2.5,2.5,2.51,2.51,0,0,0,2.5-2.5l-6.6-82-1.88-23.37a2.56,2.56,0,0,0-2.5-2.5,2.52,2.52,0,0,0-2.5,2.5Z" transform="translate(-60.63 -88.52)"/><path class="cls-1" d="M250.85,397.16a119.48,119.48,0,0,0-12.16,40.73,2.48,2.48,0,0,0,1.83,2.41c7.77,1.39,14.36-3.13,20.7-6.93,5.61-3.36,12.55-6.89,17.85-1.21,6.68,7.14,2.58,17.73-1.07,25.23-4.75,9.75-10,19.28-15.66,28.54a350,350,0,0,1-20.45,29.91,2.52,2.52,0,0,0,.89,3.42,2.56,2.56,0,0,0,3.42-.9,350.18,350.18,0,0,0,35.41-57c4.5-9.1,9-19.95,3.32-29.61a14.79,14.79,0,0,0-10.18-7.37c-3.93-.62-7.63.39-11.18,2-3.87,1.81-7.37,4.31-11.11,6.36a25,25,0,0,1-5.35,2.32,11.86,11.86,0,0,1-5.26.4l1.84,2.41a112.62,112.62,0,0,1,11.48-38.21c1.45-2.86-2.86-5.4-4.32-2.52Z" transform="translate(-60.63 -88.52)"/><path class="cls-1" d="M327.34,416.48a94.7,94.7,0,0,0,1.78,38.65,80.1,80.1,0,0,0,6.42,17.27c2.48,4.67,6.35,9.22,11.92,9.8s9.82-3.4,12.51-7.74c3-4.8,4.78-10.48,6.48-15.84A138.73,138.73,0,0,0,372.74,423a142.05,142.05,0,0,0-3-36.44,136.46,136.46,0,0,0-4.86-17.09,102.73,102.73,0,0,0-7.27-16.66c-2.6-4.53-7.45-9.67-13.24-7.83-5.51,1.75-7.14,8.18-8.63,13.08a159.74,159.74,0,0,0-6.56,36.41A162,162,0,0,0,341,466.64q1.77,4.28,3.78,8.46a2.52,2.52,0,0,0,3.42.9,2.56,2.56,0,0,0,.9-3.42,157.83,157.83,0,0,1-11.9-100.22,146.91,146.91,0,0,1,4.52-16.63c.63-1.88,1.4-4.16,3.05-5.4s3.22-.69,4.64.34a15.47,15.47,0,0,1,4.22,5.34c1.32,2.45,2.46,5,3.56,7.55a129,129,0,0,1,5.56,15.74,136.82,136.82,0,0,1,2,66.55A131.35,131.35,0,0,1,360,462.11c-1.59,4.41-3.24,9.37-6.62,12.77a7.07,7.07,0,0,1-4.89,2.38,7.22,7.22,0,0,1-5.07-2.37c-3.59-3.53-5.46-8.75-7.11-13.39a89.46,89.46,0,0,1-5.07-35,84.59,84.59,0,0,1,.92-8.68,2.56,2.56,0,0,0-1.74-3.07,2.52,2.52,0,0,0-3.08,1.74Z" transform="translate(-60.63 -88.52)"/><path class="cls-1" d="M383.38,457.89l-6.75-76.5-1.93-21.86L370,360.8l39.28,63.75,11,17.86c1.21,2,4.88,1.33,4.66-1.27q-2.33-27-6.3-53.92-3.94-26.66-9.53-53-3.15-14.91-6.83-29.7c-.77-3.12-5.6-1.8-4.82,1.33q6.47,26,11.33,52.41t8.05,52.84q1.8,15,3.1,30.06l4.65-1.26-39.27-63.75-11-17.86c-1.21-2-4.89-1.33-4.66,1.26l6.75,76.5,1.93,21.86a2.56,2.56,0,0,0,2.5,2.5,2.52,2.52,0,0,0,2.5-2.5Z" transform="translate(-60.63 -88.52)"/><path class="cls-1" d="M425.6,298.11q-2.22,30.94-1.45,62t4.64,62.09q2.16,17.43,5.26,34.71a2.53,2.53,0,0,0,3.07,1.75,2.55,2.55,0,0,0,1.75-3.08q-5.44-30.33-7.9-61.08c-1.64-20.53-2.29-41.15-1.92-61.74q.3-17.34,1.55-34.65a2.52,2.52,0,0,0-2.5-2.5,2.55,2.55,0,0,0-2.5,2.5Z" transform="translate(-60.63 -88.52)"/><path class="cls-1" d="M435.93,310A209.6,209.6,0,0,0,442,349.05c1.47,5.76,2.9,11.82,5.51,17.19,2.12,4.37,6,8.36,11.18,8.18,4.72-.16,8.22-3.66,10.37-7.59,2.61-4.77,3.48-10.12,4.43-15.41a331.66,331.66,0,0,0,4.3-84.74c-.21-2.66-4.22-3.57-4.91-.66q-6.67,27.81-12.94,55.71t-12.1,55.9q-5.85,28-11.27,56.07t-10.49,56.52q-5,28.15-9.59,56.38c-.38,2.33-.75,4.66-1.13,7a2.59,2.59,0,0,0,1.75,3.08,2.54,2.54,0,0,0,3.08-1.75q4.53-28.23,9.48-56.4T440,442.26q5.37-28.08,11.16-56.09T463.23,330q6.21-27.92,12.83-55.74l1.65-6.88-4.91-.67A327.86,327.86,0,0,1,470.18,341,160.39,160.39,0,0,1,467,358.58c-1,3.51-2.51,7.81-5.68,9.93-3.33,2.22-6.67,0-8.5-3-2.7-4.42-3.85-9.9-5.19-14.84A202.79,202.79,0,0,1,440.93,310c-.2-3.2-5.2-3.22-5,0Z" transform="translate(-60.63 -88.52)"/><path class="cls-1" d="M260.8,606.49a142.21,142.21,0,0,0,19.9,52,129.66,129.66,0,0,0,17.08,22c6.18,6.29,15.51,12.46,24.5,8.32,7.28-3.36,9.27-11.95,9.4-19.24a101.19,101.19,0,0,0-1-13.24q-.87-7.75-2-15.49a511.46,511.46,0,0,0-12.59-61.26,511.55,511.55,0,0,0-19.89-59.06c-1-2.43-2-4.86-3-7.28a2.51,2.51,0,0,0-3.42-.9,2.57,2.57,0,0,0-.9,3.42,506.33,506.33,0,0,1,20,56.6,511.38,511.38,0,0,1,13.2,58.27q2.46,14.76,4,29.65c.7,6.72,1.64,14.92-2.28,20.82a9.33,9.33,0,0,1-8.09,4.09c-3.91-.14-7.65-2.4-10.63-4.78a68.3,68.3,0,0,1-9.32-9.61c-2.81-3.34-5.45-6.83-7.92-10.43a138.27,138.27,0,0,1-21-48.63q-.7-3.26-1.26-6.54a2.51,2.51,0,0,0-3.07-1.75,2.56,2.56,0,0,0-1.75,3.08Z" transform="translate(-60.63 -88.52)"/><path class="cls-1" d="M365.7,463.92a385.72,385.72,0,0,0-9.13,40.31q-1.74,10.22-2.95,20.52c-.67,5.69-1.55,11.54-.89,17.27.6,5.22,2.45,10.23,6.82,13.44,4.64,3.39,10.81,3.33,16.08,1.66,5.55-1.75,10.08-5.16,14.72-8.53,4.31-3.12,9-6.4,14.48-7,10.44-1.06,19.85,6.36,24.23,15.34,5.19,10.62,4.66,23.45,2.64,34.8a100.93,100.93,0,0,1-12.54,33.82c-5.72,9.64-13.16,19.24-23.48,24.21A23.18,23.18,0,0,1,381.05,652a24.72,24.72,0,0,1-12.72-7.4c-8.25-8.61-10.48-20.74-11.18-32.23-.2-3.21-.3-6.44-.39-9.66s-5.09-3.23-5,0c.37,12.91.83,26.7,7.56,38.15,5.56,9.46,15.31,17,26.71,16.52,11.76-.45,21.87-8.41,29.05-17.15a102.84,102.84,0,0,0,17.9-33c7-21.26,10.12-53.22-12.32-66.61a26.46,26.46,0,0,0-15.83-3.92c-6.08.57-11.3,3.56-16.17,7-4.55,3.25-9,6.91-14.36,8.62-4.73,1.49-10.29,1.51-13.7-2.63-3.07-3.74-3.23-9.2-3-13.79.26-6.38,1.2-12.78,2.08-19.1a388,388,0,0,1,8.18-41.49c.85-3.36,1.76-6.7,2.7-10,.88-3.1-3.95-4.42-4.82-1.33Z" transform="translate(-60.63 -88.52)"/><path class="cls-1" d="M548.49,498c-9.56-4.81-15.34-14.58-24.67-19.78a21.56,21.56,0,0,0-14.34-2.82,16,16,0,0,0-10.78,7c-6.07,9.85,3.79,19.16,10,25.78A140.22,140.22,0,0,1,541,565.75c.87,3.09,5.69,1.78,4.82-1.33a146,146,0,0,0-28.09-53.51c-3.13-3.79-6.58-7.27-9.9-10.89-2.84-3.12-6.09-7-5.95-11.46.11-3.48,2.66-6.1,5.75-7.46a14.4,14.4,0,0,1,11.64.39c5.06,2.23,9.1,6.14,13,9.94,4.17,4.07,8.43,8.21,13.69,10.85,2.87,1.44,5.4-2.87,2.52-4.31Z" transform="translate(-60.63 -88.52)"/><path class="cls-1" d="M548.18,503.36l20.09-24.47c1.92-2.33,5.24-7.52,8.92-6.23,3.39,1.2,4.13,5.5,3.47,8.58a29.72,29.72,0,0,1-2.48,6.56c-1.14,2.38-2.3,4.75-3.45,7.13l-7,14.37-13.93,28.76L538,570.63a2.57,2.57,0,0,0,.9,3.42,2.53,2.53,0,0,0,3.42-.9q14.91-30.78,29.83-61.55l7.4-15.27c2.34-4.83,5.38-9.81,6.13-15.19.65-4.67-.91-9.55-5-12.25-4.22-2.81-9.1-.92-12.42,2.31a76.89,76.89,0,0,0-5.49,6.45l-6,7.26-12.24,14.91a2.57,2.57,0,0,0,0,3.54,2.51,2.51,0,0,0,3.53,0Z" transform="translate(-60.63 -88.52)"/><path class="cls-1" d="M560.14,505.7,606.08,482c2.86-1.48.33-5.8-2.53-4.32l-45.94,23.72c-2.86,1.48-.33,5.79,2.53,4.32Z" transform="translate(-60.63 -88.52)"/><path class="cls-1" d="M604.26,470.53l18.64,3.71-1.49-3.68-15,19.62,4.66,1.26a63.6,63.6,0,0,0-7.4-28c-1.51-2.85-5.83-.32-4.32,2.52a57.92,57.92,0,0,1,6.72,25.46,2.56,2.56,0,0,0,1.83,2.41,2.64,2.64,0,0,0,2.83-1.15l15-19.61a2.52,2.52,0,0,0-1.5-3.68l-18.65-3.7a2.57,2.57,0,0,0-3.07,1.74,2.52,2.52,0,0,0,1.75,3.08Z" transform="translate(-60.63 -88.52)"/><path class="cls-1" d="M508.36,518.5l-27.22,15.25c-2.81,1.58-.29,5.9,2.52,4.32l27.23-15.26c2.8-1.57.28-5.89-2.53-4.31Z" transform="translate(-60.63 -88.52)"/><path class="cls-1" d="M472.28,532.66l16.81-.69-2.41-3.17L475,557.56a2.51,2.51,0,0,0,1.74,3.07,2.56,2.56,0,0,0,3.08-1.74l11.67-28.76c.61-1.49-.93-3.22-2.41-3.16l-16.81.69c-3.21.13-3.23,5.14,0,5Z" transform="translate(-60.63 -88.52)"/></svg>