<?xml version="1.0" encoding="UTF-8" standalone="no"?>
<!-- Created with Inkscape (http://www.inkscape.org/) -->

<svg
   width="210mm"
   height="297mm"
   viewBox="0 0 210 297"
   version="1.1"
   id="svg1"
   inkscape:version="1.4.2 (ebf0e940, 2025-05-08)"
   sodipodi:docname="werenotyeatalright.svg"
   xmlns:inkscape="http://www.inkscape.org/namespaces/inkscape"
   xmlns:sodipodi="http://sodipodi.sourceforge.net/DTD/sodipodi-0.dtd"
   xmlns="http://www.w3.org/2000/svg"
   xmlns:svg="http://www.w3.org/2000/svg">
  <sodipodi:namedview
     id="namedview1"
     pagecolor="#ffffff"
     bordercolor="#000000"
     borderopacity="0.25"
     inkscape:showpageshadow="2"
     inkscape:pageopacity="0.0"
     inkscape:pagecheckerboard="0"
     inkscape:deskcolor="#d1d1d1"
     inkscape:document-units="mm"
     inkscape:zoom="0.010512277"
     inkscape:cx="-3614.8211"
     inkscape:cy="2425.7352"
     inkscape:window-width="1264"
     inkscape:window-height="754"
     inkscape:window-x="0"
     inkscape:window-y="35"
     inkscape:window-maximized="0"
     inkscape:current-layer="layer1" />
  <defs
     id="defs1" />
  <g
     inkscape:label="Layer 1"
     inkscape:groupmode="layer"
     id="layer1">
    <path
       style="fill:#ff0000;stroke-width:0.264583"
       id="path145"
       d="m -5837.321,-3144.0252 c -2.8827,90.8995 10.7873,180.7594 25.4971,270.1393 35.2067,208.2978 87.4818,413.1777 136.6062,618.4882 55.8959,233.8416 117.6263,466.2021 180.4239,698.2657 41.4461,155.8506 88.2253,310.4525 142.9834,462.168 20.7704,58.4571 41.0816,117.00604 66.4112,173.68143 28.8851,64.54182 120.1611,23.69209 91.276,-40.84976 v 0 c -24.3821,-54.39607 -43.5713,-110.72637 -63.6373,-166.81117 -53.9239,-149.0949 -99.7045,-301.1379 -140.5051,-454.3095 -62.5417,-231.1171 -124.0306,-462.527 -179.6974,-695.4152 -48.5727,-202.9959 -100.3114,-405.5553 -135.1938,-611.4911 -13.8859,-83.9992 -27.0399,-168.4174 -24.1642,-253.8659 0,-70.7107 -100,-70.7107 -100,0 z" />
    <path
       style="fill:#ff0000;stroke-width:0.264583"
       id="path146"
       d="m -5295.3261,-947.1236 c 107.5037,-183.9516 229.9719,-358.4951 349.0527,-534.9924 150.9037,-224.2467 305.5855,-445.9207 457.5087,-669.4686 27.2169,-43.2145 57.2331,-84.484 88.1626,-125.0687 42.8255,-56.267 -36.7479,-116.8313 -79.5734,-60.5643 v 0 c -31.9633,42.0456 -63.0851,84.7259 -91.2985,129.4264 -151.9761,223.6466 -306.7412,445.3991 -457.6963,669.7457 -120.0711,177.9656 -243.5064,353.9916 -351.9051,539.47232 -36.3805,60.6339 49.3689,112.08348 85.7493,51.44958 z" />
    <path
       style="fill:#ff0000;stroke-width:0.264583"
       id="path147"
       d="m -4452.9785,-2334.1922 c 0,88.1943 0,176.3886 0,264.5829 0,119.3739 0,238.7478 0,358.1217 0,54.9277 0,109.8555 0,164.7832 0,15.9196 0,31.8392 0,47.7587 0,13.4337 0,26.8673 0,40.3009 0,11.8657 0,23.7314 0,35.5971 0,28.2927 0,56.5854 0,84.8782 0,34.2904 0,68.5808 0,102.8712 0,17.3487 0,34.6974 0,52.0461 -2.2436,22.1524 7.52,42.0091 18.0489,60.6739 3.4237,9.0121 0.2857,-4.2128 1.0535,7.7135 0.3617,8.4602 0.2659,16.9304 0.2284,25.3957 -2.9459,21.099 8.1481,38.5152 16.9746,56.3356 1.7348,3.255 1.5158,11.1043 1.9759,19.4051 0.2082,6.1486 0.2553,12.3005 0.3013,18.45177 0.5504,70.70852 100.5473,69.93019 99.9969,-0.77835 v 0 c -0.063,-7.81392 -0.1251,-15.62912 -0.4646,-23.43742 -1.2041,-20.2795 -3.0596,-40.8932 -12.782,-59.1832 -1.6581,-3.1935 -11.1252,-29.0692 -7.7092,-12.3287 5.8489,28.6622 -0.1132,9.6663 1.7063,1.9761 0.048,-11.0194 0.1522,-22.048 -0.4884,-33.0546 -1.5687,-17.2086 -4.6127,-34.6319 -13.7274,-49.6851 -3.7002,-6.537 -7.3305,-18.4707 -7.2633,-13.1278 0.4297,34.1667 3.4896,8.3403 2.1492,1.6435 0,-17.3487 0,-34.6974 0,-52.0461 0,-34.2904 0,-68.5808 0,-102.8712 0,-28.2928 0,-56.5855 0,-84.8782 0,-11.8657 0,-23.7314 0,-35.5971 0,-13.4336 0,-26.8672 0,-40.3009 0,-15.9195 0,-31.8391 0,-47.7587 0,-54.9277 0,-109.8555 0,-164.7832 0,-119.3739 0,-238.7478 0,-358.1217 0,-88.1943 0,-176.3886 0,-264.5829 0,-70.7106 -100.0001,-70.7106 -100.0001,0 z" />
    <path
       style="fill:#ff0000;stroke-width:0.264583"
       id="path148"
       d="m -4314.5244,-998.975 c 1.4708,-16.2243 0.7917,-32.7894 4.4125,-48.6728 25.7916,-113.1447 96.919,-340.6992 126.8158,-430.0292 125.0945,-373.7738 273.512,-738.3155 422.266,-1103.077 235.144,-567.4085 507.1671,-1118.8872 820.6685,-1646.9852 84.3272,-121.1564 150.3026,-262.2846 259.9928,-364.2106 2.6545,-1.9598 11.0379,-7.0781 7.9637,-5.8793 -4.2254,1.6476 -7.0075,6.6876 -11.5062,7.261 -34.2154,4.3606 -30.5922,-1.9511 -53.2337,-24.4491 22.6264,66.993 117.3687,34.9948 94.7425,-31.9982 v 0 c -8.922,-11.5377 -14.3763,-26.9179 -26.766,-34.6131 -28.9658,-17.9906 -58.3115,-1.303 -79.752,16.8731 -115.4158,109.7343 -189.8801,255.0853 -277.4352,385.9768 -315.9321,532.4096 -590.3122,1088.241 -827.2714,1660.2652 -149.8171,367.4229 -299.2734,734.6286 -425.1642,1111.1614 -37.6571,112.6296 -102.9312,322.2042 -130.946,451.0573 -4.0736,18.7354 -3.1914,38.2131 -4.7871,57.3197 0,70.71069 100,70.71069 100,0 z" />
    <path
       style="fill:#ff0000;stroke-width:0.264583"
       id="path149"
       d="m -3222.4517,-2754.8858 c -4.8437,184.6065 -73.5147,370.5531 -128.5226,544.9066 -122.912,370.0026 -249.4151,738.8992 -349.6451,1115.8334 -27.5224,149.53436 -98.6001,305.80694 -79.557,460.41134 6.3167,12.51235 8.8247,27.84485 18.95,37.53707 72.1802,69.09326 213.5748,3.28729 290.8276,-23.63433 213.2227,-76.4985 407.8438,-192.0286 595.9211,-316.47966 38.4209,-27.46536 76.8421,-54.93072 115.263,-82.39612 57.5149,-41.1344 -0.6577,-122.4727 -58.1726,-81.3383 v 0 c -37.4356,26.787 -74.8712,53.5739 -112.3069,80.3609 -181.0586,120.01919 -368.3862,231.5345 -573.6809,305.4468 -44.0449,15.42339 -74.5104,27.15316 -118.6757,39.00284 -12.5979,3.38005 -25.4135,5.90939 -38.2077,8.44733 -6.8598,1.36072 -15.6289,-1.54252 -20.7282,3.24347 -3.2399,3.04086 2.3976,8.55718 3.5964,12.83579 -1.2805,0.82814 -2.5611,1.65631 -3.8414,2.48449 -7.5565,-39.34421 -0.9914,-77.90765 6.2476,-117.12155 18.8396,-102.05526 46.8066,-202.30078 71.0094,-303.11327 99.7529,-375.4856 226.0795,-742.8492 348.3718,-1111.4484 58.7367,-186.3872 128.8288,-377.5589 133.1513,-574.9784 0,-70.7107 -100.0001,-70.7107 -100.0001,0 z" />
    <path
       style="fill:#ff0000;stroke-width:0.264583"
       id="path150"
       d="m -3266.5085,-2721.956 c 140.3535,-31.4302 279.585,-66.8568 417.1805,-108.7512 212.072,-67.3978 409.8238,-171.0947 602.8792,-280.2252 23.8976,-13.9121 47.7953,-27.8244 71.6929,-41.7367 61.1079,-35.5783 10.7924,-121.9981 -50.3155,-86.4196 v 0 c -23.5337,13.7033 -47.0674,27.4069 -70.6011,41.1102 -186.6704,105.6002 -377.8002,206.1964 -582.8158,271.6173 -134.4269,41.0332 -270.515,75.5047 -407.6316,106.3471 -69.3375,13.8676 -49.7261,111.9257 19.6114,98.0581 z" />
    <path
       style="fill:#ff0000;stroke-width:0.264583"
       id="path151"
       d="m -3727.9558,-1626.0181 c 115.0371,-28.0625 229.9906,-56.4598 345.6201,-81.9906 69.046,-15.2538 47.474,-112.8993 -21.572,-97.6456 v 0 c -114.9704,25.4134 -229.3225,53.463 -343.6598,81.5781 -69.3375,13.8675 -49.7258,111.9256 19.6117,98.0581 z" />
    <path
       style="fill:#ff0000;stroke-width:0.264583"
       id="path152"
       d="m -3413.203,-1718.8822 c 73.1872,1.1647 146.105,-6.9042 219.0647,-11.6888 66.6173,-4.7284 133.3846,-3.2046 199.4831,-13.3497 69.8735,-10.8485 54.5314,-109.6646 -15.3421,-98.8161 v 0 c -63.1061,9.9321 -127.0942,7.1443 -190.6889,12.3804 -70.7827,4.6477 -141.5188,12.5652 -212.5168,11.4742 -70.7107,0 -70.7107,100 0,100 z" />
    <path
       style="fill:#ff0000;stroke-width:0.264583"
       id="path153"
       d="m -1588.1584,-3547.7918 c -14.4446,80.3691 -38.0644,158.9424 -56.96,238.4057 -21.9736,92.8225 -48.8424,184.3606 -71.2251,277.0942 -11.581,46.4206 -28.2039,91.3056 -46.2305,135.5376 -26.5851,65.5227 66.078,103.1197 92.6631,37.597 v 0 c 19.757,-48.886 38.1403,-98.4147 50.7832,-149.7021 22.3495,-92.8552 49.4117,-184.4585 71.3024,-277.4169 20.6193,-86.908 48.407,-172.8221 59.6669,-261.5155 0,-70.7107 -100,-70.7107 -100,0 z" />
    <path
       style="fill:#ff0000;stroke-width:0.264583"
       id="path154"
       d="m -1242.0728,-3127.9261 c 0,201.911 0,403.8219 0,605.7329 0,305.8121 0,611.6243 0,917.4365 0,227.7766 0,455.5532 0,683.32978 0,116.36184 0,232.72368 0,349.0855 0,29.3312 0,58.66238 0,87.99359 0,70.71069 100,70.71069 100,0 v 0 c 0,-29.33121 0,-58.66239 0,-87.99359 0,-116.36182 0,-232.72366 0,-349.0855 0,-227.77658 0,-455.55318 0,-683.32978 0,-305.8122 0,-611.6244 0,-917.4365 0,-201.911 0,-403.8219 0,-605.7329 0,-70.7107 -100,-70.7107 -100,0 z" />
    <path
       style="fill:#ff0000;stroke-width:0.264583"
       id="path155"
       d="m -1274.4084,-3045.5438 c 166.2791,0 332.55826,0 498.83737,0 187.97463,0.944 376.01512,9.9938 562.38119,35.5089 123.377444,16.8913 152.202594,24.7552 272.505279,49.2879 190.141361,44.3926 374.077211,115.4393 535.131491,226.6 37.14674,27.6966 130.3251,121.5944 121.86476,174.2736 -1.46987,9.1523 -9.65208,15.8283 -14.47813,23.7424 -158.61948,155.1947 -366.64633,235.1526 -571.22399,309.6946 -282.07205,90.3481 -571.04377,156.537 -860.86004,216.4559 -204.91912,37.8069 -410.35573,72.8966 -616.31193,104.5835 -102.4791,17.3311 -205.1237,33.7564 -308.5422,44.3306 -46.5715,8.5769 -105.6345,15.3854 -94.9142,85.0861 2.3721,15.4228 21.0772,23.0155 31.6158,34.5233 82.3552,44.682 173.7782,71.5581 262.8623,99.4507 314.2573,92.7733 633.66757,165.9175 954.02519,233.985 353.44342,70.7225 707.12753,140.5051 1063.75371,193.3167 130.27483,16.8812 68.59804,9.5035 184.98531,22.5067 70.27421,7.8446 81.36811,-91.5381 11.09393,-99.3827 v 0 c -114.03674,-12.7186 -53.5433,-5.4944 -181.43535,-22.046 -354.5755,-52.4711 -706.20314,-121.9516 -1057.61815,-192.2119 -317.3047,-67.3919 -633.66424,-139.8227 -944.95034,-231.6074 -80.4063,-25.1271 -162.7958,-49.4029 -238.01,-87.7201 13.6028,29.1502 17.6914,50.5836 -18.1706,73.4537 -2.0392,1.3004 4.4485,-1.9155 6.7452,-2.6736 12.6424,-4.1736 15.7578,-4.27 30.2045,-7.2007 105.0942,-10.7782 209.4281,-27.3099 313.5651,-44.9739 207.6407,-31.9623 414.76644,-67.3066 621.35186,-105.4918 294.57199,-60.9242 588.29719,-128.2465 874.89131,-220.4438 187.39041,-68.4846 418.93342,-153.5322 565.27332,-294.978 24.90396,-24.0711 44.82545,-52.8127 67.23814,-79.219 5.41991,-25.349 15.71728,-50.1307 16.25973,-76.0469 0.3751,-17.9204 -7.22479,-35.2698 -13.57894,-52.03 -28.4021,-74.9155 -87.63323,-133.373 -149.0622,-181.8354 -172.72908,-117.8822 -368.07211,-195.5062 -571.758345,-242.1319 -124.171531,-25.233 -153.728256,-33.2864 -281.005845,-50.6404 -190.16747,-25.9289 -382.03037,-35.2124 -573.82786,-36.1662 -166.27911,0 -332.55827,0 -498.83737,0 -70.7107,0 -70.7107,100.0001 0,100.0001 z" />
    <path
       style="fill:#ff0000;stroke-width:0.264583"
       id="path156"
       d="m 1526.6124,-2970.9824 c 3.76,125.7292 -3.1771,250.5578 -15.3174,375.6607 -42.8098,345.0173 -110.4004,686.2897 -165.3016,1029.4977 -33.592,211.0705 -55.3852,423.791 -67.6055,637.11283 -3.392,53.34667 -9.1523,114.37332 51.3471,140.28817 33.8146,14.48445 84.2742,-0.60518 115.6913,-6.09947 253.3195,-61.21633 502.9461,-137.03755 750.8928,-217.02093 225.8157,-71.9104 450.7236,-146.5005 672.6328,-229.7135 66.2083,-24.8281 31.0962,-118.461 -35.1123,-93.6329 v 0 c -220.4505,82.6712 -443.8954,156.7318 -668.2262,228.1773 -243.9944,78.7379 -489.6508,153.25327 -738.8268,213.94257 -15.4224,3.25133 -31.0808,5.53585 -46.2674,9.75402 -2.6271,0.7297 -6.6384,2.18866 -6.5395,4.91345 0.2236,6.16021 5.9464,10.97023 7.3341,16.97625 0.261,1.12932 -3.2229,0.88664 -3.4685,-0.24615 -3.1603,-14.58182 -0.073,-51.59877 0.3793,-61.62667 11.9969,-209.94737 33.4646,-419.30007 66.5137,-627.03087 55.2185,-345.2592 123.3134,-688.5595 166.0936,-1035.679 12.3329,-128.2985 19.6041,-256.3423 15.7805,-385.2735 0,-70.7107 -100,-70.7107 -100,0 z" />
    <path
       style="fill:#ff0000;stroke-width:0.264583"
       id="path157"
       d="m 1221.908,-1763.8597 c 200.3577,-85.3045 396.9269,-179.4418 595.4761,-268.9437 123.7664,-55.7956 249.9727,-105.6193 380.2606,-143.8401 67.8386,-19.9482 39.6276,-115.8864 -28.211,-95.9382 v 0 c -134.6356,39.6781 -265.2391,90.8113 -393.1455,148.6129 -194.1609,87.525 -386.7062,178.6974 -581.8523,263.9567 -67.9901,19.4258 -40.5179,115.5781 27.4721,96.1524 z" />
    <path
       style="fill:#ff0000;stroke-width:0.264583"
       id="path158"
       d="m 1489.677,-2968.6358 c 117.6121,-10.9889 231.256,-54.2774 341.7476,-93.4273 149.6344,-53.0193 189.8004,-70.3178 342.647,-130.2186 426.9257,-173.7292 848.2588,-360.7113 1269.7919,-547.0195 184.3145,-80.9934 367.7581,-163.704 549.2615,-250.7982 63.7508,-30.5912 20.4888,-120.7487 -43.2623,-90.1576 v 0 c -180.5641,86.6442 -363.0634,168.9158 -546.4247,249.491 -420.2345,185.7351 -840.2678,372.1438 -1265.8605,545.3811 -153.0367,59.998 -188.8871,75.5904 -338.3996,128.6637 -100.2759,35.5954 -203.26,74.7887 -309.5009,88.0853 -70.7107,0 -70.7107,100.0001 0,100.0001 z" />
    <path
       style="fill:#ff0000;stroke-width:0.264583"
       id="path159"
       d="m -5433.5544,-84.635511 c 0.9927,174.661473 -8.6175,349.178521 -19.263,523.448971 -24.007,316.40346 -46.4595,632.88554 -62.0199,949.82434 -6.4474,136.7619 -10.4979,273.6136 -13.5229,410.4875 -1.5616,70.6935 98.4141,72.9018 99.9755,2.2084 v 0 c 3.0022,-135.9756 7.0254,-271.929 13.427,-407.7933 15.5337,-316.5424 38.0008,-632.62515 61.9543,-948.63398 10.7546,-176.29976 20.4478,-352.847349 19.449,-529.541931 0,-70.710679 -100,-70.710679 -100,0 z" />
    <path
       style="fill:#ff0000;stroke-width:0.264583"
       id="path160"
       d="m -5510.4622,-67.708409 c 28.7663,143.735934 159.6491,250.400519 261.7719,344.597539 243.5002,206.86553 499.2264,398.82748 750.843,595.65367 132.3523,98.02926 254.1222,209.2082 382.2674,312.3563 43.3019,32.444 70.8699,37.3364 110.6786,-20.234 10.2613,-14.84 -15.481,-130.1722 -18.3248,-146.9058 -30.1088,-187.85114 -33.5616,-378.53793 -37.7531,-568.32382 -3.3499,-243.47876 -6.7929,-486.970756 1.4227,-730.36969 3.5187,-61.15624 9.2556,-122.17043 17.0251,-182.9285 2.5175,-19.68687 3.4642,-44.51553 11.3774,-63.27555 22.1757,-67.14331 -72.7792,-98.50487 -94.955,-31.36154 v 0 c -26.5102,88.16996 -22.5859,183.61777 -33.3907,274.19721 -8.254,245.259335 -4.8715,490.6107 -1.455,735.94993 4.3138,194.65986 8.0669,390.22128 39.1428,582.86856 0.1508,0.8874 14.5055,87.2543 17.5358,99.4183 4.8,19.2688 35.7819,-17.6785 54.8272,-23.3007 4.6738,-1.3798 15.8567,11.1109 12.5052,7.5731 -4.4831,-4.7325 -10.6621,-7.5034 -15.9932,-11.2551 -128.6463,-103.2082 -250.4461,-215.07671 -383.2974,-313.17312 -249.5169,-195.18283 -503.0433,-385.61123 -744.7396,-590.47241 -86.196,-79.12951 -183.6915,-159.93388 -229.4885,-271.014379 0,-70.710671 -99.9998,-70.710671 -99.9998,0 z" />
    <path
       style="fill:#ff0000;stroke-width:0.264583"
       id="path161"
       d="m -3239.9216,-135.09724 c -95.1092,106.295016 -175.8831,224.038345 -256.4183,341.43084 -121.4159,179.72377 -238.724,363.51627 -326.2849,562.61191 -18.2248,41.4392 -33.5793,84.08226 -50.3687,126.12339 -82.7379,218.7775 -118.8032,449.6872 -130.3489,682.2072 5.6253,101.2176 1.8249,252.2357 107.2753,310.414 20.5005,11.3104 44.6646,14.0661 66.9968,21.0991 27.7577,-3.0083 56.2374,-2.0531 83.2733,-9.0247 116.3733,-30.0089 219.7775,-112.7496 309.5496,-187.9418 101.2124,-84.7744 163.3876,-149.0753 258.9789,-242.1818 223.4734,-232.1417 441.6182,-472.22448 627.4765,-736.14921 30.5518,-43.38457 58.9984,-88.21412 88.4976,-132.32116 103.3481,-167.42503 199.7577,-350.162 219.6156,-549.558559 3.2957,-33.092237 1.5839,-66.493016 2.3758,-99.739525 -11.6892,-117.717846 -43.234,-235.117026 -119.5659,-328.408996 -46.1122,-56.35773 -66.5491,-64.60776 -125.6845,-106.108 -137.9376,-75.87816 -293.3057,-94.84995 -447.7377,-104.64726 -50.7174,-4.5521 -101.4018,-1.73212 -151.9914,2.18562 -70.4909,5.57384 -62.6081,105.26268 7.8824,99.68883 v 0 c 45.8785,-3.71348 91.8239,-6.37111 137.8363,-2.07137 136.3128,8.48212 274.1311,23.43978 397.3577,87.24847 18.1607,12.16028 37.4566,22.77626 54.4822,36.48081 95.9185,77.20845 133.5756,195.72462 147.4372,313.825278 -0.3187,28.220092 1.6376,56.5578249 -0.9561,84.660274 -17.1249,185.544188 -108.6779,355.238158 -204.1929,510.878908 -28.6163,42.84977 -56.2059,86.40334 -85.849,128.54929 -182.5779,259.58538 -397.2238,495.5023 -616.7745,723.8679 -94.0808,91.725 -151.6621,151.4466 -250.6803,234.9417 -90.5087,76.3197 -189.2551,154.3839 -307.9329,178.6011 -9.18,-0.5507 -18.7891,1.1765 -27.5397,-1.652 -71.9807,-23.2658 -65.9196,-172.9107 -70.2495,-227.7544 10.6479,-221.5235 44.936,-441.5562 123.3683,-650.08241 15.8697,-39.94451 30.3437,-80.47222 47.6094,-119.83357 85.3167,-194.50211 200.0935,-373.8355 318.6112,-549.3479 79.1276,-115.39924 158.5138,-231.088277 252.0379,-335.522458 44.1727,-55.215762 -33.9143,-117.685262 -78.0868,-62.469502 z" />
    <path
       style="fill:#ff0000;stroke-width:0.264583"
       id="path162"
       d="m -1568.9314,-163.84331 c 0,151.982073 0,303.96414 0,455.94622 0,226.48478 0,452.96957 0,679.45433 0,21.23577 0,42.47156 0,63.70726 0,70.7107 100,70.7107 100,0 v 0 c 0,-21.2357 0,-42.47149 0,-63.70726 0,-226.48476 0,-452.96955 0,-679.45433 0,-151.98208 0,-303.964147 0,-455.94622 0,-70.71067 -100,-70.71067 -100,0 z" />
    <path
       style="fill:#ff0000;stroke-width:0.264583"
       id="path163"
       d="m -2098.8686,-199.95074 c 189.8008,0 379.6017,0 569.4025,0 222.1075,0 444.2149,0 666.32231,0 23.79014,0 47.58028,0 71.37042,0 70.71069,0 70.71069,-100 0,-100 v 0 c -23.79014,0 -47.58028,0 -71.37042,0 -222.10741,0 -444.21481,0 -666.32231,0 -189.8008,0 -379.6017,0 -569.4025,0 -70.7107,0 -70.7107,100 0,100 z" />
    <path
       style="fill:#ff0000;stroke-width:0.264583"
       id="path164"
       d="m 798.97175,-332.91862 c 120.34298,64.99323 237.94635,134.71648 353.61175,207.68809 128.0101,81.77878 250.6405,171.293998 379.3787,251.96227 57.3961,42.82249 128.3517,70.19592 179.923,120.7567 9.2903,6.9647 24.1843,23.22142 28.3593,28.86811 -3.211,-8.61719 -1.5526,22.32668 -1.5829,24.91962 -0.1829,15.08133 -0.394,30.16216 -0.4899,45.24433 -0.4486,70.70926 99.5494,71.3436 99.998,0.63434 v 0 c 0.094,-14.90919 0.3057,-29.81701 0.4852,-44.72538 0.2473,-21.71536 1.1453,-43.70283 -6.1112,-64.55497 -11.6304,-26.11647 -30.7976,-45.15834 -52.3825,-63.45028 -58.3537,-53.09735 -130.099,-88.44964 -195.1145,-132.439384 -128.6738,-80.570706 -251.0862,-170.232366 -379.1129,-251.795186 -118.4691,-74.713 -238.91885,-146.12023 -362.24069,-212.55097 -63.24555,-31.62276 -107.96691,57.81995 -44.72136,89.44271 z" />
    <path
       style="fill:#ff0000;stroke-width:0.264583"
       id="path165"
       d="m 705.75124,1290.2198 c 66.2545,-131.006 154.0065,-251.0799 239.86114,-369.63115 137.42552,-189.76216 166.78082,-224.35087 313.67652,-413.95862 274.0859,-344.53525 569.8526,-671.18988 880.6354,-982.82518 104.8222,-95.231 202.797,-202.72239 325.1108,-276.40515 17.346,-8.87986 9.6279,-5.47544 22.8679,-10.83913 65.071,-27.67232 25.9364,-119.6967 -39.1346,-92.02438 v 0 c -22.2194,9.68922 -10.2687,4.03844 -35.6414,17.39103 -128.7504,78.70534 -234.1214,189.33139 -344.0153,291.269 C 1755.4355,-232.17662 1456.8351,97.529942 1180.2344,445.38963 1032.7763,635.75956 1001.8632,672.33704 863.86944,862.98576 781.87388,976.2688 697.4587,1091.829 631.03071,1215.448 c -7.51379,13.9827 -13.43186,28.766 -20.14781,43.149 -22.36067,67.082 72.50766,98.7048 94.86834,31.6228 z" />
    <path
       style="fill:#ff0000;stroke-width:0.264583"
       id="path166"
       d="m 2391.8265,-236.15147 c -39.1487,188.846796 -116.3335,368.47808 -182.707,548.9717 -108.6268,293.39955 -210.9288,588.97011 -291.1011,891.48727 -21.2253,83.7128 -38.1892,168.4373 -51.1294,253.8098 -3.8091,25.1301 -11.4021,68.1769 -7.2447,95.1745 2.0976,13.622 8.4265,26.2455 12.6398,39.3682 18.9161,11.6269 35.079,30.0382 56.7481,34.8808 49.1132,10.9758 157.3194,-46.594 197.2699,-66.0207 55.0264,-26.7577 164.5825,-83.3315 215.7809,-109.5776 305.3285,-162.2215 606.7863,-331.5837 902.868,-510.11649 121.0429,-71.24023 237.816,-149.16322 353.8284,-228.19569 58.4337,-39.81804 2.1227,-122.4561 -56.3113,-82.63805 v 0 c -114.4648,78.01941 -229.7022,154.91034 -349.1584,225.1997 -294.0984,177.37263 -593.5767,345.56533 -896.8466,506.76273 -93.2049,47.7832 -185.93,99.0246 -282.122,140.7699 -8.7386,3.7923 -59.6204,19.4388 -60.2471,27.0076 -0.6884,8.3141 6.8227,15.2262 10.2341,22.8393 -14.369,-4.4138 -3.0201,-51.0059 1.2617,-79.3875 12.3964,-82.1672 28.6919,-163.708 49.0959,-244.2753 79.2727,-299.53227 180.8369,-592.07073 288.2891,-882.57479 37.091,-100.86393 75.1748,-201.36839 111.2625,-302.59561 27.9758,-78.472934 56.5658,-159.02028 72.5063,-241.10821 2.5483,-13.12319 3.3885,-26.52104 5.0829,-39.78156 0,-70.71069 -100,-70.71069 -100,0 z" />
    <path
       style="fill:#ff0000;stroke-width:0.264583"
       id="path167"
       d="m 2336.7342,-259.32932 c 270.8633,-154.08872 538.8484,-313.16244 809.9395,-466.84304 184.917,-100.18771 369.3829,-202.88279 561.6919,-288.51134 7.8761,-2.7112 15.7522,-5.4226 23.6283,-8.1339 66.7065,-23.4578 33.532,-117.7947 -33.1742,-94.3369 v 0 c -10.395,3.7139 -20.7902,7.4279 -31.1852,11.1418 -195.1437,87.1599 -382.6549,190.88185 -570.2792,292.84774 -271.7998,154.09778 -540.513,313.55501 -812.0707,468.08636 -60.6339,36.38034 -9.1843,122.12962 51.4496,85.74928 z" />
    <path
       style="fill:#ff0000;stroke-width:0.264583"
       id="path168"
       d="m 1868.9603,681.68794 c 181.7957,-51.56919 359.7153,-116.00746 539.3552,-174.58181 66.5799,-23.28368 134.0903,-43.59122 201.8943,-62.92694 67.995,-19.40827 40.5477,-115.5677 -27.4474,-96.15945 v 0 c -68.9856,19.7086 -137.6957,40.33033 -205.4486,64.01329 -174.1883,56.80278 -346.9507,118.15966 -522.4957,170.65995 -69.9999,10.00001 -55.8578,108.99494 14.1422,98.99496 z" />
    <path
       style="fill:#ff0000;stroke-width:0.264583"
       id="path169"
       d="m 4545.2482,-603.76397 c 3.4163,143.99654 -6.1259,287.59607 -16.3552,431.12776 -28.3687,261.81686 -59.9424,523.26185 -87.8941,785.14416 -12.8759,121.71944 -22.1035,243.76925 -28.1358,366.00674 -3.4814,70.62491 96.3973,75.54831 99.8786,4.9234 v 0 c 5.9251,-120.33811 15.0236,-240.48958 27.6924,-360.31755 28.0739,-263.05041 59.8723,-525.652023 88.2065,-788.65387 10.3802,-145.89493 20.0202,-291.86576 16.6076,-438.23064 0,-70.71066 -100,-70.71066 -100,0 z" />
    <path
       style="fill:#ff0000;stroke-width:0.264583"
       id="path170"
       d="m 3713.2593,-388.78091 c 346.347,-211.45421 707.5585,-396.10377 1070.6179,-576.79182 246.6652,-118.73217 496.0512,-232.07387 752.3718,-328.42247 66.1845,-24.8915 30.9827,-118.4908 -35.202,-93.5993 v 0 c -259.4718,97.6359 -512.041,212.1804 -761.7272,332.4973 -364.7599,181.55647 -727.67,367.08947 -1075.6744,579.49197 -61.3942,35.08232 -11.7803,121.90664 49.6139,86.82432 z" />
    <path
       style="fill:#ff0000;stroke-width:0.264583"
       id="path171"
       d="m -4261.5156,2169.7215 c -48.9368,106.8981 -103.5921,211.2314 -156.7051,316.128 -137.6857,280.4531 -257.3591,569.3617 -368.9717,861.0405 -74.5977,199.0187 -141.5114,400.976 -195.5393,606.5697 -17.9581,68.3924 78.7633,93.7889 96.7214,25.3965 v 0 c 53.0246,-202.1136 118.9691,-400.5818 192.2155,-596.2332 110.3498,-288.4765 228.7,-574.203 364.79,-851.6014 56.4148,-111.4237 116.3768,-221.7984 164.5034,-337.0466 17.1498,-68.5994 -79.8645,-92.853 -97.0142,-24.2535 z" />
    <path
       style="fill:#ff0000;stroke-width:0.264583"
       id="path172"
       d="m -4356.8434,2124.1673 c 0,125.6449 0,251.2898 0,376.9347 -1.8714,210.0257 10.9701,419.7903 25.0528,629.2355 12.2611,187.4319 31.5987,374.2764 43.8349,561.7138 3.8237,61.4038 6.0148,122.8855 7.6195,184.3805 1.8475,70.6866 101.8135,68.0736 99.9659,-2.613 v 0 c -1.6441,-62.7976 -3.8865,-125.5816 -7.7981,-188.2855 -12.2542,-187.5012 -31.5367,-374.4142 -43.8478,-561.9072 -13.9435,-207.2103 -26.6901,-414.7381 -24.8274,-622.5241 0,-125.6449 0,-251.2898 0,-376.9347 0,-70.7107 -99.9998,-70.7107 -99.9998,0 z" />
    <path
       style="fill:#ff0000;stroke-width:0.264583"
       id="path173"
       d="m -5124.4042,3376.2674 c 128.4746,0 256.9491,0 385.4236,0 216.1143,0 432.2289,0 648.3435,0 89.9234,0 179.8468,0 269.7702,0 7.4475,-0.9718 14.895,-1.9436 22.3422,-2.9154 69.8402,-11.0622 54.1959,-109.8309 -15.6443,-98.7687 v 0 c -2.2325,0.5615 -4.4651,1.1229 -6.6979,1.6843 -89.9234,0 -179.8468,0 -269.7702,0 -216.1146,0 -432.2292,0 -648.3435,0 -128.4745,0 -256.949,0 -385.4236,0 -70.7107,0 -70.7107,99.9998 0,99.9998 z" />
    <path
       style="fill:#ff0000;stroke-width:0.264583"
       id="path174"
       d="m -3145.5439,2143.3943 c 0,24.7203 0.3498,52.3038 -2.2545,76.1764 -8.7149,79.8831 -25.5442,162.5217 -42.087,240.5443 -28.6031,134.9054 -51.5155,225.3971 -84.2555,361.0558 -86.0169,345.5969 -178.6284,689.4812 -269.6906,1033.7662 -22.0879,81.8989 -42.1201,164.3433 -60.23,247.2095 -3.0589,13.997 -18.7669,69.6981 -7.2303,86.6468 13.811,20.2907 38.045,31.0222 57.0677,46.5331 19.1289,-4.5236 39.056,-6.4752 57.3871,-13.571 19.1783,-7.4237 74.068,-46.0113 89.7562,-56.5886 56.4883,-38.0857 113.8298,-74.7678 171.0195,-111.7901 142.957,-92.4947 293.9558,-171.3368 443.3194,-252.7361 114.4201,-61.34 229.1699,-122.0626 344.115,-182.4297 43.4828,-21.8334 86.0341,-45.4385 128.676,-68.8491 61.983,-34.0309 13.8561,-121.6882 -48.1269,-87.6572 v 0 c -42.1005,23.1158 -84.1052,46.4357 -127.0467,67.9741 -115.3968,60.6094 -230.5981,121.5736 -345.471,183.1551 -151.5724,82.6069 -304.765,162.6876 -449.8088,256.5975 -57.7734,37.4004 -115.7481,74.4034 -172.7674,112.9479 -13.7528,9.2967 -27.3195,18.8709 -41.1874,27.9945 -9.6689,6.3611 -21.0667,10.4331 -29.4119,18.4523 -2.137,2.0535 0.6784,5.8883 1.0176,8.8326 6.8879,12.8434 13.6631,25.748 20.664,38.5302 1.3652,2.4927 -4.0572,-4.8297 -3.7537,-7.6557 1.6193,-15.0704 6.123,-29.6902 9.3567,-44.4981 17.8271,-81.6348 37.559,-162.8521 59.3302,-243.5276 91.2482,-344.9873 184.0481,-689.5737 270.225,-1035.8792 49.3276,-204.4487 106.8478,-411.0353 129.0424,-620.8103 2.6813,-25.3409 2.345,-54.2132 2.345,-80.4236 0,-70.7107 -100.0001,-70.7107 -100.0001,0 z" />
    <path
       style="fill:#ff0000;stroke-width:0.264583"
       id="path175"
       d="m -1799.6552,1955.7243 c 0.2225,110.5735 0.5005,221.1072 -2.2842,331.6495 -13.5224,234.3217 -24.4294,468.7177 -30.5053,703.3521 -3.7123,155.6551 -5.3666,311.3479 -5.8719,467.0435 -0.1324,54.509 -0.03,109.0179 0.1062,163.5268 0.043,13.9957 0.079,27.9911 0.093,41.9867 0.074,70.7107 100.0737,70.6065 100,-0.1039 v 0 c -0.015,-14.0447 -0.05,-28.089 -0.093,-42.1331 -0.136,-54.3174 -0.238,-108.635 -0.1064,-162.9524 0.5019,-154.941 2.1469,-309.8794 5.8389,-464.7808 6.0688,-234.664 17.0672,-469.0828 30.5075,-703.4377 2.7678,-111.377 2.5717,-222.7429 2.3155,-334.1507 0,-70.7107 -100,-70.7107 -100,0 z" />
    <path
       style="fill:#ff0000;stroke-width:0.264583"
       id="path176"
       d="m -2389.5732,1915.017 c 137.755,0 275.51,0 413.265,0 186.1642,0 372.3285,0 558.4927,0 129.1549,-1.5882 258.5038,-4.6016 384.5948,26.6418 63.74412,19.6369 102.13892,64.3484 137.65407,117.592 19.77877,33.609 36.58994,71.3428 34.39835,111.0719 -36.98711,49.5086 -95.09599,85.7552 -145.88242,118.7409 -93.936,61.0111 -119.4193,72.06 -223.9792,129.2412 -272.1368,142.8546 -558.1715,256.303 -846.9782,360.3057 -152.8504,50.6719 -307.5796,95.8839 -466.1001,124.7894 -12.9695,1.6764 -93.5341,14.1478 -96.3408,32.0773 -12.6318,80.6947 -4.9632,72.4556 42.3741,95.3217 163.163,62.6134 326.9519,123.3582 492.1166,180.5122 266.5104,94.0369 540.5871,163.3093 815.9295,225.7235 164.2946,37.7843 329.06884,74.5844 491.62664,119.4136 64.56937,20.2117 33.24871,10.2883 93.97346,29.7338 67.34271,21.563 97.83734,-73.674 30.49464,-95.2367 v 0 c -62.47813,-20.0036 -29.8485,-9.6814 -97.9084,-30.9055 -164.06022,-45.153 -330.27644,-82.4828 -496.08704,-120.5328 -271.7676,-61.5585 -542.289,-129.8898 -805.3314,-222.6992 -163.8949,-56.6979 -326.4132,-116.9895 -488.3194,-179.1118 -28.3486,6.3629 9.2926,-3.7841 -9.0277,69.351 -1.3708,5.4723 -10.673,4.1843 -15.0475,7.747 -1.3113,1.0678 7.8642,-4.1633 27.2629,-7.8838 10.6938,-2.0511 21.5063,-3.4261 32.2595,-5.1393 163.91,-30.0098 324.002,-76.463 482.0146,-129.078 293.6535,-105.8064 584.4744,-221.2441 861.1114,-366.6737 105.0796,-57.5926 138.0583,-72.654 233.09466,-134.8872 63.11204,-41.3281 140.74671,-89.1417 177.21,-158.9303 6.67142,-12.7687 7.68927,-27.768 11.5339,-41.6521 -1.29648,-60.132 -18.43775,-116.1726 -51.35112,-167.0052 -51.55108,-76.4909 -106.11988,-131.1704 -197.02764,-159.0431 -134.0896,-32.2068 -270.9385,-32.3148 -408.2682,-29.4842 -186.1642,0 -372.3285,0 -558.4927,0 -137.755,0 -275.51,0 -413.265,0 -70.7107,0 -70.7107,99.9999 0,99.9999 z" />
    <path
       style="fill:#ff0000;stroke-width:0.264583"
       id="path177"
       d="m -126.90792,1797.3087 c 0,171.2924 0,342.5849 0,513.8774 0,272.5369 0,545.0738 0,817.6107 0,144.4334 0,288.8666 0,433.2997 0,70.7107 99.999999,70.7107 99.999999,0 v 0 c 0,-144.4331 0,-288.8663 0,-433.2997 0,-272.5369 0,-545.0738 0,-817.6107 0,-171.2925 0,-342.585 0,-513.8774 0,-70.7107 -99.999999,-70.7107 -99.999999,0 z" />
    <path
       style="fill:#ff0000;stroke-width:0.264583"
       id="path178"
       d="m 1526.659,1699.6552 c -81.2302,-3.3177 -155.6578,25.8261 -227.5085,60.214 -117.903,69.2907 -227.0891,155.3064 -320.16556,255.7819 -26.5556,28.6666 -50.87408,59.3272 -76.31113,88.9908 -183.49036,228.4363 -327.93503,485.0349 -458.87618,746.2377 -69.44659,141.4676 -132.86491,286.5059 -176.6974,438.1611 -22.8536,79.071 -25.73246,101.4227 -41.53679,180.0756 -14.63175,88.255 -20.87831,181.2825 32.16361,259.052 29.21235,42.8307 53.00824,56.5385 92.9926,87.9033 146.67984,88.9773 319.96295,107.1123 487.23663,122.945 228.66822,7.6909 454.14152,-43.5697 667.75712,-122.3981 44.171,-16.3002 87.1975,-35.5476 130.7963,-53.3215 210.1684,-87.8366 405.2195,-204.3266 586.8628,-340.9159 78.5107,-61.0838 148.6213,-130.6253 198.8446,-216.7522 35.4848,-85.3133 13.1871,-129.4765 -55.5115,-185.5017 -90.3265,-66.3078 -202.7949,-74.3694 -310.7303,-82.9345 -174.5464,-9.8822 -349.5298,12.1489 -522.4615,34.3406 -59.8583,9.1336 -119.2487,20.9465 -178.688,32.4104 -69.431,13.3913 -50.4926,111.5816 18.9385,98.1903 v 0 c 57.3867,-11.0694 114.7241,-22.4814 172.4961,-31.4164 166.1072,-21.3794 334.2285,-42.8117 501.8949,-33.8312 87.7694,6.7982 181.8864,10.0065 256.7303,61.8429 27.9477,20.6251 41.9918,20.8828 30.6655,57.0098 -42.425,75.0102 -105.3529,133.3852 -172.3113,186.7418 -174.6779,131.5781 -362.3703,243.6122 -564.5535,328.2453 -41.51,17.0005 -82.4676,35.4179 -124.53,51.0019 -200.4849,74.2791 -412.054,123.7512 -626.82932,117.7284 -148.54328,-13.8983 -303.33524,-28.245 -435.79386,-102.7681 -106.49828,-78.9752 -106.09648,-115.6303 -87.91294,-247.954 41.93072,-210.5528 111.31388,-401.7079 209.58548,-593.0643 127.17589,-254.0327 267.50708,-503.6155 445.4753,-726.0442 23.55404,-27.6377 46.05044,-56.2129 70.66204,-82.9132 85.3701,-92.6153 185.5222,-171.9461 293.2671,-236.7809 58.1085,-28.3111 117.9643,-53.3789 184.0489,-50.2766 70.7107,0 70.7107,-100 0,-100 z" />
    <path
       style="fill:#ff0000;stroke-width:0.264583"
       id="path179"
       d="m 2987.8628,1758.8547 c 0,19.2962 0.5083,40.1734 -2.2085,59.1804 -18.5377,129.6911 -66.046,256.1574 -107.2324,379.7097 -98.7901,290.2104 -204.9844,577.832 -296.4249,870.4923 -37.1512,115.252 -66.9827,232.5056 -92.666,350.7635 -14.9925,69.103 82.7339,90.3054 97.7264,21.2026 v 0 c 25.0034,-115.3673 54.1378,-229.7319 90.3918,-342.1517 91.2013,-292.0781 197.3524,-579.0555 295.8472,-868.7032 50.5897,-151.9804 111.6539,-308.4773 114.5665,-470.4936 0,-70.7107 -100.0001,-70.7107 -100.0001,0 z" />
    <path
       style="fill:#ff0000;stroke-width:0.264583"
       id="path180"
       d="m 2258.7562,2684.0963 c 121.3276,0 242.6552,0 363.9828,0 194.8753,0 389.7507,0 584.6261,0 60.2086,0 120.4169,0 180.6255,0 70.7107,0 70.7107,-100.0001 0,-100.0001 v 0 c -60.2086,0 -120.4169,0 -180.6255,0 -194.8754,0 -389.7508,0 -584.6261,0 -121.3276,0 -242.6552,0 -363.9828,0 -70.7107,0 -70.7107,100.0001 0,100.0001 z" />
    <path
       style="fill:#ff0000;stroke-width:0.264583"
       id="path181"
       d="m 3526.2182,1739.6277 c 2.5416,109.2719 -4.5702,218.1181 -15.3654,326.7742 -29.7098,242.6394 -63.6167,484.7241 -95.4963,727.0766 -18.1669,159.548 -37.6119,319.0176 -52.7659,478.8963 -3.0268,39.7571 -5.5912,79.2417 -13.4358,118.3598 -13.653,69.3801 84.4653,88.6883 98.1181,19.3082 v 0 c 8.2232,-42.4211 11.9941,-85.1305 14.8719,-128.2366 15.0239,-158.6749 34.358,-316.9386 52.3576,-475.2869 32.0154,-243.4276 66.1025,-486.5818 95.8681,-730.3066 10.9524,-111.927 18.4822,-224.0338 15.8478,-336.585 0,-70.7107 -100.0001,-70.7107 -100.0001,0 z" />
    <path
       style="fill:#ff0000;stroke-width:0.264583"
       id="path182"
       d="m 4449.1134,1801.9084 c 0,131.3521 0,262.7041 0,394.0562 0,215.4858 0,430.9716 0,646.4573 0,117.7954 0,235.5911 0,353.3865 0,12.3875 0,24.7748 0,37.1623 0,70.7107 99.9998,70.7107 99.9998,0 v 0 c 0,-12.3875 0,-24.7748 0,-37.1623 0,-117.7954 0,-235.5911 0,-353.3865 0,-215.4857 0,-430.9715 0,-646.4573 0,-131.3521 0,-262.7041 0,-394.0562 0,-70.7107 -99.9998,-70.7107 -99.9998,0 z" />
    <path
       style="fill:#ff0000;stroke-width:0.264583"
       id="path183"
       d="m 3747.3495,2069.8062 c 169.2852,-175.0658 358.3856,-330.1895 557.7311,-469.7744 56.1665,-39.3287 114.0365,-76.1668 171.0547,-114.2501 264.2113,-171.8238 549.6184,-306.414 846.7968,-409.7575 29.1545,-8.3264 58.3089,-16.6528 87.4634,-24.9792 67.9754,-19.4767 40.4312,-115.60847 -27.5442,-96.13177 v 0 c -30.9303,8.88941 -61.8609,17.77883 -92.7912,26.66825 -305.1263,106.29542 -598.238,244.45742 -869.4868,421.05652 -58.234,38.9356 -117.3384,76.6001 -174.7022,116.8069 -205.0161,143.6975 -399.4407,303.4928 -573.2624,483.9249 -46.9776,52.8498 27.7633,119.2862 74.7408,66.4364 z" />
    <path
       style="fill:#ff0000;stroke-width:0.264583"
       id="path202"
       d="m -6085.4931,-3085.1051 c -0.2452,81.0794 -0.2508,162.1594 -0.2328,243.2391 0.49,101.7953 -1.9328,203.5753 3.107,305.2657 17.1162,186.5498 67.3711,367.9718 117.6742,547.7666 51.5271,188.7691 74.2715,383.5267 113.8344,574.8616 18.0723,105.3662 62.1636,201.7807 105.4544,298.4173 30.0678,64.6959 49.1781,133.91038 81.4546,197.62863 1.9267,3.80341 40.9978,72.4952 44.839,79.25747 22.8023,36.83281 10.7791,20.76278 34.9369,49.03732 0.1318,0.19558 2.8974,-1.66897 2.7657,-1.86452 v 0 c -23.7895,-27.94264 -11.9047,-12.00684 -34.4726,-48.66619 -3.1282,-5.53257 -43.3403,-76.59777 -44.5934,-79.07319 -32.2511,-63.72018 -51.3971,-132.91482 -81.5239,-197.57822 -43.2385,-96.4119 -87.0919,-192.6533 -104.9438,-297.8326 -39.1824,-191.4903 -61.7157,-386.3744 -113.433,-575.195 -50.2621,-179.5584 -100.7176,-360.6417 -118.1531,-546.9217 -5.212,-101.6299 -2.9483,-203.3606 -3.311,-305.1032 0.019,-81.0797 0.013,-162.1597 -0.2328,-243.2391 0,-0.2241 -3.1698,-0.2241 -3.1698,0 z" />
    <path
       style="fill:#ff0000;stroke-width:0.264583"
       id="path203"
       d="m -5824.2422,-263.88954 c -0.5783,146.60239 -0.4926,293.206323 -0.4725,439.80954 0.037,156.59518 0.08,313.19036 0.088,469.78556 -0.055,117.7267 0.07,235.45332 0.2358,353.17988 0.2061,62.10616 0.045,124.21246 -0.064,186.31856 -0.035,128.7926 -0.1942,257.5851 -0.159,386.3777 0.1759,103.4914 0.1344,206.9828 0.164,310.4742 1.8238,42.8131 7.7893,85.2507 13.6062,127.6487 0.028,0.2477 3.5309,-0.1531 3.5026,-0.4007 v 0 c -5.7378,-42.2691 -11.6959,-84.572 -13.4819,-127.248 0.03,-103.4914 -0.011,-206.9828 0.1641,-310.4742 0.035,-128.7926 -0.1241,-257.5851 -0.159,-386.3777 -0.1085,-62.1061 -0.2697,-124.2124 -0.063,-186.31856 0.1656,-117.72656 0.2907,-235.45318 0.236,-353.17988 0.01,-156.5952 0.05,-313.19038 0.087,-469.78556 0.021,-146.603217 0.1061,-293.20715 -0.4725,-439.80954 0,-0.22714 -3.2121,-0.22714 -3.2121,0 z" />
    <path
       style="fill:#ff0000;stroke-width:0.264583"
       id="path204"
       d="m -4723.1456,1991.0392 c -15.0823,166.5112 -65.7071,327.0908 -118.9429,484.6699 -40.5622,124.2124 -96.7996,243.6855 -130.5353,370.1849 -19.2437,72.1574 -24.9793,118.2547 -37.293,192.4471 -25.3871,183.3671 -41.7711,368.5931 -82.8183,549.3517 -30.0056,111.084 -88.9683,210.6848 -153.7954,304.6582 -56.5074,78.7604 -118.8421,155.0879 -154.9358,245.9233 -2.2593,5.8105 -4.5186,11.6208 -6.7778,17.4313 -0.071,0.2183 3.0165,1.2237 3.0877,1.0054 v 0 c 2.3039,-5.7901 4.6082,-11.58 6.9122,-17.3702 36.4268,-90.4367 98.7076,-166.5311 155.0231,-245.1518 64.9988,-94.3464 123.9938,-194.3756 154.3507,-305.7596 41.3923,-180.7527 58.0861,-366.0291 83.2536,-549.4919 12.0176,-72.8163 18.0909,-121.1192 36.9869,-191.9944 33.7219,-126.4854 90.4906,-245.7676 130.8888,-370.0149 53.2278,-157.8807 104.0215,-318.913 117.7653,-485.889 0,-0.2241 -3.1698,-0.2241 -3.1698,0 z" />
    <path
       style="fill:#ff0000;stroke-width:0.264583"
       id="path205"
       d="m 1612.8496,-3554.032 c 438.6294,-172.7811 876.6677,-347.0735 1316.8081,-516.0936 324.8117,-123.8911 651.1512,-244.1085 981.2255,-353.3455 148.636,-49.1905 296.8411,-96.5255 450.1578,-128.1943 8.417,1.3774 21.0775,-3.306 25.2508,4.132 8.5416,15.2233 -148.7429,96.2237 -163.6673,104.0643 -3.8158,5.1218 -30.2672,11.0297 -10.3756,7.7018 0.1662,-0.1426 -1.8489,-2.4956 -2.0153,-2.3532 v 0 c -10.5527,14.6534 6.5643,-1.2309 14.4854,-2.6247 45.3861,-23.5397 114.4124,-54.4951 150.5349,-89.0608 5.8285,-5.5772 16.5656,-13.978 12.314,-20.8336 -5.0213,-8.0968 -18.7891,-3.1708 -28.1837,-4.7562 -154.0936,30.1371 -302.8259,76.9197 -452.0374,125.8451 -330.5159,108.3739 -657.094,228.4664 -981.9648,352.602 -439.6911,169.4157 -877.1908,344.1796 -1314.2977,520.0547 -0.2024,0.1249 1.5629,2.9869 1.7653,2.862 z" />
    <path
       style="fill:#ff0000;stroke-width:0.264583"
       id="path206"
       d="m 4290.7431,-4354.1412 c -3.7994,175.8836 -37.6092,350.0024 -68.992,522.6129 -71.2864,364.1204 -162.9584,723.7796 -237.5852,1087.2036 -33.877,188.922 -71.8058,379.8764 -64.6975,572.7328 1.588,1.898 4.8281,83.998 23.7665,56.0932 0.075,-0.2048 -2.8218,-1.264 -2.8967,-1.0591 v 0 c -2.8329,23.2335 -23.4945,-51.4557 -17.2318,-55.1408 -6.3547,-192.5948 32.2625,-383.1205 66.2636,-571.7292 75.1271,-363.3327 166.8095,-723.0456 237.1823,-1087.3737 31.0584,-172.8192 64.8755,-347.2434 67.3605,-523.3397 0,-0.2241 -3.1697,-0.2241 -3.1697,0 z" />
    <path
       style="fill:#ff0000;stroke-width:0.264583"
       id="path207"
       d="m 4330.6486,-1883.3156 c 283.9093,1.0191 567.8215,1.1103 851.7321,1.2602 291.1361,0.01 582.2728,0.055 873.4073,-1.0099 33.0494,-0.2953 32.3826,0.7839 -1.6158,-3.4456 -0.2289,-0.059 -1.0604,3.1794 -0.8313,3.2382 v 0 c 34.0405,-4.2339 34.6718,-3.1506 1.5092,-3.4456 -291.3073,-1.0633 -582.617,-1.0185 -873.9259,-1.0099 -283.695,0.1498 -567.3913,0.2404 -851.0849,1.2602 -0.2228,0.057 0.5865,3.2096 0.8093,3.1524 z" />
    <path
       style="fill:#ff0000;stroke-width:0.264583"
       id="path208"
       d="m 5933.0036,-1868.8469 c -0.4812,155.9538 -0.5548,311.9087 -0.6739,467.8631 -0.1616,297.2623 -0.3172,594.52458 -0.2579,891.78694 0.7866,180.26012 -0.9369,360.54406 0.9183,540.800344 6.4924,-22.236755 2.8787,-44.748734 0.071,-67.179822 -0.024,-0.234831 -3.3456,0.116084 -3.321,0.350912 v 0 c 2.8508,22.478198 2.0129,44.6858265 6.4891,66.82891 1.8553,-180.256284 0.1321,-360.540224 0.9184,-540.800344 0.06,-297.26236 -0.096,-594.52464 -0.258,-891.78694 -0.119,-155.9544 -0.1926,-311.9093 -0.6739,-467.8631 0,-0.2272 -3.2123,-0.2272 -3.2123,0 z" />
    <path
       style="fill:#ff0000;stroke-width:0.264583"
       id="path209"
       d="m 5903.5058,-57.521964 c -156.1285,0.824045 -307.4281,51.9989037 -451.9346,106.354284 -136.217,64.11382 -282.122,123.1822 -397.7391,222.37268 -1.6198,3.55759 -7.2345,7.56841 -4.8591,10.67277 3.0676,4.00872 9.9105,2.96722 14.936,2.49634 40.8141,-3.82384 88.3783,-25.55898 127.2159,-39.04837 33.2635,-17.91978 53.9777,-9.61527 88.6153,-9.18458 136.46,-6.18568 272.2264,-21.8238 408.4979,-31.32787 101.0394,-7.33346 202.388,-7.68724 303.3673,0.13923 12.7979,0.7737 55.8549,4.38188 49.4988,26.50953 -0.621,13.00892 3.0948,25.62511 4.3505,38.62438 1.5907,32.36221 0.4808,64.79836 -0.1947,97.17513 -0.3995,20.04756 -0.8149,40.09885 -0.4421,60.14937 -41.5542,140.16939 -82.0936,281.48356 -122.2193,422.28518 -97.5331,356.17579 -199.3294,712.13059 -252.8273,1078.09039 -21.5075,84.037 -1.2814,169.8579 -8.0397,254.2553 -15.3212,38.1266 -15.1423,88.3376 -43.3805,120.0083 -0.1273,0.1824 2.4524,1.9805 2.5797,1.7981 v 0 c 28.4882,-32.3891 29.0372,-82.6042 44.0909,-121.5871 6.6411,-84.3242 -12.2089,-170.035 9.2673,-253.9127 55.0506,-365.5102 157.0133,-721.1568 253.4396,-1077.44328 39.6084,-141.21418 79.9637,-282.67657 120.1539,-423.54105 -0.3564,-20.01578 0.2739,-40.03302 0.5969,-60.04491 0.7062,-32.48009 1.8214,-65.02434 0.09,-97.48692 -1.2451,-12.71874 -4.8763,-25.04741 -4.4421,-37.76352 5.107,-25.03215 -34.7395,-29.0726 -51.4662,-30.32061 -101.7191,-8.36133 -203.858,-8.02397 -305.6798,-0.86266 -135.6079,9.41539 -270.6623,25.04117 -406.4042,32.061 -34.7527,0.0324 -57.8241,-8.64362 -91.1823,9.43425 -13.8665,4.77978 -132.4054,45.35325 -137.4809,40.61758 -2.5617,-2.39025 2.9866,-6.33921 4.4796,-9.50881 116.4212,-97.75437 261.27,-157.1832 397.486,-220.923295 143.5978,-54.0763625 293.7901,-104.794242 448.8381,-107.017983 0.2169,0.05574 1.0054,-3.014416 0.7882,-3.070156 z" />
    <path
       style="fill:#ff0000;stroke-width:0.264583"
       id="path210"
       d="m 5615.7658,2252.3113 c 5.3211,168.6528 -70.5207,321.1264 -141.9145,468.9547 -144.0866,279.446 -305.3054,549.3859 -458.5804,823.7535 -96.1696,155.5853 -167.3701,326.6083 -275.1251,474.9718 -16.9566,16.8399 -8.101,10.324 -4.8646,-1.0332 1.4975,-5.2557 1.8042,-10.7802 2.7062,-16.17 0.031,-0.2255 -3.1547,-0.6676 -3.1862,-0.4424 v 0 c -1.1824,7.2125 -11.4567,47.1987 8.2804,19.3715 109.2108,-147.5441 180.4168,-319.0188 276.8913,-474.5541 153.2141,-274.4837 314.6321,-544.3979 458.3263,-824.1355 71.2808,-148.3509 147.0977,-301.5822 140.6366,-470.7163 0,-0.2241 -3.17,-0.2241 -3.17,0 z" />
    <path
       style="fill:#ff0000;stroke-width:0.264583"
       id="path211"
       d="m -5054.4653,2088.6214 c -256.0277,-1.3309 -512.1632,-3.4728 -767.9528,10.1344 -65.4333,3.4808 -130.7341,9.1201 -196.1012,13.6802 -140.3887,13.0907 -280.3613,29.9413 -418.923,56.2117 -53.7086,10.1828 -106.8168,22.9111 -160.6669,32.316 -7.4541,0.3713 -23.7152,2.3994 -10.2783,-4.7431 0.1434,-0.1658 -2.2005,-2.1942 -2.3442,-2.0284 v 0 c -10.876,13.3442 1.6065,10.0808 13.9348,9.9341 53.998,-9.0024 107.2393,-21.4419 161.0704,-31.3895 138.6163,-25.615 278.5689,-42.0867 418.9113,-54.9676 320.1681,-21.8983 640.6454,-28.894 961.5512,-26.0365 0.2201,0.057 1.0189,-3.0548 0.7987,-3.1113 z" />
    <path
       style="fill:#ff0000;stroke-width:0.264583"
       id="path212"
       d="m -6108.0027,-3917.547 c 177.4192,0.1352 354.7864,0.2061 532.1673,4.1021 219.5689,6.4053 438.8143,31.1565 653.4319,78.4024 88.4671,19.4755 157.2604,39.3766 243.3047,62.9939 57.6776,17.0608 115.1239,36.0566 170.2806,60.2461 10.914,4.7866 22.2721,12.8524 33.7888,16.6703 -19.0941,2.2879 9.6896,21.9631 16.6214,24.5182 17.0773,8.8479 34.5578,13.5432 48.3881,27.0044 5.9925,6.0389 3.2528,3.2144 8.2457,8.4471 0.1291,0.1741 2.5929,-1.6502 2.4638,-1.8246 v 0 c -5.0062,-5.3128 -2.2574,-2.4519 -8.2783,-8.5529 -14.1536,-13.7797 -31.6679,-18.8785 -49.2371,-27.754 -9.2948,-3.0437 -28.675,-14.192 -16.7028,-24.4927 -11.0784,-3.4938 -23.2421,-12.3923 -33.3767,-16.9434 -55.0108,-24.7042 -112.4704,-43.951 -170.1316,-61.3013 -87.2556,-24.2586 -153.2683,-43.6859 -243.3217,-63.6498 -214.789,-47.6168 -434.3206,-72.4307 -654.1388,-78.6199 -178.0956,-3.5136 -356.1686,-3.3147 -534.2935,-2.3159 -0.2173,0.056 0.5712,3.1258 0.7882,3.07 z" />
    <path
       style="fill:#ff0000;stroke-width:0.264583"
       id="path213"
       d="m -4396.3089,-3657.9651 c 146.6347,-297.1252 350.0503,-562.7261 551.8872,-823.9469 56.3213,-69.0033 141.3732,-175.0367 202.942,-244.3141 21.137,-23.7831 42.9453,-47.009 65.726,-69.2229 12.4163,-12.1076 25.2838,-23.9924 39.7211,-33.6008 3.8483,-2.5612 12.3645,-6.3881 13.7271,-1.9709 2.0288,6.5768 -5.6907,12.5336 -8.5358,18.8003 -23.1954,39.1953 -49.1143,76.6714 -73.8822,114.8768 -0.1201,0.2288 3.1147,1.9253 3.2345,1.6967 v 0 c 24.8881,-38.4072 51.0387,-76.0455 73.8315,-115.7597 1.3904,-7.5271 7.8732,-15.8821 4.1709,-22.5816 -2.4969,-4.5178 -10.9525,-0.335 -15.2874,2.4669 -14.6968,9.4986 -27.7828,21.3979 -40.3992,33.5243 -99.5442,95.6784 -180.9218,208.2943 -270.0957,313.0934 -202.2316,261.2064 -406.197,527.2434 -550.1896,826.0659 -0.062,0.2228 3.0879,1.0954 3.1496,0.8726 z" />
    <path
       style="fill:#ff0000;stroke-width:0.264583"
       id="path214"
       d="m -1961.759,-4066.8246 c 364.7062,1.3171 729.4154,1.642 1094.12345,2.0936 539.11825,0.3432 1078.23658,0.7456 1617.35493,0.3527 114.45878,-0.084 228.92819,-1.918 343.37622,-0.3495 107.8633,1.4782 215.6542,6.3256 323.4813,9.4885 211.6877,17.558 429.6467,21.8913 635.3028,82.4134 18.3119,5.3891 95.9244,27.0201 107.5205,63.3519 3.0735,9.6295 -5.6363,19.4146 -8.4544,29.1221 -41.356,38.1059 -100.0213,56.2449 -155.9725,55.7686 -0.2215,-0.059 -1.0503,3.0742 -0.8287,3.133 v 0 c 57.882,0.5096 118.2016,-17.3331 160.1357,-58.1504 2.6756,-10.6379 11.3182,-21.4498 8.0269,-31.9135 -11.7607,-37.3904 -87.9644,-59.6083 -108.3112,-65.7736 -205.3579,-62.2255 -423.6697,-66.9917 -635.4272,-84.9797 -109.1163,-3.2551 -218.1964,-8.1198 -327.3488,-9.7652 -114.50558,-1.7264 -229.03707,-0.2662 -343.55566,-0.3495 -539.05799,-0.3927 -1078.11595,0.01 -1617.17388,0.3524 -364.34966,0.4517 -728.70046,0.776 -1093.04826,2.0939 -0.22,0.056 0.5788,3.1676 0.7988,3.1113 z" />
    <path
       style="fill:#ff0000;stroke-width:0.264583"
       id="path215"
       d="m -5282.0725,4197.5172 c 293.0062,183.3398 646.5405,219.5343 981.5374,263.1797 100.1197,7.6213 200.0996,17.3813 300.3593,22.8639 323.7238,17.7033 670.1917,21.9909 991.7273,-28.7742 12.9977,-4.0362 27.1238,-5.4485 38.9927,-12.1086 15.9954,-8.9755 -11.1712,-14.3137 -25.9548,-15.9023 -40.4222,-4.3437 -82.1674,0.694 -122.4224,4.1444 -10.6344,0.2771 -21.2686,0.5541 -31.9027,0.8311 -0.2331,0.065 0.6879,3.3623 0.921,3.2972 v 0 c 10.7008,-0.259 21.4014,-0.5178 32.1022,-0.7768 39.9857,-3.3779 79.8309,-6.8074 120.0076,-4.4161 8.2005,0.4879 16.7836,0.075 24.4628,2.9927 2.122,0.8061 3.1478,5.7412 1.0999,6.7201 -12.1722,5.8185 -25.9043,7.552 -38.8565,11.3281 -423.9979,63.1669 -862.916,35.4828 -1288.2001,3.5817 -334.8056,-42.9845 -687.3496,-78.5074 -981.4044,-259.1972 -0.1582,-0.1746 -2.6276,2.0616 -2.4693,2.2363 z" />
    <path
       style="fill:#ff0000;stroke-width:0.264583"
       id="path216"
       d="m -3100.1589,4443.182 c 452.4172,1.4684 904.8371,2.1227 1357.2558,2.9639 1590.50247,2.8069 3181.0073,3.2363 4771.5112,1.7952 547.6661,-5.4642 1095.5242,3.2689 1643.1781,-4.6813 -3.2096,-1.0494 -6.2664,-2.8366 -9.629,-3.148 -8.4545,-0.7827 -16.9965,0.4087 -25.4719,-0.1016 -28.1464,-1.6952 -55.7117,-8.0201 -83.2832,-13.4679 -0.2177,-0.096 -1.5758,2.984 -1.3581,3.0801 v 0 c 38.0921,7.5348 80.5087,20.4017 118.9032,10.3703 -548.4561,-7.9031 -1097.1133,0.739 -1645.5818,-4.6813 -1590.1966,-1.4404 -3180.39417,-1.0136 -4770.5893,1.7952 -451.9114,0.8409 -903.8241,1.4949 -1355.734,2.9639 -0.2199,0.057 0.5789,3.1678 0.799,3.1115 z" />
  </g>
</svg>
