<?xml version="1.0" encoding="UTF-8" standalone="no"?>
<!-- Created with Inkscape (http://www.inkscape.org/) -->

<svg
   width="13063.894mm"
   height="8098.959mm"
   viewBox="0 0 13063.894 8098.959"
   version="1.1"
   id="svg1"
   xmlns="http://www.w3.org/2000/svg"
   xmlns:svg="http://www.w3.org/2000/svg">
  <defs
     id="defs1" />
  <g
     id="layer1"
     transform="translate(4885.8369,3431.8947)">
    <path
       style="fill:#ff0000;stroke-width:0.264583"
       id="path91"
       d="m -4885.1827,-3289.4791 c -2.2313,143.5817 1.2843,286.838 9.9221,430.1588 25.1563,321.6116 112.0333,632.9665 190.2378,944.5089 74.7948,289.8368 152.4455,579.0464 213.5047,872.1657 30.0551,153.14089 61.6757,306.12075 85.8711,460.33303 6.6508,44.60468 12.474,89.44896 14.5783,134.53086 42.1952,71.39475 37.5573,-17.97872 37.4882,-24.79913 -0.1137,-14.4939 -0.093,-28.98862 -0.094,-43.48287 0.366,-80.64214 46.7792,-153.4189 80.6556,-223.95396 67.2217,-139.15041 122.8342,-283.43393 178.4311,-427.49613 43.5604,-131.0221 84.3055,-263.1533 117.9184,-397.1001 26.0387,-101.6391 47.2969,-204.4808 68.4781,-307.2398 9.4766,-44.7139 14.4762,-90.0632 18.8783,-135.4797 -29.7566,40.991 6.6133,0.6698 -26.9489,14.3775 -1.7293,0.7063 4.7027,12.6886 8.7104,23.9661 6.0489,17.022 8.0042,26.9731 12.4378,44.8648 20.2382,74.2818 41.1065,148.3351 58.4838,223.3589 27.1846,114.3436 45.5369,230.7694 61.5391,347.1613 13.1813,94.4491 11.6639,190.034 26.0901,284.2684 4.3526,32.1648 12.5698,63.6994 16.4084,95.92448 1.9446,21.84797 1.3692,43.86427 1.3583,65.78063 -0.035,19.72982 -0.1153,39.45948 -0.1632,59.18927 -0.029,12.48312 -0.032,24.9663 -0.034,37.44947 0,18.22522 0,36.45043 0,54.67567 0,18.21646 0,36.43291 0,54.6494 -2.1961,19.75098 4.2807,37.00523 13.2347,54.27485 5.4271,12.88724 9.1019,26.11922 10.5156,39.98365 4.8376,-3.11624 -2.1656,9.34286 0.8133,8.97014 12.8374,-1.6061 26.9899,-1.14808 37.986,-7.96425 4.4262,-2.74376 -0.2601,-10.42556 0.066,-15.62309 1.6618,-26.49979 6.6048,-60.63022 9.7337,-85.35929 44.6157,-251.77919 116.1857,-497.81683 190.6289,-742.10123 113.3221,-340.4571 229.0051,-679.9116 332.2846,-1023.5815 45.3499,-144.2405 78.341,-292.1297 120.3854,-437.2092 7.8539,-41.0948 27.2394,-75.2165 48.9435,-109.8904 17.4958,-21.0341 33.1882,-45.783 58.0887,-58.8288 23.2971,-13.3884 4.3632,-46.3354 -18.9338,-32.947 v 0 c -29.5233,17.8139 -51.0982,44.1156 -71.3804,71.6384 -23.4826,37.6478 -44.3561,75.1379 -53.223,119.4744 -41.8251,145.0147 -75.1298,292.6565 -120.2725,436.8262 -103.2629,343.6242 -218.9699,683.0193 -332.2423,1023.4417 -75.0567,246.3437 -147.2308,494.47033 -191.9795,748.41599 -4.1069,32.57375 -8.0497,58.20002 -10.033,89.96965 -0.3085,4.94178 -4.4797,12.63158 -0.055,14.85411 11.2927,5.67251 25.0934,3.09914 37.6947,4.05286 2.712,0.20526 -18.4275,-21.74571 -0.7149,-8.12798 -2.0164,-18.60833 -6.9284,-36.47442 -14.6278,-53.59521 -6.6598,-12.61444 -10.981,-21.98481 -8.9127,-36.67416 0,-18.21664 0,-36.43326 0,-54.64987 0,-18.22313 0,-36.44623 0,-54.66935 0,-12.45433 0.01,-24.90869 0.034,-37.363 0.048,-19.7543 0.1283,-39.50846 0.1632,-59.26278 0.011,-23.43496 0.6107,-46.97661 -1.6293,-70.32924 -3.9462,-32.63752 -12.0057,-64.60722 -16.578,-97.16422 -14.4931,-94.0102 -12.5169,-189.4684 -26.004,-283.6774 -16.1774,-117.5321 -34.7128,-235.0972 -62.1663,-350.5639 -17.4511,-75.2213 -38.2963,-149.4975 -58.6308,-223.9703 -4.9652,-19.8059 -16.8529,-98.0758 -50.5505,-95.1433 -8.4109,0.7319 -12.2288,11.6432 -18.3433,17.4649 -4.2641,44.0722 -9.0676,88.0828 -18.2732,131.4728 -21.0622,102.2347 -42.2156,204.549 -68.1188,305.6676 -33.183,132.4545 -73.5778,263.0684 -116.5114,392.6606 -55.2323,143.1244 -110.4577,286.47881 -177.2338,424.72635 -36.4075,75.81006 -84.7924,153.67839 -84.401,240.40785 0,14.62175 -0.019,29.24394 0.096,43.86535 0.2889,28.44414 -6.2532,30.36181 38.6101,28.23355 1.8674,-0.0886 -0.095,-3.73787 -0.1423,-5.60681 -2.2045,-46.45522 -8.1016,-92.67269 -14.9958,-138.63603 -24.3115,-154.83199 -56.012,-308.43667 -86.2105,-462.19216 -61.1952,-293.6152 -138.8867,-583.3412 -213.8492,-873.6662 -77.632,-309.2615 -164.0123,-618.3087 -189.1634,-937.5462 -8.6161,-142.558 -12.0652,-285.0515 -9.853,-427.8696 0,-26.87 -38,-26.87 -38,0 z" />
    <path
       style="fill:#ff0000;stroke-width:0.264583"
       id="path92"
       d="m -2968.6628,-1350.3781 c 115.0112,0 230.0221,0 345.0334,0 212.807,6.1164 424.4716,-4.9956 634.5843,-38.8588 167.0306,-30.7417 330.9815,-76.372 476.5094,-165.4338 78.3106,-49.3907 132.9073,-118.0268 168.6696,-202.2651 27.7876,-72.2913 -2.4136,-113.4235 -53.7617,-162.6028 -85.9063,-67.933 -190.4157,-107.3992 -291.1733,-147.8123 -142.2653,-61.4569 -294.5272,-84.5066 -448.1303,-91.6367 -238.4373,8.2451 -439.7794,134.2268 -630.5544,265.1832 -154.6201,115.5838 -306.7865,239.1559 -425.8085,392.6552 -19.3667,24.9767 -36.2458,51.7866 -54.369,77.6799 -56.1176,99.6337 -136.3085,230.7179 -122.1909,350.5178 2.4791,21.0395 10.3328,41.0909 15.4993,61.6363 10.2841,19.25802 18.2054,39.97825 30.8525,57.77402 77.0205,108.37717 232.6222,176.82591 346.7904,236.98346 184.5998,87.84095 382.761,157.23216 588.3128,171.97855 56.5882,4.05969 113.4608,1.21587 170.1912,1.8238 70.6786,-11.53792 141.3572,-23.07582 212.0358,-34.61372 26.5133,-4.36406 20.3416,-41.85951 -6.1717,-37.49548 v 0 c -68.4978,11.37034 -136.9956,22.74068 -205.4934,34.11101 -55.0721,-0.48257 -110.2782,2.42189 -165.2163,-1.44772 -201.226,-14.17354 -395.2161,-82.10851 -575.9471,-167.97649 -103.8125,-54.67792 -259.7833,-124.99054 -331.1361,-221.54959 -11.161,-15.10356 -18.3023,-32.79864 -27.4535,-49.19794 -12.0425,-44.0927 -21.5146,-61.8916 -15.2635,-109.0328 12.1782,-91.8392 71.5798,-192.9474 116.3423,-271.7496 17.39,-24.9432 33.5568,-50.7851 52.1698,-74.8296 116.8492,-150.9478 266.4922,-272.2786 418.3708,-385.9443 183.7646,-126.303 377.6075,-249.2542 607.3024,-258.5457 149.3652,6.7337 297.4102,29.1684 435.7247,88.9466 96.3505,38.624 196.3632,76.1778 279.1871,140.1335 37.3268,34.8796 66.8595,67.4345 44.8848,120.2265 -32.3646,77.0678 -82.005,139.513 -153.556,184.6725 -140.9545,86.9602 -300.8005,129.9883 -462.6742,160.2971 -208.095,33.6604 -417.757,44.3782 -628.5273,38.373 -115.0113,0 -230.0222,0 -345.0334,0 -26.87,0 -26.87,38 0,38 z" />
    <path
       style="fill:#ff0000;stroke-width:0.264583"
       id="path93"
       d="m -339.24906,-3416.3531 c -62.90485,131.6751 -139.11712,256.5064 -211.51374,383.0978 -76.84082,124.269 -143.82546,253.8548 -207.8651,385.0363 -11.78719,24.1466 22.36139,40.8162 34.14858,16.6695 v 0 c 63.67118,-130.4412 130.27559,-259.288 206.70318,-382.841 74.08823,-129.55 152.8839,-257.0776 215.39248,-392.7464 6.51695,-26.0678 -30.34845,-35.284 -36.8654,-9.2162 z" />
    <path
       style="fill:#ff0000;stroke-width:0.264583"
       id="path94"
       d="m -336.89133,-2112.8015 c 0,98.2643 0,196.5286 0,294.793 -4.46863,112.8677 3.8958,224.7012 21.93737,335.9874 -1.81325,55.0863 35.70012,104.1236 39.98851,157.2557 4.61182,-2.2781 -7.15864,18.5736 -3.41169,15.0496 3.74557,-3.5228 6.15413,-8.5647 10.51851,-11.2834 2.40866,-1.5004 7.42773,2.0689 8.4948,-0.5606 1.23914,-3.0535 -3.16571,-5.7806 -4.74857,-8.671 -35.56095,-114.7887 -26.61057,-239.2415 -21.36153,-357.589 10.53494,-194.4263 55.53489,-384.846 146.2039,-558.0222 20.78553,-39.7 45.581769,-77.1675 68.372657,-115.7512 146.248332,-228.9589 349.932083,-407.5851 564.486253,-569.9332 126.89173,-88.5836 258.92183,-171.7056 403.71556,-227.6171 45.15429,-14.9495 23.5445,-8.709 64.68017,-19.2307 26.02209,-6.6971 16.55104,-43.4978 -9.47105,-36.8009 v 0 c -44.221,11.4454 -21.20188,4.7305 -68.92486,20.5933 -148.00791,57.4085 -283.27894,141.8775 -412.93282,232.7556 -218.46852,165.3939 -425.605012,347.5924 -574.28653,580.9319 -23.40229,39.7566 -48.86378,78.3708 -70.20686,119.2697 -92.68416,177.6072 -138.78251,372.8667 -149.59955,572.1312 -5.5049,125.6127 -16.08392,259.8386 27.60628,380.1897 30.6042,42.6747 59.98639,25.0971 58.60531,-19.8994 -7.52208,-54.006 -38.20853,-103.2921 -40.21875,-158.9023 -17.73513,-109.2757 -25.89829,-219.0663 -21.44713,-329.9031 0,-98.2644 0,-196.5287 0,-294.793 0,-26.8701 -37.99998,-26.8701 -37.99998,0 z" />
    <path
       style="fill:#ff0000;stroke-width:0.264583"
       id="path95"
       d="m 916.46773,-1888.348 c 146.68077,0 293.36147,0 440.04217,0 282.4026,4.0529 561.6067,-30.23 834.1464,-102.8027 108.4754,-37.2448 221.9066,-75.7041 311.4565,-150.5145 36.9992,-30.9093 42.6949,-43.3601 69.4894,-80.6004 5.5907,-13.0152 13.3905,-25.29 16.7723,-39.0456 27.6866,-112.6154 -127.5588,-139.9417 -201.847,-158.1387 -191.1735,-28.3417 -386.4971,-40.398 -579.6009,-26.4861 -154.4723,11.1287 -222.1138,27.8838 -375.9004,55.8685 -351.9078,87.0987 -692.14344,225.1601 -1000.56545,416.6521 -60.4185,37.5124 -118.03872,79.3547 -177.05806,119.032 -245.2929509,181.4551 -462.68818,402.8533 -617.87554,667.1194 -23.92127,40.7352 -43.82241,83.7014 -65.73361,125.552 -54.20471,133.40332 -151.76487,349.59377 -81.33935,494.18475 13.32617,27.36006 36.57682,48.64955 54.86522,72.97431 34.26343,17.40035 65.48503,42.97751 102.79028,52.2011 227.36427,56.21491 524.46557,-59.29294 723.83747,-141.01755 347.45694,-142.42616 747.33574,-349.75016 1078.82604,-514.43231 24.0639,-11.9553 7.1565,-45.9868 -16.9074,-34.0315 v 0 c -332.2951,165.09723 -726.56676,369.57349 -1074.38536,512.56703 -191.72891,78.82265 -475.11717,189.78332 -694.73751,142.74805 -32.12288,-6.87965 -59.6292,-27.5898 -89.4438,-41.38467 -16.02237,-19.72813 -36.45146,-36.57926 -48.06714,-59.18438 -68.29174,-132.90151 28.93385,-344.11325 78.23684,-467.01863 21.31843,-40.8348 40.66101,-82.7636 63.95535,-122.5043 152.37978,-259.9642 366.113575,-477.7008 607.18667,-656.2421 58.2476,-39.1975 115.11066,-80.5354 174.74277,-117.5926 304.68284,-189.3394 640.83798,-325.8737 988.48378,-412.2382 150.6556,-27.4827 218.9015,-44.3001 370.1514,-55.2679 189.7574,-13.7601 381.6723,-1.9627 569.5995,25.4346 38.5562,9.2111 158.748,29.4626 175.3738,80.3054 6.9874,21.3679 -4.846,39.2336 -12.319,57.9105 -87.7555,124.8413 -220.1354,168.6696 -359.7762,216.4323 -269.3077,71.8928 -545.2802,105.4731 -824.357,101.5201 -146.6807,0 -293.3614,0 -440.04217,0 -26.87005,0 -26.87005,38 0,38 z" />
    <path
       style="fill:#ff0000;stroke-width:0.264583"
       id="path96"
       d="m 4320.1666,-2791.9238 c 0,87.8438 0,175.6877 0,263.5316 1.4446,177.1752 0.5869,354.1294 -7.5136,531.1285 -4.2884,157.7767 -21.2106,314.6806 -33.1163,471.9575 -5.6624,98.6235 -30.0794,194.1005 -49.3554,290.4943 -4.8368,32.9578 -9.0456,63.2687 -25.3304,92.1357 -8.395,12.9514 -0.1905,-0.8913 10.3926,-0.4346 4.5616,0.1969 10.7886,8.2851 13.0071,4.2945 4.2,-7.5549 -1.1546,-17.2706 -0.9887,-25.9129 0.3019,-15.7245 1.5941,-31.4145 2.3913,-47.1217 4.3778,-24.3995 6.908,-49.2039 13.1339,-73.1985 23.0608,-88.8736 51.095,-151.4143 89.9107,-237.0211 80.0468,-176.5405 174.3922,-343.1812 271.7959,-510.5442 165.4897,-273.1826 355.9736,-530.2995 568.9113,-768.1702 72.5009,-70.4774 143.6084,-152.1788 240.0705,-189.8378 49.3453,-16.275 87.0635,9.7454 118.85,45.471 54.6291,82.7929 64.2157,181.7093 73.919,277.8631 7.0308,143.7395 -9.4503,286.9188 -36.8384,427.7652 -24.2599,133.7896 -61.4508,264.6201 -88.215,397.8938 -2.775,15.0343 -5.5499,30.0687 -8.3249,45.103 -4.876,26.4239 32.4932,33.3194 37.369,6.8955 v 0 c 2.7376,-14.84 5.4753,-29.6799 8.2127,-44.5198 26.7573,-133.3559 64.055,-264.2472 88.2618,-398.1303 28.009,-144.4996 44.8887,-291.39 37.3411,-438.8375 -10.6045,-104.2697 -22.0614,-211.2209 -83.6543,-299.6459 -43.619,-46.863 -95.7628,-77.3343 -160.9696,-55.1659 -101.6328,41.0781 -178.253,123.7361 -254.3381,199.804 -214.589,239.8441 -406.695,498.9567 -573.4392,774.3996 -98.1606,168.7119 -193.3591,336.7157 -273.9019,514.7403 -40.1085,88.6526 -68.8319,153.0881 -92.3769,245.3024 -6.5278,25.5669 -9.1146,51.9812 -13.6721,77.9718 -0.1095,2.3094 -4.8432,68.5312 -0.9893,80.7826 10.653,33.867 32.1096,34.5525 47.2628,8.8807 18.1944,-32.4393 24.475,-66.4871 29.472,-103.3148 19.5598,-97.9072 44.261,-194.9051 49.984,-295.0744 11.9303,-157.6535 28.8848,-314.9344 33.1851,-473.0887 8.1214,-177.5779 9.0093,-355.1111 7.5533,-532.8652 0,-87.8439 0,-175.6878 0,-263.5316 0,-26.87 -38,-26.87 -38,0 z" />
    <path
       style="fill:#ff0000;stroke-width:0.264583"
       id="path97"
       d="m 6522.5487,-2373.7916 c -145.8499,1.8005 -278.0924,85.2389 -399.8322,156.826 -184.0098,116.989 -334.8093,267.0808 -456.0432,447.2303 -59.1775,104.3596 -96.7743,220.8429 -99.6887,341.0919 20.1658,161.6012 177.2552,89.2666 275.4381,50.2797 269.8888,-139.1739 513.7698,-324.5236 749.1243,-515.0807 156.7556,-136.1651 318.8272,-272.2442 420.3684,-456.1898 48.6074,-111.4327 52.9114,-172.3079 -37.025,-259.5128 -73.6528,-58.657 -165.7802,-71.4377 -256.5799,-79.6155 -52.7672,-2.9241 -26.8907,-1.8222 -77.6264,-3.3827 -26.8576,-0.8218 -28.0199,37.1605 -1.1623,37.9823 v 0 c 49.3729,1.5031 24.2388,0.4426 75.3999,3.2491 82.1015,7.3064 166.3708,17.4633 233.8075,69.3273 76.0992,70.3748 70.5758,121.2552 29.8818,213.6542 -98.38,179.9709 -258.804,311.5073 -410.9786,444.9568 -232.3862,188.2261 -473.2128,371.1969 -739.3416,509.3373 -38.7162,15.6576 -188.2981,97.4234 -218.0497,15.0828 -3.3732,-9.3356 -3.5097,-19.5399 -5.2644,-29.3098 1.8338,-112.8911 38.6704,-222.5289 93.2354,-320.6731 117.0175,-174.3405 265.843,-322.7172 443.7798,-435.679 115.7322,-68.1861 241.8652,-149.1278 380.5568,-151.5743 26.8701,0 26.8701,-38 0,-38 z" />
    <path
       style="fill:#ff0000;stroke-width:0.264583"
       id="path98"
       d="m 7673.5878,-3301.2427 c -132.4234,184.6828 -254.1497,376.0076 -367.7465,572.7972 -147.6838,254.6025 -246.399,532.235 -308.2303,819.013 -3.0737,17.8208 -23.6167,131.1811 -24.8298,157.291 -0.8443,18.17 2.563,36.2888 3.8446,54.4332 2.1112,26.787 39.9937,23.8012 37.8826,-2.9858 v 0 c -6.1614,-69.6485 6.9572,-131.9251 20.2506,-200.7368 60.8857,-282.943 158.3222,-556.839 303.9941,-808.0196 113.4618,-196.6307 235.2784,-387.6231 367.4195,-572.2414 13.8245,-23.0409 -18.76,-42.5918 -32.5848,-19.5508 z" />
    <path
       style="fill:#ff0000;stroke-width:0.264583"
       id="path99"
       d="m 6815.616,-2917.875 c 199.0239,0 398.0479,0 597.0718,0 248.4056,0 496.8115,0 745.2172,0 26.87,0 26.87,-38 0,-38 v 0 c -248.4057,0 -496.8116,0 -745.2172,0 -199.0239,0 -398.0479,0 -597.0718,0 -26.8702,0 -26.8702,38 0,38 z" />
    <path
       style="fill:#ff0000;stroke-width:0.264583"
       id="path100"
       d="m -2444.7593,154.19802 c 195.2005,63.73087 390.8713,124.93628 589.1237,178.8195 312.1825,86.65043 626.26,166.26138 938.9068,251.16107 130.92181,33.32646 257.96745,76.91837 382.58739,128.4918 22.05736,12.61329 12.2728,6.16701 29.69567,18.80946 21.86506,15.61793 43.95213,-15.30392 22.08707,-30.92185 v 0 c -22.16406,-15.63666 -9.86628,-7.77925 -37.25277,-22.99999 -126.11145,-52.18237 -254.68935,-96.29182 -387.15929,-130.05144 -312.64577,-84.89487 -626.71857,-164.51373 -938.90007,-251.15924 -199.4891,-54.19918 -396.177,-116.37817 -592.8414,-179.63228 -26.5044,-4.41741 -32.7516,33.06556 -6.2471,37.48297 z" />
    <path
       style="fill:#ff0000;stroke-width:0.264583"
       id="path101"
       d="m -1671.1946,1720.8363 c 304.0795,-250.4199 598.1456,-512.6298 894.65898,-771.8839 C -384.81381,603.92 10.18754,262.31762 414.83531,-67.524248 521.47268,-154.36715 628.29953,-240.83242 738.98018,-322.47691 c 21.62255,-15.95197 -0.93694,-46.53087 -22.55948,-30.57893 v 0 C 605.25723,-271.03567 497.92535,-184.2231 390.82588,-96.978392 -14.155852,233.14648 -409.50197,575.01847 -801.54813,920.34518 c -298.99517,261.42412 -596.73817,524.54672 -901.26437,779.41252 -14.9048,22.3573 16.7131,43.4359 31.6179,21.0786 z" />
    <path
       style="fill:#ff0000;stroke-width:0.264583"
       id="path102"
       d="m 806.40948,442.33332 c 193.41047,2.0279 386.50592,0.10578 579.63472,-10.72838 235.7435,-7.09842 468.1687,-41.71804 693.1758,-112.09726 61.2994,-24.92079 210.0239,-79.05954 177.7712,-175.12178 -5.6203,-16.73948 -19.452,-29.47561 -29.1779,-44.21341 -120.4346,-102.0370177 -277.1534,-143.892245 -427.4011,-180.797722 -186.7207,-42.886498 -377.2793,-22.259538 -560.1139,29.811514 -49.6965,14.153475 -98.0352,32.700617 -147.0528,49.0509251 C 784.43901,111.31727 502.10296,281.80075 240.10904,478.45797 156.98418,548.65748 68.481357,619.23366 5.0270494,709.18961 -18.212673,742.13539 -48.710624,791.49177 -36.094826,836.32298 c 6.446713,22.9089 26.2265951,39.71997 39.3398919,59.57996 26.1083511,15.44664 50.4403731,34.39467 78.3250541,46.33995 169.31687,72.53211 446.28773,87.25591 626.15475,75.17201 81.25799,-5.4591 161.78001,-18.91784 242.67001,-28.37675 426.66702,-94.59089 204.07052,-37.16001 666.45032,-177.4023 25.7122,-7.80272 14.6775,-44.16526 -11.0347,-36.36253 v 0 C 1147.4669,914.43708 1367.8673,857.48129 945.96343,951.29743 866.47236,960.67016 787.34676,973.97365 707.49022,979.4156 527.975,991.64893 270.67004,976.92241 100.35441,909.21032 76.841264,899.86225 55.857089,885.10622 33.608428,873.05416 23.025761,861.42498 7.5627131,852.81973 1.8604281,838.16657 -12.300941,801.7761 15.971054,759.47864 34.112067,733.64491 95.719081,645.91337 182.06433,577.25442 262.92675,508.8447 521.5851,314.53844 800.41289,146.145 1105.2884,34.278421 c 47.8914,-16.031027 95.1168,-34.20908258 143.6742,-48.093081 177.0163,-50.614307 361.4862,-71.39219 542.3966,-29.904701 141.9355,34.7685421 289.3464,74.059991 405.8765,166.453141 7.3017,8.33995 16.4837,15.35139 21.905,25.01985 35.3813,63.10025 -115.9521,122.31724 -151.2783,135.49103 -221.9673,69.61375 -451.368,103.36112 -683.9491,110.42009 -192.4181,10.81998 -384.80434,12.67055 -577.50382,10.66858 -26.87005,0 -26.87005,37.99999 0,37.99999 z" />
    <path
       style="fill:#ff0000;stroke-width:0.264583"
       id="path103"
       d="m 3761.4029,-768.33634 c -69.0145,123.49427 -132.0131,249.92449 -191.3028,378.33419 -75.1469,172.16428 -139.4542,349.428696 -180.5392,533.00019 -23.3355,104.26586 -29.7852,159.33903 -45.3927,263.4627 -9.144,103.36922 -27.3516,207.29631 -23.5043,311.52346 0.8782,23.78578 0.091,48.48656 7.9145,70.96598 6.6964,19.2404 22.915,33.6903 34.3726,50.53545 16.0313,21.56372 46.5272,-1.10808 30.4958,-22.67181 v 0 c -9.0379,-10.72284 -22.4197,-18.95371 -27.1131,-32.16857 -7.3899,-20.80775 -6.843,-43.73136 -7.6796,-65.7966 -3.8912,-102.63098 14.1814,-204.96914 23.095,-306.75972 15.3239,-102.41314 21.7538,-157.24311 44.6397,-259.72504 40.4921,-181.32376 104.0352,-356.38713 178.2127,-526.43932 58.4473,-126.63831 120.6387,-251.25693 188.4193,-373.18229 14.9048,-22.35724 -16.7132,-43.43586 -31.6179,-21.07862 z" />
    <path
       style="fill:#ff0000;stroke-width:0.264583"
       id="path104"
       d="m 3058.5328,-33.916667 c 264.8997,-0.308234 527.0957,-58.201747 786.7152,-105.461483 269.6041,-49.30318 538.4504,-102.37584 808.5209,-149.09504 26.4768,-4.58044 19.9991,-42.02425 -6.4778,-37.44381 v 0 c -270.179,46.74343 -539.1372,99.82124 -808.8492,149.15331 -257.3684,46.85755 -517.3134,104.431926 -779.9091,104.847025 -26.8703,0 -26.8703,37.999998 0,37.999998 z" />
    <path
       style="fill:#ff0000;stroke-width:0.264583"
       id="path105"
       d="m -2987.304,2046.0596 c -199.3726,328.5267 -428.9108,638.3592 -651.3317,951.5285 -309.8951,436.8472 -610.2075,880.1362 -903.882,1327.9866 -67.4627,103.2859 -134.1882,207.0468 -200.2501,311.2325 -14.3889,22.6928 17.7035,43.0417 32.0923,20.3489 v 0 c 65.9572,-104.0228 132.5796,-207.6193 199.9351,-310.7439 293.4163,-447.4567 593.4625,-890.3575 903.0858,-1326.8206 224.1198,-315.5613 456.0885,-627.5584 655.6325,-959.4192 9.9793,-24.9482 -25.3026,-39.061 -35.2819,-14.1128 z" />
    <path
       style="fill:#ff0000;stroke-width:0.264583"
       id="path106"
       d="m -3485.0416,2085.9041 c -0.7869,206.7881 30.4845,411.7345 68.8215,614.3357 49.9028,282.7764 147.9683,552.0206 253.9442,817.6467 45.8116,107.569 99.7921,210.7837 165.9832,307.0494 15.2474,22.1253 46.537,0.5625 31.2899,-21.5627 v 0 c -64.7862,-93.7895 -117.0744,-194.7336 -161.9785,-299.5687 -105.0806,-263.358 -202.4533,-530.2548 -251.9023,-810.6349 -37.9508,-200.2612 -68.9057,-402.8561 -68.158,-607.2655 0,-26.8701 -38,-26.8701 -38,0 z" />
    <path
       style="fill:#ff0000;stroke-width:0.264583"
       id="path107"
       d="m -4214.3441,3405.6666 c 154.133,0 308.266,0 462.399,0 167.5461,0 335.0924,0 502.6385,0 26.87,0 26.87,-38 0,-38 v 0 c -167.5461,0 -335.0924,0 -502.6385,0 -154.133,0 -308.266,0 -462.399,0 -26.8701,0 -26.8701,38 0,38 z" />
    <path
       style="fill:#ff0000;stroke-width:0.264583"
       id="path108"
       d="m -1905.0304,2524.0338 c -99.5166,191.8882 -198.2517,384.2119 -290.6786,579.7586 -109.8308,228.3031 -197.8867,465.9402 -255.3189,712.6504 -13.3721,63.9416 -43.395,169.5649 40.755,202.4428 47.7691,18.6637 102.3597,3.384 149.4004,-3.3756 222.3153,-52.6367 434.8943,-137.7741 651.1017,-210.3263 173.5522,-59.7138 350.1624,-110.4868 523.1808,-171.6833 21.0867,-8.907 42.1733,-17.8141 63.26,-26.7211 24.74719,-10.468 9.9434,-45.4657 -14.8038,-34.998 v 0 c -20.3775,8.632 -40.7549,17.2638 -61.1324,25.8958 -172.8054,61.1746 -349.2568,111.7817 -522.5942,171.481 -214.1186,71.8576 -424.6652,156.0049 -644.6564,208.7734 -34.1091,5.3721 -118.5117,31.7376 -149.9711,-5.4231 -32.4676,-38.3517 -1.9681,-107.7228 2.472,-147.4568 56.7278,-244.1038 144.0463,-479.144 252.6631,-705.0217 92.2954,-195.2977 190.9083,-387.3683 290.3107,-579.002 12.0166,-24.0333 -21.9716,-41.0274 -33.9883,-16.9941 z" />
    <path
       style="fill:#ff0000;stroke-width:0.264583"
       id="path109"
       d="m -627.54165,2397.0743 c 0,211.9463 0,423.8925 0,635.8389 0,199.1312 0,398.2624 0,597.3937 0,15.3958 0,30.7916 0,46.1875 0,26.87 37.99998,26.87 37.99998,0 v 0 c 0,-15.3959 0,-30.7917 0,-46.1875 0,-199.1313 0,-398.2625 0,-597.3937 0,-211.9464 0,-423.8926 0,-635.8389 0,-26.87 -37.99998,-26.87 -37.99998,0 z" />
    <path
       style="fill:#ff0000;stroke-width:0.264583"
       id="path110"
       d="m -1171.6358,2400.25 c 209.73474,0.017 419.43981,1.256 629.13393,-3.1691 308.35991,-9.0443 616.768188,-16.0117 925.22986,-20.3144 146.04539,11.576 305.6147,-31.4376 446.21505,21.5409 65.93202,43.9001 74.44383,115.3563 67.29894,188.571 -5.11257,13.0263 -7.1972,27.6967 -15.33774,39.0789 -49.98471,69.8891 -145.2423,118.5055 -218.34271,156.2854 -110.92719,57.3294 -164.35525,76.1108 -283.63259,125.3937 -374.070554,151.4673 -761.57708,265.113 -1147.69568,380.8912 -218.90995,68.4388 -440.55336,127.5612 -662.43996,185.4454 -14.1673,3.6314 -28.2191,7.7478 -42.5019,10.8943 -4.7091,1.0371 -88.9203,4.6482 -6.9575,36.3407 11.2423,4.3471 23.0629,-7.0448 34.7353,-10.051 15.7477,-4.056 31.6656,-7.4194 47.4984,-11.1291 205.69,-41.3226 414.08198,-68.8761 621.69919,-98.7912 332.07499,-52.9791 663.445,-110.1349 995.46655,-163.4239 234.80196,-38.2103 471.90019,-57.227 709.38828,-67.0946 97.68228,-2.8784 50.9754,-1.7576 140.11738,-3.4909 26.865,-0.5228 26.1257,-38.5154 -0.7393,-37.9928 v 0 c -89.67549,1.7462 -42.6889,0.6175 -140.95658,3.5165 -238.97574,9.9415 -477.55886,29.0926 -713.83167,67.5421 -331.821,53.2569 -662.99198,110.3709 -994.86412,163.332 -208.71375,30.0739 -418.21023,57.7617 -624.96743,99.409 -5.1538,1.2131 -80.7646,18.2327 -83.7011,21.5559 -63.077,71.3822 54.8712,30.7403 69.2067,26.1522 222.3291,-58.0012 444.41354,-117.2464 663.76201,-185.8156 387.33981,-116.1446 776.058382,-230.1909 1151.29814,-382.1723 145.59402,-60.2121 431.38187,-164.5007 523.05018,-303.4839 9.54641,-14.4739 11.72671,-32.6341 17.59006,-48.9512 7.7837,-91.3846 -7.82079,-176.9479 -92.10363,-227.7046 -15.02762,-5.3464 -29.57573,-12.3052 -45.08286,-16.0391 -125.76502,-30.2826 -286.44458,2.6253 -414.70145,-7.8053 -308.552577,4.3045 -617.05185,11.2709 -925.50262,20.3191 -209.42623,4.4313 -418.86417,3.1665 -628.33113,3.1607 -26.87,0 -26.87,38 0,38 z" />
    <path
       style="fill:#ff0000;stroke-width:0.264583"
       id="path111"
       d="m 1727.25,2158.9493 c 2.1132,158.6237 -1.3961,317.0329 -7.5195,475.5247 -8.3527,207.5566 -13.7643,415.2106 -17.2247,622.9013 -0.2794,19.9269 -0.5588,39.8537 -0.8381,59.7805 -0.3767,26.8674 37.6196,27.4003 37.9962,0.5326 v 0 c 0.2789,-19.8932 0.5577,-39.7867 0.8366,-59.6799 3.4551,-207.413 8.86,-414.7889 17.2017,-622.0677 6.1407,-158.9803 9.6611,-317.8792 7.5478,-476.9915 0,-26.87 -38,-26.87 -38,0 z" />
    <path
       style="fill:#ff0000;stroke-width:0.264583"
       id="path112"
       d="m 3423.7588,2097.6666 c -155.4755,26.5576 -291.7444,117.2933 -422.4864,200.5 -249.4724,167.2655 -452.3712,389.3013 -642.2767,619.3843 -135.7845,172.1381 -242.6202,341.2651 -307.9486,550.895 -12.8434,69.4687 -47.0483,164.7997 -4.0605,231.8761 30.5995,47.7461 59.4475,50.061 110.6592,72.6699 275.6396,73.0202 560.5542,36.6908 837.3777,-7.9232 395.1007,-75.2811 767.6639,-231.5192 1127.1745,-407.5229 160.6539,-84.9204 325.3322,-170.2065 467.2996,-285.0743 24.0964,-23.4442 76.0511,-66.472 56.084,-107.2983 -4.3042,-8.8006 -12.8333,-14.8061 -19.2497,-22.2091 -9.5287,-5.2404 -18.4404,-11.8065 -28.5859,-15.721 -110.4651,-42.6226 -276.1009,-42.1246 -391.515,-42.5273 -253.9405,5.6512 -500.501,72.6673 -743.0305,142.3961 -27.1674,8.8683 -54.3351,17.7366 -81.5025,26.6052 -25.5423,8.3418 -13.7451,44.464 11.7973,36.1222 v 0 c 26.7353,-8.7357 53.4704,-17.4712 80.2057,-26.207 239.0786,-68.7472 482.1002,-135.1023 732.4188,-140.9165 130.2385,0.3043 270.4912,-0.2905 393.7021,47.4736 4.4048,2.6403 13.1596,2.5631 13.3472,7.6952 0.9432,25.7895 -33.5801,49.5064 -47.6104,65.0756 -139.4251,113.4075 -302.2659,196.4981 -460.0718,280.4572 -356.1239,174.4068 -725.157,329.3521 -1116.5179,404.1365 -269.853,43.611 -547.409,79.4478 -816.553,10.4259 -34.7804,-13.8549 -66.9337,-19.1066 -89.7778,-50.8095 -41.1807,-57.1502 -4.851,-147.633 4.6976,-207.4492 63.0323,-203.4974 169.2358,-371.1014 300.9689,-537.9839 187.3299,-227.0487 387.3491,-446.3074 633.378,-611.5171 124.8365,-79.5321 254.4648,-165.8631 402.0761,-194.5535 26.8703,0 26.8703,-38 0,-38 z" />
    <path
       style="fill:#ff0000;stroke-width:0.264583"
       id="path113"
       d="m 4661.3291,1837.7231 c -18.3512,138.8485 -18.2639,279.5482 -20.683,419.3685 -2.7874,221.8063 -2.9903,443.6351 -3.1552,665.4556 -0.01,23.7117 -0.01,47.4237 -0.011,71.1354 -0.01,26.8703 37.9955,26.8764 38,0.01 v 0 c 0,-23.7046 0.01,-47.4091 0.011,-71.1134 0.1649,-221.611 0.3673,-443.2303 3.1496,-664.8269 2.3773,-137.5522 2.3463,-275.9303 19.9507,-412.5731 5.2697,-26.3483 -31.9924,-33.8007 -37.2621,-7.4524 z" />
    <path
       style="fill:#ff0000;stroke-width:0.264583"
       id="path114"
       d="m 5166.8333,1785.3678 c 0,76.4038 0,152.8075 0,229.2113 0,153.7435 0,307.487 0,461.2304 0,26.0502 0,52.1004 0,78.1505 0,24.073 0,48.146 0,72.219 0,26.87 38,26.87 38,0 v 0 c 0,-24.073 0,-48.146 0,-72.219 0,-26.0501 0,-52.1003 0,-78.1505 0,-153.7434 0,-307.4869 0,-461.2304 0,-76.4038 0,-152.8075 0,-229.2113 0,-26.87 -38,-26.87 -38,0 z" />
    <path
       style="fill:#ff0000;stroke-width:0.264583"
       id="path115"
       d="m 4272.4511,2479.625 c 149.6732,-0.8396 297.4737,-25.4768 444.1637,-52.8759 252.5848,-50.836 503.8477,-107.9222 756.1131,-160.2807 91.1592,-14.5618 181.8573,-43.0745 274.683,-44.9199 26.8618,-0.6675 25.9177,-38.6557 -0.9438,-37.9883 v 0 c -95.1481,2.7701 -188.0727,29.7375 -281.4622,45.7012 -252.018,52.3114 -503.0385,109.3258 -755.3719,160.1346 -144.381,27.0064 -289.8582,51.3575 -437.1819,52.229 -26.87,0 -26.87,38 0,38 z" />
    <path
       style="fill:#ff0000;stroke-width:0.264583"
       id="path116"
       d="m 6251.6249,1659.4059 c 0,245.2457 0,490.4914 0,735.7371 0,286.5707 0,573.1417 0,859.7124 0,59.3635 0,118.7273 0,178.0911 0,26.87 38,26.87 38,0 v 0 c 0,-59.3638 0,-118.7276 0,-178.0911 0,-286.5707 0,-573.1417 0,-859.7124 0,-245.2457 0,-490.4914 0,-735.7371 0,-26.8701 -38,-26.8701 -38,0 z" />
    <path
       style="fill:#ff0000;stroke-width:0.264583"
       id="path117"
       d="m 5704.3661,1685.875 c 228.7045,-39.8081 445.9253,-132.3695 663.3162,-211.4438 200.1046,-77.2486 405.8967,-137.8614 613.2377,-192.0939 25.9951,-6.8008 16.3772,-43.5635 -9.6178,-36.7627 v 0 c -208.4742,54.5523 -415.4001,115.4871 -616.6096,193.1457 -213.3836,77.6182 -426.3951,167.5974 -650.3265,209.1547 -26.8703,0 -26.8703,38 0,38 z" />
  </g>
</svg>
