<svg id="Layer_33" data-name="Layer 33" xmlns="http://www.w3.org/2000/svg" viewBox="0 0 730.51 1216.76"><defs><style>.cls-1{fill:#952c1f;}</style></defs><path class="cls-1" d="M60.1,106q1.89,27.33,5.16,54.53t7.92,54.39q2.61,15.25,5.67,30.43A2.5,2.5,0,0,0,83.67,244q-5.37-26.75-9.4-53.72-4-26.76-6.62-53.7Q66.16,121.32,65.1,106a2.55,2.55,0,0,0-2.5-2.5,2.52,2.52,0,0,0-2.5,2.5Z" transform="translate(-28.95 -53.2)"/><path class="cls-1" d="M102.14,148.44q7.56,23.51,17,46.33t20.86,44.94q6.38,12.36,13.33,24.41a2.5,2.5,0,0,0,3.12,1,2.54,2.54,0,0,0,1.45-2.95q-3.69-23.92-9.2-47.52T136,168.22q-4.14-13.08-8.85-26l-4.57,1.92,38.29,62.63,10.94,17.89a2.51,2.51,0,0,0,3.12,1,2.56,2.56,0,0,0,1.45-2.95q-5.13-33-11.23-65.76T152,91.62q-4-18.28-8.24-36.5l-4.18,2.44,13.39,16.78a2.53,2.53,0,0,0,3.54,0,2.56,2.56,0,0,0,0-3.54L143.07,54c-1.67-2.08-4.7.22-4.18,2.43q7.62,32.47,14.27,65.17t12.32,65.56q3.18,18.44,6.06,36.92l4.57-1.93-38.3-62.62-10.94-17.89c-1.42-2.32-5.57-.83-4.57,1.93q8.31,22.74,14.86,46.07t11.21,46.85q2.67,13.45,4.76,27l4.57-1.92Q145.49,240.4,135,218.27t-19-45.1q-4.83-12.91-9.05-26.06c-1-3.05-5.81-1.74-4.82,1.33Z" transform="translate(-28.95 -53.2)"/><path class="cls-1" d="M192,182.21a81.66,81.66,0,0,0,2.73,36.52,79.73,79.73,0,0,0,7.56,17c2.74,4.62,7.41,10.07,13.45,8.77,5.46-1.17,7.26-7,7.56-11.91a87.74,87.74,0,0,0-1.06-17,124,124,0,0,0-9.65-33.76,121.84,121.84,0,0,0-21.77-33.06,2.52,2.52,0,0,0-4.18,1.1,111.94,111.94,0,0,0-4.32,42.9,117.59,117.59,0,0,0,11.85,41.77,110.3,110.3,0,0,0,13.42,20.63,2.52,2.52,0,0,0,3.53,0,2.55,2.55,0,0,0,0-3.54,107.06,107.06,0,0,1-19.32-36.36,112.5,112.5,0,0,1-4.66-41.18,104.88,104.88,0,0,1,4.32-22.89l-4.18,1.1a118.53,118.53,0,0,1,28.85,56.91,112.81,112.81,0,0,1,2,15.65c.24,4.07,1,9.48-1.28,13.06a3.38,3.38,0,0,1-3.9,1.6c-2.13-.6-3.87-2.57-5.1-4.33a62.81,62.81,0,0,1-7.23-14.59,76.32,76.32,0,0,1-3.83-37.11,2.58,2.58,0,0,0-1.75-3.07,2.51,2.51,0,0,0-3.07,1.74Z" transform="translate(-28.95 -53.2)"/><path class="cls-1" d="M229.12,166.16a322.62,322.62,0,0,0,18.4,76q3.91,10.41,8.54,20.53a2.52,2.52,0,0,0,3.42.9,2.55,2.55,0,0,0,.89-3.42,317.88,317.88,0,0,1-23-72.69q-2-10.62-3.27-21.36a2.58,2.58,0,0,0-2.5-2.5,2.51,2.51,0,0,0-2.5,2.5Z" transform="translate(-28.95 -53.2)"/><path class="cls-1" d="M234,176.85l10.11-44.7c.6-2.67-3.15-4.5-4.57-1.92a140.84,140.84,0,0,0-15.39,43.71q-1,5.88-1.56,11.82c-.28,3.05-.65,6.61,1.24,9.27,2.16,3.06,6,3.16,9,1.21,2.44-1.62,4.29-4,7.19-4.76,5-1.29,10.65,1.8,14,5.67,4.48,5.2,5.72,12.76,7.13,19.24a90.84,90.84,0,0,0,6.22,19.22A82.46,82.46,0,0,0,277.52,252,80.94,80.94,0,0,0,307.4,275.4c1.54.69,3.11,1.34,4.69,2a2.53,2.53,0,0,0,3.08-1.75,2.56,2.56,0,0,0-1.75-3.07,77,77,0,0,1-46.5-53.1c-1.68-6.93-2.7-14.07-5.92-20.52A23,23,0,0,0,247.28,187a16.25,16.25,0,0,0-8.61-.31c-3.14.8-5.23,2.85-7.7,4.78-.74.58-1.83,1.45-2.64,1.13-.59-.23-.83-1.18-.93-2a20.93,20.93,0,0,1,.15-4.61c.16-1.86.37-3.73.61-5.59a135.3,135.3,0,0,1,13.06-42.66c.84-1.68,1.71-3.33,2.62-5l-4.57-1.92-10.11,44.69c-.71,3.14,4.11,4.48,4.82,1.33Z" transform="translate(-28.95 -53.2)"/><path class="cls-1" d="M260.66,165.25l29.13,78.09,8.2,22a2.58,2.58,0,0,0,3.08,1.74,2.52,2.52,0,0,0,1.75-3.07L273.68,185.9l-8.2-22a2.58,2.58,0,0,0-3.08-1.74,2.51,2.51,0,0,0-1.74,3.07Z" transform="translate(-28.95 -53.2)"/><path class="cls-1" d="M262.92,141.58a199.46,199.46,0,0,0,43.62-27q5.65-4.62,11-9.64l-4.18-2.43L301.05,189.2,299.52,200c-.47,3.3-1.18,6.7-1,10.05a14,14,0,0,0,3.41,8.58,25.75,25.75,0,0,0,6.67,5.05,153.36,153.36,0,0,1,14.67,9.4,125,125,0,0,1,36.28,43c1.46,2.87,5.78.34,4.31-2.52a129.24,129.24,0,0,0-47-50.84c-2.36-1.46-4.82-2.75-7.18-4.22a13.92,13.92,0,0,1-5.24-4.95c-1.4-2.58-1-5.86-.63-8.64.47-3.5,1-7,1.49-10.47l6-42.37,6.84-48.28A2.62,2.62,0,0,0,317,101a2.54,2.54,0,0,0-3,.39,194.69,194.69,0,0,1-40.69,29.48q-6.33,3.44-12.9,6.39a2.52,2.52,0,0,0-.89,3.42,2.55,2.55,0,0,0,3.42.9Z" transform="translate(-28.95 -53.2)"/><path class="cls-1" d="M329.44,148.44a294.24,294.24,0,0,0,34.37,70q6.19,9.24,13.07,18a2.5,2.5,0,0,0,3.53,0,2.55,2.55,0,0,0,0-3.53,288.38,288.38,0,0,1-38.53-65.6q-4.2-9.94-7.62-20.21c-1-3-5.85-1.73-4.82,1.33Z" transform="translate(-28.95 -53.2)"/><path class="cls-1" d="M381.57,127.11q-7,46.14-11,92.67t-4.79,93q-.48,26.13,0,52.25c.06,3.22,5.06,3.23,5,0q-.9-46.32,1.27-92.64t7.44-92.36q2.94-25.87,6.87-51.61a2.57,2.57,0,0,0-1.74-3.08,2.53,2.53,0,0,0-3.08,1.75Z" transform="translate(-28.95 -53.2)"/><path class="cls-1" d="M431.52,150.5c-12.41,4.33-18.7,17.23-23.18,28.67-2.61,6.65-4.16,14.33-.39,20.87,3.34,5.81,9.94,8.79,16.28,6s9.23-9.36,14.16-13.83a8.86,8.86,0,0,1,6.43-2.68,6.38,6.38,0,0,1,2.72.7,3.31,3.31,0,0,1,1.7,1.9c.5,1.53-.08,3.21-.61,4.65-.65,1.78-1.44,3.52-2.17,5.27q-2.34,5.56-4.72,11.12-4.73,11-9.62,22-11.07,24.81-23,49.22c-1.18,2.43,1.87,5.21,3.93,3l40.56-42.88c2.22-2.34-1.31-5.88-3.53-3.54l-40.57,42.89,3.93,3c14-28.64,27.16-57.67,39.33-87.11,1.37-3.31,2.41-7,.7-10.38a9.24,9.24,0,0,0-6.5-4.6c-6.42-1.24-11.47,2.6-15.33,7.34-3.22,4-7.67,11.27-13.8,9.92-5.85-1.3-7.76-8.35-7-13.5a44.64,44.64,0,0,1,3.77-11.51,79.25,79.25,0,0,1,4.54-9c3.22-5.43,7.58-10.57,13.71-12.71a2.56,2.56,0,0,0,1.74-3.08,2.52,2.52,0,0,0-3.07-1.74Z" transform="translate(-28.95 -53.2)"/><path class="cls-1" d="M477.84,197.05c3.88,11.89,3.12,24.74,7.07,36.6,3.15,9.5,10.74,19.06,20.88,21.44a19.12,19.12,0,0,0,14.87-2.61,30.67,30.67,0,0,0,9.94-11.72c5.43-10.38,8.12-22.41,8.77-34a90.75,90.75,0,0,0-5-35.27c-3.45-9.7-9.26-19.42-18.36-24.77a22.36,22.36,0,0,0-14-3.15,24.31,24.31,0,0,0-13.84,6.95,47.24,47.24,0,0,0-9,12.64,110.05,110.05,0,0,0-6.71,16.42c-7.41,22.95-8,47.48-7.72,71.38,0,3,.07,5.89.11,8.84.05,3.21,5.05,3.22,5,0-.33-22.53-.65-45.43,4.34-67.54,2.36-10.49,5.82-21.14,11.4-30.38,4.48-7.41,11.81-14.84,21.28-13.3,9.05,1.47,15.67,9.63,19.69,17.3a66.67,66.67,0,0,1,5.28,14.51,85,85,0,0,1,2.52,16.48,86.73,86.73,0,0,1-4.6,33.09c-2.85,8.24-7.53,18.59-17,20.5-9.1,1.83-17.14-6.2-21-13.5-2.53-4.75-3.63-10.16-4.47-15.43-.92-5.78-1.42-11.63-2.48-17.39a66.92,66.92,0,0,0-2.09-8.37c-1-3-5.83-1.74-4.82,1.33Z" transform="translate(-28.95 -53.2)"/><path class="cls-1" d="M59.92,479.1a335.92,335.92,0,0,1-23.31-82.34c-1.18-7.9-2-15.85-2.66-23.82l-4.66,1.27L52.14,421.3,75,468.4l12.84,26.46c1.25,2.58,5.32.76,4.57-1.93C86,470,79.52,447,73.56,423.93S62.18,377.82,57.7,354.5C55.19,341.38,53,328.19,51.17,315l-4.57,1.93q14.85,32.44,27.24,65.93t22.29,68q5.55,19.29,10.27,38.8c.75,3.13,5.58,1.8,4.82-1.33q-8.46-34.87-19.5-69.06t-24.61-67.4Q59.4,332.9,50.92,314.35a2.49,2.49,0,0,0-3.13-1,2.57,2.57,0,0,0-1.44,2.95c3.23,23.6,7.71,47,13,70.23s11.24,46.16,17.5,69.08c3.53,12.9,7.15,25.79,10.76,38.67l4.57-1.93L69.3,445.24,46.45,398.15,33.61,371.68c-1.07-2.2-4.84-1.17-4.66,1.26a340.77,340.77,0,0,0,17.68,85.55c2.7,7.82,5.71,15.53,9,23.14a2.51,2.51,0,0,0,3.42.89,2.57,2.57,0,0,0,.9-3.42Z" transform="translate(-28.95 -53.2)"/><path class="cls-1" d="M100.84,387.38a265.83,265.83,0,0,0,19.37,67.14q3.95,9,8.54,17.68c1.21,2.27,4.59,1.11,4.66-1.26a448.07,448.07,0,0,0-2.22-59.07,453.28,453.28,0,0,0-10-58.46q-3.89-16.19-9-32c-1-3.05-5.81-1.75-4.82,1.33a447.35,447.35,0,0,1,14.22,57.13,444.24,444.24,0,0,1,6.49,57.85q.76,16.6.28,33.25l4.66-1.26a260.58,260.58,0,0,1-23.8-64.32q-2.16-9.58-3.61-19.3a2.51,2.51,0,0,0-3.07-1.75,2.56,2.56,0,0,0-1.75,3.07Z" transform="translate(-28.95 -53.2)"/><path class="cls-1" d="M159.54,367.83c-.15,22.6-12.61,43.66-9.17,66.54,1.33,8.79,5.56,17.47,12.46,23.23,6.64,5.55,15.46,8.14,23.83,5.15,8.53-3.05,16-11.14,15-20.71a2.56,2.56,0,0,0-2.5-2.5,2.51,2.51,0,0,0-2.5,2.5c.74,6.92-4.13,12.83-10.38,15.53-6.8,2.93-14.31,1.17-19.91-3.5-6.19-5.18-9.82-12.68-11.09-20.57-1.64-10.2.46-20.68,2.9-30.57,2.84-11.55,6.29-23.1,6.37-35.1,0-3.22-5-3.22-5,0Z" transform="translate(-28.95 -53.2)"/><path class="cls-1" d="M201,331.59Q204,365,209.42,398q5.37,32.84,13.15,65.22,4.38,18.24,9.51,36.28c.88,3.09,5.71,1.78,4.83-1.33q-9.07-31.89-15.8-64.38t-11-65.19q-2.42-18.48-4.08-37a2.56,2.56,0,0,0-2.5-2.5,2.52,2.52,0,0,0-2.5,2.5Z" transform="translate(-28.95 -53.2)"/><path class="cls-1" d="M247.4,289.84q-1.93,38.7-.8,77.47,1.14,38.61,5.32,77.05,2.37,21.74,5.71,43.35a2.51,2.51,0,0,0,3.07,1.74,2.56,2.56,0,0,0,1.75-3.07q-5.86-38.1-8.67-76.57-2.81-38.28-2.59-76.69.13-21.66,1.21-43.28c.17-3.22-4.83-3.21-5,0Z" transform="translate(-28.95 -53.2)"/><path class="cls-1" d="M199.58,396l45.55-22.13,12.95-6.29a2.5,2.5,0,0,0-2.53-4.31L210,385.37l-12.95,6.29a2.52,2.52,0,0,0-.9,3.42,2.56,2.56,0,0,0,3.42.9Z" transform="translate(-28.95 -53.2)"/><path class="cls-1" d="M290.17,373.89,301.9,429.3l11.73,55.41L320.25,516c.66,3.15,5.48,1.82,4.82-1.33l-11.73-55.41L301.61,403.8,295,372.56c-.66-3.15-5.48-1.82-4.82,1.33Z" transform="translate(-28.95 -53.2)"/><path class="cls-1" d="M241.73,437.05Q262,419.85,281,401.28t36.69-38.39q9.94-11.16,19.46-22.69a2.57,2.57,0,0,0,0-3.53,2.52,2.52,0,0,0-3.54,0q-16.9,20.47-35.17,39.78t-37.83,37.27q-11,10.11-22.38,19.8a2.51,2.51,0,0,0,0,3.53,2.54,2.54,0,0,0,3.53,0Z" transform="translate(-28.95 -53.2)"/><path class="cls-1" d="M298.27,350.52l17.88,69.72L334,490l10.06,39.22c.8,3.11,5.62,1.79,4.82-1.33L331,458.12l-17.88-69.71-10.06-39.22c-.8-3.11-5.62-1.79-4.82,1.33Z" transform="translate(-28.95 -53.2)"/><path class="cls-1" d="M314.27,310.58q8.09,42.21,19.37,83.7,11.22,41.24,25.56,81.53,8.12,22.82,17.22,45.26a2.57,2.57,0,0,0,3.07,1.74,2.51,2.51,0,0,0,1.75-3.07q-16.12-39.83-29.2-80.8-13-40.71-22.82-82.33-5.58-23.57-10.13-47.36a2.5,2.5,0,0,0-4.82,1.33Z" transform="translate(-28.95 -53.2)"/><path class="cls-1" d="M315.62,466.59a274.14,274.14,0,0,1,37.16-49q6.09-6.39,12.59-12.38c2.37-2.18-1.17-5.71-3.53-3.53a279.27,279.27,0,0,0-41,47.47q-5,7.28-9.5,14.87c-1.65,2.77,2.67,5.29,4.31,2.53Z" transform="translate(-28.95 -53.2)"/><path class="cls-1" d="M404.76,490.55Q393,464.27,383.27,437.17t-17.61-55q-4.43-15.72-8.18-31.61l-3.68,2.82c9.25,4.17,15.82,11.93,20.91,20.49,5.9,9.92,10.22,20.76,14.85,31.3q16.37,37.31,31.8,75,8.65,21.15,17,42.44a2.56,2.56,0,0,0,3.07,1.74,2.51,2.51,0,0,0,1.75-3.07Q428.06,482.8,412,444.68q-8-19-16.31-37.95c-4.8-11-9.3-22.25-15.12-32.74-5.68-10.23-13.29-20-24.2-24.89a2.53,2.53,0,0,0-3.67,2.82q6.72,28.32,15.48,56.1t19.54,54.81q6.07,15.26,12.76,30.25a2.53,2.53,0,0,0,3.43.89,2.56,2.56,0,0,0,.89-3.42Z" transform="translate(-28.95 -53.2)"/><path class="cls-1" d="M385.43,455.39l33.42-31.75c2.34-2.22-1.2-5.75-3.53-3.54l-33.43,31.76c-2.34,2.22,1.2,5.75,3.54,3.53Z" transform="translate(-28.95 -53.2)"/><path class="cls-1" d="M408,332.28q8.19,35.5,18.07,70.6t21.47,69.64q6.51,19.46,13.56,38.73a2.57,2.57,0,0,0,3.08,1.74,2.51,2.51,0,0,0,1.74-3.07q-12.51-34.23-23.36-69t-20-70.08q-5.16-19.86-9.75-39.85c-.73-3.13-5.55-1.81-4.83,1.33Z" transform="translate(-28.95 -53.2)"/><path class="cls-1" d="M378.24,405.64a335,335,0,0,1,60-34.25c5.92-2.61,11.92-5,18-7.28a2.56,2.56,0,0,0,1.75-3.07,2.53,2.53,0,0,0-3.08-1.75,337.44,337.44,0,0,0-62.7,31q-8.39,5.29-16.45,11.08a2.57,2.57,0,0,0-.89,3.42,2.51,2.51,0,0,0,3.42.89Z" transform="translate(-28.95 -53.2)"/><path class="cls-1" d="M533.44,328.92q9.07,37.17,19.72,73.95,10.58,36.53,22.68,72.59,6.85,20.44,14.21,40.71a2.56,2.56,0,0,0,3.08,1.74,2.52,2.52,0,0,0,1.74-3.07q-13-36-24.55-72.49-11.45-36.27-21.34-73-5.61-20.82-10.72-41.76c-.76-3.13-5.58-1.8-4.82,1.33Z" transform="translate(-28.95 -53.2)"/><path class="cls-1" d="M58.69,616.41A363.31,363.31,0,0,0,85.24,698q5.07,11,10.87,21.6c1.34,2.46,5.43.79,4.56-1.93l-16-50.77-16-50.77-9-28.6-4.18,2.43L92.6,637.46,129.85,685l20.92,26.72c1.51,1.92,5.13-.17,4.18-2.43l-25.88-61.7q-13-31-26-61.93L88.52,550.9a2.59,2.59,0,0,0-3.08-1.75,2.51,2.51,0,0,0-1.74,3.08l25.88,61.7q13,31,26,61.93l14.58,34.76,4.18-2.43-37.24-47.55L79.83,613.09,58.9,586.37c-1.57-2-4.89.18-4.18,2.43l16,50.78,16,50.77,9,28.6,4.57-1.93A358.35,358.35,0,0,1,69,638.62Q65.86,627,63.51,615.08a2.52,2.52,0,0,0-3.07-1.75,2.55,2.55,0,0,0-1.75,3.08Z" transform="translate(-28.95 -53.2)"/><path class="cls-1" d="M159.41,645.86a68.44,68.44,0,0,0,14,46,66.33,66.33,0,0,0,9.67,10.22c1.56,1.32,4.32.54,4.27-1.77a121.6,121.6,0,0,0-7.8-40A126,126,0,0,0,159,624.8a116.11,116.11,0,0,0-14.11-14.46c-2.67-2.3-5.72-4.67-9.26-5.36a9.11,9.11,0,0,0-9.21,3.21c-3.89,5-2.25,12.29-1.08,18a169.23,169.23,0,0,0,6,21.54,171.93,171.93,0,0,0,19.87,39.7c1,1.56,2.14,3.09,3.24,4.62a2.57,2.57,0,0,0,3.42.89,2.51,2.51,0,0,0,.9-3.42,167.49,167.49,0,0,1-20.19-36.6A171.08,171.08,0,0,1,132,632.67q-1.29-5.05-2.27-10.17a24.19,24.19,0,0,1-.57-8c.28-1.93,1-3.87,3-4.58,2.78-1,6,1.25,8,2.89a102.43,102.43,0,0,1,13.55,13.36,119,119,0,0,1,28.6,74.1l4.26-1.77a64,64,0,0,1-21.78-39.72,61.74,61.74,0,0,1-.39-13,2.5,2.5,0,0,0-5,0Z" transform="translate(-28.95 -53.2)"/><path class="cls-1" d="M179.09,606.36Q185,629.73,193,652.54q8,23,18,45.19,5.58,12.45,11.75,24.6c1.46,2.87,5.78.34,4.32-2.53q-10.83-21.31-19.8-43.5t-16-45.24q-3.94-12.93-7.27-26c-.79-3.12-5.61-1.8-4.82,1.33Z" transform="translate(-28.95 -53.2)"/><path class="cls-1" d="M193.87,591.34,200.49,560a2.5,2.5,0,0,0-4.82-1.33,243.9,243.9,0,0,0-16.22,83.11c-.06,3.34-.14,6.7.06,10,.17,2.91.63,6,2.25,8.49a11.4,11.4,0,0,0,7.53,4.86c2.76.54,5.58.43,8.34.86,11.19,1.72,19.29,11.21,24.84,20.36,7.15,11.75,12,25.19,22.51,34.55,2.4,2.13,6-1.39,3.54-3.54-9.05-8-13.82-19.42-19.57-29.8-5.44-9.81-12.75-19.83-23.38-24.4a29.77,29.77,0,0,0-8.39-2.24c-2.66-.3-5.41-.17-8-1-5.54-1.73-4.77-9.19-4.77-13.74A237,237,0,0,1,188,605.13,242.46,242.46,0,0,1,200.49,560l-4.82-1.33L189.05,590c-.66,3.14,4.16,4.48,4.82,1.33Z" transform="translate(-28.95 -53.2)"/><path class="cls-1" d="M213.87,595.52,252,673.63l10.73,22A2.5,2.5,0,0,0,267,693.1L228.92,615l-10.73-22a2.52,2.52,0,0,0-3.42-.89,2.55,2.55,0,0,0-.9,3.42Z" transform="translate(-28.95 -53.2)"/><path class="cls-1" d="M216.54,575.77,277.8,575l-2.15-3.76a365,365,0,0,0-21.53,40.08A371.07,371.07,0,0,0,237.64,654q-3.88,12.24-6.89,24.75a2.54,2.54,0,0,0,3.68,2.82c7.9-4,17.37-1.49,24.49,3,8.1,5.1,14.5,12.67,21.08,19.51q22.28,23.19,44.56,46.39l25.22,26.24c2.23,2.33,5.77-1.21,3.54-3.53l-45.95-47.82-23-23.91c-6.93-7.21-13.65-15-22-20.61-8.89-5.88-20.55-8.6-30.45-3.58l3.68,2.82a365.66,365.66,0,0,1,13.22-43,361.43,361.43,0,0,1,18.5-41.1q5.94-11.26,12.66-22.09A2.53,2.53,0,0,0,277.8,570l-61.26.74c-3.21,0-3.22,5,0,5Z" transform="translate(-28.95 -53.2)"/><path class="cls-1" d="M285.9,619.76a95.1,95.1,0,0,0,13.47,26.88c2.88,4,6,8.28,10,11.28,3.41,2.59,8.23,3.63,11.94,1,6.66-4.78,5.47-14.76,4.5-21.77q-2.38-17.26-4.78-34.53l-5.4-39L310.76,565q8.91,44.22,13.95,89.11,5,44.69,6.12,89.69.63,25.39,0,50.81c-.08,3.22,4.92,3.22,5,0q1.08-45.43-1.79-90.85-2.87-45.19-9.66-90-3.79-25.12-8.81-50a2.54,2.54,0,0,0-3.08-1.75,2.58,2.58,0,0,0-1.75,3.08q4.49,32.31,9,64.63c.64,4.63,1.59,9.33,1.81,14,.14,3-.06,6.39-1.29,8.89-.16.32-.33.63-.52.94a3.08,3.08,0,0,1-.38.53,3.53,3.53,0,0,1-1.34,1.1c-.41.24-.11.09-.46.2-.08,0-1,.23-.66.19a5.05,5.05,0,0,1-2.71-.38,14.64,14.64,0,0,1-4.71-3.82q-2.29-2.52-4.37-5.24a90.49,90.49,0,0,1-14.37-27.57c-1-3.06-5.8-1.75-4.82,1.33Z" transform="translate(-28.95 -53.2)"/><path class="cls-1" d="M413.52,698.84,397,618.66,392.32,596l-4.56,1.92,24.53,52.91,24.53,52.9,13.83,29.85a2.53,2.53,0,0,0,3.43.89,2.56,2.56,0,0,0,.89-3.42l-24.53-52.9-24.53-52.91L392.07,595.4a2.48,2.48,0,0,0-3.12-1,2.54,2.54,0,0,0-1.45,3L404,677.5l4.67,22.67a2.5,2.5,0,0,0,4.83-1.33Z" transform="translate(-28.95 -53.2)"/><path class="cls-1" d="M395.35,680.93A67.85,67.85,0,0,1,426.13,660c3-1,1.74-5.83-1.33-4.83a72.81,72.81,0,0,0-33,22.22,2.57,2.57,0,0,0,0,3.54,2.53,2.53,0,0,0,3.54,0Z" transform="translate(-28.95 -53.2)"/><path class="cls-1" d="M398,584.64q5.5,27.4,13.07,54.32t17.22,53.4q5.4,14.79,11.42,29.35a2.59,2.59,0,0,0,3.08,1.75,2.52,2.52,0,0,0,1.74-3.08q-10.68-25.82-19.4-52.39t-15.45-53.94q-3.75-15.3-6.86-30.74a2.5,2.5,0,0,0-4.82,1.33Z" transform="translate(-28.95 -53.2)"/><path class="cls-1" d="M398,593.45l58.09,9.79-.59-4.57a102.15,102.15,0,0,0-32.28,38.23,103.45,103.45,0,0,0-5.36,13.36c-.62,1.94,1.9,4.16,3.67,2.82l41.64-31.46,11.76-8.88-3.68-2.82a747.14,747.14,0,0,0-14.66,94.32q-1.21,13.38-1.94,26.82c-.17,3.21,4.83,3.2,5,0a735.2,735.2,0,0,1,11.07-93.46q2.44-13.23,5.36-26.35c.42-1.9-1.8-4.25-3.68-2.83l-41.64,31.46L419,648.77l3.67,2.82a96.88,96.88,0,0,1,25.12-40.07A92.57,92.57,0,0,1,458,603a2.52,2.52,0,0,0,1.19-2.49,2.45,2.45,0,0,0-1.79-2.08l-58.09-9.79a2.56,2.56,0,0,0-3.07,1.74,2.53,2.53,0,0,0,1.74,3.08Z" transform="translate(-28.95 -53.2)"/><path class="cls-1" d="M466.17,637.48a72.92,72.92,0,0,0,13.46,50.66c5,6.86,13,15.1,22.44,12.54,7.67-2.07,11-10.33,12.09-17.46a99.9,99.9,0,0,0-.23-29.65,105.08,105.08,0,0,0-3.25-14.68,60.88,60.88,0,0,0-4.87-12.32c-3.76-6.7-10.56-12.76-18.79-10.48s-12.24,10.9-14.85,18.15a98.64,98.64,0,0,0-2.67,57.22c.59,2.31,1.27,4.58,2,6.84,1,3,5.85,1.73,4.82-1.33a94,94,0,0,1-2.13-52.24,84.88,84.88,0,0,1,3.92-12.16,26.65,26.65,0,0,1,5.54-8.77,9.71,9.71,0,0,1,8.19-3.13c2.93.45,5.39,2.54,7.25,4.82a30.58,30.58,0,0,1,4.71,8.63,100.38,100.38,0,0,1,3.9,13.27A101.77,101.77,0,0,1,510,674.8c-.34,6.39-.83,14.64-5.92,19.27-6.08,5.52-14.05-1-18.12-5.9a67.92,67.92,0,0,1-15.2-44.58c.05-2,.2-4.08.43-6.11a2.52,2.52,0,0,0-2.5-2.5,2.55,2.55,0,0,0-2.5,2.5Z" transform="translate(-28.95 -53.2)"/><path class="cls-1" d="M511.84,630.73A82.33,82.33,0,0,0,519.53,659a78,78,0,0,0,7.38,12.45,52.6,52.6,0,0,0,9.69,10.77c3.76,2.95,8.43,5.25,13.32,4.3,4.42-.86,7.46-4.43,8.82-8.54s1.19-8.58.87-12.83a142.14,142.14,0,0,0-13.42-50.66,2.52,2.52,0,0,0-3.42-.89,2.55,2.55,0,0,0-.9,3.42,137.88,137.88,0,0,1,9.62,27.72A136.46,136.46,0,0,1,554,659.22a68.83,68.83,0,0,1,.72,13.06c-.22,3-1,6.59-3.62,8.39-3.27,2.26-7.25.58-10.19-1.41-3.45-2.33-6.24-5.71-8.74-9a78.4,78.4,0,0,1-7.07-11.19,76,76,0,0,1-8.3-28.35,2.57,2.57,0,0,0-2.5-2.5,2.51,2.51,0,0,0-2.5,2.5Z" transform="translate(-28.95 -53.2)"/><path class="cls-1" d="M573.28,564.64l24.84,92.6,7,26c.83,3.11,5.65,1.79,4.82-1.33l-24.84-92.6-7-26c-.84-3.11-5.66-1.79-4.83,1.33Z" transform="translate(-28.95 -53.2)"/><path class="cls-1" d="M528.49,604.25l59.89-36.45,17-10.34c2.74-1.67.23-6-2.53-4.32L543,589.6l-17,10.34c-2.74,1.67-.23,6,2.53,4.31Z" transform="translate(-28.95 -53.2)"/><path class="cls-1" d="M53.68,858.74a250.46,250.46,0,0,0,14.54,46.47q2.72,6.39,5.76,12.63a2.5,2.5,0,0,0,4.32-2.53,244.66,244.66,0,0,1-16.66-44.62q-1.76-6.59-3.14-13.28a2.5,2.5,0,0,0-4.82,1.33Z" transform="translate(-28.95 -53.2)"/><path class="cls-1" d="M79.67,752l17.19,68.28,17.25,68.53,9.69,38.5c.79,3.12,5.61,1.8,4.83-1.33l-17.2-68.28L94.18,789.14l-9.69-38.5c-.79-3.12-5.61-1.8-4.82,1.33Z" transform="translate(-28.95 -53.2)"/><path class="cls-1" d="M59.94,869.39A136.9,136.9,0,0,1,94.14,837q5.64-3.75,11.65-6.92c2.84-1.51.31-5.83-2.53-4.32a142.47,142.47,0,0,0-38.65,30.1c-3.18,3.51-6.16,7.18-9,11a2.52,2.52,0,0,0,.9,3.42,2.56,2.56,0,0,0,3.42-.89Z" transform="translate(-28.95 -53.2)"/><path class="cls-1" d="M102.48,868.1a80.32,80.32,0,0,0,3.84,29.16c3,9,7.45,18.21,13.91,25.29a27.86,27.86,0,0,0,11.33,7.87,16.87,16.87,0,0,0,12.6-.73c7.14-3.34,10.92-11.53,12.54-18.82,1.86-8.32,1.64-17.17.41-25.56a84.23,84.23,0,0,0-7.75-24.79,83.28,83.28,0,0,0-14.73-21.13,79.36,79.36,0,0,0-9.79-8.62c-3.7-2.78-7.82-5.18-12.5-5.72a10.9,10.9,0,0,0-11,5.67c-2.1,4-2.1,8.83-2.09,13.28a126.49,126.49,0,0,0,4.15,32q1,3.9,2.3,7.72c1,3,5.84,1.73,4.82-1.33a121.9,121.9,0,0,1-5.92-29.22,99.35,99.35,0,0,1-.23-14.33c.21-3.07.92-7.07,4.09-8.46,3.41-1.49,7.55.5,10.45,2.26a57.72,57.72,0,0,1,9.15,7.19,79.25,79.25,0,0,1,24.74,63.74c-.57,6.64-2.35,14.07-7.2,19a11.89,11.89,0,0,1-8.22,3.74c-3.73.08-7.27-1.68-10.1-4a39.9,39.9,0,0,1-8.16-9.59A74.52,74.52,0,0,1,113,901a76.46,76.46,0,0,1-5.58-26q-.11-3.44.08-6.85c.18-3.22-4.82-3.21-5,0Z" transform="translate(-28.95 -53.2)"/><path class="cls-1" d="M161.32,861.64a131.56,131.56,0,0,0,16.49,52.43c1.17,2.06,4.86,1.27,4.66-1.26q-2-24.49-4-49l-4.66,1.26a200.92,200.92,0,0,0,31.93,36.64q5.1,4.57,10.51,8.79A2.55,2.55,0,0,0,219,911a2.44,2.44,0,0,0,1.53-2.28,751.44,751.44,0,0,0-13.85-80.67q-2.53-11.14-5.43-22.2c-.81-3.11-5.64-1.79-4.82,1.33a749.25,749.25,0,0,1,16.13,79.06q1.67,11.22,3,22.48l4.27-1.77A198.19,198.19,0,0,1,186,873.28c-2.74-3.48-5.33-7.07-7.82-10.73-1.27-1.87-4.88-1.41-4.66,1.26q2,24.5,4,49l4.66-1.26a125.47,125.47,0,0,1-15.81-49.91,2.57,2.57,0,0,0-2.5-2.5,2.51,2.51,0,0,0-2.5,2.5Z" transform="translate(-28.95 -53.2)"/><path class="cls-1" d="M270,913.14a575.75,575.75,0,0,0-11.13-64.7q-2.08-9-4.46-17.89l-4.57,1.92L282,876.62l9.07,12.44a2.51,2.51,0,0,0,4.57-1.92q-8.13-36.5-16.27-73l-4.56-20.43-4.57,1.92q22.11,41.93,44.21,83.84L327,903.33c1.5,2.85,5.82.32,4.32-2.52Q309.21,858.89,287.11,817l-12.56-23.83c-1.37-2.59-5.17-.76-4.57,1.92q8.13,36.5,16.27,73l4.56,20.44,4.57-1.93L263.2,842.39,254.13,830a2.51,2.51,0,0,0-4.57,1.93A568.29,568.29,0,0,1,262.61,895q1.32,9,2.36,18.1a2.57,2.57,0,0,0,2.5,2.5,2.52,2.52,0,0,0,2.5-2.5Z" transform="translate(-28.95 -53.2)"/><path class="cls-1" d="M308,830.27a107.53,107.53,0,0,0,13,36.15,109.12,109.12,0,0,0,11.3,16c4,4.75,8.45,9.41,14.34,11.81,5.62,2.29,12.41,1.06,15.37-4.7,2.67-5.21,1.63-11.36.48-16.82A200.33,200.33,0,0,0,327.3,795a2.58,2.58,0,0,0-3.42-.9,2.51,2.51,0,0,0-.9,3.42,196.49,196.49,0,0,1,32.68,68.13q1.18,4.62,2.15,9.29a31.93,31.93,0,0,1,.84,7.54,9.5,9.5,0,0,1-1.86,5.93,6.18,6.18,0,0,1-5.71,2c-5.5-.77-9.86-5.38-13.37-9.28A100.78,100.78,0,0,1,327,866.73a104.14,104.14,0,0,1-14.19-37.79,2.52,2.52,0,0,0-3.07-1.75,2.56,2.56,0,0,0-1.75,3.08Z" transform="translate(-28.95 -53.2)"/><path class="cls-1" d="M384.6,802a222.32,222.32,0,0,0-3.35,27.7c-.5,8.74-.77,17.71.37,26.42,1,7.87,3.5,15.84,9.24,21.6,5.15,5.16,12.51,8.34,19.85,7,4.23-.77,7.64-3.69,11.79-4.62a4.68,4.68,0,0,1,4.07.88,3.82,3.82,0,0,1,1.14,1.36.9.9,0,0,1-.07,1.08c-1.57,2.82,2.75,5.34,4.32,2.53,2-3.49.17-7.17-2.87-9.29-3.23-2.27-7.07-1.94-10.57-.5s-6.52,3.63-10.25,3.87a16.51,16.51,0,0,1-9.24-2.3c-6.59-3.75-10.09-10.49-11.69-17.68-1.85-8.28-1.61-17.07-1.32-25.49a211.27,211.27,0,0,1,3.41-31.23,2.58,2.58,0,0,0-1.75-3.08A2.54,2.54,0,0,0,384.6,802Z" transform="translate(-28.95 -53.2)"/><path class="cls-1" d="M409.78,820.28a452.25,452.25,0,0,0,18.93,70.9q3.5,9.83,7.45,19.47a2.58,2.58,0,0,0,3.07,1.75,2.52,2.52,0,0,0,1.75-3.08,451.8,451.8,0,0,1-22.18-69.94q-2.34-10.17-4.19-20.43a2.52,2.52,0,0,0-3.08-1.74,2.55,2.55,0,0,0-1.75,3.07Z" transform="translate(-28.95 -53.2)"/><path class="cls-1" d="M414.15,751.94l17.51,56.5L449.16,865l9.9,31.94c.95,3.07,5.78,1.76,4.82-1.32l-17.5-56.51-17.51-56.5L419,750.61c-1-3.06-5.78-1.75-4.83,1.33Z" transform="translate(-28.95 -53.2)"/><path class="cls-1" d="M408.83,858.17a183.84,183.84,0,0,1,47.36-27.76,2.59,2.59,0,0,0,1.75-3.08,2.53,2.53,0,0,0-3.08-1.75,190.55,190.55,0,0,0-39.34,21.29q-5.24,3.72-10.23,7.77a2.51,2.51,0,0,0,0,3.53,2.55,2.55,0,0,0,3.54,0Z" transform="translate(-28.95 -53.2)"/><path class="cls-1" d="M500.9,767,516,819.23l15,52,8.52,29.46c.9,3.08,5.72,1.77,4.82-1.33l-15.1-52.21-15-52-8.52-29.46c-.89-3.08-5.72-1.77-4.82,1.33Z" transform="translate(-28.95 -53.2)"/><path class="cls-1" d="M201,993a336,336,0,0,0,41.11,64.13q6.85,8.41,14.24,16.36c1.74,1.87,4.8-.08,4.18-2.43l-22.79-86.18-6.36-24.07-4.57,1.93,39,50.51,19.34,25,9.74,12.63c2.88,3.72,5.57,7.73,9.34,10.63,3.42,2.64,7.67,3.91,11.76,2,3.14-1.48,4.94-4.77,5.47-8.09a28.66,28.66,0,0,0-.6-10.87c-1.13-5-2.44-9.89-3.69-14.82q-7.66-30.18-16.35-60.09t-18.37-59.5c-.81-2.48-1.63-5-2.45-7.43-1-3-5.84-1.73-4.82,1.33q9.49,28.64,18.07,57.56t16.17,58.11q1.89,7.21,3.71,14.43c1.12,4.45,2.46,8.92,3.26,13.45.5,2.87.69,6.08-.33,8.8a4.54,4.54,0,0,1-6.09,2.76c-3.63-1.31-6.22-4.9-8.48-7.83L292,1039.17l-18.72-24.26L235.7,966.17l-4.57-5.91a2.55,2.55,0,0,0-3.12-1,2.5,2.5,0,0,0-1.45,2.95l22.78,86.18,6.37,24.07,4.18-2.43a330,330,0,0,1-44.62-60.71q-5.28-9.22-10-18.77A2.5,2.5,0,0,0,201,993Z" transform="translate(-28.95 -53.2)"/><path class="cls-1" d="M336.3,1004.08a74.45,74.45,0,0,0,11.66,24,75.63,75.63,0,0,0,8.83,10.09c3.31,3.13,7.11,6.4,11.69,7.39a10.25,10.25,0,0,0,10.94-4.12c2-3,2.24-7,1.8-10.51a50.65,50.65,0,0,0-3.35-11.68q-2.46-6.42-5.45-12.61a155.84,155.84,0,0,0-31.89-44c-3.35-3.24-6.83-6.44-11.24-8.15a11.17,11.17,0,0,0-12.06,2.24c-2.81,2.83-3.87,6.85-4.36,10.68a74.43,74.43,0,0,0-.19,13.1,115.28,115.28,0,0,0,16.53,53.62c1.19,2,2.45,3.87,3.76,5.75a2.56,2.56,0,0,0,3.42.9,2.52,2.52,0,0,0,.89-3.42,111,111,0,0,1-18.73-47.7,105.92,105.92,0,0,1-1-12.59,48.37,48.37,0,0,1,.6-11.21c.61-2.78,1.81-5.91,4.69-6.93,3.54-1.26,7.4,1.3,10,3.46a122.94,122.94,0,0,1,17.26,18.21A150.67,150.67,0,0,1,364,1001.25a148.9,148.9,0,0,1,10.29,22.65,29.93,29.93,0,0,1,2.14,9.66,10.5,10.5,0,0,1-.65,4.18,5.2,5.2,0,0,1-2.06,2.45c-3.27,1.94-7.34-.51-9.94-2.53a59.3,59.3,0,0,1-8.6-8.46A69.13,69.13,0,0,1,343,1008.54c-.71-1.9-1.33-3.83-1.88-5.79-.86-3.09-5.69-1.78-4.82,1.33Z" transform="translate(-28.95 -53.2)"/><path class="cls-1" d="M371.22,969.05a455.41,455.41,0,0,0,26.35,61.08q4.33,8.3,9,16.39c1.61,2.79,5.93.28,4.32-2.52a444.63,444.63,0,0,1-28.35-58.74q-3.44-8.7-6.5-17.54a2.5,2.5,0,1,0-4.82,1.33Z" transform="translate(-28.95 -53.2)"/><path class="cls-1" d="M394.14,978.4l19.77-56.62,5.6-16c1-2.76-3.11-4.25-4.57-1.93a172.15,172.15,0,0,0-25.21,71.37,31,31,0,0,0-.12,9.66,13.16,13.16,0,0,0,4.4,7.35,36.53,36.53,0,0,0,7.39,4.63q4.46,2.28,8.87,4.62,18.12,9.57,35.76,20,19.71,11.61,38.78,24.23c2.69,1.78,5.2-2.55,2.53-4.32q-33.19-21.93-68.24-40.84c-5.68-3.06-11.43-6-17.12-9a18.34,18.34,0,0,1-6-4.42c-1.73-2.2-1.83-5-1.66-7.71A127.88,127.88,0,0,1,397,961.22a166.58,166.58,0,0,1,22.22-54.88l-4.57-1.93L394.92,961l-5.6,16a2.52,2.52,0,0,0,1.74,3.07,2.55,2.55,0,0,0,3.08-1.74Z" transform="translate(-28.95 -53.2)"/><path class="cls-1" d="M433.18,941.3l36.31,73.2L479.68,1035c1.43,2.88,5.74.35,4.32-2.52l-36.31-73.21L437.5,938.77c-1.43-2.88-5.74-.35-4.32,2.53Z" transform="translate(-28.95 -53.2)"/><path class="cls-1" d="M432.05,938.12A203.58,203.58,0,0,0,493.34,936q8.51-1.59,16.84-3.91l-2.82-3.67-26.57,43.22-13.28,21.61c-2.19,3.57-4.41,7.12-6.57,10.7a30.46,30.46,0,0,0-4.28,10,12.46,12.46,0,0,0,2.12,10.2,15.66,15.66,0,0,0,8,5c3,.93,6.17,1.39,9.24,2.09q4.88,1.13,9.65,2.61a133.51,133.51,0,0,1,64.57,44.26q1.5,1.9,2.93,3.86a2.57,2.57,0,0,0,3.42.9,2.52,2.52,0,0,0,.9-3.42,138.34,138.34,0,0,0-62.35-47.6,131.76,131.76,0,0,0-18.75-5.64,81.27,81.27,0,0,1-9.13-2.16c-2.39-.84-4.76-2.33-5.55-4.87-.93-3,.23-6.26,1.55-9,1.68-3.46,3.86-6.68,5.87-10l13.15-21.4,26.18-42.59,3.26-5.3a2.53,2.53,0,0,0-2.83-3.67,199.2,199.2,0,0,1-59.8,7.12q-8.52-.28-17-1.3a2.51,2.51,0,0,0-2.5,2.5,2.56,2.56,0,0,0,2.5,2.5Z" transform="translate(-28.95 -53.2)"/><path class="cls-1" d="M515.1,954.65a279.73,279.73,0,0,0,38.75,59.19q6.51,7.63,13.57,14.79c2.27,2.29,5.8-1.24,3.54-3.54a274,274,0,0,1-42.34-55.6q-4.9-8.52-9.2-17.36a2.5,2.5,0,0,0-4.32,2.52Z" transform="translate(-28.95 -53.2)"/><path class="cls-1" d="M567,884.79l2.42,149.74,2.41,149,1.36,84c.06,3.21,5.06,3.22,5,0l-2.42-149.74-2.41-149-1.36-84c-.05-3.22-5.05-3.23-5,0Z" transform="translate(-28.95 -53.2)"/><path class="cls-1" d="M692.87,859.48c-9.69.48-18.92-3.61-26-10.07-7.79-7.1-12.6-16.5-15-26.69-2.66-11.28-2.47-23.12-1.14-34.57,1.09-9.38,3.35-19.13,8.86-27A28,28,0,0,1,670.4,752a33.92,33.92,0,0,1,15.33-2.92c11.65.27,22.45,5.38,32.62,10.62,8.92,4.59,18.23,9.2,25.59,16.16a34.76,34.76,0,0,1,8.27,11.43,30.83,30.83,0,0,1,2.1,15c-1,11.11-6.84,21.3-13.27,30.15-6.59,9.05-14.14,17.45-19.78,27.17a69.63,69.63,0,0,0-3.69,7.32,2.58,2.58,0,0,0,.89,3.42,2.52,2.52,0,0,0,3.42-.9c4.73-10.92,12.46-20.06,19.66-29.41s13.87-19.34,16.66-31a40.38,40.38,0,0,0,.51-17.6,35,35,0,0,0-7-14.44c-6.48-8.24-15.88-13.72-25-18.55-10.79-5.72-22-11.85-34.23-13.74-11.46-1.76-23.68.19-32.42,8.3-7.64,7.09-11.37,17.42-13.24,27.43a113.88,113.88,0,0,0-1.26,35.62c1.53,11.62,5.49,22.89,13,32,6.63,8,16,14.26,26.4,15.94a37.16,37.16,0,0,0,7.81.48c3.2-.17,3.22-5.17,0-5Z" transform="translate(-28.95 -53.2)"/><path class="cls-1" d="M680.41,865.43l4.89,14.25c.58,1.68,2.84,2.58,4.18,1.1l6.91-7.64h-3.54l4.71,4.35a2.53,2.53,0,0,0,4.27-1.77l-.21-11.05c0-2-2.78-3.46-4.26-1.76a16.57,16.57,0,0,0-2.07,18.87,2.54,2.54,0,0,0,3.43.9,67.33,67.33,0,0,1,17.75-8.24c1.54-.45,3.09-.85,4.65-1.19s3.35-.46,4.94-.9c1.43-.41,2.86-2.19,3.84-3.26a33.35,33.35,0,0,0,3.21-4.18c1.76-2.7-2.57-5.21-4.32-2.52a26.58,26.58,0,0,1-5.17,5.78l1.11-.65a71.85,71.85,0,0,0-28.54,10.84l3.42.9a11.44,11.44,0,0,1,1.28-12.82l-4.27-1.77.21,11.05,4.26-1.76-4.7-4.36a2.55,2.55,0,0,0-3.54,0l-6.91,7.65,4.18,1.1-4.89-14.25a2.56,2.56,0,0,0-3.07-1.75,2.53,2.53,0,0,0-1.75,3.08Z" transform="translate(-28.95 -53.2)"/><path class="cls-1" d="M697.77,916.67,710.85,930a2.52,2.52,0,0,0,4.26-1.76l.18-6.24a2.42,2.42,0,0,0-1.24-2.15A20.53,20.53,0,0,1,703.17,906l-3.67,2.82c2.89,1.28,4.17,4.3,5.45,7,1.44,3,3.28,6.24,6.32,7.9a7.25,7.25,0,0,0,9.08-1.35c2.14-2.34,2.87-6.15.23-8.44a2.53,2.53,0,0,0-4.26,1.77c-.33,7.78,9.58,12.86,15.42,7.48a10.12,10.12,0,0,0,2.94-9.16,8.63,8.63,0,0,0-6.72-6.72,9.77,9.77,0,0,0-10.17,3.81,2.42,2.42,0,0,0,0,2.53l3.2,4.23c1,1.38,3.38,1.85,4.32,0l1.76-3.43-2.16,1.23c6.66.16,11-7.33,8.38-13.17-1.08-2.36-4.62-1-4.66,1.27l-.19,11.53,4.66-1.26-1.73-2.48-2.82,3.67a2.23,2.23,0,0,1,1.05.5,2.13,2.13,0,0,1,.62.93,5.33,5.33,0,0,1,.18,3.09,4.94,4.94,0,0,1-1.74,3,10.11,10.11,0,0,1-4.36,1.63c-4.08.53-8.12-.67-12.12-1.27-4.49-.67-9-.78-13.14,1.4-2.85,1.51-.32,5.83,2.52,4.32,3.16-1.67,6.94-1.3,10.34-.73,3.78.64,7.57,1.56,11.43,1.36,3.43-.18,7.3-1.22,9.61-3.94a10.89,10.89,0,0,0,2.55-7.93c-.32-3.34-2.21-6.37-5.61-7.21-2-.48-4.14,1.79-2.83,3.67l1.73,2.48a2.52,2.52,0,0,0,4.66-1.26l.19-11.53L729,905.05a3.46,3.46,0,0,1,.21,1.59,4.68,4.68,0,0,1-.87,2.2,4,4,0,0,1-3.4,1.85,2.49,2.49,0,0,0-2.16,1.24L721,915.37h4.32l-3.2-4.24v2.53c1.14-1.62,3.74-2,5.65-1.19a3.86,3.86,0,0,1,2,4.65c-.52,2-2.12,3.73-4.39,3.38a4.85,4.85,0,0,1-4-4.78l-4.27,1.76c.6.53-.26-.14.3.3-.25-.2.08.2,0,0s-.1.34,0,0c0,0-.23.69-.1.41a2.94,2.94,0,0,1-1.48,1.49l-.51.14c.36-.07-.44,0-.09,0a3.64,3.64,0,0,1-1.36-.45,7.08,7.08,0,0,1-2.39-2.26c-3.07-4.3-4.06-10.3-9.38-12.63a2.53,2.53,0,0,0-3.67,2.82,25.32,25.32,0,0,0,13.18,16.8L710.29,922l-.18,6.24,4.27-1.77L701.3,913.13c-2.26-2.3-5.79,1.24-3.53,3.54Z" transform="translate(-28.95 -53.2)"/><path class="cls-1" d="M668.75,806.45c-8,4.9-4.41,18,4.24,19.76a15,15,0,0,0,13.42-4.48c4-4,5.39-9.87,5-15.38a30,30,0,0,0-5-15c-2.84-4-7.18-7.55-12.38-7.25-11.45.67-16.11,15.73-15.16,25.26a21.35,21.35,0,0,0,7,14.3,16.58,16.58,0,0,0,13.92,4.1,14.88,14.88,0,0,0,11-9.17,12.13,12.13,0,0,0-4.07-13.44,11.66,11.66,0,0,0-6.86-2.67c-1.24,0-3,.06-3.94,1a10.77,10.77,0,0,0-2.09,3.7,13.61,13.61,0,0,0,3.13,14.64A12.63,12.63,0,0,0,698.4,812a13.4,13.4,0,0,0-9.21-11.49c-4.81-1.51-9.89.32-13.5,3.61a17.84,17.84,0,0,0-5.77,13.66,26.15,26.15,0,0,0,5.87,14.78,39.4,39.4,0,0,0,5.45,5.73,2.55,2.55,0,0,0,3.54,0,2.52,2.52,0,0,0,0-3.53c-4.66-4-9-9.39-9.77-15.7a13,13,0,0,1,6.84-13.19,8.05,8.05,0,0,1,11.41,5.4,7.71,7.71,0,0,1-8.29,9.23,8.27,8.27,0,0,1-6.47-4.86,9.37,9.37,0,0,1,1.31-9l-1.5,1.15c3.79-.94,7.6,2.57,8.1,6.24.57,4.22-3.23,7.76-7,8.81-4.34,1.22-8.71-.87-11.62-4.08-3.55-3.92-4.53-9.39-3.94-14.52.54-4.7,2.33-10.25,6.15-13.34,3.44-2.77,7.56-1.69,10.46,1.26,3.38,3.42,5.15,8.31,5.79,13,.68,5-.21,10.42-4.15,13.84a10.13,10.13,0,0,1-6.13,2.57,6.1,6.1,0,0,1-5.19-2.15,7.67,7.67,0,0,1-1.52-4.66,4.38,4.38,0,0,1,2-3.9c2.74-1.68.23-6-2.52-4.32Z" transform="translate(-28.95 -53.2)"/><path class="cls-1" d="M714.21,818.06c-4.36,4.07-1.46,11.79,3.95,13.2a10.34,10.34,0,0,0,9.37-2.69,14,14,0,0,0,4.22-9.1c.65-6-.86-13.31-5.1-17.81a9.05,9.05,0,0,0-8-2.94,9.44,9.44,0,0,0-6.46,4.67,21.61,21.61,0,0,0-2.55,7.78,50.54,50.54,0,0,0-.85,11.24c.45,6.41,3.93,13.56,10.8,15,5.65,1.21,10.64-2.18,13-7.2a27.73,27.73,0,0,0,1.86-16c-.85-5.37-3-10.92-6.86-14.86-3.67-3.77-9.42-5.75-14.48-3.7-9.69,3.92-12.51,18.51-4.13,25.17a17.65,17.65,0,0,0,15.64,2.81,17.86,17.86,0,0,0,12.1-11.17c2.12-5.74,1.3-12.32-1.36-17.73s-9.06-11.93-15.85-9.76c-6.19,2-8.36,9.23-8.84,15-.53,6.53,1.49,13.57,6.89,17.63,4.66,3.51,11.72,4.45,16.58.79,4.3-3.22,5.41-9.39,3.22-14.17a9.33,9.33,0,0,0-5.38-4.86,2.57,2.57,0,0,0-2.83,1.15A27.14,27.14,0,0,0,723.78,818c.14,3.2,5.14,3.22,5,0a22.81,22.81,0,0,1,4.65-14.89l-2.82,1.14a4.51,4.51,0,0,1,2.43,2.72,7.27,7.27,0,0,1,.06,4.61,5.52,5.52,0,0,1-2.88,3.45,8.2,8.2,0,0,1-5.54.54c-4.6-1-7.56-4.68-8.64-9.15s-.6-10,1.79-13.9c1-1.64,2.51-3,4.55-2.92,2.44.14,4.54,2,6.07,3.75a18.75,18.75,0,0,1,4.43,12.31c0,4.1-1.66,8.33-4.9,10.85a14.17,14.17,0,0,1-10.66,2.72,11.13,11.13,0,0,1-5.09-2.11,8.34,8.34,0,0,1-2.84-3.94,10.2,10.2,0,0,1-.36-4.58,11.64,11.64,0,0,1,1.85-4.86,7.72,7.72,0,0,1,7.78-3.79c3.82.66,6.49,3.7,8.27,7.14a26.73,26.73,0,0,1,2.93,12.1c0,3.8-.71,8-3.12,11.09a6.53,6.53,0,0,1-3.64,2.36,6.61,6.61,0,0,1-5.1-1.33c-4.4-3.36-4.57-9.33-4.1-14.36a44.55,44.55,0,0,1,1.15-7.36,10.27,10.27,0,0,1,2.55-5,3.65,3.65,0,0,1,3.75-.67c1.69.76,2.83,2.55,3.66,4.24a19.77,19.77,0,0,1,1.7,6.4c.29,2.63.34,5.52-.8,8a7,7,0,0,1-4.59,4,4.49,4.49,0,0,1-2.28-.15,3.27,3.27,0,0,1-1.47-1.45,3.68,3.68,0,0,1-.49-1.93,1.66,1.66,0,0,1,.66-1.31c2.36-2.2-1.18-5.73-3.53-3.54Z" transform="translate(-28.95 -53.2)"/><path class="cls-1" d="M695.07,846.36l-.88,11a2.54,2.54,0,0,0,2.5,2.5,11.29,11.29,0,0,0,11.24-10.2c.18-1.68-1.74-2.76-3.17-2.41l-.35.08c.34,0,.42-.06.23,0a1.57,1.57,0,0,0-.53,0c-.19,0-.11,0,.24,0l-.34-.07a1.35,1.35,0,0,1-.5-.17c.3.13.36.16.2.07s-.16-.08-.24-.12l-.45-.29c.52.33.08.06,0-.06a6.14,6.14,0,0,0-.43-.45c-.12-.14-.09-.09.1.16l-.15-.22-.32-.54c-.26-.42.12.46,0-.05,0-.17-.11-.33-.15-.51a2.21,2.21,0,0,1-.05-.25c0-.19,0-.12,0,.23-.05,0,0-.43,0-.52,0-.52-.14.44,0,0,.07-.23.12-.45.21-.68a2.51,2.51,0,0,0-1.74-3.08,2.59,2.59,0,0,0-3.08,1.75,7.57,7.57,0,0,0,8.76,9.59l-3.16-2.41c0,.29,0,.27,0-.07,0,.13-.05.26-.08.39s-.12.45-.19.67-.33.79-.07.24c-.11.23-.23.47-.36.7s-.2.34-.31.51l-.23.33c.19-.24.2-.26,0,0a11.45,11.45,0,0,1-1,1l-.31.26c.22-.16.25-.19.11-.09s-.38.27-.58.39a6.8,6.8,0,0,1-.7.38c-.13.07-.68.27-.13.07a9.16,9.16,0,0,1-1.33.39l-.39.07c.33,0,.36-.05.07,0l-.8,0,2.5,2.5.88-11a2.51,2.51,0,0,0-2.5-2.5,2.55,2.55,0,0,0-2.5,2.5Z" transform="translate(-28.95 -53.2)"/></svg>