<svg id="Layer_30" data-name="Layer 30" xmlns="http://www.w3.org/2000/svg" viewBox="0 0 730.41 656.08"><defs><style>.cls-1{fill:#952c1f;}</style></defs><path class="cls-1" d="M97.31,111.87a542.16,542.16,0,0,1,14.53,52.67q1.68,7.56,3.14,15.16a2.5,2.5,0,1,0,4.82-1.33,541,541,0,0,0-13-53.07q-2.22-7.41-4.66-14.76c-1-3-5.83-1.74-4.82,1.33Z" transform="translate(-39.66 -62.97)"/><path class="cls-1" d="M43.44,152.32a437.17,437.17,0,0,0,48-28.65A441,441,0,0,0,135.5,89q11.73-10.47,22.67-21.78c2.24-2.31-1.29-5.85-3.54-3.53a434.83,434.83,0,0,1-41,37.28,431.54,431.54,0,0,1-45.46,31.75Q54.83,140.86,40.91,148c-2.86,1.47-.33,5.79,2.53,4.32Z" transform="translate(-39.66 -62.97)"/><path class="cls-1" d="M119.63,130.48l7.94,51.57,2.26,14.74a2.53,2.53,0,0,0,3.08,1.74,2.56,2.56,0,0,0,1.75-3.07l-7.94-51.57-2.26-14.74a2.53,2.53,0,0,0-3.08-1.74,2.56,2.56,0,0,0-1.75,3.07Z" transform="translate(-39.66 -62.97)"/><path class="cls-1" d="M138,104.34l6.7,67.62L146.62,191a2.58,2.58,0,0,0,2.5,2.5,2.51,2.51,0,0,0,2.5-2.5l-6.7-67.62L143,104.34a2.56,2.56,0,0,0-2.5-2.5,2.51,2.51,0,0,0-2.5,2.5Z" transform="translate(-39.66 -62.97)"/><path class="cls-1" d="M133,171.32l20.4-6.8a2.56,2.56,0,0,0,1.75-3.07A2.53,2.53,0,0,0,152,159.7l-20.4,6.8a2.54,2.54,0,0,0-1.74,3.07,2.51,2.51,0,0,0,3.07,1.75Z" transform="translate(-39.66 -62.97)"/><path class="cls-1" d="M163.91,142.37l5.1,37.4a2.53,2.53,0,0,0,3.08,1.75,2.56,2.56,0,0,0,1.74-3.08l-5.1-37.4c-.18-1.34-1.9-2.07-3.08-1.74a2.55,2.55,0,0,0-1.74,3.07Z" transform="translate(-39.66 -62.97)"/><path class="cls-1" d="M191.74,141.64l-14.82,18.94a2.56,2.56,0,0,0-.2,3.29,2.51,2.51,0,0,0,3.23.64,53,53,0,0,1,31.83-8.18L210,152.07a447.29,447.29,0,0,0-34,47.35q-4.35,7-8.43,14.13c-1.6,2.8,2.72,5.32,4.32,2.52a441,441,0,0,1,31.71-47.89q4.86-6.39,10-12.58a2.54,2.54,0,0,0-1.76-4.27,57.57,57.57,0,0,0-34.35,8.86l3,3.93,14.82-18.94a2.59,2.59,0,0,0,0-3.54,2.53,2.53,0,0,0-3.54,0Z" transform="translate(-39.66 -62.97)"/><path class="cls-1" d="M178.21,125.51c3.21,0,3.22-5,0-5s-3.23,5,0,5Z" transform="translate(-39.66 -62.97)"/><path class="cls-1" d="M253.69,200.17a535,535,0,0,0,7.57-74.92q.32-10.56.21-21.13h-5a224.13,224.13,0,0,0,20,73.69q4.56,9.78,10.07,19.07c1,1.7,4.21,1.62,4.57-.59a248.36,248.36,0,0,0,.65-75.18q-1.5-10.41-3.91-20.67L283,101.77a463,463,0,0,1,19.87,66.91q2.11,9.76,3.8,19.6a2.52,2.52,0,0,0,3.07,1.75,2.56,2.56,0,0,0,1.75-3.08,464.07,464.07,0,0,0-17-67.71q-3.15-9.46-6.71-18.8c-1.12-3-5.56-1.86-4.82,1.33a241.94,241.94,0,0,1,5.66,72.72q-.77,10.29-2.41,20.47l4.57-.6a218.73,218.73,0,0,1-26.39-69.55q-2-10.28-3-20.69a2.57,2.57,0,0,0-2.5-2.5,2.52,2.52,0,0,0-2.5,2.5,530.81,530.81,0,0,1-4.45,74c-.9,6.92-2,13.83-3.15,20.71a2.58,2.58,0,0,0,1.74,3.08,2.52,2.52,0,0,0,3.08-1.75Z" transform="translate(-39.66 -62.97)"/><path class="cls-1" d="M321.78,154.11c-2.17,6.72-4.23,13.75-3.12,20.87a17.91,17.91,0,0,0,9.28,13.18c4.82,2.5,10.56,2.46,14.71-1.33,4.57-4.18,5.45-11.18,6-17a69,69,0,0,0-1.21-20.37c-1.29-6.22-3.27-12.91-7-18.14-3.16-4.46-8.06-9-13.92-8.81-6.35.2-10,5.49-11.91,11a87.91,87.91,0,0,0-4.36,22.5,96.77,96.77,0,0,0,1.28,23.85,2.5,2.5,0,1,0,4.82-1.32,90.89,90.89,0,0,1,1.07-36.58,59,59,0,0,1,2.39-8.15,11.21,11.21,0,0,1,3.51-5.11c3.72-2.67,8-.12,10.76,2.76,3.73,3.83,5.66,8.89,7.16,13.92a65.1,65.1,0,0,1,2.68,17.53c.07,5.4-.2,11.38-2.19,16.48-1.54,3.95-4.88,6.32-8.76,5.41a12.64,12.64,0,0,1-9.13-9.3c-1.63-6.68.73-13.69,2.77-20,1-3.07-3.84-4.39-4.82-1.33Z" transform="translate(-39.66 -62.97)"/><path class="cls-1" d="M344.1,142.37l6.8,42.51a2.5,2.5,0,0,0,4.82-1.33L348.92,141a2.51,2.51,0,0,0-3.07-1.74,2.56,2.56,0,0,0-1.75,3.07Z" transform="translate(-39.66 -62.97)"/><path class="cls-1" d="M351.79,135.12l25.27-19.93-3.93-3-23.19,36.16a2.54,2.54,0,0,0,.89,3.42,128.08,128.08,0,0,1,30.67,28.91q3.66,4.84,6.87,10c1.69,2.73,6,.22,4.32-2.53a133.76,133.76,0,0,0-29.05-33.11c-3.31-2.69-6.74-5.24-10.28-7.62l.89,3.42,23.2-36.16a2.5,2.5,0,0,0-.64-3.23,2.56,2.56,0,0,0-3.29.2l-25.26,19.93a2.5,2.5,0,0,0,0,3.53,2.55,2.55,0,0,0,3.53,0Z" transform="translate(-39.66 -62.97)"/><path class="cls-1" d="M388,173.35,376.38,126,371.81,128a256.85,256.85,0,0,0,29.74,45.42q4.88,6,10.1,11.61c1.2,1.3,3.85.75,4.18-1.11a104.88,104.88,0,0,0-6.8-59A101.53,101.53,0,0,0,401.18,110c-1.73-2.7-6.06-.19-4.32,2.53a99.63,99.63,0,0,1,15.57,54.15A96.41,96.41,0,0,1,411,182.56l4.18-1.1a250.14,250.14,0,0,1-31.76-42.73q-3.85-6.53-7.3-13.29c-1.32-2.58-5.23-.76-4.57,1.93l11.64,47.31c.77,3.12,5.59,1.8,4.82-1.33Z" transform="translate(-39.66 -62.97)"/><path class="cls-1" d="M425.69,124.7,431,177.56l1.52,15.14a2.56,2.56,0,0,0,2.5,2.5,2.52,2.52,0,0,0,2.5-2.5l-5.29-52.86-1.52-15.14a2.57,2.57,0,0,0-2.5-2.5,2.52,2.52,0,0,0-2.5,2.5Z" transform="translate(-39.66 -62.97)"/><path class="cls-1" d="M447.62,175.71l-3.05-40.61-4.66,1.26a225.09,225.09,0,0,0,31.56,46.72,2.52,2.52,0,0,0,4.18-1.11,105.21,105.21,0,0,0-11.5-75.45c-1.61-2.78-5.93-.27-4.32,2.52a100.77,100.77,0,0,1,13.23,55.44,97.72,97.72,0,0,1-2.23,16.16l4.18-1.1a219.74,219.74,0,0,1-30.78-45.7c-1.1-2.17-4.84-1.2-4.66,1.26l3.05,40.61a2.55,2.55,0,0,0,2.5,2.5,2.53,2.53,0,0,0,2.5-2.5Z" transform="translate(-39.66 -62.97)"/><path class="cls-1" d="M499.75,103.34l-21.53,52.73-6.11,15c-1,2.36,2.57,4.17,4.18,2.43,2.62-2.82,6.59-3.46,10.25-2.67,4.37.94,7.77,3.66,10.59,7,3.08,3.66,5.2,8,7.76,12s5.83,8,10.42,9.31c10.13,3,16-9.31,16.06-17.54,0-8.58-4.64-17.33-12.65-20.9-9-4-20.36-2.07-27,5.42a2.56,2.56,0,0,0,0,3.53,2.53,2.53,0,0,0,3.54,0,18.69,18.69,0,0,1,20.09-4.94c6.91,2.44,11,9.62,11,16.72a16.66,16.66,0,0,1-3.28,10.28,7.06,7.06,0,0,1-4.15,2.8,6.47,6.47,0,0,1-4.73-1.47c-3.35-2.43-5.33-6.28-7.39-9.75a53.56,53.56,0,0,0-8.3-11.28,22.09,22.09,0,0,0-13-6.37,15.06,15.06,0,0,0-12.74,4.34l4.17,2.43,21.53-52.74,6.11-15a2.52,2.52,0,0,0-1.74-3.08,2.57,2.57,0,0,0-3.08,1.75Z" transform="translate(-39.66 -62.97)"/><path class="cls-1" d="M429.81,88.11c3.22,0,3.23-5,0-5s-3.22,5,0,5Z" transform="translate(-39.66 -62.97)"/><path class="cls-1" d="M571.67,172.31l-4.12-56.74-1.16-16.1-4.91.66,19.17,53c.79,2.19,1.57,4.39,2.37,6.57a19.31,19.31,0,0,0,2.23,4.59c2.11,2.93,5.73,4.58,9.15,2.73,2.73-1.47,4.06-4.81,4.6-7.7.77-4.16.69-8.55.92-12.76l1.77-31.41h-5q3.72,29,7.45,57.95l2.09,16.35a2.59,2.59,0,0,0,2.5,2.5c1.22,0,2.68-1.16,2.5-2.5l-7.44-58-2.1-16.34a2.57,2.57,0,0,0-2.5-2.5,2.55,2.55,0,0,0-2.5,2.5Q596,128,595.24,140.9l-.72,12.86c-.16,2.78-.18,5.62-1.65,8a1.87,1.87,0,0,1-1.53,1.09,2.88,2.88,0,0,1-2.15-1.62,20.41,20.41,0,0,1-1.85-4.23l-2.21-6.1-8.82-24.41-10-27.69A2.53,2.53,0,0,0,563.55,97a2.48,2.48,0,0,0-2.16,2.46l4.11,56.74,1.17,16.1a2.56,2.56,0,0,0,2.5,2.5,2.51,2.51,0,0,0,2.5-2.5Z" transform="translate(-39.66 -62.97)"/><path class="cls-1" d="M626.8,123.07a49.71,49.71,0,0,0,15.62,40.78c2.37,2.18,5.91-1.35,3.54-3.53a45,45,0,0,1-14.16-37.25,2.51,2.51,0,0,0-2.5-2.5,2.55,2.55,0,0,0-2.5,2.5Z" transform="translate(-39.66 -62.97)"/><path class="cls-1" d="M657.07,111.5q-17.76,36.13-33.35,73.28t-28.9,75q-7.5,21.3-14.27,42.85c-1,3.08,3.85,4.4,4.82,1.33q12-38.1,26.2-75.44t30.57-73.6q9.29-20.58,19.25-40.85a2.56,2.56,0,0,0-.9-3.42,2.52,2.52,0,0,0-3.42.89Z" transform="translate(-39.66 -62.97)"/><path class="cls-1" d="M79.82,336.65a155.62,155.62,0,0,0,16.06-71,155.47,155.47,0,0,0-1.74-20.79l-4.57,1.92,37.83,82.5L138,352.38a2.52,2.52,0,0,0,3.42.89,2.57,2.57,0,0,0,.9-3.42l-37.83-82.49-10.6-23.12a2.47,2.47,0,0,0-3.12-1,2.55,2.55,0,0,0-1.45,2.95A150.25,150.25,0,0,1,83,315.86a146.86,146.86,0,0,1-7.54,18.27,2.55,2.55,0,0,0,.9,3.42,2.52,2.52,0,0,0,3.42-.9Z" transform="translate(-39.66 -62.97)"/><path class="cls-1" d="M94.93,332.14a52.47,52.47,0,0,1,30.58-14.47,2.57,2.57,0,0,0,2.5-2.5,2.52,2.52,0,0,0-2.5-2.5A58.07,58.07,0,0,0,91.39,328.6c-2.31,2.25,1.23,5.78,3.54,3.54Z" transform="translate(-39.66 -62.97)"/><path class="cls-1" d="M121.4,246.08a438.09,438.09,0,0,1,17.67,73.37q1.59,10.55,2.64,21.17a2.57,2.57,0,0,0,2.5,2.5,2.53,2.53,0,0,0,2.5-2.5,439.82,439.82,0,0,0-14.17-75.3q-2.91-10.36-6.32-20.57c-1-3-5.85-1.74-4.82,1.33Z" transform="translate(-39.66 -62.97)"/><path class="cls-1" d="M162.52,333.75,153.65,265l-2.49-19.3-4.66,1.26,37,76.35L194,344.83a2.5,2.5,0,1,0,4.31-2.52l-37-76.35L150.82,244.4c-1-2.14-5-1.2-4.66,1.26L155,314.45l2.49,19.3a2.57,2.57,0,0,0,2.5,2.5,2.52,2.52,0,0,0,2.5-2.5Z" transform="translate(-39.66 -62.97)"/><path class="cls-1" d="M148.27,322.63l35.7-8.5c3.13-.75,1.81-5.57-1.33-4.83l-35.7,8.5c-3.13.75-1.8,5.57,1.33,4.83Z" transform="translate(-39.66 -62.97)"/><path class="cls-1" d="M179.25,280.06,198,339.56c1,3.06,5.79,1.75,4.82-1.33l-18.71-59.5c-1-3.06-5.79-1.75-4.82,1.33Z" transform="translate(-39.66 -62.97)"/><path class="cls-1" d="M184.38,266.38a99.69,99.69,0,0,0,56.83-1.07l-2.43-4.18q-18.06,20.07-36.1,40.15a2.52,2.52,0,0,0,.5,3.92,89.83,89.83,0,0,1,39.06,36.74c1.59,2.79,5.92.28,4.32-2.53a96.54,96.54,0,0,0-30-32.27,94.23,94.23,0,0,0-10.85-6.26l.5,3.93,36.1-40.14c1.58-1.76.08-5-2.43-4.18a94.8,94.8,0,0,1-54.17,1.07c-3.11-.86-4.43,4-1.33,4.82Z" transform="translate(-39.66 -62.97)"/><path class="cls-1" d="M247.53,332.09a236.6,236.6,0,0,0-7.92-51.54q-1.91-7.08-4.27-14l-4.57,1.93,30.86,50.4c2,3.27,4.06,7.14,7.61,9a7.8,7.8,0,0,0,10-2.3c2-2.66,2.64-6.16,2.85-9.41.32-4.71.35-9.46.24-14.17a178.26,178.26,0,0,0-3.81-32.32l-4.82,1.33,15.84,53.55,4.53,15.31c.91,3.07,5.74,1.76,4.82-1.33l-15.84-53.56-4.53-15.3c-.92-3.1-5.48-1.81-4.82,1.33a169.29,169.29,0,0,1,3.44,26.15q.35,6.65.19,13.3c-.08,3.45,0,7-1.11,10.25-.69,2-2.16,3.92-4.46,2.87-2.92-1.35-4.63-5.24-6.21-7.82L251.23,292.3l-16.14-26.37c-1.43-2.34-5.51-.85-4.57,1.92a230.29,230.29,0,0,1,10.94,49.62q.76,7.29,1.07,14.62c.13,3.21,5.13,3.23,5,0Z" transform="translate(-39.66 -62.97)"/><path class="cls-1" d="M321.91,257.31a174.32,174.32,0,0,0,6.16,47.17c1.2,4.39,2.59,8.72,4.13,13a2.58,2.58,0,0,0,3.08,1.75,2.53,2.53,0,0,0,1.74-3.08,169.82,169.82,0,0,1-10.11-58.84c0-3.22-5-3.22-5,0Z" transform="translate(-39.66 -62.97)"/><path class="cls-1" d="M321.41,244.25a104.6,104.6,0,0,0,51.64,11.5l-1.26-4.66a136.85,136.85,0,0,0-35.67,33.41,130.93,130.93,0,0,0-7.67,11.57,2.53,2.53,0,0,0,1.49,3.67,69.31,69.31,0,0,1,37.61,28.91c1.72,2.72,6.05.21,4.32-2.52a74,74,0,0,0-40.6-31.21l1.49,3.67a131.42,131.42,0,0,1,30.8-35.47,126,126,0,0,1,10.76-7.71c2-1.28,1.33-4.76-1.27-4.66a99.44,99.44,0,0,1-49.12-10.82c-2.86-1.46-5.39,2.85-2.52,4.32Z" transform="translate(-39.66 -62.97)"/><path class="cls-1" d="M378,269.92a106.28,106.28,0,0,0,9.83,29.48,104.68,104.68,0,0,0,8,13.26c1.57,2.22,3.23,4.39,5,6.49a43.32,43.32,0,0,0,5.1,5.55c3.82,3.25,9.83,5.5,13.53.75,1.56-2,2-4.5,2.26-6.95.31-2.63.5-5.27.6-7.92A112.55,112.55,0,0,0,404.62,246c-1.73-2.7-6.06-.2-4.31,2.52a107.73,107.73,0,0,1,17,55.46,91.72,91.72,0,0,1-.69,14.91c-.21,1.44-.52,3.64-2.08,4.27s-3.38-.62-4.54-1.48a29.77,29.77,0,0,1-4.75-4.9c-1.53-1.81-3-3.67-4.39-5.58a102.24,102.24,0,0,1-18-42.57,2.53,2.53,0,0,0-3.08-1.75,2.56,2.56,0,0,0-1.74,3.08Z" transform="translate(-39.66 -62.97)"/><path class="cls-1" d="M444.13,306l-12.91-49.14-4.57,1.92,36.72,54.93,10.4,15.55c1.33,2,4.66,1.33,4.66-1.26a246.64,246.64,0,0,0-11-72.08q-3-9.84-6.91-19.38a2.56,2.56,0,0,0-3.07-1.75,2.52,2.52,0,0,0-1.75,3.07,242,242,0,0,1,16.79,69.58q.9,10.26.92,20.56l4.66-1.27-36.73-54.92L431,256.21c-1.53-2.3-5.31-.91-4.56,1.93l12.9,49.14c.82,3.11,5.65,1.79,4.83-1.33Z" transform="translate(-39.66 -62.97)"/><path class="cls-1" d="M114.86,407.53l10.65,56.9,3,16.19a2.53,2.53,0,0,0,3.08,1.75,2.56,2.56,0,0,0,1.74-3.08l-10.65-56.9-3-16.19a2.5,2.5,0,0,0-4.82,1.33Z" transform="translate(-39.66 -62.97)"/><path class="cls-1" d="M107.93,389.18c1.74,8.51,7.65,15.48,14.84,20.07,8.37,5.35,18.33,7.15,28.13,7.38,6.11.14,12.22-.32,18.32-.78l-.67-4.91a106.72,106.72,0,0,0-53.21,44.37c-1.36,2.25,1.28,4.51,3.42,3.42A250.31,250.31,0,0,1,168,440q7.28-1.94,14.65-3.42l-2.82-3.67a255.62,255.62,0,0,1-43.32,51.73q-7,6.43-14.5,12.32a2.5,2.5,0,0,0,0,3.53,2.55,2.55,0,0,0,3.53,0,259.67,259.67,0,0,0,47.59-49q5.82-7.8,11-16c1.25-2-.8-4.08-2.82-3.67a257,257,0,0,0-51.28,16.18q-7,3-13.81,6.51l3.42,3.42a102,102,0,0,1,37-35.83,99.23,99.23,0,0,1,13.23-6.25,2.52,2.52,0,0,0,1.79-2.74,2.47,2.47,0,0,0-2.45-2.17c-17.43,1.32-38.17,2.6-50.88-11.85a24.22,24.22,0,0,1-5.59-11.15,2.52,2.52,0,0,0-3.07-1.74,2.55,2.55,0,0,0-1.75,3.07Z" transform="translate(-39.66 -62.97)"/><path class="cls-1" d="M196,471.52a443.56,443.56,0,0,0-2.91-62.37q-1-8.89-2.44-17.73l-4.57,1.93q21.69,36.36,39.75,74.72,5.07,10.76,9.83,21.66a2.52,2.52,0,0,0,3.42.9,2.57,2.57,0,0,0,.9-3.42q-17-38.79-37.68-75.8-5.81-10.38-11.9-20.59a2.51,2.51,0,0,0-3.13-1,2.55,2.55,0,0,0-1.44,2.95,438.63,438.63,0,0,1,5.24,61.3q.13,8.73-.07,17.47c-.08,3.22,4.92,3.22,5,0Z" transform="translate(-39.66 -62.97)"/><path class="cls-1" d="M190.53,472.75a52.71,52.71,0,0,1,30.85-19.19,2.53,2.53,0,0,0,1.75-3.07,2.55,2.55,0,0,0-3.08-1.75,57.87,57.87,0,0,0-33.84,21.49,2.52,2.52,0,0,0,.9,3.42,2.56,2.56,0,0,0,3.42-.9Z" transform="translate(-39.66 -62.97)"/><path class="cls-1" d="M261.68,409c-15.17,6.35-26,22.12-25.41,38.77.31,8,3.29,16.18,8.93,22a23,23,0,0,0,20.8,6.88c7.76-1.36,15.12-7,16.74-14.94a2.57,2.57,0,0,0-1.74-3.08,2.53,2.53,0,0,0-3.08,1.75c-1.14,5.64-5.79,9.51-11.28,11A17.59,17.59,0,0,1,250,467.45c-10.71-9.57-10.8-26.21-4.09-38.05A36.17,36.17,0,0,1,263,413.83a2.58,2.58,0,0,0,1.75-3.07,2.51,2.51,0,0,0-3.08-1.75Z" transform="translate(-39.66 -62.97)"/><path class="cls-1" d="M279.5,399.08a353.67,353.67,0,0,0,14.33,61.26q2.82,8.55,6.07,16.94A2.58,2.58,0,0,0,303,479a2.52,2.52,0,0,0,1.74-3.08A353.66,353.66,0,0,1,287.3,415.5c-1.15-5.89-2.13-11.81-3-17.75a2.5,2.5,0,0,0-3.07-1.74,2.56,2.56,0,0,0-1.75,3.07Z" transform="translate(-39.66 -62.97)"/><path class="cls-1" d="M294.61,437.26l23.72-46.46,6.77-13.28c1.23-2.4-1.94-5.26-3.93-3a229.54,229.54,0,0,0-37.2,56.9q-4,8.76-7.3,17.84c-.86,2.39,2.52,4.16,4.18,2.43,6.31-6.59,17.22-4.42,23.61.87,8.27,6.85,12.3,17.14,17.45,26.26,3,5.34,6.55,10.52,11.25,14.52a2.56,2.56,0,0,0,3.54,0,2.52,2.52,0,0,0,0-3.53c-8.85-7.53-12.76-18.8-18.63-28.48a47,47,0,0,0-10.7-12.81,26.66,26.66,0,0,0-14.61-5.83,19.24,19.24,0,0,0-15.44,5.46l4.17,2.44a225.27,225.27,0,0,1,31.42-58.11c3.72-5,7.67-9.78,11.8-14.42l-3.93-3-23.71,46.46-6.77,13.27c-1.46,2.86,2.85,5.4,4.31,2.53Z" transform="translate(-39.66 -62.97)"/><path class="cls-1" d="M327.24,429.66a132.26,132.26,0,0,0,24.44,58.26,2.53,2.53,0,0,0,4.66-1.26A198.54,198.54,0,0,0,353,430.51q-1.59-7.8-3.82-15.43l-4.82,1.33A222.37,222.37,0,0,0,377.13,472q5.7,7.05,12,13.61a2.53,2.53,0,0,0,4.27-1.77,282.15,282.15,0,0,0-10.19-89q-3.42-12.15-7.92-23.95a2.57,2.57,0,0,0-3.07-1.75,2.53,2.53,0,0,0-1.75,3.08,277.42,277.42,0,0,1,17.95,86.35q.57,12.62,0,25.23l4.27-1.77A215.44,215.44,0,0,1,356.43,431q-4-7.79-7.3-15.88a2.58,2.58,0,0,0-3.08-1.75,2.54,2.54,0,0,0-1.74,3.08A194,194,0,0,1,352,471q0,7.85-.68,15.65L356,485.4a129.38,129.38,0,0,1-23.93-57.07,2.52,2.52,0,0,0-3.08-1.74,2.55,2.55,0,0,0-1.74,3.07Z" transform="translate(-39.66 -62.97)"/><path class="cls-1" d="M407.6,459.69a284.52,284.52,0,0,0-2.6-72.63q-1.68-10.21-4.12-20.28l-4.82,1.32L432,459.74l10.21,26.05,3.68-2.83-4.7-3.22a2.53,2.53,0,0,0-3.43.89,2.56,2.56,0,0,0,.9,3.42l4.7,3.23c1.72,1.18,4.47-.81,3.68-2.82q-18-45.82-35.92-91.64l-10.21-26c-1.15-2.94-5.59-1.87-4.82,1.32a279.62,279.62,0,0,1,7.71,71.41q-.22,10.11-1.17,20.18a2.51,2.51,0,0,0,2.5,2.5,2.55,2.55,0,0,0,2.5-2.5Z" transform="translate(-39.66 -62.97)"/><path class="cls-1" d="M398.78,449.88l34-17c2.87-1.44.35-5.76-2.53-4.32l-34,17c-2.88,1.44-.35,5.75,2.53,4.32Z" transform="translate(-39.66 -62.97)"/><path class="cls-1" d="M436,424.57a225.66,225.66,0,0,0,15.67,47.54q3,6.45,6.33,12.72c1.52,2.84,5.84.32,4.32-2.52a219.15,219.15,0,0,1-18.21-45.48q-1.86-6.75-3.28-13.59a2.53,2.53,0,0,0-3.08-1.75,2.56,2.56,0,0,0-1.75,3.08Z" transform="translate(-39.66 -62.97)"/><path class="cls-1" d="M435.92,414.5a62.12,62.12,0,0,1,28.86-31l-3.67-2.82q-9.08,28.08-19.6,55.67-3,7.74-6,15.45c-.91,2.29,2.64,4.32,4.18,2.43,3.17-3.87,6.42-7.95,10.68-10.68,3.77-2.42,8.85-3.9,13.17-2.05,4,1.73,6.38,5.8,8.35,9.47,2.75,5.1,5.36,10.28,8,15.42l9.45,18.16c1.49,2.86,5.8.33,4.32-2.52-5.88-11.31-11.57-22.73-17.66-33.92-2.36-4.34-5.37-8.81-10-10.94-5.18-2.37-11-1.61-16,.84-5.7,2.79-9.89,7.87-13.83,12.69l4.17,2.43q10.93-27.42,20.42-55.38,2.65-7.85,5.21-15.74c.71-2.2-1.84-3.77-3.67-2.83a67.29,67.29,0,0,0-31.16,34,2.52,2.52,0,0,0,1.74,3.08,2.57,2.57,0,0,0,3.08-1.75Z" transform="translate(-39.66 -62.97)"/><path class="cls-1" d="M490.22,405.22a267.84,267.84,0,0,0,6.57,52.54q1.65,7.26,3.72,14.42c.88,3.09,5.71,1.78,4.82-1.33A260.48,260.48,0,0,1,496,420.09q-.61-7.43-.79-14.87c-.09-3.21-5.09-3.23-5,0Z" transform="translate(-39.66 -62.97)"/><path class="cls-1" d="M494.86,412.48a220.5,220.5,0,0,0,45,22.41l-1.1-4.18a152.87,152.87,0,0,0-35.62,50.77,154.9,154.9,0,0,0-6.07,16.57c-.94,3.09,3.89,4.41,4.82,1.33a148.11,148.11,0,0,1,28.55-52.65,150.26,150.26,0,0,1,11.85-12.48,2.53,2.53,0,0,0-1.1-4.18,215.11,215.11,0,0,1-43.84-21.91c-2.71-1.76-5.21,2.57-2.52,4.32Z" transform="translate(-39.66 -62.97)"/><path class="cls-1" d="M562.35,396.65a130.64,130.64,0,0,0-22.22,40.41,2.51,2.51,0,0,0,2.41,3.16,93.45,93.45,0,0,1,37.69,3.35l-1.1-4.18a194.36,194.36,0,0,0-42,70.15,188.64,188.64,0,0,0-6,22.17,2.56,2.56,0,0,0,1.75,3.07,2.52,2.52,0,0,0,3.07-1.74,189.72,189.72,0,0,1,32.48-72.93,183.17,183.17,0,0,1,14.28-17.18,2.53,2.53,0,0,0-1.11-4.18,97.16,97.16,0,0,0-39-3.53l2.41,3.17a123.46,123.46,0,0,1,20.94-38.2,2.59,2.59,0,0,0,0-3.54,2.52,2.52,0,0,0-3.54,0Z" transform="translate(-39.66 -62.97)"/><path class="cls-1" d="M538.32,581.25c-17.54-9.07-39.16-4.18-54,8-15.76,12.93-23.71,33.41-26.61,53.09-1.41,9.6-1.7,19.59.82,29,2.47,9.26,8,17.45,16.24,22.44,8,4.84,17.61,6.31,26.83,6.26,9.73,0,19.41-1.75,28.89-3.76,19.83-4.2,39.61-11,55.74-23.63a72.53,72.53,0,0,0,18.57-21.13,69.18,69.18,0,0,0,8.51-25.88,53.51,53.51,0,0,0-3.05-26,46.94,46.94,0,0,0-17.21-21.34c-15.77-10.83-36.37-12.53-54.84-9.91A115.63,115.63,0,0,0,487.67,589a117.44,117.44,0,0,0-36,41.16,110.28,110.28,0,0,0-5.46,12.4,2.51,2.51,0,0,0,1.75,3.07,2.54,2.54,0,0,0,3.07-1.74,108.84,108.84,0,0,1,29.23-42.53,114.23,114.23,0,0,1,44.82-25c16.87-4.83,35.54-5.92,52.35-.23a48.54,48.54,0,0,1,21.71,14.28,42,42,0,0,1,9.26,21.69c2.12,16.6-3.88,34.2-14.74,46.78-12.48,14.45-30.31,23.13-48.32,28.53a211.08,211.08,0,0,1-28.11,6.32c-8.7,1.36-17.84,2.06-26.57.52-8.35-1.49-16.31-5.21-21.52-12.1s-7.2-16-7.41-24.7a95.55,95.55,0,0,1,3.79-27.66,81.48,81.48,0,0,1,12.19-26.1,54.37,54.37,0,0,1,20.67-17.45,46.19,46.19,0,0,1,25.75-4.32,36.4,36.4,0,0,1,11.7,3.69c2.85,1.48,5.39-2.84,2.52-4.32Z" transform="translate(-39.66 -62.97)"/><path class="cls-1" d="M553.44,588.33c-14.81-9.27-33.47-11.08-50.16-6.45-16.22,4.51-30,15.24-39.64,28.85-9.53,13.41-15.61,30.13-15.31,46.68a49.14,49.14,0,0,0,6.13,23.79,41.44,41.44,0,0,0,18.7,16.67c16.57,7.6,35.74,6,52.2-1s30-20,39.72-35a127.56,127.56,0,0,0,12.1-24c3.36-8.84,5.68-18.45,5-28a37.89,37.89,0,0,0-9.77-23.16,43.44,43.44,0,0,0-19.61-12c-16.33-4.84-33.4.48-46.42,10.82-14.25,11.31-22.68,28.21-27.15,45.54-1.11,4.32-2,8.69-2.69,13.09a2.57,2.57,0,0,0,1.74,3.08,2.53,2.53,0,0,0,3.08-1.75c2.71-16.89,8.09-34.16,19.3-47.44,9.86-11.67,24.39-20.47,40-20.21,13.9.24,28.33,8.07,33.92,21.2,3.41,8,3.22,17.06,1.4,25.43A100.4,100.4,0,0,1,566.77,649c-7.6,14.74-18.26,28.26-32.28,37.35S503.17,700.21,486.62,697c-7.7-1.5-15.25-4.69-21.12-10a36.85,36.85,0,0,1-11-19.41c-3.42-15.05.54-31.3,7.58-44.73s18-25.15,31.73-32a61,61,0,0,1,46.61-3.24,52.54,52.54,0,0,1,10.49,5.06c2.74,1.71,5.25-2.61,2.52-4.31Z" transform="translate(-39.66 -62.97)"/><path class="cls-1" d="M512.66,637.78c-4.88,2.11-6,9.6-1.27,12.47a7,7,0,0,0,6.93.12,5.65,5.65,0,0,0,2.5-6.6,6,6,0,0,0-6.79-4.31,2.43,2.43,0,0,0-1.75,1.75l-2.13,13.16a2.56,2.56,0,0,0,1.74,3.07A2.53,2.53,0,0,0,515,655.7l2.13-13.16-1.75,1.74q-.55.06-.15,0c.29,0,.23,0-.16-.06,0,0,.48.08.48.13-.34-.15-.39-.17-.15,0a1.75,1.75,0,0,1,.29.18c-.48-.26-.15-.11,0,.05a2.85,2.85,0,0,1,.23.26c-.21-.28-.24-.3-.09-.08l.25.46c-.31-.6,0,.06,0,.23.14.46,0-.5,0,0-.05.72.15-.23,0,.18l0,.17q-.13.38.06-.12a2.38,2.38,0,0,1-.18.3c.22-.27.25-.31.07-.11l-.12.12c-.2.18-.17.15.12-.08,0-.08-.64.55-.29.19.2-.07.19-.07,0,0l-.33.09-.33.07c.36,0,.44-.06.24,0a3,3,0,0,0-.6,0c-.53,0,.46.14,0,0-.13,0-.58-.08-.66-.2.33.15.37.16.12,0L514,646c-.1-.05-.19-.12-.29-.18.28.22.31.25.11.07l-.36-.36c.46.48,0-.08-.09-.24.27.43,0,.08,0-.12a2.21,2.21,0,0,1-.08-.37c0,.35,0,.39,0,.1s0-.38,0-.57c0,.66,0-.1.08-.28s.26-.68,0-.13a4.52,4.52,0,0,1,.36-.69c.08-.13.46-.54.07-.12.15-.17.31-.33.47-.49l.22-.19c-.25.19-.26.21,0,.05s.45-.25.69-.35a2.51,2.51,0,0,0,.9-3.42,2.58,2.58,0,0,0-3.42-.9Z" transform="translate(-39.66 -62.97)"/><path class="cls-1" d="M512.22,639.82A115.13,115.13,0,0,0,507,591.56c-1-3-5.84-1.74-4.82,1.33a111.61,111.61,0,0,1,5,46.93,2.51,2.51,0,0,0,2.5,2.5,2.56,2.56,0,0,0,2.5-2.5Z" transform="translate(-39.66 -62.97)"/><path class="cls-1" d="M495.13,610.61,510.87,579l-4.57-1.92a43.81,43.81,0,0,0,7.86,37.9l1.76-4.27a97.22,97.22,0,0,0-32.43,9.6c-2.88,1.44-.35,5.75,2.52,4.32a90.16,90.16,0,0,1,29.91-8.92,2.54,2.54,0,0,0,1.77-4.27,38.54,38.54,0,0,1-6.56-33c.7-2.66-3.28-4.53-4.57-1.93l-15.75,31.63c-1.43,2.87,2.88,5.4,4.32,2.52Z" transform="translate(-39.66 -62.97)"/><path class="cls-1" d="M517.22,640.66l30.63-8.39c3.1-.85,1.78-5.67-1.33-4.82l-30.63,8.39c-3.1.85-1.79,5.67,1.33,4.82Z" transform="translate(-39.66 -62.97)"/><path class="cls-1" d="M539.72,630A14.54,14.54,0,0,0,542,646.18a2.54,2.54,0,0,0,3.93-.5,24.14,24.14,0,0,0,.13-26.55l-2.82,3.67,25.09,6.34L567.2,625l-26.14,32.79a2.57,2.57,0,0,0,0,3.53,2.51,2.51,0,0,0,3.54,0l26.13-32.78c1.12-1.4.89-3.68-1.1-4.18L544.54,618c-2-.51-4.09,1.79-2.82,3.67a19.23,19.23,0,0,1-.14,21.5l3.93-.5A9.38,9.38,0,0,1,544,632.51a2.56,2.56,0,0,0-.89-3.42,2.52,2.52,0,0,0-3.42.9Z" transform="translate(-39.66 -62.97)"/><path class="cls-1" d="M477.08,700.41a22,22,0,0,0-21.47-1.51c-2.08,1-1.28,4,.6,4.57,4.28,1.37,6.32,7.86,3.55,11.31a2.55,2.55,0,0,0-.52,2.73,2.48,2.48,0,0,0,2.29,1.54q41.76-3.1,83.26-9,20.69-3,41.26-6.63c3.35-.6,6.69-1.19,10-1.83a38.46,38.46,0,0,0,8.69-2.51c5.37-2.41,9.78-7.85,8.78-14-1-5.94-6.92-9.14-12.28-10.34s-12.25-.41-16.59-4.43c-2.36-2.18-5.91,1.35-3.54,3.54,4.19,3.88,9.79,4.5,15.22,5.14,3.89.46,9,1.32,11.4,4.81,2.83,4.16-1,8.74-4.76,10.61a30.65,30.65,0,0,1-8,2.32c-3.24.62-6.49,1.2-9.74,1.78q-39.24,7-78.89,11.43-22.35,2.49-44.79,4.15l1.76,4.27c5.22-6.5,2.31-17.09-5.75-19.67l.59,4.57a17,17,0,0,1,16.43,1.51c2.67,1.81,5.18-2.52,2.52-4.32Z" transform="translate(-39.66 -62.97)"/><path class="cls-1" d="M644.48,521.26l-8.57-11.52a2.57,2.57,0,0,0-3.42-.89,2.53,2.53,0,0,0-.89,3.42L668,568.42l36.57,56.36,20.52,31.64c1.75,2.69,6.08.19,4.32-2.52L693,597.75l-36.56-56.37-20.53-31.64-4.31,2.53,8.56,11.51a2.59,2.59,0,0,0,3.42.9,2.51,2.51,0,0,0,.9-3.42Z" transform="translate(-39.66 -62.97)"/><path class="cls-1" d="M641.08,510.18l16.33-24.56h-4.32q20.28,39.12,41.84,77.56t44.4,76.13q12.84,21.21,26.09,42.18l1.49-3.67c-13.73,2.4-28.19-3.53-37.23-13.91a36.68,36.68,0,0,1-6.1-9.72,2.59,2.59,0,0,0-3.08-1.75,2.51,2.51,0,0,0-1.74,3.08,46.17,46.17,0,0,0,35.92,27.35,43.43,43.43,0,0,0,13.56-.23,2.52,2.52,0,0,0,1.5-3.67q-23.54-37.26-45.81-75.28t-43.29-76.77q-11.82-21.79-23.23-43.82c-.92-1.76-3.34-1.48-4.32,0l-16.33,24.56c-1.79,2.69,2.54,5.19,4.32,2.52Z" transform="translate(-39.66 -62.97)"/><path class="cls-1" d="M633.29,523.67,592,563.2a2.51,2.51,0,0,0-.39,3l21.06,28.44,10.54,14.22c2.94,4,6,7.77,10.11,10.61s9.5,4.12,14.1,1.35a2.53,2.53,0,0,0,.89-3.42l-37.68-57.57-10.65-16.27c-1.76-2.68-6.09-.18-4.32,2.52q18.84,28.78,37.69,57.58L644,620l.89-3.42c-3.18,1.92-6.54.41-9.36-1.58-3.57-2.52-6.18-6.13-8.75-9.6L607,578.73l-11.13-15-.39,3,41.35-39.53c2.33-2.23-1.21-5.76-3.54-3.54Z" transform="translate(-39.66 -62.97)"/><path class="cls-1" d="M639.42,609.67l29-33.67a2.57,2.57,0,0,0,0-3.54,2.54,2.54,0,0,0-3.54,0l-29,33.67a2.56,2.56,0,0,0,0,3.54,2.52,2.52,0,0,0,3.53,0Z" transform="translate(-39.66 -62.97)"/><path class="cls-1" d="M668.45,509.17c-1.76-5.2.77-10.26,3.74-14.48,3.4-4.85,7.72-9.14,11.78-13.43q12.69-13.39,26.62-25.52,7.77-6.76,15.91-13.11l-4.27-1.77A65.42,65.42,0,0,0,734.74,488c1.31,1.73,2.72,3.37,4.13,5a13.37,13.37,0,0,1,3,4.74,4.38,4.38,0,0,1-1.4,4.38c-1.62,1.73-3.46,3.27-5.2,4.88L713,527.56,687.8,550.82c-2.36,2.18,1.18,5.71,3.54,3.53L737,512.22l5.62-5.19a14.39,14.39,0,0,0,3.9-5.16c1.74-4.49-1-8.76-3.8-12.09a77.41,77.41,0,0,1-7.43-10,59.9,59.9,0,0,1-5.15-11.11,61.37,61.37,0,0,1-2.86-27.78,2.47,2.47,0,0,0-1.53-2.29,2.63,2.63,0,0,0-2.74.52q-15.16,11.85-29.11,25.16-6.78,6.5-13.25,13.31c-4.33,4.56-8.81,9.14-12.48,14.25-3.84,5.36-6.72,12.09-4.5,18.69,1,3,5.86,1.73,4.83-1.33Z" transform="translate(-39.66 -62.97)"/><path class="cls-1" d="M708.35,454.85l27.37,53.84L743.49,524c1.46,2.86,5.77.34,4.31-2.53l-27.36-53.83-7.78-15.29c-1.45-2.87-5.77-.34-4.31,2.52Z" transform="translate(-39.66 -62.97)"/></svg>