<svg id="Layer_37" data-name="Layer 37" xmlns="http://www.w3.org/2000/svg" viewBox="0 0 616.39 752.23"><defs><style>.cls-1{fill:#952c1f;}</style></defs><path class="cls-1" d="M60,158.54l17,82.87,17,82.87,9.55,46.44c.36,1.74,3,2.55,4.18,1.1l46-57.2,13.13-16.34a2.57,2.57,0,0,0,0-3.54,2.51,2.51,0,0,0-3.53,0l-46,57.2-13.13,16.35,4.17,1.1-17-82.86-17-82.87-9.55-46.44A2.5,2.5,0,1,0,60,158.54Z" transform="translate(-59.93 -155.39)"/><path class="cls-1" d="M168.45,174.5,135,236.41,125.54,254a2.53,2.53,0,0,0,2.83,3.67c23.42-5.68,45.5,10.37,61.42,25.69,8.29,8,16.12,16.42,24.82,23.94s18.64,14.61,29.8,18c6.45,1.93,13.79,2.29,19.8-1.18,5.17-3,9.16-8.67,8.64-14.83a2.56,2.56,0,0,0-2.5-2.5,2.52,2.52,0,0,0-2.5,2.5c.4,4.68-2.65,8.63-6.64,10.77-5,2.69-11.14,1.83-16.32.15-10.43-3.38-19.67-10.17-27.81-17.34-8.48-7.46-16.18-15.76-24.34-23.57-8.41-8-17.58-15.45-28-20.71-11.66-5.86-24.8-8.83-37.69-5.7l2.82,3.67,33.42-61.91L172.76,177c1.53-2.83-2.78-5.36-4.31-2.52Z" transform="translate(-59.93 -155.39)"/><path class="cls-1" d="M130.77,266.73a336,336,0,0,1,76.92-32.34q11.34-3.18,22.89-5.57a2.52,2.52,0,0,0,1.75-3.07,2.56,2.56,0,0,0-3.08-1.75,341.48,341.48,0,0,0-79.78,27.17q-10.82,5.23-21.22,11.24c-2.79,1.61-.27,5.93,2.52,4.32Z" transform="translate(-59.93 -155.39)"/><path class="cls-1" d="M258.51,178.69,273.65,246l15.1,67,8.5,37.78c.71,3.13,5.53,1.81,4.83-1.33l-15.15-67.27-15.09-67-8.51-37.78c-.71-3.14-5.53-1.81-4.82,1.33Z" transform="translate(-59.93 -155.39)"/><path class="cls-1" d="M248.25,237.38l80.54-56.16,22.9-16a2.57,2.57,0,0,0,.89-3.42,2.52,2.52,0,0,0-3.42-.89L268.62,217.1l-22.89,16a2.56,2.56,0,0,0-.9,3.42,2.51,2.51,0,0,0,3.42.9Z" transform="translate(-59.93 -155.39)"/><path class="cls-1" d="M451.2,159.66l-25.74,52.19L399.73,264l-6.41,13c-2,4-4,8-4.88,12.4-.82,4.16-.54,8.54,1.76,12.2a20.32,20.32,0,0,0,8.28,7,95.39,95.39,0,0,0,11.3,4.46q6.64,2.36,13.33,4.56,13.15,4.31,26.5,8,26.81,7.41,54.24,12.23c2.27.4,4.55.78,6.82,1.16,1.45.23,3.32-.64,3.17-2.41A70.31,70.31,0,0,0,501,302.19a75.48,75.48,0,0,0-28.17-24.07,66.94,66.94,0,0,0-20-6.2l1.11,4.18a39.18,39.18,0,0,1,25-12,2.56,2.56,0,0,0,2.5-2.5,2.51,2.51,0,0,0-2.5-2.5,44.47,44.47,0,0,0-28.55,13.43c-1.16,1.22-.86,3.9,1.1,4.18,23.26,3.28,43.62,19.82,52.68,41.36a62.38,62.38,0,0,1,4.67,18.55l3.16-2.41q-26.85-4.41-53.22-11.28-26.22-6.85-51.71-16.13c-5.92-2.15-13.73-5.15-14.07-12.55-.18-4,1.37-7.88,3-11.43,2-4.2,4.08-8.33,6.14-12.49l25.07-50.84,25.19-51.06,3.09-6.27a2.55,2.55,0,0,0-.9-3.42,2.52,2.52,0,0,0-3.42.89Z" transform="translate(-59.93 -155.39)"/><path class="cls-1" d="M546.59,248.88c-3.4,20.67-6.84,41.83-3,62.69,3.16,17.3,11.63,34.38,26.65,44.27,14.15,9.31,32.93,11.4,47.65,2.21,7.59-4.74,13.56-11.61,18.6-18.91A140.53,140.53,0,0,0,650,314.48a152.32,152.32,0,0,0,12.29-55.24c.51-16.71-1.54-34-8.9-49.14-6.87-14.18-19.23-25.69-35.27-28-16.45-2.34-33.35,4.22-45.39,15.36-13.19,12.21-20.55,29.61-24.37,46.86-4.49,20.21-4.32,41-5.63,61.57-.34,5.22-.77,10.43-1.39,15.63a2.51,2.51,0,0,0,2.5,2.5,2.57,2.57,0,0,0,2.5-2.5c2.46-20.55,1.87-41.33,4.43-61.87,2.1-16.84,6.69-33.93,16.4-48.05,8.86-12.9,22.61-22.54,38.33-24.62a40,40,0,0,1,21.83,2.91,42,42,0,0,1,16.11,13.28c8.87,12,12.63,27.3,13.61,42a146.24,146.24,0,0,1-6.52,53.58,144.24,144.24,0,0,1-10.55,25c-4.05,7.52-8.67,14.94-14.46,21.27-5.47,6-12.13,10.95-20.09,13a39.19,39.19,0,0,1-22.45-1.41c-15.68-5.49-26.35-19.18-31.53-34.56-6.16-18.28-5.07-37.87-2.38-56.69.72-5.06,1.55-10.11,2.38-15.16a2.57,2.57,0,0,0-1.75-3.07,2.51,2.51,0,0,0-3.07,1.74Z" transform="translate(-59.93 -155.39)"/><path class="cls-1" d="M107,604q-3.27-34.08-4.52-68.32t-.47-68.23q.44-19.23,1.52-38.43l-4.66,1.26q19.74,38.31,37.35,77.67t32.92,79.46q8.67,22.68,16.64,45.63a2.57,2.57,0,0,0,3.07,1.75,2.53,2.53,0,0,0,1.75-3.08q-14.22-40.93-30.67-81T124.8,471.31q-10.44-21.92-21.57-43.51c-1.2-2.34-4.53-1.06-4.66,1.26q-1.92,34.19-1.81,68.45T99,565.7q1.2,19.2,3,38.34a2.57,2.57,0,0,0,2.5,2.5A2.51,2.51,0,0,0,107,604Z" transform="translate(-59.93 -155.39)"/><path class="cls-1" d="M92.87,551.6a114.68,114.68,0,0,0,48-15.68c2.76-1.66.25-6-2.52-4.32a109,109,0,0,1-45.47,15,2.56,2.56,0,0,0-2.5,2.5,2.53,2.53,0,0,0,2.5,2.5Z" transform="translate(-59.93 -155.39)"/><path class="cls-1" d="M195.74,608.35l-13.67-62.2L168.4,484l-7.72-35.13-4.57,1.93,31,60,31,60,17.44,33.76c1.1,2.13,4.89,1.22,4.66-1.26Q236.58,565,230.75,527t-13.88-75.29q-4.51-21-9.73-41.8c-.78-3.12-5.6-1.8-4.82,1.33q9.24,36.9,16.29,74.3t11.84,75q2.72,21.29,4.71,42.66l4.66-1.26-31-60-31-60-17.44-33.76c-1.35-2.61-5.16-.75-4.57,1.92l13.67,62.2,13.67,62.2,7.72,35.13c.69,3.14,5.51,1.81,4.82-1.33Z" transform="translate(-59.93 -155.39)"/><path class="cls-1" d="M254.07,458.64q2.61,29.6,7.3,59t11.43,58.1q3.81,16.24,8.27,32.32c.86,3.1,5.68,1.78,4.82-1.33q-7.87-28.43-13.72-57.35-5.79-28.71-9.54-57.77-2.11-16.43-3.56-32.93a2.57,2.57,0,0,0-2.5-2.5,2.52,2.52,0,0,0-2.5,2.5Z" transform="translate(-59.93 -155.39)"/><path class="cls-1" d="M259.39,481.1,301.19,513l10.31,7.86c2.81,2.14,6,4.24,8.1,7.14,4.41,6.1,1.06,13.59-2.27,19.33-3.84,6.63-8.13,13-11.9,19.65s-7.36,13.6-10.65,20.59a324.22,324.22,0,0,0-16.87,43.61,317.83,317.83,0,0,0-10.28,45.4c-.29,2-.56,3.94-.83,5.91-.18,1.34,1.28,2.5,2.5,2.5a2.56,2.56,0,0,0,2.5-2.5,317.29,317.29,0,0,1,26.17-90q4.95-10.72,10.7-21.06c3.8-6.85,8-13.4,12.1-20.1,3.8-6.24,7.62-14,5.29-21.47a19.59,19.59,0,0,0-6.46-9c-3.26-2.75-6.75-5.23-10.14-7.82l-42.2-32.19-5.35-4.08a2.52,2.52,0,0,0-3.42.9,2.56,2.56,0,0,0,.9,3.42Z" transform="translate(-59.93 -155.39)"/><path class="cls-1" d="M359.3,446.88l2.33,52.18L364,551.24l2.34,52.43,1.15,26q.3,6.5.58,13c.14,3.11.4,6.52,2.25,9.14a7.87,7.87,0,0,0,9.46,2.72c3.75-1.45,6.67-4.42,9.66-7l19.8-17.07,4.9-4.23a2.53,2.53,0,0,0,0-3.54,2.55,2.55,0,0,0-3.53,0l-19.05,16.43c-3.18,2.74-6.33,5.52-9.55,8.22-1.67,1.41-5,4-7.06,2.24-1.82-1.53-1.79-4.91-1.89-7.16l-.56-12.48-1.12-25.22-2.25-50.43-2.26-50.69-2.25-50.43-.28-6.24c-.14-3.21-5.14-3.23-5,0Z" transform="translate(-59.93 -155.39)"/><path class="cls-1" d="M420.43,536.35c3.22,0,3.22-5,0-5s-3.22,5,0,5Z" transform="translate(-59.93 -155.39)"/><path class="cls-1" d="M418.2,543.84a342.38,342.38,0,0,0,6.27,47.62q2.4,11.73,5.63,23.27c1.74,6.21,3.49,12.55,6.85,18.12,2.88,4.76,7.18,9.21,12.89,10.14,5.9,1,11.38-1.68,15.1-6.22s6-10.25,7.46-16a153.25,153.25,0,0,0,3.6-20.17,160.08,160.08,0,0,0-11.4-79.14c-5.21-12.46-11.87-24.76-20.47-35.22-4.06-4.95-10.34-9.6-17-6.88-5.64,2.31-8.33,8.47-9.88,14A211,211,0,0,0,410,539.67a226.21,226.21,0,0,0,2.56,47.22q.88,5.58,2.06,11.13c.66,3.14,5.48,1.81,4.82-1.33a221.36,221.36,0,0,1-.52-88.63c.74-3.7,1.57-7.39,2.5-11a36.91,36.91,0,0,1,2.66-7.81,10.78,10.78,0,0,1,4.51-5,7.06,7.06,0,0,1,6.71.73,23.93,23.93,0,0,1,6.31,6.26q2.91,3.89,5.56,8a153.64,153.64,0,0,1,9.33,16.55,156.16,156.16,0,0,1,15.3,74.08,147.43,147.43,0,0,1-1.94,18.63c-1,5.94-2.15,12.07-4.43,17.67-1.78,4.39-4.52,9-8.85,11.2s-8.89.6-12.12-2.67c-3.6-3.65-5.75-8.65-7.31-13.46-2.3-7.1-4.15-14.37-5.85-21.63a332.17,332.17,0,0,1-7.3-44.67c-.34-3.65-.62-7.32-.84-11-.2-3.2-5.2-3.22-5,0Z" transform="translate(-59.93 -155.39)"/><path class="cls-1" d="M537.16,472.5c-5.82,12.3-11.62,24.62-16.61,37.28-4.89,12.4-9.17,25.29-11.33,38.47-1,6.39-1.41,13.16,1.1,19.27a27.08,27.08,0,0,0,7.11,10c6.33,5.64,14.36,8.78,22,12.17a92.81,92.81,0,0,1,12.71,6.51,29.77,29.77,0,0,1,9.33,9l.89-3.42a132.22,132.22,0,0,0-29.25,26.81A136.76,136.76,0,0,0,513,662.86a128.17,128.17,0,0,0-6.55,21.3c-.67,3.14,4.15,4.48,4.82,1.33a129.43,129.43,0,0,1,36.95-65.94,124.08,124.08,0,0,1,16.71-13.45,2.54,2.54,0,0,0,.89-3.42c-9.23-14.79-28.14-17.08-41.66-26.27a26.59,26.59,0,0,1-7.61-7.63c-2.73-4.45-3.4-9.75-3-15.11.51-6.48,2.2-12.95,3.92-19.2s3.79-12.47,6.07-18.57c5.21-13.95,11.58-27.42,18-40.87a2.56,2.56,0,0,0-.9-3.42,2.52,2.52,0,0,0-3.42.89Z" transform="translate(-59.93 -155.39)"/><path class="cls-1" d="M636.49,482.16c-11.74,11.51-23.49,23.12-33.15,36.48-9.3,12.85-16.62,27.68-18.89,43.51-2.05,14.29.13,29,7.56,41.47a51.46,51.46,0,0,0,13.63,15.16,52.19,52.19,0,0,0,19.53,8.45c14.09,3.22,29.25,2.49,42.73,8.21a42,42,0,0,1,4.69,2.36c2.79,1.61,5.31-2.71,2.52-4.32-12.64-7.28-27.44-7.54-41.48-9.73-6.87-1.07-13.83-2.61-20-5.87a42.73,42.73,0,0,1-14.2-12.19c-8.06-10.74-11.48-24.2-10.6-37.5,1-15.24,7.28-29.77,15.63-42.38,8.82-13.32,20.06-24.8,31.39-36l4.2-4.13c2.3-2.26-1.23-5.8-3.53-3.54Z" transform="translate(-59.93 -155.39)"/><path class="cls-1" d="M566.54,563.28l61.84-10a2.53,2.53,0,0,0,1.75-3.08,2.56,2.56,0,0,0-3.08-1.74l-61.84,10a2.51,2.51,0,0,0-1.74,3.07,2.55,2.55,0,0,0,3.07,1.75Z" transform="translate(-59.93 -155.39)"/><path class="cls-1" d="M120.52,723l-33.66,63.6-9.58,18.11a2.55,2.55,0,0,0,.89,3.42Q99.6,821,120.55,834.59t41.37,28q11.54,8.13,22.9,16.5a2.52,2.52,0,0,0,3.42-.9,2.56,2.56,0,0,0-.9-3.42Q167.21,860,146.56,845.91t-41.82-27.37q-11.94-7.5-24-14.76l.89,3.42,33.66-63.6,9.58-18.1c1.51-2.85-2.81-5.38-4.31-2.53Z" transform="translate(-59.93 -155.39)"/><path class="cls-1" d="M155.79,783.89a87.67,87.67,0,0,0,5.72,52.64,64.25,64.25,0,0,0,8.74,15c3.47,4.26,8.11,7.54,13.67,8.17s11.28-1.68,15.58-5.24c8.75-7.26,11.41-20,12-30.85a75.64,75.64,0,0,0-22.4-57.49c-7.47-7.25-19.89-16-30.11-8.49-4.21,3.11-6.67,7.86-8.31,12.73a79,79,0,0,0-3.33,16,95.39,95.39,0,0,0,15.38,63.5c1.56,2.32,3.24,4.56,5,6.73a2.51,2.51,0,0,0,3.54,0,2.55,2.55,0,0,0,0-3.53,90.2,90.2,0,0,1-19.52-56.8,87.26,87.26,0,0,1,1.4-15.13c.86-4.59,1.9-9.35,4-13.54,1.92-3.76,4.9-7.25,9.34-7.77,5.07-.6,10.08,2.34,13.94,5.32,15.22,11.75,24.68,30.73,26,49.81a65.86,65.86,0,0,1-.51,14.31A44.69,44.69,0,0,1,201.47,844c-2.34,4.31-5.87,8.09-10.57,9.79a13.49,13.49,0,0,1-13-1.73c-4-2.91-6.63-7.37-8.94-11.6a80.52,80.52,0,0,1-6.29-15,83.48,83.48,0,0,1-3.25-32.5,74.7,74.7,0,0,1,1.17-7.73,2.58,2.58,0,0,0-1.75-3.08,2.54,2.54,0,0,0-3.08,1.75Z" transform="translate(-59.93 -155.39)"/><path class="cls-1" d="M216.12,849.72,216,781.66l-.05-19.2-4.91.66c9.42,24.28,18.88,48.67,31.55,71.48q5.3,9.55,11.39,18.63c1.34,2,4.66,1.33,4.66-1.27a573.08,573.08,0,0,0-3.39-60.87,578.47,578.47,0,0,0-9.86-60.36Q241.69,714,237,697.52c-.87-3.09-5.7-1.77-4.82,1.33a572.9,572.9,0,0,1,13.33,59,565.89,565.89,0,0,1,6.95,59.9q1.06,17.09,1.1,34.21l4.66-1.26c-14.36-21.26-24.91-44.76-34.43-68.51-2.72-6.78-5.36-13.59-8-20.4a2.54,2.54,0,0,0-2.74-1.79,2.52,2.52,0,0,0-2.17,2.46l.16,68.07.05,19.19c0,3.22,5,3.23,5,0Z" transform="translate(-59.93 -155.39)"/><path class="cls-1" d="M285.37,679.22q-1.86,39.38-.46,78.81T291,836.6q2.64,22,6.3,43.93a2.51,2.51,0,0,0,3.08,1.74,2.54,2.54,0,0,0,1.74-3.07q-6.47-38.67-9.68-77.78-3.2-38.92-3.17-78,0-22.1,1.07-44.19c.16-3.21-4.84-3.2-5,0Z" transform="translate(-59.93 -155.39)"/><path class="cls-1" d="M256.1,776.41l57.27-28.64,16.27-8.13c2.87-1.44.35-5.76-2.53-4.32L269.84,764l-16.26,8.13c-2.88,1.44-.35,5.75,2.52,4.32Z" transform="translate(-59.93 -155.39)"/><path class="cls-1" d="M298.15,778.43l14.34,77,4,21.58a2.52,2.52,0,0,0,3.07,1.75,2.54,2.54,0,0,0,1.75-3.07l-14.34-77-4-21.59a2.51,2.51,0,0,0-3.07-1.74,2.54,2.54,0,0,0-1.75,3.07Z" transform="translate(-59.93 -155.39)"/><path class="cls-1" d="M311.15,780.21l56.9,22,16.32,6.31.66-4.91a106.55,106.55,0,0,0-59.18,17.16c-4.84,3.16-12.55,7.87-10.25,14.83,1.89,5.71,8.47,7.59,13.55,9.31A117.35,117.35,0,0,1,345.71,852a124.93,124.93,0,0,1,29.64,21.48,122.77,122.77,0,0,1,24,32.89c1.43,2.87,5.75.35,4.31-2.53a129,129,0,0,0-48.15-52,124.53,124.53,0,0,0-15.57-8c-2.88-1.24-5.8-2.39-8.77-3.42a46.35,46.35,0,0,1-7.25-2.78,10.66,10.66,0,0,1-2.61-1.9,3.66,3.66,0,0,1-1.1-2.18c-.2-2.67,2.72-4.62,4.61-6A100.93,100.93,0,0,1,385,808.59a2.5,2.5,0,0,0,2.46-2.17,2.55,2.55,0,0,0-1.79-2.74l-56.9-22-16.32-6.31a2.52,2.52,0,0,0-3.07,1.75,2.56,2.56,0,0,0,1.74,3.08Z" transform="translate(-59.93 -155.39)"/><path class="cls-1" d="M390,833.38c.78,9.68,1.69,19.54,5.68,28.51a30.55,30.55,0,0,0,18.05,17c7.65,2.58,16.54,1.41,22.11-4.81,5.76-6.43,6.66-15.7,5.8-24A94.33,94.33,0,0,0,433.91,822a91.35,91.35,0,0,0-15.66-24.71c-3.15-3.45-7.12-6.74-11.77-7.87a13.81,13.81,0,0,0-12.58,3.23c-3.08,2.73-5,6.62-6.36,10.45A75.16,75.16,0,0,0,384.33,817a109.22,109.22,0,0,0,7.36,59.13q1.44,3.39,3.1,6.66c1.46,2.87,5.78.35,4.32-2.52a103.61,103.61,0,0,1-10.88-53.15A97,97,0,0,1,390,813.62a50.13,50.13,0,0,1,3.34-11.53c1.4-3,3.41-6.13,6.59-7.45,3.59-1.48,7.29,0,10.28,2.08,3.47,2.45,6.22,5.94,8.72,9.33a96.06,96.06,0,0,1,7.25,11.45,94.07,94.07,0,0,1,9.21,25.19c1.57,7.45,2.58,15.64-.17,22.94a14.21,14.21,0,0,1-15.37,9.5,23.55,23.55,0,0,1-16.93-10.37c-4.85-7.29-6.47-16.14-7.35-24.7-.23-2.23-.42-4.45-.59-6.68a2.57,2.57,0,0,0-2.5-2.5,2.52,2.52,0,0,0-2.5,2.5Z" transform="translate(-59.93 -155.39)"/><path class="cls-1" d="M453.54,711l.11,92.41.06,46c0,5.66-.68,12.56,2.77,17.47,4.37,6.24,12.06,4.5,18.5,3.63l51.1-6.89c1.33-.18,2.06-1.9,1.74-3.07a2.56,2.56,0,0,0-3.07-1.75l-44.22,6c-3.52.47-7,1-10.56,1.42-2.64.34-6,.88-8.27-.91-1.77-1.4-2.4-3.82-2.72-6a57.72,57.72,0,0,1-.27-8.42l-.11-89.42L458.54,711c0-3.21-5-3.22-5,0Z" transform="translate(-59.93 -155.39)"/></svg>