<svg id="Layer_27" data-name="Layer 27" xmlns="http://www.w3.org/2000/svg" viewBox="0 0 575.62 719.97"><defs><style>.cls-1{fill:#952c1f;}</style></defs><path class="cls-1" d="M45.71,260.78l27.36,55.47,27.37,55.47L115.89,403a2.52,2.52,0,0,0,3.93.5c9.66-12,19.39-24.06,31-34.28a2.54,2.54,0,0,0,0-3.54,2.56,2.56,0,0,0-3.54,0C135.67,376,125.94,388,116.28,400l3.93.5L92.84,345,65.47,289.57,50,258.26a2.5,2.5,0,1,0-4.31,2.52Z" transform="translate(-45.4 -168.8)"/><path class="cls-1" d="M136.73,222.66l-23.34,76.17-6.56,21.42a2.53,2.53,0,0,0,3.08,3.08A56.42,56.42,0,0,1,139,320.94c9.34,1.72,18.14,5.42,26.92,8.92,8.07,3.22,16.29,6.46,25,7.64a53,53,0,0,0,22.37-1.38c7.78-2.35,14.75-7.13,18.7-14.37,1.54-2.83-2.78-5.35-4.32-2.52-6.77,12.41-22.5,15-35.41,13.44-8.44-1-16.52-4.26-24.36-7.38-8.64-3.45-17.29-7.11-26.45-9a61.77,61.77,0,0,0-32.79,2.17l3.07,3.08L135,245.41,141.55,224c.94-3.09-3.88-4.41-4.82-1.33Z" transform="translate(-45.4 -168.8)"/><path class="cls-1" d="M117,328.39l40.53-20.93c2.86-1.47.33-5.79-2.52-4.31l-40.53,20.93c-2.86,1.47-.33,5.79,2.52,4.31Z" transform="translate(-45.4 -168.8)"/><path class="cls-1" d="M212.91,318.82c-12.38-25.37-24.87-51.09-31.2-78.76a159.06,159.06,0,0,1-3.64-23.57l-4.26,1.77,34.24,40.57c11.19,13.25,22.21,26.66,33.62,39.72A169.62,169.62,0,0,0,261,317.94a2.56,2.56,0,0,0,3.53,0,2.5,2.5,0,0,0,0-3.53c-12.73-10.55-23.06-23.68-33.68-36.26l-34.25-40.57-19.29-22.86c-1.36-1.61-4.43-.33-4.27,1.77,2.21,29.15,12.82,56.64,25,82.93,3.42,7.35,7,14.64,10.52,21.92a2.51,2.51,0,0,0,3.42.9,2.55,2.55,0,0,0,.89-3.42Z" transform="translate(-45.4 -168.8)"/><path class="cls-1" d="M183.38,303.28l30.6-27.2c2.41-2.14-1.14-5.67-3.54-3.53l-30.6,27.2c-2.41,2.14,1.14,5.66,3.54,3.53Z" transform="translate(-45.4 -168.8)"/><path class="cls-1" d="M205,219.46c9.1,12.68,18.2,25.35,27.68,37.75s19.34,24.59,29.9,36.13q8.91,9.75,18.53,18.82a2.52,2.52,0,0,0,4.18-2.43q-6.48-27-14.65-53.56t-18-52.51Q247,189,240.89,174.46a2.59,2.59,0,0,0-3.08-1.75,2.53,2.53,0,0,0-1.75,3.08q10.78,25.58,19.93,51.82t16.57,53q4.21,15.15,7.88,30.46l4.17-2.44a382.06,382.06,0,0,1-31.69-33.92c-9.86-11.81-19.16-24.07-28.25-36.48q-7.75-10.59-15.38-21.28a2.58,2.58,0,0,0-3.43-.9,2.52,2.52,0,0,0-.89,3.42Z" transform="translate(-45.4 -168.8)"/><path class="cls-1" d="M280.65,170.55a253,253,0,0,0-7.85,35q-1.33,8.86-2.07,17.8a132.41,132.41,0,0,0-.65,17c.27,5.45,1.54,10.8,4.92,15.19,3.06,4,7.28,6.82,11.61,9.25a262.46,262.46,0,0,0,29.81,14.46c11.67,4.71,24.12,7.89,36.78,7.34,3.2-.14,3.22-5.14,0-5-21.78.95-41.85-9.43-60.6-19.26-4-2.1-8.12-4.26-11.43-7.39a19.25,19.25,0,0,1-5.91-12.23c-.57-5.29-.13-10.72.22-16,.38-5.67.95-11.34,1.73-17a252.92,252.92,0,0,1,8.26-37.89c.93-3.09-3.9-4.41-4.82-1.33Z" transform="translate(-45.4 -168.8)"/><path class="cls-1" d="M266.31,256.29l39.06-23.87c2.74-1.67.23-6-2.53-4.31L263.78,252c-2.74,1.67-.23,6,2.53,4.31Z" transform="translate(-45.4 -168.8)"/><path class="cls-1" d="M158.58,451.1l-7.88,64.26-2.24,18.29a2.53,2.53,0,0,0,2.5,2.5l43.86.31,21.89.16c6.76,0,13.52.08,20.26-.39a92.57,92.57,0,0,0,22.69-4.11c3-1,1.73-5.84-1.33-4.82-12.82,4.24-26.39,4.41-39.76,4.34q-21.6-.14-43.19-.32L151,531.15l2.5,2.5,7.88-64.26,2.24-18.29a2.52,2.52,0,0,0-2.5-2.5,2.56,2.56,0,0,0-2.5,2.5Z" transform="translate(-45.4 -168.8)"/><path class="cls-1" d="M154.87,528.88l28.9-40.8a2.5,2.5,0,1,0-4.32-2.52l-28.9,40.8a2.52,2.52,0,0,0,.89,3.42,2.56,2.56,0,0,0,3.43-.9Z" transform="translate(-45.4 -168.8)"/><path class="cls-1" d="M192.25,456.68a652.27,652.27,0,0,1,58.47,39.63q7.93,6,15.68,12.34a2.55,2.55,0,0,0,3.29.19,2.51,2.51,0,0,0,.64-3.22,433.62,433.62,0,0,1-41.55-98.75q-4.12-14.64-7.23-29.54a2.5,2.5,0,1,0-4.82,1.32A438.14,438.14,0,0,0,231.05,431a446,446,0,0,0,20.63,50.11q6.69,13.79,14.33,27.08l3.93-3A656.66,656.66,0,0,0,211.86,463q-8.46-5.46-17.09-10.64c-2.76-1.66-5.28,2.66-2.52,4.32Z" transform="translate(-45.4 -168.8)"/><path class="cls-1" d="M251.51,387.33l12.57,64.82a58.54,58.54,0,0,0,3.66,13A21.79,21.79,0,0,0,276.4,475a39.35,39.35,0,0,0,12.78,4.4c5.23,1,10.53,1.75,15.83,2.27a172.15,172.15,0,0,0,36.45-.32,2.58,2.58,0,0,0,2.5-2.5,2.51,2.51,0,0,0-2.5-2.5,172.93,172.93,0,0,1-31.36.74c-5.2-.35-10.39-.94-15.53-1.79-4.34-.72-8.84-1.46-12.91-3.21a17.52,17.52,0,0,1-8.75-7.73c-2-3.67-2.88-7.87-3.69-11.94-2-10.28-4-20.59-6-30.88L256.33,386a2.53,2.53,0,0,0-3.07-1.75,2.55,2.55,0,0,0-1.75,3.08Z" transform="translate(-45.4 -168.8)"/><path class="cls-1" d="M268.5,454.71l20.36-20.44c2.27-2.29-1.26-5.82-3.54-3.54L265,451.17c-2.27,2.29,1.27,5.82,3.54,3.54Z" transform="translate(-45.4 -168.8)"/><path class="cls-1" d="M281.45,387.78c14.39,23.19,31.76,44.37,50.12,64.5q7.85,8.61,15.9,17l3-3.92a187.83,187.83,0,0,1-33.91-29.52,190,190,0,0,1-26-36.69,185.43,185.43,0,0,1-10.54-23L277,379.24c6.14,1.66,11.81-1.64,16.81-4.84,3.54-2.27,9.13-5.77,13.41-3.38,3.77,2.1,3.49,7.38,3,11.06-.84,6.22-2.31,12.4-3.48,18.57l-4.29,22.5a2.52,2.52,0,0,0,4.18,2.43c8.4-7,20.88-3,28.84,2.53,10.26,7.16,17.72,17.67,28.73,23.87,6.25,3.52,13.16,5.42,20.33,4.41a2.52,2.52,0,0,0,1.74-3.08,2.55,2.55,0,0,0-3.07-1.74c-12.57,1.77-23.3-8.08-31.64-16.05-4.63-4.43-9.26-8.9-14.62-12.45a36.53,36.53,0,0,0-16.23-6,23.27,23.27,0,0,0-17.62,5l4.18,2.44,4-21c1.26-6.6,2.76-13.2,3.74-19.85.75-5.1.93-10.95-2.83-15-4.33-4.64-11-3.59-16.18-1.21-3.06,1.41-5.75,3.47-8.69,5.1-2.75,1.51-5.82,2.77-9,1.92-1.71-.46-3.77,1.24-3.08,3.08a193.19,193.19,0,0,0,21.47,41.18,195.69,195.69,0,0,0,30.49,34.77A193.68,193.68,0,0,0,348,469.67c2.41,1.63,4.94-1.93,3-3.92-18.65-19.52-36.81-39.62-52.57-61.57q-6.65-9.24-12.67-18.92c-1.69-2.73-6-.23-4.32,2.52Z" transform="translate(-45.4 -168.8)"/><path class="cls-1" d="M320.4,358.24a276.47,276.47,0,0,0,39,66.36q6.75,8.49,14.17,16.43c2.2,2.36,5.73-1.18,3.53-3.53A270.45,270.45,0,0,1,334.05,376c-3.19-6.25-6.15-12.62-8.83-19.11a2.59,2.59,0,0,0-3.08-1.74,2.51,2.51,0,0,0-1.74,3.07Z" transform="translate(-45.4 -168.8)"/><path class="cls-1" d="M347.93,332.72Q353.66,375,361,417q7.31,41.76,16.23,83.23,5.06,23.49,10.62,46.85c.74,3.13,5.57,1.81,4.82-1.33q-9.87-41.49-18.15-83.34-8.2-41.6-14.82-83.49-3.73-23.73-7-47.54a2.5,2.5,0,0,0-3.07-1.74,2.56,2.56,0,0,0-1.75,3.07Z" transform="translate(-45.4 -168.8)"/><path class="cls-1" d="M351.1,293.63q6.31,24.66,14.95,48.65t19.58,47.18q6.14,13,12.95,25.62c1.52,2.83,5.84.31,4.31-2.53q-12-22.2-21.82-45.47t-17.37-47.4q-4.26-13.59-7.78-27.38c-.79-3.12-5.62-1.8-4.82,1.33Z" transform="translate(-45.4 -168.8)"/><path class="cls-1" d="M361.87,266.7a583.63,583.63,0,0,0,18.93,63.84A587.8,587.8,0,0,0,406.94,392q8.28,16.77,17.64,33c1.61,2.79,5.93.28,4.32-2.52a583.8,583.8,0,0,1-29.74-59.08,581.11,581.11,0,0,1-22.74-61.9q-5.44-17.89-9.73-36.12c-.74-3.13-5.56-1.81-4.82,1.33Z" transform="translate(-45.4 -168.8)"/><path class="cls-1" d="M371.17,251.21q10.17,37,22.86,73.27t28,71.67q8.49,19.74,17.74,39.15a2.52,2.52,0,0,0,3.42.9,2.56,2.56,0,0,0,.9-3.42q-16.43-34.47-30.44-70-14-35.38-25.43-71.66-6.5-20.49-12.18-41.23c-.85-3.09-5.67-1.78-4.82,1.33Z" transform="translate(-45.4 -168.8)"/><path class="cls-1" d="M397.83,380.9a51.5,51.5,0,0,1,19.68-19.37c2.81-1.56.29-5.88-2.53-4.31a56.34,56.34,0,0,0-21.46,21.16c-1.61,2.79,2.71,5.31,4.31,2.52Z" transform="translate(-45.4 -168.8)"/><path class="cls-1" d="M397.69,295.7l38.66,87.49,10.87,24.61a2.53,2.53,0,0,0,3.42.9,2.59,2.59,0,0,0,.9-3.43l-38.66-87.49L402,293.17a2.53,2.53,0,0,0-3.42-.9,2.57,2.57,0,0,0-.9,3.43Z" transform="translate(-45.4 -168.8)"/><path class="cls-1" d="M461,381.75a338.57,338.57,0,0,1-34.1-56.85q-4-8.4-7.48-17l-4.57,1.92a366.53,366.53,0,0,0,48.62,63.5q7.77,8.15,16.06,15.79a2.53,2.53,0,0,0,4.18-2.44,379,379,0,0,0-14.12-45.27A383.25,383.25,0,0,0,450,298.24q-6.3-11.81-13.44-23.14c-1.71-2.72-6-.21-4.31,2.52a376.51,376.51,0,0,1,22.47,41.25,371.21,371.21,0,0,1,17,43.56q4,12.65,7.18,25.54l4.18-2.43a361.49,361.49,0,0,1-51.65-59.37q-6.4-9.26-12.24-18.9a2.49,2.49,0,0,0-3.12-1,2.46,2.46,0,0,0-1.45,2.94,342.08,342.08,0,0,0,31.17,59.49q5.23,7.95,10.91,15.59a2.58,2.58,0,0,0,3.42.9,2.52,2.52,0,0,0,.9-3.42Z" transform="translate(-45.4 -168.8)"/><path class="cls-1" d="M462.11,232.37l7.69,52.26,7.69,52.26,4.35,29.58c.34,2.31,3.51,2.2,4.57.6,3.95-6,8.08-12.36,14.24-16.28a20.81,20.81,0,0,1,9.37-3.38,14.78,14.78,0,0,1,4.87.36c1.53.39,3,1.06,4.54,1.37a7.41,7.41,0,0,0,5-.45,5.64,5.64,0,0,0,2.78-4.6,18.07,18.07,0,0,0-.93-5.53l-1.54-6.29-6.18-25.16-7-28.55a2.52,2.52,0,0,0-4.18-1.1L487,300.58l3.92,3a115.71,115.71,0,0,1,26.86-28.84,2.58,2.58,0,0,0,.9-3.42,2.52,2.52,0,0,0-3.42-.9,122.64,122.64,0,0,0-28.65,30.64c-1.54,2.35,2,5.17,3.92,3L510.94,281l-4.18-1.1q6.06,24.67,12.13,49.36l3,12.1c.18.74.86,2.54.09,3a3.19,3.19,0,0,1-.85,0,12.29,12.29,0,0,1-2.24-.58,22.44,22.44,0,0,0-10-1.26,26.07,26.07,0,0,0-10.17,3.61c-7.2,4.35-12,11.53-16.56,18.4l4.57.59L479,312.88l-7.68-52.25L466.93,231a2.51,2.51,0,0,0-3.07-1.74,2.57,2.57,0,0,0-1.75,3.07Z" transform="translate(-45.4 -168.8)"/><path class="cls-1" d="M341,322.37a287.88,287.88,0,0,0,50.75-37.29q6.52-6,12.66-12.4c2.23-2.32-1.3-5.86-3.53-3.53a282.32,282.32,0,0,1-47.34,39.57q-7.38,4.9-15.06,9.34c-2.78,1.61-.27,5.93,2.52,4.31Z" transform="translate(-45.4 -168.8)"/><path class="cls-1" d="M162.45,636a603.1,603.1,0,0,0,35.94,69.77q5.66,9.42,11.66,18.63c1.75,2.68,6.08.18,4.32-2.53a601.71,601.71,0,0,1-38.47-68.41q-4.76-9.91-9.13-20a2.51,2.51,0,0,0-3.42-.89,2.56,2.56,0,0,0-.9,3.42Z" transform="translate(-45.4 -168.8)"/><path class="cls-1" d="M127.93,688l45.77-54.93L219.64,578l25.76-30.92a2.56,2.56,0,0,0,0-3.54,2.51,2.51,0,0,0-3.53,0l-45.78,54.93-45.93,55.11L124.39,684.5a2.58,2.58,0,0,0,0,3.54,2.53,2.53,0,0,0,3.54,0Z" transform="translate(-45.4 -168.8)"/><path class="cls-1" d="M186.17,620a375.92,375.92,0,0,0,36.08,71q6.13,9.42,12.83,18.45a2.58,2.58,0,0,0,3.42.9,2.51,2.51,0,0,0,.9-3.42A373.47,373.47,0,0,1,199.47,639q-4.54-10-8.48-20.35a2.58,2.58,0,0,0-3.08-1.74,2.51,2.51,0,0,0-1.74,3.07Z" transform="translate(-45.4 -168.8)"/><path class="cls-1" d="M201.38,614a326.72,326.72,0,0,0,39.45,65.27q6.66,8.58,13.88,16.7c2.14,2.41,5.67-1.13,3.54-3.53a321.51,321.51,0,0,1-43.14-61.88q-5-9.39-9.41-19.08a2.52,2.52,0,0,0-3.42-.9,2.57,2.57,0,0,0-.9,3.42Z" transform="translate(-45.4 -168.8)"/><path class="cls-1" d="M219.51,675.11a46.4,46.4,0,0,1,22.83-21.31,2.5,2.5,0,0,0,.89-3.42,2.56,2.56,0,0,0-3.42-.89,50.71,50.71,0,0,0-24.62,23.1c-1.47,2.85,2.85,5.38,4.32,2.52Z" transform="translate(-45.4 -168.8)"/><path class="cls-1" d="M238.44,571.82,235,609.05l-1.72,18.61c-.48,5.18-1.55,10.65-.61,15.83.9,5,4.94,8.57,10.14,8a52.4,52.4,0,0,0,7.71-1.84,16.18,16.18,0,0,1,7.26-.14c10.61,2.2,17.65,11.22,25.79,17.56,4.48,3.49,9.46,6.4,15.14,7.33s11.27,0,15.89-3.54a2.52,2.52,0,0,0,0-3.54,2.58,2.58,0,0,0-3.54,0c-3.21,2.49-7.7,2.89-11.58,2.16a29.47,29.47,0,0,1-12.37-5.95c-8.18-6.23-14.8-14.4-24.79-17.93a23.64,23.64,0,0,0-14.94-.27c-2.05.61-4.42,1.58-6.59,1.12a4,4,0,0,1-3-3.06,16.36,16.36,0,0,1-.42-5.75c.17-2.77.49-5.53.75-8.29l1.63-17.62,3.71-40a2.5,2.5,0,0,0-5,0Z" transform="translate(-45.4 -168.8)"/><path class="cls-1" d="M239.48,643.29l37.4-39.1c2.22-2.32-1.31-5.87-3.54-3.53l-37.4,39.1c-2.22,2.32,1.31,5.86,3.54,3.53Z" transform="translate(-45.4 -168.8)"/><path class="cls-1" d="M303.91,607.62a497,497,0,0,0,41.18,39q6.21,5.25,12.61,10.28a2.55,2.55,0,0,0,3.28.2,2.5,2.5,0,0,0,.64-3.23l-30.95-48.17-8.88-13.83-3.42,3.42,63.09,37.94L399.36,644a2.52,2.52,0,0,0,3.68-1.5c3.68-19.52-7.42-37.65-16.25-54.15l-29.21-54.54L341.1,503c-1.52-2.84-5.84-.32-4.32,2.52q14.37,26.84,28.73,53.66l14.25,26.61c4.59,8.56,9.46,17,13.39,25.94,4,9.15,7,19.37,5.07,29.41l3.67-1.49L338.8,601.7l-17.91-10.76c-2.1-1.26-4.79,1.29-3.42,3.42l30.95,48.17,8.89,13.83,3.92-3a496.09,496.09,0,0,1-42.43-37.59Q313,610,307.45,604.08c-2.21-2.34-5.74,1.2-3.54,3.54Z" transform="translate(-45.4 -168.8)"/><path class="cls-1" d="M422.93,614.38c-6.7-17.62-14.35-34.86-22.6-51.8s-17.05-33.53-26.07-50q-7.62-13.93-15.37-27.81l-3.93,3q20.44,25,41.83,49.28t43.7,47.63q12.51,13.13,25.3,26c2.27,2.29,5.81-1.25,3.54-3.53q-22.8-22.92-44.72-46.68t-42.88-48.36Q370,498.27,358.5,484.23c-1.84-2.26-5.26.62-3.93,3,9.07,16.3,18.13,32.61,26.83,49.11s17.11,33.31,24.74,50.4q6.38,14.29,12,28.94a2.56,2.56,0,0,0,3.07,1.74,2.52,2.52,0,0,0,1.75-3.07Z" transform="translate(-45.4 -168.8)"/><path class="cls-1" d="M408.17,593.48a96.26,96.26,0,0,1,21.71-30.09c2.36-2.2-1.18-5.73-3.53-3.54A99.87,99.87,0,0,0,403.86,591a2.57,2.57,0,0,0,.89,3.42,2.51,2.51,0,0,0,3.42-.9Z" transform="translate(-45.4 -168.8)"/><path class="cls-1" d="M392.47,478.25a190.53,190.53,0,0,0,53.73,34.17q8.25,3.48,16.81,6.17c3.07,1,4.39-3.86,1.33-4.82a185.77,185.77,0,0,1-55-28.09c-4.62-3.43-9.06-7.1-13.34-11-2.38-2.15-5.93,1.37-3.53,3.53Z" transform="translate(-45.4 -168.8)"/><path class="cls-1" d="M428.86,466.2q10,22.64,21.39,44.62t24.26,43.41q7.19,12,14.79,23.67c1.74,2.69,6.07.18,4.32-2.53Q480.14,554.63,468,533.06T444.9,489q-6.09-12.57-11.72-25.33a2.51,2.51,0,0,0-3.42-.9,2.55,2.55,0,0,0-.9,3.42Z" transform="translate(-45.4 -168.8)"/><path class="cls-1" d="M487.05,463.71c10.76,12,27.2,18.46,43.22,17.61a51.9,51.9,0,0,0,13.48-2.48c3-1,1.74-5.83-1.33-4.82a50.17,50.17,0,0,1-42.27-5.67,47.26,47.26,0,0,1-9.56-8.17c-2.16-2.4-5.68,1.14-3.54,3.53Z" transform="translate(-45.4 -168.8)"/><path class="cls-1" d="M510.51,400.13a638.76,638.76,0,0,0,33.22,137.6q6.81,18.76,14.78,37.08a2.52,2.52,0,0,0,3.42.89,2.56,2.56,0,0,0,.9-3.42A636.69,636.69,0,0,1,521.67,438.7q-3.67-19.18-6.16-38.57a2.57,2.57,0,0,0-2.5-2.5,2.51,2.51,0,0,0-2.5,2.5Z" transform="translate(-45.4 -168.8)"/><path class="cls-1" d="M549.69,465.43a92.84,92.84,0,0,0,9.63,21.73,95.67,95.67,0,0,0,6.84,9.74c2.27,2.85,4.75,6.17,8.11,7.79a8.31,8.31,0,0,0,9.52-1.25c2.18-2.1,3-5.18,3.4-8.1a30,30,0,0,0-.82-9.67,86.75,86.75,0,0,0-3.3-11.64A88.22,88.22,0,0,0,572,452.81c-4.17-5.85-10-12-17.5-13.06a13.41,13.41,0,0,0-10.19,2.55,17.42,17.42,0,0,0-5.55,8.16c-2.36,6.56-2.19,14.2-1.41,21a72.91,72.91,0,0,0,17.86,40.15c1.23,1.39,2.52,2.71,3.87,4,2.33,2.22,5.87-1.31,3.53-3.54a67.33,67.33,0,0,1-19.08-33.83,64,64,0,0,1-1.43-19.37c.4-5,1.92-11.47,7-13.68,5.65-2.45,11.66,2.2,15.31,6.09,4.78,5.08,8.38,11.56,11.29,17.86A83.21,83.21,0,0,1,582,489.54a17.52,17.52,0,0,1-.16,7.24,7.14,7.14,0,0,1-1.21,2.69,2.78,2.78,0,0,1-1.9,1.18c-2.46.47-5-2.49-6.61-4.34a82,82,0,0,1-6.34-8.27,87.62,87.62,0,0,1-9.64-18.89q-.9-2.5-1.66-5c-.91-3.08-5.74-1.77-4.82,1.33Z" transform="translate(-45.4 -168.8)"/><path class="cls-1" d="M575.74,437a69.76,69.76,0,0,0,18.43,22.53,71.34,71.34,0,0,0,12.57,8.11c1,.51,2.09,1,3.16,1.47,1.29.56,3,1.61,4.37,1,1.89-.8,3.56-2.95,4.54-4.68,4.5-7.94,1.22-18.06-1.9-25.86q-6.51-16.29-14.38-32-8.82-17.56-19.31-34.21c-1.71-2.72-6-.21-4.32,2.52a406.79,406.79,0,0,1,21.28,38.18q4.8,9.81,9.06,19.89c2.4,5.67,5,11.42,6.19,17.5,1,4.9,1,11.06-3.38,14.2l1.92-.25a65.72,65.72,0,0,1-33.91-31c-1.47-2.86-5.78-.33-4.32,2.53Z" transform="translate(-45.4 -168.8)"/><path class="cls-1" d="M250.75,775.45q13.08,23,27.46,45.27t29.86,43.44q8.83,12.09,18,23.88a2.51,2.51,0,0,0,3.54,0,2.56,2.56,0,0,0,0-3.53q-16.08-20.62-31-42.16t-28.62-44q-7.71-12.6-15-25.44c-1.59-2.79-5.91-.28-4.32,2.53Z" transform="translate(-45.4 -168.8)"/><path class="cls-1" d="M221.08,834.84q14.17-27,29.5-53.4t31.79-52.07q9.25-14.46,18.86-28.67c1.8-2.68-2.53-5.18-4.32-2.53q-17.07,25.29-33,51.29t-30.8,52.67q-8.34,15-16.31,30.19c-1.5,2.85,2.82,5.38,4.32,2.52Z" transform="translate(-45.4 -168.8)"/><path class="cls-1" d="M270,856.78l32-67.67,9-18.94a2.58,2.58,0,0,0-.9-3.42,2.51,2.51,0,0,0-3.42.9l-32,67.66-9,18.94a2.58,2.58,0,0,0,.9,3.42,2.52,2.52,0,0,0,3.42-.89Z" transform="translate(-45.4 -168.8)"/><path class="cls-1" d="M306.5,798.65a86.43,86.43,0,0,0,21.3,31.07,85.37,85.37,0,0,0,14.88,11.08c6,3.51,13.05,6.58,20.12,5,6.2-1.39,10.61-6.53,12.7-12.3,2.5-6.88,1.29-14.52-.54-21.4a144.14,144.14,0,0,0-14.52-35,149.3,149.3,0,0,0-23-30.24,144.46,144.46,0,0,0-13.85-12.31c-5.31-4.13-11.11-8.86-18-9.67a13.44,13.44,0,0,0-13.64,7.56c-2.42,4.81-2.9,10.47-2.53,15.77a129.44,129.44,0,0,0,8.23,35.87,145.06,145.06,0,0,0,42.67,60.54q3.54,2.94,7.27,5.66a2.5,2.5,0,0,0,2.52-4.32A139.79,139.79,0,0,1,296,759.54a70.43,70.43,0,0,1-1.65-15.91c.19-4.25,1.13-9,4.29-11.89,4.2-3.8,10.38-1.23,14.72,1.54a111.23,111.23,0,0,1,14,10.88,143.52,143.52,0,0,1,39.23,57.74c2.16,6,4.25,12.21,5.1,18.5.76,5.66.19,11.9-3.6,16.45a11.81,11.81,0,0,1-6.34,4.07,16.26,16.26,0,0,1-8.94-.82c-5.65-1.91-10.93-5.45-15.64-9a81.22,81.22,0,0,1-22.24-26.2,77.24,77.24,0,0,1-3.54-7.54,2.57,2.57,0,0,0-3.07-1.74,2.51,2.51,0,0,0-1.75,3.07Z" transform="translate(-45.4 -168.8)"/><path class="cls-1" d="M342.51,737.33a234.82,234.82,0,0,0,35.63,61.41q3.64,4.54,7.52,8.91a65.79,65.79,0,0,0,8,8.22c2.95,2.32,6.68,3.78,10.42,2.57a12.66,12.66,0,0,0,7.29-6.63c3.72-7.78-.36-15.82-4-22.77Q394.66,764.92,382,740.79l-25.45-48.47-3.14-6c-1.49-2.85-5.81-.33-4.31,2.52l24.16,46,24.29,46.26,6,11.48c1.73,3.32,3.52,6.75,4.11,10.49a10.32,10.32,0,0,1-1.88,8.16c-1.64,2.06-4.09,3.21-6.65,2.19-3.05-1.21-5.36-4.29-7.51-6.64q-3.79-4.14-7.38-8.46-7.18-8.64-13.48-18A231.85,231.85,0,0,1,349.37,741q-1-2.49-2-5a2.58,2.58,0,0,0-3.07-1.75,2.52,2.52,0,0,0-1.75,3.08Z" transform="translate(-45.4 -168.8)"/><path class="cls-1" d="M414.71,774a247.94,247.94,0,0,1-36.17-57.83q-3.89-8.68-7.07-17.65l-4.18,2.43c18.1,21.75,36.35,43.66,58.08,61.94A215.17,215.17,0,0,0,444.7,777.4a2.53,2.53,0,0,0,3-.39,2.6,2.6,0,0,0,.39-3,555.78,555.78,0,0,0-41.92-75.8q-6.72-10.2-13.91-20.1a2.57,2.57,0,0,0-3.42-.89,2.52,2.52,0,0,0-.89,3.42,555.74,555.74,0,0,1,45.22,73.88q5.54,10.89,10.6,22l3.42-3.42c-23.44-15.63-42.91-36.3-61.14-57.58-5.15-6-10.2-12.07-15.26-18.15-1.58-1.9-5,.14-4.18,2.44a252.54,252.54,0,0,0,32.36,62q5.78,8.07,12.18,15.7a2.52,2.52,0,0,0,3.53,0,2.55,2.55,0,0,0,0-3.54Z" transform="translate(-45.4 -168.8)"/><path class="cls-1" d="M407.08,666.67q10.14,22.73,21.23,45t23.13,44.07q6.82,12.36,13.94,24.55c1.63,2.78,5.95.26,4.32-2.52q-12.56-21.49-24.18-43.5T423.2,689.79q-6-12.75-11.8-25.65a2.53,2.53,0,0,0-3.43-.89,2.57,2.57,0,0,0-.89,3.42Z" transform="translate(-45.4 -168.8)"/><path class="cls-1" d="M404.94,658.21a3,3,0,0,1-.43-2.24,6.74,6.74,0,0,1,1.17-2.57,6.41,6.41,0,0,1,5.64-2.5c3.21.1,6.2,1.77,8.82,3.49a66.82,66.82,0,0,1,7,5.38,94.39,94.39,0,0,1,21.76,28c12.43,23.78,15.58,50.85,14.75,77.33-.54,17.21-2.64,34.32-4.75,51.39a2.51,2.51,0,0,0,2.5,2.5,2.57,2.57,0,0,0,2.5-2.5c3.89-31.48,7.84-63.73,1.73-95.2-4.87-25.11-16.59-50.11-36.73-66.52-5.73-4.67-13.51-10.69-21.43-8.41a11.47,11.47,0,0,0-7.05,6.13,8.64,8.64,0,0,0,.94,9.28,2.51,2.51,0,0,0,3.54,0,2.56,2.56,0,0,0,0-3.53Z" transform="translate(-45.4 -168.8)"/><path class="cls-1" d="M478,639.78l24.51,43.71,24.5,43.7L540.86,752c1.57,2.81,5.89.29,4.31-2.52l-24.5-43.71-24.5-43.7-13.9-24.79c-1.57-2.81-5.89-.29-4.32,2.52Z" transform="translate(-45.4 -168.8)"/><path class="cls-1" d="M504,593.56q11.37,24.11,24,47.56t26.49,46q7.83,12.76,16.05,25.3c1.76,2.68,6.09.17,4.32-2.53q-14.62-22.29-28-45.34t-25.38-46.6q-6.81-13.35-13.2-26.9a2.52,2.52,0,0,0-3.42-.89,2.55,2.55,0,0,0-.89,3.42Z" transform="translate(-45.4 -168.8)"/><path class="cls-1" d="M504.68,639.89a332.8,332.8,0,0,1,48.66-43.43q7.57-5.51,15.44-10.58c2.69-1.74.19-6.07-2.52-4.32a337.68,337.68,0,0,0-52,41.39q-6.72,6.51-13.06,13.41c-2.18,2.36,1.35,5.9,3.53,3.53Z" transform="translate(-45.4 -168.8)"/></svg>